<svg id="Calque_1" data-name="Calque 1" xmlns="http://www.w3.org/2000/svg" xmlns:xlink="http://www.w3.org/1999/xlink" viewBox="0 0 400 230"><defs><style>.cls-1{fill:none;}.cls-2{fill:#eaf2fb;}.cls-3{fill:#e580b7;}.cls-4{fill:#f4b8df;}.cls-5{fill:#fff;}.cls-6{fill:#f3d2bf;}.cls-6,.cls-7{fill-rule:evenodd;}.cls-7{fill:#cc9694;}.cls-8{clip-path:url(#clip-path);}.cls-9{fill:#57a7ff;}.cls-10{clip-path:url(#clip-path-3);}.cls-11{clip-path:url(#clip-path-5);}.cls-12{fill:#4cdf76;}</style><clipPath id="clip-path"><rect class="cls-1" x="83" y="171.78" width="8.67" height="8.67"/></clipPath><clipPath id="clip-path-3"><rect class="cls-1" x="101.64" y="143.82" width="8.67" height="8.67"/></clipPath><clipPath id="clip-path-5"><rect class="cls-1" x="307.62" y="92.56" width="8.67" height="8.67"/></clipPath></defs><title>dribbble</title><path class="cls-2" d="M296.22,60.61C328.55,101.08,318.8,165.9,263.65,196c-28.48,15.55-109.81,19.71-135.17-1.89-19.47-16.57-17.24-40.68-24.87-52-27.28-40.51-.6-72.9,12-86.72,27.52-30.07,101.49-23.79,115.59-31.16C255.85,11.36,280.45,40.87,296.22,60.61Z"/><circle class="cls-3" cx="201.2" cy="118.18" r="68.49"/><circle class="cls-4" cx="201.2" cy="118.18" r="61.62"/><path class="cls-3" d="M264.58,118.34c-1.28-.5-2.54-1.11-3.86-1.5s-2.64-.87-4-1.28c-.66-.2-1.32-.43-2-.61l-2-.49-4.08-.94c-1.38-.24-2.77-.43-4.16-.65l-2.08-.31c-.7-.09-1.4-.11-2.1-.17-1.41-.09-2.81-.17-4.22-.23s-2.82.08-4.23.13l-2.12.11-2.1.24c-1.4.17-2.81.28-4.2.52s-2.78.5-4.15.8q-3.75.95-7.41,2.13c-.4-.85-.79-1.7-1.21-2.54l-5.92-11.62c1.36-.49,2.71-1,4.07-1.52,2.28-1,4.52-2,6.72-3.21s4.38-2.39,6.51-3.69a61.35,61.35,0,0,0,6-4.49c2-1.56,3.77-3.35,5.57-5.09A64,64,0,0,0,242.82,72l-4.71-3.52A126.53,126.53,0,0,1,228,77.68l-2.72,2c-.87.71-1.82,1.34-2.76,2-1.83,1.32-3.77,2.51-5.64,3.79s-3.8,2.5-5.8,3.62-4,2.2-6,3.37c-1.33.73-2.68,1.42-4,2.1-1.89-3.8-3.79-7.61-6-11.26-.74-1.21-1.49-2.42-2.26-3.61s-1.61-2.35-2.44-3.5L187.8,72.8c-.88-1.11-1.76-2.23-2.67-3.32s-1.83-2.18-2.78-3.24-1.91-2.12-2.9-3.14a71.45,71.45,0,0,0-6.32-5.91L169,61.39l4.92,6.44c1.63,2.18,3.27,4.36,4.86,6.57s3.18,4.43,4.76,6.66,3.1,4.48,4.68,6.7c2.27,3.19,4.59,6.37,6.71,9.68-.8.36-1.61.72-2.43,1.07a76.65,76.65,0,0,1-13.34,4.32,139.46,139.46,0,0,1-13.93,2l-27.79,3.79,0,5.88a86.24,86.24,0,0,0,14.71.24l3.64-.28,3.64-.41a70.23,70.23,0,0,0,7.2-1.21c4.78-1,9.43-2.57,14.11-3.86l14.11-3.83c1.31-.36,2.61-.75,3.91-1.17a99.74,99.74,0,0,1,5.46,12.34c.28.78.55,1.56.82,2.35-.54.23-1.09.47-1.63.72-5,2.37-9.9,5-14.65,7.84a116.2,116.2,0,0,0-13.84,9.2,62.71,62.71,0,0,0-6.12,5.63,79.13,79.13,0,0,0-5.49,6.23,76.64,76.64,0,0,0-4.86,6.73c-.76,1.16-1.46,2.36-2.15,3.57s-1.3,2.42-1.92,3.81l5.12,2.88c.72-.92,1.56-2,2.36-3s1.63-2,2.45-3l2.52-3,2.58-2.88c.87-.95,1.75-1.89,2.65-2.81s1.78-1.86,2.69-2.77l5.53-5.37a84.53,84.53,0,0,1,11.84-9.93A59,59,0,0,1,206,125.94l1.32-.4c.66,2.11,1.3,4.24,1.86,6.38,1.42,5.24,2.8,10.47,3.85,15.78a275,275,0,0,1,5.35,32.13h5.88a116.23,116.23,0,0,0-1.91-34.16c-.31-1.39-.65-2.79-1-4.18s-.79-2.75-1.18-4.12l-.6-2.06-.66-2c-.45-1.36-.88-2.72-1.4-4.05q-1.12-2.86-2.31-5.7c1.89-.38,3.78-.7,5.69-.94,1.26-.12,2.51-.28,3.76-.45s2.52-.18,3.77-.28l1.89-.13h1.89l3.79,0c1.26.06,2.52.1,3.78.13s2.53.09,3.8.18,2.54.16,3.8.27l3.81.48c2.56.22,5.06.83,7.63,1.2s5.06,1.11,7.65,1.57l1.95-5.55C267.12,119.42,265.86,118.88,264.58,118.34Z"/><path class="cls-5" d="M314.79,67.62c-3.35-8.88-10.08-14.56-22.14-10-8,3-13,14.1-10,22.14a17.18,17.18,0,0,0,22.14,10C312.82,86.73,318.14,76.5,314.79,67.62ZM309,61.37l-.9,1.45L307,64.55l-1.15,1.7c-.39.56-.77,1.13-1.15,1.69-.55.82-1.09,1.65-1.68,2.44l-.47-.48a19.44,19.44,0,0,1-2.19-2.75,33.2,33.2,0,0,1-1.71-3.09l-3-5.61C301.58,56.84,305.93,58.24,309,61.37Zm-15.76-2.16.83-.29a25.2,25.2,0,0,0,1.08,2.94l.39.83.42.81c.28.55.59,1.07.92,1.59.67,1,1.44,2,2.16,3l2.15,3c.2.28.4.55.61.82a24.51,24.51,0,0,1-2.41,2.37l-.48.4-.31-.32c-1-1-2.05-1.88-3.14-2.75a30.15,30.15,0,0,0-3.38-2.43,16.2,16.2,0,0,0-1.86-.94c-.64-.28-1.29-.52-1.95-.74a19.35,19.35,0,0,0-2-.54l-.88-.16A15.33,15.33,0,0,1,293.26,59.21Zm-8.57,9.08.18.06c.3.09.61.2.92.31l.91.33.9.35.9.37c.3.12.59.25.89.39l1.75.82a22,22,0,0,1,3.38,1.9,15,15,0,0,1,2.79,2.67c.08.09.14.18.21.27-.43.34-.87.68-1.33,1-1.1.8-2.21,1.59-3.36,2.3a67.14,67.14,0,0,1-6.53,3.82,15.54,15.54,0,0,1-2.05-3.74A15.27,15.27,0,0,1,284.69,68.29Zm2.7,15.91a26,26,0,0,0,2.94-1.1,27.72,27.72,0,0,0,3.8-2l.89-.6.87-.65.43-.32.42-.33c.27-.23.56-.45.82-.69s.76-.69,1.14-1c.25.41.5.83.72,1.25s.29.57.44.85.26.57.4.86l.2.43.16.45.34.88c.1.3.2.6.31.9s.2.6.29.91.19.61.27.92l.23.93c.17.62.25,1.26.39,1.9.06.31.1.62.15.93A15.46,15.46,0,0,1,287.39,84.2Zm16.91,3.89a5.23,5.23,0,0,0,0-.56c0-.34,0-.69-.05-1,0-.17,0-.35,0-.52l-.06-.52-.14-1c-.07-.34-.15-.68-.22-1l-.11-.52c0-.17-.1-.33-.15-.5-.1-.34-.2-.68-.32-1s-.26-.66-.4-1l-.21-.48-.25-.48c-.16-.31-.31-.63-.49-.94s-.36-.6-.56-.9c-.37-.53-.75-1-1.15-1.55l.49-.51,2.2-2.42.72.82a18.45,18.45,0,0,0,1.35,1.3c.45.42.94.81,1.44,1.2a15.36,15.36,0,0,0,1.59,1c.54.32,1.12.59,1.68.86a16.43,16.43,0,0,0,3.26,1A15.78,15.78,0,0,1,304.3,88.09Zm9.1-10.26a29.76,29.76,0,0,1-2.81-1.45l-.72-.45c-.25-.15-.48-.31-.71-.48-.47-.31-.92-.66-1.39-1s-.92-.67-1.36-1-.87-.75-1.32-1.11c-.29-.24-.58-.5-.85-.76.72-.78,1.44-1.56,2.11-2.4.22-.28.44-.56.65-.85s.4-.58.6-.88l.58-.9c.18-.31.37-.61.54-.92s.35-.63.52-.94.33-.64.48-1,.31-.67.45-1a21.2,21.2,0,0,1,3,5.55A14.85,14.85,0,0,1,313.4,77.83Z"/><path class="cls-5" d="M133.82,156.92c-8.68-3.82-17.45-3-22.64,8.82-3.46,7.86.95,19.18,8.81,22.64a17.19,17.19,0,0,0,22.65-8.81C146.1,171.7,142.51,160.74,133.82,156.92Zm-8.49-.25.4,1.66c.15.67.31,1.34.45,2s.29,1.34.42,2,.26,1.35.4,2c.2,1,.41,1.92.57,2.9h-.67a19.6,19.6,0,0,1-3.5-.36A32.86,32.86,0,0,1,120,166l-6.13-1.76C116.88,158.82,120.92,156.69,125.33,156.67Zm-12.57,9.76c.12-.28.24-.54.37-.81a24.2,24.2,0,0,0,2.85,1.29l.87.3.87.27c.59.19,1.18.33,1.78.46,1.2.24,2.42.36,3.63.53l3.63.55c.34,0,.67.09,1,.12a24,24,0,0,1,0,3.39c0,.21,0,.41,0,.62h-.44c-1.4,0-2.78.15-4.16.32a29,29,0,0,0-4.11.72,15.23,15.23,0,0,0-2,.67,21.64,21.64,0,0,0-3.69,1.94c-.25.16-.49.33-.73.51A15.26,15.26,0,0,1,112.76,166.43Zm.49,12.47.16-.09.87-.44.87-.42.88-.4.9-.38c.29-.13.59-.25.89-.36l1.82-.68a20.85,20.85,0,0,1,3.72-1.08,14.7,14.7,0,0,1,3.86-.13l.34,0q-.09.82-.21,1.65c-.21,1.35-.42,2.69-.71,4A67.73,67.73,0,0,1,124.8,188a14.21,14.21,0,0,1-11.55-9Zm13.25,9.2a24.52,24.52,0,0,0,1.27-2.87A26.79,26.79,0,0,0,129,181.1c.07-.35.13-.71.2-1.06s.09-.71.14-1.07l.07-.53.05-.54c0-.36.08-.71.09-1.07,0-.51,0-1,.05-1.54.47.1.94.22,1.4.36.3.1.6.19.91.27s.59.22.89.32l.45.16.43.19.88.38.85.41c.29.12.57.28.86.43l.84.44.83.5c.56.31,1.08.7,1.63,1l.77.55A15.46,15.46,0,0,1,126.5,188.1Zm14.61-9.36a4.89,4.89,0,0,0-.4-.39l-.78-.69-.39-.34-.42-.32-.85-.63-.88-.57-.45-.28c-.15-.09-.31-.17-.47-.25l-.94-.48-1-.4-.49-.18-.51-.16c-.34-.1-.68-.22-1-.31l-1-.23c-.64-.11-1.28-.2-1.92-.26,0-.24,0-.47,0-.71l-.19-3.26,1.09.06c.62,0,1.24,0,1.87-.06s1.25-.11,1.87-.19a16.86,16.86,0,0,0,1.84-.42,18.86,18.86,0,0,0,1.79-.61,16.11,16.11,0,0,0,3-1.61A15.77,15.77,0,0,1,141.11,178.74Zm-1-13.68a30.94,30.94,0,0,1-3,1l-.83.2c-.28.08-.56.12-.84.18-.55.11-1.12.19-1.68.3s-1.12.19-1.69.24-1.15.1-1.72.17c-.38,0-.76.06-1.14.08-.05-1.07-.1-2.13-.24-3.19,0-.36-.09-.71-.15-1.06s-.13-.7-.21-1.05l-.24-1c-.09-.35-.17-.69-.27-1s-.21-.68-.32-1-.22-.68-.35-1-.26-.7-.41-1a20.84,20.84,0,0,1,6.07,1.73A14.93,14.93,0,0,1,140.15,165.06Z"/><path class="cls-6" d="M287.85,159.89c-2.79-.45-3.86,3.86,3.45,6.57.73.27,3.71.95,6.91,1.64a16.93,16.93,0,0,1,7.51,4.07l7.15-2.74s-8.2-6-12.7-7.43C294.83,161.07,288.83,160,287.85,159.89Z"/><path class="cls-6" d="M270.22,165.22c-4.12-.78-7.17.06-6.77,2.05.29,1.43,23.73,4.79,23.29,5-.62.37-23.22-3.61-26.42-3.12-2.16.33-2.33,1.57-1.73,2,3.16,2.45,27,4.7,26.88,5.3-.08.4-25.58-3.81-28.69-3.48-1.12.13-2.58,1.33-1.27,2.71,1.84,2,26.65,4.4,26.76,5.32.05.36-18-1-20.91-.43-4.06,2.32,2,3.15,13.71,4.88,3.5.53,23.88,2,35.31,2.75,4.86,1.51,19.22,6.67,19.22,6.67s4.13-20,1.56-20.71c-5.24-1.49-22-6.78-24.29-6.82C295.05,167.24,278.19,166.72,270.22,165.22Z"/><path class="cls-7" d="M127.52,72.29c2.17-1.84-.36-5.57-7.22-1.8-.68.37-3.16,2.19-5.79,4.17a16.5,16.5,0,0,1-8,3L103.86,85s9.92-2.21,14-4.69C122,76.83,126.76,72.93,127.52,72.29Z"/><path class="cls-7" d="M133.22,56.42c3.31-2.57,4.7-5.41,2.95-6.43-1.26-.73-19.32,14.6-19.22,14.09.13-.71,18.09-15,19.85-17.71,1.18-1.83.37-2.78-.38-2.64-3.93.73-21.42,17.09-21.79,16.61s19.81-16.63,21.62-19.18c.65-.92.72-2.81-1.18-2.75-2.69.08-21,17-21.73,16.52-.3-.21,12.71-12.8,14.19-15.37.95-4.59-3.69-.59-12.74,7-2.72,2.29-17.31,16.59-25.47,24.62C85,73.83,74.5,80.94,74.5,80.94S78,98,82.83,99.77C88,96.38,105,84.91,107.26,82.39,115.24,73.67,126.81,61.4,133.22,56.42Z"/><g id="Zigouigoui_2" data-name="Zigouigoui 2"><g class="cls-8"><g class="cls-8"><path class="cls-9" d="M87.43,171.86c.14.71.24,1.42.36,2.13a14.08,14.08,0,0,1,.26,2.13,11.83,11.83,0,0,1-.21,2.13c-.12.71-.22,1.43-.41,2.14a.08.08,0,0,1-.11.06.09.09,0,0,1-.07-.06,20.16,20.16,0,0,1-.41-2.14,11,11,0,0,1-.21-2.13,14.08,14.08,0,0,1,.26-2.13c.12-.71.22-1.42.36-2.13a.1.1,0,0,1,.11-.08.11.11,0,0,1,.07.08"/><path class="cls-9" d="M83.07,176c.71-.14,1.42-.23,2.14-.35a12.93,12.93,0,0,1,2.13-.27,11.83,11.83,0,0,1,2.13.21c.71.12,1.42.23,2.13.41a.1.1,0,0,1,.07.11.08.08,0,0,1-.07.07,20,20,0,0,1-2.13.41,11,11,0,0,1-2.13.21,14.08,14.08,0,0,1-2.13-.26c-.72-.12-1.43-.22-2.14-.36a.09.09,0,0,1-.07-.11.12.12,0,0,1,.07-.07"/></g></g></g><g id="Zigouigoui_2-2" data-name="Zigouigoui 2"><g class="cls-10"><g class="cls-10"><path class="cls-9" d="M106.07,143.89c.14.72.24,1.43.36,2.14a14.08,14.08,0,0,1,.26,2.13,11.83,11.83,0,0,1-.21,2.13c-.12.71-.22,1.43-.41,2.14a.08.08,0,0,1-.11.06.09.09,0,0,1-.07-.06,20.16,20.16,0,0,1-.41-2.14,11,11,0,0,1-.21-2.13,14.08,14.08,0,0,1,.26-2.13c.12-.71.22-1.42.36-2.14a.1.1,0,0,1,.11-.07.12.12,0,0,1,.07.07"/><path class="cls-9" d="M101.71,148.07c.71-.14,1.42-.24,2.14-.36a14.08,14.08,0,0,1,2.13-.26,11.83,11.83,0,0,1,2.13.21c.71.12,1.42.22,2.13.41a.1.1,0,0,1,.07.11.08.08,0,0,1-.07.07,20,20,0,0,1-2.13.41,11.83,11.83,0,0,1-2.13.21,14.08,14.08,0,0,1-2.13-.26c-.72-.12-1.43-.22-2.14-.36a.09.09,0,0,1-.07-.11.12.12,0,0,1,.07-.07"/></g></g></g><g id="Zigouigoui_2-3" data-name="Zigouigoui 2"><g class="cls-11"><g class="cls-11"><path class="cls-9" d="M312.05,92.63c.14.71.23,1.43.35,2.14a14.1,14.1,0,0,1,.27,2.13,12.81,12.81,0,0,1-.21,2.13c-.12.71-.23,1.42-.41,2.13a.11.11,0,0,1-.12.07.09.09,0,0,1-.06-.07,20,20,0,0,1-.41-2.13,11.84,11.84,0,0,1-.22-2.13,14.1,14.1,0,0,1,.27-2.13c.12-.71.21-1.43.36-2.14a.09.09,0,0,1,.1-.07.11.11,0,0,1,.08.07"/><path class="cls-9" d="M307.69,96.81c.71-.14,1.42-.24,2.13-.36a14.05,14.05,0,0,1,2.14-.26,11.83,11.83,0,0,1,2.13.21,20,20,0,0,1,2.13.41.09.09,0,0,1,.07.11.1.1,0,0,1-.07.07,20,20,0,0,1-2.13.41,11.83,11.83,0,0,1-2.13.21,14.05,14.05,0,0,1-2.14-.26c-.71-.12-1.42-.22-2.13-.36a.09.09,0,0,1-.07-.11.1.1,0,0,1,.07-.07"/></g></g></g><path class="cls-12" d="M280.1,58.63a.66.66,0,0,0-.05-.15,1,1,0,0,0-.9-.58,1.07,1.07,0,0,0-.31.06,46,46,0,0,0-16.58,5.89,1.19,1.19,0,0,0-.37.3.85.85,0,0,0-.15.28,1,1,0,0,0,.54,1.2,1,1,0,0,0,.71,0,163.65,163.65,0,0,0,16.57-5.9.88.88,0,0,0,.21-.12,1,1,0,0,0,.36-.7A.82.82,0,0,0,280.1,58.63Z"/><path class="cls-12" d="M273.53,46.92a.94.94,0,0,0,.15-.76.79.79,0,0,0-.12-.3.6.6,0,0,0-.09-.13,1,1,0,0,0-.25-.21,1,1,0,0,0-1.06.06A46,46,0,0,0,258,55.94a1,1,0,0,0-.27.39.88.88,0,0,0-.07.32,1,1,0,0,0,.86,1,1.05,1.05,0,0,0,.69-.17A163.93,163.93,0,0,0,273.37,47.1.93.93,0,0,0,273.53,46.92Z"/><path class="cls-12" d="M263.93,36.51a1,1,0,0,0-.07-.78.82.82,0,0,0-.2-.25l-.12-.1a1.11,1.11,0,0,0-.3-.12,1,1,0,0,0-.77.13,1.2,1.2,0,0,0-.23.22,45.85,45.85,0,0,0-10.68,14,1,1,0,0,0-.15.45.85.85,0,0,0,0,.32,1,1,0,0,0,1.11.71,1,1,0,0,0,.6-.37,160.7,160.7,0,0,0,10.68-14A.81.81,0,0,0,263.93,36.51Z"/></svg>