<?xml version="1.0" encoding="UTF-8"?>
<svg width="1370px" height="510px" viewBox="0 0 1370 510" version="1.1" xmlns="http://www.w3.org/2000/svg" xmlns:xlink="http://www.w3.org/1999/xlink" style="background: #FFFFFF;">
    <!-- Generator: Sketch 47.1 (45422) - http://www.bohemiancoding.com/sketch -->
    <title>how-to-use-gulliver</title>
    <desc>Created with Sketch.</desc>
    <defs>
        <polygon id="path-1" points="2.58280001e-15 58.1917441 2.58280001e-15 0.0651875 80.3773824 0.0651875 80.3773824 58.1917441"></polygon>
        <polygon id="path-3" points="14.491528 0.0949551887 0.476378605 0.0949551887 0.476378605 14.3303515 14.491528 14.3303515 14.491528 0.0949551887"></polygon>
        <polygon id="path-5" points="5.08733336e-16 11.5028491 5.08733336e-16 0.207 15.8319087 0.207 15.8319087 11.5028491"></polygon>
        <polygon id="path-7" points="2.85439188 0.0184528302 0.0938321496 0.0184528302 0.0938321496 2.78484563 2.85439188 2.78484563 2.85439188 0.0184528302"></polygon>
    </defs>
    <g id="Elelments--illustrations" stroke="none" stroke-width="1" fill="none" fill-rule="evenodd">
        <g id="how-to-use-gulliver">
            <g id="Group-4" transform="translate(15.000000, 45.000000)">
                <g id="Group" transform="translate(690.000000, 30.000000)">
                    <rect id="Rectangle-3" stroke="#4BDF75" x="0.5" y="0.5" width="639" height="386" rx="10"></rect>
                    <g id="Page-1" transform="translate(184.000000, 66.000000)">
                        <polygon id="Fill-1" fill="#45CE70" points="256 230 261.776746 228.286823 258.888373 214.508969 269.433431 222.254484 273 218.924112 256 209"></polygon>
                        <polygon id="Fill-2" fill="#45CE70" points="188.731234 256 194.331568 254.026323 191.021275 240.379132 201.623374 247.652196 205 244.159748 188 235"></polygon>
                        <polygon id="Fill-3" fill="#529BEC" points="242.342397 252 247.309768 249.576015 242.497072 238.943658 253.295859 243.320743 256 239.983527 239 235"></polygon>
                        <polygon id="Fill-4" fill="#529BEC" points="39.4027433 179 38 184.011647 49.5689599 186.971714 38.9308781 192.058236 39.751593 196 55 186.843594"></polygon>
                        <g id="Group-73">
                            <g id="Group-7" transform="translate(0.000000, 1.582547)">
                                <mask id="mask-2" fill="white">
                                    <use xlink:href="#path-1"></use>
                                </mask>
                                <g id="Clip-6"></g>
                                <path d="M66.2437688,0.0651875 L14.1332647,3.4503691 C5.70577922,3.4503691 -0.000348891967,9.16515684 -0.000348891967,17.608013 L-0.000348891967,37.1623738 C-0.000348891967,45.60523 6.83095582,51.3200177 15.2584413,51.3200177 L36.2512709,51.3200177 L46.3639046,58.1917441 L46.3639046,50.1945366 L65.1168478,50.1945366 C73.5460777,50.1945366 80.3773824,43.3490248 80.3773824,34.9061686 L80.3773824,15.3535554 C80.3773824,6.91069929 74.6712543,0.0651875 66.2437688,0.0651875" id="Fill-5" fill="#57A7FF" mask="url(#mask-2)"></path>
                            </g>
                            <path d="M70.9065355,22.1227531 C68.0909774,22.3866469 65.195174,22.5963639 62.7110632,21.4726304 C61.484708,20.9291139 60.4118652,20.065779 59.7786262,18.9280644 C59.1663208,17.799088 58.8592959,16.3869936 59.2936664,15.2597649 C59.5030016,14.6917814 59.898994,14.2461328 60.3420868,14.1535078 C60.8061131,14.0469017 61.2858395,14.2758427 61.701021,14.7319771 C62.1179469,15.1846163 62.4319497,15.761338 62.7337412,16.4062177 C63.0459995,17.0353686 63.3338354,17.6767531 63.6007377,18.3268757 C64.6613693,20.9291139 65.4550985,23.6484441 65.8807467,26.432437 C66.0953153,27.8235597 66.2226609,29.2269158 66.2645279,30.6337672 C66.2470833,32.0318804 66.4389739,33.5418427 65.7778236,34.5240172 C65.1044621,35.5726021 63.8868292,36.3153498 62.6098846,36.5809913 C61.3189843,36.8623616 59.9286498,36.7435219 58.6464718,36.3118545 C56.033271,35.4922106 54.0498202,33.3146493 52.622852,30.9343616 C51.8936678,29.7372271 51.2691512,28.4631965 50.6725459,27.1751847 C50.0898963,25.9098922 49.5909808,24.5781894 49.8631166,23.3530927 L49.5334136,23.721845 C50.6010231,23.3600833 51.8500563,24.2496328 52.3559497,25.3523946 C52.8653319,26.4691375 52.7658977,27.8812318 52.2355819,29.0538993 C51.1871616,31.4848686 48.4588264,32.8095809 45.8159697,33.0944465 C44.4849469,33.2412483 43.1225238,33.1241564 41.9642024,32.5893781 C40.8058811,32.0738238 39.9109732,31.0794158 39.1660889,29.9417012 C37.6693423,27.6260762 36.6156886,25.0011186 36.0714171,22.2922743 L34.7700501,22.5631587 C35.2427987,24.7791682 34.5554815,27.2748002 32.9750009,28.8721446 C31.4119649,30.5341517 28.9295985,30.7753262 26.4716546,30.951838 C25.240066,31.0601917 24.2073458,30.9780526 23.263593,30.3314252 C22.3180958,29.7075172 21.4092322,28.8302012 20.5893361,27.9581281 C18.9512883,26.1737861 17.641199,24.0801116 16.7585023,21.8169158 L16.1060743,22.5159724 C16.1357301,22.4967483 16.2613312,22.6610267 16.2386533,22.8550149 C16.2316754,23.0140502 16.0886297,23.2604677 15.8635944,23.4771752 C15.3821235,23.9350573 14.7907516,24.394687 14.2063575,24.7861587 C13.0218693,25.5830833 11.7187578,26.2069913 10.3511013,26.6264252 C10.1243215,26.6945833 9.99872043,26.9322625 10.0667544,27.1594559 C10.1330438,27.3814064 10.3668015,27.5072366 10.5883479,27.4460691 C12.0502052,27.0388686 13.449262,26.413213 14.7349289,25.5970644 C15.3838679,25.1793781 15.9769843,24.7512059 16.5788229,24.209437 C16.8753811,23.9193285 17.2120618,23.5400903 17.2800958,22.9528828 C17.3306851,22.4285903 17.1230944,21.7487578 16.4183326,21.498845 C16.1461969,21.4009771 15.8496387,21.5425361 15.7536934,21.8134205 C15.7100819,21.9340078 15.7135708,22.059838 15.7554379,22.1699394 L15.7659046,22.196154 C16.6608125,24.5991611 18.0110244,26.8308993 19.7205951,28.748062 C20.5945695,29.7005267 21.4737772,30.5935715 22.5972093,31.366029 C23.1606699,31.7400243 23.8375203,32.0528521 24.5440265,32.1699441 C25.2435549,32.292279 25.9221498,32.273055 26.5571332,32.2363545 C27.8061664,32.15072 29.0813666,32.087805 30.3827336,31.7749771 C31.6736339,31.483121 32.9784898,30.8155219 33.9309649,29.8211139 C35.8533596,27.8427837 36.6313887,24.9521847 36.0696726,22.2817884 C35.9929164,21.9217743 35.6405355,21.6910856 35.2811768,21.7679818 C34.9235625,21.8431304 34.6950383,22.196154 34.7683056,22.5544205 C35.3526997,25.4345337 36.465665,28.1940597 38.0705681,30.6652248 C38.8730196,31.8955644 39.9580736,33.1276517 41.4373756,33.7602979 C42.8887661,34.3999347 44.4727357,34.496055 45.9590154,34.3160479 C47.4452952,34.1220597 48.908897,33.6764111 50.2172419,32.8899724 C51.5203534,32.1157672 52.6525078,30.9361092 53.252602,29.4960526 C53.8579296,28.07522 53.9992308,26.3869983 53.2997024,24.8945125 C52.9333659,24.1709889 52.3978167,23.541838 51.6878215,23.1136658 C50.995271,22.6872413 50.0654739,22.4897578 49.2211553,22.776371 L49.212433,22.7781186 C49.0432204,22.8357908 48.9245972,22.9790974 48.8914524,23.1433757 C48.5600051,24.7844111 49.2054552,26.2891304 49.7985715,27.5806375 C50.4143659,28.8843781 51.0580715,30.1811281 51.8273783,31.4219535 C52.5897073,32.6662743 53.4863596,33.84768 54.557458,34.8735455 C55.6128562,35.9064017 56.9107343,36.7575031 58.3394469,37.2311139 C59.7542038,37.7222012 61.3120064,37.8847318 62.8209642,37.5771469 C64.326433,37.2678144 65.7725902,36.4534134 66.674476,35.095496 C67.1385023,34.4121682 67.3129483,33.5348521 67.3443485,32.7973474 C67.3774933,32.0563474 67.38796,31.3398144 67.3740044,30.6075526 C67.346093,29.1535149 67.2292142,27.7012248 67.0216235,26.2611682 C66.6012087,23.3828026 65.8510909,20.5428851 64.6997474,17.8654983 C64.4188894,17.194404 64.1136089,16.5337955 63.7856505,15.8836729 C63.4733922,15.2405408 63.1018222,14.5362413 62.5418506,13.9385479 C62.0202571,13.3443498 61.0608042,12.8008333 60.0908846,13.0455031 C59.1052648,13.2814347 58.5191262,14.1150597 58.248735,14.8682932 C57.2386927,18.1276446 59.4960238,21.3240809 62.2923929,22.4268427 C65.1271401,23.6571823 68.1939005,23.2866823 70.9937585,22.9721068 C71.2275161,22.9458922 71.3967287,22.7361752 71.3705618,22.5002436 C71.3443949,22.269555 71.1385487,22.1000337 70.9065355,22.1227531" id="Fill-8" fill="#FFFFFF"></path>
                            <path d="M73.7616929,148.896668 L95.6668751,150.317501 C99.2081285,150.317501 101.606761,152.720508 101.606761,156.269968 L101.606761,164.489126 C101.606761,168.036838 98.7336355,170.439845 95.192382,170.439845 L86.3706486,170.439845 L82.1176555,173.328696 L82.1176555,169.967982 L74.2344416,169.967982 C70.6931881,169.967982 67.8218072,167.089616 67.8218072,163.540156 L67.8218072,155.322746 C67.8218072,151.773286 70.2204395,148.896668 73.7616929,148.896668" id="Fill-10" fill="#4CDF76"></path>
                            <path d="M56.693549,134.449615 L36.3880366,135.767337 C33.1067076,135.767337 30.8807769,137.993832 30.8807769,141.284641 L30.8807769,148.904358 C30.8807769,152.191671 33.5428226,154.421662 36.8276404,154.421662 L45.0074126,154.421662 L48.9481474,157.097301 L48.9481474,153.981256 L56.2539452,153.981256 C59.538763,153.981256 62.2008087,151.312608 62.2008087,148.025294 L62.2008087,140.405577 C62.2008087,137.114768 59.9766224,134.449615 56.693549,134.449615" id="Fill-12" fill="#57A7FF"></path>
                            <path d="M255.640296,218.563426 C253.791169,218.563426 251.938553,217.380273 251.554771,215.475343 C240.226249,159.096428 184.973973,148.208622 184.455868,148.067063 C182.191559,147.455388 180.85007,145.118792 181.460631,142.850353 C182.069447,140.580167 184.403535,139.230987 186.66261,139.842662 C188.965297,140.461327 243.270332,155.65707 259.72931,213.126513 C260.37476,215.387961 259.071649,217.747277 256.816062,218.395652 C256.421814,218.509249 256.029311,218.563426 255.640296,218.563426" id="Fill-14" fill="#B0BED2"></path>
                            <path d="M189.011874,244.110799 C188.076844,244.110799 187.13658,243.801467 186.349828,243.170568 C137.321785,203.652898 163.75384,149.774858 164.02772,149.236584 C165.088352,147.139415 167.647475,146.297051 169.740826,147.361365 C171.832434,148.420436 172.671519,150.980731 171.616121,153.0779 C170.635734,155.033511 144.45837,204.121266 191.679153,236.531278 C193.617248,237.861233 193.798672,240.688917 192.326348,242.522193 C191.487263,243.567283 190.255674,244.110799 189.011874,244.110799" id="Fill-16" fill="#B0BED2"></path>
                            <path d="M136.238475,136.113719 C136.238475,136.113719 136.890903,165.849839 170.128096,165.849839 C203.363545,165.849839 196.917766,135.264365 196.917766,135.264365 L136.238475,136.113719 Z" id="Fill-18" fill="#DCE7F2"></path>
                            <polygon id="Fill-20" fill="#DCE7F2" points="103.689995 66.8941828 104.618047 95.0836403 112.558829 95.1168455 112.680941 66.9326309"></polygon>
                            <polygon id="Fill-22" fill="#C8D4E5" points="84.2096118 78.6718884 84.1956561 81.9749309 104.670381 83.1143932 104.693059 77.708938"></polygon>
                            <path d="M81.2829315,73.2907255 C80.2990562,73.2854825 79.3099474,73.4724802 78.4115506,73.8429802 C77.5044315,74.2134802 76.6827909,74.7482585 76.0024516,75.4018764 C75.3203678,76.0589896 74.7795852,76.8366901 74.421971,77.6808009 C74.0591233,78.5231642 73.898633,79.4336854 73.9160776,80.3284778 C73.9527113,82.1302962 74.7621407,83.8761901 76.0896746,85.153716 L76.6095236,85.6150934 L77.1747286,86.0292844 C77.373597,86.1516193 77.570721,86.2826925 77.7748228,86.3997844 C77.9876469,86.5046429 78.1987265,86.616492 78.416784,86.7143599 C79.2925028,87.0953458 80.2624225,87.3120533 81.2410645,87.3312774 L81.3090984,87.3312774 C82.2615735,87.3347726 83.2210264,87.1547656 84.0880229,86.7877608 C84.9794419,86.4155132 85.757471,85.8405392 86.364543,85.1572113 C86.9733595,84.4721358 87.4042411,83.6839495 87.688588,82.8747915 C87.9746794,82.0656335 88.1142362,81.2285132 88.124703,80.3896453 C88.1299364,79.5542726 88.0043352,78.7154047 87.7304551,77.8957608 C87.4583193,77.0796123 87.0379045,76.2791925 86.4378103,75.5801358 C85.8394606,74.8828269 85.0649204,74.2903764 84.171757,73.9006524 C83.2820825,73.507433 82.2894848,73.302959 81.3003761,73.2907255 L81.2829315,73.2907255 Z" id="Fill-24" fill="#79E798"></path>
                            <polygon id="Fill-26" fill="#DCE7F2" points="184.269037 29.9223024 156.1309 30.8520476 156.097755 38.8090594 184.230659 38.9296467"></polygon>
                            <polygon id="Fill-28" fill="#C8D4E5" points="172.511029 10.4081373 169.215744 10.3924085 168.076612 30.9062245 173.47397 30.9271962"></polygon>
                            <path d="M170.543452,130.253003 L162.065377,130.216303 C133.881884,130.093968 110.080474,108.22573 110.190375,82.6752108 C110.302021,57.124692 134.28311,37.5685835 162.463114,37.6891708 L170.942934,37.7276189 C199.124682,37.8482061 222.924348,59.718192 222.816191,85.2687108 C222.704546,110.81923 198.723456,130.375338 170.543452,130.253003" id="Fill-30" fill="#56A7FF"></path>
                            <path d="M189.999936,94.3426403 L140.143274,92.7680153 C135.033751,92.745296 130.911593,88.1210366 130.942993,80.7617182 C130.974393,73.405895 135.143652,67.458671 140.251431,67.4813903 L190.120304,66.3384328 C195.229827,66.3594045 199.339774,73.7012465 199.308374,81.0588172 C199.276974,88.416388 195.109459,94.3653597 189.999936,94.3426403" id="Fill-32" fill="#FFFFFF"></path>
                            <g id="Group-36" transform="translate(163.392659, 0.000000)">
                                <mask id="mask-4" fill="white">
                                    <use xlink:href="#path-3"></use>
                                </mask>
                                <g id="Clip-35"></g>
                                <path d="M14.49148,7.47594434 C14.4949689,6.49027453 14.3083117,5.49761415 13.9384862,4.59757877 C13.5704052,3.69055283 13.0366005,2.86741368 12.382428,2.18408585 C11.7282556,1.50250566 10.951971,0.960736792 10.1093969,0.602470283 C9.26856724,0.237213208 8.35795921,0.0781778302 7.46479578,0.0956542453 C5.66625769,0.130607075 3.92528677,0.943260377 2.65008663,2.27321557 L2.18954924,2.79226509 L1.7743678,3.35850094 C1.65225561,3.55947972 1.52316558,3.75696321 1.40628677,3.96143726 C1.29987472,4.17464953 1.18997375,4.38436651 1.092284,4.6028217 C0.711991759,5.48188538 0.49393428,6.45357406 0.476489681,7.4322533 L0.476489681,7.50041132 C0.471256302,8.45637123 0.650935665,9.41582642 1.01901669,10.2861519 C1.38884217,11.1791967 1.96276946,11.9586448 2.64485325,12.5668241 C3.33042597,13.1750033 4.11717735,13.6084184 4.92486226,13.893284 C5.73254716,14.1781495 6.56814342,14.3197085 7.40373968,14.3301943 C8.23933594,14.3354373 9.07667666,14.2096071 9.89308386,13.9352274 C10.7094911,13.6625953 11.5084537,13.2414137 12.2062376,12.640225 C12.9022771,12.0390363 13.493649,11.2630835 13.8826635,10.368291 C14.2734225,9.47699387 14.4775243,8.48433349 14.49148,7.49342075 L14.49148,7.47594434 Z" id="Fill-34" fill="#79E798" mask="url(#mask-4)"></path>
                            </g>
                            <polygon id="Fill-37" fill="#DCE7F2" points="226.330406 95.610729 225.400608 67.4212715 214.994906 67.3758328 214.874538 95.561795"></polygon>
                            <polygon id="Fill-39" fill="#C8D4E5" points="243.343948 83.8209646 243.359648 80.5179222 222.883178 79.3784599 222.862245 84.7839151"></polygon>
                            <path d="M246.270628,89.2038752 C247.254503,89.2073705 248.245357,89.0203729 249.143753,88.6498729 C250.049128,88.2793729 250.870769,87.7445946 251.552852,87.0909767 C252.233192,86.4356111 252.773974,85.6579106 253.131589,84.8120521 C253.496181,83.9714366 253.654927,83.0591677 253.637482,82.1643752 C253.602593,80.3625568 252.791419,78.616663 251.463885,77.3408847 L250.94578,76.8795073 L250.380575,76.4635686 C250.179963,76.3412337 249.982839,76.2101606 249.778737,76.0930686 C249.565913,75.9882101 249.356578,75.8763611 249.13852,75.7784932 C248.261057,75.399255 247.291137,75.1807998 246.31424,75.1633233 C246.291562,75.1633233 246.268884,75.1615757 246.246206,75.1615757 C245.291986,75.1580804 244.332533,75.3380875 243.465537,75.7050922 C242.574118,76.0773399 241.796089,76.6523139 241.189017,77.3356417 C240.581945,78.0224649 240.149319,78.8106512 239.864972,79.6198092 C239.580625,80.4289672 239.439323,81.2660875 239.428857,82.1032078 C239.423623,82.9385804 239.549224,83.779196 239.823105,84.5970922 C240.09524,85.4149884 240.515655,86.2136606 241.115749,86.9127172 C241.715843,87.6100262 242.490384,88.2042243 243.383547,88.5922007 C244.273222,88.98542 245.264075,89.1898941 246.253184,89.2038752 L246.270628,89.2038752 Z" id="Fill-41" fill="#79E798"></path>
                            <path d="M178.681357,72.8144932 C180.284516,72.0769884 181.980131,71.8078517 183.714124,71.923196 C185.441139,72.1696134 187.094887,72.6572054 188.75038,73.3195616 C189.594698,73.6533611 190.33086,74.1968776 191.068767,74.7683564 C191.695028,75.442946 192.324778,76.1454979 192.703326,76.9808705 C193.551133,78.6219059 193.687201,80.4272196 193.615678,82.1171889 L192.092765,82.2465144 C191.813651,81.5107573 191.64095,80.766262 191.393236,80.0689531 C191.084467,79.4048493 190.882109,78.6918116 190.505306,78.1115946 C189.922657,76.8480498 189.085316,75.7330545 187.886872,74.9291394 C186.704128,74.0675521 185.123648,73.892788 183.64609,74.0325993 C182.168533,74.0640568 180.628175,74.1566818 179.129684,74.2755215 L178.681357,72.8144932 Z" id="Fill-43" fill="#B0BED2"></path>
                            <path d="M199.308199,136.151293 C199.308199,136.151293 175.4248,138.134867 167.440407,138.1471 C159.058278,138.159333 133.964223,136.151293 133.964223,136.151293 L135.672049,123.372539 C135.672049,123.372539 158.77742,121.268378 166.501888,121.112838 C174.706082,120.943317 199.308199,122.175404 199.308199,122.175404 L199.308199,136.151293 Z" id="Fill-45" fill="#C8D4E5"></path>
                            <path d="M144.458195,136.936334 C147.369699,137.144303 150.59695,137.362758 153.757911,137.556747 L153.757911,121.866421 C150.570783,122.105848 147.315621,122.369742 144.458195,122.609169 L144.458195,136.936334 Z" id="Fill-47" fill="#B0BED2"></path>
                            <path d="M163.028843,138.042242 C164.74888,138.108652 166.263071,138.148848 167.440582,138.1471 C168.717526,138.145352 170.402674,138.091175 172.328558,138.005541 L172.328558,121.142548 C170.01366,121.097109 167.988342,121.081381 166.502062,121.111091 C165.553076,121.130315 164.372077,121.180996 163.028843,121.250902 L163.028843,138.042242 Z" id="Fill-49" fill="#B0BED2"></path>
                            <path d="M181.599664,137.472161 C184.830404,137.258949 188.076844,137.023017 190.897635,136.811552 L190.897635,121.785331 C188.089055,121.664743 184.84436,121.530175 181.599664,121.414831 L181.599664,137.472161 Z" id="Fill-51" fill="#B0BED2"></path>
                            <path d="M151.493951,139.786388 C150.515309,139.781145 149.531434,139.968142 148.636526,140.336895 C147.738129,140.7039 146.921722,141.235183 146.241382,141.885305 C145.566276,142.538923 145.028983,143.313128 144.671368,144.151996 C144.310265,144.990864 144.149775,145.894395 144.168964,146.78744 C144.202109,148.577025 145.008049,150.312433 146.33035,151.582968 L146.84671,152.042598 L147.406682,152.455041 C147.60555,152.577376 147.802674,152.706701 148.006776,152.823793 C148.217855,152.928652 148.427191,153.038753 148.643504,153.136621 C149.515733,153.514112 150.48042,153.730819 151.452084,153.748296 C151.473017,153.750043 151.49744,153.750043 151.520118,153.750043 C152.467359,153.753539 153.421579,153.575279 154.285087,153.210022 C155.171272,152.839522 155.945812,152.268043 156.547651,151.588211 C157.152979,150.906631 157.582116,150.12194 157.864718,149.318025 C158.147321,148.510614 158.288622,147.680484 158.297344,146.846859 C158.302578,146.014982 158.178721,145.179609 157.90833,144.365208 C157.636194,143.554303 157.217524,142.757378 156.620918,142.063565 C156.026058,141.369751 155.255006,140.779048 154.367076,140.392819 C153.480891,140.003095 152.495271,139.798621 151.511395,139.786388 L151.493951,139.786388 Z" id="Fill-53" fill="#B0BED2"></path>
                            <path d="M177.931763,143.573527 C176.951377,143.570032 175.969246,143.755282 175.074338,144.124034 C174.174197,144.492786 173.357789,145.024069 172.67745,145.674192 C172.002344,146.326062 171.46505,147.102015 171.109181,147.939135 C170.748077,148.778003 170.587587,149.683282 170.606776,150.574579 C170.639921,152.364164 171.445861,154.101319 172.766417,155.371855 L173.284522,155.831484 L173.844494,156.243928 C174.043362,156.366263 174.240486,156.495588 174.442843,156.610933 C174.655667,156.715791 174.863258,156.82764 175.081316,156.92376 C175.951801,157.302999 176.916487,157.519706 177.888152,157.537183 L177.956185,157.537183 C178.905172,157.542425 179.857647,157.362418 180.722899,156.997161 C181.60734,156.628409 182.38188,156.05693 182.983719,155.377098 C183.589046,154.69377 184.018183,153.910826 184.300786,153.105164 C184.585133,152.299501 184.726434,151.469371 184.735156,150.635746 C184.74039,149.802121 184.614789,148.968496 184.344397,148.154095 C184.074006,147.341442 183.653591,146.546265 183.056986,145.850704 C182.462125,145.15689 181.691074,144.567935 180.803144,144.181706 C179.918703,143.790234 178.931339,143.587508 177.949208,143.573527 L177.931763,143.573527 Z" id="Fill-55" fill="#B0BED2"></path>
                            <path d="M263.371219,217.390933 C263.711389,216.359825 263.854434,215.258811 263.775934,214.189254 C263.700922,213.114454 263.423553,212.071112 262.975227,211.130881 C262.525156,210.194146 261.895406,209.360521 261.13831,208.694669 C260.382959,208.02707 259.486307,207.544721 258.544299,207.258108 C256.65156,206.676143 254.552975,206.927804 252.763159,207.883763 L252.103753,208.268245 L251.477492,208.717388 C251.278623,208.885162 251.076266,209.047693 250.884375,209.220709 C250.701207,209.409454 250.512806,209.591209 250.334871,209.785197 C249.637087,210.575131 249.07886,211.515363 248.724734,212.53249 C248.716012,212.555209 248.709034,212.579676 248.700312,212.604143 C248.368864,213.602046 248.227563,214.669855 248.314786,215.704459 C248.39852,216.767025 248.731712,217.780657 249.235861,218.649235 C249.743499,219.521308 250.418605,220.243084 251.166978,220.818058 C251.915351,221.39478 252.740481,221.829943 253.610966,222.127042 C254.483196,222.418898 255.404271,222.576186 256.351513,222.569195 C257.298754,222.563952 258.277396,222.397926 259.212427,222.00995 C260.145713,221.620226 261.030154,221.010299 261.743638,220.208131 C262.458866,219.409459 263.01186,218.441266 263.364241,217.40841 C263.365986,217.403167 263.369475,217.396176 263.371219,217.390933" id="Fill-57" fill="#79E798"></path>
                            <path d="M197.66422,242.240298 C197.978223,241.294824 198.109058,240.284688 198.037535,239.302513 C197.967756,238.316843 197.713065,237.359136 197.303117,236.497548 C196.887936,235.637709 196.312264,234.872242 195.616225,234.264063 C194.923674,233.648893 194.102033,233.208487 193.236781,232.944593 C191.501044,232.411563 189.573416,232.642251 187.933623,233.51782 L187.326551,233.870843 L186.752624,234.281539 C186.5712,234.435331 186.384543,234.585629 186.208353,234.746412 C186.040885,234.91768 185.866439,235.083706 185.705948,235.263713 C185.063987,235.985489 184.551116,236.848824 184.226646,237.782065 C184.219668,237.804784 184.212691,237.827504 184.203968,237.848475 C183.900432,238.764239 183.771342,239.742919 183.851587,240.693636 C183.926599,241.667072 184.233624,242.596817 184.695906,243.393742 C185.163421,244.194162 185.78096,244.856518 186.468277,245.386053 C187.155594,245.915588 187.910945,246.312303 188.709908,246.584935 C189.510615,246.854072 190.356678,246.997379 191.225419,246.992136 C192.092416,246.986893 192.990813,246.834848 193.849087,246.478329 C194.707361,246.120063 195.518535,245.560817 196.172707,244.82506 C196.828624,244.092798 197.336262,243.204996 197.658987,242.257775 C197.660732,242.252532 197.662476,242.245541 197.66422,242.240298" id="Fill-59" fill="#79E798"></path>
                            <path d="M88.1245285,199.938461 C77.2670105,199.938461 66.1129343,198.002074 54.4180756,192.105532 C52.3212349,191.048208 51.4751719,188.486166 52.5323145,186.385501 C53.5859683,184.284836 56.1363686,183.43723 58.2401871,184.498048 C75.3201934,193.112173 92.5310341,195.588581 107.024006,190.123706 C134.802785,179.648343 147.158794,145.876918 147.293117,145.546614 C148.172325,143.369053 150.644225,142.31173 152.828288,143.197784 C155.005374,144.078595 156.053794,146.561994 155.172842,148.741303 C154.571004,150.235536 139.416881,184.559216 108.185817,196.333076 C101.567336,198.828708 95.1738907,199.938461 88.1245285,199.938461" id="Fill-61" fill="#C8D4E5"></path>
                            <path d="M55.7923611,181.449987 C54.7456852,181.444744 53.6955204,181.643975 52.7378119,182.038942 C51.7748701,182.432161 50.9026402,183.000145 50.1769449,183.695706 C49.452994,184.393015 48.8790668,185.219649 48.4987745,186.117937 C48.1132489,187.012729 47.9422918,187.980923 47.9614809,188.933388 C47.9981145,190.848803 48.8598777,192.70305 50.2728902,194.062715 L50.8241395,194.552055 L51.4242337,194.994208 C51.6353133,195.125281 51.8463929,195.261597 52.0644504,195.387428 C52.2894857,195.497529 52.5145211,195.616369 52.7465342,195.721227 C53.6780758,196.124932 54.7073071,196.357369 55.7470051,196.376593 C55.7696831,196.376593 55.79585,196.37834 55.8202724,196.37834 C56.8338036,196.381836 57.8543126,196.191343 58.7753874,195.799871 C59.7226291,195.403156 60.5512475,194.793229 61.1966976,194.067958 C61.8421478,193.339192 62.2991963,192.498576 62.6027323,191.638737 C62.9062683,190.778897 63.0545474,189.889347 63.0667586,188.99805 C63.071992,188.110248 62.9376686,187.215456 62.6480882,186.346878 C62.3585079,185.4783 61.9119262,184.627199 61.2734539,183.884451 C60.6349816,183.143451 59.813341,182.512553 58.8643548,182.098362 C57.9171132,181.682423 56.861715,181.463968 55.8115501,181.449987 L55.7923611,181.449987 Z" id="Fill-63" fill="#57A7FF"></path>
                            <path d="M239.429031,242.803388 C238.907438,242.803388 238.377122,242.705521 237.864251,242.502794 C182.542196,220.52795 173.797219,153.900865 173.450071,151.074929 C173.165724,148.741827 174.822961,146.618443 177.151815,146.331829 C179.49288,146.060945 181.601932,147.705476 181.889768,150.036829 C181.970013,150.676466 186.249173,216.562551 240.9973,234.58423 C243.228465,235.31824 244.248974,237.925721 243.383722,240.113768 C242.720827,241.784513 241.121157,242.803388 239.429031,242.803388" id="Fill-65" fill="#C8D4E5"></path>
                            <path d="M245.674372,240.738375 C245.962208,239.86805 246.082575,238.936557 246.016286,238.031279 C245.953485,237.124253 245.719728,236.241694 245.34118,235.446517 C244.959143,234.654835 244.427083,233.948788 243.786866,233.387795 C243.148394,232.821559 242.391298,232.414359 241.59408,232.173184 C239.994411,231.680349 238.220295,231.891814 236.706104,232.699224 L236.149621,233.026033 L235.617561,233.405271 C235.453582,233.54683 235.28088,233.684894 235.116901,233.831696 C234.963388,233.990731 234.804643,234.144524 234.654619,234.308802 C234.064992,234.974654 233.590498,235.76983 233.292196,236.62967 L233.273007,236.692585 C232.990404,237.534948 232.873525,238.438479 232.946793,239.314047 C233.016571,240.20884 233.297429,241.065184 233.724822,241.800941 C234.153959,242.538446 234.726142,243.150121 235.357636,243.635965 C235.989131,244.123557 236.688659,244.488814 237.424821,244.742222 C238.159239,244.990387 238.939012,245.12146 239.741464,245.116217 C240.540426,245.112722 241.3673,244.971163 242.159285,244.640859 C242.949525,244.31405 243.696154,243.798496 244.299737,243.120411 C244.90332,242.445821 245.370836,241.626177 245.669138,240.754104 L245.674372,240.738375 Z" id="Fill-67" fill="#57A7FF"></path>
                            <path d="M135.672921,123.373238 L130.127284,119.745134 C130.127284,119.745134 194.367017,120.386518 202.954993,120.608469 L198.056549,123.568974 L135.672921,123.373238 Z" id="Fill-69" fill="#529BEC"></path>
                            <path d="M214.994731,67.3753085 C214.994731,67.3753085 210.659748,71.8545137 210.659748,77.7091127 C210.659748,83.5637118 214.874363,95.5612708 214.874363,95.5612708 L214.994731,67.3753085 Z" id="Fill-71" fill="#529BEC"></path>
                        </g>
                    </g>
                </g>
                <g id="Group-2" transform="translate(0.000000, 1.000000)">
                    <rect id="Rectangle-3" stroke="#FB7575" x="0.5" y="29.5" width="639" height="386" rx="10"></rect>
                    <g id="Page-1" transform="translate(283.000000, 198.000000)">
                        <polygon id="Fill-1" fill="#45CE70" points="49 44 50.3592343 43.6736806 49.6796172 41.0493274 52.1608074 42.5246637 53 41.890307 49 40"></polygon>
                        <polygon id="Fill-2" fill="#45CE70" points="37.172055 49 38.4897808 48.6240614 37.7108881 46.0245965 40.2054998 47.4099422 41 46.7447139 37 45"></polygon>
                        <polygon id="Fill-3" fill="#529BEC" points="47.7864464 49 48.9552395 48.4296506 47.8228404 45.9279194 50.3637314 46.9578218 51 46.1725947 47 45"></polygon>
                        <polygon id="Fill-4" fill="#529BEC" points="7.33005724 34 7 35.1792111 9.72210822 35.8756974 7.21903013 37.0725262 7.41213954 38 11 35.8455515"></polygon>
                        <g id="Group-73">
                            <g id="Group-7" transform="translate(0.000000, 0.113208)">
                                <mask id="mask-6" fill="white">
                                    <use xlink:href="#path-5"></use>
                                </mask>
                                <g id="Clip-6"></g>
                                <path d="M13.0480151,0.207 L2.78382486,0.864849057 C1.1238656,0.864849057 -6.8721145e-05,1.97541509 -6.8721145e-05,3.61613208 L-6.8721145e-05,7.41616981 C-6.8721145e-05,9.05688679 1.3454913,10.1674528 3.00545055,10.1674528 L7.14040185,10.1674528 L9.13228423,11.5028491 L9.13228423,9.94873585 L12.8260458,9.94873585 C14.4863486,9.94873585 15.8319087,8.61843396 15.8319087,6.97771698 L15.8319087,3.17801887 C15.8319087,1.53730189 14.7079743,0.207 13.0480151,0.207" id="Fill-5" fill="#57A7FF" mask="url(#mask-6)"></path>
                            </g>
                            <path d="M13.9664388,4.29915849 C13.4118592,4.35044151 12.8414737,4.39119623 12.3521791,4.17281887 C12.1106243,4.06719623 11.8993068,3.89942264 11.7745779,3.6783283 C11.6539723,3.45893208 11.5934977,3.18451698 11.6790555,2.96546038 C11.7202882,2.85508302 11.7982867,2.76847925 11.8855625,2.75047925 C11.9769617,2.72976226 12.0714532,2.77425283 12.1532314,2.86289434 C12.2353532,2.9508566 12.2972022,3.06293208 12.356646,3.18825283 C12.4181514,3.31051698 12.4748464,3.43515849 12.527418,3.56149811 C12.7363303,4.06719623 12.8926709,4.59564906 12.9765107,5.13666792 C13.0187742,5.40700755 13.0438574,5.67972453 13.052104,5.95312075 C13.0486679,6.22481887 13.0864646,6.51825283 12.956238,6.70912075 C12.8236062,6.91289434 12.5837694,7.05723396 12.33225,7.1088566 C12.0779818,7.16353585 11.804128,7.14044151 11.5515778,7.05655472 C11.0368564,6.8972717 10.6461767,6.47410189 10.3651072,6.01153585 C10.22148,5.77889434 10.0984692,5.53130943 9.98095601,5.28100755 C9.8661917,5.03512075 9.76792046,4.7763283 9.82152296,4.53825283 L9.75658148,4.60991321 C9.96686818,4.53961132 10.2128899,4.71247925 10.3125355,4.92678113 C10.4128684,5.1438 10.3932829,5.41821509 10.2888267,5.64610189 C10.0823197,6.11851698 9.54492035,6.37595094 9.02435768,6.43130943 C8.76218651,6.45983774 8.49383044,6.43708302 8.26567623,6.33315849 C8.03752203,6.23296981 7.8612523,6.03972453 7.71453265,5.81863019 C7.41971894,5.36863019 7.21218108,4.85851698 7.1049761,4.33210189 L6.84864623,4.3847434 C6.94176338,4.81538491 6.80638272,5.30036604 6.49507593,5.61078113 C6.18720521,5.93376226 5.69825426,5.98063019 5.21411379,6.01493208 C4.97152815,6.03598868 4.76811356,6.02002642 4.58222286,5.89436604 C4.39598856,5.77312075 4.21696998,5.60263019 4.05547529,5.43315849 C3.73282951,5.08640377 3.47478161,4.67953585 3.30091712,4.23972453 L3.17240858,4.37557358 C3.17824987,4.37183774 3.20298949,4.40376226 3.19852261,4.44146038 C3.19714819,4.47236604 3.16897252,4.52025283 3.12464738,4.56236604 C3.0298122,4.65134717 2.91332986,4.74066792 2.79822194,4.8167434 C2.56491365,4.97161132 2.30824018,5.0928566 2.03885329,5.17436604 C1.99418455,5.18761132 1.96944493,5.2338 1.98284556,5.27795094 C1.99590257,5.32108302 2.04194574,5.34553585 2.08558367,5.33364906 C2.37352527,5.25451698 2.64909706,5.13293208 2.90233448,4.9743283 C3.03015581,4.89315849 3.14698175,4.80995094 3.26552573,4.70466792 C3.3239387,4.64829057 3.39025461,4.57459245 3.40365523,4.46047925 C3.41361979,4.35859245 3.37273071,4.22647925 3.233914,4.17791321 C3.18031151,4.15889434 3.12189853,4.18640377 3.10300022,4.23904528 C3.09441008,4.26247925 3.09509729,4.28693208 3.10334383,4.3083283 L3.10540546,4.31342264 C3.2816752,4.78040377 3.54762603,5.21410189 3.88435964,5.58666792 C4.05650611,5.77176226 4.22968339,5.94530943 4.45096548,6.09542264 C4.56195013,6.16810189 4.69526915,6.22889434 4.83442947,6.25164906 C4.97221536,6.27542264 5.10587799,6.27168679 5.23095047,6.26455472 C5.47697217,6.24791321 5.72814796,6.23568679 5.98447783,6.17489434 C6.23874606,6.11817736 6.49576315,5.98844151 6.68337187,5.79519623 C7.06202538,5.4107434 7.21527353,4.84900755 7.10463249,4.33006415 C7.08951384,4.26010189 7.02010548,4.2152717 6.9493227,4.23021509 C6.87888353,4.24481887 6.83387118,4.31342264 6.84830262,4.38304528 C6.96341054,4.9427434 7.18263099,5.47900755 7.49874826,5.95923396 C7.65680689,6.1983283 7.87052965,6.43776226 8.16190731,6.56070566 C8.44778727,6.68500755 8.75978127,6.70368679 9.05253334,6.66870566 C9.34528542,6.63100755 9.63357063,6.54440377 9.89127492,6.39157358 C10.1479484,6.24112075 10.3709485,6.01187547 10.4891489,5.73202642 C10.6083801,5.45591321 10.6362121,5.12783774 10.4984262,4.8378 C10.426269,4.69719623 10.3207821,4.57493208 10.1809345,4.49172453 C10.0445231,4.4088566 9.86138122,4.37047925 9.69507605,4.42617736 L9.69335802,4.42651698 C9.66002827,4.43772453 9.63666308,4.46557358 9.63013457,4.49749811 C9.56484948,4.81640377 9.6919836,5.10881887 9.80880955,5.3598 C9.93010237,5.61315849 10.0568929,5.86515849 10.208423,6.10629057 C10.3585787,6.34810189 10.535192,6.57768679 10.746166,6.77704528 C10.9540474,6.97776226 11.2096901,7.14315849 11.4911032,7.23519623 C11.7697674,7.33063019 12.0766073,7.36221509 12.3738263,7.30244151 C12.670358,7.2423283 12.9552072,7.08406415 13.1328513,6.82017736 C13.2242505,6.68738491 13.258611,6.51689434 13.2647959,6.37357358 C13.2713244,6.22957358 13.2733861,6.0903283 13.2706372,5.94802642 C13.2651395,5.66546038 13.2421179,5.38323396 13.2012289,5.10338491 C13.1184199,4.54402642 12.9706694,3.99213962 12.7438896,3.47183774 C12.6885691,3.34142264 12.6284381,3.21304528 12.5638402,3.08670566 C12.5023348,2.96172453 12.4291468,2.8248566 12.3188494,2.70870566 C12.2161113,2.59323396 12.0271281,2.48761132 11.8360833,2.53515849 C11.6419461,2.58100755 11.5264946,2.74300755 11.4732357,2.88938491 C11.274288,3.52278113 11.7189138,4.14395094 12.2697137,4.35825283 C12.828073,4.59734717 13.4321319,4.52534717 13.9836191,4.46421509 C14.0296623,4.45912075 14.062992,4.41836604 14.0578379,4.37251698 C14.0526839,4.32768679 14.0121384,4.2947434 13.9664388,4.29915849" id="Fill-8" fill="#FFFFFF"></path>
                            <path d="M14.5288183,28.9353849 L18.8434754,29.2114981 C19.540995,29.2114981 20.0134529,29.6784792 20.0134529,30.3682528 L20.0134529,31.9654981 C20.0134529,32.6549321 19.4475343,33.1219132 18.7500146,33.1219132 L17.0124005,33.1219132 L16.1746897,33.6833094 L16.1746897,33.0302151 L14.6219355,33.0302151 C13.9244158,33.0302151 13.3588408,32.4708566 13.3588408,31.781083 L13.3588408,30.1841774 C13.3588408,29.4944038 13.8312987,28.9353849 14.5288183,28.9353849" id="Fill-10" fill="#4CDF76"></path>
                            <path d="M11.1669112,26.1278604 L7.16734054,26.3839358 C6.52101817,26.3839358 6.08257726,26.8166151 6.08257726,27.4561245 L6.08257726,28.9368792 C6.08257726,29.5757094 6.6069196,30.0090679 7.25392918,30.0090679 L8.86509642,30.0090679 L9.64130175,30.5290302 L9.64130175,29.923483 L11.0803225,29.923483 C11.7273321,29.923483 12.2516744,29.4048792 12.2516744,28.7660491 L12.2516744,27.2852943 C12.2516744,26.6457849 11.8135771,26.1278604 11.1669112,26.1278604" id="Fill-12" fill="#57A7FF"></path>
                            <path d="M50.3533917,42.4738642 C49.9891696,42.4738642 49.6242604,42.2439396 49.5486671,41.8737509 C47.3172915,30.9175245 36.4342674,28.8016755 36.3322165,28.774166 C35.8862163,28.6552981 35.6219835,28.2012226 35.7422455,27.7603925 C35.8621639,27.3192226 36.3219083,27.057034 36.7668777,27.1759019 C37.2204373,27.2961283 47.9168835,30.2491472 51.1588035,41.4172981 C51.2859376,41.8567698 51.0292642,42.3152604 50.584982,42.4412604 C50.5073271,42.4633358 50.4300158,42.4738642 50.3533917,42.4738642" id="Fill-14" fill="#B0BED2"></path>
                            <path d="M37.2296116,47.4385358 C37.0454389,47.4385358 36.8602354,47.3784226 36.7052692,47.2558189 C27.0482303,39.5762717 32.2545443,29.1060453 32.3084904,29.0014415 C32.5174027,28.5938943 33.0214723,28.4301962 33.4337991,28.6370264 C33.8457824,28.8428377 34.0110567,29.3403849 33.8031753,29.7479321 C33.6100689,30.1279698 28.4539214,39.6672906 37.7549847,45.9655925 C38.1367307,46.2240453 38.1724657,46.7735547 37.8824624,47.1298189 C37.7171881,47.3329132 37.4746024,47.4385358 37.2296116,47.4385358" id="Fill-16" fill="#B0BED2"></path>
                            <path d="M26.8348512,26.4512491 C26.8348512,26.4512491 26.9633597,32.2299283 33.5100796,32.2299283 C40.0564559,32.2299283 38.7868327,26.2861925 38.7868327,26.2861925 L26.8348512,26.4512491 Z" id="Fill-18" fill="#DCE7F2"></path>
                            <polygon id="Fill-20" fill="#DCE7F2" points="20.4237868 12.9996792 20.6065851 18.4777925 22.1706783 18.4842453 22.1947307 13.0071509"></polygon>
                            <polygon id="Fill-22" fill="#C8D4E5" points="16.5867417 15.2884642 16.5839929 15.9303509 20.6168933 16.1517849 20.6213601 15.1013321"></polygon>
                            <path d="M16.0102744,14.2427321 C15.8164808,14.2417132 15.6216563,14.2780528 15.4446994,14.3500528 C15.2660244,14.4220528 15.1041861,14.5259774 14.9701799,14.6529962 C14.83583,14.7806943 14.7293122,14.9318264 14.6588731,15.0958642 C14.5874031,15.2595623 14.5557914,15.4365057 14.5592274,15.6103925 C14.5664431,15.9605434 14.7258762,16.2998264 14.9873601,16.5480906 L15.0897547,16.6377509 L15.2010829,16.7182415 C15.240254,16.7420151 15.2790814,16.7674868 15.3192833,16.7902415 C15.3612032,16.8106189 15.4027795,16.8323547 15.4457302,16.8513736 C15.6182203,16.9254113 15.809265,16.9675245 16.0020279,16.9712604 L16.0154285,16.9712604 C16.2030372,16.9719396 16.3920203,16.9369585 16.5627924,16.8656377 C16.7383749,16.7932981 16.8916231,16.6815623 17.0111979,16.5487698 C17.1311163,16.4156377 17.2159869,16.2624679 17.2719946,16.1052226 C17.3283459,15.9479774 17.3558344,15.7852981 17.357896,15.6222792 C17.3589269,15.4599396 17.3341872,15.2969208 17.2802411,15.1376377 C17.2266387,14.979034 17.1438297,14.8234868 17.0256293,14.6876377 C16.9077725,14.5521283 16.7552116,14.4369962 16.5792855,14.3612604 C16.4040465,14.2848453 16.2085349,14.2451094 16.0137104,14.2427321 L16.0102744,14.2427321 Z" id="Fill-24" fill="#79E798"></path>
                            <polygon id="Fill-26" fill="#DCE7F2" points="36.2954163 5.81486038 30.753056 5.99553962 30.7465275 7.54184151 36.287857 7.56527547"></polygon>
                            <polygon id="Fill-28" fill="#C8D4E5" points="33.979445 2.02263396 33.3303738 2.01957736 33.1059993 6.00606792 34.1691154 6.0101434"></polygon>
                            <path d="M33.5918921,25.3123245 L31.9219683,25.3051925 C26.3706742,25.2814189 21.6825177,21.0317208 21.7041649,16.0664377 C21.7261556,11.1011547 26.4497035,7.30077736 32.0003104,7.32421132 L33.6705778,7.33168302 C39.2215283,7.35511698 43.9093412,11.6051547 43.8880377,16.5704377 C43.8660469,21.5357208 39.142499,25.3360981 33.5918921,25.3123245" id="Fill-30" fill="#56A7FF"></path>
                            <path d="M37.4242298,18.3337925 L27.6039782,18.0277925 C26.5975571,18.0233774 25.7856167,17.1247358 25.7918016,15.6945849 C25.7979865,14.2651132 26.6192042,13.1093774 27.6252818,13.1137925 L37.4479386,12.8916792 C38.4543598,12.8957547 39.2638949,14.3225094 39.25771,15.7523208 C39.2515251,17.1821321 38.430651,18.3382075 37.4242298,18.3337925" id="Fill-32" fill="#FFFFFF"></path>
                            <g id="Group-36" transform="translate(32.183403, 0.000000)">
                                <mask id="mask-8" fill="white">
                                    <use xlink:href="#path-7"></use>
                                </mask>
                                <g id="Clip-35"></g>
                                <path d="M2.85438242,1.45281509 C2.85506963,1.26126792 2.81830382,1.06836226 2.74545941,0.893456604 C2.6729586,0.717192453 2.56781525,0.557230189 2.4389631,0.424437736 C2.31011095,0.291984906 2.15720641,0.186701887 1.99124484,0.117079245 C1.82562688,0.0460981132 1.64626469,0.0151924528 1.47033856,0.0185886792 C1.11608106,0.0253811321 0.773162546,0.18330566 0.521986761,0.441758491 L0.43127485,0.542626415 L0.349496687,0.652664151 C0.325444287,0.691720755 0.300017463,0.730098113 0.27699588,0.769833962 C0.25603593,0.811267925 0.23438877,0.852022642 0.215146849,0.894475472 C0.140240801,1.06530566 0.0972900854,1.25413585 0.0938540282,1.44432453 L0.0938540282,1.45756981 C0.092823211,1.6433434 0.128214601,1.82979623 0.200715409,1.9989283 C0.273559822,2.17247547 0.386606106,2.32394717 0.520955944,2.44213585 C0.655992994,2.56032453 0.810959176,2.64455094 0.970048627,2.69990943 C1.12913808,2.75526792 1.29372522,2.78277736 1.45831236,2.78481509 C1.6228995,2.78583396 1.78783025,2.76138113 1.94863773,2.70806038 C2.10944521,2.65507925 2.26681663,2.57323019 2.40425892,2.4564 C2.54135761,2.33956981 2.65783995,2.18877736 2.73446402,2.01489057 C2.81143171,1.84168302 2.85163358,1.64877736 2.85438242,1.45621132 L2.85438242,1.45281509 Z" id="Fill-34" fill="#79E798" mask="url(#mask-8)"></path>
                            </g>
                            <polygon id="Fill-37" fill="#DCE7F2" points="44.5802314 18.5802226 44.3970895 13.1021094 42.3474814 13.0932792 42.3237726 18.5707132"></polygon>
                            <polygon id="Fill-39" fill="#C8D4E5" points="47.9313837 16.2890943 47.9344761 15.6472075 43.9012321 15.4257736 43.8971089 16.4762264"></polygon>
                            <path d="M48.507851,17.335166 C48.7016446,17.3358453 48.8968127,17.2995057 49.0737696,17.2275057 C49.252101,17.1555057 49.4139393,17.0515811 49.5482891,16.9245623 C49.6822954,16.7972038 49.7888131,16.6460717 49.8592523,16.4816943 C49.9310659,16.3183358 49.962334,16.1410528 49.958898,15.967166 C49.9520259,15.6170151 49.7922492,15.2777321 49.5307652,15.0298075 L49.4287143,14.9401472 L49.3173861,14.859317 C49.2778714,14.8355434 49.239044,14.8100717 49.1988421,14.787317 C49.1569222,14.7669396 49.1156895,14.7452038 49.0727388,14.7261849 C48.8999051,14.6524868 48.7088603,14.610034 48.5164411,14.6066377 C48.5119743,14.6066377 48.5075074,14.6062981 48.5030405,14.6062981 C48.3150882,14.6056189 48.126105,14.6406 47.955333,14.7119208 C47.7797505,14.7842604 47.6265023,14.8959962 47.5069275,15.0287887 C47.3873527,15.1622604 47.3021385,15.3154302 47.2461308,15.4726755 C47.190123,15.6299208 47.162291,15.7926 47.1602293,15.9552792 C47.1591985,16.1176189 47.1839381,16.2809774 47.2378842,16.4399208 C47.2914867,16.5988642 47.3742957,16.7540717 47.4924961,16.8899208 C47.6106964,17.0254302 47.7632574,17.1409019 47.9391835,17.2162981 C48.1144224,17.2927132 48.3095905,17.3324491 48.5044149,17.335166 L48.507851,17.335166 Z" id="Fill-41" fill="#79E798"></path>
                            <path d="M35.1948128,14.1501849 C35.5105865,14.0068642 35.8445712,13.9545623 36.1861153,13.9769774 C36.526285,14.0248642 36.8520232,14.1196189 37.1781051,14.2483358 C37.3444102,14.3132038 37.4894119,14.4188264 37.6347571,14.529883 C37.7581115,14.6609774 37.8821532,14.7975057 37.9567156,14.9598453 C38.123708,15.2787509 38.1505093,15.6295811 38.1364214,15.9579962 L37.8364536,15.9831283 C37.7814767,15.8401472 37.7474598,15.6954679 37.6986677,15.5599585 C37.6378495,15.4309019 37.5979913,15.2923358 37.5237724,15.1795811 C37.4090081,14.934034 37.2440774,14.7173547 37.0080202,14.5611283 C36.7750556,14.3936943 36.4637488,14.3597321 36.1727147,14.3869019 C35.8816807,14.3930151 35.5782768,14.4110151 35.2831195,14.4341094 L35.1948128,14.1501849 Z" id="Fill-43" fill="#B0BED2"></path>
                            <path d="M39.2576756,26.4585509 C39.2576756,26.4585509 34.5533697,26.8440226 32.9806863,26.8464 C31.3296607,26.8487774 26.3868924,26.4585509 26.3868924,26.4585509 L26.7232824,23.9752302 C26.7232824,23.9752302 31.2743402,23.5663245 32.7958264,23.5360981 C34.4118041,23.5031547 39.2576756,23.7425887 39.2576756,23.7425887 L39.2576756,26.4585509 Z" id="Fill-45" fill="#C8D4E5"></path>
                            <path d="M28.453887,26.6111094 C29.0273649,26.6515245 29.6630355,26.6939774 30.2856491,26.7316755 L30.2856491,23.6825434 C29.6578815,23.7290717 29.0167132,23.7803547 28.453887,23.826883 L28.453887,26.6111094 Z" id="Fill-47" fill="#B0BED2"></path>
                            <path d="M32.1117417,26.8260226 C32.450537,26.8389283 32.7487867,26.8467396 32.9807206,26.8464 C33.23224,26.8460604 33.5641631,26.8355321 33.9435039,26.8188906 L33.9435039,23.5418717 C33.4875391,23.5330415 33.0886128,23.5299849 32.7958607,23.5357585 C32.6089392,23.5394943 32.3763181,23.5493434 32.1117417,23.5629283 L32.1117417,26.8260226 Z" id="Fill-49" fill="#B0BED2"></path>
                            <path d="M35.7696308,26.7152377 C36.4059886,26.6738038 37.0454389,26.6279547 37.6010494,26.5868604 L37.6010494,23.6667849 C37.0478441,23.6433509 36.4087375,23.6172 35.7696308,23.5947849 L35.7696308,26.7152377 Z" id="Fill-51" fill="#B0BED2"></path>
                            <path d="M29.8397176,27.164966 C29.6469548,27.1639472 29.4531612,27.2002868 29.2768914,27.2719472 C29.0999345,27.3432679 28.939127,27.4465132 28.8051208,27.5728528 C28.6721453,27.6998717 28.5663148,27.8503245 28.4958756,28.0133434 C28.4247492,28.1763623 28.3931375,28.3519472 28.3969172,28.5254943 C28.4034457,28.8732679 28.5621915,29.2105132 28.8226447,29.4574189 L28.924352,29.5467396 L29.0346494,29.6268906 C29.0738204,29.6506642 29.1126479,29.6757962 29.1528498,29.6985509 C29.1944261,29.7189283 29.2356587,29.7403245 29.2782658,29.7593434 C29.4500687,29.8327019 29.6400827,29.8748151 29.8314711,29.8782113 C29.8355943,29.8785509 29.8404048,29.8785509 29.8448717,29.8785509 C30.0314496,29.8792302 30.2194019,29.8445887 30.3894868,29.7736075 C30.5640385,29.7016075 30.7165994,29.5905509 30.8351434,29.4584377 C30.9543746,29.3259849 31.0389016,29.1734943 31.0945657,29.0172679 C31.1502298,28.8603623 31.1780619,28.6990415 31.1797799,28.5370415 C31.1808107,28.3753811 31.1564147,28.2130415 31.1031559,28.0547774 C31.0495534,27.8971925 30.967088,27.7423245 30.8495748,27.6074943 C30.7324053,27.4726642 30.5805315,27.3578717 30.4056362,27.2828151 C30.2310845,27.2070792 30.0369473,27.1673434 29.8431537,27.164966 L29.8397176,27.164966 Z" id="Fill-53" fill="#B0BED2"></path>
                            <path d="M35.0471654,27.9009283 C34.854059,27.9002491 34.660609,27.9362491 34.4843393,28.0079094 C34.3070387,28.0795698 34.1462312,28.1828151 34.012225,28.3091547 C33.8792496,28.435834 33.773419,28.5866264 33.7033235,28.7493057 C33.6321971,28.9123245 33.6005853,29.0882491 33.604365,29.2614566 C33.6108935,29.6092302 33.7696394,29.9468151 34.0297489,30.1937208 L34.1317998,30.2830415 L34.2420972,30.3631925 C34.2812683,30.386966 34.3200957,30.4120981 34.359954,30.4345132 C34.4018739,30.4548906 34.442763,30.4766264 34.4857137,30.4953057 C34.6571729,30.5690038 34.8471869,30.611117 35.0385753,30.6145132 L35.0519759,30.6145132 C35.2388974,30.6155321 35.4265062,30.5805509 35.5969346,30.5095698 C35.7711427,30.4379094 35.9237036,30.3268528 36.0422476,30.1947396 C36.1614788,30.0619472 36.2460058,29.9097962 36.3016699,29.7532302 C36.3576777,29.5966642 36.3855097,29.4353434 36.3872278,29.2733434 C36.3882586,29.1113434 36.363519,28.9493434 36.3102601,28.7910792 C36.2570012,28.6331547 36.1741922,28.4786264 36.0566791,28.3434566 C35.9395095,28.2086264 35.7876358,28.0941736 35.6127405,28.019117 C35.4385324,27.9430415 35.2440515,27.9036453 35.0506015,27.9009283 L35.0471654,27.9009283 Z" id="Fill-55" fill="#B0BED2"></path>
                            <path d="M51.8761492,42.2460113 C51.9431523,42.045634 51.971328,41.8316717 51.9558657,41.6238226 C51.9410907,41.4149547 51.8864574,41.2122 51.7981507,41.029483 C51.7095004,40.8474453 51.5854587,40.6854453 51.4363339,40.5560491 C51.2875526,40.4263132 51.1109392,40.3325774 50.9253922,40.2768792 C50.5525799,40.1637849 50.1392223,40.2126906 49.7866828,40.3984642 L49.6567998,40.4731811 L49.5334454,40.5604642 C49.4942743,40.5930679 49.454416,40.6246528 49.4166194,40.6582755 C49.3805408,40.6949547 49.3434314,40.7302755 49.3083836,40.7679736 C49.1709413,40.921483 49.0609875,41.1042 48.9912355,41.3018604 C48.9895175,41.3062755 48.9881431,41.3110302 48.986425,41.3157849 C48.92114,41.5097094 48.8933079,41.7172189 48.9104882,41.9182755 C48.9269813,42.124766 48.9926099,42.3217472 49.091912,42.4905396 C49.1919013,42.6600113 49.3248767,42.8002755 49.4722835,42.9120113 C49.6196904,43.0240868 49.7822159,43.1086528 49.9536752,43.1663887 C50.125478,43.2231057 50.3069018,43.2536717 50.4934798,43.2523132 C50.6800577,43.2512943 50.8728205,43.2190302 51.0569931,43.143634 C51.2408222,43.0678981 51.4150303,42.9493698 51.5555651,42.793483 C51.6964434,42.6382755 51.8053664,42.4501245 51.8747748,42.2494075 C51.8751184,42.2483887 51.8758056,42.2470302 51.8761492,42.2460113" id="Fill-57" fill="#79E798"></path>
                            <path d="M38.9338616,47.0750377 C38.9957106,46.8913019 39.0214811,46.695 39.0073932,46.5041321 C38.993649,46.3125849 38.9434826,46.1264717 38.8627352,45.9590377 C38.7809571,45.7919434 38.6675672,45.6431887 38.5304685,45.525 C38.394057,45.4054528 38.2322187,45.3198679 38.0617903,45.2685849 C37.7199026,45.165 37.3402182,45.2098302 37.0172289,45.3799811 L36.8976541,45.4485849 L36.7846078,45.5283962 C36.7488728,45.558283 36.712107,45.5874906 36.6774028,45.6187358 C36.6444167,45.6520189 36.6100561,45.684283 36.5784444,45.7192642 C36.4519974,45.8595283 36.3509774,46.0273019 36.2870667,46.2086604 C36.2856923,46.2130755 36.2843179,46.2174906 36.2825998,46.221566 C36.2228124,46.3995283 36.1973856,46.589717 36.2131915,46.7744717 C36.2279665,46.9636415 36.2884411,47.1443208 36.3794966,47.2991887 C36.471583,47.4547358 36.5932194,47.5834528 36.7286001,47.6863585 C36.8639807,47.7892642 37.012762,47.8663585 37.1701334,47.9193396 C37.3278484,47.9716415 37.4944972,47.9994906 37.6656129,47.9984717 C37.8363849,47.9974528 38.0133419,47.9679057 38.1823959,47.8986226 C38.3514499,47.829 38.5112266,47.7203208 38.6400787,47.5773396 C38.7692745,47.4350377 38.8692637,47.2625094 38.9328308,47.078434 C38.9331744,47.0774151 38.933518,47.0760566 38.9338616,47.0750377" id="Fill-59" fill="#79E798"></path>
                            <path d="M17.3578617,38.8544377 C15.2192596,38.8544377 13.0222446,38.4781358 10.7187119,37.3322491 C10.3056978,37.1267774 10.139049,36.6288906 10.3472741,36.2206642 C10.5548119,35.8124377 11.0571635,35.6477208 11.471552,35.8538717 C14.8357957,37.5278717 18.2258097,38.009117 21.0804861,36.947117 C26.5520637,34.9114189 28.985823,28.3485509 29.0122807,28.2843623 C29.1854579,27.8611925 29.6723473,27.6557208 30.1025416,27.8279094 C30.5313616,27.9990792 30.7378686,28.481683 30.5643477,28.9051925 C30.4458037,29.1955698 27.4609008,35.8657585 21.3093275,38.1537962 C20.0056874,38.6387774 18.7463724,38.8544377 17.3578617,38.8544377" id="Fill-61" fill="#C8D4E5"></path>
                            <path d="M10.9894045,35.2615358 C10.783241,35.260517 10.5763904,35.299234 10.3877508,35.3759887 C10.1980805,35.4524038 10.0262776,35.5627811 9.88333763,35.6979509 C9.74074125,35.8334604 9.62769497,35.9941019 9.55278892,36.1686679 C9.47685205,36.3425547 9.44317869,36.5307057 9.44695836,36.7158 C9.45417408,37.0880264 9.6239153,37.448366 9.90223594,37.7125925 L10.0108154,37.8076868 L10.1290157,37.8936113 C10.170592,37.919083 10.2121683,37.9455736 10.255119,37.9700264 C10.2994442,37.9914226 10.3437693,38.014517 10.3894689,38.0348943 C10.5729543,38.1133472 10.7756817,38.158517 10.9804707,38.1622528 C10.9849376,38.1622528 10.9900917,38.1625925 10.9949021,38.1625925 C11.1945371,38.1632717 11.3955464,38.1262528 11.5769702,38.0501774 C11.7635482,37.973083 11.9267609,37.8545547 12.053895,37.7136113 C12.1810291,37.5719887 12.2710538,37.4086302 12.3308412,37.2415358 C12.3906286,37.0744415 12.4198351,36.9015736 12.4222403,36.728366 C12.4232711,36.5558377 12.3968135,36.3819509 12.339775,36.2131585 C12.2827364,36.044366 12.1947733,35.8789698 12.0690136,35.7346302 C11.9432539,35.5906302 11.7814157,35.4680264 11.5944941,35.3875358 C11.4079162,35.3067057 11.2000348,35.2642528 10.9931841,35.2615358 L10.9894045,35.2615358 Z" id="Fill-63" fill="#57A7FF"></path>
                            <path d="M47.1602637,47.1844642 C47.0575256,47.1844642 46.9530694,47.1654453 46.8520494,47.1260491 C35.955281,42.855634 34.2327855,29.9078604 34.164408,29.3586906 C34.1084002,28.9052943 34.4348257,28.4926528 34.8935393,28.4369547 C35.3546582,28.3843132 35.7700775,28.7038981 35.8267725,29.1569547 C35.8425783,29.2812566 36.6854432,42.0850302 47.4691652,45.5872189 C47.908637,45.7298604 48.1096463,46.2365774 47.9392179,46.6617849 C47.8086477,46.9864642 47.4935613,47.1844642 47.1602637,47.1844642" id="Fill-65" fill="#C8D4E5"></path>
                            <path d="M48.3904066,46.783166 C48.4471015,46.614034 48.4708103,46.4330151 48.4577533,46.2570906 C48.4453835,46.0808264 48.3993403,45.909317 48.3247779,45.7547887 C48.2495282,45.6009396 48.1447285,45.4637321 48.0186252,45.3547132 C47.8928655,45.2446755 47.7437406,45.1655434 47.5867128,45.1186755 C47.2716263,45.0229019 46.9221793,45.0639962 46.6239295,45.2209019 L46.5143193,45.2844113 L46.4095196,45.3581094 C46.3772206,45.3856189 46.3432036,45.4124491 46.3109047,45.4409774 C46.2806674,45.471883 46.2493993,45.5017698 46.2198492,45.5336943 C46.1037105,45.6630906 46.0102497,45.8176189 45.9514931,45.9847132 L45.9477135,45.9969396 C45.8920493,46.1606377 45.8690277,46.3362226 45.8834592,46.5063736 C45.8972034,46.6802604 45.9525239,46.8466755 46.0367073,46.9896566 C46.1212343,47.1329774 46.233937,47.2518453 46.3583223,47.3462604 C46.4827076,47.4410151 46.6204935,47.5119962 46.7654951,47.5612415 C46.9101531,47.6094679 47.0637449,47.6349396 47.2218035,47.6339208 C47.3791749,47.6332415 47.542044,47.6057321 47.698041,47.5415434 C47.8536944,47.478034 48.0007577,47.3778453 48.1196452,47.2460717 C48.2385328,47.1149774 48.3306192,46.9556943 48.3893757,46.7862226 L48.3904066,46.783166 Z" id="Fill-67" fill="#57A7FF"></path>
                            <path d="M26.7234542,23.975366 L25.6311316,23.2703094 C25.6311316,23.2703094 38.2844124,23.3949509 39.9759834,23.438083 L39.0111385,24.0134038 L26.7234542,23.975366 Z" id="Fill-69" fill="#529BEC"></path>
                            <path d="M42.347447,13.0931774 C42.347447,13.0931774 41.4935868,13.9636302 41.4935868,15.101366 C41.4935868,16.2391019 42.3237382,18.5706113 42.3237382,18.5706113 L42.347447,13.0931774 Z" id="Fill-71" fill="#529BEC"></path>
                        </g>
                    </g>
                    <g id="Page-1" transform="translate(610.000000, 0.000000)">
                        <path d="M57.81956,19.2434974 C56.6655985,15.8148557 54.8893187,12.4620434 52.3637753,9.52869262 C49.8430042,6.61261942 46.5863322,4.13424517 42.8390595,2.51015173 C39.1013316,0.878379371 34.9474521,0.0336972076 30.8031174,0.000101894326 C26.6587827,-0.0104566327 22.4915406,0.799670351 18.7099068,2.37865008 C14.9244551,3.94899101 11.4940684,6.21331513 8.64877552,8.97484988 C5.80920949,11.7459833 3.56237304,15.0258457 2.07816289,18.5821496 C0.573908755,22.1298147 -0.0856341453,25.9596804 0.00885897638,29.7290746 C0.184482556,37.2976187 3.61105131,44.6204372 9.19855368,49.9678512 L11.3823947,51.897182 L13.7485407,53.6326199 C14.589434,54.1490279 15.4169647,54.6846332 16.2788565,55.1789642 C17.1732005,55.6137836 18.0570452,56.0802785 18.9704787,56.4863018 C22.6490292,58.0729605 26.7122334,58.9713952 30.8031174,59.0289871 C34.8892291,59.0664219 39.0135198,58.2889304 42.7264313,56.6907533 C46.4517511,55.1136933 49.7026962,52.6785131 52.2291942,49.7979549 C54.75951,46.9097178 56.5548793,43.5828219 57.7317482,40.1781769 C58.9124349,36.7668128 59.486075,33.246024 59.5099369,29.7290746 C59.5166182,26.2092456 58.9782938,22.679818 57.81956,19.2434974" id="Fill-1" fill="#FFFFFF"></path>
                        <g id="Group-3" transform="translate(4.000000, 4.000000)" fill="#FB7575">
                            <path d="M50.0453571,17.0721428 C49.0465632,14.1045338 47.5091311,11.2025578 45.3231851,8.66364035 C43.1413699,6.13967727 40.3226066,3.99455789 37.0792114,2.58884837 C33.8440775,1.17649247 30.2487499,0.445390588 26.6616836,0.416312672 C23.0746174,0.407173899 19.467724,1.10836706 16.194588,2.4750291 C12.9181475,3.83421396 9.94902813,5.79406547 7.48632788,8.18427014 C5.02858442,10.5827828 3.08386909,13.4216181 1.79923344,16.4997232 C0.497249004,19.5703511 -0.0736083839,22.8852335 0.00817870932,26.1477756 C0.160187044,32.6986146 3.12600184,39.0367694 7.96218006,43.6651428 L9.85237066,45.335046 L11.9003525,46.837128 C12.628175,47.2840971 13.3444317,47.7476822 14.0904291,48.1755429 C14.864515,48.5518942 15.6295135,48.9556619 16.4201221,49.3070892 C19.6040358,50.6803977 23.1208808,51.4580242 26.6616836,51.5078721 C30.1983558,51.5402732 33.7680733,50.8673271 36.9817278,49.4840491 C40.206122,48.1190487 43.0199284,46.0113152 45.2067005,43.5180916 C47.3967771,41.0182217 48.9507319,38.1386772 49.9693529,35.1918382 C50.9912785,32.2391836 51.487784,29.191818 51.5084373,26.1477756 C51.5142203,23.1012409 51.0482817,20.0463981 50.0453571,17.0721428" id="Fill-1-Copy"></path>
                        </g>
                        <path d="M16,42.3315442 C17.7755005,39.7327772 19.7840975,37.3527225 21.9976871,35.1656002 C23.1358921,34.1011452 24.3517958,33.1098716 25.4528045,32.0113208 C26.5496803,30.908612 27.5531522,29.717753 28.5227342,28.495293 L31.4248676,24.8212602 C32.4192471,23.6220852 33.4367709,22.4445319 34.4807454,21.2919267 C36.6389539,19.0524133 38.9385081,16.9467883 41.4075119,15 L43.2623644,16.7455398 C41.4976094,19.3542861 39.5625784,21.8033641 37.485375,24.1193852 C36.4132967,25.245379 35.312288,26.3439297 34.1897881,27.422522 L30.7396302,30.581791 C29.5931594,31.6379299 28.4797519,32.7240066 27.4580952,33.8982335 C26.4430511,35.07745 25.5412489,36.3647752 24.5617479,37.5780876 C22.5407522,39.9464998 20.3147639,42.1211481 17.8556791,44.0779156 L16,42.3315442 Z" id="Fill-4" fill="#FFFFFF"></path>
                        <path d="M42.1780642,43.4163205 C39.5938906,41.6307933 37.227201,39.6108534 35.0515335,37.3847632 C33.993883,36.2401306 33.0081758,35.0173604 31.9157939,33.910134 C30.8192773,32.807064 29.6351056,31.7979252 28.4195103,30.8228678 L24.766109,27.9043456 C23.5736679,26.9043506 22.4019002,25.8810806 21.2565945,24.8312106 C19.029657,22.6616455 16.9358562,20.348274 15,17.8653272 L16.7349108,16 C19.3298346,17.7747209 21.7651598,19.7206795 24.0681754,21.8096132 C25.1878461,22.8877458 26.280228,23.9949721 27.3527634,25.123811 L30.4942917,28.5934526 C31.5444998,29.7463978 32.6244777,30.8660929 33.7921107,31.8935191 C34.9647053,32.9142953 36.2439746,33.8211902 37.4513006,34.8062226 C39.806413,36.8386313 41.9688495,39.0771902 43.9146289,41.550162 L42.1780642,43.4163205 Z" id="Fill-6" fill="#FFFFFF"></path>
                    </g>
                </g>
                <g id="Page-1" transform="translate(1297.000000, 0.000000)">
                    <path d="M57.81956,19.2434974 C56.6655985,15.8148557 54.8893187,12.4620434 52.3637753,9.52869262 C49.8430042,6.61261942 46.5863322,4.13424517 42.8390595,2.51015173 C39.1013316,0.878379371 34.9474521,0.0336972076 30.8031174,0.000101894326 C26.6587827,-0.0104566327 22.4915406,0.799670351 18.7099068,2.37865008 C14.9244551,3.94899101 11.4940684,6.21331513 8.64877552,8.97484988 C5.80920949,11.7459833 3.56237304,15.0258457 2.07816289,18.5821496 C0.573908755,22.1298147 -0.0856341453,25.9596804 0.00885897638,29.7290746 C0.184482556,37.2976187 3.61105131,44.6204372 9.19855368,49.9678512 L11.3823947,51.897182 L13.7485407,53.6326199 C14.589434,54.1490279 15.4169647,54.6846332 16.2788565,55.1789642 C17.1732005,55.6137836 18.0570452,56.0802785 18.9704787,56.4863018 C22.6490292,58.0729605 26.7122334,58.9713952 30.8031174,59.0289871 C34.8892291,59.0664219 39.0135198,58.2889304 42.7264313,56.6907533 C46.4517511,55.1136933 49.7026962,52.6785131 52.2291942,49.7979549 C54.75951,46.9097178 56.5548793,43.5828219 57.7317482,40.1781769 C58.9124349,36.7668128 59.486075,33.246024 59.5099369,29.7290746 C59.5166182,26.2092456 58.9782938,22.679818 57.81956,19.2434974" id="Fill-1" fill="#FFFFFF"></path>
                    <g id="Group-3" transform="translate(5.000000, 5.000000)" fill="#4BDF75">
                        <path d="M48.0776984,16.3088095 C47.1181746,13.4738889 45.6411905,10.7016667 43.5411905,8.27626984 C41.4451587,5.86515873 38.7372222,3.81595238 35.6213492,2.47309524 C32.5134127,1.12388889 29.0594444,0.42547619 25.6134127,0.397698413 C22.167381,0.388968254 18.7023016,1.05880952 15.5578571,2.36436508 C12.4102381,3.66277778 9.55785714,5.535 7.19198413,7.81833333 C4.83087302,10.1096032 2.96261905,12.8215079 1.72849206,15.7619841 C0.477698413,18.6953175 -0.0707142857,21.8619841 0.00785714286,24.9786508 C0.153888889,31.2365873 3.00309524,37.2913492 7.64912698,41.7127778 L9.465,43.3080159 L11.4324603,44.7429365 C12.1316667,45.1699206 12.8197619,45.6127778 13.5364286,46.0215079 C14.2800794,46.3810317 15.015,46.766746 15.7745238,47.1024603 C18.833254,48.4143651 22.2118254,49.1572222 25.6134127,49.2048413 C29.0110317,49.2357937 32.4403968,48.5929365 35.5276984,47.2715079 C38.6253175,45.9675397 41.3284921,43.9540476 43.4292857,41.5723016 C45.533254,39.1842063 47.0261111,36.4334127 48.0046825,33.6183333 C48.9864286,30.7976984 49.4634127,27.8865873 49.483254,24.9786508 C49.4888095,22.0683333 49.0411905,19.1500794 48.0776984,16.3088095" id="Fill-1"></path>
                    </g>
                    <path d="M45.0603175,17 C42.302381,19.1611111 39.734127,21.4984127 37.3253968,23.9849206 C36.1571429,25.2634921 35.0230159,26.5722222 33.9111111,27.902381 L30.6706349,31.9809524 C29.5873016,33.3380952 28.4666667,34.6595238 27.2420635,35.884127 C27.0873016,36.0365079 26.9198413,36.1777778 26.7611111,36.3277778 C25.5730159,35.0833333 24.3634921,33.8634921 23.1230159,32.6761905 C20.5531746,30.3563492 17.834127,28.1952381 14.9380952,26.2238095 L13,28.2960317 C15.1611111,31.0539683 17.4984127,33.6222222 19.9849206,36.0309524 C21.165873,37.1087302 23.5611111,39.2198413 23.5412698,39.2388889 C23.4873016,39.2873016 26.3174603,41.9769841 26.352381,41.9333333 C27.4055556,40.6246032 28.3833333,39.2452381 29.481746,37.9793651 C30.6222222,36.6753968 31.865873,35.4690476 33.1460317,34.2968254 L36.9992063,30.7904762 C38.2539683,29.5936508 39.4833333,28.3730159 40.6801587,27.1230159 C43,24.5531746 45.1611111,21.834127 47.131746,18.9373016 L45.0603175,17 Z" id="Fill-4" fill="#FFFFFF"></path>
                </g>
            </g>
        </g>
    </g>
</svg>