<svg id="Calque_1" data-name="Calque 1" xmlns="http://www.w3.org/2000/svg" xmlns:xlink="http://www.w3.org/1999/xlink" viewBox="0 0 400 230"><defs><style>.cls-1{fill:none;}.cls-2{fill:#eaf2fb;}.cls-3{fill:#cc9694;}.cls-17,.cls-18,.cls-3{fill-rule:evenodd;}.cls-4{fill:#c8d4e5;}.cls-5{fill:#ffed72;}.cls-6{fill:#fff;}.cls-7{clip-path:url(#clip-path);}.cls-8{fill:#b0bed2;}.cls-9{fill:#57a7ff;}.cls-10{fill:#dce7f2;}.cls-11,.cls-18{fill:#4cdf76;}.cls-12{clip-path:url(#clip-path-2);}.cls-13{clip-path:url(#clip-path-4);}.cls-14{clip-path:url(#clip-path-6);}.cls-15{clip-path:url(#clip-path-8);}.cls-16{clip-path:url(#clip-path-9);}.cls-17{fill:#f3d2bf;}</style><clipPath id="clip-path"><polygon class="cls-1" points="94.6 194.15 185.9 185.64 184.51 166.16 93.07 172.71 94.6 194.15"/></clipPath><clipPath id="clip-path-2"><rect class="cls-1" x="195.8" y="128.95" width="8.41" height="8.41"/></clipPath><clipPath id="clip-path-4"><rect class="cls-1" x="303.74" y="101.28" width="8.41" height="8.41"/></clipPath><clipPath id="clip-path-6"><rect class="cls-1" x="96.17" y="59.76" width="8.41" height="8.41"/></clipPath><clipPath id="clip-path-8"><rect class="cls-1" x="279.16" y="62.08" width="20.35" height="21.39" transform="translate(105.06 307.41) rotate(-65.97)"/></clipPath><clipPath id="clip-path-9"><rect class="cls-1" x="279.16" y="62.08" width="20.35" height="21.39" transform="translate(105.06 307.41) rotate(-65.97)"/></clipPath></defs><title>open_source</title><path class="cls-2" d="M304.36,104.57c2,12.21,18.82,10.48,26.6,33.84,13,38.86-41.87,88.77-102.69,81.62-31.41-3.7-126.17-48.44-134.16-79.91C88,116,103.35,98.06,103.68,84.74c1.15-47.58,40.62-58.29,58.47-62.15C201,14.2,257.78,56,271.61,63,282,68.25,300.73,82.34,304.36,104.57Z"/><path class="cls-3" d="M273.26,109.34c-2.72-1.15-4.89,3,1.85,7.55.67.46,3.53,1.91,6.6,3.42a17.72,17.72,0,0,1,6.6,6l8-1s-6.81-8.18-11-10.76C280.06,112.32,274.22,109.75,273.26,109.34Z"/><path class="cls-4" d="M133.89,32.67q3.57-1.79,7.17-3.49c2.41-1.13,4.8-2.29,7.22-3.4l7.24-3.33c2.42-1.12,4.86-2.17,7.28-3.26l.41-.18.39.09,9.73,2.25c3.25.71,6.5,1.42,9.76,2,6.53,1.27,13.08,2.44,19.63,3.66s13.06,2.5,19.55,4,13,2.92,19.44,4.55l-.38,1.85c-6.57-1.06-13.11-2.28-19.65-3.51s-13-2.67-19.53-4.09-13-3-19.47-4.41c-3.25-.71-6.52-1.35-9.78-2l-9.82-1.78.8-.09c-2.42,1.1-4.82,2.24-7.25,3.32l-7.29,3.24c-2.43,1.08-4.88,2.11-7.31,3.17s-4.9,2.08-7.36,3.09Z"/><polygon class="cls-5" points="82.8 195.58 174.09 187.07 172.7 167.6 81.26 174.14 82.8 195.58"/><circle class="cls-6" cx="168.62" cy="182.47" r="1.63"/><g class="cls-7"><path class="cls-6" d="M162.55,175.15c-.13-.65-.22-1.31-.31-2a8.71,8.71,0,0,1-.1-2,6,6,0,0,0-.21-2,3.87,3.87,0,0,1,.35-2l.82,0a3.89,3.89,0,0,1,.44,2,6,6,0,0,0-.12,2,9.27,9.27,0,0,1,0,2c-.06.66-.12,1.32-.22,2Z"/><path class="cls-6" d="M147.1,176.35c-.13-.66-.22-1.31-.31-2a9.27,9.27,0,0,1-.1-2,5.93,5.93,0,0,0-.21-2,4,4,0,0,1,.35-2l.82,0a3.87,3.87,0,0,1,.44,2,6,6,0,0,0-.12,2,9.36,9.36,0,0,1,0,2c-.06.65-.12,1.31-.22,2Z"/><path class="cls-6" d="M132.25,177.64c-.18-.73-.31-1.46-.46-2.19a12.78,12.78,0,0,1-.24-2.22,7.61,7.61,0,0,0-.36-2.2,5,5,0,0,1,.2-2.25l.83-.07a5,5,0,0,1,.58,2.18,7.57,7.57,0,0,0,0,2.23,11.88,11.88,0,0,1,.14,2.23c0,.74,0,1.49-.08,2.24Z"/><path class="cls-6" d="M115.56,177.24c-.12-.66-.22-1.31-.31-2a8.65,8.65,0,0,1-.09-2,5.69,5.69,0,0,0-.22-2,4,4,0,0,1,.35-2l.83,0a4,4,0,0,1,.44,2,6,6,0,0,0-.12,2,9.26,9.26,0,0,1,0,2c-.06.66-.13,1.32-.22,2Z"/><path class="cls-6" d="M98.61,179.09c-.18-.77-.32-1.55-.47-2.33a12.23,12.23,0,0,1-.25-2.34,8.85,8.85,0,0,0-.37-2.33,5.4,5.4,0,0,1,.19-2.38l.82-.07a5.7,5.7,0,0,1,.6,2.31,8.47,8.47,0,0,0,0,2.36,12.32,12.32,0,0,1,.15,2.35c0,.79,0,1.58-.06,2.37Z"/><path class="cls-6" d="M159.31,172.11c-.12-.65-.22-1.31-.31-2a8.68,8.68,0,0,1-.09-2,5.77,5.77,0,0,0-.22-2,4,4,0,0,1,.35-2h.83a4,4,0,0,1,.44,2,6,6,0,0,0-.12,2,9.27,9.27,0,0,1,0,2c-.06.66-.13,1.32-.22,2Z"/><path class="cls-6" d="M155.07,172.32c-.13-.65-.22-1.31-.31-2a9.3,9.3,0,0,1-.1-2,6,6,0,0,0-.21-2,4,4,0,0,1,.35-2l.83,0a4,4,0,0,1,.43,2,6,6,0,0,0-.12,2,8.65,8.65,0,0,1,0,2c-.06.66-.12,1.32-.22,2Z"/><path class="cls-6" d="M151,172.94c-.13-.66-.22-1.31-.31-2a9.27,9.27,0,0,1-.1-2,6,6,0,0,0-.21-2,4,4,0,0,1,.35-2l.82,0a3.87,3.87,0,0,1,.44,2,6,6,0,0,0-.12,2,8.66,8.66,0,0,1,0,2c-.06.66-.12,1.31-.22,2Z"/><path class="cls-6" d="M143.86,173.31c-.12-.65-.22-1.31-.31-2a8.68,8.68,0,0,1-.09-2,5.75,5.75,0,0,0-.22-2,4,4,0,0,1,.35-2l.83,0a4,4,0,0,1,.44,2,6,6,0,0,0-.12,2,9.27,9.27,0,0,1,0,2c-.06.66-.13,1.32-.22,2Z"/><path class="cls-6" d="M139.62,173.52c-.13-.65-.22-1.31-.31-2a9.34,9.34,0,0,1-.1-2,6,6,0,0,0-.21-2,4,4,0,0,1,.35-2l.83,0a3.88,3.88,0,0,1,.43,2,6,6,0,0,0-.12,2,8.66,8.66,0,0,1,0,2c-.06.66-.12,1.32-.22,2Z"/><path class="cls-6" d="M135.53,174.13c-.13-.65-.22-1.3-.31-2a9.27,9.27,0,0,1-.1-2,6,6,0,0,0-.21-2,4,4,0,0,1,.35-2l.82,0a3.87,3.87,0,0,1,.44,2,6,6,0,0,0-.12,2,8.65,8.65,0,0,1,0,2c-.06.66-.12,1.32-.22,2Z"/><path class="cls-6" d="M128.41,174.51c-.12-.66-.22-1.31-.31-2a8.65,8.65,0,0,1-.09-2,5.69,5.69,0,0,0-.22-2,4,4,0,0,1,.35-2l.83,0a4,4,0,0,1,.44,2,6,6,0,0,0-.12,2,9.36,9.36,0,0,1,0,2c-.06.66-.12,1.31-.22,2Z"/><path class="cls-6" d="M124.17,174.72c-.13-.66-.22-1.31-.31-2a9.27,9.27,0,0,1-.1-2,5.93,5.93,0,0,0-.21-2,4,4,0,0,1,.35-2l.83,0a3.86,3.86,0,0,1,.43,2,6,6,0,0,0-.12,2,8.74,8.74,0,0,1,0,2c-.06.65-.12,1.31-.22,2Z"/><path class="cls-6" d="M120.08,175.33c-.13-.65-.22-1.31-.31-2a9.3,9.3,0,0,1-.1-2,6,6,0,0,0-.21-2,4,4,0,0,1,.35-2l.83,0a4,4,0,0,1,.43,2,6,6,0,0,0-.12,2,8.66,8.66,0,0,1,0,2c-.06.66-.12,1.32-.22,2Z"/><path class="cls-6" d="M111.46,176.34c-.13-.66-.22-1.31-.31-2a9.21,9.21,0,0,1-.1-2,6,6,0,0,0-.21-2,4,4,0,0,1,.35-2l.83,0a3.86,3.86,0,0,1,.43,2,6,6,0,0,0-.12,2,8.66,8.66,0,0,1,0,2c-.06.66-.12,1.32-.22,2Z"/><path class="cls-6" d="M107.21,176.55c-.12-.66-.21-1.31-.31-2a8.59,8.59,0,0,1-.09-2,5.75,5.75,0,0,0-.22-2,4,4,0,0,1,.35-2l.83,0a4,4,0,0,1,.44,2,6,6,0,0,0-.12,2,9.27,9.27,0,0,1,0,2c-.06.66-.12,1.31-.22,2Z"/><path class="cls-6" d="M103.12,177.16c-.12-.65-.22-1.31-.31-2a8.68,8.68,0,0,1-.09-2,5.77,5.77,0,0,0-.22-2,4,4,0,0,1,.35-2l.83,0a4,4,0,0,1,.44,2,6,6,0,0,0-.12,2,9.27,9.27,0,0,1,0,2c-.06.66-.12,1.32-.22,2Z"/></g><path class="cls-8" d="M172.67,56.71l.66,16.68.6,16.81.5,16.88c.14,5.62.37,11.28.39,16.86,0,11.11-.1,22.22-.18,33.32s-.11,22.22,0,33.33v1.06l-1.07,0-19.88-.24h-1.11v-1.13l.1-33.49.19-33.5c.13-11.17.2-22.33.43-33.5l.59-33.49,0-1.23,1.21.07c2.83.15,5.65.35,8.48.55l4.24.32,2.12.19,1.07.1c.19,0,.3,0,.71.1A3.88,3.88,0,0,1,172.67,56.71ZM171.26,58a.46.46,0,0,0-.09.22c.06,0-.19,0-.35,0l-1-.08L167.67,58l-4.22-.2L155,57.45l1.23-1.16-.08,33.5c0,11.17-.16,22.33-.25,33.5l-.49,33.49-.58,33.5-1.11-1.14,19.87.4-1.06,1.05c.05-11.11,0-22.21-.11-33.31s-.23-22.21-.25-33.31l-.59-32.87-.18-16.5Z"/><path class="cls-8" d="M172.91,60.57l-8.51,6.89-8.57,6.82.07-2,8.68,7.77c2.9,2.6,5.75,5.23,8.62,7.84l0,0a1.28,1.28,0,0,1,.08,1.81l-.06.07c-5.86,5.54-11.77,11-17.58,16.62l0-1.51c3,2.7,6.13,5.3,9.19,8l9.23,7.9a1.15,1.15,0,0,1,.13,1.62.68.68,0,0,1-.12.12l0,0-18.16,15.66V136l9,7.38c3,2.45,6,4.95,8.94,7.43a1.51,1.51,0,0,1,.19,2.13,1.75,1.75,0,0,1-.24.23c-3.11,2.41-6.31,4.71-9.48,7.07s-6.38,4.62-9.61,6.89l-1.16-1.5c3-2.54,6.08-5,9.14-7.52s6.14-4.95,9.27-7.34l0,2.36c-3-2.47-6-4.93-8.93-7.44L154,138.2l0,0a1.42,1.42,0,0,1-.17-2A1.62,1.62,0,0,1,154,136l18.5-15.24v1.76l-9.1-8c-3-2.67-6.06-5.38-9.14-8a1,1,0,0,1-.12-1.43l.06-.07h0c5.78-5.62,11.46-11.34,17.19-17l0,1.89c-2.89-2.59-5.8-5.16-8.67-7.78l-8.62-7.84v0a1.28,1.28,0,0,1-.09-1.8l.18-.16L163,65.62l8.78-6.55Z"/><circle class="cls-9" cx="164.03" cy="187.13" r="13.15"/><circle class="cls-6" cx="164.03" cy="187.13" r="7.61"/><path class="cls-10" d="M183.75,194.19l.28-3.66c.07-1.22.14-3.84.14-3.84l-41.08,0-.06,7.54S177.16,194.22,183.75,194.19Z"/><path class="cls-8" d="M189.61,193.41l.37,3.35c.09,1.12.18,3.51.18,3.51h-53l-.07-6.91S181.11,193.39,189.61,193.41Z"/><path class="cls-6" d="M181.48,60l.25-3.66c.06-1.23.13-3.85.13-3.85l-36.46,0L145.35,60S175.64,60,181.48,60Z"/><path class="cls-4" d="M164.32,12.16l0,10.09c0,3.38,0,10.59,0,10.59l-2.3-.05V12S164,12.1,164.32,12.16Z"/><path class="cls-6" d="M172.83,33.68,173,30c0-1.23.07-3.85.07-3.85l-18.82,0,0,7.55S169.82,33.7,172.83,33.68Z"/><path class="cls-8" d="M130.2,32.71l18.17-.3,18.29-.25L185,32c6.12,0,12.25-.12,18.36,0s12.17.58,18.2,1.21,12,1.32,18,2.13,12,1.59,18,2.47,12,1.71,18,2.65l.93.15,0,1-.3,11.57,0,1.09h-1.1l-36.36.25-36.35.16c-12.12,0-24.24,0-36.35-.08l-36.36-.25h-1.23l.06-1.21c.16-3.3.37-6.58.57-9.87l.35-4.93.2-2.47.12-1.24,0-.32V34.1l0-.28A4,4,0,0,1,130.2,32.71Zm1.24,1.43a.69.69,0,0,0,.23.12s0,0,0,0l0,.15,0,.3L131.55,36l-.13,2.45-.23,4.92-.36,9.84L129.66,52,166,51.69c12.12-.12,24.24-.08,36.36-.1l36.35.14,36.36.24L274,53.06l.4-11.57.9,1.1c-5.95-1-11.93-1.9-17.9-2.78s-12-1.62-18-2.33c-12-1.34-24-2.56-36-2.82l-35.83-.11-18-.17Z"/><path class="cls-8" d="M262.88,53.14a47.36,47.36,0,0,1,.27,8.07c-.09,1.35-.27,2.69-.32,4a38.71,38.71,0,0,0,.06,4l.24,4c.05,1.35.08,2.7.08,4a68.62,68.62,0,0,1-.68,8.07l-1.89,0a68.59,68.59,0,0,1-.5-8.08c0-1.35.09-2.69.17-4l.32-4a38.86,38.86,0,0,0,.15-4c0-1.34-.17-2.69-.24-4a48.37,48.37,0,0,1,.45-8.06Z"/><path class="cls-11" d="M275.68,117.18c-7.93,1.19-30.06-.36-30.06-.36-3,0-5.05-2.49-5.3-5.44a183.5,183.5,0,0,1,.36-30A6,6,0,0,1,246.11,76c7.93-1.19,30.06.37,30.06.37,2.95,0,4.84,2.51,5.3,5.43,1.87,11.73-.36,30.05-.36,30.05C281.08,114.83,278.6,116.74,275.68,117.18Z"/><path class="cls-6" d="M257.21,85.3a36.09,36.09,0,0,1,7.52-.15,25.79,25.79,0,0,1,.11,5.18s2.24-.66,4.9-1.7a38.17,38.17,0,0,1,2.47,7.11c-.43.55-4.9,1.7-4.9,1.7s.8.28,3.13,4.13c-1.46,1.1-3.86,3.09-6,4.55-1-1.31-3.13-4.13-3.13-4.13s-.39,1.7-3,4.25c-1.66.16-5.84-2.45-6.18-4.3,1.1-1.6,3-4.25,3-4.25s-3.29-1-5-1.5A17.72,17.72,0,0,1,252.35,89c4.12.59,5,1.5,5,1.5S256.32,86.46,257.21,85.3Z"/><path class="cls-8" d="M131.52,32.89l8.89,9.41,8.83,9.47-1.85-.06,9.91-9.59c3.31-3.2,6.65-6.36,10-9.53h0a1.28,1.28,0,0,1,1.8,0c6.39,6.52,12.73,13.1,19.18,19.57h-1.45c3.26-3.2,6.44-6.48,9.66-9.72l9.62-9.75a1.15,1.15,0,0,1,1.63,0l0,0,0,0L226,51.92l-2-.12,8.95-7.66,9-7.61a1.5,1.5,0,0,1,1.95,0c6,5.06,11.92,10.23,17.88,15.35l-1.7,0,7-5.41,7.06-5.36,1.18,1.48-6.78,5.71-6.81,5.66a1.31,1.31,0,0,1-1.67,0l0,0c-6-5-12.12-10-18.11-15.09h1.95l-9,7.61-9,7.56h0a1.43,1.43,0,0,1-2-.13L206.08,34.32l1.67,0L198,44c-3.23,3.22-6.51,6.39-9.71,9.66a1,1,0,0,1-1.44,0h0c-6.47-6.45-13-12.79-19.56-19.18h1.81c-3.3,3.2-6.59,6.41-9.92,9.59l-10,9.52h0a1.27,1.27,0,0,1-1.8,0l0,0-8.64-9.64-8.57-9.7Z"/><g id="Zigouigoui_2" data-name="Zigouigoui 2"><g class="cls-12"><g class="cls-12"><path class="cls-9" d="M200.1,129c.14.69.23,1.38.34,2.07a13.31,13.31,0,0,1,.26,2.07,11.17,11.17,0,0,1-.2,2.07c-.12.69-.22,1.38-.4,2.07a.08.08,0,0,1-.11.06.09.09,0,0,1-.07-.06c-.18-.69-.28-1.38-.39-2.07a11.18,11.18,0,0,1-.21-2.07,13.31,13.31,0,0,1,.26-2.07c.12-.69.21-1.38.34-2.07A.1.1,0,0,1,200,129a.12.12,0,0,1,.07.07"/><path class="cls-9" d="M195.87,133.08c.69-.14,1.38-.23,2.07-.35a13.31,13.31,0,0,1,2.07-.26,12.11,12.11,0,0,1,2.07.21,18.88,18.88,0,0,1,2.07.4.08.08,0,0,1,.06.1.07.07,0,0,1-.06.07c-.69.18-1.38.29-2.07.4a11.17,11.17,0,0,1-2.07.2,13.31,13.31,0,0,1-2.07-.26c-.69-.11-1.38-.2-2.07-.34a.1.1,0,0,1-.07-.11.09.09,0,0,1,.07-.06"/></g></g></g><g id="Zigouigoui_2-2" data-name="Zigouigoui 2"><g class="cls-13"><g class="cls-13"><path class="cls-9" d="M308,101.35c.14.69.23,1.38.35,2.07a13.31,13.31,0,0,1,.26,2.07,12,12,0,0,1-.21,2.06c-.11.69-.22,1.38-.4,2.07a.09.09,0,0,1-.11.07.11.11,0,0,1-.06-.07c-.18-.69-.29-1.38-.4-2.07a12,12,0,0,1-.21-2.06,14.64,14.64,0,0,1,.26-2.07c.12-.69.21-1.38.35-2.07a.08.08,0,0,1,.1-.07.08.08,0,0,1,.07.07"/><path class="cls-9" d="M303.81,105.4c.69-.14,1.38-.23,2.07-.35a14.64,14.64,0,0,1,2.07-.26A12,12,0,0,1,310,105c.69.11,1.38.22,2.07.4a.09.09,0,0,1,.07.11.11.11,0,0,1-.07.06c-.69.18-1.38.29-2.07.4a12,12,0,0,1-2.06.21,13.31,13.31,0,0,1-2.07-.26c-.69-.12-1.38-.21-2.07-.35a.08.08,0,0,1-.07-.1.08.08,0,0,1,.07-.07"/></g></g></g><g id="Zigouigoui_2-3" data-name="Zigouigoui 2"><g class="cls-14"><g class="cls-14"><path class="cls-9" d="M100.47,59.84c.13.68.23,1.37.34,2.06a13.31,13.31,0,0,1,.26,2.07,11.18,11.18,0,0,1-.21,2.07c-.11.69-.21,1.38-.39,2.07a.09.09,0,0,1-.11.06.07.07,0,0,1-.07-.06c-.18-.69-.28-1.38-.4-2.07a11.17,11.17,0,0,1-.2-2.07A13.31,13.31,0,0,1,100,61.9c.11-.69.2-1.38.34-2.06a.09.09,0,0,1,.11-.07.08.08,0,0,1,.07.07"/><path class="cls-9" d="M96.24,63.89c.69-.14,1.38-.23,2.07-.35a13.31,13.31,0,0,1,2.07-.26,12.11,12.11,0,0,1,2.07.21c.69.11,1.38.22,2.07.4a.09.09,0,0,1,.06.11.09.09,0,0,1-.06.06c-.69.18-1.38.29-2.07.4a11.17,11.17,0,0,1-2.07.2,14.61,14.61,0,0,1-2.07-.25c-.69-.12-1.38-.21-2.07-.35a.09.09,0,0,1-.07-.1.08.08,0,0,1,.07-.07"/></g></g></g><g id="Zigougoui_1" data-name="Zigougoui 1"><g class="cls-15"><g class="cls-16"><path class="cls-9" d="M298.62,77.88a.6.6,0,0,1,0,.23.67.67,0,0,1-.28.48l-.14.08a112.76,112.76,0,0,1-12,3.68.72.72,0,0,1-.5,0,.7.7,0,0,1-.35-.87.56.56,0,0,1,.11-.2.8.8,0,0,1,.28-.2,32.62,32.62,0,0,1,11.95-3.68.61.61,0,0,1,.23,0,.65.65,0,0,1,.5.24.76.76,0,0,1,.12.19.61.61,0,0,1,0,.11"/><path class="cls-9" d="M294.37,68.61a.86.86,0,0,1,.07.21.69.69,0,0,1-.13.54l-.12.13a118.38,118.38,0,0,1-10.42,6.93.7.7,0,0,1-.49.1.69.69,0,0,1-.58-.73.55.55,0,0,1,.06-.22.6.6,0,0,1,.2-.27,32.64,32.64,0,0,1,10.42-6.93.68.68,0,0,1,.21-.1.69.69,0,0,1,.54.09.83.83,0,0,1,.17.15l.07.1"/><path class="cls-9" d="M287.65,60.93a.75.75,0,0,1,.13.18.69.69,0,0,1,0,.56,1.09,1.09,0,0,1-.08.15,114,114,0,0,1-8,9.61.69.69,0,0,1-.44.24.7.7,0,0,1-.77-.54.88.88,0,0,1,0-.23.59.59,0,0,1,.12-.31,32.56,32.56,0,0,1,8-9.61.8.8,0,0,1,.17-.15.67.67,0,0,1,.55-.07.58.58,0,0,1,.21.1l.09.07"/></g></g></g><path class="cls-3" d="M254,110.3c-4-1.83-7.31-1.75-7.4.37-.07,1.53,22.9,10.87,22.39,11-.73.22-22.68-9.55-26.06-9.85-2.27-.22-2.76,1-2.27,1.63,2.59,3.29,26.25,11.6,26,12.18-.19.39-25-10.34-28.28-10.79-1.16-.16-3,.7-2,2.43,1.38,2.46,26,11.21,25.85,12.17,0,.38-18-5.59-21.14-5.72-4.71,1.33,1.25,3.71,12.69,8.43,3.44,1.42,23.78,8,35.19,11.72,4.55,2.77,17.84,11.64,17.84,11.64s9.25-19.26,6.83-20.65c-4.95-2.83-20.64-12.45-23-13.07C278.72,118.64,261.72,113.84,254,110.3Z"/><path class="cls-17" d="M95.75,111.83c.61-3.07-4.11-4.55-7.45,3.37-.34.79-1.22,4-2.14,7.55a18.16,18.16,0,0,1-4.85,8L84,138.91s7-8.67,8.82-13.56C94.11,119.49,95.53,112.9,95.75,111.83Z"/><path class="cls-4" d="M134.84,83l.07.09s2.1.84,2.49.34c3.09-4,6-7.08,6-7.08l-2.22-2.79A75.48,75.48,0,0,1,133,77.85c-.59.28-.11,2.63-.11,2.63-.71.52-9.9,7.16-26.52,21.11-.62.52,2,2.51,2,2.51Z"/><path class="cls-18" d="M105.86,108.92c2.2,1.41,4.2.22,5.94-1.16a130.44,130.44,0,0,0-8.17-10.27c-1.74,1.38-3.63,3.24-2.46,5.53,0-.08-.17,0-.26,0a6,6,0,0,0-4.11,1.18c-8.25,5.92-21.29,15-25.89,20.6a7.51,7.51,0,0,0-2.08,3.75A5.59,5.59,0,0,0,70,132.62h0a5.55,5.55,0,0,0,3.74,2.07,5.72,5.72,0,0,0,4.12-1.18c12.21-9.3,18.73-13.83,25.89-20.6a6.15,6.15,0,0,0,2.08-3.74C105.85,109.09,105.85,109,105.86,108.92Z"/><path class="cls-6" d="M76.54,127.34a2.48,2.48,0,0,1-.51-1.86,2.58,2.58,0,0,1,1-1.73l2.88-2.34,5.75-4.69,5.77-4.66,2.9-2.31a2.79,2.79,0,0,1,2.05-.64,2.74,2.74,0,0,1,1.89,1h0l.1.18-.09-.17a2.74,2.74,0,0,1-.52,3.91c-1,.77-1.94,1.53-2.89,2.32l-5.74,4.71q-2.88,2.33-5.84,4.57l-3,2.23a2.64,2.64,0,0,1-3.83-.52Zm.48-.19,0-.07h0l0,0,0,0,.07.08.16.13a1.94,1.94,0,0,0,.34.21,1.87,1.87,0,0,0,.76.2,1.94,1.94,0,0,0,1.44-.52l2.84-2.38q2.85-2.37,5.77-4.67l5.87-4.53c1-.75,1.95-1.52,2.91-2.3a1.87,1.87,0,0,0,.37-2.67l-.12-.14a0,0,0,0,1,0,0s0,0,0,0h0l.09.17h0a1.86,1.86,0,0,0-2.67-.23L92,112.78l-5.84,4.57-5.85,4.56-2.94,2.27a2.08,2.08,0,0,0-.4,3Z"/><path class="cls-17" d="M97.84,98.18c2-4.17,1.92-7.65-.3-7.77-1.6-.09-11.69,23.89-11.85,23.35C85.47,113,96,90.08,96.36,86.55c.25-2.39-1-2.91-1.69-2.4-3.48,2.67-12.5,27.38-13.11,27.09-.4-.2,11.17-26.13,11.68-29.53.18-1.22-.69-3.11-2.52-2.11-2.6,1.42-12.09,27.11-13.1,27-.4,0,6.1-18.84,6.27-22.1-1.34-5-3.91,1.26-9,13.2-1.53,3.59-8.73,24.85-12.74,36.77-3,4.74-5.32,7.76-5.32,7.76s11.93,15,17.51,14.32c3.42-5.9,9.94-16.4,11-20C88.78,124,94,106.23,97.84,98.18Z"/></svg>