<?xml version="1.0" encoding="UTF-8"?>
<svg width="1350px" height="640px" viewBox="0 0 1350 640" version="1.1" xmlns="http://www.w3.org/2000/svg" xmlns:xlink="http://www.w3.org/1999/xlink" style="background: #FFFFFF;">
    <!-- Generator: Sketch 47.1 (45422) - http://www.bohemiancoding.com/sketch -->
    <title>simplify-product</title>
    <desc>Created with Sketch.</desc>
    <defs>
        <polygon id="path-1" points="876.733531 5.24017338 876.733531 0.242828796 0.509123544 0.242828796 0.509123544 5.24017338"></polygon>
        <polygon id="path-3" points="2.08126022 0.165816521 20.8491811 3.79230126 14.7186544 34.4059331 0.458452226 34.4059331 0.458452226 0.165816521 2.08126022 0.165816521"></polygon>
        <polygon id="path-5" points="32.2802881 3.57369559 0.334138318 3.57369559 0.334138318 0.181714807 32.2802881 0.181714807 32.2802881 3.57369559"></polygon>
    </defs>
    <g id="Elelments--illustrations" stroke="none" stroke-width="1" fill="none" fill-rule="evenodd">
        <g id="simplify-product">
            <g id="Page-1" transform="translate(234.000000, 70.000000)">
                <g id="Group-31">
                    <g id="Group-3" fill="#EAF2FB">
                        <path d="M862.259565,470.531681 C860.238272,461.82131 855.727703,447.643843 846.477551,433.531342 C821.744097,395.786399 769.399586,406.11591 799.748848,377.616054 C830.103088,349.116198 832.124381,219.679976 768.598039,181.92004 C705.071698,144.165102 602.36414,197.027013 597.256145,153.964894 C592.153127,110.902776 500.751865,8.06741931 332.461824,0.206596286 C164.166804,-7.65422674 294.769196,211.309423 114.391226,230.07945 C-65.9817643,248.849476 20.9338214,471.001496 20.9338214,471.001496 L862.259565,470.531681 Z" id="Fill-1"></path>
                    </g>
                    <path d="M154.831266,463.199389 C154.831266,463.199389 138.173026,447.557701 144.465917,425.414467 C150.758809,403.276231 156.065947,399.103448 139.138865,387.54459 C122.211784,375.995727 127.86742,364.571797 121.355472,338.375717 C118.609554,327.33162 116.570935,324.351317 114.390033,323.388471 C111.398924,322.067928 108.140179,324.54225 102.422034,315.213024 C92.5296481,299.081596 96.7763541,284.764204 75.3237674,274.724539 C54.7922131,265.109648 49.0818123,305.468202 63.0615903,330.874702 C77.0463469,356.281202 57.580203,369.36425 86.0177002,393.681329 C114.455197,418.003405 90.6676691,432.295811 110.805918,448.38726 C130.949145,464.473712 144.336475,470.570473 144.336475,470.570473 L154.831266,463.199389 Z" id="Stroke-4" stroke="#FFFFFF" stroke-width="3"></path>
                    <path d="M73.9855323,289.737061 C81.2044347,303.499748 86.7953502,317.952069 91.9780244,332.499339 C97.1308272,347.066599 101.885346,361.763789 106.037459,376.635886 L112.360222,398.904054 L118.867191,421.127245 C122.840077,436.039321 126.260343,451.121307 128.650049,466.413182 L126.190644,466.957892 C121.914066,452.145763 117.906331,437.293655 114.112673,422.376581 C112.275587,414.905551 110.587857,407.389545 108.626307,399.943501 C106.704585,392.487463 104.454279,385.121377 102.293587,377.735302 C97.7581249,363.028117 93.4168263,348.265961 88.6423936,333.643731 C83.7733683,319.081469 78.9043431,304.439249 72.2430386,290.666568 L73.9855323,289.737061 Z" id="Fill-6" fill="#FFFFFF"></path>
                    <path d="M257.029936,250.49327 C247.187336,286.754002 234.571681,322.300114 219.725635,356.776794 C212.277719,374.002641 205.188259,391.363416 198.327812,408.809146 C191.203502,426.13494 183.94975,443.380776 176.486899,460.591631 L174.127064,459.702103 C179.782701,441.766634 186.493791,424.19597 193.79235,406.905158 C201.344816,389.714293 209.106381,372.633369 216.126141,355.257602 C223.165815,337.891829 230.349868,320.606014 236.941473,303.080327 C243.503206,285.559637 249.701505,267.879032 255.138086,249.943562 L257.029936,250.49327 Z" id="Fill-8" fill="#EAF2FB"></path>
                    <path d="M144.159736,453.253674 C146.230815,460.564789 148.321807,466.891428 150.288336,472.28856 L178.964803,472.28856 C180.065064,471.244115 181.289788,470.169686 182.678804,469.060275 C202.79216,453.018799 198.416012,444.568289 190.624576,423.344567 C182.833139,402.120845 204.081605,405.848864 215.243522,377.998662 C226.410418,350.153458 211.673899,354.556119 213.232187,333.667218 C214.785495,312.778318 234.331296,284.953104 211.828235,275.078351 C189.325173,265.203598 181.379402,284.638271 177.486173,316.531324 C173.592944,348.414382 134.282286,354.531132 157.352903,387.973362 C166.010607,400.526692 136.413107,425.878221 144.159736,453.253674" id="Fill-10" fill="#D6E3F2"></path>
                    <path d="M113.738784,466.308238 C113.927969,468.422114 114.102218,470.391068 114.271489,472.285062 L162.44895,472.285062 C157.01237,445.009555 126.249888,434.909922 128.674444,420.027829 C135.221242,379.88416 97.100458,391.293098 79.9493414,364.167512 C62.808182,337.036928 47.3149237,322.89944 31.2142819,341.509551 C15.1086616,360.12466 44.6563762,376.840778 54.9868745,395.036109 C65.3223515,413.241435 50.132785,415.605179 72.1230554,435.949369 C94.1083474,456.298556 111.707534,443.775211 113.738784,466.308238" id="Fill-12" fill="#D6E3F2"></path>
                    <path d="M42.2253485,347.284483 C47.4727439,359.35307 55.0252094,370.152332 62.7419672,380.866638 L85.6034846,413.254429 C89.466842,418.59659 93.3202424,423.943749 97.5221415,429.011056 C101.664298,434.113345 106.19976,438.880812 110.690415,443.638284 C119.611983,453.228188 129.011492,462.273382 138.953663,470.898798 L137.465076,472.942712 C126.213545,465.77652 116.022446,456.891241 107.080964,446.981507 C102.669966,441.959176 98.597509,436.676983 94.5101166,431.429771 C90.4625527,426.152575 86.3353319,420.945342 82.4470817,415.568199 C74.4714391,404.948842 67.237601,393.839745 59.8643633,382.870573 C52.4015118,371.966368 45.2672447,360.512454 40.403198,348.039082 L42.2253485,347.284483 Z" id="Fill-14" fill="#EAF2FB"></path>
                    <path d="M187.752867,282.991002 C181.499804,296.853636 176.431637,311.206009 172.379094,325.818245 C168.356423,340.440475 165.553497,355.362546 163.27332,370.374569 C162.262674,377.905567 161.222156,385.441563 160.659579,393.032529 C160.03726,400.613501 159.783354,408.234452 159.375113,415.84041 C158.434166,431.04733 157.304034,446.279236 155.312613,461.456171 L152.798443,461.286262 C152.848229,446.004382 153.351063,430.752486 154.471237,415.505588 C155.098535,407.87964 156.024546,400.283676 156.8012,392.667723 C157.66249,385.061765 158.374423,377.43082 159.404984,369.834856 C161.301813,354.612944 164.552808,339.530958 168.993678,324.833768 C173.38974,310.116588 179.224605,295.869159 185.975524,282.141453 L187.752867,282.991002 Z" id="Fill-16" fill="#EAF2FB"></path>
                    <path d="M784.78318,237.868058 C757.366286,250.701239 762.792909,269.001515 750.152362,289.620559 C737.511815,310.239603 734.270777,285.752614 725.946635,319.229826 C717.622494,352.707037 724.851354,367.309278 703.21456,382.081428 C681.582746,396.848582 688.363535,402.185746 696.408878,430.490705 C701.472067,448.316233 694.900376,462.848511 689.339332,471.159095 L724.418219,471.159095 C728.99351,467.910822 734.006913,464.177805 739.433537,459.845107 C765.172658,439.286032 734.768632,421.010743 771.117051,389.927259 C807.465469,358.833781 782.582659,342.117664 800.455666,309.639921 C818.328673,277.162179 811.035092,225.579588 784.78318,237.868058" id="Fill-18" fill="#D6E3F2"></path>
                    <path d="M787.756372,260.658448 C777.913772,296.919181 765.298117,332.465293 750.452071,366.941973 C743.004155,384.16782 735.914695,401.528595 729.054248,418.974325 C721.929938,436.300118 714.676186,453.545955 707.213334,470.756809 L704.8535,469.867282 C710.509137,451.931812 717.220227,434.361149 724.518786,417.070336 C732.071252,399.879471 739.832816,382.798547 746.852577,365.42278 C753.892251,348.057008 761.076304,330.771193 767.667909,313.245505 C774.229642,295.724815 780.427941,278.04421 785.864521,260.108741 L787.756372,260.658448 Z" id="Fill-20" fill="#EAF2FB"></path>
                    <path d="M665.799271,452.466028 C663.18553,443.330882 664.360469,433.441138 667.506914,424.755753 C670.389497,415.920447 675.139037,407.87972 678.116212,399.634101 C679.564971,395.57126 680.361539,391.218573 678.509518,388.3451 C677.43415,386.476093 676.060069,384.367214 674.855259,382.383268 C673.789849,380.244404 672.799117,378.020586 671.957741,375.7368 C670.499025,371.034298 670.210269,365.767097 671.614221,360.864702 C673.127701,355.997289 675.995348,352.029397 678.813209,348.326365 C684.643095,341.095207 690.876244,334.643635 694.570331,326.782812 C695.680548,324.903811 696.103725,322.774942 696.925187,320.785999 C697.413085,318.682117 697.836262,316.638203 698.224589,314.439371 C698.866822,309.891787 699.523992,305.339207 700.494809,300.811612 C701.405885,296.284018 702.575845,291.771416 704.213789,287.358761 C705.866669,282.981087 707.922811,278.55344 711.417756,274.950354 C714.833043,271.292298 720.135203,269.173424 725.113756,269.578209 C726.368352,269.618188 727.598054,269.733126 728.763036,270.062951 C729.942953,270.352797 731.167677,270.537699 732.262959,271.012447 C733.378155,271.437221 734.503308,271.822016 735.613525,272.28677 L738.849585,274.060827 C743.10127,276.654449 746.30248,281.381937 746.98952,286.354295 C747.78111,291.306663 747.014413,296.094119 746.053552,300.641703 C744.027281,309.73687 740.631907,318.252345 738.954135,326.947725 C738.122716,331.250438 737.699539,335.648101 738.356708,339.810889 C738.879456,344.033646 741.005299,347.566768 742.887192,352.169323 C744.833806,356.846837 744.450458,362.203991 743.399983,366.746577 C742.289765,371.384113 740.766328,375.7368 738.784864,379.999535 C735.085799,388.659933 728.568872,396.046008 721.58894,401.847925 C718.283181,404.856327 714.718537,407.7298 713.916989,411.547771 C712.906343,415.375737 714.320252,419.573506 715.858625,423.80126 C717.401977,428.078987 719.024985,432.361711 720.239752,436.884308 C721.419669,441.346937 722.206281,446.379263 720.742586,451.176713 C717.845068,460.93153 709.162471,466.33366 702.725201,472.125582 L702.31696,472.490388 L701.814126,472.485391 L673.142637,472.285497 L672.316197,472.2805 L672.082205,471.540893 L666.063134,452.391068 L665.799271,452.466028 Z M667.959963,451.851355 L674.19809,470.766304 L673.142637,470.031695 L701.814126,469.831801 L700.908029,470.19161 C704.388038,467.003304 707.922811,464.309735 711.029428,461.146416 C714.116132,457.998089 716.764722,454.409995 717.830132,450.357149 C719.01005,446.329289 718.318031,441.966607 717.133135,437.728859 C715.928325,433.471122 714.270467,429.248365 712.697244,424.975636 C711.168828,420.782864 709.262042,415.900458 710.531573,410.693225 C711.084193,408.114595 712.557844,405.860793 714.15596,404.051754 C715.744119,402.172753 717.516484,400.693539 719.199235,399.144362 C726.084574,393.282476 731.839782,386.601027 735.289919,378.415376 C737.117048,374.417501 738.580743,370.104792 739.541604,365.897028 C740.452679,361.644288 740.716543,357.436524 739.088556,353.618553 C737.545204,349.835563 734.851807,345.382929 734.28923,340.435558 C733.552404,335.568144 734.075152,330.760698 734.981249,326.163141 C736.823314,316.96303 740.268473,308.462547 742.230023,299.777162 C743.175948,295.474448 743.82316,291.071788 743.175948,287.003949 C742.578522,282.916121 740.268473,279.502935 736.788464,277.284114 C733.353262,275.09028 728.932307,273.666037 724.92955,273.361199 C720.847136,273.081347 716.933993,274.540572 714.136046,277.588952 C711.303249,280.582362 709.436291,284.625213 707.972597,288.743025 C706.503923,292.885824 705.443492,297.238511 704.631987,301.641172 C703.76074,306.033837 703.183228,310.516456 702.630609,314.989079 C702.267174,317.272865 701.824083,319.716567 701.281421,322.030337 C700.420131,324.269148 699.912319,326.672871 698.732402,328.756763 C694.689816,337.512111 688.10319,344.38346 682.646695,351.329769 C679.993126,354.842902 677.583507,358.455982 676.338868,362.333922 C675.168908,366.216858 675.283415,370.314681 676.408568,374.352535 C677.110544,376.331484 677.936984,378.315429 678.843081,380.254399 C679.973212,382.173379 681.043601,383.902461 682.203604,385.991351 C683.602578,388.455042 684.204983,391.398478 683.771848,393.902147 C683.712106,395.226444 683.413393,396.420809 683.074851,397.595185 C682.806009,398.80954 682.392789,399.923947 681.959655,401.023363 C678.509518,409.81869 673.834656,417.529592 670.737996,425.920134 C667.442193,434.180745 666.107941,443.210946 668.223826,451.776395 L667.959963,451.851355 Z" id="Fill-22" fill="#FFFFFF"></path>
                    <path d="M724.105101,293.15618 C717.852038,307.018814 712.783871,321.371188 708.731328,335.983423 C704.708657,350.605654 701.905731,365.527724 699.625554,380.539748 C698.614908,388.070746 697.57439,395.606741 697.011813,403.197708 C696.389494,410.77868 696.135588,418.39963 695.727347,426.005589 C694.7864,441.212508 693.656268,456.444414 691.664847,471.62135 L689.150678,471.45144 C689.200463,456.16956 689.703297,440.917665 690.823472,425.670766 C691.450769,418.044819 692.37678,410.448855 693.153435,402.832902 C694.014724,395.226943 694.726657,387.595998 695.757218,380.000034 C697.654047,364.778123 700.905042,349.696137 705.345912,334.998946 C709.741975,320.281767 715.576839,306.034337 722.327758,292.306632 L724.105101,293.15618 Z" id="Fill-24" fill="#FFFFFF"></path>
                    <g id="Group-28" transform="translate(2.658232, 455.994573)">
                        <mask id="mask-2" fill="white">
                            <use xlink:href="#path-1"></use>
                        </mask>
                        <g id="Clip-27"></g>
                    </g>
                    <path d="M683.722167,469.220046 C683.722167,469.220046 296.903501,473.192935 154.028975,469.220046 C146.128011,469.000163 139.710656,463.213238 139.710656,455.802176 C139.710656,455.802176 134.936223,205.430215 139.710656,116.012728 C140.103961,108.616658 146.137968,102.68481 154.028975,102.599855 C281.967841,101.210594 543.506188,96.9878375 683.722167,102.599855 C691.623131,102.914688 697.647181,108.616658 698.045465,116.012728 C702.814919,205.430215 698.045465,455.802176 698.045465,455.802176 C698.045465,463.213238 691.633088,469.220046 683.722167,469.220046" id="Fill-29" fill="#FFFFFF"></path>
                </g>
                <g id="Group-39" transform="translate(95.638570, 62.120536)">
                    <g id="Group-34" transform="translate(28.128991, 0.000000)">
                        <mask id="mask-4" fill="white">
                            <use xlink:href="#path-3"></use>
                        </mask>
                        <g id="Clip-33"></g>
                        <path d="M1.30536575,0.300227884 C1.45618962,0.239233506 1.60701348,0.192761599 1.76966666,0.175334633 C2.18073563,0.128862726 2.59771925,0.253755977 2.90528164,0.523873938 C3.00287355,0.602295281 3.07680681,0.695239096 3.15369741,0.78818291 C20.5605457,25.8104005 30.2073583,48.5961575 16.5267466,23.5303725 C16.7012291,23.8498669 16.7722051,24.2042152 16.6893998,24.5701814 C16.5237893,25.296305 15.796286,25.7929735 15.0421666,25.6942207 C14.8795135,25.6709847 14.7257323,25.6245128 14.5778657,25.548996 C14.3531086,25.4415297 14.1815834,25.278878 14.0307596,25.0784679 C7.9948477,18.2935695 3.60912633,10.6460362 0.654753007,2.34208731 C0.57786241,2.1968626 0.512801136,2.05744688 0.48618516,1.8976997 C0.406337232,1.4968795 0.500971813,1.08153682 0.743472927,0.75332898 C0.841064839,0.625531235 0.962315396,0.520969443 1.09243794,0.425121135 C1.19594452,0.358317768 1.19594452,0.358317768 1.30536575,0.300227884" id="Fill-32" fill="#C8D4E5" mask="url(#mask-4)"></path>
                    </g>
                    <path d="M11.7235872,13.9323077 C11.8456444,13.8278622 11.9705401,13.7353533 12.1181441,13.672686 C12.481477,13.5085573 12.9015807,13.5145257 13.2592366,13.6876068 C13.3671011,13.7413217 13.4607728,13.8069731 13.5572831,13.8785929 C20.3754527,19.7126213 26.290967,26.1822753 32.1866115,32.4400542 C32.4364029,32.7145967 32.6010381,33.0368857 32.6265849,33.4188579 C32.6748401,34.1857864 32.1440334,34.8840794 31.4230446,34.9974773 C31.266925,35.0213506 31.1079668,35.0183665 30.9546858,34.9885249 C30.7162485,34.9467467 30.5118737,34.8363328 30.3188531,34.6901091 C22.8818822,29.7334231 16.7194151,23.4547551 11.6923633,16.1286479 C11.5844989,16.0062974 11.48515,15.8809628 11.411348,15.734739 C11.2296815,15.3676876 11.2012962,14.9260323 11.3347075,14.5410759 C11.3858012,14.3799314 11.4709573,14.2426602 11.5617906,14.1113572 C11.6441082,14.0158642 11.6441082,14.0158642 11.7235872,13.9323077" id="Fill-35" fill="#C8D4E5"></path>
                    <path d="M0.214613457,31.1809777 C0.300668061,31.0479731 0.401065097,30.926534 0.524410028,30.819552 C0.834206599,30.5679998 1.23866323,30.4523435 1.63451441,30.5101717 C1.75499085,30.5246287 1.86399335,30.562217 1.97299585,30.6026966 C10.176868,34.0434692 17.6750924,38.3429891 25.0987362,42.4430021 C25.4142697,42.6251607 25.6638281,42.8824957 25.7900415,43.2294644 C26.0482053,43.9262931 25.7240663,44.7301039 25.0557089,45.0452671 C24.915153,45.1059866 24.7602547,45.1522491 24.602488,45.1695975 C24.3586666,45.1985115 24.1320561,45.1551405 23.9054457,45.0741811 C15.3372757,42.6280521 7.65546813,38.5800844 0.785442324,33.2309842 C0.644886473,33.1529163 0.515804568,33.0632827 0.403933584,32.9476265 C0.125690368,32.6613773 -0.0206024574,32.259472 0.0023454367,31.8575666 C0.010950897,31.6956479 0.0511097117,31.5452948 0.10561096,31.3949417 C0.154375235,31.2821769 0.154375235,31.2850683 0.214613457,31.1809777" id="Fill-37" fill="#C8D4E5"></path>
                </g>
                <g id="Group-45" transform="translate(675.095785, 494.705357)">
                    <g id="Group-42" transform="translate(0.000000, 6.353237)">
                        <mask id="mask-6" fill="white">
                            <use xlink:href="#path-5"></use>
                        </mask>
                        <g id="Clip-41"></g>
                        <path d="M0.332227092,1.72395075 C2.98883183,1.50952902 5.64543656,1.3630075 8.29439639,1.1986175 C10.9433562,1.0378012 13.5846711,0.909148158 16.2259861,0.973474679 C18.8787684,1.07711185 21.500971,0.712594901 24.1117063,0.31591469 C26.733909,0.0979192592 29.3828688,0.13008252 32.0929879,0.52676273 L32.2802881,2.10633618 C29.7039548,2.93185986 27.0473501,3.33211377 24.3716331,3.41788246 C21.6768038,3.32139268 18.9934419,3.17844486 16.3291923,3.43575094 C13.6572978,3.63945159 10.9815808,3.58584616 8.31733111,3.46434051 C5.64925902,3.32854007 2.98883183,3.18201855 0.332227092,2.96759682 L0.332227092,1.72395075 Z" id="Fill-40" fill="#C8D4E5" mask="url(#mask-6)"></path>
                    </g>
                    <path d="M7.8761175,1.73329621 C10.4958359,1.49231079 13.1155544,1.33165384 15.727734,1.14288192 C18.3399137,0.962142857 20.9445546,0.817551604 23.5491955,0.88984723 C26.1651446,1.01033994 28.7509386,0.596648299 31.3254245,0.150825267 C33.9112185,-0.0941765793 36.5233982,-0.0580287659 39.1958879,0.387794266 L39.3805875,2.16305355 C36.840026,3.09084743 34.2203076,3.54068688 31.5817423,3.63708105 C28.92433,3.52863761 26.278226,3.36798066 23.6509688,3.65716317 C21.0161728,3.88609932 18.3776075,3.82986939 15.7503503,3.68929456 C13.1193237,3.53667046 10.4958359,3.37199709 7.8761175,3.13101166 L7.8761175,1.73329621 Z" id="Fill-43" fill="#C8D4E5"></path>
                </g>
                <g id="Group-110" transform="translate(138.394636, 96.004464)">
                    <path d="M0.793075664,29.9926647 C0.793075664,29.9926647 1.11634716,21.6946941 1.30036325,17.9206172 C1.69326246,9.75761358 7.72103258,3.21921268 15.6088572,3.12423591 C143.410515,1.59461001 404.678541,-3.06425058 544.749595,3.12423591 C552.642393,3.47415033 558.660217,9.75761358 559.058089,17.9206172 C559.237132,21.6796978 559.560403,29.9576732 559.560403,29.9576732 L0.793075664,29.9926647 Z" id="Fill-46" fill="#225E9F"></path>
                    <path d="M469.828192,373.741594 C469.828192,373.741594 192.834251,376.360953 90.5262813,373.741594 C84.8715168,373.601628 80.2711147,369.777563 80.2711147,364.888759 C80.2711147,364.888759 76.8543836,199.689162 80.2711147,140.693591 C80.5545989,135.804786 84.8764902,131.895742 90.5262813,131.835757 C182.141424,130.920981 369.420065,128.131663 469.828192,131.835757 C475.482957,132.045706 479.799875,135.804786 480.083359,140.693591 C483.50009,199.689162 480.083359,364.888759 480.083359,364.888759 C480.083359,369.777563 475.492904,373.741594 469.828192,373.741594" id="Fill-48" fill="#FFFFFF"></path>
                    <path d="M143.715385,374.566392 C143.715385,374.566392 105.136661,374.116502 90.5297627,373.741594 C84.8700247,373.601628 80.274596,369.777563 80.274596,364.888759 C80.274596,364.888759 76.857865,199.689162 80.274596,140.693591 C80.5580803,135.804786 84.8749982,131.895742 90.5297627,131.835757 C105.783204,131.685794 143.407033,131.260898 143.407033,131.260898 L143.715385,374.566392 Z" id="Fill-50" fill="#D6E3F2"></path>
                    <path d="M79.9861384,146.243733 C79.9861384,146.243733 80.1701545,142.449661 80.274596,140.69509 C80.5580803,135.806286 84.8749982,131.897242 90.5297627,131.837257 C182.139932,130.92248 369.418573,128.133162 469.8267,131.837257 C475.481465,132.047205 479.798383,135.806286 480.081867,140.69509 C480.166415,142.149734 480.325564,145.253975 480.325564,145.253975 L79.9861384,146.243733 Z" id="Fill-52" fill="#4BDF75"></path>
                    <path d="M407.985857,144.964546 L408.761709,202.450487 C408.950698,221.610801 409.154608,240.776113 408.950698,259.936427 C408.721921,279.096741 409.089954,298.262054 409.453012,317.422368 C409.542534,336.582682 409.229209,355.747995 408.259395,374.908309 L405.74285,374.908309 C404.773036,355.747995 404.459711,336.582682 404.544259,317.422368 C404.912291,298.262054 405.27535,279.096741 405.051547,259.936427 C404.842663,240.776113 405.051547,221.610801 405.240536,202.450487 L406.016388,144.964546 L407.985857,144.964546 Z" id="Fill-54" fill="#C8D4E5"></path>
                    <path d="M558.252008,374.336948 C570.628764,374.336948 151.580277,378.455941 8.85342326,374.336948 C0.960625252,374.107005 1.30086059,368.103473 1.30086059,360.415353 L0.99748272,342.459745 L559.381858,341.175059 L559.058587,360.415353 C559.058587,368.103473 561.654115,374.336948 553.75137,374.336948 L558.252008,374.336948 Z" id="Fill-56" fill="#FFFFFF"></path>
                    <path d="M1.66740074,341.425498 L140.922816,340.645688 C187.344604,340.455735 233.761418,340.250785 280.178232,340.455735 C303.389125,340.440738 326.600019,340.645688 349.805939,340.445737 L419.433647,340.035837 C442.644541,339.82089 465.855434,340.050834 489.061355,340.265781 C512.272248,340.43574 535.478169,340.610697 558.689062,341.150565 L558.689062,343.679946 C535.478169,344.219814 512.272248,344.394771 489.061355,344.56473 C465.855434,344.779677 442.644541,345.01462 419.433647,344.799672 L349.805939,344.389773 C326.600019,344.184823 303.389125,344.394771 280.178232,344.374776 C233.761418,344.584725 187.344604,344.374776 140.922816,344.184823 L1.66740074,343.405013 L1.66740074,341.425498 Z" id="Fill-58" fill="#C8D4E5"></path>
                    <path d="M461.707612,174.957211 C461.707612,185.99951 452.800239,194.95232 441.813982,194.95232 C431.867166,194.95232 421.920351,184.954766 421.920351,174.957211 C421.920351,159.960878 430.827724,154.962101 441.813982,154.962101 C452.800239,154.962101 461.707612,164.959656 461.707612,174.957211" id="Fill-60" fill="#D6E3F2"></path>
                    <path d="M429.380462,206.458506 C431.867166,206.11859 434.35387,205.883647 436.840574,205.643706 C439.327278,205.418761 441.813982,205.278795 444.300685,205.488744 C446.787389,205.778673 449.274093,205.363774 451.760797,204.97387 C454.247501,204.868895 456.734205,205.213811 459.220909,206.183574 L459.220909,208.712955 C456.734205,209.687717 454.247501,210.027634 451.760797,209.91766 C449.274093,209.527756 446.787389,209.117856 444.300685,209.407785 C441.813982,209.622733 439.327278,209.477768 436.840574,209.252823 C434.35387,209.012882 431.867166,208.777939 429.380462,208.438022 L429.380462,206.458506 Z" id="Fill-62" fill="#C8D4E5"></path>
                    <path d="M419.433647,221.454839 C423.576496,221.114922 427.724318,220.879979 431.867166,220.640038 C436.010015,220.415093 440.157837,220.275127 444.300685,220.485076 C448.443534,220.775005 452.591356,220.360106 456.734205,219.970202 C460.877053,219.865228 465.024875,220.210143 469.167724,221.179906 L469.167724,223.709287 C465.024875,224.684049 460.877053,225.023966 456.734205,224.913993 C452.591356,224.524088 448.443534,224.114188 444.300685,224.404117 C440.157837,224.619065 436.010015,224.4741 431.867166,224.249155 C427.724318,224.009214 423.576496,223.774271 419.433647,223.434355 L419.433647,221.454839 Z" id="Fill-64" fill="#C8D4E5"></path>
                    <path d="M419.433647,236.451171 C423.576496,236.111254 427.724318,235.876312 431.867166,235.63637 C436.010015,235.411425 440.157837,235.27146 444.300685,235.481408 C448.443534,235.771337 452.591356,235.356439 456.734205,234.966534 C460.877053,234.86156 465.024875,235.206476 469.167724,236.176238 L469.167724,238.70562 C465.024875,239.680381 460.877053,240.020298 456.734205,239.910325 C452.591356,239.52042 448.443534,239.110521 444.300685,239.40045 C440.157837,239.615397 436.010015,239.470433 431.867166,239.245488 C427.724318,239.005546 423.576496,238.770604 419.433647,238.430687 L419.433647,236.451171 Z" id="Fill-66" fill="#C8D4E5"></path>
                    <path d="M419.433647,251.447503 C423.576496,251.107587 427.724318,250.872644 431.867166,250.632703 C436.010015,250.407758 440.157837,250.267792 444.300685,250.477741 C448.443534,250.76767 452.591356,250.352771 456.734205,249.962867 C460.877053,249.857892 465.024875,250.202808 469.167724,251.172571 L469.167724,253.701952 C465.024875,254.676714 460.877053,255.016631 456.734205,254.906657 C452.591356,254.516753 448.443534,254.106853 444.300685,254.396782 C440.157837,254.61173 436.010015,254.466765 431.867166,254.24182 C427.724318,254.001879 423.576496,253.766936 419.433647,253.427019 L419.433647,251.447503 Z" id="Fill-68" fill="#C8D4E5"></path>
                    <path d="M111.096793,369.816554 C111.096793,369.816554 52.9626303,370.026503 31.4924293,369.816554 C30.3037849,369.801558 29.3389438,369.491633 29.3389438,369.086732 C29.3389438,369.086732 28.6227731,355.60503 29.3389438,350.786208 C29.3986247,350.391305 30.3037849,350.071383 31.4924293,350.066384 C50.7196235,349.991403 90.0244645,349.761459 111.096793,350.066384 C112.285437,350.086379 113.190598,350.391305 113.250278,350.786208 C113.966449,355.60503 113.250278,369.086732 113.250278,369.086732 C113.250278,369.491633 112.285437,369.816554 111.096793,369.816554" id="Fill-70" fill="#C8D4E5"></path>
                    <path d="M205.591539,369.816554 C205.591539,369.816554 147.457377,370.026503 125.987176,369.816554 C124.798531,369.801558 123.83369,369.491633 123.83369,369.086732 C123.83369,369.086732 123.117519,355.60503 123.83369,350.786208 C123.893371,350.391305 124.798531,350.071383 125.987176,350.066384 C145.21437,349.991403 184.519211,349.761459 205.591539,350.066384 C206.780183,350.086379 207.685344,350.391305 207.745025,350.786208 C208.461195,355.60503 207.745025,369.086732 207.745025,369.086732 C207.745025,369.491633 206.780183,369.816554 205.591539,369.816554" id="Fill-72" fill="#4BDF75"></path>
                    <path d="M300.086285,369.816554 C300.086285,369.816554 241.952123,370.026503 220.481922,369.816554 C219.293277,369.801558 218.328436,369.491633 218.328436,369.086732 C218.328436,369.086732 217.612265,355.60503 218.328436,350.786208 C218.388117,350.391305 219.293277,350.071383 220.481922,350.066384 C239.709116,349.991403 279.013957,349.761459 300.086285,350.066384 C301.27493,350.086379 302.18009,350.391305 302.239771,350.786208 C302.955941,355.60503 302.239771,369.086732 302.239771,369.086732 C302.239771,369.491633 301.27493,369.816554 300.086285,369.816554" id="Fill-74" fill="#FFED72"></path>
                    <path d="M86.2153315,161.469509 C88.9109185,161.129593 91.6015321,160.899649 94.297119,160.659707 C96.992706,160.429764 99.6833196,160.289798 102.378907,160.499747 C105.074493,160.789676 107.765107,160.374777 110.460694,159.984872 C113.156281,159.879898 115.846895,160.224814 118.542482,161.194577 L118.542482,163.723958 C115.846895,164.69872 113.156281,165.038636 110.460694,164.928663 C107.765107,164.538759 105.074493,164.128859 102.378907,164.418788 C99.6833196,164.633736 96.992706,164.488771 94.297119,164.263826 C91.6015321,164.023885 88.9109185,163.788942 86.2153315,163.449025 L86.2153315,161.469509 Z" id="Fill-76" fill="#B0BED2"></path>
                    <path d="M86.2153315,176.465842 C90.3581801,176.125925 94.5060022,175.890982 98.6488508,175.651041 C102.791699,175.426096 106.939521,175.28613 111.08237,175.496079 C115.225219,175.786008 119.373041,175.371109 123.515889,174.981205 C127.658738,174.87623 131.80656,175.221146 135.949408,176.190909 L135.949408,178.72029 C131.80656,179.695052 127.658738,180.034969 123.515889,179.924996 C119.373041,179.535091 115.225219,179.125191 111.08237,179.41512 C106.939521,179.630068 102.791699,179.485103 98.6488508,179.260158 C94.5060022,179.020217 90.3581801,178.785274 86.2153315,178.445358 L86.2153315,176.465842 Z" id="Fill-78" fill="#B0BED2"></path>
                    <path d="M86.2153315,191.462174 C90.3581801,191.122257 94.5060022,190.887315 98.6488508,190.647373 C102.791699,190.422428 106.939521,190.282463 111.08237,190.492411 C115.225219,190.78234 119.373041,190.367442 123.515889,189.977537 C127.658738,189.872563 131.80656,190.217478 135.949408,191.187241 L135.949408,193.716623 C131.80656,194.691384 127.658738,195.031301 123.515889,194.921328 C119.373041,194.531423 115.225219,194.121524 111.08237,194.411453 C106.939521,194.6264 102.791699,194.481436 98.6488508,194.256491 C94.5060022,194.016549 90.3581801,193.781607 86.2153315,193.44169 L86.2153315,191.462174 Z" id="Fill-80" fill="#B0BED2"></path>
                    <path d="M86.2153315,226.453616 C88.9109185,226.113699 91.6015321,225.883756 94.297119,225.643814 C96.992706,225.41387 99.6833196,225.273905 102.378907,225.483853 C105.074493,225.773782 107.765107,225.358884 110.460694,224.968979 C113.156281,224.864005 115.846895,225.208921 118.542482,226.178683 L118.542482,228.708065 C115.846895,229.682826 113.156281,230.022743 110.460694,229.91277 C107.765107,229.522866 105.074493,229.112966 102.378907,229.402895 C99.6833196,229.617842 96.992706,229.472878 94.297119,229.247933 C91.6015321,229.007991 88.9109185,228.773049 86.2153315,228.433132 L86.2153315,226.453616 Z" id="Fill-82" fill="#B0BED2"></path>
                    <path d="M86.2153315,241.449949 C90.3581801,241.110032 94.5060022,240.875089 98.6488508,240.635148 C102.791699,240.410203 106.939521,240.270237 111.08237,240.480186 C115.225219,240.770115 119.373041,240.355216 123.515889,239.965312 C127.658738,239.860337 131.80656,240.205253 135.949408,241.175016 L135.949408,243.704397 C131.80656,244.679159 127.658738,245.019076 123.515889,244.909103 C119.373041,244.519198 115.225219,244.109298 111.08237,244.399227 C106.939521,244.614175 102.791699,244.46921 98.6488508,244.244265 C94.5060022,244.004324 90.3581801,243.769381 86.2153315,243.429464 L86.2153315,241.449949 Z" id="Fill-84" fill="#B0BED2"></path>
                    <path d="M86.2153315,256.446281 C90.3581801,256.106364 94.5060022,255.871421 98.6488508,255.63148 C102.791699,255.406535 106.939521,255.266569 111.08237,255.476518 C115.225219,255.766447 119.373041,255.351549 123.515889,254.961644 C127.658738,254.85667 131.80656,255.201585 135.949408,256.171348 L135.949408,258.70073 C131.80656,259.675491 127.658738,260.015408 123.515889,259.905435 C119.373041,259.51553 115.225219,259.10563 111.08237,259.39556 C106.939521,259.610507 102.791699,259.465542 98.6488508,259.240597 C94.5060022,259.000656 90.3581801,258.765714 86.2153315,258.425797 L86.2153315,256.446281 Z" id="Fill-86" fill="#B0BED2"></path>
                    <path d="M86.2153315,286.438946 C88.9109185,286.099029 91.6015321,285.869085 94.297119,285.629144 C96.992706,285.3992 99.6833196,285.259234 102.378907,285.469183 C105.074493,285.759112 107.765107,285.344213 110.460694,284.954309 C113.156281,284.849334 115.846895,285.19425 118.542482,286.164013 L118.542482,288.693394 C115.846895,289.668156 113.156281,290.008073 110.460694,289.8981 C107.765107,289.508195 105.074493,289.098295 102.378907,289.388224 C99.6833196,289.603172 96.992706,289.458207 94.297119,289.233262 C91.6015321,288.993321 88.9109185,288.758378 86.2153315,288.418461 L86.2153315,286.438946 Z" id="Fill-88" fill="#B0BED2"></path>
                    <path d="M86.2153315,301.435278 C90.3581801,301.095361 94.5060022,300.860419 98.6488508,300.620477 C102.791699,300.395532 106.939521,300.255566 111.08237,300.465515 C115.225219,300.755444 119.373041,300.340546 123.515889,299.950641 C127.658738,299.845667 131.80656,300.190582 135.949408,301.160345 L135.949408,303.689727 C131.80656,304.664488 127.658738,305.004405 123.515889,304.894432 C119.373041,304.504527 115.225219,304.094628 111.08237,304.384557 C106.939521,304.599504 102.791699,304.45454 98.6488508,304.229595 C94.5060022,303.989653 90.3581801,303.754711 86.2153315,303.414794 L86.2153315,301.435278 Z" id="Fill-90" fill="#B0BED2"></path>
                    <path d="M86.2153315,316.43161 C90.3581801,316.091693 94.5060022,315.856751 98.6488508,315.61681 C102.791699,315.391865 106.939521,315.251899 111.08237,315.461847 C115.225219,315.751777 119.373041,315.336878 123.515889,314.946973 C127.658738,314.841999 131.80656,315.186915 135.949408,316.156678 L135.949408,318.686059 C131.80656,319.660821 127.658738,320.000737 123.515889,319.890764 C119.373041,319.50086 115.225219,319.09096 111.08237,319.380889 C106.939521,319.595836 102.791699,319.450872 98.6488508,319.225927 C94.5060022,318.985986 90.3581801,318.751043 86.2153315,318.411126 L86.2153315,316.43161 Z" id="Fill-92" fill="#B0BED2"></path>
                    <path d="M173.249966,169.958433 C173.249966,175.477084 168.793793,179.955988 163.303151,179.955988 C158.329743,179.955988 153.356335,174.957211 153.356335,169.958433 C153.356335,162.460267 157.812509,159.960878 163.303151,159.960878 C168.793793,159.960878 173.249966,164.959656 173.249966,169.958433" id="Fill-94" fill="#D6E3F2"></path>
                    <path d="M313.551787,179.955988 L187.12279,179.955988 C183.198771,179.955988 178.225363,175.951967 178.225363,171.008177 L178.225363,168.90869 C178.225363,164.959656 182.209063,159.960878 187.12279,159.960878 L313.551787,159.960878 C317.480779,159.960878 322.454186,164.959656 322.454186,168.90869 L322.454186,171.008177 C322.454186,175.951967 318.465513,179.955988 313.551787,179.955988" id="Fill-96" fill="#D6E3F2"></path>
                    <path d="M261.7249,219.946208 L388.153897,219.946208 C392.077915,219.946208 397.051323,215.942187 397.051323,210.998396 L397.051323,203.900132 C397.051323,199.951098 393.067623,194.95232 388.153897,194.95232 L261.7249,194.95232 C257.795908,194.95232 252.8225,199.951098 252.8225,203.900132 L252.8225,210.998396 C252.8225,215.942187 256.811173,219.946208 261.7249,219.946208" id="Fill-98" fill="#4BDF75"></path>
                    <path d="M173.249966,239.941318 C173.249966,245.459968 168.793793,249.938872 163.303151,249.938872 C158.329743,249.938872 153.356335,244.940095 153.356335,239.941318 C153.356335,232.443151 157.812509,229.943763 163.303151,229.943763 C168.793793,229.943763 173.249966,234.94254 173.249966,239.941318" id="Fill-100" fill="#D6E3F2"></path>
                    <path d="M313.551787,249.938872 L187.12279,249.938872 C183.198771,249.938872 178.225363,245.934852 178.225363,240.991061 L178.225363,238.891574 C178.225363,234.94254 182.209063,229.943763 187.12279,229.943763 L313.551787,229.943763 C317.480779,229.943763 322.454186,234.94254 322.454186,238.891574 L322.454186,240.991061 C322.454186,245.934852 318.465513,249.938872 313.551787,249.938872" id="Fill-102" fill="#D6E3F2"></path>
                    <path d="M253.870894,274.93276 L187.12279,274.93276 C183.198771,274.93276 178.225363,270.928739 178.225363,265.984948 L178.225363,263.885461 C178.225363,259.936427 182.209063,254.93765 187.12279,254.93765 L253.870894,254.93765 C257.799886,254.93765 262.773294,259.936427 262.773294,263.885461 L262.773294,265.984948 C262.773294,270.928739 258.784621,274.93276 253.870894,274.93276" id="Fill-104" fill="#D6E3F2"></path>
                    <path d="M389.930895,329.753352 C389.930895,329.753352 222.366843,330.12826 160.477758,329.753352 C157.056053,329.733357 154.275918,329.18849 154.275918,328.488661 C154.275918,328.488661 152.206981,304.884434 154.275918,296.461494 C154.445014,295.761666 157.056053,295.201802 160.477758,295.196804 C215.89644,295.066835 329.190667,294.661934 389.930895,295.196804 C393.3526,295.226796 395.963639,295.761666 396.137708,296.461494 C398.201672,304.884434 396.137708,328.488661 396.137708,328.488661 C396.137708,329.18849 393.357573,329.753352 389.930895,329.753352" id="Fill-106" fill="#D6E3F2"></path>
                    <path d="M29.0211431,17.4957211 C29.0211431,21.6347088 25.6839865,24.9938872 21.5610315,24.9938872 C17.8309757,24.9938872 14.10092,21.2448042 14.10092,17.4957211 C14.10092,11.8720964 17.4380765,9.9975549 21.5610315,9.9975549 C25.6839865,9.9975549 29.0211431,13.746638 29.0211431,17.4957211" id="Fill-108" fill="#4BDF75"></path>
                </g>
            </g>
            <path d="M237.226232,541.266232 L456.253092,540.486646 L675.279952,540.296747 L784.793382,540.286752 L894.306812,539.87697 C930.809629,539.662084 967.317425,539.891962 1003.82024,540.106848 C1040.32306,540.276758 1076.83085,540.451665 1113.33367,540.991378 L1113.33367,543.520034 C1076.83085,544.059748 1040.32306,544.234655 1003.82024,544.404564 C967.317425,544.61945 930.809629,544.854325 894.306812,544.639439 L784.793382,544.229657 L675.279952,544.214665 L456.253092,544.024766 L237.226232,543.24518 L237.226232,541.266232 Z" id="Fill-26" fill="#D6E3F2"></path>
        </g>
    </g>
</svg>