<?xml version="1.0" encoding="UTF-8"?>
<svg width="800px" height="132px" viewBox="0 0 800 132" version="1.1" xmlns="http://www.w3.org/2000/svg" xmlns:xlink="http://www.w3.org/1999/xlink">
    <!-- Generator: Sketch 47.1 (45422) - http://www.bohemiancoding.com/sketch -->
    <title>Kozuka</title>
    <desc>Created with Sketch.</desc>
    <defs></defs>
    <g id="Page-1" stroke="none" stroke-width="1" fill="none" fill-rule="evenodd">
        <g id="Kozuka" fill="#34393F">
            <path d="M99.675,45.575 C102.375,42.275 103.425,41.9 106.425,41.9 L106.425,39.5 L92.625,39.5 L92.625,41.9 C94.95,41.9 96,42.2 96,43.1 C96,44.075 94.875,45.65 92.925,48.2 L78.075,67.325 L77.85,67.325 L77.85,47.75 C77.85,42.425 78.225,41.9 83.1,41.9 L83.1,39.5 L65.625,39.5 L65.625,41.9 C71.1,41.9 71.55,42.35 71.55,47.75 L71.55,86.75 C71.55,92.15 71.1,92.6 65.625,92.6 L65.625,95 L83.4,95 L83.4,92.6 C78.225,92.6 77.85,92.15 77.85,86.675 L77.85,72.725 L83.325,65.75 L99.525,95 L109.575,95 L109.575,92.6 C106.125,92.6 105.075,92.075 102,86.9 L87.45,61.025 L99.675,45.575 Z M130.65,95.9 C119.025,95.9 113.1,89.075 113.1,76.025 C113.1,65.9 117.6,56.45 130.65,56.45 C142.2,56.45 148.125,63.95 148.125,76.025 C148.125,86.825 144.3,95.9 130.65,95.9 Z M130.575,59.075 C122.85,59.075 119.25,65 119.25,76.1 C119.25,91.175 125.925,93.35 130.575,93.35 C139.875,93.35 141.9,84.35 141.9,76.1 C141.9,65.15 138.375,59.075 130.575,59.075 Z M156.75,67.175 C158.025,61.325 158.475,60.05 162.825,60.05 L176.025,60.05 L152.85,93.725 L153.75,95 L182.1,95 L183.9,84.725 L181.425,84.725 C179.925,91.175 179.1,92.375 175.05,92.375 L160.575,92.375 L183.45,58.55 L182.55,57.425 L156,57.425 L154.275,67.175 L156.75,67.175 Z M221.475,56.9 L220.575,56.45 C217.575,58.4 214.575,59.375 211.2,59.975 L211.2,61.775 C215.325,61.775 215.55,62.075 215.55,66.8 L215.55,86.375 C212.625,90.35 209.175,92.675 205.2,92.675 C198.675,92.675 197.55,87.425 197.55,81.5 L197.55,56.9 L196.65,56.45 C193.65,58.4 190.575,59.375 187.275,59.975 L187.275,61.775 C191.4,61.775 191.625,62.15 191.625,66.8 L191.625,82.1 C191.625,93.8 197.4,95.9 203.475,95.9 C208.875,95.9 212.925,93.2 215.475,90.125 L215.7,90.125 L216.075,95.6 L216.6,95.9 C220.05,94.85 223.8,94.85 226.35,94.85 L226.35,93.05 C221.775,93.05 221.475,92.45 221.475,87.5 L221.475,56.9 Z M241.575,37.625 L240.75,37.1 C237.675,39.05 234.75,40.025 230.85,40.625 L230.85,42.425 C235.275,42.425 235.725,43.025 235.725,47.825 L235.725,87.35 C235.725,92.225 235.5,92.9 230.85,92.9 L230.85,95 L246.225,95 L246.225,92.9 C241.8,92.9 241.575,92.3 241.575,87.425 L241.575,78.65 L246,74.075 L259.05,95 L268.575,95 L268.575,92.975 C266.1,92.975 264.3,92.675 262.5,89.675 L250.2,70.4 L258.675,62 C260.55,60.125 261.9,59.525 264.225,59.525 L264.225,57.425 L252.075,57.425 L252.075,59.525 C254.1,59.525 254.925,59.825 254.925,60.5 C254.925,61.025 254.325,61.85 253.275,62.825 L241.725,74.45 L241.575,74.45 L241.575,37.625 Z M295.275,70.925 L295.275,67.475 C295.275,62 293.175,59.075 287.625,59.075 C283.125,59.075 280.65,61.25 279.075,65.075 C278.625,66.35 277.875,67.1 276.15,67.1 C274.5,67.1 273.75,65.975 273.75,64.7 C273.75,61.325 278.775,56.45 288,56.45 C295.575,56.45 301.125,59 301.125,68.225 L301.125,87.5 C301.125,91.25 301.95,93.05 303.675,93.05 C304.575,93.05 305.325,92.825 305.925,92.45 L306.525,94.4 C305.1,95.075 303.6,95.45 301.35,95.45 C298.275,95.45 296.55,94.025 295.725,91.175 L295.5,91.175 C292.575,93.95 289.05,95.9 283.425,95.9 C277.65,95.9 272.1,92.825 272.1,86.225 C272.1,82.4 273.525,79.325 277.35,76.925 C280.35,74.975 284.55,73.4 290.175,72.2 L295.275,70.925 Z M295.275,88.325 L295.275,73.55 C282.45,76.925 278.25,80.375 278.25,85.475 C278.25,90.125 281.1,92.675 285.9,92.675 C290.1,92.675 293.1,90.5 295.275,88.325 Z M362.25,86.225 L362.025,86.225 L342.525,39.5 L330.6,39.5 L330.6,41.9 C336.075,41.9 336.45,42.275 336.45,47.525 L336.45,86.75 C336.45,92.15 336.075,92.6 330.6,92.6 L330.6,95 L345.225,95 L345.225,92.6 C340.05,92.6 339.75,92.15 339.75,86.75 L339.75,47.375 L339.9,47.375 L359.7,95.375 L362.025,95.375 L381.075,47.525 L381.225,47.525 L381.225,86.75 C381.225,92.15 380.925,92.6 375.6,92.6 L375.6,95 L393.45,95 L393.45,92.6 C387.9,92.6 387.45,92.15 387.45,86.75 L387.45,47.75 C387.45,42.35 387.825,41.9 393.45,41.9 L393.45,39.5 L380.925,39.5 L362.25,86.225 Z M406.425,42.425 C404.4,42.425 402.75,44.15 402.75,47.15 C402.75,50.15 404.4,51.875 406.425,51.875 C408.525,51.875 410.25,50.15 410.25,47.15 C410.25,44.375 408.75,42.425 406.425,42.425 Z M409.125,56.45 C405.6,58.4 402.825,59.375 398.475,59.975 L398.475,61.775 C403.725,61.775 404.025,61.85 404.025,66.875 L404.025,87.35 C404.025,92.3 403.65,92.9 398.475,92.9 L398.475,95 L415.05,95 L415.05,92.9 C410.175,92.9 409.875,92.3 409.875,87.425 L409.875,56.9 L409.125,56.45 Z M429.75,63.425 L429.45,56.975 L428.55,56.45 C425.775,58.4 422.925,59.3 419.1,59.975 L419.1,61.775 C423.6,61.7 424.05,62.225 424.05,67.1 L424.05,87.35 C424.05,92.45 423.675,92.9 419.1,92.9 L419.1,95 L434.1,95 L434.1,92.9 C430.05,92.9 429.9,92.375 429.9,87.425 L429.9,67.25 C433.425,62.6 437.4,59.525 441.075,59.525 C446.1,59.525 448.425,62 448.425,68.975 L448.425,87.35 C448.425,92.375 448.125,92.9 444.075,92.9 L444.075,95 L458.475,95 L458.475,92.9 C454.65,92.9 454.275,92.225 454.275,87.5 L454.275,68.75 C454.275,61.175 451.125,56.45 442.725,56.45 C437.85,56.45 433.5,59.075 429.9,63.425 L429.75,63.425 Z M491.7,86.525 C489,90.575 486.075,93.05 481.05,93.05 C474.825,93.05 469.35,88.25 469.35,76.025 C469.35,64.55 474.825,59.075 480.45,59.075 C483.825,59.075 485.625,60.575 486.75,62.75 C488.1,65.45 488.85,66.95 490.65,66.95 C492.075,66.95 492.825,65.9 492.825,64.25 C492.825,60.575 487.875,56.45 480.375,56.45 C469.8,56.45 463.125,64.7 463.125,75.95 C463.125,86.3 467.925,95.9 480,95.9 C488.025,95.9 491.775,91.025 493.8,87.8 L491.7,86.525 Z M498.375,95 L513.375,95 L513.375,92.9 C509.55,92.9 509.175,92.375 509.175,87.425 L509.175,67.25 C512.85,62.675 516.675,59.525 520.5,59.525 C527.325,59.525 527.7,64.85 527.7,70.475 L527.7,87.35 C527.7,92.375 527.325,92.9 523.2,92.9 L523.2,95 L537.975,95 L537.975,92.9 C533.925,92.9 533.55,92.3 533.55,87.425 L533.55,70.25 C533.55,65.9 533.55,56.45 522.45,56.45 C517.275,56.45 512.85,59.075 509.325,63.2 L509.175,63.2 L509.175,37.625 L508.35,37.1 C505.275,39.05 502.425,39.95 498.45,40.625 L498.45,42.425 C502.8,42.425 503.325,42.875 503.325,47.375 L503.325,87.35 C503.325,92.375 502.95,92.9 498.375,92.9 L498.375,95 Z M560.025,95.9 C548.4,95.9 542.475,89.075 542.475,76.025 C542.475,65.9 546.975,56.45 560.025,56.45 C571.575,56.45 577.5,63.95 577.5,76.025 C577.5,86.825 573.675,95.9 560.025,95.9 Z M559.95,59.075 C552.225,59.075 548.625,65 548.625,76.1 C548.625,91.175 555.3,93.35 559.95,93.35 C569.25,93.35 571.275,84.35 571.275,76.1 C571.275,65.15 567.75,59.075 559.95,59.075 Z M604.125,95 L604.125,92.6 C609.6,92.6 610.05,92.15 610.05,86.75 L610.05,47.75 C610.05,42.35 609.6,41.9 604.125,41.9 L604.125,39.5 L623.175,39.5 C631.5,39.5 635.775,40.775 638.85,43.25 C641.925,45.725 643.8,49.55 643.8,54.5 C643.8,69.125 630.225,70.025 622.425,70.025 L616.35,70.025 L616.35,86.75 C616.35,92.15 616.65,92.6 623.325,92.6 L623.325,95 L604.125,95 Z M616.35,67.025 L622.425,67.025 C629.925,67.025 637.35,65.075 637.35,54.425 C637.35,50.6 636,47.45 633.825,45.425 C631.35,43.325 627.6,42.5 622.275,42.5 L618.15,42.5 C616.575,42.5 616.35,43.25 616.35,47 L616.35,67.025 Z M659.625,56.975 L658.875,56.45 C655.875,58.475 653.1,59.375 649.35,59.975 L649.35,61.775 C653.775,61.775 654.225,62.225 654.225,66.95 L654.225,87.35 C654.225,92.375 653.85,92.9 649.35,92.9 L649.35,95 L665.925,95 L665.925,92.9 C660.45,92.9 660.075,92.3 660.075,87.425 L660.075,66.575 C663.075,62.45 665.775,59.6 668.475,59.6 C669.9,59.6 670.5,60.35 671.25,62.3 C671.925,64.025 672.9,64.775 674.1,64.775 C675.6,64.775 676.575,63.725 676.575,61.85 C676.575,59.525 674.25,56.45 670.125,56.45 C666.3,56.45 663.6,58.4 660.075,62.825 L659.925,62.825 L659.625,56.975 Z M698.25,95.9 C686.625,95.9 680.7,89.075 680.7,76.025 C680.7,65.9 685.2,56.45 698.25,56.45 C709.8,56.45 715.725,63.95 715.725,76.025 C715.725,86.825 711.9,95.9 698.25,95.9 Z M698.175,59.075 C690.45,59.075 686.85,65 686.85,76.1 C686.85,91.175 693.525,93.35 698.175,93.35 C707.475,93.35 709.5,84.35 709.5,76.1 C709.5,65.15 705.975,59.075 698.175,59.075 Z" id="Kozuka-Mincho-Pro"></path>
        </g>
    </g>
</svg>