<?xml version="1.0" encoding="UTF-8"?>
<svg width="800px" height="228px" viewBox="0 0 800 228" version="1.1" xmlns="http://www.w3.org/2000/svg" xmlns:xlink="http://www.w3.org/1999/xlink">
    <!-- Generator: Sketch 47.1 (45422) - http://www.bohemiancoding.com/sketch -->
    <title>line-spacing</title>
    <desc>Created with Sketch.</desc>
    <defs></defs>
    <g id="Page-1" stroke="none" stroke-width="1" fill="none" fill-rule="evenodd">
        <g id="line-spacing">
            <rect id="Rectangle" fill="#0099FF" opacity="0.7" x="247" y="67" width="307" height="29"></rect>
            <rect id="Rectangle" fill="#0099FF" opacity="0.7" x="247" y="123" width="307" height="29"></rect>
            <path d="M274.12,67 L281.76,40.32 L278.04,40.32 L272.16,62.56 L266.04,40.32 L263.28,40.32 L257.16,62.56 L251.24,40.32 L247.56,40.32 L255.16,67 L258.76,67 L264.64,45.48 L270.52,67 L274.12,67 Z M292.48,67.48 C286.72,67.48 282.6,63.36 282.6,57.32 C282.6,51.72 286.6,47.2 292.12,47.2 C297.96,47.2 301.4,51.76 301.4,57.56 L301.4,58.32 L285.8,58.32 C286.04,61.96 288.56,65 292.72,65 C294.96,65 297.16,64.12 298.72,62.52 L300.16,64.48 C298.2,66.4 295.6,67.48 292.48,67.48 Z M298.44,56.08 C298.4,53.24 296.48,49.68 292.08,49.68 C287.96,49.68 285.92,53.16 285.76,56.08 L298.44,56.08 Z M332.64,67 L332.64,47.68 L329.64,47.68 L329.64,61.88 C328.52,63.44 326.28,64.8 323.96,64.8 C321.32,64.8 319.6,63.8 319.6,60.4 L319.6,47.68 L316.6,47.68 L316.6,61.32 C316.6,65.48 318.72,67.48 322.76,67.48 C325.64,67.48 328.16,65.96 329.64,64.28 L329.64,67 L332.64,67 Z M344.8,67.48 C349.76,67.48 352.36,64.88 352.36,61.64 C352.36,54.12 340.4,56.88 340.4,52.68 C340.4,50.96 342.04,49.64 344.68,49.64 C347.2,49.64 349.28,50.68 350.44,52.08 L351.84,50 C350.32,48.44 348,47.2 344.68,47.2 C340.08,47.2 337.52,49.72 337.52,52.76 C337.52,59.92 349.48,57.04 349.48,61.72 C349.48,63.64 347.84,65.04 344.88,65.04 C342.24,65.04 339.8,63.76 338.52,62.28 L337,64.44 C338.96,66.48 341.6,67.48 344.8,67.48 Z M366,67.48 C360.24,67.48 356.12,63.36 356.12,57.32 C356.12,51.72 360.12,47.2 365.64,47.2 C371.48,47.2 374.92,51.76 374.92,57.56 L374.92,58.32 L359.32,58.32 C359.56,61.96 362.08,65 366.24,65 C368.48,65 370.68,64.12 372.24,62.52 L373.68,64.48 C371.72,66.4 369.12,67.48 366,67.48 Z M371.96,56.08 C371.92,53.24 370,49.68 365.6,49.68 C361.48,49.68 359.44,53.16 359.28,56.08 L371.96,56.08 Z M405.2,67 L402.2,67 L402.2,64.8 C400.64,66.56 398.4,67.48 395.8,67.48 C392.56,67.48 389.08,65.28 389.08,61.08 C389.08,56.72 392.52,54.72 395.8,54.72 C398.44,54.72 400.64,55.56 402.2,57.32 L402.2,53.84 C402.2,51.28 400.12,49.8 397.32,49.8 C395,49.8 393.12,50.6 391.4,52.48 L390,50.4 C392.08,48.24 394.56,47.2 397.72,47.2 C401.84,47.2 405.2,49.04 405.2,53.72 L405.2,67 Z M396.92,65.32 C399,65.32 401.04,64.52 402.2,62.92 L402.2,59.24 C401.04,57.68 399,56.88 396.92,56.88 C394.08,56.88 392.12,58.64 392.12,61.08 C392.12,63.56 394.08,65.32 396.92,65.32 Z M430.96,67 L430.96,40.32 L426.88,40.32 L419.2,48.08 L421.92,50.92 L426.28,46.36 L426.28,67 L430.96,67 Z M452.32,67 L447.64,67 L447.64,60.96 L434.92,60.96 L434.92,57.2 L445.88,40.32 L452.32,40.32 L452.32,56.84 L455.88,56.84 L455.88,60.96 L452.32,60.96 L452.32,67 Z M447.64,56.84 L447.64,44.52 L439.52,56.84 L447.64,56.84 Z M469.36,67.48 C461.84,67.48 458.68,60.36 458.68,53.68 C458.68,46.96 461.84,39.92 469.36,39.92 C476.84,39.92 480,46.96 480,53.68 C480,60.36 476.84,67.48 469.36,67.48 Z M469.36,63.32 C473.68,63.32 475.24,58.76 475.24,53.68 C475.24,48.56 473.72,44.08 469.36,44.08 C465,44.08 463.44,48.56 463.44,53.68 C463.44,58.76 465,63.32 469.36,63.32 Z M489.44,53.16 C485.48,53.16 482.8,50.28 482.8,46.56 C482.8,42.8 485.48,39.92 489.44,39.92 C493.44,39.92 496.08,42.8 496.08,46.56 C496.08,50.28 493.44,53.16 489.44,53.16 Z M489.52,67 L486.84,67 L503.88,40.32 L506.6,40.32 L489.52,67 Z M503.8,67.48 C499.84,67.48 497.16,64.6 497.16,60.88 C497.16,57.12 499.84,54.24 503.8,54.24 C507.76,54.24 510.44,57.12 510.44,60.88 C510.44,64.6 507.76,67.48 503.8,67.48 Z M489.44,50.48 C491.52,50.48 493,48.88 493,46.56 C493,44.2 491.52,42.56 489.44,42.56 C487.4,42.56 485.92,44.2 485.92,46.56 C485.92,48.88 487.4,50.48 489.44,50.48 Z M503.8,64.8 C505.88,64.8 507.36,63.2 507.36,60.88 C507.36,58.52 505.88,56.88 503.8,56.88 C501.72,56.88 500.24,58.52 500.24,60.88 C500.24,63.2 501.72,64.8 503.8,64.8 Z M253,123 L253,96.32 L250,96.32 L250,123 L253,123 Z M260.52,100.92 C261.64,100.92 262.52,100.04 262.52,98.92 C262.52,97.8 261.64,96.88 260.52,96.88 C259.4,96.88 258.48,97.8 258.48,98.92 C258.48,100.04 259.4,100.92 260.52,100.92 Z M262,123 L262,103.68 L259,103.68 L259,123 L262,123 Z M284.04,123 L284.04,109.44 C284.04,105.24 281.92,103.2 277.92,103.2 C275,103.2 272.36,104.84 271,106.48 L271,103.68 L268,103.68 L268,123 L271,123 L271,108.88 C272.16,107.32 274.36,105.88 276.72,105.88 C279.32,105.88 281.08,106.92 281.08,110.36 L281.08,123 L284.04,123 Z M298.84,123.48 C293.08,123.48 288.96,119.36 288.96,113.32 C288.96,107.72 292.96,103.2 298.48,103.2 C304.32,103.2 307.76,107.76 307.76,113.56 L307.76,114.32 L292.16,114.32 C292.4,117.96 294.92,121 299.08,121 C301.32,121 303.52,120.12 305.08,118.52 L306.52,120.48 C304.56,122.4 301.96,123.48 298.84,123.48 Z M304.8,112.08 C304.76,109.24 302.84,105.68 298.44,105.68 C294.32,105.68 292.28,109.16 292.12,112.08 L304.8,112.08 Z M329.12,123.48 C334.08,123.48 336.68,120.88 336.68,117.64 C336.68,110.12 324.72,112.88 324.72,108.68 C324.72,106.96 326.36,105.64 329,105.64 C331.52,105.64 333.6,106.68 334.76,108.08 L336.16,106 C334.64,104.44 332.32,103.2 329,103.2 C324.4,103.2 321.84,105.72 321.84,108.76 C321.84,115.92 333.8,113.04 333.8,117.72 C333.8,119.64 332.16,121.04 329.2,121.04 C326.56,121.04 324.12,119.76 322.84,118.28 L321.32,120.44 C323.28,122.48 325.92,123.48 329.12,123.48 Z M351.08,123.48 C348.44,123.48 346.16,122.2 344.56,120.08 L344.56,130.36 L341.56,130.36 L341.56,103.68 L344.56,103.68 L344.56,106.56 C345.96,104.6 348.36,103.2 351.08,103.2 C356.16,103.2 359.68,107.04 359.68,113.32 C359.68,119.56 356.16,123.48 351.08,123.48 Z M350.32,120.8 C354.2,120.8 356.52,117.6 356.52,113.32 C356.52,109.04 354.2,105.88 350.32,105.88 C347.96,105.88 345.6,107.28 344.56,108.96 L344.56,117.68 C345.6,119.36 347.96,120.8 350.32,120.8 Z M379.52,123 L376.52,123 L376.52,120.8 C374.96,122.56 372.72,123.48 370.12,123.48 C366.88,123.48 363.4,121.28 363.4,117.08 C363.4,112.72 366.84,110.72 370.12,110.72 C372.76,110.72 374.96,111.56 376.52,113.32 L376.52,109.84 C376.52,107.28 374.44,105.8 371.64,105.8 C369.32,105.8 367.44,106.6 365.72,108.48 L364.32,106.4 C366.4,104.24 368.88,103.2 372.04,103.2 C376.16,103.2 379.52,105.04 379.52,109.72 L379.52,123 Z M371.24,121.32 C373.32,121.32 375.36,120.52 376.52,118.92 L376.52,115.24 C375.36,113.68 373.32,112.88 371.24,112.88 C368.4,112.88 366.44,114.64 366.44,117.08 C366.44,119.56 368.4,121.32 371.24,121.32 Z M394.08,123.48 C397.6,123.48 399.68,122.04 401.16,120.12 L399.16,118.28 C397.88,120 396.24,120.8 394.24,120.8 C390.16,120.8 387.56,117.6 387.56,113.32 C387.56,109.04 390.16,105.88 394.24,105.88 C396.24,105.88 397.88,106.6 399.16,108.36 L401.16,106.56 C399.68,104.64 397.6,103.2 394.08,103.2 C388.32,103.2 384.44,107.6 384.44,113.32 C384.44,119.04 388.32,123.48 394.08,123.48 Z M406.92,100.92 C408.04,100.92 408.92,100.04 408.92,98.92 C408.92,97.8 408.04,96.88 406.92,96.88 C405.8,96.88 404.88,97.8 404.88,98.92 C404.88,100.04 405.8,100.92 406.92,100.92 Z M408.4,123 L408.4,103.68 L405.4,103.68 L405.4,123 L408.4,123 Z M430.44,123 L430.44,109.44 C430.44,105.24 428.32,103.2 424.32,103.2 C421.4,103.2 418.76,104.84 417.4,106.48 L417.4,103.68 L414.4,103.68 L414.4,123 L417.4,123 L417.4,108.88 C418.56,107.32 420.76,105.88 423.12,105.88 C425.72,105.88 427.48,106.92 427.48,110.36 L427.48,123 L430.44,123 Z M444.24,130.84 C441,130.84 438.76,130.2 436.44,127.92 L437.96,125.76 C439.56,127.64 441.48,128.36 444.24,128.36 C447.44,128.36 450.48,126.8 450.48,122.72 L450.48,119.8 C449.04,121.76 446.68,123.24 443.96,123.24 C438.92,123.24 435.36,119.48 435.36,113.24 C435.36,107.04 438.88,103.2 443.96,103.2 C446.56,103.2 448.92,104.48 450.48,106.6 L450.48,103.68 L453.48,103.68 L453.48,122.72 C453.48,128.84 448.96,130.84 444.24,130.84 Z M444.72,120.56 C447.08,120.56 449.4,119.12 450.48,117.44 L450.48,108.96 C449.4,107.32 447.08,105.88 444.72,105.88 C440.8,105.88 438.48,108.96 438.48,113.24 C438.48,117.48 440.8,120.56 444.72,120.56 Z M489.6,123 L495.76,103.68 L492.6,103.68 L487.88,119.08 L482.84,103.68 L480.24,103.68 L475.16,119.08 L470.44,103.68 L467.32,103.68 L473.48,123 L476.48,123 L481.52,107.48 L486.56,123 L489.6,123 Z M500.72,100.92 C501.84,100.92 502.72,100.04 502.72,98.92 C502.72,97.8 501.84,96.88 500.72,96.88 C499.6,96.88 498.68,97.8 498.68,98.92 C498.68,100.04 499.6,100.92 500.72,100.92 Z M502.2,123 L502.2,103.68 L499.2,103.68 L499.2,123 L502.2,123 Z M513.12,123.48 C514.84,123.48 515.92,122.96 516.68,122.24 L515.8,119.96 C515.4,120.4 514.64,120.8 513.76,120.8 C512.48,120.8 511.84,119.76 511.84,118.32 L511.84,106.32 L515.76,106.32 L515.76,103.68 L511.84,103.68 L511.84,98.4 L508.8,98.4 L508.8,103.68 L505.6,103.68 L505.6,106.32 L508.8,106.32 L508.8,118.96 C508.8,121.84 510.24,123.48 513.12,123.48 Z M536.04,123 L536.04,109.36 C536.04,105.16 533.92,103.2 529.88,103.2 C526.96,103.2 524.32,104.84 523,106.48 L523,96.32 L520,96.32 L520,123 L523,123 L523,108.88 C524.12,107.32 526.36,105.88 528.68,105.88 C531.32,105.88 533.04,106.84 533.04,110.28 L533.04,123 L536.04,123 Z M253.44,179 L250.12,179 L250.12,152.32 L260.84,152.32 C266.2,152.32 269.2,156 269.2,160.36 C269.2,164.72 266.16,168.4 260.84,168.4 L253.44,168.4 L253.44,179 Z M260.44,165.44 C263.6,165.44 265.76,163.36 265.76,160.36 C265.76,157.36 263.6,155.28 260.44,155.28 L253.44,155.28 L253.44,165.44 L260.44,165.44 Z M276.48,179 L276.48,165.32 C277.36,163.76 279.88,162.24 281.76,162.24 C282.2,162.24 282.56,162.28 282.92,162.32 L282.92,159.24 C280.28,159.24 278.04,160.76 276.48,162.76 L276.48,159.68 L273.48,159.68 L273.48,179 L276.48,179 Z M295.12,179.48 C289.24,179.48 285.56,174.92 285.56,169.32 C285.56,163.72 289.24,159.2 295.12,159.2 C301,159.2 304.68,163.72 304.68,169.32 C304.68,174.92 301,179.48 295.12,179.48 Z M295.12,176.8 C299.24,176.8 301.52,173.28 301.52,169.32 C301.52,165.4 299.24,161.88 295.12,161.88 C291,161.88 288.72,165.4 288.72,169.32 C288.72,173.28 291,176.8 295.12,176.8 Z M324.08,179 L316.64,169.08 L323.64,159.68 L320.2,159.68 L314.8,167.04 L309.44,159.68 L305.96,159.68 L312.96,169.08 L305.56,179 L309,179 L314.8,171.08 L320.64,179 L324.08,179 Z M329.08,156.92 C330.2,156.92 331.08,156.04 331.08,154.92 C331.08,153.8 330.2,152.88 329.08,152.88 C327.96,152.88 327.04,153.8 327.04,154.92 C327.04,156.04 327.96,156.92 329.08,156.92 Z M330.56,179 L330.56,159.68 L327.56,159.68 L327.56,179 L330.56,179 Z M362.88,179 L362.88,165.04 C362.88,161.16 361,159.2 357.48,159.2 C354.68,159.2 352.08,161.04 351,162.8 C350.44,160.8 348.76,159.2 345.84,159.2 C342.96,159.2 340.4,161.24 339.56,162.48 L339.56,159.68 L336.56,159.68 L336.56,179 L339.56,179 L339.56,164.88 C340.6,163.32 342.68,161.88 344.64,161.88 C347.2,161.88 348.2,163.44 348.2,165.88 L348.2,179 L351.2,179 L351.2,164.84 C352.2,163.28 354.32,161.88 356.32,161.88 C358.84,161.88 359.88,163.44 359.88,165.88 L359.88,179 L362.88,179 Z M383.96,179 L380.96,179 L380.96,176.8 C379.4,178.56 377.16,179.48 374.56,179.48 C371.32,179.48 367.84,177.28 367.84,173.08 C367.84,168.72 371.28,166.72 374.56,166.72 C377.2,166.72 379.4,167.56 380.96,169.32 L380.96,165.84 C380.96,163.28 378.88,161.8 376.08,161.8 C373.76,161.8 371.88,162.6 370.16,164.48 L368.76,162.4 C370.84,160.24 373.32,159.2 376.48,159.2 C380.6,159.2 383.96,161.04 383.96,165.72 L383.96,179 Z M375.68,177.32 C377.76,177.32 379.8,176.52 380.96,174.92 L380.96,171.24 C379.8,169.68 377.76,168.88 375.68,168.88 C372.84,168.88 370.88,170.64 370.88,173.08 C370.88,175.56 372.84,177.32 375.68,177.32 Z" id="We-use-a-140%-line-s" fill="#373D4D"></path>
        </g>
    </g>
</svg>