<?xml version="1.0" encoding="UTF-8"?>
<svg width="399px" height="258px" viewBox="0 0 399 258" version="1.1" xmlns="http://www.w3.org/2000/svg" xmlns:xlink="http://www.w3.org/1999/xlink">
    <!-- Generator: Sketch 47.1 (45422) - http://www.bohemiancoding.com/sketch -->
    <title>illu3</title>
    <desc>Created with Sketch.</desc>
    <defs>
        <polygon id="path-1" points="0 71.03855 0 0.892 136.289 0.892 136.289 132 0 132 0 71.03855 0 132.0001 124.165 132.0001 124.165 10.0771 0 10.0771"></polygon>
        <polygon id="path-3" points="0.578105392 0.892 35.9392137 0.892 35.9392137 33.2357846 0.578105392 33.2357846 0.578105392 0.892"></polygon>
    </defs>
    <g id="Kilt---landing-page" stroke="none" stroke-width="1" fill="none" fill-rule="evenodd">
        <g id="Kilt---Landing---Green" transform="translate(-768.000000, -1082.000000)">
            <g id="illu3" transform="translate(967.500000, 1211.500000) scale(-1, 1) translate(-967.500000, -1211.500000) translate(768.000000, 1082.000000)">
                <path d="M397.981571,172.156586 C396.819571,169.021586 395.055571,163.782586 390.912571,158.617586 C379.834571,144.807586 356.388571,148.588586 369.983571,138.160586 C383.577571,127.732586 384.483571,80.3755856 356.030571,66.5605856 C327.578571,52.7465856 281.577571,72.0875856 279.290571,56.3325856 C277.002571,40.5775856 236.067571,2.95158556 160.691571,0.0755855554 C85.3155706,-2.80041444 143.809571,77.3115856 63.0215706,84.1785856 C-17.7654294,91.0475856 -0.322429375,149.815586 6.19657063,173.914586 C13.2295706,199.914586 54.1965706,260.914586 106.523571,236.914586 C120.427571,230.537586 126.136571,213.607586 150.318571,230.914586 C234.155571,290.914586 410.494571,205.914586 397.981571,172.156586" id="Fill-1" fill="#FFFFFF" opacity="0.300000012" transform="translate(199.307008, 125.896899) scale(1, -1) translate(-199.307008, -125.896899) "></path>
                <g id="Page-1" transform="translate(233.000000, 42.000000)">
                    <g id="Group-37" transform="translate(0.000000, 0.108000)">
                        <g id="Group-3">
                            <mask id="mask-2" fill="white">
                                <use xlink:href="#path-1"></use>
                            </mask>
                            <g id="Clip-2"></g>
                            <path d="M62.083,10.0771 C96.347,10.0771 124.165,37.3921 124.165,71.0391 C124.165,104.6841 96.347,132.0001 62.083,132.0001 C27.818,132.0001 0,104.6841 0,71.0391 C0,37.3921 27.818,10.0771 62.083,10.0771" id="Fill-1" fill="#67B1FF" mask="url(#mask-2)"></path>
                        </g>
                        <path d="M62.083,17.3018 C92.286,17.3018 116.807,41.3808 116.807,71.0388 C116.807,100.6968 92.286,124.7758 62.083,124.7758 C31.879,124.7758 7.358,100.6968 7.358,71.0388 C7.358,41.3808 31.879,17.3018 62.083,17.3018" id="Fill-4" fill="#67B1FF" opacity="0.2"></path>
                        <path d="M62.083,26.6719 C87.019,26.6719 107.265,46.5519 107.265,71.0389 C107.265,95.5259 87.019,115.4049 62.083,115.4049 C37.146,115.4049 16.9,95.5259 16.9,71.0389 C16.9,46.5519 37.146,26.6719 62.083,26.6719" id="Fill-6" fill="#67B1FF" opacity="0.3"></path>
                        <path d="M62.083,36.4658 C81.514,36.4658 97.291,51.9578 97.291,71.0388 C97.291,90.1188 81.514,105.6118 62.083,105.6118 C42.651,105.6118 26.874,90.1188 26.874,71.0388 C26.874,51.9578 42.651,36.4658 62.083,36.4658" id="Fill-8" fill="#67B1FF" opacity="0.4"></path>
                        <path d="M5.165,96.3457 C8.139,80.4067 8.139,59.5867 31.425,50.6977 C51.002,43.6667 81.007,45.5037 95.852,51.0047 C115.909,57.1377 118.298,76.5197 122.022,92.6727 C117.746,98.1637 87.154,107.8377 60.209,107.8997 C33.245,107.9607 16.1,101.2257 5.165,96.3457" id="Fill-10" fill="#56A7FF"></path>
                        <path d="M59.9902,49.8662 C55.3942,47.1342 49.0252,48.7532 44.3442,47.3412 L42.5072,47.9532 C46.0052,52.3862 48.9252,56.8112 54.2612,58.0452 C56.4922,55.8762 58.3632,53.0842 59.9902,49.8662" id="Fill-12" fill="#529AEB"></path>
                        <path d="M58.0254,50.3857 C61.7394,47.3647 68.5324,44.7697 73.9034,42.8657 L79.2644,48.6507 C75.1804,52.2987 68.5524,55.4687 64.2814,58.1797 C62.1144,56.3927 60.0204,53.8677 58.0254,50.3857" id="Fill-14" fill="#529AEB"></path>
                        <polygon id="Fill-16" fill="#F3D2BF" points="50.6152 33.8691 67.4862 28.4411 73.5382 50.4821 60.8772 48.5651 50.8032 53.5431"></polygon>
                        <path d="M50.6152,38.4189 C52.6502,38.7689 54.6802,38.4919 56.8022,38.6399 C57.9072,38.7169 50.6152,41.1219 50.6152,41.1219 L50.6152,38.4189 Z" id="Fill-18" fill="#F2BDA5"></path>
                        <path d="M44.0849,9.5225 C53.7599,10.3405 66.8589,11.3085 71.2509,16.2075 C71.2509,16.2075 67.6379,37.2045 66.9239,37.3825 C58.8599,39.3975 50.8399,39.7485 42.9319,35.6575 C40.7309,26.8475 41.0729,18.1345 44.0849,9.5225" id="Fill-20" fill="#F3D2BF"></path>
                        <g id="Group-24" transform="translate(42.000000, 0.000000)">
                            <mask id="mask-4" fill="white">
                                <use xlink:href="#path-3"></use>
                            </mask>
                            <g id="Clip-23"></g>
                            <path d="M6.9941,13.0322 C6.0681,12.9042 -1.0019,12.3242 0.9021,6.9502 C2.2881,3.0362 25.9001,-5.5168 34.3541,9.1422 C37.8471,15.1992 34.9451,20.3982 31.6401,28.1412 C30.2721,31.3442 27.1501,34.4132 26.4201,32.7852 C25.1361,27.3932 27.0061,20.8262 23.7591,16.3812 C21.0341,12.6492 11.4051,13.4022 6.9941,13.0322" id="Fill-22" fill="#A27079" mask="url(#mask-4)"></path>
                        </g>
                        <path d="M68.9843,19.3936 C66.9163,19.0596 64.9553,20.5366 64.6073,22.6896 C64.2593,24.8416 65.6563,26.8616 67.7233,27.1956 C69.7923,27.5286 71.7523,26.0526 72.1003,23.9006 C72.4483,21.7476 71.0513,19.7286 68.9843,19.3936" id="Fill-25" fill="#F3D2BF"></path>
                        <path d="M59.3662,48.0596 C58.5212,52.9666 58.2622,57.9696 57.9572,62.9506 C57.6832,67.9376 57.5132,72.9306 57.3012,77.9226 C57.0852,82.9156 57.0392,87.9146 57.0192,92.9126 C56.9442,97.9096 56.8152,102.9056 56.5772,107.9026 L56.0712,107.8986 C55.9192,102.8966 55.9222,97.8946 56.0322,92.8946 L56.5172,77.8966 C56.6472,72.8966 56.9002,67.8986 57.2512,62.9056 C57.6162,57.9156 58.0252,52.9176 58.9782,47.9816 L59.3662,48.0596 Z" id="Fill-27" fill="#529AEB"></path>
                        <path d="M59.9902,48.0293 C55.3942,45.2963 53.2292,42.7993 48.5492,41.3863 L43.5772,47.5033 C47.0752,51.9353 48.9252,54.9743 54.2612,56.2083 C56.4922,54.0393 58.3632,51.2473 59.9902,48.0293" id="Fill-29" fill="#FFFFFF"></path>
                        <path d="M58.0254,48.5488 C61.7394,45.5278 68.5324,42.9328 73.9034,41.0288 L79.2644,46.8138 C75.1804,50.4618 68.5524,53.6318 64.2814,56.3428 C62.1144,54.5558 60.0204,52.0308 58.0254,48.5488" id="Fill-31" fill="#FFFFFF"></path>
                        <path d="M101.2412,76.3779 C102.1192,78.1839 102.8882,80.0519 103.4892,81.9769 C104.1022,83.8989 104.5222,85.8779 104.8312,87.8589 C105.0062,88.8479 105.1232,89.8419 105.3132,90.8209 C105.4872,91.8049 105.7202,92.7739 105.9282,93.7429 C106.3202,95.6869 106.7372,97.6059 107.2462,99.5299 L106.7712,99.7059 C105.8832,97.8829 105.3212,95.9109 104.9592,93.9319 C104.7902,92.9379 104.6892,91.9359 104.5462,90.9459 C104.4132,89.9539 104.2292,88.9729 104.0572,87.9919 C103.6902,86.0349 103.2982,84.0939 102.7962,82.1769 C102.2892,80.2619 101.6552,78.3769 100.8822,76.5429 L101.2412,76.3779 Z" id="Fill-33" fill="#529AEB"></path>
                        <path d="M24.4892,79.2578 C23.5172,82.8898 22.7172,86.5688 21.7612,90.1988 C21.5502,91.1128 21.3002,92.0198 21.1332,92.9438 C20.9432,93.8618 20.8282,94.7948 20.6762,95.7168 C20.3782,97.5518 19.9492,99.4018 19.9112,101.1858 L19.4132,101.2738 C19.1782,100.2818 19.2432,99.3168 19.3012,98.3618 C19.3902,97.4088 19.5142,96.4658 19.7062,95.5368 C19.9022,94.6098 20.1532,93.6958 20.3732,92.7788 C20.5982,91.8608 20.7842,90.9358 20.9992,90.0178 C21.8122,86.3298 22.9402,82.7288 24.1102,79.1428 L24.4892,79.2578 Z" id="Fill-35" fill="#529AEB"></path>
                    </g>
                    <g id="Group-44" transform="translate(108.000000, 2.108000)" fill="#56A7FF">
                        <path d="M24.4671,18.1738 C24.4911,18.2578 24.5111,18.3418 24.5111,18.4288 C24.5131,18.6508 24.4231,18.8668 24.2601,19.0168 C24.2141,19.0648 24.1591,19.0988 24.1041,19.1338 C19.7891,21.4898 15.3491,23.2508 11.0181,25.0438 C10.8341,25.1188 10.6381,25.1378 10.4431,25.0738 C10.0571,24.9458 9.8261,24.5308 9.9201,24.1328 C9.9411,24.0478 9.9751,23.9668 10.0241,23.8938 C10.0951,23.7788 10.1931,23.6958 10.3091,23.6258 C14.3221,20.7698 18.7171,18.8428 23.3911,17.7158 C23.4741,17.6828 23.5541,17.6548 23.6421,17.6488 C23.8641,17.6278 24.0861,17.7018 24.2501,17.8498 C24.3151,17.9088 24.3651,17.9788 24.4101,18.0538 C24.4421,18.1128 24.4421,18.1128 24.4671,18.1738" id="Fill-38"></path>
                        <path d="M18.2873,8.2277 C18.3363,8.3017 18.3783,8.3767 18.4023,8.4617 C18.4683,8.6727 18.4423,8.9047 18.3313,9.0957 C18.2973,9.1537 18.2563,9.2017 18.2133,9.2517 C14.7463,12.7387 10.9903,15.6887 7.3493,18.6397 C7.1913,18.7637 7.0093,18.8387 6.8053,18.8317 C6.3983,18.8177 6.0593,18.4867 6.0383,18.0787 C6.0333,17.9907 6.0433,17.9027 6.0683,17.8187 C6.1043,17.6887 6.1733,17.5807 6.2623,17.4807 C9.3003,13.6027 12.9663,10.5047 17.1243,8.0947 C17.1963,8.0397 17.2673,7.9917 17.3503,7.9587 C17.5543,7.8767 17.7893,7.8847 17.9863,7.9787 C18.0673,8.0167 18.1353,8.0707 18.2013,8.1287 C18.2453,8.1787 18.2453,8.1787 18.2873,8.2277" id="Fill-40"></path>
                        <path d="M9.5345,0.4518 C9.6025,0.5068 9.6635,0.5688 9.7145,0.6418 C9.8345,0.8258 9.8755,1.0558 9.8225,1.2708 C9.8075,1.3358 9.7815,1.3938 9.7545,1.4528 C7.4215,5.7828 4.6605,9.6788 2.0115,13.5438 C1.8935,13.7078 1.7385,13.8298 1.5425,13.8818 C1.1475,13.9858 0.7275,13.7628 0.5915,13.3788 C0.5645,13.2968 0.5485,13.2098 0.5485,13.1218 C0.5455,12.9868 0.5815,12.8628 0.6395,12.7428 C2.4465,8.1568 5.0825,4.1458 8.3835,0.6538 C8.4335,0.5818 8.4885,0.5148 8.5585,0.4598 C8.7305,0.3228 8.9575,0.2638 9.1765,0.2988 C9.2645,0.3118 9.3435,0.3428 9.4235,0.3798 C9.4815,0.4138 9.4795,0.4138 9.5345,0.4518" id="Fill-42"></path>
                    </g>
                </g>
                <g id="Page-1" transform="translate(60.000000, 122.000000)">
                    <g id="Group-30" transform="translate(0.000000, 0.169000)">
                        <path d="M62.083,12.9082 C96.347,12.9082 124.165,40.2232 124.165,73.8702 C124.165,107.5152 96.347,134.8312 62.083,134.8312 C27.818,134.8312 0,107.5152 0,73.8702 C0,40.2232 27.818,12.9082 62.083,12.9082" id="Fill-1" fill="#4BDF75" opacity="0.2"></path>
                        <path d="M62.083,20.1328 C92.286,20.1328 116.807,44.2118 116.807,73.8698 C116.807,103.5278 92.286,127.6068 62.083,127.6068 C31.879,127.6068 7.358,103.5278 7.358,73.8698 C7.358,44.2118 31.879,20.1328 62.083,20.1328" id="Fill-3" fill="#4BDF75" opacity="0.3"></path>
                        <path d="M62.083,29.5029 C87.019,29.5029 107.265,49.3829 107.265,73.8699 C107.265,98.3569 87.019,118.2359 62.083,118.2359 C37.146,118.2359 16.9,98.3569 16.9,73.8699 C16.9,49.3829 37.146,29.5029 62.083,29.5029" id="Fill-5" fill="#4BDF75" opacity="0.4"></path>
                        <path d="M62.083,39.2969 C81.514,39.2969 97.291,54.7889 97.291,73.8699 C97.291,92.9499 81.514,108.4429 62.083,108.4429 C42.651,108.4429 26.874,92.9499 26.874,73.8699 C26.874,54.7889 42.651,39.2969 62.083,39.2969" id="Fill-7" fill="#4BDF75" opacity="0.5"></path>
                        <path d="M112.9336,99.5713 C110.3186,85.5553 110.3186,67.2503 89.8436,59.4323 C72.6286,53.2513 46.2466,54.8663 33.1936,59.7033 C15.5566,65.0953 13.4566,82.1383 10.1816,96.3423 C13.9416,101.1703 40.8406,109.6753 64.5346,109.7303 C88.2436,109.7853 103.3196,103.8623 112.9336,99.5713" id="Fill-9" fill="#FFFFFF"></path>
                        <polygon id="Fill-11" fill="#A27079" points="71.0136 46.252 58.4576 41.479 53.7846 63.014 70.8686 63.551"></polygon>
                        <path d="M71.0136,50.252 C69.6976,50.556 66.1056,50.301 64.5526,50.446 C65.6926,50.34 64.8136,50.804 71.0136,52.629 L71.0136,50.252 Z" id="Fill-13" fill="#7F3D4A"></path>
                        <path d="M77.833,24.8428 C69.326,25.5638 57.808,26.4138 53.946,30.7208 C53.946,30.7208 57.123,49.1838 57.751,49.3408 C64.841,51.1128 71.894,51.4208 78.847,47.8228 C80.782,40.0768 80.48,32.4158 77.833,24.8428" id="Fill-15" fill="#A27079"></path>
                        <path d="M58.0927,33.5235 C59.9107,33.2295 61.6357,34.5285 61.9417,36.4205 C62.2467,38.3135 61.0187,40.0885 59.2007,40.3825 C57.3827,40.6755 55.6587,39.3775 55.3537,37.4855 C55.0467,35.5925 56.2757,33.8175 58.0927,33.5235" id="Fill-17" fill="#A27079"></path>
                        <g id="Group-21" transform="translate(41.000000, 0.000000)" fill="#1A3149">
                            <path d="M8.2988,1.7617 C13.8968,-0.7303 19.5858,1.8707 22.4168,8.5007 C25.2478,15.1307 22.9728,22.4657 17.3378,24.8717 C11.7028,27.2787 8.0128,24.9077 2.9178,19.8087 C-2.4672,14.4197 0.1498,5.3877 8.2988,1.7617" id="Fill-19"></path>
                        </g>
                        <path d="M73.3369,25.9658 C74.1079,26.0288 78.7319,24.6928 79.0289,23.9788 C79.3259,23.2638 78.0919,22.4448 77.5899,21.8548 C74.6529,18.3758 69.0399,14.1608 60.8289,17.1658 C56.4469,18.7708 52.9799,19.6728 48.9129,22.9528 C46.9689,24.5208 43.5609,33.2488 49.5659,41.2378 C57.3349,51.5708 57.2859,46.1118 57.7169,43.5708 C59.4579,33.3188 61.5999,25.0038 73.3369,25.9658" id="Fill-22" fill="#1A3149"></path>
                        <path d="M77.4306,56.6319 C68.7236,55.0559 59.0846,55.1129 50.0156,56.2119 C49.4776,74.7879 76.9366,75.8639 77.4306,56.6319" id="Fill-24" fill="#A27079"></path>
                        <path d="M28.2851,82.169 C27.6111,83.783 27.0621,85.441 26.6221,87.125 C26.1861,88.81 25.8441,90.515 25.5171,92.234 C25.3661,93.096 25.2011,93.958 25.0881,94.831 C24.9631,95.702 24.8831,96.584 24.7361,97.459 C24.4201,99.202 23.9181,100.94 23.1131,102.536 L22.6391,102.36 C23.0631,100.662 23.4211,98.979 23.7671,97.272 C23.9531,96.421 24.1661,95.57 24.3201,94.706 C24.4911,93.846 24.5901,92.971 24.7441,92.101 C25.0121,90.357 25.3831,88.615 25.9291,86.925 C26.4621,85.231 27.1471,83.59 27.9251,82.003 L28.2851,82.169 Z" id="Fill-26" fill="#4BDF75"></path>
                        <path d="M95.791,84.4375 C96.831,87.5885 97.844,90.7505 98.55,93.9955 C98.739,94.8035 98.898,95.6185 99.1,96.4235 C99.295,97.2315 99.523,98.0335 99.699,98.8495 C99.87,99.6665 99.975,100.4985 100.051,101.3365 C100.097,102.1795 100.147,103.0315 99.928,103.9095 L99.43,103.8215 C99.372,102.2635 98.989,100.6415 98.729,99.0295 C98.599,98.2185 98.505,97.3975 98.34,96.5895 C98.196,95.7775 97.973,94.9815 97.787,94.1775 C96.938,90.9885 96.254,87.7495 95.411,84.5525 L95.791,84.4375 Z" id="Fill-28" fill="#4BDF75"></path>
                    </g>
                    <g id="Group-37" transform="translate(107.000000, 113.169000)" fill="#4BDF75">
                        <path d="M7.6543,21.9551 C7.5853,21.9851 7.5133,22.0121 7.4373,22.0201 C7.2453,22.0461 7.0483,21.9901 6.9003,21.8641 C6.8543,21.8301 6.8183,21.7851 6.7833,21.7411 C4.2833,18.2431 2.2873,14.5731 0.2733,11.0001 C0.1883,10.8491 0.1523,10.6811 0.1863,10.5051 C0.2583,10.1561 0.5933,9.9111 0.9493,9.9511 C1.0253,9.9601 1.0983,9.9811 1.1683,10.0171 C1.2743,10.0661 1.3573,10.1421 1.4293,10.2351 C4.3333,13.4191 6.4683,17.0331 7.9393,20.9741 C7.9763,21.0421 8.0083,21.1081 8.0233,21.1841 C8.0653,21.3751 8.0243,21.5741 7.9143,21.7331 C7.8693,21.7961 7.8133,21.8471 7.7533,21.8931 C7.7053,21.9281 7.7053,21.9281 7.6543,21.9551" id="Fill-31"></path>
                        <path d="M15.6406,15.542 C15.5806,15.593 15.5216,15.637 15.4496,15.667 C15.2736,15.746 15.0686,15.748 14.8916,15.672 C14.8376,15.648 14.7906,15.618 14.7436,15.586 C11.3506,12.942 8.3946,9.991 5.4486,7.142 C5.3236,7.017 5.2396,6.866 5.2236,6.688 C5.1936,6.334 5.4456,6.004 5.7966,5.943 C5.8726,5.93 5.9506,5.929 6.0256,5.942 C6.1426,5.96 6.2446,6.009 6.3396,6.074 C10.0276,8.305 13.1036,11.162 15.6336,14.519 C15.6886,14.575 15.7386,14.632 15.7756,14.7 C15.8686,14.869 15.8856,15.073 15.8256,15.255 C15.8006,15.329 15.7606,15.395 15.7176,15.457 C15.6786,15.501 15.6786,15.501 15.6406,15.542" id="Fill-33"></path>
                        <path d="M21.4707,7.1231 C21.4307,7.1881 21.3827,7.2481 21.3247,7.3001 C21.1777,7.4231 20.9827,7.4831 20.7897,7.4601 C20.7327,7.4541 20.6787,7.4371 20.6257,7.4201 C16.6187,5.8511 12.9457,3.8621 9.3107,1.9691 C9.1567,1.8851 9.0337,1.7631 8.9677,1.5981 C8.8357,1.2661 8.9857,0.8771 9.3047,0.7191 C9.3727,0.6871 9.4477,0.6631 9.5237,0.6541 C9.6407,0.6381 9.7517,0.6561 9.8627,0.6931 C14.0347,1.7801 17.7937,3.6461 21.1737,6.1451 C21.2417,6.1811 21.3057,6.2221 21.3617,6.2761 C21.4977,6.4121 21.5737,6.6021 21.5667,6.7961 C21.5647,6.8751 21.5457,6.9461 21.5217,7.0191 C21.4977,7.0731 21.4977,7.0711 21.4707,7.1231" id="Fill-35"></path>
                    </g>
                </g>
            </g>
        </g>
    </g>
</svg>