<?xml version="1.0" encoding="UTF-8"?>
<svg width="800px" height="228px" viewBox="0 0 800 228" version="1.1" xmlns="http://www.w3.org/2000/svg" xmlns:xlink="http://www.w3.org/1999/xlink">
    <!-- Generator: Sketch 47.1 (45422) - http://www.bohemiancoding.com/sketch -->
    <title>Artboard</title>
    <desc>Created with Sketch.</desc>
    <defs></defs>
    <g id="Page-1" stroke="none" stroke-width="1" fill="none" fill-rule="evenodd">
        <g id="Artboard" fill="#373D4D">
            <path d="M71.66,89 L66.68,89 L66.68,48.98 L82.76,48.98 C90.8,48.98 95.3,54.5 95.3,61.04 C95.3,67.58 90.74,73.1 82.76,73.1 L71.66,73.1 L71.66,89 Z M82.16,68.66 C86.9,68.66 90.14,65.54 90.14,61.04 C90.14,56.54 86.9,53.42 82.16,53.42 L71.66,53.42 L71.66,68.66 L82.16,68.66 Z M106.22,89 L106.22,68.48 C107.54,66.14 111.32,63.86 114.14,63.86 C114.8,63.86 115.34,63.92 115.88,63.98 L115.88,59.36 C111.92,59.36 108.56,61.64 106.22,64.64 L106.22,60.02 L101.72,60.02 L101.72,89 L106.22,89 Z M134.18,89.72 C125.36,89.72 119.84,82.88 119.84,74.48 C119.84,66.08 125.36,59.3 134.18,59.3 C143,59.3 148.52,66.08 148.52,74.48 C148.52,82.88 143,89.72 134.18,89.72 Z M134.18,85.7 C140.36,85.7 143.78,80.42 143.78,74.48 C143.78,68.6 140.36,63.32 134.18,63.32 C128,63.32 124.58,68.6 124.58,74.48 C124.58,80.42 128,85.7 134.18,85.7 Z M177.62,89 L166.46,74.12 L176.96,60.02 L171.8,60.02 L163.7,71.06 L155.66,60.02 L150.44,60.02 L160.94,74.12 L149.84,89 L155,89 L163.7,77.12 L172.46,89 L177.62,89 Z M185.12,55.88 C186.8,55.88 188.12,54.56 188.12,52.88 C188.12,51.2 186.8,49.82 185.12,49.82 C183.44,49.82 182.06,51.2 182.06,52.88 C182.06,54.56 183.44,55.88 185.12,55.88 Z M187.34,89 L187.34,60.02 L182.84,60.02 L182.84,89 L187.34,89 Z M235.82,89 L235.82,68.06 C235.82,62.24 233,59.3 227.72,59.3 C223.52,59.3 219.62,62.06 218,64.7 C217.16,61.7 214.64,59.3 210.26,59.3 C205.94,59.3 202.1,62.36 200.84,64.22 L200.84,60.02 L196.34,60.02 L196.34,89 L200.84,89 L200.84,67.82 C202.4,65.48 205.52,63.32 208.46,63.32 C212.3,63.32 213.8,65.66 213.8,69.32 L213.8,89 L218.3,89 L218.3,67.76 C219.8,65.42 222.98,63.32 225.98,63.32 C229.76,63.32 231.32,65.66 231.32,69.32 L231.32,89 L235.82,89 Z M267.44,89 L262.94,89 L262.94,85.7 C260.6,88.34 257.24,89.72 253.34,89.72 C248.48,89.72 243.26,86.42 243.26,80.12 C243.26,73.58 248.42,70.58 253.34,70.58 C257.3,70.58 260.6,71.84 262.94,74.48 L262.94,69.26 C262.94,65.42 259.82,63.2 255.62,63.2 C252.14,63.2 249.32,64.4 246.74,67.22 L244.64,64.1 C247.76,60.86 251.48,59.3 256.22,59.3 C262.4,59.3 267.44,62.06 267.44,69.08 L267.44,89 Z M255.02,86.48 C258.14,86.48 261.2,85.28 262.94,82.88 L262.94,77.36 C261.2,75.02 258.14,73.82 255.02,73.82 C250.76,73.82 247.82,76.46 247.82,80.12 C247.82,83.84 250.76,86.48 255.02,86.48 Z M325.34,89 L325.34,48.98 L320.36,48.98 L320.36,80.24 L297.32,48.98 L292.22,48.98 L292.22,89 L297.2,89 L297.2,57.08 L320.54,89 L325.34,89 Z M347.18,89.72 C338.36,89.72 332.84,82.88 332.84,74.48 C332.84,66.08 338.36,59.3 347.18,59.3 C356,59.3 361.52,66.08 361.52,74.48 C361.52,82.88 356,89.72 347.18,89.72 Z M347.18,85.7 C353.36,85.7 356.78,80.42 356.78,74.48 C356.78,68.6 353.36,63.32 347.18,63.32 C341,63.32 337.58,68.6 337.58,74.48 C337.58,80.42 341,85.7 347.18,85.7 Z M381.5,89 L393.56,60.02 L388.7,60.02 L379.04,83.78 L369.44,60.02 L364.52,60.02 L376.58,89 L381.5,89 Z M420.86,89 L416.36,89 L416.36,85.7 C414.02,88.34 410.66,89.72 406.76,89.72 C401.9,89.72 396.68,86.42 396.68,80.12 C396.68,73.58 401.84,70.58 406.76,70.58 C410.72,70.58 414.02,71.84 416.36,74.48 L416.36,69.26 C416.36,65.42 413.24,63.2 409.04,63.2 C405.56,63.2 402.74,64.4 400.16,67.22 L398.06,64.1 C401.18,60.86 404.9,59.3 409.64,59.3 C415.82,59.3 420.86,62.06 420.86,69.08 L420.86,89 Z M408.44,86.48 C411.56,86.48 414.62,85.28 416.36,82.88 L416.36,77.36 C414.62,75.02 411.56,73.82 408.44,73.82 C404.18,73.82 401.24,76.46 401.24,80.12 C401.24,83.84 404.18,86.48 408.44,86.48 Z M474.68,89 L468.8,89 L458.66,73.1 L450.62,73.1 L450.62,89 L445.64,89 L445.64,48.98 L461.72,48.98 C469.04,48.98 474.32,53.66 474.32,61.04 C474.32,68.24 469.34,72.2 463.88,72.68 L474.68,89 Z M461.12,68.72 C465.86,68.72 469.16,65.54 469.16,61.04 C469.16,56.48 465.86,53.42 461.12,53.42 L450.62,53.42 L450.62,68.72 L461.12,68.72 Z M493.34,89.72 C484.7,89.72 478.52,83.54 478.52,74.48 C478.52,66.08 484.52,59.3 492.8,59.3 C501.56,59.3 506.72,66.14 506.72,74.84 L506.72,75.98 L483.32,75.98 C483.68,81.44 487.46,86 493.7,86 C497.06,86 500.36,84.68 502.7,82.28 L504.86,85.22 C501.92,88.1 498.02,89.72 493.34,89.72 Z M502.28,72.62 C502.22,68.36 499.34,63.02 492.74,63.02 C486.56,63.02 483.5,68.24 483.26,72.62 L502.28,72.62 Z M525.62,100.76 C520.76,100.76 517.4,99.8 513.92,96.38 L516.2,93.14 C518.6,95.96 521.48,97.04 525.62,97.04 C530.42,97.04 534.98,94.7 534.98,88.58 L534.98,84.2 C532.82,87.14 529.28,89.36 525.2,89.36 C517.64,89.36 512.3,83.72 512.3,74.36 C512.3,65.06 517.58,59.3 525.2,59.3 C529.1,59.3 532.64,61.22 534.98,64.4 L534.98,60.02 L539.48,60.02 L539.48,88.58 C539.48,97.76 532.7,100.76 525.62,100.76 Z M526.34,85.34 C529.88,85.34 533.36,83.18 534.98,80.66 L534.98,67.94 C533.36,65.48 529.88,63.32 526.34,63.32 C520.46,63.32 516.98,67.94 516.98,74.36 C516.98,80.72 520.46,85.34 526.34,85.34 Z M572.54,89 L572.54,60.02 L568.04,60.02 L568.04,81.32 C566.36,83.66 563,85.7 559.52,85.7 C555.56,85.7 552.98,84.2 552.98,79.1 L552.98,60.02 L548.48,60.02 L548.48,80.48 C548.48,86.72 551.66,89.72 557.72,89.72 C562.04,89.72 565.82,87.44 568.04,84.92 L568.04,89 L572.54,89 Z M586.04,89 L586.04,48.98 L581.54,48.98 L581.54,89 L586.04,89 Z M617.66,89 L613.16,89 L613.16,85.7 C610.82,88.34 607.46,89.72 603.56,89.72 C598.7,89.72 593.48,86.42 593.48,80.12 C593.48,73.58 598.64,70.58 603.56,70.58 C607.52,70.58 610.82,71.84 613.16,74.48 L613.16,69.26 C613.16,65.42 610.04,63.2 605.84,63.2 C602.36,63.2 599.54,64.4 596.96,67.22 L594.86,64.1 C597.98,60.86 601.7,59.3 606.44,59.3 C612.62,59.3 617.66,62.06 617.66,69.08 L617.66,89 Z M605.24,86.48 C608.36,86.48 611.42,85.28 613.16,82.88 L613.16,77.36 C611.42,75.02 608.36,73.82 605.24,73.82 C600.98,73.82 598.04,76.46 598.04,80.12 C598.04,83.84 600.98,86.48 605.24,86.48 Z M631.22,89 L631.22,68.48 C632.54,66.14 636.32,63.86 639.14,63.86 C639.8,63.86 640.34,63.92 640.88,63.98 L640.88,59.36 C636.92,59.36 633.56,61.64 631.22,64.64 L631.22,60.02 L626.72,60.02 L626.72,89 L631.22,89 Z" id="Proxima-Nova-Regular"></path>
            <path d="M73.28,177 L66.26,177 L66.26,136.98 L83.9,136.98 C92.3,136.98 96.92,142.68 96.92,149.52 C96.92,156.3 92.24,162 83.9,162 L73.28,162 L73.28,177 Z M82.94,155.82 C86.9,155.82 89.72,153.3 89.72,149.52 C89.72,145.68 86.9,143.16 82.94,143.16 L73.28,143.16 L73.28,155.82 L82.94,155.82 Z M108.92,177 L108.92,157.26 C110.18,155.16 113.72,153.36 116.42,153.36 C117.2,153.36 117.8,153.42 118.34,153.54 L118.34,147.3 C114.62,147.3 111.14,149.46 108.92,152.22 L108.92,148.02 L102.62,148.02 L102.62,177 L108.92,177 Z M136.58,177.72 C127.34,177.72 121.7,170.76 121.7,162.48 C121.7,154.14 127.34,147.3 136.58,147.3 C145.82,147.3 151.46,154.14 151.46,162.48 C151.46,170.76 145.82,177.72 136.58,177.72 Z M136.58,172.14 C141.98,172.14 144.92,167.64 144.92,162.48 C144.92,157.38 141.98,152.88 136.58,152.88 C131.24,152.88 128.24,157.38 128.24,162.48 C128.24,167.64 131.24,172.14 136.58,172.14 Z M181.22,177 L170.54,162.12 L180.56,148.02 L173.48,148.02 L166.58,157.8 L159.74,148.02 L152.66,148.02 L162.68,162.12 L152,177 L159.08,177 L166.64,166.32 L174.14,177 L181.22,177 Z M188.78,144.48 C190.94,144.48 192.68,142.74 192.68,140.58 C192.68,138.42 190.94,136.68 188.78,136.68 C186.62,136.68 184.88,138.42 184.88,140.58 C184.88,142.74 186.62,144.48 188.78,144.48 Z M191.9,177 L191.9,148.02 L185.6,148.02 L185.6,177 L191.9,177 Z M241.94,177 L241.94,156.06 C241.94,150.18 238.88,147.3 233.6,147.3 C229.22,147.3 225.38,150 223.76,152.58 C222.8,149.46 220.16,147.3 215.84,147.3 C211.4,147.3 207.62,150.18 206.36,151.92 L206.36,148.02 L200.06,148.02 L200.06,177 L206.36,177 L206.36,156.72 C207.68,154.86 210.26,152.88 213.08,152.88 C216.5,152.88 217.82,154.98 217.82,158.1 L217.82,177 L224.12,177 L224.12,156.72 C225.38,154.8 228.02,152.88 230.84,152.88 C234.26,152.88 235.64,154.98 235.64,158.1 L235.64,177 L241.94,177 Z M274.16,177 L267.86,177 L267.86,173.82 C265.7,176.34 262.28,177.72 258.44,177.72 C253.76,177.72 248.42,174.48 248.42,168.12 C248.42,161.4 253.7,158.64 258.44,158.64 C262.4,158.64 265.7,159.9 267.86,162.36 L267.86,158.04 C267.86,154.68 265.04,152.64 261.08,152.64 C257.84,152.64 254.96,153.84 252.5,156.36 L249.86,151.98 C253.22,148.74 257.42,147.3 262.04,147.3 C268.52,147.3 274.16,150 274.16,157.74 L274.16,177 Z M260.96,173.4 C263.66,173.4 266.36,172.38 267.86,170.4 L267.86,165.96 C266.36,163.98 263.66,162.96 260.96,162.96 C257.42,162.96 254.72,165.06 254.72,168.18 C254.72,171.36 257.42,173.4 260.96,173.4 Z M332.66,177 L332.66,136.98 L325.64,136.98 L325.64,164.7 L305.18,136.98 L297.98,136.98 L297.98,177 L305,177 L305,148.38 L325.88,177 L332.66,177 Z M354.14,177.72 C344.9,177.72 339.26,170.76 339.26,162.48 C339.26,154.14 344.9,147.3 354.14,147.3 C363.38,147.3 369.02,154.14 369.02,162.48 C369.02,170.76 363.38,177.72 354.14,177.72 Z M354.14,172.14 C359.54,172.14 362.48,167.64 362.48,162.48 C362.48,157.38 359.54,152.88 354.14,152.88 C348.8,152.88 345.8,157.38 345.8,162.48 C345.8,167.64 348.8,172.14 354.14,172.14 Z M389.84,177 L401.66,148.02 L394.94,148.02 L386.48,169.74 L378.02,148.02 L371.24,148.02 L383.06,177 L389.84,177 Z M429.68,177 L423.38,177 L423.38,173.82 C421.22,176.34 417.8,177.72 413.96,177.72 C409.28,177.72 403.94,174.48 403.94,168.12 C403.94,161.4 409.22,158.64 413.96,158.64 C417.92,158.64 421.22,159.9 423.38,162.36 L423.38,158.04 C423.38,154.68 420.56,152.64 416.6,152.64 C413.36,152.64 410.48,153.84 408.02,156.36 L405.38,151.98 C408.74,148.74 412.94,147.3 417.56,147.3 C424.04,147.3 429.68,150 429.68,157.74 L429.68,177 Z M416.48,173.4 C419.18,173.4 421.88,172.38 423.38,170.4 L423.38,165.96 C421.88,163.98 419.18,162.96 416.48,162.96 C412.94,162.96 410.24,165.06 410.24,168.18 C410.24,171.36 412.94,173.4 416.48,173.4 Z M467.24,177.72 C477.98,177.72 482.72,171.96 482.72,165.3 C482.72,150.42 459.44,155.04 459.44,147.54 C459.44,144.6 462.08,142.56 466.16,142.56 C470.36,142.56 474.62,144 477.8,147.18 L481.76,141.96 C478.1,138.36 473,136.32 466.82,136.32 C458,136.32 452.24,141.42 452.24,148.08 C452.24,162.78 475.52,157.56 475.52,165.96 C475.52,168.66 473.3,171.48 467.54,171.48 C461.96,171.48 457.58,168.84 454.88,165.9 L450.92,171.36 C454.52,175.08 459.86,177.72 467.24,177.72 Z M502.4,177.72 C493.64,177.72 487.22,171.66 487.22,162.48 C487.22,154.08 493.34,147.3 501.92,147.3 C510.62,147.3 516.14,153.9 516.14,163.02 L516.14,164.58 L493.82,164.58 C494.3,168.9 497.54,172.56 503,172.56 C505.88,172.56 509.18,171.42 511.28,169.32 L514.16,173.46 C511.22,176.22 506.96,177.72 502.4,177.72 Z M510.08,160.08 C509.9,156.66 507.56,152.46 501.86,152.46 C496.52,152.46 494,156.6 493.76,160.08 L510.08,160.08 Z M564.26,177 L564.26,156.06 C564.26,150.18 561.2,147.3 555.92,147.3 C551.54,147.3 547.7,150 546.08,152.58 C545.12,149.46 542.48,147.3 538.16,147.3 C533.72,147.3 529.94,150.18 528.68,151.92 L528.68,148.02 L522.38,148.02 L522.38,177 L528.68,177 L528.68,156.72 C530,154.86 532.58,152.88 535.4,152.88 C538.82,152.88 540.14,154.98 540.14,158.1 L540.14,177 L546.44,177 L546.44,156.72 C547.7,154.8 550.34,152.88 553.16,152.88 C556.58,152.88 557.96,154.98 557.96,158.1 L557.96,177 L564.26,177 Z M575.6,144.48 C577.76,144.48 579.5,142.74 579.5,140.58 C579.5,138.42 577.76,136.68 575.6,136.68 C573.44,136.68 571.7,138.42 571.7,140.58 C571.7,142.74 573.44,144.48 575.6,144.48 Z M578.72,177 L578.72,148.02 L572.42,148.02 L572.42,177 L578.72,177 Z M593.18,168.3 C594.62,170.46 597.68,172.14 600.68,172.14 C605.66,172.14 608.84,168.12 608.84,162.48 C608.84,156.9 605.66,152.88 600.68,152.88 C597.68,152.88 594.62,154.62 593.18,156.78 L593.18,168.3 Z M593.18,177 L586.88,177 L586.88,136.98 L593.18,136.98 L593.18,152.04 C595.52,148.92 598.88,147.3 602.48,147.3 C609.98,147.3 615.38,153.12 615.38,162.48 C615.38,172.08 609.92,177.72 602.48,177.72 C598.76,177.72 595.4,175.92 593.18,173.04 L593.18,177 Z M634.88,177.72 C625.64,177.72 620,170.76 620,162.48 C620,154.14 625.64,147.3 634.88,147.3 C644.12,147.3 649.76,154.14 649.76,162.48 C649.76,170.76 644.12,177.72 634.88,177.72 Z M634.88,172.14 C640.28,172.14 643.22,167.64 643.22,162.48 C643.22,157.38 640.28,152.88 634.88,152.88 C629.54,152.88 626.54,157.38 626.54,162.48 C626.54,167.64 629.54,172.14 634.88,172.14 Z M662.48,177 L662.48,136.98 L656.18,136.98 L656.18,177 L662.48,177 Z M697.34,177 L691.04,177 L691.04,173.04 C688.82,175.92 685.52,177.72 681.74,177.72 C674.36,177.72 668.9,172.08 668.9,162.48 C668.9,153.12 674.3,147.3 681.74,147.3 C685.4,147.3 688.76,148.92 691.04,152.04 L691.04,136.98 L697.34,136.98 L697.34,177 Z M683.6,172.14 C686.54,172.14 689.66,170.4 691.04,168.24 L691.04,156.78 C689.66,154.62 686.54,152.88 683.6,152.88 C678.56,152.88 675.38,156.9 675.38,162.48 C675.38,168.12 678.56,172.14 683.6,172.14 Z" id="Proxima-Nova-Semibol"></path>
        </g>
    </g>
</svg>