<?xml version="1.0" encoding="UTF-8"?>
<svg width="566px" height="210px" viewBox="0 0 566 210" version="1.1" xmlns="http://www.w3.org/2000/svg" xmlns:xlink="http://www.w3.org/1999/xlink">
    <!-- Generator: Sketch 47.1 (45422) - http://www.bohemiancoding.com/sketch -->
    <title>illu4</title>
    <desc>Created with Sketch.</desc>
    <defs></defs>
    <g id="Kilt---landing-page" stroke="none" stroke-width="1" fill="none" fill-rule="evenodd">
        <g id="Kilt---Landing---Green" transform="translate(-824.000000, -1362.000000)">
            <g id="illu4" transform="translate(824.000000, 1362.000000)">
                <path d="M565.101978,143.440607 C563.452031,140.82853 560.947292,136.463403 555.064564,132.159933 C539.33469,120.653462 506.043247,123.803785 525.347059,115.115191 C544.649451,106.426597 545.935898,66.9688166 505.534915,55.4581794 C465.135352,43.9483755 399.817614,60.0632675 396.570257,46.9362252 C393.32148,33.809183 335.197057,2.45925663 228.169169,0.0629777707 C121.141282,-2.33330109 204.19808,64.4158964 89.4855863,70.1374704 C-25.2254879,75.8607108 -0.457823907,124.82612 8.79863434,144.90537 C18.7849315,166.568531 76.9547927,217.393639 151.254945,197.396875 C170.997512,192.083568 179.103835,177.977518 213.44034,192.397684 C332.48217,242.389594 582.869436,171.567722 565.101978,143.440607" id="Fill-1" fill="#FFFFFF" opacity="0.300000012" transform="translate(283.000000, 104.897106) scale(-1, 1) translate(-283.000000, -104.897106) "></path>
                <g id="Page-1" transform="translate(0.000000, 42.000000)">
                    <g id="Group-157" transform="translate(0.000000, 0.392000)">
                        <path d="M112.889,145.7517 C112.889,145.7517 32.931,147.2507 3.399,145.7517 C1.765,145.6687 0.439,143.4857 0.439,140.6907 C0.439,140.6907 -0.548,46.2687 0.439,12.5467 C0.52,9.7557 1.767,7.5187 3.399,7.4857 C29.844,6.9627 83.905,5.3687 112.889,7.4857 C114.522,7.6057 115.767,9.7557 115.849,12.5467 C116.835,46.2687 115.849,140.6907 115.849,140.6907 C115.849,143.4857 114.524,145.7517 112.889,145.7517" id="Fill-1" fill="#C8D4E5"></path>
                        <path d="M112.889,140.7517 C112.889,140.7517 32.931,142.2507 3.399,140.7517 C1.765,140.6687 0.439,138.4857 0.439,135.6907 C0.439,135.6907 -0.548,41.2687 0.439,7.5467 C0.52,4.7557 1.767,2.5187 3.399,2.4857 C29.844,1.9627 83.905,0.3687 112.889,2.4857 C114.522,2.6057 115.767,4.7557 115.849,7.5467 C116.835,41.2687 115.849,135.6907 115.849,135.6907 C115.849,138.4857 114.524,140.7517 112.889,140.7517" id="Fill-3" fill="#FFFFFF"></path>
                        <path d="M0.0609,82.4207 C-0.0541,55.0397 -0.0431,24.0357 0.4389,7.5467 C0.5199,4.7557 1.7669,2.5187 3.3989,2.4857 C29.8439,1.9627 83.9049,0.3687 112.8889,2.4857 C114.5219,2.6057 115.7669,4.7557 115.8489,7.5467 C116.3399,24.3377 116.3419,55.1777 116.2199,82.9177 C72.2879,85.4177 30.2879,84.4177 0.0609,82.4207" id="Fill-5" fill="#4BDF75"></path>
                        <path d="M86.2874,123.9412 C86.2874,119.8352 82.9374,116.9272 78.8524,116.5062 C68.2874,115.4182 49.2874,115.4182 37.7334,116.5062 C33.6454,116.8922 30.2994,119.8352 30.2994,123.9412 L30.2994,123.9442 C30.2994,128.0492 33.6474,130.9762 37.7334,131.3782 C48.2874,132.4182 67.2874,132.4182 78.8524,131.3782 C82.9424,131.0112 86.2874,128.0492 86.2874,123.9442 L86.2874,123.9412 Z" id="Fill-7" fill="#4BDF75"></path>
                        <path d="M43.4212,123.1091 C45.9002,122.9721 48.3792,122.8801 50.8582,122.7841 C53.3362,122.6931 55.8152,122.6361 58.2932,122.7201 C59.5322,122.7551 60.7722,122.7751 62.0112,122.7351 C63.2502,122.6881 64.4902,122.5671 65.7302,122.5161 C68.2082,122.4781 70.6872,122.6011 73.1652,123.0001 C73.4442,123.0451 73.6352,123.3071 73.5902,123.5871 C73.5542,123.8101 73.3772,123.9761 73.1652,124.0111 C70.6872,124.4091 68.2082,124.5321 65.7302,124.4941 C64.4902,124.4431 63.2502,124.3221 62.0112,124.2751 C60.7722,124.2361 59.5322,124.2551 58.2932,124.2901 C55.8152,124.3751 53.3362,124.3181 50.8582,124.2261 C48.3792,124.1301 45.9002,124.0381 43.4212,123.9011 C43.2022,123.8891 43.0352,123.7021 43.0472,123.4831 C43.0582,123.2801 43.2232,123.1211 43.4212,123.1091" id="Fill-9" fill="#FFFFFF"></path>
                        <path d="M22.2991,93.9109 C28.2981,93.7069 34.2971,93.5669 40.2961,93.4239 C46.2951,93.2869 52.2941,93.2009 58.2931,93.3289 C61.2931,93.3789 64.2921,93.4099 67.2921,93.3499 C70.2911,93.2799 73.2911,93.0979 76.2901,93.0209 C82.2891,92.9649 88.2881,93.1489 94.2871,93.7459 L94.2871,95.2649 C88.2881,95.8609 82.2891,96.0459 76.2901,95.9889 C73.2911,95.9129 70.2911,95.7299 67.2921,95.6599 C64.2921,95.6009 61.2931,95.6319 58.2931,95.6819 C52.2941,95.8089 46.2951,95.7229 40.2961,95.5869 C34.2971,95.4429 28.2981,95.3039 22.2991,95.0989 L22.2991,93.9109 Z" id="Fill-11" fill="#C8D4E5"></path>
                        <path d="M33.2991,102.9109 C37.4651,102.7069 41.6311,102.5669 45.7961,102.4239 C49.9621,102.2869 54.1271,102.2009 58.2931,102.3289 C60.3761,102.3789 62.4591,102.4099 64.5421,102.3499 C66.6241,102.2799 68.7071,102.0979 70.7901,102.0209 C74.9561,101.9649 79.1211,102.1489 83.2871,102.7459 L83.2871,104.2649 C79.1211,104.8609 74.9561,105.0459 70.7901,104.9889 C68.7071,104.9129 66.6241,104.7299 64.5421,104.6599 C62.4591,104.6009 60.3761,104.6319 58.2931,104.6819 C54.1271,104.8089 49.9621,104.7229 45.7961,104.5869 C41.6311,104.4429 37.4651,104.3039 33.2991,104.0989 L33.2991,102.9109 Z" id="Fill-13" fill="#C8D4E5"></path>
                        <path d="M13.0696,7.0017 C17.3236,7.0017 20.7776,10.4557 20.7776,14.7097 C20.7776,18.9637 17.3236,22.4177 13.0696,22.4177 C8.8156,22.4177 5.3616,18.9637 5.3616,14.7097 C5.3616,10.4557 8.8156,7.0017 13.0696,7.0017" id="Fill-15" fill="#FFFFFF"></path>
                        <path d="M9.7923,13.4773 C10.3783,13.8903 10.9243,14.3423 11.4893,14.7763 C12.0453,15.2193 12.5993,15.6643 13.0953,16.1653 L11.9193,16.1653 C12.2663,15.8263 12.6603,15.5343 13.0103,15.1973 C13.3683,14.8693 13.6433,14.4563 13.9113,14.0393 C14.1733,13.6133 14.5423,13.2963 14.9323,12.9993 C15.3273,12.7073 15.7523,12.4463 16.2693,12.2773 C16.5663,12.1793 16.8873,12.3413 16.9843,12.6383 C17.0233,12.7583 17.0213,12.8813 16.9843,12.9923 C16.8143,13.5093 16.5533,13.9343 16.2623,14.3303 C15.9653,14.7193 15.6473,15.0883 15.2233,15.3493 C14.8053,15.6193 14.3923,15.8923 14.0643,16.2513 C13.7273,16.6003 13.4363,16.9963 13.0953,17.3413 C12.7753,17.6663 12.2533,17.6703 11.9283,17.3503 L11.9273,17.3493 L11.9193,17.3413 C11.4173,16.8453 10.9733,16.2903 10.5293,15.7353 C10.0963,15.1693 9.6443,14.6233 9.2313,14.0383 C9.1043,13.8563 9.1473,13.6053 9.3293,13.4773 C9.4723,13.3763 9.6573,13.3823 9.7923,13.4773" id="Fill-17" fill="#49D271"></path>
                        <path d="M252.889,145.7517 C252.889,145.7517 172.931,147.2507 143.399,145.7517 C141.765,145.6687 140.439,143.4857 140.439,140.6907 C140.439,140.6907 139.452,46.2687 140.439,12.5467 C140.52,9.7557 141.767,7.5187 143.399,7.4857 C169.844,6.9627 223.905,5.3687 252.889,7.4857 C254.522,7.6057 255.767,9.7557 255.849,12.5467 C256.835,46.2687 255.849,140.6907 255.849,140.6907 C255.849,143.4857 254.524,145.7517 252.889,145.7517" id="Fill-19" fill="#C8D4E5"></path>
                        <path d="M252.889,140.7517 C252.889,140.7517 172.931,142.2507 143.399,140.7517 C141.765,140.6687 140.439,138.4857 140.439,135.6907 C140.439,135.6907 139.452,41.2687 140.439,7.5467 C140.52,4.7557 141.767,2.5187 143.399,2.4857 C169.844,1.9627 223.905,0.3687 252.889,2.4857 C254.522,2.6057 255.767,4.7557 255.849,7.5467 C256.835,41.2687 255.849,135.6907 255.849,135.6907 C255.849,138.4857 254.524,140.7517 252.889,140.7517" id="Fill-21" fill="#FFFFFF"></path>
                        <path d="M140.0609,82.4207 C139.9459,55.0397 139.9569,24.0357 140.4389,7.5467 C140.5199,4.7557 141.7669,2.5187 143.3989,2.4857 C169.8439,1.9627 223.9049,0.3687 252.8889,2.4857 C254.5219,2.6057 255.7669,4.7557 255.8489,7.5467 C256.3399,24.3377 256.3419,55.1777 256.2199,82.9177 C212.2879,85.4177 170.2879,84.4177 140.0609,82.4207" id="Fill-23" fill="#56A7FF"></path>
                        <path d="M226.2874,123.9412 C226.2874,119.8352 222.9374,116.9272 218.8524,116.5062 C208.2874,115.4182 189.2874,115.4182 177.7334,116.5062 C173.6454,116.8922 170.2994,119.8352 170.2994,123.9412 L170.2994,123.9442 C170.2994,128.0492 173.6474,130.9762 177.7334,131.3782 C188.2874,132.4182 207.2874,132.4182 218.8524,131.3782 C222.9424,131.0112 226.2874,128.0492 226.2874,123.9442 L226.2874,123.9412 Z" id="Fill-25" fill="#4BDF75"></path>
                        <path d="M183.4212,123.1091 C185.9002,122.9721 188.3792,122.8801 190.8582,122.7841 C193.3362,122.6931 195.8152,122.6361 198.2932,122.7201 C199.5322,122.7551 200.7722,122.7751 202.0112,122.7351 C203.2502,122.6881 204.4902,122.5671 205.7302,122.5161 C208.2082,122.4781 210.6872,122.6011 213.1652,123.0001 C213.4442,123.0451 213.6352,123.3071 213.5902,123.5871 C213.5542,123.8101 213.3772,123.9761 213.1652,124.0111 C210.6872,124.4091 208.2082,124.5321 205.7302,124.4941 C204.4902,124.4431 203.2502,124.3221 202.0112,124.2751 C200.7722,124.2361 199.5322,124.2551 198.2932,124.2901 C195.8152,124.3751 193.3362,124.3181 190.8582,124.2261 C188.3792,124.1301 185.9002,124.0381 183.4212,123.9011 C183.2022,123.8891 183.0352,123.7021 183.0472,123.4831 C183.0582,123.2801 183.2232,123.1211 183.4212,123.1091" id="Fill-27" fill="#FFFFFF"></path>
                        <path d="M162.2991,93.9109 C168.2981,93.7069 174.2971,93.5669 180.2961,93.4239 C186.2951,93.2869 192.2941,93.2009 198.2931,93.3289 C201.2931,93.3789 204.2921,93.4099 207.2921,93.3499 C210.2911,93.2799 213.2911,93.0979 216.2901,93.0209 C222.2891,92.9649 228.2881,93.1489 234.2871,93.7459 L234.2871,95.2649 C228.2881,95.8609 222.2891,96.0459 216.2901,95.9889 C213.2911,95.9129 210.2911,95.7299 207.2921,95.6599 C204.2921,95.6009 201.2931,95.6319 198.2931,95.6819 C192.2941,95.8089 186.2951,95.7229 180.2961,95.5869 C174.2971,95.4429 168.2981,95.3039 162.2991,95.0989 L162.2991,93.9109 Z" id="Fill-29" fill="#C8D4E5"></path>
                        <path d="M173.2991,102.9109 C177.4651,102.7069 181.6311,102.5669 185.7961,102.4239 C189.9621,102.2869 194.1271,102.2009 198.2931,102.3289 C200.3761,102.3789 202.4591,102.4099 204.5421,102.3499 C206.6241,102.2799 208.7071,102.0979 210.7901,102.0209 C214.9561,101.9649 219.1211,102.1489 223.2871,102.7459 L223.2871,104.2649 C219.1211,104.8609 214.9561,105.0459 210.7901,104.9889 C208.7071,104.9129 206.6241,104.7299 204.5421,104.6599 C202.4591,104.6009 200.3761,104.6319 198.2931,104.6819 C194.1271,104.8089 189.9621,104.7229 185.7961,104.5869 C181.6311,104.4429 177.4651,104.3039 173.2991,104.0989 L173.2991,102.9109 Z" id="Fill-31" fill="#C8D4E5"></path>
                        <path d="M153.0696,7.0017 C157.3236,7.0017 160.7776,10.4557 160.7776,14.7097 C160.7776,18.9637 157.3236,22.4177 153.0696,22.4177 C148.8156,22.4177 145.3616,18.9637 145.3616,14.7097 C145.3616,10.4557 148.8156,7.0017 153.0696,7.0017" id="Fill-33" fill="#FFFFFF"></path>
                        <path d="M149.7923,13.4773 C150.3783,13.8903 150.9243,14.3423 151.4893,14.7763 C152.0453,15.2193 152.5993,15.6643 153.0953,16.1653 L151.9193,16.1653 C152.2663,15.8263 152.6603,15.5343 153.0103,15.1973 C153.3683,14.8693 153.6433,14.4563 153.9113,14.0393 C154.1733,13.6133 154.5423,13.2963 154.9323,12.9993 C155.3273,12.7073 155.7523,12.4463 156.2693,12.2773 C156.5663,12.1793 156.8873,12.3413 156.9843,12.6383 C157.0233,12.7583 157.0213,12.8813 156.9843,12.9923 C156.8143,13.5093 156.5533,13.9343 156.2623,14.3303 C155.9653,14.7193 155.6473,15.0883 155.2233,15.3493 C154.8053,15.6193 154.3923,15.8923 154.0643,16.2513 C153.7273,16.6003 153.4363,16.9963 153.0953,17.3413 C152.7753,17.6663 152.2533,17.6703 151.9283,17.3503 L151.9273,17.3493 L151.9193,17.3413 C151.4173,16.8453 150.9733,16.2903 150.5293,15.7353 C150.0963,15.1693 149.6443,14.6233 149.2313,14.0383 C149.1043,13.8563 149.1473,13.6053 149.3293,13.4773 C149.4723,13.3763 149.6573,13.3823 149.7923,13.4773" id="Fill-35" fill="#49D271"></path>
                        <path d="M392.889,145.7283 C392.889,145.7283 312.931,147.2803 283.399,145.7283 C281.765,145.6423 280.439,143.3813 280.439,140.4873 C280.439,140.4873 279.452,42.6913 280.439,7.7653 C280.52,4.8743 281.767,2.5583 283.399,2.5243 C309.844,1.9823 363.905,0.3313 392.889,2.5243 C394.522,2.6483 395.767,4.8743 395.849,7.7653 C396.835,42.6913 395.849,140.4873 395.849,140.4873 C395.849,143.3813 394.524,145.7283 392.889,145.7283" id="Fill-37" fill="#FFFFFF"></path>
                        <polygon id="Fill-39" fill="#DCE7F2" points="392.8968 146.1238 386.8938 146.2468 386.8798 145.4228 392.8808 145.3318"></polygon>
                        <polygon id="Fill-41" fill="#DCE7F2" points="382.8919 146.323 376.8879 146.43 376.8749 145.553 382.8779 145.477"></polygon>
                        <polygon id="Fill-43" fill="#DCE7F2" points="372.8851 146.4978 366.8811 146.5918 366.8691 145.6618 372.8731 145.5998"></polygon>
                        <polygon id="Fill-45" fill="#DCE7F2" points="362.8802 146.6501 356.8732 146.7311 356.8632 145.7481 362.8692 145.6991"></polygon>
                        <polygon id="Fill-47" fill="#DCE7F2" points="352.8714 146.781 346.8624 146.846 346.8544 145.81 352.8614 145.776"></polygon>
                        <polygon id="Fill-49" fill="#DCE7F2" points="342.8597 146.8855 336.8557 146.9345 336.8507 145.8445 342.8537 145.8275"></polygon>
                        <polygon id="Fill-51" fill="#DCE7F2" points="332.8509 146.9597 326.8389 146.9877 326.8379 145.8457 332.8469 145.8497"></polygon>
                        <polygon id="Fill-53" fill="#DCE7F2" points="322.8304 146.9988 316.8214 146.9998 316.8264 145.8048 322.8324 145.8348"></polygon>
                        <polygon id="Fill-55" fill="#DCE7F2" points="312.8157 146.99 306.8057 146.956 306.8187 145.707 312.8237 145.773"></polygon>
                        <polygon id="Fill-57" fill="#DCE7F2" points="302.7991 146.9167 296.7871 146.8287 296.8141 145.5267 302.8171 145.6467"></polygon>
                        <polygon id="Fill-59" fill="#DCE7F2" points="292.7786 146.7439 286.7636 146.5569 286.8186 145.2119 292.8146 145.4219"></polygon>
                        <path d="M282.5609,146.2322 C281.9419,145.9792 281.4649,145.5512 281.1079,145.0902 C280.7499,144.6252 280.4919,144.1192 280.2929,143.6022 C279.8959,142.5712 279.7519,141.4682 279.7479,140.4202 L281.1269,140.4072 C281.1269,141.3572 281.2519,142.2722 281.5729,143.1152 C281.8759,143.9442 282.4179,144.7112 283.0539,144.9652 L282.5609,146.2322 Z" id="Fill-61" fill="#DCE7F2"></path>
                        <polygon id="Fill-63" fill="#DCE7F2" points="279.7044 136.4197 279.6414 130.4157 281.0524 130.4037 281.0964 136.4067"></polygon>
                        <polygon id="Fill-65" fill="#DCE7F2" points="279.6019 126.4138 279.5449 120.4088 280.9889 120.3978 281.0259 126.4018"></polygon>
                        <polygon id="Fill-67" fill="#DCE7F2" points="279.5091 116.406 279.4581 110.402 280.9341 110.392 280.9651 116.395"></polygon>
                        <polygon id="Fill-69" fill="#DCE7F2" points="279.4261 106.3972 279.3801 100.3892 280.8881 100.3802 280.9141 106.3882"></polygon>
                        <polygon id="Fill-71" fill="#DCE7F2" points="279.3519 96.3855 279.3129 90.3825 280.8529 90.3755 280.8729 96.3775"></polygon>
                        <polygon id="Fill-73" fill="#DCE7F2" points="279.2884 86.3796 279.2564 80.3766 280.8284 80.3716 280.8414 86.3726"></polygon>
                        <polygon id="Fill-75" fill="#DCE7F2" points="279.2366 76.3738 279.2116 70.3678 280.8166 70.3638 280.8216 76.3688"></polygon>
                        <polygon id="Fill-77" fill="#DCE7F2" points="279.1976 66.3621 279.1816 60.3511 280.8186 60.3511 280.8156 66.3601"></polygon>
                        <polygon id="Fill-79" fill="#DCE7F2" points="279.1751 56.3435 279.1761 50.3355 280.8351 50.3375 280.8251 56.3445"></polygon>
                        <polygon id="Fill-81" fill="#DCE7F2" points="279.1878 46.3298 279.2128 40.3218 280.8538 40.3278 280.8388 46.3338"></polygon>
                        <polygon id="Fill-83" fill="#DCE7F2" points="279.2357 36.3162 279.2807 30.3062 280.9027 30.3192 280.8687 36.3252"></polygon>
                        <polygon id="Fill-85" fill="#DCE7F2" points="279.3187 26.3005 279.3927 20.2895 280.9967 20.3115 280.9327 26.3165"></polygon>
                        <polygon id="Fill-87" fill="#DCE7F2" points="279.4554 16.283 279.5804 10.27 281.1654 10.307 281.0524 16.308"></polygon>
                        <path d="M279.8109,6.1531 C280.0149,5.0881 280.3439,4.0131 281.0729,3.0491 C281.4369,2.5761 281.9299,2.1161 282.6129,1.8801 C282.9209,1.7631 283.3949,1.7301 283.5889,1.7361 L284.3399,1.7211 L284.3729,3.2881 L283.6219,3.3041 C283.3159,3.3061 283.2859,3.3221 283.1189,3.3651 C282.8459,3.4571 282.5589,3.6891 282.3189,4.0081 C281.8279,4.6461 281.5269,5.5381 281.3639,6.4301 L279.8109,6.1531 Z" id="Fill-89" fill="#DCE7F2"></path>
                        <polygon id="Fill-91" fill="#DCE7F2" points="288.3411 1.6375 294.3441 1.5055 294.3791 3.0595 288.3761 3.1995"></polygon>
                        <polygon id="Fill-93" fill="#DCE7F2" points="298.3431 1.4167 304.3491 1.2867 304.3821 2.8267 298.3781 2.9657"></polygon>
                        <polygon id="Fill-95" fill="#DCE7F2" points="308.3499 1.2039 314.3579 1.0849 314.3869 2.6119 308.3829 2.7379"></polygon>
                        <polygon id="Fill-97" fill="#DCE7F2" points="318.3616 1.0115 324.3666 0.9115 324.3906 2.4255 318.3886 2.5325"></polygon>
                        <polygon id="Fill-99" fill="#DCE7F2" points="328.3714 0.8533 334.3774 0.7793 334.3944 2.2793 328.3924 2.3613"></polygon>
                        <polygon id="Fill-101" fill="#DCE7F2" points="338.3831 0.7244 344.3941 0.6614 344.4031 2.2214 338.3981 2.2494"></polygon>
                        <polygon id="Fill-103" fill="#DCE7F2" points="348.4017 0.6306 354.4177 0.6086 354.4147 2.2306 348.4067 2.2166"></polygon>
                        <polygon id="Fill-105" fill="#DCE7F2" points="358.4271 0.6101 364.4401 0.6431 364.4201 2.3271 358.4181 2.2571"></polygon>
                        <polygon id="Fill-107" fill="#DCE7F2" points="368.4534 0.6873 374.4674 0.7953 374.4224 2.5403 368.4244 2.3953"></polygon>
                        <polygon id="Fill-109" fill="#DCE7F2" points="378.4769 0.9001 384.4929 1.1181 384.4089 2.9211 378.4189 2.6681"></polygon>
                        <path d="M388.5071,1.3191 L391.5141,1.5131 L393.0451,1.6161 C393.7971,1.6921 394.4471,2.0841 394.9041,2.5311 L393.6201,3.8551 C393.3651,3.6071 393.1001,3.4701 392.8491,3.4451 L391.3851,3.3431 L388.4011,3.1391 L388.5071,1.3191 Z" id="Fill-111" fill="#DCE7F2"></path>
                        <path d="M396.7025,6.7107 C396.7455,7.2547 396.7935,7.8147 396.7945,8.2967 L396.8335,9.7997 L396.9105,12.8067 L395.0295,12.8447 L394.9635,9.8467 L394.9305,8.3477 C394.9295,7.8277 394.8865,7.3907 394.8555,6.9357 L396.7025,6.7107 Z" id="Fill-113" fill="#DCE7F2"></path>
                        <polygon id="Fill-115" fill="#DCE7F2" points="396.9905 16.8142 397.0845 22.8252 395.1655 22.8472 395.0945 16.8442"></polygon>
                        <polygon id="Fill-117" fill="#DCE7F2" points="397.1331 26.8328 397.1931 32.8478 395.2371 32.8598 395.1991 26.8508"></polygon>
                        <polygon id="Fill-119" fill="#DCE7F2" points="397.223 36.8562 397.26 42.8552 395.268 42.8622 395.253 36.8662"></polygon>
                        <polygon id="Fill-121" fill="#DCE7F2" points="397.2669 46.865 397.2529 52.868 395.3169 52.869 395.2839 46.87"></polygon>
                        <polygon id="Fill-123" fill="#DCE7F2" points="397.2396 56.8757 397.2136 62.8877 395.3566 62.8857 395.3356 56.8757"></polygon>
                        <polygon id="Fill-125" fill="#DCE7F2" points="397.1917 66.8923 397.1557 72.8993 395.3797 72.8953 395.3677 66.8883"></polygon>
                        <polygon id="Fill-127" fill="#DCE7F2" points="397.1282 76.9041 397.0842 82.9121 395.3882 82.9061 395.3852 76.8991"></polygon>
                        <polygon id="Fill-129" fill="#DCE7F2" points="397.0521 86.9177 397.0001 92.9257 395.3851 92.9177 395.3881 86.9097"></polygon>
                        <polygon id="Fill-131" fill="#DCE7F2" points="396.9642 96.9304 396.9062 102.9394 395.3702 102.9304 395.3802 96.9224"></polygon>
                        <polygon id="Fill-133" fill="#DCE7F2" points="396.8655 106.9451 396.7985 112.9571 395.3505 112.9471 395.3615 106.9351"></polygon>
                        <polygon id="Fill-135" fill="#DCE7F2" points="396.7444 116.9646 396.6604 122.9726 395.3414 122.9616 395.3484 116.9536"></polygon>
                        <polygon id="Fill-137" fill="#DCE7F2" points="396.6028 126.9773 396.5138 132.9853 395.3228 132.9743 395.3348 126.9663"></polygon>
                        <path d="M396.4525,136.9919 L396.4045,139.9959 C396.3965,140.4839 396.3985,141.0259 396.3325,141.5539 C396.2705,142.0819 396.1655,142.6059 396.0065,143.1199 L394.9885,142.8109 C395.1205,142.3659 395.2085,141.9029 395.2565,141.4349 C395.3085,140.9659 395.3015,140.5039 395.3035,139.9899 L395.3125,136.9809 L396.4525,136.9919 Z" id="Fill-139" fill="#DCE7F2"></path>
                        <path d="M286.2015,83.8044 C284.1565,83.6854 282.1565,83.5614 280.2055,83.4334 L280.3365,81.4374 C282.2835,81.5654 284.2775,81.6894 286.3185,81.8084 L286.2015,83.8044 Z M390.2765,84.2374 L390.1775,82.2394 C392.1675,82.1394 394.1635,82.0334 396.1635,81.9194 L396.2765,83.9154 C394.2725,84.0304 392.2725,84.1374 390.2765,84.2374 L390.2765,84.2374 Z M296.1995,84.3294 C294.1625,84.2344 292.1625,84.1334 290.1995,84.0294 L290.3065,82.0314 C292.2635,82.1354 294.2605,82.2364 296.2935,82.3314 L296.1995,84.3294 Z M380.2735,84.6794 L380.1955,82.6814 C382.1855,82.6044 384.1825,82.5204 386.1855,82.4294 L386.2755,84.4274 C384.2685,84.5184 382.2675,84.6024 380.2735,84.6794 L380.2735,84.6794 Z M306.2015,84.7454 C304.1715,84.6724 302.1705,84.5934 300.1995,84.5094 L300.2855,82.5114 C302.2505,82.5954 304.2475,82.6744 306.2735,82.7474 L306.2015,84.7454 Z M370.2665,85.0154 L370.2105,83.0154 C372.1995,82.9594 374.1975,82.8984 376.2025,82.8284 L376.2705,84.8264 C374.2625,84.8964 372.2605,84.9594 370.2665,85.0154 L370.2665,85.0154 Z M316.2075,85.0584 C314.1805,85.0054 312.1795,84.9474 310.2045,84.8824 L310.2685,82.8844 C312.2395,82.9474 314.2375,83.0054 316.2605,83.0584 L316.2075,85.0584 Z M360.2565,85.2444 L360.2215,83.2444 C362.2095,83.2094 364.2075,83.1674 366.2155,83.1194 L366.2625,85.1194 C364.2505,85.1674 362.2485,85.2094 360.2565,85.2444 L360.2565,85.2444 Z M326.2175,85.2694 C324.1935,85.2374 322.1915,85.1994 320.2105,85.1544 L320.2555,83.1544 C322.2325,83.1994 324.2305,83.2374 326.2485,83.2694 L326.2175,85.2694 Z M350.2425,85.3714 L350.2265,83.3714 C352.2135,83.3564 354.2125,83.3344 356.2225,83.3074 L356.2505,85.3074 C354.2355,85.3344 352.2325,85.3564 350.2425,85.3714 L350.2425,85.3714 Z M336.2255,85.3804 C334.2055,85.3674 332.2035,85.3494 330.2195,85.3254 L330.2445,83.3254 C332.2245,83.3494 334.2225,83.3674 336.2375,83.3804 L336.2255,85.3804 Z M342.5805,85.4014 L340.2285,85.3984 L340.2345,83.3984 L342.5795,83.4014 C343.7895,83.4004 345.0065,83.3984 346.2275,83.3934 L346.2355,85.3934 C345.0125,85.3984 343.7935,85.4004 342.5805,85.4014 L342.5805,85.4014 Z" id="Fill-141" fill="#DCE7F2"></path>
                        <path d="M366.2874,123.9412 C366.2874,119.8352 362.9374,116.9272 358.8524,116.5062 C348.2874,115.4182 329.2874,115.4182 317.7334,116.5062 C313.6454,116.8922 310.2994,119.8352 310.2994,123.9412 L310.2994,123.9442 C310.2994,128.0492 313.6474,130.9762 317.7334,131.3782 C328.2874,132.4182 347.2874,132.4182 358.8524,131.3782 C362.9424,131.0112 366.2874,128.0492 366.2874,123.9442 L366.2874,123.9412 Z" id="Fill-143" fill="#C8D4E5"></path>
                        <path d="M323.4212,123.1091 C325.9002,122.9721 328.3792,122.8801 330.8582,122.7841 C333.3362,122.6931 335.8152,122.6361 338.2932,122.7201 C339.5322,122.7551 340.7722,122.7751 342.0112,122.7351 C343.2502,122.6881 344.4902,122.5671 345.7302,122.5161 C348.2082,122.4781 350.6872,122.6011 353.1652,123.0001 C353.4442,123.0451 353.6352,123.3071 353.5902,123.5871 C353.5542,123.8101 353.3772,123.9761 353.1652,124.0111 C350.6872,124.4091 348.2082,124.5321 345.7302,124.4941 C344.4902,124.4431 343.2502,124.3221 342.0112,124.2751 C340.7722,124.2361 339.5322,124.2551 338.2932,124.2901 C335.8152,124.3751 333.3362,124.3181 330.8582,124.2261 C328.3792,124.1301 325.9002,124.0381 323.4212,123.9011 C323.2022,123.8891 323.0352,123.7021 323.0472,123.4831 C323.0582,123.2801 323.2232,123.1211 323.4212,123.1091" id="Fill-145" fill="#FFFFFF"></path>
                        <path d="M302.2991,93.9109 C308.2981,93.7069 314.2971,93.5669 320.2961,93.4239 C326.2951,93.2869 332.2941,93.2009 338.2931,93.3289 C341.2931,93.3789 344.2921,93.4099 347.2921,93.3499 C350.2911,93.2799 353.2911,93.0979 356.2901,93.0209 C362.2891,92.9649 368.2881,93.1489 374.2871,93.7459 L374.2871,95.2649 C368.2881,95.8609 362.2891,96.0459 356.2901,95.9889 C353.2911,95.9129 350.2911,95.7299 347.2921,95.6599 C344.2921,95.6009 341.2931,95.6319 338.2931,95.6819 C332.2941,95.8089 326.2951,95.7229 320.2961,95.5869 C314.2971,95.4429 308.2981,95.3039 302.2991,95.0989 L302.2991,93.9109 Z" id="Fill-147" fill="#C8D4E5"></path>
                        <path d="M313.2991,102.9109 C317.4651,102.7069 321.6311,102.5669 325.7961,102.4239 C329.9621,102.2869 334.1271,102.2009 338.2931,102.3289 C340.3761,102.3789 342.4591,102.4099 344.5421,102.3499 C346.6241,102.2799 348.7071,102.0979 350.7901,102.0209 C354.9561,101.9649 359.1211,102.1489 363.2871,102.7459 L363.2871,104.2649 C359.1211,104.8609 354.9561,105.0459 350.7901,104.9889 C348.7071,104.9129 346.6241,104.7299 344.5421,104.6599 C342.4591,104.6009 340.3761,104.6319 338.2931,104.6819 C334.1271,104.8089 329.9621,104.7229 325.7961,104.5869 C321.6311,104.4429 317.4651,104.3039 313.2991,104.0989 L313.2991,102.9109 Z" id="Fill-149" fill="#C8D4E5"></path>
                        <path d="M293.0696,7.0017 C297.3236,7.0017 300.7776,10.4557 300.7776,14.7097 C300.7776,18.9637 297.3236,22.4177 293.0696,22.4177 C288.8156,22.4177 285.3616,18.9637 285.3616,14.7097 C285.3616,10.4557 288.8156,7.0017 293.0696,7.0017" id="Fill-151" fill="#C8D4E5"></path>
                        <path d="M289.7923,13.4773 C290.3783,13.8903 290.9243,14.3423 291.4893,14.7763 C292.0453,15.2193 292.5993,15.6643 293.0953,16.1653 L291.9193,16.1653 C292.2663,15.8263 292.6603,15.5343 293.0103,15.1973 C293.3683,14.8693 293.6433,14.4563 293.9113,14.0393 C294.1733,13.6133 294.5423,13.2963 294.9323,12.9993 C295.3273,12.7073 295.7523,12.4463 296.2693,12.2773 C296.5663,12.1793 296.8873,12.3413 296.9843,12.6383 C297.0233,12.7583 297.0213,12.8813 296.9843,12.9923 C296.8143,13.5093 296.5533,13.9343 296.2623,14.3303 C295.9653,14.7193 295.6473,15.0883 295.2233,15.3493 C294.8053,15.6193 294.3923,15.8923 294.0643,16.2513 C293.7273,16.6003 293.4363,16.9963 293.0953,17.3413 C292.7753,17.6663 292.2533,17.6703 291.9283,17.3503 L291.9273,17.3493 L291.9193,17.3413 C291.4173,16.8453 290.9733,16.2903 290.5293,15.7353 C290.0963,15.1693 289.6443,14.6233 289.2313,14.0383 C289.1043,13.8563 289.1473,13.6053 289.3293,13.4773 C289.4723,13.3763 289.6573,13.3823 289.7923,13.4773" id="Fill-153" fill="#FFFFFF"></path>
                        <path d="M403.6761,71.4177 C405.5951,70.4177 408.5951,67.4177 409.5951,65.3117 C407.5951,61.4177 402.5951,57.4177 398.7871,54.1607 C400.5951,52.4177 404.7061,48.0547 404.7061,48.0547 C404.7061,48.0547 389.5951,44.4177 382.6721,43.6407 C382.5951,51.4177 386.9501,66.3737 386.9501,66.3737 C386.9501,66.3737 390.5951,62.4177 392.8691,60.2677 C395.5951,63.4177 400.5951,69.4177 403.6761,71.4177" id="Fill-155" fill="#445A6C"></path>
                    </g>
                    <g id="Group-164" transform="translate(368.000000, 30.392000)" fill="#FFED72">
                        <path d="M11.096,0.0554 C11.147,0.0354 11.198,0.0194 11.252,0.0144 C11.39,-0.0006 11.53,0.0434 11.632,0.1364 C11.664,0.1614 11.689,0.1944 11.713,0.2264 C13.426,2.7734 14.777,5.4314 16.141,8.0214 C16.199,8.1304 16.221,8.2514 16.193,8.3764 C16.135,8.6234 15.89,8.7914 15.637,8.7564 C15.583,8.7474 15.532,8.7314 15.483,8.7054 C15.408,8.6674 15.35,8.6114 15.3,8.5434 C13.293,6.2134 11.843,3.5914 10.872,0.7504 C10.848,0.7014 10.825,0.6534 10.817,0.5994 C10.791,0.4624 10.825,0.3204 10.907,0.2094 C10.94,0.1654 10.981,0.1304 11.025,0.0984 C11.06,0.0754 11.06,0.0754 11.096,0.0554" id="Fill-158"></path>
                        <path d="M5.2689,4.4705 C5.3119,4.4355 5.3559,4.4055 5.4079,4.3855 C5.5349,4.3315 5.6809,4.3345 5.8049,4.3925 C5.8429,4.4105 5.8759,4.4335 5.9099,4.4575 C8.2769,6.4115 10.3269,8.5765 12.3709,10.6695 C12.4569,10.7615 12.5139,10.8695 12.5219,10.9975 C12.5369,11.2515 12.3499,11.4815 12.0969,11.5175 C12.0429,11.5265 11.9879,11.5255 11.9339,11.5135 C11.8509,11.4985 11.7799,11.4615 11.7129,11.4125 C9.1269,9.7475 6.9909,7.6475 5.2529,5.2005 C5.2149,5.1585 5.1809,5.1175 5.1559,5.0685 C5.0919,4.9465 5.0839,4.7995 5.1309,4.6715 C5.1499,4.6185 5.1799,4.5735 5.2119,4.5295 C5.2409,4.4985 5.2409,4.4985 5.2689,4.4705" id="Fill-160"></path>
                        <path d="M0.9388,10.3591 C0.9688,10.3131 1.0038,10.2721 1.0458,10.2361 C1.1538,10.1511 1.2938,10.1121 1.4308,10.1321 C1.4718,10.1381 1.5098,10.1511 1.5478,10.1651 C4.3748,11.3651 6.9558,12.8581 9.5098,14.2821 C9.6188,14.3451 9.7038,14.4351 9.7478,14.5541 C9.8348,14.7941 9.7198,15.0681 9.4898,15.1741 C9.4398,15.1961 9.3858,15.2111 9.3318,15.2151 C9.2488,15.2251 9.1688,15.2101 9.0908,15.1811 C6.1358,14.3211 3.4918,12.9141 1.1298,11.0631 C1.0828,11.0361 1.0388,11.0051 0.9998,10.9651 C0.9048,10.8661 0.8548,10.7281 0.8638,10.5901 C0.8678,10.5351 0.8808,10.4841 0.9008,10.4321 C0.9178,10.3941 0.9178,10.3951 0.9388,10.3591" id="Fill-162"></path>
                    </g>
                    <g id="Group-281" transform="translate(419.000000, 0.392000)">
                        <polygon id="Fill-165" fill="#FFFFFF" points="113.8968 146.1238 107.8938 146.2468 107.8798 145.4228 113.8808 145.3318"></polygon>
                        <polygon id="Fill-167" fill="#FFFFFF" points="103.8919 146.323 97.8879 146.43 97.8749 145.553 103.8779 145.477"></polygon>
                        <polygon id="Fill-169" fill="#FFFFFF" points="93.8851 146.4978 87.8811 146.5918 87.8691 145.6618 93.8731 145.5998"></polygon>
                        <polygon id="Fill-171" fill="#FFFFFF" points="83.8802 146.6501 77.8732 146.7311 77.8632 145.7481 83.8692 145.6991"></polygon>
                        <polygon id="Fill-173" fill="#FFFFFF" points="73.8714 146.781 67.8624 146.846 67.8544 145.81 73.8614 145.776"></polygon>
                        <polygon id="Fill-175" fill="#FFFFFF" points="63.8597 146.8855 57.8557 146.9345 57.8507 145.8445 63.8537 145.8275"></polygon>
                        <polygon id="Fill-177" fill="#FFFFFF" points="53.8509 146.9597 47.8389 146.9877 47.8379 145.8457 53.8469 145.8497"></polygon>
                        <polygon id="Fill-179" fill="#FFFFFF" points="43.8304 146.9988 37.8214 146.9998 37.8264 145.8048 43.8324 145.8348"></polygon>
                        <polygon id="Fill-181" fill="#FFFFFF" points="33.8157 146.99 27.8057 146.956 27.8187 145.707 33.8237 145.773"></polygon>
                        <polygon id="Fill-183" fill="#FFFFFF" points="23.7991 146.9167 17.7871 146.8287 17.8141 145.5267 23.8171 145.6467"></polygon>
                        <polygon id="Fill-185" fill="#FFFFFF" points="13.7786 146.7439 7.7636 146.5569 7.8186 145.2119 13.8146 145.4219"></polygon>
                        <path d="M3.5609,146.2322 C2.9419,145.9792 2.4649,145.5512 2.1079,145.0902 C1.7499,144.6252 1.4919,144.1192 1.2929,143.6022 C0.8959,142.5712 0.7519,141.4682 0.7479,140.4202 L2.1269,140.4072 C2.1269,141.3572 2.2519,142.2722 2.5729,143.1152 C2.8759,143.9442 3.4179,144.7112 4.0539,144.9652 L3.5609,146.2322 Z" id="Fill-187" fill="#FFFFFF"></path>
                        <polygon id="Fill-189" fill="#FFFFFF" points="0.7044 136.4197 0.6414 130.4157 2.0524 130.4037 2.0964 136.4067"></polygon>
                        <polygon id="Fill-191" fill="#FFFFFF" points="0.6019 126.4138 0.5449 120.4088 1.9889 120.3978 2.0259 126.4018"></polygon>
                        <polygon id="Fill-193" fill="#FFFFFF" points="0.5091 116.406 0.4581 110.402 1.9341 110.392 1.9651 116.395"></polygon>
                        <polygon id="Fill-195" fill="#FFFFFF" points="0.4261 106.3972 0.3801 100.3892 1.8881 100.3802 1.9141 106.3882"></polygon>
                        <polygon id="Fill-197" fill="#FFFFFF" points="0.3519 96.3855 0.3129 90.3825 1.8529 90.3755 1.8729 96.3775"></polygon>
                        <polygon id="Fill-199" fill="#FFFFFF" points="0.2884 86.3796 0.2564 80.3766 1.8284 80.3716 1.8414 86.3726"></polygon>
                        <polygon id="Fill-201" fill="#FFFFFF" points="0.2366 76.3738 0.2116 70.3678 1.8166 70.3638 1.8216 76.3688"></polygon>
                        <polygon id="Fill-203" fill="#FFFFFF" points="0.1976 66.3621 0.1816 60.3511 1.8186 60.3511 1.8156 66.3601"></polygon>
                        <polygon id="Fill-205" fill="#FFFFFF" points="0.1751 56.3435 0.1761 50.3355 1.8351 50.3375 1.8251 56.3445"></polygon>
                        <polygon id="Fill-207" fill="#FFFFFF" points="0.1878 46.3298 0.2128 40.3218 1.8538 40.3278 1.8388 46.3338"></polygon>
                        <polygon id="Fill-209" fill="#FFFFFF" points="0.2357 36.3162 0.2807 30.3062 1.9027 30.3192 1.8687 36.3252"></polygon>
                        <polygon id="Fill-211" fill="#FFFFFF" points="0.3187 26.3005 0.3927 20.2895 1.9967 20.3115 1.9327 26.3165"></polygon>
                        <polygon id="Fill-213" fill="#FFFFFF" points="0.4554 16.283 0.5804 10.27 2.1654 10.307 2.0524 16.308"></polygon>
                        <path d="M0.8109,6.1531 C1.0149,5.0881 1.3439,4.0131 2.0729,3.0491 C2.4369,2.5761 2.9299,2.1161 3.6129,1.8801 C3.9209,1.7631 4.3949,1.7301 4.5889,1.7361 L5.3399,1.7211 L5.3729,3.2881 L4.6219,3.3041 C4.3159,3.3061 4.2859,3.3221 4.1189,3.3651 C3.8459,3.4571 3.5589,3.6891 3.3189,4.0081 C2.8279,4.6461 2.5269,5.5381 2.3639,6.4301 L0.8109,6.1531 Z" id="Fill-215" fill="#FFFFFF"></path>
                        <polygon id="Fill-217" fill="#FFFFFF" points="9.3411 1.6375 15.3441 1.5055 15.3791 3.0595 9.3761 3.1995"></polygon>
                        <polygon id="Fill-219" fill="#FFFFFF" points="19.3431 1.4167 25.3491 1.2867 25.3821 2.8267 19.3781 2.9657"></polygon>
                        <polygon id="Fill-221" fill="#FFFFFF" points="29.3499 1.2039 35.3579 1.0849 35.3869 2.6119 29.3829 2.7379"></polygon>
                        <polygon id="Fill-223" fill="#FFFFFF" points="39.3616 1.0115 45.3666 0.9115 45.3906 2.4255 39.3886 2.5325"></polygon>
                        <polygon id="Fill-225" fill="#FFFFFF" points="49.3714 0.8533 55.3774 0.7793 55.3944 2.2793 49.3924 2.3613"></polygon>
                        <polygon id="Fill-227" fill="#FFFFFF" points="59.3831 0.7244 65.3941 0.6614 65.4031 2.2214 59.3981 2.2494"></polygon>
                        <polygon id="Fill-229" fill="#FFFFFF" points="69.4017 0.6306 75.4177 0.6086 75.4147 2.2306 69.4067 2.2166"></polygon>
                        <polygon id="Fill-231" fill="#FFFFFF" points="79.4271 0.6101 85.4401 0.6431 85.4201 2.3271 79.4181 2.2571"></polygon>
                        <polygon id="Fill-233" fill="#FFFFFF" points="89.4534 0.6873 95.4674 0.7953 95.4224 2.5403 89.4244 2.3953"></polygon>
                        <polygon id="Fill-235" fill="#FFFFFF" points="99.4769 0.9001 105.4929 1.1181 105.4089 2.9211 99.4189 2.6681"></polygon>
                        <path d="M109.5071,1.3191 L112.5141,1.5131 L114.0451,1.6161 C114.7971,1.6921 115.4471,2.0841 115.9041,2.5311 L114.6201,3.8551 C114.3651,3.6071 114.1001,3.4701 113.8491,3.4451 L112.3851,3.3431 L109.4011,3.1391 L109.5071,1.3191 Z" id="Fill-237" fill="#FFFFFF"></path>
                        <path d="M117.7025,6.7107 C117.7455,7.2547 117.7935,7.8147 117.7945,8.2967 L117.8335,9.7997 L117.9105,12.8067 L116.0295,12.8447 L115.9635,9.8467 L115.9305,8.3477 C115.9295,7.8277 115.8865,7.3907 115.8555,6.9357 L117.7025,6.7107 Z" id="Fill-239" fill="#FFFFFF"></path>
                        <polygon id="Fill-241" fill="#FFFFFF" points="117.9905 16.8142 118.0845 22.8252 116.1655 22.8472 116.0945 16.8442"></polygon>
                        <polygon id="Fill-243" fill="#FFFFFF" points="118.1331 26.8328 118.1931 32.8478 116.2371 32.8598 116.1991 26.8508"></polygon>
                        <polygon id="Fill-245" fill="#FFFFFF" points="118.223 36.8562 118.26 42.8552 116.268 42.8622 116.253 36.8662"></polygon>
                        <polygon id="Fill-247" fill="#FFFFFF" points="118.2669 46.865 118.2529 52.868 116.3169 52.869 116.2839 46.87"></polygon>
                        <polygon id="Fill-249" fill="#FFFFFF" points="118.2396 56.8757 118.2136 62.8877 116.3566 62.8857 116.3356 56.8757"></polygon>
                        <polygon id="Fill-251" fill="#FFFFFF" points="118.1917 66.8923 118.1557 72.8993 116.3797 72.8953 116.3677 66.8883"></polygon>
                        <polygon id="Fill-253" fill="#FFFFFF" points="118.1282 76.9041 118.0842 82.9121 116.3882 82.9061 116.3852 76.8991"></polygon>
                        <polygon id="Fill-255" fill="#FFFFFF" points="118.0521 86.9177 118.0001 92.9257 116.3851 92.9177 116.3881 86.9097"></polygon>
                        <polygon id="Fill-257" fill="#FFFFFF" points="117.9642 96.9304 117.9062 102.9394 116.3702 102.9304 116.3802 96.9224"></polygon>
                        <polygon id="Fill-259" fill="#FFFFFF" points="117.8655 106.9451 117.7985 112.9571 116.3505 112.9471 116.3615 106.9351"></polygon>
                        <polygon id="Fill-261" fill="#FFFFFF" points="117.7444 116.9646 117.6604 122.9726 116.3414 122.9616 116.3484 116.9536"></polygon>
                        <polygon id="Fill-263" fill="#FFFFFF" points="117.6028 126.9773 117.5138 132.9853 116.3228 132.9743 116.3348 126.9663"></polygon>
                        <path d="M117.4525,136.9919 L117.4045,139.9959 C117.3965,140.4839 117.3985,141.0259 117.3325,141.5539 C117.2705,142.0819 117.1655,142.6059 117.0065,143.1199 L115.9885,142.8109 C116.1205,142.3659 116.2085,141.9029 116.2565,141.4349 C116.3085,140.9659 116.3015,140.5039 116.3035,139.9899 L116.3125,136.9809 L117.4525,136.9919 Z" id="Fill-265" fill="#FFFFFF"></path>
                        <path d="M7.2015,83.8044 C5.1565,83.6854 3.1565,83.5614 1.2055,83.4334 L1.3365,81.4374 C3.2835,81.5654 5.2775,81.6894 7.3185,81.8084 L7.2015,83.8044 Z M111.2765,84.2374 L111.1775,82.2394 C113.1675,82.1394 115.1635,82.0334 117.1635,81.9194 L117.2765,83.9154 C115.2725,84.0304 113.2725,84.1374 111.2765,84.2374 L111.2765,84.2374 Z M17.1995,84.3294 C15.1625,84.2344 13.1625,84.1334 11.1995,84.0294 L11.3065,82.0314 C13.2635,82.1354 15.2605,82.2364 17.2935,82.3314 L17.1995,84.3294 Z M101.2735,84.6794 L101.1955,82.6814 C103.1855,82.6044 105.1825,82.5204 107.1855,82.4294 L107.2755,84.4274 C105.2685,84.5184 103.2675,84.6024 101.2735,84.6794 L101.2735,84.6794 Z M27.2015,84.7454 C25.1715,84.6724 23.1705,84.5934 21.1995,84.5094 L21.2855,82.5114 C23.2505,82.5954 25.2475,82.6744 27.2735,82.7474 L27.2015,84.7454 Z M91.2665,85.0154 L91.2105,83.0154 C93.1995,82.9594 95.1975,82.8984 97.2025,82.8284 L97.2705,84.8264 C95.2625,84.8964 93.2605,84.9594 91.2665,85.0154 L91.2665,85.0154 Z M37.2075,85.0584 C35.1805,85.0054 33.1795,84.9474 31.2045,84.8824 L31.2685,82.8844 C33.2395,82.9474 35.2375,83.0054 37.2605,83.0584 L37.2075,85.0584 Z M81.2565,85.2444 L81.2215,83.2444 C83.2095,83.2094 85.2075,83.1674 87.2155,83.1194 L87.2625,85.1194 C85.2505,85.1674 83.2485,85.2094 81.2565,85.2444 L81.2565,85.2444 Z M47.2175,85.2694 C45.1935,85.2374 43.1915,85.1994 41.2105,85.1544 L41.2555,83.1544 C43.2325,83.1994 45.2305,83.2374 47.2485,83.2694 L47.2175,85.2694 Z M71.2425,85.3714 L71.2265,83.3714 C73.2135,83.3564 75.2125,83.3344 77.2225,83.3074 L77.2505,85.3074 C75.2355,85.3344 73.2325,85.3564 71.2425,85.3714 L71.2425,85.3714 Z M57.2255,85.3804 C55.2055,85.3674 53.2035,85.3494 51.2195,85.3254 L51.2445,83.3254 C53.2245,83.3494 55.2225,83.3674 57.2375,83.3804 L57.2255,85.3804 Z M63.5805,85.4014 L61.2285,85.3984 L61.2345,83.3984 L63.5795,83.4014 C64.7895,83.4004 66.0065,83.3984 67.2275,83.3934 L67.2355,85.3934 C66.0125,85.3984 64.7935,85.4004 63.5805,85.4014 L63.5805,85.4014 Z" id="Fill-267" fill="#FFFFFF"></path>
                        <path d="M87.2874,123.9412 C87.2874,119.8352 83.9374,116.9272 79.8524,116.5062 C69.2874,115.4182 50.2874,115.4182 38.7334,116.5062 C34.6454,116.8922 31.2994,119.8352 31.2994,123.9412 L31.2994,123.9442 C31.2994,128.0492 34.6474,130.9762 38.7334,131.3782 C49.2874,132.4182 68.2874,132.4182 79.8524,131.3782 C83.9424,131.0112 87.2874,128.0492 87.2874,123.9442 L87.2874,123.9412 Z" id="Stroke-269" stroke="#FFFFFF"></path>
                        <path d="M44.4212,123.1091 C46.9002,122.9721 49.3792,122.8801 51.8582,122.7841 C54.3362,122.6931 56.8152,122.6361 59.2932,122.7201 C60.5322,122.7551 61.7722,122.7751 63.0112,122.7351 C64.2502,122.6881 65.4902,122.5671 66.7292,122.5161 C69.2082,122.4781 71.6872,122.6011 74.1652,123.0001 C74.4442,123.0451 74.6352,123.3071 74.5902,123.5871 C74.5542,123.8101 74.3772,123.9761 74.1652,124.0111 C71.6872,124.4091 69.2082,124.5321 66.7292,124.4941 C65.4902,124.4431 64.2502,124.3221 63.0112,124.2751 C61.7722,124.2361 60.5322,124.2551 59.2932,124.2901 C56.8152,124.3751 54.3362,124.3181 51.8582,124.2261 C49.3792,124.1301 46.9002,124.0381 44.4212,123.9011 C44.2022,123.8891 44.0352,123.7021 44.0472,123.4831 C44.0592,123.2801 44.2232,123.1211 44.4212,123.1091" id="Fill-271" fill="#FFFFFF"></path>
                        <path d="M23.2991,93.9109 C29.2981,93.7069 35.2971,93.5669 41.2961,93.4239 C47.2951,93.2869 53.2941,93.2009 59.2931,93.3289 C62.2931,93.3789 65.2921,93.4099 68.2921,93.3499 C71.2911,93.2799 74.2911,93.0979 77.2901,93.0209 C83.2891,92.9649 89.2881,93.1489 95.2871,93.7459 L95.2871,95.2649 C89.2881,95.8609 83.2891,96.0459 77.2901,95.9889 C74.2911,95.9129 71.2911,95.7299 68.2921,95.6599 C65.2921,95.6009 62.2931,95.6319 59.2931,95.6819 C53.2941,95.8089 47.2951,95.7229 41.2961,95.5869 C35.2971,95.4429 29.2981,95.3039 23.2991,95.0989 L23.2991,93.9109 Z" id="Fill-273" fill="#FFFFFF"></path>
                        <path d="M34.2991,102.9109 C38.4651,102.7069 42.6311,102.5669 46.7961,102.4239 C50.9621,102.2869 55.1271,102.2009 59.2931,102.3289 C61.3761,102.3789 63.4591,102.4099 65.5421,102.3499 C67.6241,102.2799 69.7071,102.0979 71.7901,102.0209 C75.9561,101.9649 80.1211,102.1489 84.2871,102.7459 L84.2871,104.2649 C80.1211,104.8609 75.9561,105.0459 71.7901,104.9889 C69.7071,104.9129 67.6241,104.7299 65.5421,104.6599 C63.4591,104.6009 61.3761,104.6319 59.2931,104.6819 C55.1271,104.8089 50.9621,104.7229 46.7961,104.5869 C42.6311,104.4429 38.4651,104.3039 34.2991,104.0989 L34.2991,102.9109 Z" id="Fill-275" fill="#FFFFFF"></path>
                        <path d="M14.0696,7.0017 C18.3236,7.0017 21.7776,10.4557 21.7776,14.7097 C21.7776,18.9637 18.3236,22.4177 14.0696,22.4177 C9.8156,22.4177 6.3616,18.9637 6.3616,14.7097 C6.3616,10.4557 9.8156,7.0017 14.0696,7.0017 Z" id="Stroke-277" stroke="#FFFFFF"></path>
                        <path d="M10.7923,13.4773 C11.3783,13.8903 11.9243,14.3423 12.4893,14.7763 C13.0453,15.2193 13.5993,15.6643 14.0953,16.1653 L12.9193,16.1653 C13.2663,15.8263 13.6603,15.5343 14.0103,15.1973 C14.3683,14.8693 14.6433,14.4563 14.9113,14.0393 C15.1733,13.6133 15.5423,13.2963 15.9323,12.9993 C16.3273,12.7073 16.7523,12.4463 17.2693,12.2773 C17.5663,12.1793 17.8873,12.3413 17.9843,12.6383 C18.0233,12.7583 18.0213,12.8813 17.9843,12.9923 C17.8143,13.5093 17.5533,13.9343 17.2623,14.3303 C16.9653,14.7193 16.6473,15.0883 16.2233,15.3493 C15.8053,15.6193 15.3923,15.8923 15.0643,16.2513 C14.7273,16.6003 14.4363,16.9963 14.0953,17.3413 C13.7753,17.6663 13.2533,17.6703 12.9283,17.3503 L12.9273,17.3493 L12.9193,17.3413 C12.4173,16.8453 11.9733,16.2903 11.5293,15.7353 C11.0963,15.1693 10.6443,14.6233 10.2313,14.0383 C10.1043,13.8563 10.1473,13.6053 10.3293,13.4773 C10.4723,13.3763 10.6573,13.3823 10.7923,13.4773" id="Fill-279" fill="#FFFFFF"></path>
                    </g>
                </g>
            </g>
        </g>
    </g>
</svg>