<?xml version="1.0" encoding="UTF-8"?>
<svg width="604px" height="253px" viewBox="0 0 604 253" version="1.1" xmlns="http://www.w3.org/2000/svg" xmlns:xlink="http://www.w3.org/1999/xlink">
    <!-- Generator: Sketch 47.1 (45422) - http://www.bohemiancoding.com/sketch -->
    <title>illu 6</title>
    <desc>Created with Sketch.</desc>
    <defs>
        <polygon id="path-1" points="0.423040704 4.03866289 8.60880452 4.03866289 8.60880452 0.483966436 0.423040704 0.483966436"></polygon>
        <polygon id="path-3" points="0.758467839 4.03866289 8.94423166 4.03866289 8.94423166 0.483966436 0.758467839 0.483966436 0.758467839 4.03866289"></polygon>
        <polygon id="path-5" points="0 232.896226 533.385497 232.896226 533.385497 0.0188470935 0 0.0188470935"></polygon>
        <polygon id="path-7" points="1.73624612 9.96493827 0.107410895 9.96493827 0.107410895 0.0884269995 1.73624612 0.0884269995 1.73624612 9.96493827"></polygon>
        <polygon id="path-9" points="0.0554320988 1.77044238 0.0554320988 0.140331687 9.93138562 0.140331687 9.93138562 1.77044238 0.0554320988 1.77044238"></polygon>
        <polygon id="path-11" points="1.73624612 9.96493827 0.107410895 9.96493827 0.107410895 0.0884269995 1.73624612 0.0884269995 1.73624612 9.96493827"></polygon>
        <polygon id="path-13" points="0.0567901235 1.77044238 0.0567901235 0.140331687 9.93138562 0.140331687 9.93138562 1.77044238 0.0567901235 1.77044238"></polygon>
    </defs>
    <g id="Kilt---landing-page" stroke="none" stroke-width="1" fill="none" fill-rule="evenodd">
        <g id="Kilt---Landing---Green" transform="translate(-328.000000, -1688.000000)">
            <g id="illu-6" transform="translate(630.000000, 1814.500000) scale(-1, 1) translate(-630.000000, -1814.500000) translate(328.000000, 1688.000000)">
                <path d="M603.041687,173.157 C601.280966,170.022 598.608064,164.783 592.330382,159.618 C575.54444,145.808 540.017882,149.589 560.617709,139.161 C581.216021,128.733 582.588838,81.376 539.475422,67.561 C496.363521,53.747 426.660493,73.088 423.195115,57.333 C419.728223,41.578 357.701453,3.952 243.487947,1.076 C129.274442,-1.8 217.907492,78.312 95.4934526,85.179 C-26.9190718,92.048 -0.488561201,150.816 9.38935538,174.915 C20.0461106,200.915 82.1213688,261.915 161.40987,237.915 C182.47791,231.538 191.128474,214.608 227.770256,231.915 C354.804294,291.915 622.002013,206.915 603.041687,173.157" id="Fill-1" fill="#FFFFFF" opacity="0.300000012"></path>
                <g id="Group-273" transform="translate(38.000000, 0.000000)">
                    <path d="M398.211984,190.226138 C398.732567,188.493551 399.443673,186.856546 400.319809,185.304354 C400.785381,184.5397 401.314015,183.808702 401.747386,183.030587 C402.178075,182.249778 402.533628,181.432622 402.861005,180.600658 L403.836427,178.098033 C404.183929,177.276838 404.550216,176.462374 404.939311,175.661373 C405.769829,174.086294 406.718417,172.569103 407.803859,171.121916 L409.315964,171.886569 C408.804773,173.623194 408.152703,175.289816 407.386587,176.89855 C406.974683,177.688782 406.541311,178.468244 406.089155,179.238282 L404.666944,181.512049 C404.194663,182.272664 403.750557,183.045395 403.382929,183.858512 C403.016643,184.670284 402.745618,185.531865 402.41019,186.361137 C401.689693,187.991411 400.801482,189.538219 399.722748,190.989445 L398.211984,190.226138 Z" id="Fill-1" fill="#215D9E"></path>
                    <polygon id="Fill-3" fill="#67B1FF" points="403.943092 165.252662 416.642364 173.04055 414.451354 174.758328 402.076776 168.315314"></polygon>
                    <path d="M464.092021,138.825133 C466.202528,138.756475 468.314377,138.652816 470.426227,138.615122 L473.594001,138.547811 C474.651267,138.528964 475.513985,138.445498 476.45184,138.19914 C480.152272,137.215052 483.066463,134.1524 485.130011,130.731652 C487.205634,127.258402 488.406463,123.191469 488.688222,119.08011 C488.863985,117.041931 488.723106,114.936442 488.69493,112.805374 L488.53795,106.447172 L489.71597,107.626462 C482.560639,107.790701 475.405307,107.853973 468.248634,107.82301 L457.514965,107.660117 C453.936629,107.584729 450.358292,107.483762 446.781297,107.34914 L446.778614,105.651556 C450.35695,105.508856 453.933945,105.398466 457.512282,105.313654 L468.24595,105.125183 C475.401282,105.075373 482.556614,105.119798 489.713287,105.266537 L490.915458,105.290768 L490.891307,106.44448 L490.749086,112.802681 C490.687367,114.905479 490.72091,117.044624 490.51697,119.232233 C490.097016,123.55091 489.100126,127.870933 487.044629,131.809975 C486.027614,133.776804 484.684563,135.606318 483.022186,137.159857 C481.351759,138.693203 479.290895,139.895378 477.019382,140.45406 C475.911131,140.74619 474.649925,140.81754 473.596684,140.775807 L470.42891,140.716573 C468.317061,140.684264 466.205212,140.58599 464.093362,140.524064 L464.092021,138.825133 Z" id="Fill-5" fill="#C8D4E5"></path>
                    <path d="M479.125865,106.235816 C480.149588,109.231157 480.485016,112.307272 480.341453,115.394157 L480.086528,117.689464 C479.949674,118.447386 479.816845,119.205308 479.713533,119.961885 C479.427749,121.46696 479.227835,122.985497 478.874965,124.485187 C478.616016,126.007763 478.098116,127.467066 477.656694,128.954641 C477.066342,130.384327 476.510875,131.843631 475.697799,133.172351 C474.192403,135.897102 472.056403,138.20991 469.79294,140.256166 L468.573327,139.078222 C470.281322,136.679256 471.990659,134.366449 473.317609,131.809975 C474.778729,129.346391 476.002367,126.719914 476.921438,123.960161 C477.408478,122.587015 477.694262,121.149251 477.902227,119.707449 C477.965287,118.979143 477.997488,118.248145 478.028347,117.522532 L478.001513,115.338962 C477.993463,112.449972 477.829774,109.51521 477.493006,106.6868 L479.125865,106.235816 Z" id="Fill-7" fill="#C8D4E5"></path>
                    <polygon id="Fill-9" fill="#215D9E" points="363.548944 115.268958 361.306949 116.187081 353.895351 97.9565567 356.137346 97.038434"></polygon>
                    <path d="M370.231324,103.473774 L344.3766,103.506083 C341.563037,103.508776 339.278108,101.222893 339.274082,98.398521 L339.272741,97.2596181 C339.268716,94.3463959 341.686474,92.0187799 344.587248,92.1439784 L370.444655,94.8781532 C373.494359,95.0087367 375.744404,96.1543707 375.256022,99.177983 C374.856193,101.650991 372.729585,103.469735 370.231324,103.473774" id="Fill-11" fill="#C8D4E5"></path>
                    <path d="M359.527844,171.064836 L359.08508,169.921895 L358.973718,169.636496 L358.918708,169.493796 L358.890532,169.422447 L358.883824,169.404946 L358.88114,169.395522 L358.878457,169.391483 C358.924075,169.369944 358.776487,169.433216 358.980427,169.345712 L358.979085,169.344366 L358.964326,169.306672 L358.717452,168.743951 C358.382025,167.996799 358.029155,167.256377 357.654819,166.528071 C356.906145,165.070114 356.078311,163.65389 355.176683,162.286129 L355.907914,161.805528 C356.813567,163.208291 357.644085,164.658171 358.390075,166.152476 C358.765753,166.896936 359.117281,167.653512 359.451366,168.418166 L359.696899,168.994348 L359.711658,169.02935 L359.712999,169.032042 C359.915597,168.945884 359.770693,169.010503 359.816311,168.991656 L359.817653,168.995695 L359.821678,169.005118 L359.829728,169.022619 L359.857904,169.093969 L359.918281,169.240707 L360.039035,169.530144 L360.519366,170.690587 L359.527844,171.064836 Z" id="Fill-13" fill="#57A7FF"></path>
                    <path d="M351.979391,158.027225 L349.247673,155.119387 C348.794175,154.633402 348.265542,154.22415 347.779844,153.77182 L346.291889,152.445792 L346.929201,151.669023 L348.438623,153.039476 C348.932371,153.505268 349.46503,153.930674 349.926577,154.430122 L352.686472,157.428156 L351.979391,158.027225 Z" id="Fill-15" fill="#57A7FF"></path>
                    <path d="M341.98742,149.334676 C339.745425,147.909028 337.378651,146.683967 334.926008,145.674301 L335.362063,144.625595 C337.865691,145.685071 340.276741,146.962635 342.556304,148.443478 L341.98742,149.334676 Z" id="Fill-17" fill="#57A7FF"></path>
                    <path d="M329.912043,143.941849 C327.360113,143.222967 324.746465,142.728904 322.112691,142.471776 L322.240153,141.214406 C324.947721,141.502497 327.625771,142.036947 330.236736,142.798908 L329.912043,143.941849 Z" id="Fill-19" fill="#57A7FF"></path>
                    <path d="M316.822468,142.27617 C314.177961,142.317903 311.53882,142.596571 308.943956,143.105442 L308.685006,141.755183 C311.361715,141.244965 314.084041,140.973028 316.809051,140.959566 L316.822468,142.27617 Z" id="Fill-21" fill="#57A7FF"></path>
                    <path d="M303.824667,144.427027 C301.307622,145.237452 298.861687,146.265965 296.523089,147.50045 L295.852235,146.21077 C298.271335,144.952054 300.801797,143.904694 303.402029,143.086191 L303.824667,144.427027 Z" id="Fill-23" fill="#57A7FF"></path>
                    <path d="M292.002202,150.239202 C289.824609,151.740238 287.787895,153.432438 285.91487,155.305031 L284.844187,154.2119 C286.785639,152.292189 288.909564,150.547486 291.166318,149.011448 L292.002202,150.239202 Z" id="Fill-25" fill="#57A7FF"></path>
                    <path d="M282.410998,159.247305 C280.782164,161.32587 279.342511,163.553866 278.112164,165.893598 L276.692637,165.135675 C277.98336,162.720555 279.487416,160.419863 281.188702,158.276679 L282.410998,159.247305 Z" id="Fill-27" fill="#57A7FF"></path>
                    <path d="M275.930546,170.705934 C274.981958,173.170864 274.288295,175.73003 273.79723,178.328237 L272.159004,178.023991 C272.648727,175.323472 273.409476,172.671416 274.40234,170.11225 L275.930546,170.705934 Z" id="Fill-29" fill="#57A7FF"></path>
                    <path d="M273.133084,183.573921 L273.065998,185.556905 C273.033797,186.216553 273.01233,186.877548 273.079416,187.53585 L273.324948,191.493739 L271.713556,191.684903 L271.443873,187.577582 C271.374104,186.892356 271.39423,186.20713 271.425089,185.521903 L271.488149,183.464877 L273.133084,183.573921 Z" id="Fill-31" fill="#57A7FF"></path>
                    <path d="M274.245494,196.70348 C274.859997,199.276108 275.701248,201.794887 276.763881,204.216739 L275.321545,204.856194 C274.211952,202.350877 273.331791,199.744593 272.686429,197.080422 L274.245494,196.70348 Z" id="Fill-33" fill="#57A7FF"></path>
                    <path d="M279.176005,208.925954 C280.517714,211.205107 282.057995,213.36983 283.775382,215.38243 L282.602729,216.39075 C280.823623,214.313531 279.224307,212.081496 277.830271,209.726956 L279.176005,208.925954 Z" id="Fill-35" fill="#57A7FF"></path>
                    <path d="M287.434624,219.189543 C289.380101,220.978671 291.478533,222.604906 293.700403,224.037285 L292.884644,225.314848 C290.586297,223.840736 288.414071,222.167384 286.400166,220.323061 L287.434624,219.189543 Z" id="Fill-37" fill="#57A7FF"></path>
                    <path d="M298.31105,226.605605 C299.517246,227.136016 300.710025,227.70816 301.949763,228.156452 C303.182793,228.618205 304.437291,229.022072 305.709231,229.370743 L305.267809,230.96063 C303.952934,230.58638 302.655502,230.152897 301.380879,229.658834 C300.099547,229.178233 298.874567,228.575126 297.630804,228.01106 L298.31105,226.605605 Z" id="Fill-39" fill="#57A7FF"></path>
                    <path d="M310.862062,230.453643 C313.464977,230.840009 316.108143,231.00694 318.732525,230.932898 L318.772776,232.732795 C316.033007,232.779913 313.299947,232.576634 310.600429,232.144497 L310.862062,230.453643 Z" id="Fill-41" fill="#57A7FF"></path>
                    <path d="M323.965993,230.478683 C326.567566,230.100395 329.135596,229.490557 331.627149,228.6559 L332.220184,230.462528 C329.615928,231.314686 326.936536,231.931255 324.223601,232.308197 L323.965993,230.478683 Z" id="Fill-43" fill="#57A7FF"></path>
                    <path d="M336.497417,226.693783 C338.870899,225.568342 341.142412,224.228852 343.278412,222.699545 L344.425572,224.32578 C342.183577,225.90759 339.802045,227.290158 337.315859,228.449255 L336.497417,226.693783 Z" id="Fill-45" fill="#57A7FF"></path>
                    <path d="M347.371159,219.406554 C348.333164,218.511317 349.305903,217.622811 350.194114,216.656224 C351.094401,215.699061 351.947727,214.697473 352.756777,213.659537 L354.244732,214.810556 C353.416898,215.903687 352.540762,216.963163 351.613642,217.976867 C350.697255,219.002688 349.699024,219.94235 348.707501,220.892782 L347.371159,219.406554 Z" id="Fill-47" fill="#57A7FF"></path>
                    <path d="M355.73859,209.316493 C357.097741,207.057534 358.256977,204.677416 359.20154,202.209793 L360.778048,202.803476 C359.834827,205.376104 358.666198,207.867959 357.28558,210.238655 L355.73859,209.316493 Z" id="Fill-49" fill="#57A7FF"></path>
                    <path d="M360.797503,197.172772 C361.445548,194.609568 361.866844,191.985783 362.042608,189.345844 L363.529221,189.434694 C363.387,192.168869 362.991196,194.892274 362.356568,197.557792 L360.797503,197.172772 Z" id="Fill-51" fill="#57A7FF"></path>
                    <path d="M362.090641,184.04981 C361.963179,181.397755 361.608968,178.753777 361.019958,176.163648 L362.172485,175.886326 C362.837973,178.531651 363.264636,181.240247 363.460526,183.966345 L362.090641,184.04981 Z" id="Fill-53" fill="#57A7FF"></path>
                    <path d="M332.193081,222.259331 C329.705554,223.352462 327.095931,224.160195 324.431297,224.685221 L324.264926,223.807485 C326.874549,223.326884 329.434529,222.567615 331.87778,221.524294 L332.193081,222.259331 Z" id="Fill-55" fill="#57A7FF"></path>
                    <path d="M319.045948,225.359274 C318.363018,225.375428 317.686797,225.427931 316.999842,225.411776 C316.320938,225.402353 315.640691,225.378121 314.961787,225.335042 C313.603978,225.248884 312.251536,225.094068 310.908485,224.867903 L311.086933,223.836698 C312.391073,224.07094 313.707289,224.239218 315.030214,224.337492 C315.691676,224.385956 316.353139,224.419612 317.015943,224.43442 C317.67338,224.458652 318.338867,224.41288 318.998988,224.406149 L319.045948,225.359274 Z" id="Fill-57" fill="#57A7FF"></path>
                    <path d="M305.618397,223.5793 C304.349141,223.085237 303.040975,222.681371 301.802578,222.107881 C300.560156,221.546507 299.347251,220.920514 298.170573,220.231249 L298.779709,219.197351 C299.913452,219.878539 301.08208,220.500493 302.280226,221.057829 C303.474347,221.628626 304.736894,222.031146 305.961874,222.526556 L305.618397,223.5793 Z" id="Fill-59" fill="#57A7FF"></path>
                    <path d="M293.667531,217.145307 L290.619169,214.405747 C290.085169,213.97361 289.671923,213.418967 289.202325,212.924904 L287.829757,211.399635 L288.873606,210.546131 L290.184455,212.031013 C290.633928,212.51296 291.024365,213.054141 291.535556,213.476854 L294.453772,216.159873 L293.667531,217.145307 Z" id="Fill-61" fill="#57A7FF"></path>
                    <path d="M284.664666,206.930317 C283.241114,204.591931 282.06041,202.104114 281.14134,199.522063 L282.499149,199.041462 C283.367234,201.536009 284.490244,203.943052 285.849395,206.210088 L284.664666,206.930317 Z" id="Fill-63" fill="#57A7FF"></path>
                    <path d="M279.664789,194.246357 C279.10798,191.561993 278.836955,188.806278 278.853056,186.069411 L280.385287,186.076142 C280.353086,188.724159 280.594593,191.357367 281.112493,193.950189 L279.664789,194.246357 Z" id="Fill-65" fill="#57A7FF"></path>
                    <path d="M279.253287,180.590965 C279.649091,177.870252 280.330679,175.191273 281.284634,172.611913 L282.807473,173.185403 C281.877669,175.650334 281.204132,178.214885 280.806986,180.823861 L279.253287,180.590965 Z" id="Fill-67" fill="#57A7FF"></path>
                    <path d="M283.544474,167.603298 C284.849956,165.184139 286.434514,162.918449 288.243137,160.846615 L289.481534,161.934362 C287.75878,163.915999 286.268142,166.098223 285.005594,168.4043 L283.544474,167.603298 Z" id="Fill-69" fill="#57A7FF"></path>
                    <path d="M292.138385,156.980807 C294.224742,155.186294 296.509672,153.631409 298.930114,152.339037 L299.681471,153.747184 C297.365682,154.995131 295.184064,156.494821 293.196993,158.216638 L292.138385,156.980807 Z" id="Fill-71" fill="#57A7FF"></path>
                    <path d="M303.93737,150.102426 C306.512109,149.16411 309.186134,148.496384 311.901752,148.119442 L312.115084,149.660865 C309.510828,150.028384 306.945481,150.677262 304.475395,151.585961 L303.93737,150.102426 Z" id="Fill-73" fill="#57A7FF"></path>
                    <path d="M317.363579,147.76229 C320.107373,147.79056 322.83775,148.108269 325.510434,148.708683 L325.181715,150.18818 C322.613685,149.618728 319.981253,149.321214 317.354187,149.302367 L317.363579,147.76229 Z" id="Fill-75" fill="#57A7FF"></path>
                    <path d="M330.766309,150.248356 C333.33568,151.204173 335.808449,152.437311 338.121555,153.918154 L337.210535,155.331686 C335.014158,153.885845 332.663484,152.675592 330.209499,151.72516 L330.766309,150.248356 Z" id="Fill-77" fill="#57A7FF"></path>
                    <path d="M342.529738,157.196337 C343.523944,158.146769 344.585236,159.033929 345.512356,160.05571 C346.452894,161.059991 347.33708,162.118121 348.166256,163.21933 L346.691718,164.327269 C345.909502,163.273178 345.072276,162.258128 344.18809,161.28481 C343.318663,160.299376 342.31909,159.444526 341.383919,158.522365 L342.529738,157.196337 Z" id="Fill-79" fill="#57A7FF"></path>
                    <path d="M351.166987,167.84131 L352.964876,171.568996 C353.24261,172.199027 353.441183,172.862714 353.684032,173.5089 L354.376354,175.460921 L352.507354,176.01691 L351.861992,174.160471 C351.636585,173.545248 351.455454,172.912524 351.195163,172.310764 L349.515344,168.755394 L351.166987,167.84131 Z" id="Fill-81" fill="#57A7FF"></path>
                    <path d="M355.587917,180.843381 C355.795881,182.208449 355.940786,183.584287 355.986404,184.964164 C356.058856,186.341348 355.96762,187.727955 355.919319,189.107832 L354.006042,188.986672 C354.02751,187.674106 354.094595,186.368272 354.000675,185.055707 C353.922856,183.745834 353.804786,182.438653 353.616947,181.140896 L355.587917,180.843381 Z" id="Fill-83" fill="#57A7FF"></path>
                    <path d="M355.138444,194.565815 C354.557484,197.26095 353.696108,199.891466 352.575781,202.403514 L351.031474,201.726365 C352.061907,199.303167 352.842781,196.773618 353.35263,194.194258 L355.138444,194.565815 Z" id="Fill-85" fill="#57A7FF"></path>
                    <path d="M350.000908,207.253679 C348.546496,209.582641 346.859968,211.768904 344.941325,213.727655 L343.901501,212.730106 C345.69134,210.79424 347.290657,208.682019 348.643099,206.417676 L350.000908,207.253679 Z" id="Fill-87" fill="#57A7FF"></path>
                    <path d="M340.855286,217.359625 C338.689768,219.0249 336.349829,220.458626 333.890477,221.624453 L333.419537,220.663251 C335.779603,219.462422 338.00818,218.00985 340.055628,216.343228 L340.855286,217.359625 Z" id="Fill-89" fill="#57A7FF"></path>
                    <path d="M529.044265,170.850518 L528.601502,169.707576 L528.491481,169.420831 L528.436471,169.279478 L528.408295,169.206782 L528.401587,169.190627 L528.398904,169.181204 L528.397562,169.175819 C528.441838,169.155626 528.29425,169.217552 528.496848,169.131394 L528.496848,169.128701 L528.480748,169.092353 L528.233873,168.528287 C527.898446,167.78248 527.546919,167.040712 527.17124,166.312407 C526.423909,164.855796 525.596074,163.438225 524.694446,162.071811 L525.425677,161.59121 C526.331331,162.993972 527.160507,164.443852 527.907838,165.936811 C528.283517,166.681271 528.635044,167.439194 528.967788,168.203847 L529.214662,168.778684 L529.229421,168.815032 L529.230763,168.816378 C529.433361,168.731566 529.288456,168.794838 529.332733,168.775991 L529.335416,168.781376 L529.339441,168.789453 L529.34615,168.806954 L529.375667,168.87965 L529.436044,169.026388 L529.556798,169.31448 L530.03713,170.476268 L529.044265,170.850518 Z" id="Fill-91" fill="#57A7FF"></path>
                    <path d="M521.497155,157.811695 L518.765436,154.905204 C518.310597,154.419218 517.783306,154.00862 517.297607,153.557636 L515.809652,152.230263 L516.446964,151.453493 L517.956386,152.823946 C518.450135,153.291085 518.982793,153.715144 519.442999,154.215938 L522.204235,157.212626 L521.497155,157.811695 Z" id="Fill-93" fill="#57A7FF"></path>
                    <path d="M511.505183,149.119011 C509.263188,147.693363 506.896414,146.469648 504.443771,145.458636 L504.879826,144.40993 C507.383454,145.469406 509.794505,146.74697 512.074067,148.227813 L511.505183,149.119011 Z" id="Fill-95" fill="#57A7FF"></path>
                    <path d="M499.429806,143.726319 C496.877876,143.008784 494.264228,142.51472 491.631796,142.257592 L491.757917,141.000222 C494.465484,141.288313 497.143535,141.822763 499.754499,142.584724 L499.429806,143.726319 Z" id="Fill-97" fill="#57A7FF"></path>
                    <path d="M486.340232,142.061852 C483.695724,142.103585 481.056583,142.380906 478.461719,142.891124 L478.202769,141.539518 C480.879478,141.030646 483.601805,140.757364 486.326815,140.743901 L486.340232,142.061852 Z" id="Fill-99" fill="#57A7FF"></path>
                    <path d="M473.34243,144.212709 C470.825385,145.023134 468.37945,146.051647 466.040852,147.286131 L465.369998,145.996452 C467.789098,144.737735 470.318219,143.690375 472.919792,142.871873 L473.34243,144.212709 Z" id="Fill-101" fill="#57A7FF"></path>
                    <path d="M461.519965,150.023537 C459.342372,151.524573 457.305659,153.218119 455.432634,155.090713 L454.36195,153.996235 C456.303403,152.07787 458.427327,150.331822 460.684081,148.79713 L461.519965,150.023537 Z" id="Fill-103" fill="#57A7FF"></path>
                    <path d="M451.928762,159.03164 C450.299928,161.111551 448.860274,163.339547 447.629928,165.677933 L446.2104,164.921357 C447.501124,162.50489 449.005179,160.205545 450.706465,158.061015 L451.928762,159.03164 Z" id="Fill-105" fill="#57A7FF"></path>
                    <path d="M445.446968,170.491615 C444.499722,172.956546 443.806058,175.515712 443.314993,178.112572 L441.676767,177.808326 C442.16649,175.107807 442.927239,172.457098 443.920104,169.897932 L445.446968,170.491615 Z" id="Fill-107" fill="#57A7FF"></path>
                    <path d="M442.650847,183.359603 L442.583762,185.34124 C442.551561,186.002235 442.530093,186.663229 442.597179,187.321531 L442.842712,191.279421 L441.23132,191.470584 L440.961636,187.363264 C440.891867,186.678038 440.911993,185.992811 440.942852,185.306238 L441.005913,183.249213 L442.650847,183.359603 Z" id="Fill-109" fill="#57A7FF"></path>
                    <path d="M443.763258,196.489161 C444.37776,199.060443 445.219012,201.579223 446.281645,204.001074 L444.839308,204.641875 C443.729715,202.135212 442.849554,199.528928 442.204192,196.864757 L443.763258,196.489161 Z" id="Fill-111" fill="#57A7FF"></path>
                    <path d="M448.693768,208.711636 C450.035477,210.990788 451.575758,213.154165 453.293145,215.166766 L452.11915,216.175085 C450.341386,214.099212 448.740728,211.867178 447.348035,209.511291 L448.693768,208.711636 Z" id="Fill-113" fill="#57A7FF"></path>
                    <path d="M456.951045,218.974013 C458.897864,220.764487 460.996296,222.389376 463.216824,223.821755 L462.401065,225.099318 C460.10406,223.625207 457.931834,221.9532 455.91793,220.108877 L456.951045,218.974013 Z" id="Fill-115" fill="#57A7FF"></path>
                    <path d="M467.828813,226.390075 C469.035009,226.920486 470.226446,227.49263 471.466185,227.940922 C472.700557,228.404022 473.955054,228.807888 475.226994,229.155213 L474.785572,230.746446 C473.470697,230.370851 472.173265,229.937367 470.898642,229.44465 C469.617311,228.96405 468.392331,228.359596 467.147225,227.79553 L467.828813,226.390075 Z" id="Fill-117" fill="#57A7FF"></path>
                    <path d="M480.378484,230.239325 C482.98274,230.62569 485.625906,230.792622 488.250288,230.718579 L488.290539,232.518477 C485.549429,232.565595 482.81771,232.360969 480.118192,231.930178 L480.378484,230.239325 Z" id="Fill-119" fill="#57A7FF"></path>
                    <path d="M493.483756,230.263018 C496.085329,229.88473 498.653359,229.276238 501.14357,228.440235 L501.737947,230.246864 C499.133691,231.100368 496.454299,231.716937 493.741364,232.092533 L493.483756,230.263018 Z" id="Fill-121" fill="#57A7FF"></path>
                    <path d="M506.01518,226.479464 C508.388662,225.354023 510.660175,224.014534 512.796175,222.485227 L513.943336,224.110115 C511.701341,225.693271 509.319808,227.07584 506.833622,228.23359 L506.01518,226.479464 Z" id="Fill-123" fill="#57A7FF"></path>
                    <path d="M516.889057,219.190889 C517.852404,218.296999 518.823801,217.408493 519.712012,216.44056 C520.610956,215.483397 521.465625,214.483155 522.274675,213.445218 L523.76263,214.594891 C522.934795,215.688022 522.05866,216.748844 521.131539,217.762549 C520.215152,218.788369 519.216921,219.728031 518.225398,220.677117 L516.889057,219.190889 Z" id="Fill-125" fill="#57A7FF"></path>
                    <path d="M525.255012,209.102175 C526.615505,206.843216 527.774741,204.461751 528.719304,201.995474 L530.295811,202.589158 C529.353932,205.161786 528.183962,207.653641 526.803344,210.024336 L525.255012,209.102175 Z" id="Fill-127" fill="#57A7FF"></path>
                    <path d="M530.315266,196.958589 C530.963311,194.395384 531.384608,191.771599 531.560371,189.13166 L533.045643,189.219164 C532.904763,191.954685 532.508959,194.67809 531.874331,197.343608 L530.315266,196.958589 Z" id="Fill-129" fill="#57A7FF"></path>
                    <path d="M531.608539,183.834146 C531.481076,181.182091 531.126865,178.539459 530.537855,175.94933 L531.690383,175.670662 C532.35587,178.317332 532.782534,181.025929 532.978423,183.75068 L531.608539,183.834146 Z" id="Fill-131" fill="#57A7FF"></path>
                    <path d="M501.710979,222.043801 C499.223451,223.138278 496.613828,223.946011 493.949195,224.471037 L493.782823,223.593301 C496.392446,223.111354 498.952426,222.352085 501.395677,221.31011 L501.710979,222.043801 Z" id="Fill-133" fill="#57A7FF"></path>
                    <path d="M488.563711,225.143744 C487.880781,225.159898 487.20456,225.213747 486.517606,225.196246 C485.837359,225.188169 485.158455,225.163937 484.47955,225.119512 C483.121741,225.0347 481.769299,224.878538 480.426249,224.652373 L480.603354,223.621168 C481.908837,223.856757 483.225053,224.023688 484.547977,224.123308 C485.208098,224.171772 485.870902,224.204082 486.533706,224.220236 C487.191143,224.244468 487.855289,224.198697 488.51541,224.191966 L488.563711,225.143744 Z" id="Fill-135" fill="#57A7FF"></path>
                    <path d="M475.13616,223.364982 C473.866904,222.870919 472.558738,222.465706 471.320341,221.893562 C470.077919,221.332188 468.865015,220.704849 467.688336,220.01693 L468.297472,218.983033 C469.429874,219.664221 470.598502,220.286175 471.797989,220.84351 C472.99211,221.412962 474.254658,221.815482 475.479638,222.312237 L475.13616,223.364982 Z" id="Fill-137" fill="#57A7FF"></path>
                    <path d="M463.185294,216.929642 L460.13559,214.191429 C459.602932,213.757945 459.191028,213.204649 458.720088,212.709239 L457.346178,211.183971 L458.391369,210.331813 L459.702219,211.815349 C460.151691,212.298642 460.54347,212.839823 461.053319,213.26119 L463.971535,215.945554 L463.185294,216.929642 Z" id="Fill-139" fill="#57A7FF"></path>
                    <path d="M454.18243,206.714652 C452.758877,204.376266 451.576832,201.889796 450.659103,199.307744 L452.016912,198.827143 C452.883656,201.321691 454.008008,203.728734 455.367158,205.99577 L454.18243,206.714652 Z" id="Fill-141" fill="#57A7FF"></path>
                    <path d="M449.182553,194.032039 C448.625744,191.347674 448.354719,188.590614 448.370819,185.853746 L449.90305,185.861824 C449.870849,188.508494 450.112357,191.143049 450.630256,193.73587 L449.182553,194.032039 Z" id="Fill-143" fill="#57A7FF"></path>
                    <path d="M448.771051,180.3753 C449.165513,177.654588 449.848443,174.975608 450.802397,172.396249 L452.325237,172.969739 C451.395433,175.436016 450.721895,178.000567 450.324749,180.608197 L448.771051,180.3753 Z" id="Fill-145" fill="#57A7FF"></path>
                    <path d="M453.062237,167.38898 C454.36772,164.969821 455.952277,162.702785 457.760901,160.632297 L458.999297,161.720043 C457.276544,163.701681 455.785906,165.883905 454.523358,168.188635 L453.062237,167.38898 Z" id="Fill-147" fill="#57A7FF"></path>
                    <path d="M461.654941,156.765142 C463.741298,154.971976 466.026228,153.417091 468.44667,152.123373 L469.199368,153.532866 C466.882238,154.780813 464.701961,156.279157 462.716233,158.000973 L461.654941,156.765142 Z" id="Fill-149" fill="#57A7FF"></path>
                    <path d="M473.455134,149.888107 C476.029872,148.948445 478.703897,148.282066 481.419516,147.905124 L481.632847,149.445201 C479.028591,149.814065 476.463244,150.462944 473.993159,151.371643 L473.455134,149.888107 Z" id="Fill-151" fill="#57A7FF"></path>
                    <path d="M486.881343,147.54676 C489.623795,147.57503 492.355514,147.894085 495.028197,148.493153 L494.699478,149.973996 C492.131448,149.404545 489.499016,149.10703 486.871951,149.088183 L486.881343,147.54676 Z" id="Fill-153" fill="#57A7FF"></path>
                    <path d="M500.284072,150.032691 C502.853444,150.989855 505.326213,152.221647 507.639318,153.70249 L506.728298,155.117368 C504.531921,153.67018 502.181248,152.461274 499.727263,151.509496 L500.284072,150.032691 Z" id="Fill-155" fill="#57A7FF"></path>
                    <path d="M512.047636,156.982153 C513.041842,157.932585 514.101791,158.819745 515.030254,159.841527 C515.970791,160.845807 516.854977,161.902591 517.684153,163.005146 L516.209616,164.113086 C515.427399,163.057648 514.590173,162.042598 513.705987,161.06928 C512.83656,160.083846 511.835646,159.230342 510.900475,158.306835 L512.047636,156.982153 Z" id="Fill-157" fill="#57A7FF"></path>
                    <path d="M520.684884,167.626992 L522.482774,171.354677 C522.760508,171.984709 522.95908,172.648396 523.200588,173.294582 L523.895593,175.246602 L522.025251,175.802592 L521.379889,173.944807 C521.154482,173.33093 520.973352,172.698206 520.71306,172.096445 L519.033241,168.539729 L520.684884,167.626992 Z" id="Fill-159" fill="#57A7FF"></path>
                    <path d="M525.10568,180.629063 C525.314986,181.994131 525.458549,183.368623 525.504167,184.749845 C525.57662,186.127029 525.485383,187.512291 525.437082,188.892167 L523.523806,188.771007 C523.545273,187.459788 523.612358,186.153954 523.518439,184.841388 C523.44062,183.531515 523.322549,182.224335 523.13471,180.925232 L525.10568,180.629063 Z" id="Fill-161" fill="#57A7FF"></path>
                    <path d="M524.656208,194.351497 C524.075248,197.046631 523.213871,199.675801 522.093544,202.187849 L520.549238,201.5107 C521.57967,199.087502 522.360544,196.559299 522.870393,193.978594 L524.656208,194.351497 Z" id="Fill-163" fill="#57A7FF"></path>
                    <path d="M519.518671,207.038149 C518.064259,209.367111 516.37639,211.553374 514.459088,213.513472 L513.417923,212.514576 C515.209104,210.580056 516.80842,208.466489 518.160862,206.203492 L519.518671,207.038149 Z" id="Fill-165" fill="#57A7FF"></path>
                    <path d="M510.373049,217.145307 C508.20619,218.810582 505.867592,220.242961 503.40824,221.410135 L502.937301,220.447587 C505.297366,219.248104 507.525944,217.795531 509.573391,216.12891 L510.373049,217.145307 Z" id="Fill-167" fill="#57A7FF"></path>
                    <path d="M465.964375,143.120251 L463.649928,138.135194 L463.238023,137.612861 L462.718782,138.026151 L401.268531,187.567082 L362.255671,107.274425 L362.016847,106.79517 L361.537857,107.036144 L354.336908,106.618815 L353.845842,106.865174 L354.092717,107.361929 L365.388561,129.929978 L376.794425,152.423984 L398.240294,197.288143 C398.240294,197.288143 454.620229,153.029783 465.857038,144.058567 L466.378963,143.642584 L465.964375,143.120251 Z" id="Fill-169" fill="#4BDF75"></path>
                    <path d="M407.29468,188.043779 C406.939128,186.997765 406.395736,185.974637 405.62157,185.080746 C404.850087,184.190894 403.853198,183.435664 402.704695,182.941601 C401.56156,182.444846 400.28962,182.187718 399.023047,182.180986 C397.755133,182.17964 396.479168,182.427345 395.323957,182.910638 C394.166062,183.392585 393.118188,184.084543 392.247419,184.928623 C391.380675,185.77405 390.695062,186.776985 390.241565,187.863385 C389.782701,188.947093 389.582786,190.115613 389.612304,191.266632 C389.668655,193.575401 390.719213,195.811474 392.432575,197.439055 L393.100746,198.0287 L393.825268,198.557764 C394.082876,198.715272 394.336459,198.878165 394.599434,199.027596 C394.873143,199.160871 395.144168,199.302225 395.423243,199.426077 C396.550278,199.908024 397.794042,200.182653 399.045856,200.197462 C400.294987,200.208231 401.557535,199.968604 402.691278,199.47858 C403.830389,198.996633 404.824595,198.252172 405.596077,197.371744 C406.370243,196.488623 406.91766,195.473572 407.275896,194.432943 C407.635474,193.392315 407.809896,192.316684 407.816605,191.243746 C407.816605,190.168115 407.651575,189.091139 407.29468,188.043779" id="Fill-171" fill="#3F72AC"></path>
                    <polygon id="Fill-173" fill="#4BDF75" points="315.675978 185.619504 319.18723 187.59441 360.662124 113.363786 357.146848 108.696438"></polygon>
                    <polygon id="Fill-175" fill="#4BDF75" points="487.404207 185.519614 451.560463 112.021335 447.963342 113.834694 485.150136 187.331628"></polygon>
                    <path d="M492.760575,184.385019 C492.52041,183.676907 492.15144,182.983603 491.626832,182.37915 C491.104907,181.777389 490.430028,181.265825 489.653178,180.930616 C488.877671,180.595407 488.017636,180.421745 487.158942,180.415014 C486.300249,180.413668 485.436188,180.581945 484.653972,180.909077 C483.870415,181.234862 483.160651,181.704693 482.570299,182.275491 C481.983972,182.848981 481.518399,183.527477 481.21249,184.262513 C480.901214,184.996204 480.767043,185.789128 480.785827,186.567244 C480.824736,188.131552 481.537183,189.644705 482.695078,190.748606 L483.148575,191.145741 L483.639641,191.505182 C483.814063,191.611534 483.985802,191.721924 484.164249,191.82289 C484.348063,191.913087 484.531877,192.010015 484.722399,192.093481 C485.48449,192.420612 486.325741,192.603698 487.173701,192.615814 C488.020319,192.622545 488.874987,192.460999 489.643786,192.129829 C490.415269,191.802697 491.087465,191.29921 491.610731,190.701488 C492.133997,190.103766 492.505651,189.415847 492.747158,188.71312 C492.991349,188.006354 493.10942,187.278048 493.113445,186.551089 C493.114786,185.82413 493.002083,185.094478 492.760575,184.385019" id="Fill-177" fill="#215D9E"></path>
                    <path d="M315.48076,180.743357 C322.468378,180.810668 329.453313,180.929136 336.438247,181.058373 C343.423182,181.197034 350.4108,181.272422 357.394393,181.474355 L378.346514,182.006112 C385.33279,182.205353 392.317725,182.341321 399.302659,182.461135 L399.79775,182.469212 L399.774941,182.96866 L399.034318,199.617375 L399.010167,200.197596 L398.425182,200.142401 C384.954428,198.85676 371.491725,197.490346 358.030363,196.110469 C351.296328,195.441398 344.57571,194.668667 337.847041,193.952477 L317.67177,191.723135 L317.756297,190.877709 L337.965112,192.794727 C344.697805,193.458414 351.437207,194.066906 358.165875,194.779057 C371.627237,196.161626 385.087257,197.559003 398.537885,199.037154 L397.92875,199.56218 L398.808911,182.921543 L399.282534,183.430414 C392.297599,183.251367 385.312664,183.093859 378.326388,182.995585 L357.370242,182.638836 C350.383966,182.544601 343.400373,182.323821 336.41678,182.164966 C329.430504,181.999381 322.445569,181.82168 315.463318,181.591476 L315.48076,180.743357 Z" id="Fill-179" fill="#3F72AC"></path>
                    <polygon id="Fill-181" fill="#215D9E" points="447.964013 113.834694 451.561134 112.021335 437.945475 83.9714749 434.84747 85.4132775"></polygon>
                    <path d="M340.48967,139.416797 L282.415158,140.391461 C278.4276,140.457426 275.124314,143.514693 274.735218,147.495469 L273.013806,165.081153 C272.5536,169.780811 275.877012,174.00256 280.538108,174.644707 L308.245731,181.308501 C311.182731,182.016613 314.24451,180.774051 315.867977,178.214885 L340.48967,139.416797 Z" id="Stroke-183" stroke="#C8D4E5" stroke-width="2"></path>
                    <path d="M311.027227,181.218035 C310.709242,177.773055 310.618006,174.32673 310.690458,170.88175 C310.761568,169.158587 310.902448,167.435424 310.940016,165.712262 C310.970875,163.989099 310.91989,162.265936 310.835362,160.544119 L310.579096,155.375977 C310.518719,153.651468 310.478468,151.929651 310.463709,150.206489 C310.49591,146.760163 310.659598,143.315183 310.9749,139.867512 L312.668136,139.866165 C312.99283,143.311145 313.164568,146.75747 313.20482,150.20245 C313.194086,151.925613 313.159202,153.648776 313.10285,155.371938 L312.858659,160.541427 C312.78084,162.26459 312.732538,163.986406 312.770106,165.709569 C312.810357,167.432732 312.955262,169.155895 313.030397,170.877711 C313.112242,174.324037 313.029056,177.769017 312.720463,181.216688 L311.027227,181.218035 Z" id="Fill-185" fill="#C8D4E5"></path>
                    <path d="M439.220635,86.5999713 C435.907957,87.6513699 430.769213,88.2410146 427.354565,88.6973835 C425.639861,88.8764309 423.911741,88.9531655 422.205087,89.1833693 L420.930464,89.3812638 L420.29852,89.4930001 C420.129464,89.5172321 419.964434,89.5656961 419.787329,89.6101214 C419.085615,89.8120545 418.410736,90.13784 417.853927,90.5376676 C417.299801,90.9469188 416.858379,91.4194423 416.552469,91.9242752 C416.274736,92.4452627 416.116414,92.9972133 416.084213,93.5962816 C415.994319,94.7715325 416.329746,96.3304564 416.90668,97.1893454 C417.452756,98.064389 418.287298,98.746923 419.674625,99.0309756 C420.985474,99.3702233 422.651876,99.3177207 424.133123,99.1696364 L424.911314,101.59418 C423.09464,102.361526 421.276625,102.789625 419.178193,102.648271 C418.150444,102.586345 417.054268,102.294215 416.010419,101.783998 C415.491178,101.498599 414.98267,101.190314 414.557349,100.7501 C414.087751,100.357003 413.736223,99.8750562 413.416896,99.3688771 C413.066711,98.874814 412.913756,98.3349794 412.687007,97.8072608 C412.499168,97.278196 412.436108,96.754516 412.318037,96.2267974 C412.209359,95.7031174 412.226801,95.1686677 412.18655,94.6422953 C412.189233,94.1038069 412.256319,93.5464714 412.347555,93.0025982 C412.598454,91.898697 413.085494,90.8230664 413.784525,89.9224446 C414.499655,89.0339388 415.393233,88.3742905 416.314987,87.9098443 C417.238082,87.4332821 418.185329,87.1398059 419.150017,86.927103 C419.391525,86.8772928 419.646449,86.8342137 419.902716,86.7965195 L420.540027,86.6928605 L421.8066,86.4586181 C423.486419,86.1126393 425.144771,85.6118451 426.817881,85.2160561 C430.17752,84.5187137 434.485746,84.0731145 437.946012,83.972148 L439.220635,86.5999713 Z" id="Fill-187" fill="#67B1FF"></path>
                    <path d="M424.132854,99.1695018 C422.651608,99.3175861 420.985206,99.3700887 419.674357,99.030841 C418.288372,98.7481346 417.452487,98.0642544 416.906412,97.1892107 C416.332161,96.3303218 415.995392,94.7713979 416.083945,93.596147 C416.116146,92.9970787 416.275809,92.4451281 416.553543,91.9241406 C416.557568,91.9174095 416.564276,91.9106784 416.568302,91.9052935 L413.707779,90.0327001 C413.054367,90.9104362 412.588794,91.9416414 412.347286,93.0024636 C412.25605,93.5463368 412.188965,94.1036723 412.186281,94.6421607 C412.226533,95.1685331 412.20909,95.7029828 412.317769,96.2266628 C412.435839,96.7543814 412.498899,97.2780613 412.686739,97.8071262 C412.913487,98.3348448 413.066442,98.8746794 413.416628,99.3687425 C413.735955,99.8749216 414.087482,100.356869 414.55708,100.749965 C414.982402,101.190179 415.492251,101.498464 416.010151,101.783863 C417.055342,102.294081 418.150176,102.586211 419.179266,102.648137 C421.276357,102.78949 423.095714,102.361392 424.911045,101.594046 L424.132854,99.1695018 Z" id="Fill-189" fill="#C8D4E5"></path>
                    <path d="M403.797651,189.325516 C403.588345,188.704908 403.266335,188.099108 402.80747,187.568697 C402.349948,187.042325 401.758254,186.59538 401.07935,186.301903 C400.400445,186.008427 399.647747,185.856304 398.89639,185.850919 C398.145033,185.849573 397.389651,185.997658 396.70538,186.283056 C396.018425,186.568455 395.397214,186.979053 394.881998,187.479847 C394.368124,187.980641 393.961586,188.574324 393.693244,189.219164 C393.422219,189.859965 393.302807,190.553269 393.320249,191.235803 C393.355134,192.60491 393.977686,193.928245 394.992018,194.893486 L395.38648,195.242157 L395.817169,195.555826 C395.968782,195.648716 396.119053,195.745644 396.276033,195.834494 C396.43838,195.913921 396.599385,195.997387 396.764415,196.070083 C397.431244,196.356828 398.167842,196.518374 398.909807,196.527798 C399.65043,196.533183 400.397762,196.39183 401.071299,196.101046 C401.746179,195.815647 402.333847,195.374087 402.79137,194.851753 C403.250234,194.330765 403.574928,193.729005 403.786918,193.112435 C404.000249,192.49452 404.103561,191.857757 404.106244,191.220995 C404.106244,190.585579 404.008299,189.946124 403.797651,189.325516" id="Fill-191" fill="#C8D4E5"></path>
                    <path d="M399.108246,191.607899 C398.505819,193.313561 397.716894,194.914217 396.765623,196.423331 C396.265165,197.162406 395.702989,197.86648 395.23205,198.624402 C394.765135,199.382325 394.370673,200.183326 394.003045,200.999136 L392.908211,203.450605 C392.52314,204.255645 392.117944,205.048569 391.692623,205.830723 C390.785628,207.365415 389.764587,208.834142 388.610718,210.227481 L387.137522,209.391478 C387.731899,207.680431 388.461788,206.047465 389.305723,204.477771 C389.753854,203.707733 390.224793,202.951157 390.713175,202.204004 L392.242723,199.998894 C392.751231,199.263857 393.231562,198.512666 393.639442,197.719742 C394.043296,196.925472 394.354572,196.078699 394.728909,195.266927 C395.528567,193.671655 396.489231,192.169273 397.63505,190.771896 L399.108246,191.607899 Z" id="Fill-193" fill="#215D9E"></path>
                    <polygon id="Fill-195" fill="#67B1FF" points="392.186103 216.276321 379.875927 207.885326 382.146098 206.273899 394.197324 213.306557"></polygon>
                    <path d="M323.344916,184.599338 C323.10475,183.892572 322.737122,183.199268 322.212514,182.593469 C321.690589,181.991708 321.014368,181.480144 320.237519,181.146281 C319.462012,180.809726 318.601976,180.636063 317.743283,180.629332 C316.884589,180.629332 316.021871,180.79761 315.238313,181.124742 C314.454755,181.450527 313.744991,181.919012 313.155981,182.491156 C312.568313,183.0633 312.104082,183.741795 311.798172,184.478178 C311.486896,185.211868 311.351383,186.003446 311.371509,186.782908 C311.409077,188.347217 312.121524,189.859023 313.28076,190.964271 L313.734258,191.361406 L314.223981,191.7195 C314.398404,191.825852 314.570142,191.936242 314.748589,192.038555 C314.933745,192.128752 315.117559,192.224333 315.30674,192.309145 C316.068831,192.634931 316.911424,192.819363 317.759383,192.830133 C318.606002,192.836864 319.459328,192.675317 320.228127,192.344147 C320.99961,192.017015 321.673147,191.513529 322.195072,190.917153 C322.718338,190.319431 323.089991,189.631512 323.332841,188.927438 C323.57569,188.220672 323.695102,187.493713 323.699127,186.766754 C323.699127,186.038448 323.586424,185.310142 323.344916,184.599338" id="Fill-197" fill="#3F72AC"></path>
                    <path d="M250.411786,208.92205 C257.914621,208.802237 265.2645,208.589534 272.492284,208.344522 L283.244736,208.002581 L293.871068,207.873344 C297.395736,207.850459 301.025058,207.940655 304.510817,207.890845 C307.88253,207.788532 311.200575,206.465197 313.744455,204.204892 C315.02042,203.084836 316.115254,201.748039 316.96053,200.260465 C317.785681,198.763467 318.354565,197.125116 318.640349,195.432916 C318.817455,194.583451 318.825505,193.740717 318.875148,192.850865 L318.908691,190.092458 L318.943575,184.572952 L320.218198,185.484343 L311.522585,188.440645 L302.891374,191.469642 C297.163621,193.50782 291.520394,195.525806 285.76044,197.423977 C280.038053,199.345034 274.146611,201.183972 268.292736,203.095606 L250.411786,208.92205 Z M248.742701,209.200718 L266.02659,202.783283 C271.89254,200.613175 277.720922,198.370371 283.722384,196.211032 C289.683595,194.028808 295.761535,191.963705 301.753606,189.921488 L310.705485,186.827872 L319.590279,183.662907 L320.85551,183.211922 L320.864902,184.572952 L320.899786,190.092458 L320.934671,192.850865 C320.907837,193.797258 320.914545,194.802885 320.740123,195.762741 C320.462389,197.701299 319.854595,199.59947 318.944917,201.345519 C318.015113,203.080798 316.794158,204.658569 315.34243,205.989981 C312.453731,208.667615 308.601686,210.346352 304.634254,210.513284 C300.792942,210.604827 297.087143,210.550978 293.278033,210.541554 L281.905711,210.338275 L270.660852,209.922293 C263.22242,209.630163 255.906083,209.36765 248.742701,209.200718 L248.742701,209.200718 Z" id="Fill-199" fill="#3F72AC"></path>
                    <path d="M236.22295,203.13357 C217.272659,202.766051 198.321026,202.623352 179.370734,202.358146 L150.943955,202.00409 L122.517176,201.810234 L65.6609352,201.647342 L8.80469397,201.656765 L7.26709598,201.656765 L7.27380452,203.18338 L7.32747286,215.298022 L7.33418141,216.774827 L8.79530201,216.770788 C27.8381714,216.715593 46.8515231,216.589048 65.9225683,216.731747 L123.181322,216.935027 C142.288593,216.980798 161.285845,216.781558 180.291146,216.675206 L208.775619,216.490774 L237.112503,216.198644 C237.362061,212.435956 237.579418,208.449796 237.60491,204.529601 L237.615644,203.16184 L236.22295,203.13357 Z" id="Fill-201" fill="#4BDF75"></path>
                    <path d="M40.7409799,217.724989 C39.8809447,215.26679 38.0575628,213.201687 35.7296985,212.179905 L36.2073467,211.160816 C38.7780603,212.412801 40.6873116,214.802344 41.4950201,217.469207 L40.7409799,217.724989 Z" id="Fill-203" fill="#57A7FF"></path>
                    <path d="M30.7790623,211.317381 C28.2445749,211.465466 25.8214492,212.576098 23.9967256,214.297915 L22.9247005,213.132087 C25.0499668,211.192183 27.8688965,210.055972 30.716002,209.975199 L30.7790623,211.317381 Z" id="Fill-205" fill="#57A7FF"></path>
                    <path d="M21.3897859,218.450737 C20.6317206,220.7972 20.9040874,223.453294 22.1049166,225.646288 L20.7323487,226.401518 C19.3155045,223.881392 18.9183588,220.754121 19.7958362,217.94725 L21.3897859,218.450737 Z" id="Fill-207" fill="#57A7FF"></path>
                    <g id="Group-211" transform="translate(24.150754, 228.857564)">
                        <mask id="mask-2" fill="white">
                            <use xlink:href="#path-1"></use>
                        </mask>
                        <g id="Clip-210"></g>
                        <path d="M1.31259347,0.483966436 L1.42932211,0.570124577 L1.37833719,0.536469053 C1.9150206,0.868985631 2.4637794,1.17457779 3.03937236,1.41555134 C3.59618141,1.66594844 4.18519146,1.8557656 4.78225176,1.98904147 C5.37931206,2.11827868 5.98710603,2.19770572 6.5949,2.22059148 C7.20001055,2.25828566 7.80109598,2.16001153 8.40218141,2.12904845 L8.60880452,4.00568047 C7.89367387,4.01645024 7.17720151,4.08241507 6.46609598,3.99221826 C5.75767387,3.92221477 5.05864372,3.78490023 4.37839749,3.59373686 C3.69815126,3.39853482 3.02863869,3.16967725 2.39401055,2.85735399 C1.75938241,2.56387782 1.16768894,2.20712927 0.590754271,1.82884118 L0.550503015,1.80191676 L0.539769347,1.79518565 L0.423040704,1.70902751 L1.31259347,0.483966436 Z" id="Fill-209" fill="#57A7FF" mask="url(#mask-2)"></path>
                    </g>
                    <path d="M37.0119693,229.2061 C37.9900749,228.497988 38.8219342,227.600059 39.4458286,226.541929 C39.7611302,226.016903 40.0254467,225.456875 40.2401201,224.873961 L40.7741201,223.079449 L42.3855121,223.341962 L41.9320146,225.464952 C41.7079492,226.152871 41.4194819,226.827328 41.0679543,227.472168 C40.3689241,228.759155 39.3948437,229.929021 38.2127985,230.825604 L37.0119693,229.2061 Z" id="Fill-212" fill="#57A7FF"></path>
                    <polygon id="Fill-214" fill="#57A7FF" points="40.7016678 218.043236 40.6359241 217.76053 41.6006126 217.432052 41.7213663 217.726874"></polygon>
                    <path d="M35.1881849,219.761418 C35.0124211,219.244469 34.7440794,218.736944 34.3616925,218.295383 C33.9806472,217.855169 33.4868985,217.480919 32.9206975,217.234561 C32.3544965,216.988203 31.7265769,216.861658 31.0986573,216.856273 C30.4707377,216.854927 29.8414764,216.977433 29.2685668,217.214368 C28.6956573,217.452649 28.1750744,217.794589 27.7457276,218.211917 C27.3163809,218.629246 26.9755869,219.124655 26.7515216,219.661797 C26.5234312,220.197593 26.4241447,220.776468 26.4375618,221.34592 C26.464396,222.487515 26.9836372,223.595455 27.8289136,224.401841 L28.1589739,224.692625 L28.5172101,224.955138 C28.6446724,225.033219 28.7694513,225.115338 28.899597,225.188034 C29.0351095,225.253999 29.1692804,225.325349 29.3074764,225.387275 C29.8642854,225.625556 30.4787879,225.761525 31.0986573,225.770948 C31.7171849,225.776333 32.3410794,225.659212 32.9032553,225.416892 C33.4681146,225.178611 33.9591799,224.811093 34.3415668,224.376263 C34.7239538,223.940088 34.9963206,223.436601 35.1747678,222.923691 C35.3532151,222.408088 35.4390844,221.876331 35.4431095,221.34592 C35.4444513,220.814163 35.3639487,220.281059 35.1881849,219.761418" id="Fill-216" fill="#FFFFFF"></path>
                    <path d="M226.232186,217.724989 C225.372151,215.26679 223.548769,213.201687 221.220905,212.179905 L221.698553,211.160816 C224.269266,212.412801 226.178518,214.802344 226.986226,217.469207 L226.232186,217.724989 Z" id="Fill-218" fill="#57A7FF"></path>
                    <path d="M216.270268,211.317381 C213.735781,211.465466 211.312655,212.576098 209.487932,214.297915 L208.415907,213.132087 C210.541173,211.192183 213.360103,210.055972 216.207208,209.975199 L216.270268,211.317381 Z" id="Fill-220" fill="#57A7FF"></path>
                    <path d="M206.880992,218.450737 C206.122927,220.7972 206.395293,223.453294 207.596123,225.646288 L206.223555,226.401518 C204.806711,223.881392 204.409565,220.754121 205.287042,217.94725 L206.880992,218.450737 Z" id="Fill-222" fill="#57A7FF"></path>
                    <g id="Group-226" transform="translate(209.306533, 228.857564)">
                        <mask id="mask-4" fill="white">
                            <use xlink:href="#path-3"></use>
                        </mask>
                        <g id="Clip-225"></g>
                        <path d="M1.6480206,0.483966436 L1.76474925,0.570124577 L1.71376432,0.536469053 C2.25044774,0.868985631 2.79920653,1.17457779 3.3747995,1.41555134 C3.93160854,1.66594844 4.52061859,1.8557656 5.11767889,1.98904147 C5.7147392,2.11827868 6.32253317,2.19770572 6.93032714,2.22059148 C7.53543769,2.25828566 8.13652312,2.16001153 8.73760854,2.12904845 L8.94423166,4.00568047 C8.22910101,4.01645024 7.51262864,4.08241507 6.80152312,3.99221826 C6.09310101,3.92221477 5.39407085,3.78490023 4.71382462,3.59373686 C4.03357839,3.39853482 3.36406583,3.16967725 2.72943769,2.85735399 C2.09480955,2.56387782 1.50311608,2.20712927 0.926181407,1.82884118 L0.885930151,1.80191676 L0.875196482,1.79518565 L0.758467839,1.70902751 L1.6480206,0.483966436 Z" id="Fill-224" fill="#57A7FF" mask="url(#mask-4)"></path>
                    </g>
                    <path d="M222.503175,229.2061 C223.481281,228.497988 224.31314,227.600059 224.937035,226.541929 C225.252336,226.016903 225.516653,225.456875 225.731326,224.873961 L226.265326,223.079449 L227.876718,223.341962 L227.423221,225.464952 C227.199155,226.152871 226.910688,226.827328 226.55916,227.472168 C225.86013,228.759155 224.88605,229.929021 223.704005,230.825604 L222.503175,229.2061 Z" id="Fill-227" fill="#57A7FF"></path>
                    <polygon id="Fill-229" fill="#57A7FF" points="226.192874 218.043236 226.12713 217.76053 227.091819 217.432052 227.212572 217.726874"></polygon>
                    <path d="M220.679391,219.761418 C220.503627,219.244469 220.235285,218.736944 219.852898,218.295383 C219.471853,217.855169 218.978105,217.480919 218.411904,217.234561 C217.845703,216.988203 217.217783,216.861658 216.589863,216.856273 C215.961944,216.854927 215.332682,216.977433 214.759773,217.214368 C214.186863,217.452649 213.66628,217.794589 213.236934,218.211917 C212.807587,218.629246 212.466793,219.124655 212.242728,219.661797 C212.014637,220.197593 211.915351,220.776468 211.928768,221.34592 C211.955602,222.487515 212.474843,223.595455 213.32012,224.401841 L213.65018,224.692625 L214.008416,224.955138 C214.135878,225.033219 214.260657,225.115338 214.390803,225.188034 C214.526316,225.253999 214.660486,225.325349 214.798682,225.387275 C215.355491,225.625556 215.969994,225.761525 216.589863,225.770948 C217.208391,225.776333 217.832285,225.659212 218.394461,225.416892 C218.959321,225.178611 219.450386,224.811093 219.832773,224.376263 C220.21516,223.940088 220.487527,223.436601 220.665974,222.923691 C220.844421,222.408088 220.93029,221.876331 220.934316,221.34592 C220.935657,220.814163 220.855155,220.281059 220.679391,219.761418" id="Fill-231" fill="#FFFFFF"></path>
                    <path d="M249.577244,209.061384 C249.578585,208.805602 249.20559,208.365388 248.629997,208.09749 C248.069163,207.820169 247.400992,207.633044 246.720746,207.518615 C245.353545,207.295142 243.940726,207.204946 242.526565,207.199561 C241.113746,207.194176 239.694219,207.308605 238.364585,207.62362 C237.697756,207.762281 237.049711,207.973638 236.523761,208.256344 C235.980369,208.535012 235.662384,208.9133 235.642259,209.061384 C235.575173,209.213507 235.863641,209.71834 236.409716,210.048164 C236.934324,210.394143 237.589078,210.660695 238.267982,210.831665 C239.639209,211.17899 241.103013,211.188413 242.526565,211.123795 C243.956827,211.052445 245.369646,210.921862 246.740872,210.670118 C247.421118,210.540881 248.087947,210.342987 248.648781,210.054895 C249.221691,209.776228 249.593344,209.318512 249.577244,209.061384 M251.27048,209.061384 C251.267796,209.702185 250.977987,210.247405 250.664028,210.647233 C250.348726,211.065907 249.974389,211.331113 249.616153,211.609781 C248.884922,212.129422 248.11344,212.474054 247.333907,212.760799 C245.7735,213.336982 244.136616,213.524107 242.526565,213.471604 C240.913832,213.389485 239.32659,213.078508 237.766183,212.599253 C236.985309,212.352895 236.20041,212.078265 235.434294,211.613819 C235.058616,211.363422 234.665495,211.119756 234.313967,210.710505 C233.969148,210.316062 233.64848,209.750649 233.618962,209.061384 C233.604204,208.372119 233.896696,207.770358 234.225415,207.339568 C234.5595,206.891276 234.940545,206.601839 235.320249,206.324517 C236.085023,205.796798 236.877972,205.468321 237.670922,205.189653 C239.270239,204.678089 240.901756,204.472117 242.526565,204.449231 C244.151374,204.462693 245.790942,204.691551 247.354033,205.296004 C248.133565,205.597558 248.905048,205.951614 249.634937,206.484717 C249.993173,206.76877 250.366168,207.038014 250.677445,207.46342 C250.990063,207.868633 251.274505,208.420583 251.27048,209.061384" id="Fill-233" fill="#3F72AC"></path>
                    <polygon id="Fill-235" fill="#C8D4E5" points="162.561407 198.508493 211.713558 198.508493 210.865598 168.748932 163.409367 168.748932"></polygon>
                    <mask id="mask-6" fill="white">
                        <use xlink:href="#path-5"></use>
                    </mask>
                    <g id="Clip-238"></g>
                    <polygon id="Fill-237" fill="#B0BED2" mask="url(#mask-6)" points="162.561407 174.70044 211.713558 174.70044 211.713558 168.748798 162.561407 168.748798"></polygon>
                    <polygon id="Fill-239" fill="#B0BED2" mask="url(#mask-6)" points="180.357829 183.203172 194.763754 183.203172 194.763754 179.308555 180.357829 179.308555"></polygon>
                    <polygon id="Fill-240" fill="#C8D4E5" mask="url(#mask-6)" points="150.045681 170.210255 199.19649 170.210255 198.349872 140.450694 150.893641 140.450694"></polygon>
                    <polygon id="Fill-241" fill="#B0BED2" mask="url(#mask-6)" points="150.04595 146.40153 199.196759 146.40153 199.196759 140.449887 150.04595 140.449887"></polygon>
                    <polygon id="Fill-242" fill="#B0BED2" mask="url(#mask-6)" points="167.842372 154.904261 182.248296 154.904261 182.248296 151.009644 167.842372 151.009644"></polygon>
                    <polygon id="Fill-243" fill="#C8D4E5" mask="url(#mask-6)" points="140.602603 196.991436 85.0303764 196.991436 85.9883563 128.334167 139.643281 128.334167"></polygon>
                    <polygon id="Fill-244" fill="#B0BED2" mask="url(#mask-6)" points="85.0307789 135.544258 140.603005 135.544258 140.603005 128.335244 85.0307789 128.335244"></polygon>
                    <polygon id="Fill-245" fill="#B0BED2" mask="url(#mask-6)" points="104.19306 145.841502 120.481402 145.841502 120.481402 141.12569 104.19306 141.12569"></polygon>
                    <polygon id="Fill-246" fill="#C8D4E5" mask="url(#mask-6)" points="73.5171754 196.991436 17.9449492 196.991436 18.9029291 153.912366 72.5578538 153.912366"></polygon>
                    <polygon id="Fill-247" fill="#B0BED2" mask="url(#mask-6)" points="17.9453518 161.122456 73.5175779 161.122456 73.5175779 153.913443 17.9453518 153.913443"></polygon>
                    <polygon id="Fill-248" fill="#B0BED2" mask="url(#mask-6)" points="37.1076332 171.4197 53.3959749 171.4197 53.3959749 166.703888 37.1076332 166.703888"></polygon>
                    <polygon id="Fill-249" fill="#57A7FF" mask="url(#mask-6)" points="62.4848427 86.8220977 55.4341643 82.9207494 55.9681643 81.9878183 62.8819884 86.1274477"></polygon>
                    <path d="M54.1175457,85.9478618 C53.3420382,88.5676078 52.3048975,91.1200428 51.0061236,93.5405481 L49.7019829,92.8108963 C51.0155156,90.5209745 52.0754653,88.0843145 52.9207417,85.5682275 L54.1175457,85.9478618 Z" id="Fill-250" fill="#57A7FF" mask="url(#mask-6)"></path>
                    <path d="M48.0417528,98.1545858 C46.3807176,100.34758 44.4687829,102.358834 42.3287578,104.083343 L41.2889337,102.813857 C43.2961296,101.117618 45.1570794,99.2477172 46.7751799,97.1731907 L48.0417528,98.1545858 Z" id="Fill-251" fill="#57A7FF" mask="url(#mask-6)"></path>
                    <path d="M37.8532206,107.24427 C35.5186477,108.673956 33.0485623,109.86267 30.5181,110.872335 L29.9572658,109.456111 C32.4166176,108.477408 34.7887583,107.288695 37.0280698,105.898049 L37.8532206,107.24427 Z" id="Fill-252" fill="#57A7FF" mask="url(#mask-6)"></path>
                    <path d="M32.7091101,111.970448 C35.0409995,113.30186 37.3943563,114.599617 39.6900196,115.994302 L38.6622709,117.716119 C36.3545322,116.342973 34.1031452,114.874246 31.8329744,113.439175 L32.7091101,111.970448 Z" id="Fill-253" fill="#57A7FF" mask="url(#mask-6)"></path>
                    <path d="M44.2708809,118.800096 C46.5598357,120.206897 48.8219563,121.658123 51.0720015,123.128196 L50.3018608,124.417876 C47.948504,123.120119 45.6058809,121.803515 43.2914337,120.443832 L44.2708809,118.800096 Z" id="Fill-254" fill="#57A7FF" mask="url(#mask-6)"></path>
                    <polygon id="Fill-255" fill="#57A7FF" mask="url(#mask-6)" points="195.530138 65.8821692 195.285947 65.6869671 195.165193 65.588693 195.103474 65.540229 195.072615 65.5173433 195.064565 65.5106122 195.06054 65.5079197 195.06054 65.5065735 195.059198 65.5065735 195.126283 65.4163767 195.1236 65.4150305 195.108841 65.4042607 195.66565 65.3275261 190.848917 71.8001565 190.085484 71.2158966 195.031022 64.8428866 195.277896 64.5238322 195.587831 64.7648058 195.603932 64.7769218 195.606615 64.778268 195.672359 64.6894174 195.672359 64.6907636 195.673701 64.6907636 195.677726 64.6934561 195.685776 64.7001872 195.719319 64.7230729 195.781037 64.7688444 195.909841 64.8603875 196.164766 65.046166"></polygon>
                    <polygon id="Fill-256" fill="#57A7FF" mask="url(#mask-6)" points="187.638476 76.1141216 182.821743 82.5880982 181.843637 81.8382531 186.787833 75.4652431"></polygon>
                    <path d="M179.610497,86.9023325 L178.758513,88.0371968 L178.452603,86.9857982 C180.564452,87.7450668 182.628,88.6524198 184.609704,89.7280503 L183.91604,90.993498 C182.018864,89.9326759 180.029111,89.0280154 177.98703,88.2647081 L177.118945,87.9402689 L177.679779,87.2106171 L178.545181,86.0878688 L179.610497,86.9023325 Z" id="Fill-257" fill="#57A7FF" mask="url(#mask-6)"></path>
                    <path d="M189.219948,92.6684661 C191.421692,94.3081633 193.440963,96.2036424 195.207993,98.3131706 L193.974963,99.3430297 C192.312586,97.3075436 190.40736,95.4726444 188.315637,93.8746801 L189.219948,92.6684661 Z" id="Fill-258" fill="#57A7FF" mask="url(#mask-6)"></path>
                    <path d="M198.408773,102.784913 C199.818909,105.148877 200.953994,107.663618 201.855623,110.249708 L200.331442,110.790889 C199.444572,108.303073 198.330954,105.900068 196.97717,103.650533 L198.408773,102.784913 Z" id="Fill-259" fill="#57A7FF" mask="url(#mask-6)"></path>
                    <polygon id="Fill-260" fill="#57A7FF" mask="url(#mask-6)" points="203.359007 115.510874 203.44756 115.905317 202.058891 115.587609 206.827324 109.582117 208.032178 110.540626 203.295947 116.57035 202.280273 117.864068 201.90862 116.252642 201.820067 115.868969"></polygon>
                    <polygon id="Fill-261" fill="#57A7FF" mask="url(#mask-6)" points="210.170995 105.369522 215.101774 98.9843964 216.424699 100.035795 211.355724 106.310531"></polygon>
                    <polygon id="Fill-262" fill="#57A7FF" mask="url(#mask-6)" points="218.385069 94.724684 220.115873 92.4738026 220.040738 93.5400096 217.254009 89.1890234 218.905652 88.0743525 221.669572 92.5828465 222.009024 93.1374895 221.594436 93.6490535 219.80728 95.8541634"></polygon>
                    <polygon id="Fill-263" fill="#57A7FF" mask="url(#mask-6)" points="214.146344 84.8764046 209.080052 78.7107126 210.435178 77.4587271 215.740293 83.6473048"></polygon>
                    <polygon id="Fill-264" fill="#57A7FF" mask="url(#mask-6)" points="205.442278 74.8244419 199.623288 69.3251293 200.463197 68.318156 206.597489 73.6343826"></polygon>
                    <path d="M64.0479332,44.9499141 L66.4858176,44.0573696 L67.7081141,43.6117704 L68.3185915,43.3882977 L68.6231593,43.2765614 L68.7761141,43.2200201 L68.8525915,43.1917495 L68.8901593,43.1782873 L68.9102849,43.1715562 L68.9196769,43.1675175 L68.9250437,43.1661713 L68.9263854,43.1661713 C69.0122548,43.3694506 68.9505362,43.2213663 68.9706618,43.2671379 L68.9733452,43.2657916 L68.762697,43.7894716 L65.5425965,36.3852563 L66.4576417,35.9988909 L69.4979533,43.4771483 L69.6535915,43.8594751 L69.2859633,44.0008283 L69.2846216,44.0021745 C69.3034055,44.047946 69.2403452,43.9012079 69.3275563,44.1044873 L69.3262146,44.1044873 L69.3221894,44.1071797 L69.3114558,44.1112184 L69.2926719,44.1192957 L69.255104,44.1354504 L69.1799683,44.1677597 L69.029697,44.2337245 L68.7278126,44.3629617 L68.1253854,44.6254748 L66.9191894,45.1478085 L64.5041141,46.1965147 L64.0479332,44.9499141 Z" id="Fill-265" fill="#57A7FF" mask="url(#mask-6)"></path>
                    <polygon id="Fill-266" fill="#57A7FF" mask="url(#mask-6)" points="63.396802 31.4482602 60.1780432 24.0453911 61.3909477 23.5311347 64.4312593 31.0120846"></polygon>
                    <path d="M57.7979864,24.3885428 C55.5747754,25.9891995 53.1556749,27.3434978 50.586303,28.34374 L50.0455945,26.9140533 C52.4982377,26.0013155 54.826102,24.7439451 56.9875945,23.2375239 L57.7979864,24.3885428 Z" id="Fill-267" fill="#57A7FF" mask="url(#mask-6)"></path>
                    <path d="M45.2889693,29.854873 C42.5760347,30.3650908 39.789306,30.4808658 37.0508789,30.2129678 L37.1971251,28.5678858 C39.8054065,28.77655 42.4338136,28.709239 45.0085523,28.2717172 L45.2889693,29.854873 Z" id="Fill-268" fill="#57A7FF" mask="url(#mask-6)"></path>
                    <polygon id="Fill-269" fill="#57A7FF" mask="url(#mask-6)" points="31.6451352 29.2895948 29.0180698 28.5545582 29.9841 27.5045059 31.9644618 32.5151403 30.5301754 33.0913228 28.5189543 28.0928044 27.9259191 26.6200387 29.4836427 27.0414058 32.0181302 27.7293248"></polygon>
                    <polygon id="Fill-270" fill="#57A7FF" mask="url(#mask-6)" points="33.9433477 37.5220053 37.0158603 44.9881467 35.447403 45.6181781 32.5385789 38.0847256"></polygon>
                    <path d="M39.0967161,49.9522019 L39.2080779,50.2187537 L38.323892,49.6250702 C40.8744799,49.5469894 43.4210427,49.3719807 45.9528467,49.0623498 L46.1930126,51.0601418 C43.590098,51.3751575 40.9670578,51.5461275 38.3426759,51.5165107 L37.6812136,51.5097796 L37.4571482,50.9228272 L37.3538367,50.6522368 L39.0967161,49.9522019 Z" id="Fill-271" fill="#57A7FF" mask="url(#mask-6)"></path>
                    <path d="M51.1903402,48.2812724 C53.769104,47.6660495 56.3586015,47.084482 58.9561492,46.5069532 L59.417697,48.04703 C56.8067322,48.765912 54.1863754,49.4821015 51.5552849,50.1605969 L51.1903402,48.2812724 Z" id="Fill-272" fill="#57A7FF" mask="url(#mask-6)"></path>
                </g>
                <g id="Group-280" transform="translate(277.000000, 153.000000)">
                    <g id="Group-276" transform="translate(4.074074, 0.000000)">
                        <mask id="mask-8" fill="white">
                            <use xlink:href="#path-7"></use>
                        </mask>
                        <g id="Clip-275"></g>
                        <path d="M1.02383951,0.172765432 C1.18544444,0.982148148 1.2927284,1.79153086 1.42988889,2.60091358 C1.55754321,3.4102963 1.7327284,4.21967901 1.7327284,5.02906173 C1.76124691,5.83844444 1.61050617,6.64918519 1.49235802,7.45720988 C1.3592716,8.26659259 1.23569136,9.07733333 1.02383951,9.88535802 C1.00890123,9.94239506 0.950506173,9.9777037 0.89482716,9.96140741 C0.856802469,9.95325926 0.829641975,9.92202469 0.821493827,9.88535802 C0.606925926,9.07733333 0.483345679,8.26659259 0.351617284,7.45720988 C0.232111111,6.64918519 0.0813703704,5.83844444 0.111246914,5.02906173 C0.111246914,4.21967901 0.287790123,3.4102963 0.415444444,2.60091358 C0.549888889,1.79153086 0.65717284,0.982148148 0.821493827,0.172765432 C0.831,0.11708642 0.885320988,0.0804197531 0.942358025,0.0899259259 C0.985814815,0.0994320988 1.01569136,0.133382716 1.02383951,0.172765432" id="Fill-274" fill="#57A7FF" mask="url(#mask-8)"></path>
                    </g>
                    <g id="Group-279" transform="translate(0.000000, 4.074074)">
                        <mask id="mask-10" fill="white">
                            <use xlink:href="#path-9"></use>
                        </mask>
                        <g id="Clip-278"></g>
                        <path d="M0.139222222,0.854358025 C0.948604938,0.691395062 1.75662963,0.584111111 2.56737037,0.448308642 C3.37675309,0.320654321 4.18477778,0.144111111 4.99551852,0.144111111 C5.80490123,0.114234568 6.61564198,0.267691358 7.42366667,0.385839506 C8.23304938,0.517567901 9.04379012,0.641148148 9.85181481,0.854358025 C9.90885185,0.869296296 9.94280247,0.927691358 9.9278642,0.982012346 C9.91971605,1.02139506 9.88848148,1.04719753 9.85181481,1.0567037 C9.04379012,1.26991358 8.23304938,1.39485185 7.42366667,1.52658025 C6.61564198,1.64337037 5.80490123,1.79546914 4.99551852,1.76695062 C4.18477778,1.76695062 3.37675309,1.59040741 2.56737037,1.46275309 C1.75662963,1.32695062 0.948604938,1.21966667 0.139222222,1.0567037 C0.0821851852,1.04583951 0.0468765432,0.992876543 0.056382716,0.935839506 C0.0645308642,0.892382716 0.0998395062,0.862506173 0.139222222,0.854358025" id="Fill-277" fill="#57A7FF" mask="url(#mask-10)"></path>
                    </g>
                </g>
                <g id="Group-299" transform="translate(106.000000, 0.000000)">
                    <path d="M136.059547,23.3184824 C140.411995,20.6058353 144.749679,17.8769529 149.067232,15.1237176 C155.271784,10.8592471 147.323837,-3.53875294 140.589153,0.838011765 C135.979021,3.28007059 131.384995,5.74918824 126.803047,8.23995294 C132.515047,11.0554235 136.048811,17.4534824 136.059547,23.3184824" id="Fill-281" fill="#FFED72"></path>
                    <path d="M18.7564605,71.9663235 C11.4527237,77.3469706 5.19582895,83.8573235 0.0354342105,91.5528529 C7.86527632,90.8520294 16.7191447,89.6573824 27.1862237,86.1979118 C27.8908289,80.3004412 25.5689868,75.0821471 18.7564605,71.9663235" id="Fill-283" fill="#FFFFFF"></path>
                    <path d="M10.5492184,90.1107529 C6.84500789,90.8007529 3.36492895,91.2553412 0.0351657895,91.5516353 C1.82956053,88.8782235 3.75548158,86.3468706 5.81292895,83.9548706 C8.10524474,85.5351059 9.63792895,88.1205765 10.5492184,90.1107529" id="Fill-285" fill="#57A7FF"></path>
                    <path d="M136.059547,23.3184824 C138.514258,21.7883059 140.964942,20.2527176 143.410258,18.7117176 C145.571047,12.1120706 139.567811,5.00236471 134.9456,3.84424706 C132.227837,5.30136471 129.512758,6.76795294 126.803047,8.23995294 C132.515047,11.0554235 136.048811,17.4534824 136.059547,23.3184824" id="Fill-287" fill="#FFFFFF"></path>
                    <path d="M126.812979,8.24725882 C90.0755316,28.2288471 54.1997158,49.7189647 18.7198211,71.9044941 L18.7560579,71.9667294 C22.2079526,73.5442588 24.4492684,75.5696118 25.7350053,77.9494353 C27.1173737,80.3955529 27.5401368,83.1974941 27.1898474,86.1753176 L27.1979,86.1915529 C64.2386632,66.1301412 100.676821,45.3503176 136.058742,23.3068471 C136.043979,17.4486118 132.516926,11.0613765 126.812979,8.24725882" id="Fill-289" fill="#57A7FF"></path>
                    <path d="M130.902239,11.2279235 C130.448608,10.7733353 129.958739,10.3606882 129.452766,9.96292353 L21.9125553,73.7689824 C22.4641605,74.1613353 22.9634237,74.5712765 23.4197395,74.9988059 L130.902239,11.2279235 Z" id="Fill-291" fill="#FFFFFF"></path>
                    <path d="M134.804008,17.1919588 C134.577192,16.6237235 134.311455,16.0730765 134.025587,15.5278412 L26.5377184,79.7221941 C26.7524553,80.3161353 26.9094816,80.9303706 27.0329553,81.5554294 L134.804008,17.1919588 Z" id="Fill-293" fill="#FFFFFF"></path>
                    <path d="M129.497189,6.55080588 C132.373321,7.80498235 134.942111,9.97780588 136.512374,12.7689235 C137.269321,14.1692176 138.023584,15.5762765 138.584584,17.0915706 C139.0664,18.6258059 139.242216,20.2791 138.980505,21.8715118 L138.292005,21.8728647 C138.018216,20.3602765 137.696111,18.9193941 137.296163,17.4812176 C136.971374,16.0254529 136.451979,14.5778059 135.601084,13.3317471 C133.963716,10.8342176 131.931768,8.52068824 129.260979,7.03921765 L129.497189,6.55080588 Z" id="Fill-295" fill="#EAF2FB"></path>
                    <path d="M132.671537,4.76979412 C135.546326,6.02397059 138.116458,8.19814706 139.686721,10.9879118 C140.443668,12.3895588 141.197932,13.7952647 141.758932,15.3119118 C142.240747,16.8461471 142.416563,18.4980882 142.154853,20.0918529 L141.466353,20.0932059 C141.192563,18.5806176 140.870458,17.1383824 140.470511,15.7002059 C140.144379,14.2444412 139.626326,12.7967941 138.775432,11.5507353 C137.136721,9.05455882 135.104774,6.73967647 132.433984,5.25820588 L132.671537,4.76979412 Z" id="Fill-297" fill="#EAF2FB"></path>
                </g>
                <g id="Group-74" transform="translate(261.814647, 32.409067) rotate(190.000000) translate(-261.814647, -32.409067) translate(249.814647, 20.909067)" fill="#56A7FF">
                    <path d="M16.0058,0.1676 C16.0808,0.1376 16.1558,0.1116 16.2368,0.1036 C16.4408,0.0806 16.6488,0.1446 16.8018,0.2806 C16.8498,0.3186 16.8868,0.3666 16.9238,0.4146 C19.4918,4.1716 21.5218,8.1006 23.5728,11.9256 C23.6598,12.0886 23.6948,12.2676 23.6538,12.4526 C23.5708,12.8196 23.2098,13.0706 22.8348,13.0216 C22.7548,13.0096 22.6768,12.9856 22.6048,12.9476 C22.4928,12.8926 22.4068,12.8096 22.3328,12.7096 C19.3308,9.2756 17.1518,5.4036 15.6828,1.2006 C15.6448,1.1276 15.6118,1.0566 15.5978,0.9756 C15.5588,0.7736 15.6058,0.5626 15.7268,0.3976 C15.7758,0.3326 15.8358,0.2796 15.9008,0.2306 C15.9518,0.1956 15.9518,0.1956 16.0058,0.1676" id="Fill-68"></path>
                    <path d="M7.4115,6.7765 C7.4755,6.7245 7.5405,6.6785 7.6165,6.6485 C7.8045,6.5695 8.0215,6.5715 8.2065,6.6555 C8.2635,6.6815 8.3125,6.7155 8.3625,6.7505 C11.8935,9.6235 14.9565,12.8125 18.0105,15.8945 C18.1395,16.0295 18.2255,16.1905 18.2375,16.3785 C18.2625,16.7545 17.9885,17.0975 17.6145,17.1545 C17.5345,17.1675 17.4515,17.1665 17.3725,17.1505 C17.2495,17.1295 17.1435,17.0755 17.0435,17.0035 C13.1905,14.5615 9.9995,11.4685 7.3965,7.8595 C7.3395,7.7995 7.2885,7.7385 7.2505,7.6645 C7.1555,7.4845 7.1415,7.2675 7.2105,7.0765 C7.2375,6.9985 7.2805,6.9305 7.3285,6.8645 C7.3705,6.8195 7.3705,6.8195 7.4115,6.7765" id="Fill-70"></path>
                    <path d="M1.0533,15.5562 C1.0983,15.4882 1.1493,15.4272 1.2123,15.3732 C1.3703,15.2452 1.5783,15.1862 1.7813,15.2152 C1.8423,15.2232 1.8993,15.2412 1.9553,15.2612 C6.1593,17.0112 10.0033,19.1972 13.8073,21.2822 C13.9693,21.3752 14.0963,21.5062 14.1623,21.6832 C14.2943,22.0372 14.1273,22.4452 13.7853,22.6052 C13.7133,22.6372 13.6343,22.6612 13.5533,22.6692 C13.4283,22.6832 13.3113,22.6622 13.1953,22.6192 C8.8043,21.3762 4.8663,19.3182 1.3453,16.5982 C1.2743,16.5582 1.2083,16.5142 1.1503,16.4552 C1.0083,16.3082 0.9333,16.1052 0.9453,15.9002 C0.9493,15.8172 0.9703,15.7422 0.9973,15.6652 C1.0233,15.6092 1.0233,15.6102 1.0533,15.5562" id="Fill-72"></path>
                </g>
                <g id="Group-306" transform="translate(521.000000, 32.000000)">
                    <g id="Group-302" transform="translate(4.074074, 0.000000)">
                        <mask id="mask-12" fill="white">
                            <use xlink:href="#path-11"></use>
                        </mask>
                        <g id="Clip-301"></g>
                        <path d="M1.02383951,0.172765432 C1.18544444,0.982148148 1.2927284,1.79153086 1.42988889,2.60091358 C1.55754321,3.4102963 1.7327284,4.21967901 1.7327284,5.02906173 C1.76124691,5.83844444 1.61050617,6.64918519 1.49235802,7.45720988 C1.3592716,8.26659259 1.23569136,9.07733333 1.02383951,9.88535802 C1.00890123,9.94239506 0.950506173,9.9777037 0.89482716,9.96140741 C0.856802469,9.95325926 0.829641975,9.92202469 0.821493827,9.88535802 C0.606925926,9.07733333 0.483345679,8.26659259 0.351617284,7.45720988 C0.232111111,6.64918519 0.0813703704,5.83844444 0.111246914,5.02906173 C0.111246914,4.21967901 0.287790123,3.4102963 0.415444444,2.60091358 C0.549888889,1.79153086 0.65717284,0.982148148 0.821493827,0.172765432 C0.831,0.11708642 0.885320988,0.0804197531 0.942358025,0.0899259259 C0.985814815,0.0994320988 1.01569136,0.133382716 1.02383951,0.172765432" id="Fill-300" fill="#57A7FF" mask="url(#mask-12)"></path>
                    </g>
                    <g id="Group-305" transform="translate(0.000000, 4.074074)">
                        <mask id="mask-14" fill="white">
                            <use xlink:href="#path-13"></use>
                        </mask>
                        <g id="Clip-304"></g>
                        <path d="M0.139222222,0.854358025 C0.948604938,0.691395062 1.75662963,0.584111111 2.56737037,0.448308642 C3.37675309,0.320654321 4.18477778,0.144111111 4.99551852,0.144111111 C5.80490123,0.114234568 6.61564198,0.267691358 7.42366667,0.385839506 C8.23304938,0.517567901 9.04379012,0.641148148 9.85181481,0.854358025 C9.90885185,0.869296296 9.94280247,0.927691358 9.9278642,0.982012346 C9.91971605,1.02139506 9.88848148,1.04719753 9.85181481,1.0567037 C9.04379012,1.26991358 8.23304938,1.39485185 7.42366667,1.52658025 C6.61564198,1.64337037 5.80490123,1.79546914 4.99551852,1.76695062 C4.18477778,1.76695062 3.37675309,1.59040741 2.56737037,1.46275309 C1.75662963,1.32695062 0.948604938,1.21966667 0.139222222,1.0567037 C0.0821851852,1.04583951 0.0468765432,0.992876543 0.056382716,0.935839506 C0.0645308642,0.892382716 0.0998395062,0.862506173 0.139222222,0.854358025" id="Fill-303" fill="#57A7FF" mask="url(#mask-14)"></path>
                    </g>
                </g>
                <g id="Group-313" transform="translate(38.000000, 60.000000)" stroke="#FFFFFF">
                    <path d="M286.849768,1.65629266 C286.763874,1.39919542 286.629663,1.14882848 286.440426,0.929420885 C286.252532,0.711359353 286.006926,0.525603234 285.726426,0.40311188 C285.445926,0.281966584 285.134558,0.218701819 284.823189,0.21735576 C284.513163,0.216009701 284.199111,0.276582349 283.915926,0.395035527 C283.632742,0.510796587 283.375058,0.6804 283.161663,0.887693061 C282.949611,1.09498612 282.780505,1.34131489 282.669111,1.60648848 C282.556374,1.87166207 282.506716,2.1583726 282.514768,2.4396989 C282.526847,3.00638967 282.784532,3.55423562 283.203268,3.95401509 L283.367005,4.09804339 L283.544163,4.22726503 C283.607242,4.26630074 283.670321,4.30668251 283.734742,4.34302609 C283.801847,4.37667757 283.867611,4.4116751 283.936058,4.44128839 C284.211189,4.55974157 284.517189,4.62704451 284.823189,4.63242874 C285.130532,4.63512086 285.439216,4.57589427 285.717032,4.4574411 C285.996189,4.33898792 286.241795,4.15592392 286.431032,3.9405545 C286.620268,3.72518509 286.755821,3.47751026 286.843058,3.22175908 C286.932979,2.96735396 286.974584,2.70218037 286.977268,2.4396989 C286.977268,2.17721743 286.935663,1.91204384 286.849768,1.65629266" id="Stroke-307"></path>
                    <path d="M5.00766316,15.116881 C4.92176842,14.8597838 4.78755789,14.6094168 4.59832105,14.3900093 C4.41042632,14.1719477 4.16482105,13.9861916 3.88432105,13.8637002 C3.60382105,13.742555 3.29245263,13.6792902 2.98108421,13.6779441 C2.67105789,13.6765981 2.35700526,13.7371707 2.07382105,13.8556239 C1.79063684,13.971385 1.53295263,14.1409884 1.31955789,14.3482814 C1.10750526,14.5555745 0.9384,14.8019033 0.827005263,15.0670768 C0.714268421,15.3322504 0.664610526,15.618961 0.672663158,15.9002873 C0.684742105,16.466978 0.942426316,17.014824 1.36116316,17.4146035 L1.5249,17.5586318 L1.70205789,17.6878534 C1.76513684,17.7268891 1.82821579,17.7672709 1.89263684,17.8036145 C1.95974211,17.8372659 2.02550526,17.8722635 2.09395263,17.9018768 C2.36908421,18.0203299 2.67508421,18.0876329 2.98108421,18.0930171 C3.28842632,18.0957092 3.59711053,18.0364826 3.87492632,17.9180295 C4.15408421,17.7995763 4.39968947,17.6165123 4.58892632,17.4011429 C4.77816316,17.1857735 4.91371579,16.9380986 5.00095263,16.6823475 C5.09087368,16.4279423 5.13247895,16.1627687 5.13516316,15.9002873 C5.13516316,15.6378058 5.09355789,15.3726322 5.00766316,15.116881" id="Stroke-309"></path>
                    <path d="M407.639242,77.0355875 C407.553347,76.7784903 407.419137,76.5281233 407.2299,76.3087157 C407.042005,76.0906542 406.7964,75.9048981 406.5159,75.7824067 C406.2354,75.6612614 405.924032,75.5979967 405.612663,75.5966506 C405.302637,75.5953046 404.988584,75.6558772 404.7054,75.7743304 C404.422216,75.8900914 404.164532,76.0596949 403.951137,76.2669879 C403.739084,76.474281 403.569979,76.7206097 403.458584,76.9857833 C403.345847,77.2509569 403.296189,77.5376675 403.304242,77.8189938 C403.316321,78.3856845 403.574005,78.9335305 403.992742,79.3333099 L404.156479,79.4773382 L404.333637,79.6065599 C404.396716,79.6455956 404.459795,79.6859774 404.524216,79.722321 C404.591321,79.7559724 404.657084,79.79097 404.725532,79.8205832 C405.000663,79.9390364 405.306663,80.0063394 405.612663,80.0117236 C405.920005,80.0144157 406.228689,79.9551891 406.506505,79.836736 C406.785663,79.7182828 407.031268,79.5352188 407.220505,79.3198494 C407.409742,79.1044799 407.545295,78.8568051 407.632532,78.6010539 C407.722453,78.3466488 407.764058,78.0814752 407.766742,77.8189938 C407.766742,77.5565123 407.725137,77.2913387 407.639242,77.0355875" id="Stroke-311"></path>
                </g>
            </g>
        </g>
    </g>
</svg>