<?xml version="1.0" encoding="UTF-8"?>
<svg width="254px" height="174px" viewBox="0 0 254 174" version="1.1" xmlns="http://www.w3.org/2000/svg" xmlns:xlink="http://www.w3.org/1999/xlink">
    <!-- Generator: Sketch 47.1 (45422) - http://www.bohemiancoding.com/sketch -->
    <title>logo</title>
    <desc>Created with Sketch.</desc>
    <defs>
        <filter x="-0.0%" y="-0.1%" width="100.1%" height="100.5%" filterUnits="objectBoundingBox" id="filter-1">
            <feOffset dx="0" dy="1" in="SourceAlpha" result="shadowOffsetOuter1"></feOffset>
            <feColorMatrix values="0 0 0 0 0.149019608   0 0 0 0 0.156862745   0 0 0 0 0.176470588  0 0 0 0.1 0" type="matrix" in="shadowOffsetOuter1" result="shadowMatrixOuter1"></feColorMatrix>
            <feMerge>
                <feMergeNode in="shadowMatrixOuter1"></feMergeNode>
                <feMergeNode in="SourceGraphic"></feMergeNode>
            </feMerge>
        </filter>
    </defs>
    <g id="Kilt---landing-page" stroke="none" stroke-width="1" fill="none" fill-rule="evenodd">
        <g id="Kilt---Landing---Green" transform="translate(-675.000000, -78.000000)">
            <g id="Header-banner" filter="url(#filter-1)" transform="translate(0.000000, 49.000000)">
                <g id="logo" transform="translate(675.000000, 28.000000)">
                    <path d="M253.501785,123.280282 C252.763702,121.288982 251.643239,117.961257 249.011674,114.680535 C241.975113,105.908652 227.082603,108.310281 235.717921,101.686589 C244.352604,95.0628965 244.92808,64.9825179 226.855208,56.2074598 C208.782971,47.4330368 179.563901,59.7181182 178.111236,49.7108043 C176.657937,39.7034904 150.656706,15.8040811 102.779125,13.9772938 C54.9015434,12.1505064 92.0559591,63.0363161 40.7407655,67.3981203 C-10.573793,71.7611948 0.505710438,109.089651 4.64647079,124.396935 C9.11371539,140.911702 35.1352723,179.657887 68.3725122,164.413487 C77.2041017,160.362922 80.8303635,149.609268 96.1903676,160.602386 C149.442235,198.713388 261.449835,144.722802 253.501785,123.280282" id="Fill-1" fill="#EEEFF0" opacity="0.600000024"></path>
                    <g id="logo-illu" transform="translate(21.000000, 0.000000)">
                        <path d="M159.15,39.54 C137.54,36.54 68.54,36.54 39.15,39.54 C27.54,63.54 19.15,146.54 19.15,146.54 C19.15,146.54 19.49,164.16 100.26,163.54 C178.94,162.94 179.15,146.54 179.15,146.54 C179.15,146.54 168.54,62.54 159.15,39.54 Z" id="Shape" fill="#4CDF76"></path>
                        <path d="M159.15,39.54 C136.54,29.54 61.54,33.54 39.15,39.54 C27.54,64.54 19.15,146.54 19.15,146.54 C19.15,146.54 19.49,164.16 100.26,163.54 C178.94,162.94 179.15,146.54 179.15,146.54 C179.15,146.54 168.54,62.54 159.15,39.54 Z" id="Shape"></path>
                        <path d="M82.45,107.54 C82.45,107.54 95.45,83.54 70.45,72.54 C69.85,90.07 60.45,102.54 62.22,117.04 C63.59,128.23 56.73,144.45 56.77,161.55 C64.35,162.46 73.47,163.12 84.41,163.4 C84.77,162.18 85.11,160.9 85.41,159.53 C95.45,118.54 82.45,107.54 82.45,107.54 Z" id="Shape" fill="#45CE70"></path>
                        <path d="M136.77,117 C138.54,102.5 129.14,90 128.54,72.5 C103.54,83.5 116.54,107.5 116.54,107.5 C116.54,107.5 103.54,118.5 113.54,159.5 C113.86,160.8 114.19,162.03 114.54,163.19 C125.54,162.79 134.67,162.04 142.25,161.07 C142.15,144.18 135.42,128.14 136.77,117 Z" id="Shape" fill="#45CE70"></path>
                        <path d="M159.71,41 C159.52,40.5 159.34,40 159.15,39.56 C137.54,36.56 68.54,36.56 39.15,39.56 C37.2501668,43.7569142 35.7047775,48.1054121 34.53,52.56 C40.8,54.8 49.07,56.17 53.62,56.06 C76.1,55.51 97.36,48.84 112.03,49.06 C128,49.3 141.67,43.41 159.71,41 Z" id="Shape" fill="#45CE70"></path>
                        <g id="Group" opacity="0.4" transform="translate(19.000000, 37.000000)">
                            <path d="M132,122.78 C136.96754,121.944044 141.864814,120.733933 146.65,119.16 L131.34,1.65 C126.94,1.32 121.78,1.05 116.11,0.84 L132,122.78 Z" id="Shape" fill="#1A3149" opacity="0.3"></path>
                            <path d="M14.45,119.78 C19.2436985,121.325945 24.14777,122.505998 29.12,123.31 L45.07,1 C39.61,1.21 34.47,1.47 29.84,1.78 L14.45,119.78 Z" id="Shape" fill="#1A3149" opacity="0.3"></path>
                            <path d="M81.27,126.54 L73.39,126.54 C75.93,126.56 78.55,126.56 81.27,126.54 Z" id="Shape" fill="#45CE70"></path>
                            <path d="M0.36,107.54 L159.9,107.54 C159.55,104.82 158.84,99.47 157.9,92.54 L2.08,92.54 C1.24,99.47 0.65,104.82 0.36,107.54 Z" id="Shape" fill="#1A3149" opacity="0.3"></path>
                            <path d="M37.61,124.54 L119.68,124.54 C124.87,123.96 129.39,123.28 133.33,122.54 L25,122.54 C28.63,123.28 32.82,124 37.61,124.54 Z" id="Shape" fill="#1A3149" opacity="0.3"></path>
                            <path d="M5.43,67.54 L154.13,67.54 C153.36,62.64 152.53,57.54 151.66,52.54 L7.77,52.54 C6.93,57.59 6.15,62.64 5.43,67.54 Z" id="Shape" fill="#1A3149" opacity="0.3"></path>
                            <path d="M143.38,12.54 L16.38,12.54 C15.1,16.82 13.84,21.72 12.65,27 L12.65,27.53 L146.94,27.53 C145.77,22 144.58,16.93 143.38,12.54 Z" id="Shape" fill="#1A3149" opacity="0.3"></path>
                            <path d="M126.89,123.62 L128.89,123.32 C125.95,100.52 116.81,29.82 112.89,0.74 L110.89,0.68 L126.89,123.62 Z" id="Shape" fill="#79E798"></path>
                            <path d="M32.19,123.81 L34.24,124.11 L50.36,0.78 L48.23,0.85 C42.88,35.74 34.75,102.49 32.19,123.81 Z" id="Shape" fill="#79E798"></path>
                            <path d="M150.1,117.86 C150.69,117.61 151.25,117.36 151.77,117.12 C146.77,81.92 139.02,19.85 136.84,2.12 L134.84,1.92 L150.1,117.86 Z" id="Shape" fill="#79E798"></path>
                            <path d="M9.1,117.68 C9.7,117.96 10.34,118.24 11.02,118.52 C15.59,83.93 24.02,19.43 26.35,2 L24.35,2.16 L9.1,117.68 Z" id="Shape" fill="#79E798"></path>
                            <polygon id="Shape" fill="#79E798" points="65.71 126.42 67.71 126.42 68.66 0.34 66.66 0.34"></polygon>
                            <polygon id="Shape" fill="#79E798" points="92.6 126.33 94.6 126.27 93.66 0.34 91.66 0.34"></polygon>
                            <path d="M87.65,2.54 L72.65,2.54 L72.65,126.54 C75.42,126.54 78.28,126.54 81.26,126.54 C83.45,126.54 85.57,126.54 87.65,126.45 L87.65,2.54 Z" id="Shape" fill="#1A3149" opacity="0.3"></path>
                        </g>
                        <g id="Group-4" transform="translate(20.000000, 44.000000)" fill="#1A3149">
                            <path d="M0.56,105.39 C1.24795934,106.217842 2.02988068,106.962849 2.89,107.61 C29.63,107.81 108.98,108.31 155.07,107.67 C155.981862,107.042435 156.82044,106.314549 157.57,105.5 C133.22,105.33 38,104.75 0.56,105.39 Z" id="Shape" opacity="0.200000003"></path>
                            <path d="M2.1,77.49 L1.83,79.56 C15.42,79.68 109.16,80.45 156.01,79.56 L155.71,77.5 C138,77.39 34.71,76.66 2.1,77.49 Z" id="Shape" opacity="0.200000003"></path>
                            <path d="M4,63.42 L3.69,65.58 C24.47,65.76 111.19,66.41 153.9,65.58 L153.59,63.58 C145.24,63.47 40.7,62.66 4,63.42 Z" id="Shape" opacity="0.200000003"></path>
                            <path d="M7.83,39.35 L7.44,41.61 C32.51,41.81 108.44,42.33 149.99,41.61 L149.62,39.5 C129.05,39.35 44,38.77 7.83,39.35 Z" id="Shape" opacity="0.200000003"></path>
                            <path d="M16.37,2.54 L141.53,2.54 C141.33,1.85 141.12,1.18 140.92,0.54 L17.07,0.54 C16.84,1.18 16.6,1.85 16.37,2.54 Z" id="Shape" opacity="0.200000018"></path>
                            <path d="M10.93,23.3 C10.7633333,24.0733333 10.6,24.85 10.44,25.63 C37.44,25.84 106.49,26.28 146.99,25.63 L146.55,23.45 C122.43,23.31 47,22.82 10.93,23.3 Z" id="Shape" opacity="0.200000018"></path>
                        </g>
                        <path d="M69.15,70.54 C66.54,94.54 59.15,164.54 59.15,164.54 C59.15,164.54 59.56,171.84 99.79,171.54 C139.26,171.25 139.15,164.54 139.15,164.54 C139.15,164.54 132.54,95.54 129.15,70.54" id="Shape" fill="#4CDF76"></path>
                        <path d="M116.54,79.54 C118.54,91.54 105.76,93.54 96.54,93.54 C89.54,93.54 77.54,90.54 82.54,73.54 C88.72,52.51 110,62.14 116.54,79.54 Z" id="Shape" fill="#45CE70"></path>
                        <g id="Group" transform="translate(59.000000, 70.000000)">
                            <path d="M6.32,36.33 L6.1,38.39 C27.43,38.7 52.71,38.95 74.55,38.86 L74.27,36.23 C54.77,36.41 30.89,36.52 6.32,36.33 Z" id="Shape" fill="#1A3149" opacity="0.200000003"></path>
                            <path d="M4.84,50.22 L4.56,52.85 C27.39,52.94 54.01,52.67 75.95,52.34 L75.74,50.34 C50.13,50.53 25.11,50.42 4.84,50.22 Z" id="Shape" fill="#1A3149" opacity="0.200000003"></path>
                            <path d="M1.13,85.28 L0.92,87.28 C24.83,87.64 54.86,87.96 79.51,87.8 L79.25,85.14 C57.6,85.41 29.64,85.55 1.13,85.28 Z" id="Shape" fill="#1A3149" opacity="0.200000003"></path>
                            <path d="M0.15,94.54 C0.15,94.54 0.56,101.84 40.79,101.54 C80.26,101.25 80.15,94.54 80.15,94.54 C80.15,94.54 80.01,93.09 79.76,90.54 L0.58,90.54 L0.15,94.54 Z" id="Shape" fill="#1A3149" opacity="0.150000006"></path>
                            <path d="M2.52,72.12 L78,73 C77.54,68.4 77,63.31 76.49,58 L4.07,57.2 L2.52,72.12 Z" id="Shape" fill="#1A3149" opacity="0.150000006"></path>
                            <path d="M2.09,76.2 L1.81,78.85 C26.13,78.99 55.28,78.67 78.57,78.32 L78.37,76.32 C50.67,76.55 23.49,76.42 2.09,76.2 Z" id="Shape" fill="#1A3149" opacity="0.200000003"></path>
                            <path d="M6.75,32.24 L73.75,31.81 C73.19,26.57 72.63,21.5 72.09,16.81 L8.3,17.22 C7.86,21.91 7.31,27 6.75,32.24 Z" id="Shape" fill="#1A3149" opacity="0.149999991"></path>
                            <path d="M21.66,101 L24.09,101.17 C25.09,84.33 27.43,41.43 28.31,0.57 L25.12,0.57 C23.73,26.9 21.87,67.78 21.66,101 Z" id="Shape" fill="#79E798" opacity="0.699999988"></path>
                            <path d="M47.9,0.54 L32.4,0.54 L31.65,101.47 C33.1233333,101.51 34.67,101.533333 36.29,101.54 L40.8,101.54 C43.62,101.54 46.23,101.46 48.65,101.38 L47.9,0.54 Z" id="Shape" fill="#1A3149" opacity="0.100000001"></path>
                            <path d="M57.06,100.95 L59.4,100.76 C58.45,74.59 56.35,29.42 54.96,0.54 L51.45,0.54 C52.2,35.22 55.65,82.68 57.06,100.95 Z" id="Shape" fill="#79E798" opacity="0.699999988"></path>
                            <path d="M9.21,9.26 L8.93,11.86 C29.18,11.86 51.93,11.68 71.51,11.4 L71.26,9.33 C49,9.5 27.43,9.42 9.21,9.26 Z" id="Shape" fill="#1A3149" opacity="0.200000003"></path>
                        </g>
                        <path d="M159.33,40.54 C154.7,43.11 149.96,45.43 145.15,47.63 C140.34,49.83 135.45,51.86 130.46,53.63 C125.474265,55.427641 120.389188,56.9368037 115.23,58.15 C113.95,58.49 112.63,58.68 111.33,58.94 L109.33,59.3 C108.67,59.4 108.01,59.46 107.33,59.55 C106.01,59.68 104.69,59.91 103.33,59.97 L99.33,60.14 C88.73,60 78.32,57.33 68.27,54 C63.27,52.31 58.34,50.3 53.5,48.16 C48.66,46.02 43.92,43.66 39.31,41.04 C39.1477582,40.932497 39.0929677,40.7197887 39.183083,40.5472822 C39.2731984,40.3747756 39.4790854,40.2982422 39.66,40.37 L39.66,40.37 C49.1059228,45.0336206 58.819571,49.1341225 68.75,52.65 C73.6969223,54.412187 78.7380438,55.8978155 83.85,57.1 C88.9572393,58.261778 94.1727316,58.8818719 99.41,58.95 C109.87,58.69 120.17,56.01 130.1,52.63 C140.032944,49.1418272 149.692886,44.9201983 159,40 L159,40 C159.138052,39.9547667 159.288677,40.0149479 159.357551,40.1428571 C159.426425,40.2707662 159.393755,40.4296446 159.28,40.52 L159.33,40.54 Z" id="Shape" fill="#1A3149" fill-rule="nonzero"></path>
                        <path d="M37.15,40.54 C67.54,44.54 121.54,45.54 161.15,40.54 C163.88,40.2 163.9,29.46 161.15,29.54 C128.54,30.54 74.54,31.54 37.15,29.54 C34.41,29.39 34.43,40.18 37.15,40.54 Z" id="Shape" fill="#A4E9B8"></path>
                        <path d="M109.15,37 C109.247594,35.4984041 108.120192,34.197213 106.62,34.08 L91.68,34.08 C90.1798081,34.197213 89.0524061,35.4984041 89.15,37 L89.15,37 C89.0807936,37.7347893 89.3098459,38.4665575 89.7856498,39.030752 C90.2614538,39.5949464 90.9440706,39.9442086 91.68,40 L106.62,40 C107.355929,39.9442086 108.038546,39.5949464 108.51435,39.030752 C108.990154,38.4665575 109.219206,37.7347893 109.15,37 L109.15,37 Z" id="Shape" fill="#A4E9B8"></path>
                        <path d="M115.15,61.54 L83.15,61.54 C82.1791692,66.0714181 81.5672717,70.6723527 81.32,75.3 C80.54,92.54 97.94,91.54 99.15,91.54 C100.36,91.54 117.54,91.54 116.98,75.3 C116.778676,70.6681917 116.166269,66.0634254 115.15,61.54 Z" id="Shape" fill="#CC9694"></path>
                        <path d="M115.54,62.54 L83.15,61.54 C83.15,61.54 82.88,62.74 82.54,64.67 C82.43,65.32 82.3,66.06 82.18,66.86 C107.54,88.54 115.54,62.54 115.54,62.54 Z" id="Shape" fill="#A27079"></path>
                        <path d="M106.65,69.54 C106.65,69.54 105.54,74.54 104.15,80.04 C103.75,81.61 108.94,81.4 109.15,80.04 C109.54,77.54 106.65,69.54 106.65,69.54 Z" id="Shape" fill="#FFED72"></path>
                        <path d="M91.65,69.54 C91.65,69.54 90.54,74.54 89.15,80.04 C88.75,81.61 93.94,81.4 94.15,80.04 C94.54,77.54 91.65,69.54 91.65,69.54 Z" id="Shape" fill="#FFED72"></path>
                        <path d="M106.65,69.54 C106.65,69.54 106.2,71.54 105.51,74.45 C106.325219,74.105572 107.105468,73.6836344 107.84,73.19 C107.24,71.17 106.65,69.54 106.65,69.54 Z" id="Shape" fill="#FFDB76"></path>
                        <path d="M91.65,69.54 C91.65,69.54 91.36,70.86 90.88,72.89 C91.63,73.28 92.35,73.61 93.06,73.89 C92.38,71.57 91.65,69.54 91.65,69.54 Z" id="Shape" fill="#FFDB76"></path>
                        <path d="M115.35,55.09 C107.54,52.54 91.54,52.54 82.91,55.22 L82.91,55.22 C76.54,65.54 92.54,74.54 99,74.54 C105.46,74.54 119.5,66.54 115.31,55.09 L115.35,55.09 Z" id="Shape" fill="#CC9694"></path>
                        <path d="M90.48,62.76 C93.24,62.85 96.01,62.64 98.78,62.67 C99.47,62.67 100.17,62.67 100.86,62.67 C101.55,62.67 102.25,62.56 102.94,62.52 C104.33204,62.4606912 105.726597,62.5141994 107.11,62.68 L107.11,63.19 C105.732815,63.396409 104.342551,63.5033524 102.95,63.51 C102.26,63.51 101.56,63.45 100.87,63.45 C100.18,63.45 99.48,63.45 98.79,63.45 C96.003079,63.5577355 93.2120039,63.4574574 90.44,63.15 L90.48,62.76 Z" id="Shape" fill="#A27079" fill-rule="nonzero"></path>
                        <path d="M113.9,44.54 C105.37,47.54 90.01,46.54 83.18,44.54 C82.33,37.54 82.33,34.54 83.18,29.54 C88.3,29.54 106.18,28.54 113.9,29.54 C114.753333,33.54 114.753333,38.54 113.9,44.54 Z" id="Shape" fill="#FFED72"></path>
                        <path d="M109.57,41.85 C103.44,43.66 92.41,43.06 87.51,41.85 C86.9,37.63 86.9,35.85 87.51,32.85 C91.19,32.85 104.05,32.25 109.57,32.85 C110.183358,35.8186493 110.183358,38.8813507 109.57,41.85 L109.57,41.85 Z" id="Shape" fill="#A4E9B8"></path>
                        <path d="M86.7,111.72 L93.21,112.01 C95.38,112.1 97.55,112.17 99.71,112.3 C100.79,112.3 101.88,112.41 102.96,112.41 C104.04,112.41 105.13,112.41 106.21,112.41 C108.38,112.41 110.54,112.46 112.71,112.56 L112.71,113.07 C110.544802,113.344875 108.361879,113.455191 106.18,113.4 L102.92,113.23 C101.83,113.17 100.75,113.17 99.66,113.12 C97.49,113.12 95.32,112.92 93.15,112.75 C90.98,112.58 88.82,112.36 86.66,112.15 L86.7,111.72 Z" id="Shape" fill="#1A3149" fill-rule="nonzero" opacity="0.4"></path>
                        <path d="M111.13,117.16 C108.357996,117.467457 105.566921,117.567736 102.78,117.46 C102.09,117.46 101.39,117.4 100.7,117.46 C100.01,117.52 99.31,117.51 98.62,117.52 C97.2274488,117.513352 95.837185,117.406409 94.46,117.2 L94.46,116.69 C95.8434028,116.524199 97.2379599,116.470691 98.63,116.53 C99.32,116.53 100.02,116.65 100.71,116.68 C101.4,116.71 102.1,116.68 102.79,116.68 C105.56,116.68 108.33,116.86 111.09,116.77 L111.13,117.16 Z" id="Shape" fill="#1A3149" fill-rule="nonzero" opacity="0.4"></path>
                        <g id="Zigouigoui_2" transform="translate(187.000000, 43.000000)" fill-rule="nonzero" fill="#FFED72">
                            <g id="Group">
                                <path d="M4.1,1.05 C4.2,1.55 4.27,2.05 4.35,2.55 C4.45139752,3.04106804 4.51491776,3.53920048 4.54,4.04 C4.53494955,4.54347918 4.48474841,5.04549061 4.39,5.54 C4.31,6.04 4.23,6.54 4.1,7.03 C4.07722395,7.05037152 4.04277605,7.05037152 4.02,7.03 C3.89,6.53 3.81,6.03 3.73,5.54 C3.63471277,5.04556916 3.58450675,4.54350889 3.58,4.04 C3.60508224,3.53920048 3.66860248,3.04106804 3.77,2.55 C3.85,2.05 3.92,1.55 4.02,1.05 C4.02,1.01410149 4.04910149,0.985 4.085,0.985 C4.12089851,0.985 4.15,1.01410149 4.15,1.05" id="Shape"></path>
                                <path d="M1.05,4 C1.55,3.9 2.05,3.83 2.54,3.75 C3.03106154,3.64856354 3.529197,3.58504291 4.03,3.56 C4.53016286,3.56516376 5.02884416,3.61536657 5.52,3.71 C6.02,3.79 6.52,3.87 7.01,4 C7.03037152,4.02277605 7.03037152,4.05722395 7.01,4.08 C6.51,4.21 6.01,4.29 5.52,4.37 C5.02877432,4.46415552 4.53013603,4.514354 4.03,4.52 C3.529197,4.49495709 3.03106154,4.43143646 2.54,4.33 C2.04,4.25 1.54,4.18 1.05,4.08 C1.03170005,4.07802296 1.01532011,4.06775567 1.00556472,4.05214705 C0.99580933,4.03653842 0.993758037,4.01731574 1,4 C1.00403203,3.97423961 1.02423961,3.95403203 1.05,3.95" id="Shape"></path>
                            </g>
                        </g>
                        <g id="Zigouigoui_2-2" transform="translate(90.000000, 0.000000)" fill-rule="nonzero" fill="#FFED72">
                            <g id="Group">
                                <path d="M4.1,1.05 C4.2,1.55 4.27,2.05 4.35,2.55 C4.44939455,3.02792053 4.51290503,3.51260573 4.54,4 C4.53494955,4.50347918 4.48474841,5.00549061 4.39,5.5 C4.31,6 4.23,6.5 4.1,6.99 C4.07722395,7.01037152 4.04277605,7.01037152 4.02,6.99 C3.89,6.49 3.81,5.99 3.73,5.5 C3.62127151,5.00680301 3.55767564,4.50473035 3.54,4 C3.56508224,3.49920048 3.62860248,3.00106804 3.73,2.51 C3.81,2.01 3.88,1.51 3.98,1.01 C3.98,0.974101491 4.00910149,0.945 4.045,0.945 C4.08089851,0.945 4.11,0.974101491 4.11,1.01" id="Shape"></path>
                                <path d="M1.05,4 C1.55,3.9 2.05,3.83 2.54,3.75 C3.02068656,3.6433478 3.50874094,3.5731482 4,3.54 C4.50016286,3.54516376 4.99884416,3.59536657 5.49,3.69 C5.99,3.77 6.49,3.85 6.98,3.98 C7.00037152,4.00277605 7.00037152,4.03722395 6.98,4.06 C6.48,4.19 5.98,4.27 5.49,4.35 C4.99998553,4.45759614 4.50133523,4.52118242 4,4.54 C3.499197,4.51495709 3.00106154,4.45143646 2.51,4.35 C2.01,4.27 1.51,4.2 1.02,4.1 C1.00055267,4.09273042 0.986245534,4.07592369 0.982173843,4.05556523 C0.978102152,4.03520677 0.984844609,4.01419012 1,4 C0.992724747,3.98412727 0.992724747,3.96587273 1,3.95" id="Shape"></path>
                            </g>
                        </g>
                        <g id="Zigouigoui_2-3" transform="translate(0.000000, 96.000000)" fill-rule="nonzero" fill="#FFED72">
                            <g id="Group">
                                <path d="M4.1,1.05 C4.2,1.55 4.27,2.05 4.35,2.55 C4.44939455,3.02792053 4.51290503,3.51260573 4.54,4 C4.53494955,4.50347918 4.48474841,5.00549061 4.39,5.5 C4.31,6 4.23,6.5 4.1,6.99 C4.07722395,7.01037152 4.04277605,7.01037152 4.02,6.99 C3.89,6.49 3.81,5.99 3.73,5.5 C3.62127151,5.00680301 3.55767564,4.50473035 3.54,4 C3.56508224,3.49920048 3.62860248,3.00106804 3.73,2.51 C3.81,2.01 3.88,1.51 3.98,1.01 C3.98,0.974101491 4.00910149,0.945 4.045,0.945 C4.08089851,0.945 4.11,0.974101491 4.11,1.01" id="Shape"></path>
                                <path d="M1.05,4 C1.55,3.9 2.05,3.83 2.54,3.75 C3.02068656,3.6433478 3.50874094,3.5731482 4,3.54 C4.50016286,3.54516376 4.99884416,3.59536657 5.49,3.69 C5.99,3.77 6.49,3.85 6.98,3.98 C7.00037152,4.00277605 7.00037152,4.03722395 6.98,4.06 C6.48,4.19 5.98,4.27 5.49,4.35 C4.99998553,4.45759614 4.50133523,4.52118242 4,4.54 C3.499197,4.51495709 3.00106154,4.45143646 2.51,4.35 C2.01,4.27 1.51,4.2 1.02,4.1 C1.00055267,4.09273042 0.986245534,4.07592369 0.982173843,4.05556523 C0.978102152,4.03520677 0.984844609,4.01419012 1,4 C1.01587273,3.99272475 1.03412727,3.99272475 1.05,4" id="Shape"></path>
                            </g>
                        </g>
                        <g id="Zigouigoui_2-4" transform="translate(191.000000, 131.000000)" fill-rule="nonzero" fill="#FFED72">
                            <g id="Group">
                                <path d="M4.1,1.05 C4.2,1.55 4.27,2.05 4.35,2.55 C4.45139752,3.04106804 4.51491776,3.53920048 4.54,4.04 C4.53494955,4.54347918 4.48474841,5.04549061 4.39,5.54 C4.31,6.04 4.23,6.54 4.1,7.03 C4.07722395,7.05037152 4.04277605,7.05037152 4.02,7.03 C3.89,6.53 3.81,6.03 3.73,5.54 C3.63471277,5.04556916 3.58450675,4.54350889 3.58,4.04 C3.60508224,3.53920048 3.66860248,3.04106804 3.77,2.55 C3.85,2.05 3.92,1.55 4.02,1.05 C4.02,1.01410149 4.04910149,0.985 4.085,0.985 C4.12089851,0.985 4.15,1.01410149 4.15,1.05" id="Shape"></path>
                                <path d="M1.05,4 C1.55,3.9 2.05,3.83 2.54,3.75 C3.03106154,3.64856354 3.529197,3.58504291 4.03,3.56 C4.53016286,3.56516376 5.02884416,3.61536657 5.52,3.71 C6.02,3.79 6.52,3.87 7.01,4 C7.03037152,4.02277605 7.03037152,4.05722395 7.01,4.08 C6.51,4.21 6.01,4.29 5.52,4.37 C5.02877432,4.46415552 4.53013603,4.514354 4.03,4.52 C3.529197,4.49495709 3.03106154,4.43143646 2.54,4.33 C2.04,4.25 1.54,4.18 1.05,4.08 C1.03170005,4.07802296 1.01532011,4.06775567 1.00556472,4.05214705 C0.99580933,4.03653842 0.993758037,4.01731574 1,4 C1.00403203,3.97423961 1.02423961,3.95403203 1.05,3.95" id="Shape"></path>
                            </g>
                        </g>
                        <g id="Zigougoui_1" transform="translate(8.000000, 153.000000)" fill-rule="nonzero" fill="#57A7FF">
                            <g id="Group">
                                <path d="M0.64,7.26 C0.609492228,7.21367244 0.585910294,7.16313972 0.57,7.11 C0.514343426,6.98247477 0.514343426,6.83752523 0.57,6.71 C0.589245732,6.67398445 0.612747356,6.64041071 0.64,6.61 C2.80058947,4.50482183 5.07393855,2.51856235 7.45,0.66 C7.54494184,0.579936262 7.66583604,0.537267723 7.79,0.54 C8.04903964,0.549379884 8.25983962,0.751575781 8.28,1.01 C8.28914474,1.06294134 8.28914474,1.11705866 8.28,1.17 C8.25741757,1.24860955 8.21626023,1.3206349 8.16,1.38 C6.29439926,3.78342429 3.98202669,5.80377918 1.35,7.33 C1.30836432,7.36718576 1.26111522,7.39756018 1.21,7.42 C1.08247477,7.47565657 0.937525232,7.47565657 0.81,7.42 C0.762695996,7.39618504 0.71894181,7.36589368 0.68,7.33 L0.62,7.27" id="Shape"></path>
                                <path d="M6.18,12.13 C6.13737251,12.0959033 6.10026828,12.055426 6.07,12.01 C5.99113572,11.8925711 5.96570143,11.7472323 6,11.61 C5.9964107,11.5700805 5.9964107,11.5299195 6,11.49 C7.47423079,8.85782752 9.08993006,6.30742621 10.84,3.85 C10.9070043,3.74412284 11.0099851,3.66599951 11.13,3.63 C11.3795696,3.56714077 11.6368674,3.70007797 11.73,3.94 C11.7391447,3.99294134 11.7391447,4.04705866 11.73,4.1 C11.7292121,4.18361295 11.7086521,4.26585309 11.67,4.34 C10.5854739,7.17537027 8.9661015,9.77587186 6.9,12 C6.86905423,12.0448905 6.83203528,12.0852748 6.79,12.12 C6.67975763,12.2065133 6.53826945,12.2427923 6.4,12.22 C6.34449399,12.2113096 6.29057775,12.1944608 6.24,12.17 L6.17,12.17" id="Shape"></path>
                                <path d="M12.87,15.22 L12.73,15.14 C12.6231828,15.049752 12.5581081,14.9196025 12.55,14.78 C12.5456233,14.7401197 12.5456233,14.6998803 12.55,14.66 C13.2105431,11.7314271 14.0283951,8.84057046 15,6 C15.0367972,5.88039224 15.1147299,5.7776628 15.22,5.71 C15.4406231,5.5767464 15.7263899,5.6330338 15.88,5.84 C15.9618901,5.95230492 15.9943968,6.09316733 15.97,6.23 C15.7176006,9.26130243 14.8823144,12.2153632 13.51,14.93 C13.4943674,14.983245 13.4707669,15.0338176 13.44,15.08 C13.3607833,15.1942167 13.2375963,15.2703027 13.1,15.29 L13,15.29 L12.92,15.29" id="Shape"></path>
                            </g>
                        </g>
                        <path d="M17.92,50.33 C18.6451203,50.3463981 19.2211749,50.9447804 19.21,51.67 C19.211831,52.0701997 19.0617261,52.4561836 18.79,52.75 C18.5143206,53.0442648 18.1330138,53.216932 17.73,53.23 C17.3079628,53.2390667 16.9002676,53.0767102 16.6,52.78 C16.267868,52.506848 16.053126,52.1167333 16,51.69 C15.9808283,51.2514898 16.1744733,50.8306844 16.52,50.56 C16.8350873,50.3087122 17.2437287,50.2065518 17.64,50.28 L17.92,50.33 Z M17.79,50.76 L17.7,50.76 C17.3174814,50.8979138 17.0565596,51.2537163 17.04,51.66 C17.0008448,51.8552293 17.0442864,52.0579569 17.16,52.22 C17.2734635,52.3783913 17.4686014,52.4564465 17.66,52.42 C18.0878521,52.3570532 18.4267633,52.0262113 18.5,51.6 C18.5194221,51.3929514 18.4553599,51.1867194 18.3220442,51.0271161 C18.1887284,50.8675127 17.9971983,50.7677539 17.79,50.75 L17.79,50.76 Z" id="Shape" fill="#57A7FF" fill-rule="nonzero"></path>
                        <path d="M190.4,90.51 C190.740886,90.5257404 191.067362,90.6521183 191.33,90.87 C191.692216,91.1705496 191.898247,91.6194017 191.89,92.09 C191.88799,92.5531405 191.713264,92.9988708 191.4,93.34 C191.076487,93.6826021 190.63093,93.8838213 190.16,93.9 C189.670175,93.9154945 189.195849,93.7272124 188.85,93.38 C188.493241,93.052159 188.272072,92.6026866 188.23,92.12 C188.208533,91.6146199 188.427314,91.1288532 188.82,90.81 C189.18164,90.5090938 189.65509,90.3779846 190.12,90.45 L190.4,90.51 Z M190.26,90.93 L190.12,90.93 C189.592463,91.0649114 189.220023,91.5355776 189.21,92.08 C189.17561,92.3388062 189.2438,92.6007992 189.4,92.81 C189.557441,93.0153744 189.814151,93.1188248 190.07,93.08 C190.637543,93.0115912 191.086363,92.5668885 191.16,92 C191.200619,91.4580218 190.800924,90.9828299 190.26,90.93 L190.26,90.93 Z" id="Shape" fill="#57A7FF" fill-rule="nonzero"></path>
                        <path d="M140.4,10.51 C140.740886,10.5257404 141.067362,10.6521183 141.33,10.87 C141.692216,11.1705496 141.898247,11.6194017 141.89,12.09 C141.88799,12.5531405 141.713264,12.9988708 141.4,13.34 C141.076487,13.6826021 140.63093,13.8838213 140.16,13.9 C139.670175,13.9154945 139.195849,13.7272124 138.85,13.38 C138.493241,13.052159 138.272072,12.6026866 138.23,12.12 C138.208533,11.6146199 138.427314,11.1288532 138.82,10.81 C139.18164,10.5090938 139.65509,10.3779846 140.12,10.45 L140.4,10.51 Z M140.26,10.93 L140.12,10.93 C139.592463,11.0649114 139.220023,11.5355776 139.21,12.08 C139.17561,12.3388062 139.2438,12.6007992 139.4,12.81 C139.557441,13.0153744 139.814151,13.1188248 140.07,13.08 C140.637543,13.0115912 141.086363,12.5668885 141.16,12 C141.200619,11.4580218 140.800924,10.9828299 140.26,10.93 L140.26,10.93 Z" id="Shape" fill="#4CDF76" fill-rule="nonzero"></path>
                    </g>
                </g>
            </g>
        </g>
    </g>
</svg>