<?xml version="1.0" encoding="UTF-8"?>
<svg width="416px" height="274px" viewBox="0 0 416 274" version="1.1" xmlns="http://www.w3.org/2000/svg" xmlns:xlink="http://www.w3.org/1999/xlink">
    <!-- Generator: Sketch 47.1 (45422) - http://www.bohemiancoding.com/sketch -->
    <title>illu2</title>
    <desc>Created with Sketch.</desc>
    <defs>
        <polygon id="path-1" points="142.864531 145.908127 0.564099647 145.908127 0.564099647 0.87071031 142.864531 0.87071031 142.864531 145.908127"></polygon>
        <polygon id="path-3" points="4.03013334e-15 124.563454 4.03013334e-15 0.802965371 114.670553 0.802965371 114.670553 124.563454"></polygon>
    </defs>
    <g id="Kilt---landing-page" stroke="none" stroke-width="1" fill="none" fill-rule="evenodd">
        <g id="Kilt---Landing---Green" transform="translate(-462.000000, -843.000000)">
            <g id="illu2" transform="translate(462.000000, 843.000000)">
                <path d="M397.981571,194.156586 C396.819571,191.021586 395.055571,185.782586 390.912571,180.617586 C379.834571,166.807586 356.388571,170.588586 369.983571,160.160586 C383.577571,149.732586 384.483571,102.375586 356.030571,88.5605856 C327.578571,74.7465856 281.577571,94.0875856 279.290571,78.3325856 C277.002571,62.5775856 236.067571,24.9515856 160.691571,22.0755856 C85.3155706,19.1995856 143.809571,99.3115856 63.0215706,106.178586 C-17.7654294,113.047586 -0.322429375,171.815586 6.19657063,195.914586 C13.2295706,221.914586 54.1965706,282.914586 106.523571,258.914586 C120.427571,252.537586 126.136571,235.607586 150.318571,252.914586 C234.155571,312.914586 410.494571,227.914586 397.981571,194.156586" id="Fill-1" fill="#FFFFFF" opacity="0.300000012"></path>
                <path d="M136.718501,68.7608105 C132.094222,71.837872 126.339914,73.2939537 120.405686,72.447684 C107.808078,70.640027 100.488144,59.2371652 101.027906,46.7049066 C101.542417,34.8104617 109.840866,24.5867771 127.315274,27.5020517 C139.868692,29.5990582 148.596426,40.8401332 146.689898,53.244829 C146.222735,56.293889 145.155837,59.1127138 143.628088,61.6048535 L147.766266,69.2150582 C148.157672,69.9368765 148.050351,70.8235929 147.497963,71.4396274 C146.945574,72.0587733 146.061753,72.2703407 145.285253,71.9778799 L136.718501,68.7608105 Z" id="Fill-137" fill="#D6E3F2"></path>
                <path d="M251.063615,48.6576347 C256.42086,52.2212615 263.079326,53.9097225 269.951918,52.9274927 C284.545366,50.8372105 296.474604,39.2249824 292.389756,23.1196623 C288.819632,9.0234483 280.23404,-0.194087522 261.959287,0.881494597 C245.055759,1.87995951 237.306078,16.3252303 239.517332,30.6893251 C240.056762,34.2204815 241.292099,37.4878158 243.062749,40.3776818 L238.273759,49.1852787 C237.816684,50.0213916 237.940218,51.0482681 238.582593,51.762617 C239.220851,52.4729071 240.242063,52.7286115 241.143859,52.3876723 L251.063615,48.6576347 Z" id="Fill-139" fill="#B0BED2"></path>
                <path d="M330.688722,255.523142 C335.88982,258.984028 342.383205,260.782708 349.036351,259.673405 C368.417099,256.439979 372.705786,244.706563 370.83126,230.716047 C368.417099,212.736239 355.554587,208.155553 341.26488,209.121381 C321.745673,210.437148 317.329177,224.123218 319.473521,238.07524 C319.998956,241.504631 321.195386,244.675068 322.917252,247.478071 L318.26289,256.034052 C317.82266,256.845907 317.943368,257.84323 318.56466,258.539607 C319.185952,259.232484 320.176468,259.473941 321.053377,259.144999 L330.688722,255.523142 Z" id="Fill-141" fill="#C8D4E5"></path>
                <g id="Page-1" transform="translate(83.000000, 41.000000)">
                    <g id="Group-97" transform="translate(0.000000, 18.406781)">
                        <path d="M83.7978615,29.5138018 C86.6277731,29.0560739 89.3129534,31.0776074 89.7895081,34.0263636 C90.2660629,36.9727664 88.3539604,39.7367841 85.5228721,40.194512 C82.6929604,40.6522399 80.0066035,38.6307064 79.5312254,35.6831269 C79.0546707,32.7355473 80.9667731,29.9727064 83.7978615,29.5138018" id="Fill-1" fill="#F3D2BF"></path>
                        <path d="M246.408116,61.7230208 C246.930561,61.5594625 255.224967,63.6821905 255.625038,63.9175261 C255.895674,64.0763777 263.428769,66.1332117 260.949508,69.3784908 C257.401822,74.0240173 252.80807,79.9438866 249.660455,83.9916604 C247.505957,86.7592081 246.029225,88.6513071 246.029225,88.6513071 L230.118179,86.0355509 C230.118179,86.0355509 237.916027,73.3874343 239.617504,71.4247346 C245.500896,64.6353 246.033932,61.839512 246.408116,61.7230208" id="Fill-3" fill="#F3D2BF"></path>
                        <path d="M189.920608,124.010024 C183.633615,122.942776 164.570247,91.8631686 156.808876,74.2800625 C139.319905,44.4041968 129.766452,91.7254972 126.445866,67.4223806 C124.851466,72.657423 124.206647,75.8073912 124.017201,83.6311261 C123.398269,109.074444 156.817113,167.310614 183.505357,175.24025 C195.458057,178.792642 203.880721,167.284727 210.0877,158.773812 C225.331569,137.868942 247.098943,105.762094 250.817247,86.6092993 C251.202021,84.6230661 236.101707,77.9818929 232.464594,76.3192463 C221.829774,85.1666915 193.603611,124.63484 189.920608,124.010024" id="Fill-5" fill="#FFFFFF"></path>
                        <path d="M146.239951,107.677845 C150.274781,108.192053 161.583837,108.055558 163.490057,111.867996 C171.997442,128.88159 167.356622,146.669438 170.45011,167.549597 C156.530004,160.589544 155.809876,128.974548 155.809876,128.974548 C155.809876,128.974548 132.233947,105.896353 146.239951,107.677845" id="Fill-7" fill="#C8D4E5"></path>
                        <path d="M136.02897,122.688496 C137.439808,125.465457 138.945956,128.249478 140.534472,131.004083 C150.455048,120.70344 160.834529,109.726206 170.295023,99.5467611 C168.794758,97.0769131 167.31685,94.5517611 165.893069,92.0348459 C153.128461,104.865348 145.107045,113.182111 136.02897,122.688496" id="Fill-9" fill="#56A7FF"></path>
                        <path d="M224.140888,84.9337092 C231.33863,90.2028753 238.484598,95.6120661 246.247146,100.30819 C247.487365,97.4629813 248.541669,94.7307339 249.365344,92.1573382 C242.784181,87.8577551 236.398347,83.0910307 229.97839,78.6172993 C228.259263,80.3223064 226.280089,82.482688 224.140888,84.9337092" id="Fill-11" fill="#56A7FF"></path>
                        <path d="M214.076993,96.9613633 C221.738346,103.567236 228.956092,110.965013 238.002395,116.504816 C239.462653,113.937303 240.846427,111.395678 242.13489,108.899943 C234.145243,103.351904 227.127533,96.2482961 219.593261,90.2695929 C217.79412,92.4229145 215.940851,94.6762537 214.076993,96.9613633" id="Fill-13" fill="#56A7FF"></path>
                        <path d="M204.275143,109.003961 C212.048281,116.114629 219.535486,124.50317 228.498246,132.104512 C230.099705,129.621721 231.677631,127.120102 233.209666,124.617307 C225.21649,117.356025 217.653977,109.242827 209.447822,102.653428 C207.682804,104.830283 205.946027,106.967131 204.275143,109.003961" id="Fill-15" fill="#56A7FF"></path>
                        <path d="M214.204545,153.068451 C216.103704,150.409158 218.062873,147.62396 220.0444,144.754041 C213.344393,134.609896 207.512774,122.101804 200.39034,113.690907 C198.491181,115.947776 196.75205,117.957543 195.245901,119.590772 C201.927082,129.817285 207.030336,143.31614 214.204545,153.068451" id="Fill-17" fill="#56A7FF"></path>
                        <path d="M146.056036,139.967548 C147.80458,142.629195 149.616665,145.229654 151.479347,147.737156 C160.82335,136.328082 170.447403,124.404799 179.320735,113.258124 C177.703979,111.033025 176.020152,108.566707 174.317499,105.948598 C164.907601,117.091743 155.46358,128.463163 146.056036,139.967548" id="Fill-19" fill="#56A7FF"></path>
                        <path d="M159.887773,158.007323 C163.841413,162.356327 167.8986,166.148761 171.934607,169.121051 C177.739162,153.260602 182.384688,135.072684 186.299498,121.632663 C184.979264,120.378323 183.488413,118.681553 181.883423,116.651783 C174.5233,129.711737 167.199653,144.070744 159.887773,158.007323" id="Fill-21" fill="#56A7FF"></path>
                        <path d="M187.892485,122.991961 C189.130351,140.063212 189.164474,158.365269 190.800057,175.608315 C195.897428,174.570484 200.224075,170.900424 203.938849,166.670265 C201.012449,151.784106 196.556368,136.053092 192.601552,122.282424 C191.344859,123.450866 190.410577,124.093333 189.922255,124.009788 C189.345683,123.912124 188.662033,123.557944 187.892485,122.991961" id="Fill-23" fill="#56A7FF"></path>
                        <path d="M55.9803594,105.357788 C51.945529,105.871996 37.2652887,92.0424943 36.3910166,98.8154555 C32.6821261,127.518173 27.4612039,145.346028 28.1519141,144.349381 C35.1119671,134.294664 46.4104336,123.561003 46.4104336,123.561003 C46.4104336,123.561003 69.9863629,103.576296 55.9803594,105.357788" id="Fill-25" fill="#1A3149"></path>
                        <g id="Group-29" transform="translate(27.063604, 61.187279)">
                            <mask id="mask-2" fill="white">
                                <use xlink:href="#path-1"></use>
                            </mask>
                            <g id="Clip-28"></g>
                            <path d="M138.522587,74.8492219 C138.046033,54.3597201 132.77216,15.3634198 122.349142,10.122494 C93.3828488,-4.43772509 47.0440749,0.230158304 18.8461527,10.122494 C10.0751915,13.2006848 5.36141767,56.7013102 6.62399364,78.6463633 C6.99111731,84.9992502 3.51285583,111.754565 0.564099647,140.587893 C44.0094212,147.951547 102.843343,147.951547 142.864531,138.827582 C141.217181,113.546646 138.857941,89.2494127 138.522587,74.8492219" id="Fill-27" fill="#FFFFFF" mask="url(#mask-2)"></path>
                        </g>
                        <path d="M108.548234,169.869419 C106.907944,173.591253 114.302191,175.078574 110.868643,177.602549 C84.5734102,196.93773 45.9054032,196.93773 25.7900852,194.691451 C28.1175551,184.562602 28.1175551,180.696037 28.1175551,180.696037 C28.1175551,180.696037 114.239827,156.949489 108.548234,169.869419" id="Fill-30" fill="#C8D4E5"></path>
                        <path d="M52.0217777,101.670313 C54.7622618,104.675549 57.5298095,98.2814788 57.1826894,102.529288 C54.8681629,130.870765 51.8382159,135.792811 44.9464102,153.770104 C42.6648307,141.229065 45.5100392,124.090744 45.5100392,124.090744 C45.5100392,124.090744 42.5095092,91.2367049 52.0217777,101.670313" id="Fill-32" fill="#C8D4E5"></path>
                        <path d="M58.2096943,166.502589 C94.9208852,168.128758 133.0335,168.825352 167.261899,168.278196 C167.132465,166.469642 167.008913,160.828645 166.888892,159.101281 C147.786694,156.565539 59.0404293,156.878536 32.7557862,158.156408 C32.5557509,160.332087 32.332182,162.67956 32.0874329,165.175295 C37.8778675,165.507119 43.7377261,165.817762 49.6470053,166.104871 L58.2096943,166.502589 Z" id="Fill-34" fill="#57A7FF"></path>
                        <path d="M168.853004,190.676153 C168.735336,188.981736 168.618845,187.299086 168.5,185.632909 C153.120813,183.012446 54.2457,179.031743 30.5191558,180.710863 C30.2955869,182.911252 30.064958,185.165768 29.8319756,187.464998 C36.3543042,187.847418 42.9684138,188.202775 49.646064,188.527538 L58.2099297,188.925255" id="Fill-36" fill="#57A7FF"></path>
                        <path d="M58.3854901,130.342672 C94.6248329,130.430923 132.186762,129.559004 165.996264,127.637488 C165.819762,125.679495 165.667971,123.84623 165.546773,122.16358 C144.195942,120.556237 59.8528081,120.739799 33.334006,123.006082 C33.4493205,125.554767 33.6128788,127.951661 33.8293876,130.132046 C39.1079671,130.209707 44.4383205,130.268541 49.8133876,130.303841 L58.3854901,130.342672 Z" id="Fill-38" fill="#57A7FF"></path>
                        <path d="M58.3854901,149.028208 C94.6248329,149.116459 132.186762,148.24454 165.996264,146.321847 C165.819762,144.363854 165.667971,142.531766 165.546773,140.847939 C144.195942,139.240596 59.8528081,139.424158 33.334006,141.690441 C33.4493205,144.239127 33.6128788,146.63602 33.8293876,148.816406 C39.1079671,148.895243 44.4383205,148.954077 49.8133876,148.989377 L58.3854901,149.028208 Z" id="Fill-40" fill="#57A7FF"></path>
                        <path d="M56.7560258,110.282893 C92.5352873,110.994783 129.621839,110.795925 163.128934,109.508639 C162.897128,107.645957 162.637082,105.747974 162.353503,103.833518 C138.943485,101.9626 59.9930682,100.784745 32.9553509,102.436801 C32.7812025,104.847815 32.6423544,107.264713 32.5388067,109.65337 C37.7091318,109.818105 42.9253473,109.966366 48.1862767,110.094624 L56.7560258,110.282893 Z" id="Fill-42" fill="#57A7FF"></path>
                        <path d="M28.9225208,159.142583 C20.9575845,158.137699 18.3806587,187.692332 22.7720226,188.821943 C44.8888707,194.514713 94.5141074,185.018918 113.995196,175.283081 C115.803751,174.378215 111.798337,163.713978 110.901708,159.815643 C106.160871,159.674441 39.0078318,160.276901 28.9225208,159.142583" id="Fill-44" fill="#F3D2BF"></path>
                        <path d="M146.82829,161.864828 C152.954078,162.849708 153.709505,164.551185 152.036269,165.075984 C148.505057,166.182061 131.144343,164.607666 131.457339,164.926546 C131.891534,165.37133 151.657378,166.264429 154.222537,167.382273 C155.953431,168.135348 155.781636,169.131994 155.214477,169.464994 C151.889184,171.415927 131.612661,168.201242 131.58089,168.728394 C131.558534,169.084927 149.16282,171.195888 151.685618,172.164295 C152.592837,172.512592 153.283548,173.64338 151.889184,174.509415 C149.911187,175.741397 133.548297,172.493765 133.24942,173.236249 C133.130576,173.529242 143.984258,175.433107 146.475286,176.056747 C149.568774,176.829825 148.441516,178.913722 138.289134,177.780581 C136.447633,177.577016 127.19188,176.835708 118.012611,175.256606 C112.005668,174.223482 114.068385,175.102461 110.225353,174.364683 C105.828106,174.551775 104.796159,161.833058 107.431919,158.279489 C109.242827,158.292433 119.810576,158.604252 124.979724,159.247895 C134.855587,160.477524 141.908597,161.229422 146.82829,161.864828" id="Fill-46" fill="#F3D2BF"></path>
                        <g id="Group-50" transform="translate(0.000000, 70.600707)">
                            <mask id="mask-4" fill="white">
                                <use xlink:href="#path-3"></use>
                            </mask>
                            <g id="Clip-49"></g>
                            <path d="M45.9843583,85.8391633 C42.6284714,80.417029 53.344482,45.5661668 61.405906,28.1195555 C42.8449802,16.5186827 30.436906,19.3627145 46.4762099,0.802965371 C41.49533,3.06924806 38.7054254,4.66835406 32.7114254,9.69747774 C13.2115102,26.0533081 -8.38877597,89.6280678 3.30505442,114.893707 C8.54362686,126.212177 22.744959,124.923714 33.2338707,123.952955 C58.9960686,121.570181 97.4758071,116.675199 114.304662,106.802866 C116.049676,105.779156 111.048793,90.0587322 109.893295,86.2298205 C96.2226445,84.1000325 47.9494113,89.0150184 45.9843583,85.8391633" id="Fill-48" fill="#FFFFFF" mask="url(#mask-4)"></path>
                        </g>
                        <path d="M45.9843583,156.43987 C45.6772452,155.944488 45.49133,155.197298 45.4066092,154.246541 C33.4162558,166.459287 19.7079519,178.584958 7.85291661,191.211895 C11.9995314,194.350096 17.6158177,195.170241 23.2438707,195.160828 C32.4772664,183.12576 41.3329484,169.382156 49.0496057,157.312965 C47.3351852,157.142347 46.2467576,156.862298 45.9843583,156.43987" id="Fill-51" fill="#56A7FF"></path>
                        <path d="M46.1912184,145.545357 C31.5262749,148.658848 15.9117519,152.654848 0.620815548,156.382566 C-0.0275342756,162.223598 -0.19109258,167.775166 0.246631802,172.770166 C15.984706,166.638495 32.7017767,158.09934 45.3734269,152.15123 C45.4416742,150.332085 45.7276071,148.091689 46.1912184,145.545357" id="Fill-53" fill="#56A7FF"></path>
                        <path d="M2.76895972,143.283899 C17.5045039,142.753217 32.8119138,142.08957 47.0426629,141.378857 C47.6439456,138.69603 48.3805463,135.801401 49.219518,132.791457 C34.6392954,133.099747 19.8625675,133.531588 5.01053216,134.078743 C4.17038375,137.151051 3.41848622,140.229242 2.76895972,143.283899" id="Fill-55" fill="#56A7FF"></path>
                        <path d="M60.6480074,157.472994 C57.7004279,157.542418 55.0411346,157.564775 52.8195657,157.515354 C49.5636965,169.289199 42.8107389,182.04204 40.2349898,193.871188 C43.487329,193.538188 46.8714562,193.166358 50.3355975,192.75452 C53.5149827,181.023036 59.0465481,168.378449 60.6480074,157.472994" id="Fill-57" fill="#56A7FF"></path>
                        <path d="M74.9175869,156.973141 C72.1182689,157.086102 69.3648413,157.19671 66.7326117,157.290844 C66.537283,167.823293 65.1911629,178.985264 65.4159085,190.735575 C68.3364244,190.295498 71.2569403,189.824826 74.1480392,189.320031 C74.3104208,178.521653 75.3976717,167.485586 74.9175869,156.973141" id="Fill-59" fill="#56A7FF"></path>
                        <path d="M90.9165307,156.395156 C88.112506,156.46811 85.1943435,156.568128 82.2491173,156.681089 C82.3573717,166.796994 81.5772339,177.10352 83.4010855,187.553601 C86.2945378,186.951142 89.1173894,186.309852 91.8390466,185.627379 C90.7212021,175.963319 91.4107357,166.000382 90.9165307,156.395156" id="Fill-61" fill="#56A7FF"></path>
                        <path d="M106.523523,156.482466 C104.106625,156.320084 101.179049,156.263604 97.9255336,156.277724 C98.732735,165.165176 99.3728481,174.107932 100.982544,183.038922 C103.94542,182.086989 106.700025,181.070339 109.18164,179.981911 C108.055558,172.200536 107.413092,164.25678 106.523523,156.482466" id="Fill-63" fill="#56A7FF"></path>
                        <path d="M8.08589894,124.010024 C22.3731286,124.643077 37.4722664,125.173759 51.3629555,125.542059 C52.2254608,122.783925 53.1420933,120.005787 54.0893194,117.27354 C36.0249519,116.179229 24.4817364,115.65796 11.3464749,115.131985 C10.1956834,118.02779 9.1037258,120.995373 8.08589894,124.010024" id="Fill-65" fill="#56A7FF"></path>
                        <path d="M15.5435693,105.477338 C29.4048413,106.144515 44.7428449,106.721087 57.8322159,107.144692 C58.9900675,104.217116 60.1396823,101.487222 61.2445834,99.0773841 C43.6320604,97.8759954 32.1312053,97.2464724 20.1255551,96.6710767 C18.552336,99.4209742 17.0179473,102.372084 15.5435693,105.477338" id="Fill-67" fill="#56A7FF"></path>
                        <path d="M93.4295629,14.7559007 C92.5094004,14.7523707 91.6704286,14.2287488 91.2644746,13.4027205 C90.8573438,12.5766922 90.9538314,11.592989 91.511577,10.8610951 C95.8641106,5.18832827 105.339902,-3.5367424 119.867174,1.78184417 C135.006319,7.32282297 137.45381,31.1505615 150.031326,41.2099855 C180.71557,65.7590279 131.648079,98.3836145 103.933771,56.409141 C94.4509198,42.0477806 116.983135,14.4276074 93.4295629,14.7559007" id="Fill-69" fill="#FFED72"></path>
                        <path d="M110.690259,49.3334205 L89.2017572,41.9026961 C89.2017572,41.9026961 87.7003155,56.9582968 80.9155876,69.7605583 C84.3926724,76.5688198 110.874998,77.7219647 111.205644,70.0853216 C111.675139,59.2787067 110.690259,49.3334205 110.690259,49.3334205" id="Fill-71" fill="#F3D2BF"></path>
                        <path d="M110.690259,52.4704452 C107.905061,52.9481767 105.12457,52.5704629 102.219351,52.7728516 C100.706142,52.8787527 110.690259,56.1722756 110.690259,56.1722756 L110.690259,52.4704452 Z" id="Fill-73" fill="#F2BDA5"></path>
                        <path d="M122.081212,12.9046325 C108.835343,14.0248304 90.8992336,15.350947 84.8864067,22.0568375 C84.8864067,22.0568375 89.8331629,50.8066219 90.8109827,51.051371 C101.851757,53.810682 112.833696,54.2907668 123.661492,48.6886007 C126.673788,36.62647 126.20547,24.6961272 122.081212,12.9046325" id="Fill-75" fill="#F3D2BF"></path>
                        <path d="M114.717794,15.9429339 C125.717384,13.5436866 122.370911,10.2748739 121.562533,9.32647102 C116.838169,3.72783498 108.435508,-0.717656184 94.5883558,1.78160883 C71.2195219,5.9976477 69.7827975,28.1050823 59.205635,33.6060541 C7.50003074,60.4943332 77.7312604,106.295365 87.3906138,56.9337042 C91.6195961,35.3204746 90.5029283,21.0885488 114.717794,15.9429339" id="Fill-77" fill="#FFED72"></path>
                        <path d="M241.516428,43.0765505 C241.567025,43.2354021 249.281329,41.925759 249.255442,41.7763208 C248.916559,39.7712608 248.73888,38.7134269 248.344693,36.3565399 C248.318806,36.2035717 240.595089,37.4555576 240.605679,37.6579463 C240.70805,39.7006601 241.004573,41.4645011 241.516428,43.0765505" id="Fill-79" fill="#56A7FF"></path>
                        <path d="M251.047053,78.2873587 C251.332986,78.9204117 265.757887,76.4282067 265.44842,75.8669311 C260.42871,66.7559099 257.596445,63.7447898 252.577911,54.6161184 C252.262561,54.0442527 242.470243,55.6445353 242.697342,56.2764117 C246.248558,66.129917 246.801597,68.7268463 250.316335,76.6553057 C250.545788,77.1753975 250.78936,77.7178463 251.047053,78.2873587" id="Fill-81" fill="#56A7FF"></path>
                        <path d="M250.105945,66.2389951 C250.241263,66.4084367 244.692048,70.8786382 253.20061,74.7452035 C257.21426,76.5702318 265.661634,76.2537053 265.448655,75.8677548 C260.427769,66.7555569 257.59668,63.7444367 252.578147,54.6157654 C252.262797,54.0450763 242.470479,55.6441823 242.697578,56.2760587 C243.152952,57.5386346 250.546023,57.4680339 251.653277,57.7327866 C258.840429,59.4483837 254.704405,61.8441011 247.116005,64.0268396 C245.369814,64.5292813 248.369168,66.5861152 250.105945,66.2389951" id="Fill-83" fill="#529AEB"></path>
                        <path d="M245.448652,46.7950898 C246.304097,51.8830473 246.588853,53.5798177 240.934913,54.5282205 C236.412938,55.2895314 234.772648,52.4419696 234.143125,48.6954254 C233.512426,44.9488813 234.133712,41.7212523 238.655687,40.9622947 C244.308451,40.0115385 244.593207,41.7083088 245.448652,46.7950898" id="Fill-85" fill="#56A7FF"></path>
                        <path d="M299.780367,38.0561343 C300.34988,41.4473216 298.515438,42.9181696 296.018526,43.3370671 C293.520438,43.758318 291.155314,42.0733145 290.73524,39.5752261 C290.316342,37.0783145 292.001346,34.7131908 294.498258,34.2931166 C296.996346,33.8730424 299.210855,34.6637703 299.780367,38.0561343" id="Fill-87" fill="#FFED72"></path>
                        <path d="M294.965634,56.3027693 C274.166666,50.4970378 249.103415,54.7095466 249.103415,54.7095466 L246.444122,38.8808682 C246.444122,38.8808682 278.065002,32.40443 289.265804,22.3850131 C292.334581,28.8438011 295.564564,48.0648435 294.965634,56.3027693" id="Fill-89" fill="#56A7FF"></path>
                        <path d="M294.965634,56.3027693 C292.622867,55.648536 290.225973,55.1213841 287.814959,54.7013099 C294.960928,34.530688 278.065002,32.40443 289.265804,22.3850131 C292.334581,28.8438011 295.564564,48.0648435 294.965634,56.3027693" id="Fill-91" fill="#529AEB"></path>
                        <path d="M298.176201,56.1832187 C298.206795,57.1633919 293.816608,57.9082293 293.654226,56.943353 C291.222032,42.4702081 289.928862,41.694777 287.816724,22.2078053 C287.710823,21.2346922 292.263392,20.4710279 292.339876,21.447671 C293.367117,34.4840915 297.907919,47.6711269 298.176201,56.1832187" id="Fill-93" fill="#FFFFFF"></path>
                        <path d="M241.591029,56.747436 C241.714581,57.2628212 253.833192,55.1848071 253.752001,54.7035456 C252.67181,48.2906481 252.103475,44.9053442 250.838545,37.3628353 C250.756178,36.8733371 238.62227,38.897224 238.676397,39.4079025 C239.388287,45.8819873 240.33669,51.5253371 241.591029,56.747436" id="Fill-95" fill="#FFFFFF"></path>
                    </g>
                    <g id="Group-104" transform="translate(300.053004, 42.940350)" fill="#56A7FF">
                        <path d="M14.8114399,16.6375862 C14.8008498,16.6999502 14.7879064,16.7599608 14.7596661,16.817618 C14.6925954,16.9623495 14.5655141,17.0753106 14.4125459,17.1212011 C14.3678322,17.1376746 14.3219417,17.143558 14.2748746,17.1482647 C10.7307191,17.3330032 7.29011131,17.0894307 3.91069081,16.9023389 C3.76831272,16.8941021 3.63417138,16.8446816 3.52709364,16.7423106 C3.3164682,16.5375686 3.29646466,16.1951551 3.48120318,15.9657028 C3.52121025,15.9162823 3.56945406,15.8750986 3.62358127,15.8421516 C3.70594876,15.7903777 3.79537633,15.7668442 3.89304064,15.7574307 C7.39718905,15.1537947 10.8601537,15.2749926 14.254871,16.0033565 C14.3195883,16.0080633 14.3795989,16.0151233 14.4384329,16.0374802 C14.5902244,16.0939608 14.7114223,16.2116286 14.7714329,16.3587134 C14.7949664,16.4175473 14.8067332,16.4787346 14.8126166,16.5422753 C14.8137933,16.5905191 14.8137933,16.5905191 14.8114399,16.6375862" id="Fill-98"></path>
                        <path d="M13.9005731,8.23257208 C13.9088099,8.29611272 13.9135166,8.3573 13.9017498,8.42084064 C13.8793929,8.57851555 13.7899654,8.72207032 13.6581774,8.81149788 C13.6181703,8.83856148 13.5758099,8.85738834 13.5322728,8.87621519 C10.1857993,10.0599537 6.81814558,10.8047912 3.52697597,11.5872823 C3.38459788,11.6190527 3.24339647,11.6108159 3.11278516,11.5425686 C2.85156254,11.4060739 2.73507138,11.083664 2.84920919,10.8118512 C2.87274276,10.7530173 2.90686643,10.6988901 2.94922686,10.6529996 C3.01394417,10.5788689 3.09278163,10.5306251 3.18103251,10.4929714 C6.37100777,8.9197523 9.72571802,8.05018693 13.1851527,7.78308092 C13.2486933,7.76896078 13.3098806,7.75954735 13.3745979,7.76425406 C13.5334495,7.77484417 13.6840643,7.85368163 13.7829053,7.97605618 C13.8229124,8.02665336 13.8511527,8.08313392 13.8758629,8.14079117 C13.8888064,8.1878583 13.8888064,8.1878583 13.9005731,8.23257208" id="Fill-100"></path>
                        <path d="M10.6365848,0.434959364 C10.6636484,0.492616608 10.6836519,0.55145053 10.694242,0.614991166 C10.7142456,0.772666078 10.6695318,0.935047703 10.5683375,1.05742226 C10.5377438,1.09625265 10.5024435,1.12566961 10.4671431,1.15508657 C7.59487102,3.24369081 4.57904417,4.91575088 1.64676148,6.6019311 C1.51850353,6.67135512 1.37965548,6.70312544 1.23610071,6.67488516 C0.945461131,6.61958127 0.74189576,6.34306184 0.774842756,6.0500689 C0.781902827,5.98888163 0.799553004,5.92651767 0.826616608,5.86886042 C0.867800353,5.78060954 0.928987633,5.71118551 1.00429505,5.65117491 C3.61534452,3.23192403 6.58410424,1.44690283 9.82467668,0.206683746 C9.87998057,0.174913428 9.93646113,0.149026502 9.99882509,0.13490636 C10.1541466,0.0996060071 10.3200583,0.132553004 10.4518463,0.223157244 C10.5047968,0.259634276 10.5459806,0.304348057 10.5871643,0.353768551 C10.6142279,0.393775618 10.6130512,0.39259894 10.6365848,0.434959364" id="Fill-102"></path>
                    </g>
                    <g id="Group-149" transform="translate(232.982332, 0.756604)">
                        <path d="M57.1605678,38.7560226 C57.5218081,41.7812629 58.0501367,44.792383 58.5408117,47.8058565 C59.04443,50.8181534 59.5880555,53.8245668 60.0551968,56.842747 C60.3140661,58.3488954 60.5364583,59.8609272 60.8400413,61.3588389 C61.1236208,62.8591039 61.4766244,64.3476021 61.7790307,65.8443371 C62.3603099,68.8425138 62.8533382,71.857164 63.2828258,74.8800509 L62.7027233,75.0118389 C61.8190378,72.0642594 61.1777481,69.068436 60.636476,66.0561392 L59.937529,61.5188671 C59.70337,60.008012 59.4021403,58.5065703 59.1456244,56.9992452 C58.5808187,53.9916551 58.1336809,50.9640615 57.7171367,47.9317611 C57.2947092,44.9006375 56.940529,41.857747 56.6969565,38.798383 L57.1605678,38.7560226 Z" id="Fill-105" fill="#D6E3F2"></path>
                        <path d="M24.7134244,53.9884781 C24.813442,55.7287855 25.0017106,57.4832131 25.3794244,59.1682166 C25.5771064,59.9977749 25.8195021,60.8579269 26.2525198,61.4992166 C26.3525375,61.6721883 26.4819721,61.7769127 26.6008166,61.8828138 C26.7526081,61.9863615 26.9549968,62.0746124 27.1303219,62.1711 C27.473912,62.3887855 27.8975163,62.4817431 28.2869968,62.6288279 C29.907283,63.1100894 31.6570039,63.2218739 33.3784845,63.2006936 C35.1046717,63.1630399 36.8390958,63.0359587 38.5417495,62.7182555 C40.2314597,62.3770187 41.9247,61.9310576 43.4296717,61.1403297 C44.8840463,60.3648986 46.3748979,59.2094004 46.2466399,57.6844251 C46.2607601,56.0700223 45.8524527,54.3414816 45.4241417,52.6729516 C44.9781806,50.9938314 44.4639721,49.3147113 43.9168166,47.6555947 L44.4663254,47.4273191 C45.2394032,49.0311318 45.9018731,50.6761283 46.4443219,52.3764286 C46.9479403,54.0873191 47.4621488,55.814683 47.4068449,57.7338456 C47.3762512,58.2162837 47.3115339,58.7140187 47.0679615,59.2270505 C46.9797106,59.5012166 46.7867353,59.6471247 46.649064,59.8601035 C46.4890357,60.0460187 46.3631311,60.2790011 46.1678025,60.4154958 C45.4570887,61.0638456 44.6687141,61.5698173 43.8450392,61.9557678 C42.1965127,62.7394357 40.4738555,63.2712943 38.7170746,63.6242979 C35.2117495,64.2773544 31.5522795,64.465623 28.0351876,63.4230859 C27.6057,63.2512908 27.1609155,63.140683 26.7549615,62.8818138 C26.5502194,62.7606159 26.3443007,62.6676583 26.138382,62.5217502 C25.9218731,62.339365 25.7336046,62.1393297 25.6171134,61.9239975 C25.0993749,61.073259 24.9111064,60.1860435 24.7298979,59.3070647 C24.403958,57.542047 24.2839367,55.7758527 24.2474597,54.0002449 L24.7134244,53.9884781 Z" id="Fill-107" fill="#FFFFFF"></path>
                        <path d="M17.1005502,93.7117304 L20.508211,93.1045643 C21.6401756,92.8962922 22.773317,92.6986102 23.9135184,92.5574088 C25.0572498,92.4291509 26.1739177,92.1314512 27.2599919,91.7831544 C28.3519495,91.4866314 29.4768541,91.305423 30.4935042,90.9888965 L30.8229742,91.4831014 C29.8251509,92.3161898 28.6614159,92.6574265 27.5223912,92.9162958 C26.3574795,93.0951509 25.1996279,93.2022286 24.0664866,93.4669813 C22.9286385,93.7082004 21.7754936,93.8423417 20.6199954,93.9447127 C19.4644972,94.0447304 18.3089989,94.1294512 17.1476173,94.1753417 L17.1005502,93.7117304 Z" id="Fill-109" fill="#67B1FF"></path>
                        <path d="M0.659292933,63.4605042 C0.938165724,63.3757834 1.21350848,63.3157728 1.48767456,63.2534088 C1.76184064,63.1945749 2.03247668,63.1569212 2.30546608,63.201635 C2.58080883,63.2651756 2.85144488,63.1639813 3.11972756,63.0674936 C3.38918693,63.0380767 3.66452968,63.1133841 3.95516926,63.3381297 L3.99870636,63.9299989 C3.73513039,64.164158 3.45508092,64.2512322 3.17150141,64.2300519 C2.88439187,64.1429777 2.60081237,64.0523735 2.3207629,64.1241509 C2.03953675,64.1794548 1.75713392,64.1512145 1.47590777,64.1029707 C1.1958583,64.0511968 0.916985512,64.0005996 0.639289399,63.9264689 L0.659292933,63.4605042 Z" id="Fill-111" fill="#FFFFFF"></path>
                        <path d="M0.659292933,65.7805611 C0.938165724,65.6958403 1.21350848,65.6358297 1.48767456,65.5734657 C1.76184064,65.5146318 2.03247668,65.4769781 2.30546608,65.5216919 C2.58080883,65.5852325 2.85144488,65.4840382 3.11972756,65.3875505 C3.38918693,65.3581336 3.66452968,65.433441 3.95516926,65.6581866 L3.99870636,66.2500558 C3.73513039,66.4853915 3.45508092,66.571289 3.17150141,66.5501088 C2.88439187,66.4642113 2.60081237,66.3724304 2.3207629,66.4442078 C2.03953675,66.4995117 1.75713392,66.4712714 1.47590777,66.4230276 C1.1958583,66.3712537 0.916985512,66.3218332 0.639289399,66.2465258 L0.659292933,65.7805611 Z" id="Fill-113" fill="#FFFFFF"></path>
                        <path d="M1.43260601,68.1005004 C1.7114788,68.0157795 1.98682155,67.9557689 2.25981095,67.8934049 C2.53515371,67.834571 2.80578975,67.7969173 3.07877915,67.8416311 C3.35412191,67.9051717 3.62475795,67.8039774 3.89304064,67.7074898 C4.1625,67.6780728 4.43784276,67.7533802 4.72848233,67.9781258 L4.77201943,68.5711717 C4.50844346,68.8053307 4.22839399,68.8912283 3.94481449,68.8700481 C3.65770495,68.7841505 3.37412544,68.6923696 3.09407597,68.764147 C2.81284982,68.8194509 2.530447,68.7912106 2.24922085,68.7429668 C1.96917138,68.6911929 1.69029859,68.6405958 1.41260247,68.566465 L1.43260601,68.1005004 Z" id="Fill-115" fill="#FFFFFF"></path>
                        <path d="M7.52403498,61.3427184 C7.56286537,61.4039057 16.9715862,59.8177431 16.9621728,59.7565558 C16.8233247,58.9470011 16.7515473,58.5198668 16.5926958,57.5667572 C16.5821057,57.5043933 7.16750141,59.0846724 7.15691131,59.1529198 C7.00747314,60.0095417 7.12749435,60.7237855 7.52403498,61.3427184" id="Fill-117" fill="#D6E3F2"></path>
                        <path d="M8.94310919,71.4180276 C8.96664276,71.4827449 12.7602541,70.8391018 12.749664,70.7779145 C12.6131693,69.9683597 12.5413919,69.5400488 12.3825403,68.5881159 C12.3719502,68.5257519 8.57363216,69.162335 8.57598551,69.228229 C8.59598905,70.0566106 8.71718693,70.7696777 8.94310919,71.4180276" id="Fill-119" fill="#D6E3F2"></path>
                        <path d="M7.72042261,63.537459 C7.75689965,63.4233212 7.52744735,63.4068477 7.64393852,63.405671 L7.78749329,63.3703707 L8.07460283,63.3021233 L8.65705866,63.1656286 L9.82197032,62.8902859 C10.5985781,62.7090774 11.3787159,62.5443424 12.1741505,62.4631516 C12.9707618,62.3972576 13.7403095,62.168982 14.5098572,61.941883 C14.8981611,61.8512788 15.2947018,61.8089184 15.6924191,61.7818548 C15.8924544,61.7653813 16.0948431,61.7712647 16.2937018,61.7642046 C16.3937194,61.7583212 16.4972671,61.7677346 16.5949314,61.7712647 L16.7443696,61.7795014 C16.7784933,61.7842081 16.8102636,61.7606746 16.7020092,61.835982 C16.6137583,61.9112894 16.6161117,62.0795544 16.6678855,62.1277982 L17.2550481,62.0277806 C17.2574014,62.0889678 17.2126876,62.2701763 17.0761929,62.3572505 C16.9208714,62.4466781 16.9032212,62.4349113 16.8879244,62.4490314 L16.7443696,62.5149254 C16.6467053,62.5596392 16.5549244,62.604353 16.4584367,62.6349466 C16.2654615,62.7008406 16.0760163,62.7773247 15.8818643,62.8326286 C15.4947371,62.9467664 15.1052565,63.039724 14.7087159,63.0879678 C13.9062212,63.1338583 13.1025498,63.171512 12.3271187,63.372724 C11.5481576,63.5539325 10.7550763,63.6527735 9.95728834,63.7269042 L8.76060636,63.8304519 L8.15932367,63.8751657 L7.85574064,63.8916392 L7.70159576,63.8975226 C7.71924594,63.9128194 7.38977597,63.8939926 7.32741201,63.7892682 L7.72042261,63.537459 Z" id="Fill-121" fill="#D6E3F2"></path>
                        <path d="M8.49385336,65.8575159 C8.53033039,65.7433781 8.30087809,65.7269046 8.41736926,65.7257279 L8.55974735,65.6904276 L8.84921025,65.6221802 L9.4304894,65.4856855 L10.5954011,65.2103428 C11.3720088,65.0291343 12.1533233,64.8643993 12.9475813,64.7832085 C13.7441926,64.7173145 14.5137403,64.4890389 15.283288,64.2619399 C15.6715919,64.1713357 16.0681325,64.1289753 16.4658498,64.1019117 C16.6647085,64.0854382 16.8682739,64.0913216 17.0671325,64.0842615 C17.1671502,64.0783781 17.2706979,64.0877915 17.3683622,64.0913216 L17.5178004,64.0995583 C17.551924,64.104265 17.5825177,64.0807314 17.4754399,64.1560389 C17.387189,64.2313463 17.3895424,64.3996113 17.4413163,64.4478551 L18.0284788,64.3478375 C18.0320088,64.4090247 17.9861184,64.5902332 17.8496237,64.6773074 C17.6943021,64.766735 17.6766519,64.7549682 17.6613551,64.7690883 L17.5178004,64.8349823 C17.4213127,64.8796961 17.3271784,64.9244099 17.2306908,64.9550035 C17.0388922,65.0208975 16.849447,65.0973816 16.6564717,65.1526855 C16.2681678,65.2668233 15.8786873,65.3597809 15.4821466,65.4080247 C14.6796519,65.4539152 13.8759806,65.4915689 13.1005495,65.6927809 C12.3215883,65.8739894 11.5285071,65.9728304 10.7307191,66.0469611 L9.5340371,66.1505088 L8.93275442,66.1952226 L8.62917138,66.2116961 L8.4750265,66.2175795 C8.49267668,66.2328763 8.16438339,66.2140495 8.10084276,66.1093251 L8.49385336,65.8575159 Z" id="Fill-123" fill="#D6E3F2"></path>
                        <path d="M14.356536,70.6447145 C14.448317,70.9071138 18.1878011,70.1505095 18.1630908,70.0046014 C18.0265961,69.1950466 17.9548187,68.7667357 17.7959671,67.8148028 C17.785377,67.7524389 13.9882357,68.3890219 13.9894124,68.4549159 C14.0105926,69.2832975 14.1306138,69.9963647 14.356536,70.6447145" id="Fill-125" fill="#D6E3F2"></path>
                        <path d="M22.2140417,76.2798276 C24.3332396,75.8350431 25.3875435,79.0991491 19.9230488,81.4536827 C19.3794233,81.6901951 17.1296141,82.3232481 14.7091866,82.9774813 C13.983176,83.1739866 13.2406919,83.3728452 12.5264481,83.5622905 C12.5029145,85.8026862 11.6109922,89.9340042 10.7837873,93.2969512 C10.7037731,93.6252445 2.82473428,95.0007816 2.82473428,95.0007816 C2.82473428,95.0007816 8.19274134,79.4144989 10.7037731,78.85087 C15.1092572,77.8601067 21.3338862,76.4633894 22.2140417,76.2798276" id="Fill-127" fill="#F3D2BF"></path>
                        <path d="M27.9515258,81.5691148 C27.4243739,81.8326908 19.2205717,86.7182597 17.8979852,86.9830124 C14.0302431,87.7560901 16.8719216,83.8071572 23.5707519,79.8441042 C24.0743703,79.5464046 24.5968155,79.2381148 25.136911,78.9180583 C27.4596742,77.5448746 29.4976813,80.7948604 27.9515258,81.5691148" id="Fill-129" fill="#F3D2BF"></path>
                        <path d="M29.4982696,84.6624848 C28.9711177,84.9272375 20.0201247,90.0763823 18.6716512,90.0763823 C15.5769869,90.0763823 18.4186654,86.9005272 25.1174958,82.9374742 C25.6211141,82.6397746 26.1435594,82.3314848 26.6836548,82.0114283 C29.006418,80.6382445 31.0444251,83.8882304 29.4982696,84.6624848" id="Fill-131" fill="#F3D2BF"></path>
                        <path d="M31.0448958,87.7558548 C30.5177438,88.0206074 24.0377756,91.2482364 22.5386873,91.6224201 C19.4451996,92.3954979 19.4451996,90.0762647 23.311765,87.7558548 C23.81303,87.4546251 27.6901855,85.4248548 28.2302809,85.1047982 C30.5530442,83.7316145 32.5910512,86.9816004 31.0448958,87.7558548" id="Fill-133" fill="#F3D2BF"></path>
                        <path d="M31.067841,90.5619975 C30.5065654,90.7443827 27.5860495,92.2011106 26.0222438,92.9377113 C23.4982686,94.1238032 21.4331979,92.2528845 26.5917562,89.1135064 C27.0918445,88.8087466 28.8592155,87.8756406 29.4404947,87.6403049 C31.9397597,86.6224781 32.7116608,90.0242555 31.067841,90.5619975" id="Fill-135" fill="#F3D2BF"></path>
                        <path d="M69.833983,90.9619505 L86.3368982,94.1942862 C89.0291385,94.542583 90.6164777,96.6017703 90.2681809,99.2928339 L89.4609795,105.526876 C89.1126827,108.219117 86.6946085,109.759389 84.0023682,109.411092 L77.2988311,108.542703 L73.7840926,110.314781 L74.1147392,107.764919 L68.1242693,106.989488 C65.4332057,106.641191 63.5340466,104.176049 63.8811668,101.484986 L64.6883682,95.2521201 C65.036665,92.5587032 67.1417428,90.612477 69.833983,90.9619505" id="Fill-137" fill="#79E798"></path>
                        <path d="M73.5316951,99.2503558 C73.6046491,99.1232746 73.722317,99.0256102 73.8376314,98.967953 C73.7564406,99.2221155 73.6034724,99.5033417 73.4175572,99.7880979 C73.4152039,99.5868859 73.4457975,99.3939106 73.5316951,99.2503558 M70.9535926,95.5732357 C71.0700837,95.4814548 71.0900873,95.4991049 71.0900873,95.4991049 C71.0783205,95.4861615 71.1453912,95.5285219 71.1759848,95.6626633 C71.2430555,95.8979989 71.1395078,96.2733594 70.9394724,96.5522322 C70.7417905,96.8299283 70.4311473,97.0346703 70.062847,97.1523382 C70.0322534,97.1617516 69.9993064,97.1617516 69.9698894,97.1699883 C70.0722604,96.9652463 70.165218,96.7546208 70.2758258,96.5545855 C70.4923346,96.1921686 70.7488505,95.7450307 70.9535926,95.5732357 M86.7481473,101.021257 C86.3539601,100.831812 85.9903664,100.582356 85.6703099,100.288186 C85.5314618,100.159928 85.3855537,100.004607 85.278476,99.8704654 C85.3055396,99.8245749 85.3408399,99.7845678 85.3655502,99.7375007 L85.3984972,99.6727834 C85.4479177,99.5739424 85.4620378,99.4574512 85.4243841,99.3433134 C85.35143,99.1150378 85.1078576,98.9891332 84.879582,99.063264 C84.5242251,99.1762251 84.3747869,99.3903806 84.3300731,99.6163028 C83.9923664,100.130511 83.5946491,100.604713 83.1204477,100.99184 C82.8415749,101.216586 82.5062216,101.453098 82.2332322,101.579002 C81.9614194,101.701377 81.7860943,101.683727 81.3954371,101.602536 C80.6035325,101.433094 79.9551827,101.249533 79.6339495,100.790628 C79.2797693,100.328193 79.1809283,99.6174795 79.3844936,99.0597339 C79.3856703,99.0562039 79.386847,99.0538505 79.3880237,99.0514972 L79.390377,99.0456138 C79.4962781,98.733794 79.3303664,98.3925572 79.01737,98.2866562 C78.7043735,98.1795784 78.3643134,98.3454901 78.2584124,98.6584866 C78.2572357,98.6620166 78.2572357,98.66437 78.2572357,98.6679 L78.2548823,98.6667233 C77.9913064,99.4645113 77.5735855,100.223469 77.0381968,100.863582 C76.7757975,101.174225 76.5086915,101.398971 76.2086385,101.493105 C75.9015254,101.596653 75.5191049,101.591946 75.1425678,101.506048 C74.5977657,101.382497 74.0894406,101.102448 73.7635007,100.712967 C73.923529,100.492928 74.0929707,100.275243 74.2400555,100.050497 C74.487158,99.6563099 74.8001544,99.1621049 74.7601473,98.5090484 C74.7507339,98.3654936 74.6683664,98.2301756 74.5295184,98.1619283 L74.5165749,98.1548682 C74.1765148,97.9877799 73.7752675,98.0207269 73.4834512,98.1513382 C73.1822216,98.2819495 72.9480625,98.4902216 72.7680307,98.7502675 C72.4185572,99.2938929 72.3950237,99.9128258 72.5409318,100.461158 C72.5762322,100.587063 72.6232993,100.703554 72.6738965,100.818868 C72.1585113,101.446038 71.5160449,101.953186 70.7806208,102.076737 C70.0051898,102.250886 69.1473912,101.928476 68.8896986,101.33896 C68.8085078,101.102448 68.8696951,100.696494 68.9414724,100.248179 C69.0179565,99.8151615 69.1226809,99.3880272 69.2427021,98.9667763 C69.3250696,98.6855502 69.4368541,98.4137375 69.5415784,98.1419247 C69.7969177,98.1325113 70.0569636,98.097211 70.3193629,98.0254336 C71.3501332,97.7653876 72.3761968,96.7746244 72.1573346,95.4343876 C72.0890873,95.1260979 71.8949353,94.7201438 71.4419141,94.543642 C71.0030131,94.3694936 70.5252816,94.5742357 70.300536,94.7789777 C69.8122145,95.2214088 69.6415961,95.6167728 69.3709601,96.0286102 C69.1356244,96.4227975 68.9332357,96.8358117 68.7532039,97.2594159 C68.3637233,97.2241155 67.9612993,97.1546915 67.5518152,97.068794 C67.3611933,97.0287869 67.168218,97.1464548 67.1176208,97.3382534 C67.065847,97.537112 67.1835148,97.7395007 67.3823735,97.7912746 C67.7259636,97.8818788 68.0954406,97.972483 68.4743311,98.0442604 C68.401377,98.2572392 68.3131261,98.4678647 68.2531155,98.6855502 C68.1213276,99.1491615 68.0307233,99.6221862 67.9671827,100.099918 C67.9401191,100.35055 67.9012887,100.549409 67.9071721,100.844755 C67.9201155,101.128335 67.8871686,101.428388 68.0530802,101.730794 C68.6508329,102.854522 69.9557693,103.098094 70.9394724,102.882762 C71.8455148,102.703907 72.558582,102.134395 73.129271,101.515462 C73.6022958,102.03673 74.2529989,102.374437 74.8825219,102.541525 C75.390847,102.67449 75.9591827,102.723911 76.5334018,102.560352 C77.1240943,102.399147 77.5818223,101.995547 77.9101155,101.61548 C78.087794,101.408384 78.2242887,101.175402 78.3784336,100.95301 C78.4666845,101.144808 78.5643488,101.334253 78.6937834,101.506048 C78.9985431,101.919063 79.4668611,102.237942 79.9104689,102.392087 C80.3599601,102.556822 80.7788576,102.62507 81.1789283,102.700377 C81.3895537,102.736854 81.6319495,102.774508 81.9061155,102.760388 C82.1873417,102.748621 82.4732746,102.65684 82.6921367,102.545055 C83.1369212,102.312073 83.4463876,102.056734 83.7840943,101.769624 C84.1641615,101.431918 84.4936314,101.043614 84.7913311,100.63413 C84.8984088,100.736501 85.0066633,100.831812 85.1255078,100.928299 C85.5279318,101.249533 85.9762463,101.511932 86.4516244,101.701377 C86.6316562,101.771978 86.8411049,101.69314 86.9258258,101.516639 C87.0129,101.330723 86.9340625,101.109508 86.7481473,101.021257" id="Fill-139" fill="#FFFFFF"></path>
                        <path d="M26.5841078,13.2425746 L11.6732385,16.6525887 C9.23516078,17.0314792 7.86550707,19.1024332 8.27969788,21.7852601 L9.24339753,27.9969456 C9.65758834,30.6785958 11.9156343,32.1894509 14.353712,31.8105604 L20.4289028,30.8703943 L23.6930088,32.6001117 L23.2988216,30.0584862 L28.7244859,29.2183378 C31.1637403,28.840624 32.8028534,26.3590092 32.3886625,23.677359 L31.4249629,17.4656735 C31.0107721,14.7840233 29.0221855,12.8660375 26.5841078,13.2425746" id="Fill-141" fill="#4BDF75"></path>
                        <path d="M26.6012873,19.4223721 C26.2612272,19.3105876 25.9705876,19.1093756 25.7811424,18.8340329 C25.5893438,18.5575134 25.4810894,18.1845064 25.5328633,17.9491707 C25.5563968,17.8150293 25.6152307,17.7714922 25.6046406,17.7844357 C25.6046406,17.7844357 25.6222908,17.7679622 25.7328986,17.8573898 C25.9246972,18.0256548 26.1753297,18.4704392 26.3836018,18.8281495 C26.4942095,19.0270081 26.5859905,19.2364569 26.6860081,19.4411989 C26.6589445,19.4317855 26.6271742,19.4317855 26.6012873,19.4223721 M23.5195664,21.5545134 C23.6019339,21.6968915 23.6348809,21.8863367 23.641941,22.0851954 C23.4666159,21.8063226 23.3230611,21.5345099 23.2406936,21.2838774 C23.3430647,21.3415346 23.4489657,21.4333155 23.5195664,21.5545134 M28.8828668,19.3117643 C28.5145664,19.4011919 28.1497961,19.4764993 27.7967926,19.514153 C27.6179375,19.0952555 27.4190788,18.6845947 27.1896265,18.2939375 C26.9272272,17.88563 26.7589622,17.4937961 26.2977042,17.0584251 C26.0859021,16.8560364 25.643471,16.6560011 25.2504604,16.8360329 C24.8445064,17.0172413 24.6809481,17.4243721 24.6303509,17.7314852 C24.479736,19.0717219 25.4504958,20.0495417 26.4000753,20.2978208 C26.6412943,20.3660682 26.8778067,20.3978385 27.110789,20.4048986 C27.2166901,20.6755346 27.3284746,20.944994 27.4131954,21.2250435 C27.5379233,21.6451177 27.6508845,22.0687219 27.7356053,22.4993862 C27.8167961,22.946524 27.8873968,23.3513014 27.8215028,23.5878138 C27.608524,24.179683 26.8389763,24.5103297 26.1270859,24.3455947 C25.442259,24.2291035 24.8315629,23.7184251 24.3361813,23.0853721 C24.3761883,22.9735876 24.4385523,22.8771 24.4656159,22.7523721 C24.5774004,22.2040399 24.5338633,21.5862837 24.1961565,21.0485417 C24.0231848,20.7920258 23.8007926,20.5849304 23.5230965,20.4590258 C23.2512837,20.3319445 22.8853367,20.3025276 22.5817537,20.4743226 L22.5699869,20.480206 C22.4476124,20.54963 22.375835,20.6861247 22.3723049,20.8296795 C22.3605382,21.4815594 22.6641212,21.9710576 22.9029869,22.3617148 C23.045365,22.5852837 23.20657,22.7994392 23.3595382,23.0183014 C23.0794887,23.4101353 22.6252908,23.6960682 22.1346159,23.8243261 C21.7945558,23.9149304 21.4474357,23.9231671 21.1626795,23.8243261 C20.8861601,23.7325452 20.6355276,23.5125064 20.3837184,23.2053933 C19.8730399,22.5723403 19.4659092,21.8180894 19.1964498,21.0261848 L19.1952731,21.0261848 C19.1940965,21.0238314 19.1940965,21.0203014 19.1929198,21.0167714 C19.0846654,20.7073049 18.7693155,20.5449233 18.4880894,20.6555311 C18.2068633,20.7661389 18.0680152,21.1061989 18.1774463,21.416842 L18.1797996,21.4215488 C18.1797996,21.4250788 18.182153,21.4274322 18.1833297,21.4309622 L18.182153,21.4309622 C18.3892484,21.9851777 18.3245311,22.6947148 18.0185947,23.1606795 C17.7432519,23.6219375 17.1596194,23.8125594 16.4441989,23.9902378 C16.0911954,24.0761353 15.9323438,24.0961389 15.6817113,23.9761177 C15.4263721,23.8537431 15.1121989,23.6207608 14.8509763,23.4007219 C14.4050152,23.0206548 14.0249481,22.5511601 13.6990081,22.0416583 C13.6495876,21.8169127 13.5060329,21.6039339 13.1789163,21.4956795 C12.9682908,21.4239021 12.7506053,21.5533367 12.6929481,21.7816124 C12.6635311,21.8957502 12.6800046,22.0122413 12.7282484,22.1099057 L12.7611954,22.1734463 C12.784729,22.2205134 12.8188527,22.2605205 12.8447396,22.306411 C12.751782,22.4393756 12.6247007,22.5982272 12.5023261,22.7276618 C12.2222767,23.0241848 11.9010435,23.275994 11.5480399,23.4701459 C11.3821283,23.5607502 11.3197643,23.7819657 11.4056618,23.9655276 C11.4880293,24.1420293 11.6821813,24.2173367 11.8433862,24.146736 C12.2693438,23.9514074 12.6682378,23.6854781 13.0235947,23.3595382 C13.1271424,23.2618739 13.2224534,23.1653862 13.315411,23.0630152 C13.6025205,23.4677926 13.9166936,23.8513898 14.2744039,24.1843898 C14.5921071,24.4667926 14.8839233,24.7174251 15.2969375,24.944524 C15.5005028,25.0551318 15.7640788,25.1433827 16.0205947,25.1516194 C16.2724039,25.1633862 16.4900894,25.1222025 16.6807113,25.0833721 C17.0419516,25.003358 17.420842,24.9315806 17.8244428,24.7621389 C18.2233367,24.6021106 18.6363509,24.278524 18.8999269,23.8643332 C19.012888,23.6901848 19.0940788,23.5019163 19.1670329,23.3101177 C19.316471,23.5289799 19.448259,23.7607855 19.6177007,23.9631742 C19.9306972,24.3397113 20.3625382,24.7386053 20.9061636,24.8927502 C21.4344922,25.0492484 21.9510541,24.9939445 22.408782,24.8539198 C22.975941,24.6809481 23.53957,24.3185311 23.9514074,23.7925558 C24.4973862,24.4114887 25.171623,24.9810011 26.0117714,25.1516194 C26.9166371,25.3551848 28.0956689,25.0974922 28.5981106,23.9702343 C28.7369587,23.6642979 28.6957749,23.3665982 28.6981283,23.0841954 C28.6922449,22.7888491 28.6498845,22.5899905 28.6157608,22.3405346 C28.54163,21.8651565 28.4404357,21.3944852 28.3051177,20.9332272 C28.241577,20.7167184 28.1533261,20.5084463 28.0803721,20.2942908 C28.4227855,20.2201601 28.7546088,20.1248491 29.0640753,20.0318915 C29.2429304,19.9777643 29.3441247,19.7730223 29.2899975,19.576517 C29.237047,19.3858951 29.0570152,19.2705806 28.8828668,19.3117643" id="Fill-143" fill="#FFFFFF"></path>
                        <path d="M96.3471371,3.92222226 L81.4150876,0.611049117 C79.049964,-0.0926045936 76.923706,1.19115159 76.1494516,3.79278763 L74.3561936,9.81738127 C73.5795859,12.4190173 74.9727731,14.7500173 77.3378968,15.4548477 L83.2295258,17.2092753 L85.4369746,20.1721516 L86.1700452,17.7070102 L91.4321512,19.2731693 C93.7972749,19.9779996 96.3424304,18.4400809 97.1166848,15.8384449 L98.9111194,9.81385124 C99.6853739,7.21221519 98.7122608,4.62705265 96.3471371,3.92222226" id="Fill-145" fill="#C8D4E5"></path>
                        <path d="M93.2250562,8.62999505 C93.1697523,8.29699505 93.2321163,7.91457456 93.3803777,7.72277597 C93.4580385,7.61334488 93.5309926,7.59804806 93.5156958,7.60628481 C93.5156958,7.60628481 93.5392293,7.59804806 93.5992399,7.72630601 C93.7004343,7.96281837 93.7369113,8.46996678 93.7722117,8.8841576 C93.7863318,9.11007986 93.7792717,9.33835548 93.7828018,9.56545442 C93.7604449,9.54545088 93.734558,9.5336841 93.7133777,9.51250389 C93.4545085,9.26657809 93.2780067,8.9606417 93.2250562,8.62999505 M89.8997629,10.6503519 C89.8597558,10.3220587 89.8468124,10.0161223 89.8785827,9.75372297 C89.9480067,9.8502106 90.0033106,9.97846855 90.0139007,10.1184933 C90.0291975,10.2808749 89.9774237,10.4679668 89.8997629,10.6503519 M95.8231622,10.3914827 C95.4513318,10.3149986 95.0900915,10.225571 94.7535615,10.1090799 C94.7723883,9.65252862 94.7688583,9.19715406 94.7288512,8.74648622 C94.667664,8.26404806 94.6817841,7.83809046 94.4523318,7.2462212 C94.3464307,6.9732318 94.0334343,6.60375477 93.6015933,6.5966947 C93.1556322,6.58728127 92.8355756,6.88498092 92.6590739,7.14032014 C91.9483601,8.28640495 92.4049113,9.58545795 93.1556322,10.2173343 C93.3450774,10.3820693 93.5451127,10.5138572 93.7533848,10.6185816 C93.7333813,10.9092212 93.7180845,11.2010375 93.6745473,11.4893237 C93.6074767,11.9223413 93.5262859,12.3530057 93.4180314,12.7789633 C93.3003636,13.2166876 93.1909325,13.6132283 93.0297276,13.8003201 C92.5837664,14.2427512 91.7471481,14.2109809 91.1752823,13.756783 C90.6140067,13.3637724 90.2833601,12.655412 90.1056816,11.883511 C90.1927558,11.7976134 90.2774767,11.7070092 90.3563141,11.6058148 C90.6928442,11.158677 90.9175898,10.5809279 90.8446357,9.95022827 C90.7975686,9.64429187 90.6857841,9.36306572 90.4881021,9.13008339 C90.2974802,8.89945442 89.979777,8.7147159 89.6314802,8.73942615 L89.6185367,8.74060283 C89.4761587,8.75119293 89.3549608,8.84415053 89.2902435,8.9712318 C88.9996039,9.55486431 89.0643212,10.12673 89.112565,10.5832813 C89.145512,10.8445039 89.1996392,11.1080799 89.2431763,11.3716558 C88.8219254,11.6046382 88.2888901,11.6681788 87.7911551,11.5740445 C87.444035,11.5105039 87.1263318,11.3693025 86.9121763,11.1575004 C86.7015509,10.957465 86.5709396,10.6491753 86.4756286,10.2644014 C86.2861834,9.47485018 86.2391163,8.61822827 86.3367806,7.78749329 L86.3356039,7.78631661 C86.3356039,7.78396325 86.3367806,7.78043322 86.3367806,7.77807986 C86.3720809,7.45096325 86.1555721,7.1697371 85.8555191,7.14738021 C85.5542894,7.12737668 85.2824767,7.37683251 85.248353,7.70277244 L85.248353,7.70865583 C85.2471763,7.71218587 85.248353,7.7157159 85.2471763,7.71806926 C85.1954025,8.30758516 84.8318088,8.92063463 84.3576074,9.21009753 C83.9092929,9.50897385 83.2997735,9.43248975 82.5784696,9.28540495 C82.2231127,9.2112742 82.0713212,9.16067703 81.8948194,8.94652155 C81.7183177,8.72530601 81.5335792,8.3817159 81.3912011,8.06871943 C81.1523353,7.53450742 81.0111339,6.94734488 80.9358265,6.34841555 C80.9864237,6.12366996 80.9475933,5.86950742 80.6981375,5.6306417 C80.5392859,5.47649682 80.2874767,5.50003039 80.1368618,5.68123887 C80.0603777,5.77066643 80.0262541,5.88362756 80.0286074,5.99305866 L80.0309608,6.06483604 C80.0321375,6.11660989 80.0462576,6.16720707 80.048611,6.2201576 C79.9085862,6.30134841 79.7250244,6.38959929 79.5602894,6.45313993 C79.1790456,6.60140141 78.7801516,6.69200565 78.3789042,6.71553922 C78.1906357,6.72612933 78.0376675,6.89910106 78.0376675,7.10266643 C78.0364908,7.29681837 78.1788689,7.44860989 78.3553707,7.45331661 C78.8248654,7.46037668 79.2978901,7.38977597 79.7591481,7.24739788 C79.8944661,7.20386078 80.0215473,7.15797032 80.150982,7.10501979 C80.2357028,7.59451802 80.3545473,8.07577951 80.5369325,8.52997739 C80.7016675,8.92181131 80.856989,9.27246148 81.1335085,9.65605866 C81.2711799,9.84197385 81.4700385,10.0349491 81.6983141,10.152617 C81.9207064,10.2714615 82.1360385,10.327942 82.3243071,10.3738325 C82.6843707,10.4573767 83.0573777,10.5538643 83.4951021,10.5738678 C83.9234131,10.6009314 84.4364449,10.485617 84.8518124,10.2243943 C85.0271375,10.1149633 85.182459,9.97846855 85.3307205,9.83609046 C85.3707276,10.0996664 85.3919078,10.3655958 85.4566251,10.6221117 C85.5789996,11.0963131 85.7978618,11.6411152 86.2238194,12.0141223 C86.6333035,12.3812459 87.1228018,12.553041 87.5970032,12.6236417 C88.1841657,12.7095392 88.8560491,12.6471753 89.4526251,12.3482989 C89.6809007,13.1343201 90.045671,13.9262247 90.7246145,14.4357265 C91.4541551,15.0075922 92.6296569,15.2805816 93.5686463,14.4780869 C93.8251622,14.2615781 93.9157664,13.9744686 94.038141,13.720306 C94.1605155,13.4508466 94.206406,13.2543413 94.2817134,13.0142989 C94.4193848,12.5518643 94.5299926,12.0835463 94.6053,11.6081682 C94.6406004,11.385776 94.6511905,11.158677 94.674724,10.9351081 C95.0171375,11.0139456 95.3571975,11.0704261 95.6784307,11.11867 C95.8619926,11.1469102 96.0420244,11.0068855 96.0773247,10.8044968 C96.1114484,10.6091682 95.9973106,10.4279597 95.8231622,10.3914827" id="Fill-147" fill="#FFFFFF"></path>
                    </g>
                </g>
            </g>
        </g>
    </g>
</svg>