<?xml version="1.0" encoding="UTF-8"?>
<svg width="211px" height="39px" viewBox="0 0 211 39" version="1.1" xmlns="http://www.w3.org/2000/svg" xmlns:xlink="http://www.w3.org/1999/xlink">
    <!-- Generator: Sketch 47.1 (45422) - http://www.bohemiancoding.com/sketch -->
    <title>logo</title>
    <desc>Created with Sketch.</desc>
    <defs>
        <polygon id="path-1" points="0 0.0308278986 90.9635796 0.0308278986 90.9635796 21.6601248 0 21.6601248"></polygon>
        <polyline id="path-3" points="0 0.0308278986 90.9635796 0.0308278986 90.9635796 21.6601248 0 21.6601248"></polyline>
    </defs>
    <g id="Page-1" stroke="none" stroke-width="1" fill="none" fill-rule="evenodd">
        <g id="logo">
            <g id="Logo" transform="translate(7.000000, 5.000000)">
                <rect id="Rectangle-2" fill="#B2BECD" x="101" y="2" width="1" height="24" rx="0.5"></rect>
                <path d="M116.16,19 L112.923,19 L112.923,10.329 L116.147,10.329 C118.864,10.329 120.684,12.123 120.684,14.658 C120.684,17.219 118.864,19 116.16,19 Z M116.147,17.661 C118.032,17.661 119.124,16.309 119.124,14.658 C119.124,12.994 118.084,11.668 116.16,11.668 L114.444,11.668 L114.444,17.661 L116.147,17.661 Z M125.026,19.156 C123.128,19.156 121.737,17.843 121.737,15.854 C121.737,14.034 123.063,12.565 124.922,12.565 C126.807,12.565 128.003,13.995 128.003,15.971 L128.003,16.309 L123.167,16.309 C123.271,17.245 123.973,18.038 125.156,18.038 C125.78,18.038 126.495,17.791 126.95,17.336 L127.574,18.233 C126.937,18.831 126.014,19.156 125.026,19.156 Z M126.69,15.334 C126.651,14.593 126.144,13.683 124.909,13.683 C123.752,13.683 123.206,14.58 123.154,15.334 L126.69,15.334 Z M131.513,19.156 C133.203,19.156 134.126,18.311 134.126,17.193 C134.126,14.697 130.33,15.529 130.33,14.424 C130.33,13.982 130.772,13.644 131.487,13.644 C132.28,13.644 132.969,13.982 133.346,14.398 L133.918,13.436 C133.359,12.942 132.553,12.565 131.487,12.565 C129.901,12.565 129.017,13.436 129.017,14.463 C129.017,16.881 132.813,15.997 132.813,17.232 C132.813,17.726 132.384,18.064 131.565,18.064 C130.759,18.064 129.888,17.648 129.446,17.193 L128.822,18.168 C129.472,18.805 130.434,19.156 131.513,19.156 Z M136.18,11.954 C136.648,11.954 137.025,11.577 137.025,11.109 C137.025,10.641 136.648,10.264 136.18,10.264 C135.712,10.264 135.335,10.641 135.335,11.109 C135.335,11.577 135.712,11.954 136.18,11.954 Z M136.856,19 L136.856,12.721 L135.491,12.721 L135.491,19 L136.856,19 Z M141.185,21.548 C140.119,21.548 139.326,21.314 138.546,20.612 L139.183,19.624 C139.703,20.209 140.353,20.43 141.185,20.43 C142.082,20.43 143.044,20.014 143.044,18.675 L143.044,17.96 C142.563,18.597 141.848,19.013 141.029,19.013 C139.43,19.013 138.247,17.856 138.247,15.789 C138.247,13.748 139.404,12.565 141.029,12.565 C141.822,12.565 142.537,12.916 143.044,13.592 L143.044,12.721 L144.409,12.721 L144.409,18.675 C144.409,20.937 142.719,21.548 141.185,21.548 Z M141.432,17.791 C142.069,17.791 142.732,17.414 143.044,16.959 L143.044,14.606 C142.732,14.151 142.069,13.774 141.432,13.774 C140.34,13.774 139.651,14.58 139.651,15.789 C139.651,16.998 140.34,17.791 141.432,17.791 Z M151.793,19 L151.793,14.58 C151.793,13.293 151.117,12.565 149.765,12.565 C148.777,12.565 147.958,13.072 147.542,13.566 L147.542,12.721 L146.177,12.721 L146.177,19 L147.542,19 L147.542,14.606 C147.867,14.19 148.465,13.774 149.154,13.774 C149.921,13.774 150.428,14.086 150.428,15.074 L150.428,19 L151.793,19 Z M159.073,19.156 C160.763,19.156 161.686,18.311 161.686,17.193 C161.686,14.697 157.89,15.529 157.89,14.424 C157.89,13.982 158.332,13.644 159.047,13.644 C159.84,13.644 160.529,13.982 160.906,14.398 L161.478,13.436 C160.919,12.942 160.113,12.565 159.047,12.565 C157.461,12.565 156.577,13.436 156.577,14.463 C156.577,16.881 160.373,15.997 160.373,17.232 C160.373,17.726 159.944,18.064 159.125,18.064 C158.319,18.064 157.448,17.648 157.006,17.193 L156.382,18.168 C157.032,18.805 157.994,19.156 159.073,19.156 Z M162.791,21.457 C162.973,21.509 163.363,21.548 163.558,21.548 C164.533,21.535 165.274,21.197 165.703,20.131 L168.732,12.721 L167.276,12.721 L165.443,17.427 L163.61,12.721 L162.141,12.721 L164.728,19.078 L164.416,19.793 C164.234,20.209 163.948,20.339 163.506,20.339 C163.35,20.339 163.129,20.3 162.986,20.235 L162.791,21.457 Z M171.748,19.156 C173.438,19.156 174.361,18.311 174.361,17.193 C174.361,14.697 170.565,15.529 170.565,14.424 C170.565,13.982 171.007,13.644 171.722,13.644 C172.515,13.644 173.204,13.982 173.581,14.398 L174.153,13.436 C173.594,12.942 172.788,12.565 171.722,12.565 C170.136,12.565 169.252,13.436 169.252,14.463 C169.252,16.881 173.048,15.997 173.048,17.232 C173.048,17.726 172.619,18.064 171.8,18.064 C170.994,18.064 170.123,17.648 169.681,17.193 L169.057,18.168 C169.707,18.805 170.669,19.156 171.748,19.156 Z M177.624,19.156 C178.248,19.156 178.651,18.974 178.898,18.753 L178.573,17.713 C178.469,17.83 178.235,17.947 177.975,17.947 C177.585,17.947 177.377,17.622 177.377,17.193 L177.377,13.904 L178.651,13.904 L178.651,12.721 L177.377,12.721 L177.377,11.005 L176.012,11.005 L176.012,12.721 L174.972,12.721 L174.972,13.904 L176.012,13.904 L176.012,17.531 C176.012,18.584 176.558,19.156 177.624,19.156 Z M182.785,19.156 C180.887,19.156 179.496,17.843 179.496,15.854 C179.496,14.034 180.822,12.565 182.681,12.565 C184.566,12.565 185.762,13.995 185.762,15.971 L185.762,16.309 L180.926,16.309 C181.03,17.245 181.732,18.038 182.915,18.038 C183.539,18.038 184.254,17.791 184.709,17.336 L185.333,18.233 C184.696,18.831 183.773,19.156 182.785,19.156 Z M184.449,15.334 C184.41,14.593 183.903,13.683 182.668,13.683 C181.511,13.683 180.965,14.58 180.913,15.334 L184.449,15.334 Z M196.188,19 L196.188,14.463 C196.188,13.189 195.525,12.565 194.381,12.565 C193.432,12.565 192.6,13.15 192.249,13.709 C192.041,13.033 191.469,12.565 190.533,12.565 C189.571,12.565 188.752,13.189 188.479,13.566 L188.479,12.721 L187.114,12.721 L187.114,19 L188.479,19 L188.479,14.606 C188.765,14.203 189.324,13.774 189.935,13.774 C190.676,13.774 190.962,14.229 190.962,14.905 L190.962,19 L192.327,19 L192.327,14.606 C192.6,14.19 193.172,13.774 193.783,13.774 C194.524,13.774 194.823,14.229 194.823,14.905 L194.823,19 L196.188,19 Z" id="Design-system" fill="#8C93A0"></path>
                <g id="Page-1">
                    <g id="Group-3">
                        <mask id="mask-2" fill="white">
                            <use xlink:href="#path-1"></use>
                        </mask>
                        <g id="Clip-2"></g>
                        <path d="M2.4553065,17.6687783 C0.332211211,15.0939436 -0.615637444,11.5365451 0.423211211,7.79276888 C1.40044103,4.27073184 4.18022578,1.48342639 7.73667309,0.482527134 C15.1611305,-1.60691932 21.9026798,3.84176063 21.9026798,10.8454361 C21.9026798,16.703845 17.1854724,21.4736059 11.2974052,21.6541406 L11.3009758,21.6600845 L5.69855874,21.6600845 L1.19467085,21.6600845 C0.707841256,21.6600845 0.404541928,21.1385288 0.649997085,20.7232589 L2.4553065,17.6687783 Z" id="Fill-1" fill="#1BC74E" mask="url(#mask-2)"></path>
                    </g>
                    <path d="M24.6795775,12.4338083 C24.6795775,11.726177 25.2370035,11.1757076 25.9535775,11.1757076 C26.6703555,11.1757076 27.2275775,11.726177 27.2275775,12.4338083 L27.2275775,20.4019133 C27.2275775,21.1095446 26.6703555,21.660014 25.9535775,21.660014 C25.2370035,21.660014 24.6795775,21.1095446 24.6795775,20.4019133 L24.6795775,12.4338083 Z M25.9802041,6.77225462 C26.8561302,6.77225462 27.5727041,7.50618024 27.5727041,8.34488042 C27.5727041,9.18368135 26.8561302,9.8652197 25.9802041,9.8652197 C25.1574295,9.8652197 24.4407535,9.18368135 24.4407535,8.34488042 C24.4407535,7.50618024 25.1574295,6.77225462 25.9802041,6.77225462 L25.9802041,6.77225462 Z" id="Fill-4" fill="#26282D"></path>
                    <path d="M33.5977407,16.1558136 L38.348716,16.1558136 L35.959966,11.8047479 L33.5977407,16.1558136 Z M36.67654,7.24403229 L43.2325187,19.8514339 C43.3120927,20.0348901 43.3652441,20.1922534 43.3652441,20.3757096 C43.3652441,21.0833409 42.8343427,21.6600039 42.1176667,21.6600039 C41.5868674,21.6600039 41.215318,21.4241604 40.976392,20.978667 L39.543142,18.3312961 L32.4033147,18.3312961 L30.943438,20.978667 C30.704614,21.4241604 30.3329627,21.6600039 29.8021633,21.6600039 C29.0854873,21.6600039 28.554688,21.0833409 28.554688,20.3757096 C28.554688,20.1922534 28.6077373,20.0348901 28.6874133,19.8514339 L35.24329,7.24403229 C35.3494907,6.95570076 35.6148393,6.77224455 35.959966,6.77224455 C36.3049907,6.77224455 36.5704414,6.95570076 36.67654,7.24403229 L36.67654,7.24403229 Z" id="Fill-6" fill="#26282D"></path>
                    <path d="M60.2196071,21.2930512 L55.6543044,12.9580337 C55.5746284,12.8269647 55.5482057,12.6435085 55.5482057,12.4338586 C55.5482057,11.7261267 56.1056317,11.1756572 56.8222057,11.1756572 C57.353005,11.1756572 57.7246564,11.3854079 57.9634804,11.831002 L60.7770331,17.0731551 L63.5903817,11.831002 C63.8293077,11.3854079 64.2008571,11.1756572 64.7318604,11.1756572 C65.4484344,11.1756572 66.0058604,11.7261267 66.0058604,12.4338586 C66.0058604,12.6435085 65.9791317,12.8269647 65.8995577,12.9580337 L61.3344591,21.2930512 C61.2546811,21.5289954 61.0690084,21.6600644 60.7770331,21.6600644 C60.4850577,21.6600644 60.2991811,21.5289954 60.2196071,21.2930512" id="Fill-8" fill="#26282D"></path>
                    <path d="M67.3364396,12.4338083 C67.3364396,11.726177 67.8938656,11.1757076 68.6104396,11.1757076 C69.3271156,11.1757076 69.8844396,11.726177 69.8844396,12.4338083 L69.8844396,20.4019133 C69.8844396,21.1095446 69.3271156,21.660014 68.6104396,21.660014 C67.8938656,21.660014 67.3364396,21.1095446 67.3364396,20.4019133 L67.3364396,12.4338083 Z M68.6369642,6.77225462 C69.5128902,6.77225462 70.2295663,7.50618024 70.2295663,8.34488042 C70.2295663,9.18368135 69.5128902,9.8652197 68.6369642,9.8652197 C67.8142916,9.8652197 67.0976156,9.18368135 67.0976156,8.34488042 C67.0976156,7.50618024 67.8142916,6.77225462 68.6369642,6.77225462 L68.6369642,6.77225462 Z" id="Fill-10" fill="#26282D"></path>
                    <path d="M71.8218928,21.6600543 C71.5830688,21.6600543 71.3442448,21.3980171 71.3442448,21.0833912 C71.3442448,21.0047096 71.3707695,20.952423 71.3707695,20.8736406 L76.0421709,13.4822993 L72.3527942,13.4822993 C71.7157942,13.4822993 71.2115195,12.984318 71.2115195,12.3551669 C71.2115195,11.6999229 71.7157942,11.1756472 72.3527942,11.1756472 L79.4659948,11.1756472 C79.7050229,11.1756472 79.9438469,11.4377851 79.9438469,11.752411 C79.9438469,11.8309919 79.9173222,11.8833792 79.9173222,11.9620608 L75.2192942,19.4320838 L78.9352975,19.4320838 C79.5722975,19.4320838 80.0501496,19.9039723 80.0501496,20.5330226 C80.0501496,21.1620729 79.5722975,21.6600543 78.9352975,21.6600543 L71.8218928,21.6600543 Z" id="Fill-12" fill="#26282D"></path>
                    <g id="Group-16">
                        <mask id="mask-4" fill="white">
                            <use xlink:href="#path-3"></use>
                        </mask>
                        <g id="Clip-15"></g>
                        <path d="M83.0436619,15.2453025 L88.3069713,15.2453025 C87.8421776,14.1371101 86.8258749,13.5689096 85.6798054,13.5689096 C84.5100677,13.5689096 83.5000901,14.1371101 83.0436619,15.2453025 M85.6734803,21.608342 C82.7635206,21.608342 80.3959904,19.2686455 80.3959904,16.3928862 C80.3959904,13.5161194 82.7662751,11.1757177 85.6798054,11.1757177 C87.0855105,11.1757177 88.4137841,11.7285042 89.419783,12.7321236 C90.415376,13.7252655 90.9636204,15.0713163 90.9636204,16.4369116 C90.9636204,17.0882265 90.4288424,17.6631769 89.7693984,17.6631769 L83.0408054,17.6631769 C83.4950913,18.4691351 84.5042527,19.2966526 85.6734803,19.2966526 C86.3812807,19.2966526 87.0646989,19.013459 87.5976406,18.5415706 C88.0887549,18.1067561 88.8436877,18.1357706 89.2839971,18.6207559 C89.7242045,19.1057412 89.6829892,19.8455101 89.1918749,20.2802237 C88.220052,21.1403825 86.9705363,21.608342 85.6734803,21.608342" id="Fill-14" fill="#26282D" mask="url(#mask-4)"></path>
                    </g>
                    <path d="M48.8268661,19.1524364 C47.2865993,19.1524364 46.033411,17.9149885 46.033411,16.3938432 C46.033411,14.872698 47.2865993,13.6352501 48.8268661,13.6352501 C50.367133,13.6352501 51.6203213,14.872698 51.6203213,16.3938432 C51.6203213,17.9149885 50.367133,19.1524364 48.8268661,19.1524364 M52.9689984,6.77221432 C52.2524244,6.77221432 51.7448852,7.37154494 51.7448852,8.07917618 L51.7448852,11.9936141 C50.9287417,11.4826366 49.9133572,11.1856411 48.8757327,11.1856411 C45.9630186,11.1856411 43.5772271,13.5173787 43.5772271,16.3938432 C43.5772271,19.2703078 45.9262922,21.6021462 48.8391083,21.6021462 C49.8984626,21.6021462 50.8779368,21.2924568 51.7043841,20.7615319 C51.8569009,21.2874195 52.3338348,21.6600744 52.9231924,21.6600744 C53.6397664,21.6600744 54.1932137,21.109605 54.1932137,20.4019738 L54.1932137,8.03041571 C54.1932137,7.32268373 53.6856744,6.77221432 52.9689984,6.77221432" id="Fill-17" fill="#26282D"></path>
                </g>
            </g>
        </g>
    </g>
</svg>