<?xml version="1.0" encoding="UTF-8"?>
<svg width="413px" height="252px" viewBox="0 0 413 252" version="1.1" xmlns="http://www.w3.org/2000/svg" xmlns:xlink="http://www.w3.org/1999/xlink">
    <!-- Generator: Sketch 47.1 (45422) - http://www.bohemiancoding.com/sketch -->
    <title>illu5</title>
    <desc>Created with Sketch.</desc>
    <defs>
        <polygon id="path-1" points="0.9433286 0.96 2.92980286 0.96 2.92980286 12.9994966 0.9433286 12.9994966 0.9433286 0.96"></polygon>
        <polygon id="path-3" points="0.9433286 0.96 2.92980286 0.96 2.92980286 12.9994966 0.9433286 12.9994966 0.9433286 0.96"></polygon>
    </defs>
    <g id="Kilt---landing-page" stroke="none" stroke-width="1" fill="none" fill-rule="evenodd">
        <g id="Kilt---Landing---Green" transform="translate(-412.000000, -2019.000000)">
            <g id="illu5" transform="translate(360.000000, 2019.000000)">
                <path d="M463.9817,172.157 C462.8197,169.022 461.0557,163.783 456.9127,158.618 C445.8347,144.808 422.3887,148.589 435.9837,138.161 C449.5777,127.733 450.4837,80.376 422.0307,66.561 C393.5787,52.747 347.5777,72.088 345.2907,56.333 C343.0027,40.578 302.0677,2.952 226.6917,0.076 C151.3157,-2.8 209.8097,77.312 129.0217,84.179 C48.2347,91.048 65.6777,149.816 72.1967,173.915 C79.2297,199.915 120.1967,260.915 172.5237,236.915 C186.4277,230.538 192.1367,213.608 216.3187,230.915 C300.1557,290.915 476.4947,205.915 463.9817,172.157" id="Fill-1" fill="#FFFFFF" opacity="0.300000012"></path>
                <g id="Page-1" transform="translate(52.000000, 33.000000)">
                    <g id="Group-45" transform="translate(0.000000, 61.239000)">
                        <path d="M184.3002,121.8975 C184.3002,121.8975 63.7472,124.8375 21.1132,121.8975 C18.6832,121.7305 16.7012,119.9225 16.7012,117.4865 C16.7012,117.4865 14.9052,40.5005 16.6542,9.7555 C16.9052,9.5005 187.9532,9.5005 188.7112,9.7555 C188.9532,41.5005 188.7112,117.4865 188.7112,117.4865 C188.7112,119.9225 186.7372,121.8975 184.3002,121.8975" id="Fill-1" fill="#FFFFFF"></path>
                        <path d="M188.6537,10.2471 L16.6537,10.2471 L16.6537,5.7981 C16.6537,3.3411 18.6297,1.4321 21.0637,1.3501 C65.1667,-0.1339 184.2437,1.3501 184.2437,1.3501 C186.6787,1.3501 188.6537,3.3411 188.6537,5.7981 L188.6537,10.2471 Z" id="Fill-3" fill="#4BDF75"></path>
                        <path d="M24.5229,5.7539 C24.5229,6.5659 23.8649,7.2249 23.0519,7.2249 C22.2409,7.2249 21.5829,6.5659 21.5829,5.7539 C21.5829,4.9419 22.2409,4.2839 23.0519,4.2839 C23.8649,4.2839 24.5229,4.9419 24.5229,5.7539" id="Fill-5" fill="#FFFFFF"></path>
                        <path d="M29.4232,5.7539 C29.4232,6.5659 28.7652,7.2249 27.9532,7.2249 C27.1412,7.2249 26.4832,6.5659 26.4832,5.7539 C26.4832,4.9419 27.1412,4.2839 27.9532,4.2839 C28.7652,4.2839 29.4232,4.9419 29.4232,5.7539" id="Fill-7" fill="#FFED72"></path>
                        <path d="M34.3236,5.7539 C34.3236,6.5659 33.6656,7.2249 32.8536,7.2249 C32.0416,7.2249 31.3836,6.5659 31.3836,5.7539 C31.3836,4.9419 32.0416,4.2839 32.8536,4.2839 C33.6656,4.2839 34.3236,4.9419 34.3236,5.7539" id="Fill-9" fill="#67B1FF"></path>
                        <path d="M151.5092,128.8018 L154.5722,128.6318 C155.5932,128.5788 156.6112,128.5328 157.6292,128.5408 C158.6492,128.5648 159.6622,128.4298 160.6712,128.2818 C161.6842,128.1908 162.7012,128.1718 163.7372,128.2668 L163.7862,128.7708 C162.7852,129.0638 161.7662,129.2198 160.7382,129.2688 C159.7082,129.2618 158.6792,129.2328 157.6552,129.3248 C156.6302,129.4028 155.6032,129.3908 154.5782,129.3538 C153.5542,129.3138 152.5312,129.2658 151.5092,129.1978 L151.5092,128.8018 Z" id="Fill-11" fill="#C8D4E5"></path>
                        <path d="M154.4496,125.8613 L157.5126,125.6913 C158.5336,125.6383 159.5516,125.5923 160.5696,125.6003 C161.5896,125.6243 162.6026,125.4893 163.6116,125.3413 C164.6246,125.2503 165.6416,125.2313 166.6776,125.3263 L166.7266,125.8303 C165.7256,126.1233 164.7066,126.2793 163.6786,126.3283 C162.6486,126.3213 161.6196,126.2923 160.5956,126.3843 C159.5706,126.4623 158.5436,126.4513 157.5186,126.4133 C156.4946,126.3733 155.4706,126.3263 154.4496,126.2573 L154.4496,125.8613 Z" id="Fill-13" fill="#C8D4E5"></path>
                        <path d="M184.3002,121.8975 C184.3002,121.8975 156.2662,122.5825 122.4542,122.9595 C120.9532,91.5005 120.9532,49.5005 121.9532,10.5005 C157.3252,10.5165 188.3922,9.6475 188.7112,9.7555 C188.9532,41.5005 188.7112,117.4865 188.7112,117.4865 C188.7112,119.9225 186.7372,121.8975 184.3002,121.8975" id="Fill-15" fill="#3F72AC"></path>
                        <path d="M26.766,22.7236 C31.052,22.5196 35.338,22.3796 39.624,22.2366 C43.91,22.0996 48.196,22.0136 52.482,22.1416 C54.624,22.1916 56.767,22.2226 58.911,22.1626 C61.053,22.0926 63.196,21.9106 65.339,21.8336 C69.625,21.7776 73.911,21.9616 78.197,22.5596 C78.616,22.6176 78.908,23.0046 78.85,23.4236 C78.801,23.7706 78.527,24.0306 78.197,24.0776 C73.911,24.6736 69.625,24.8586 65.339,24.8016 C63.196,24.7256 61.053,24.5426 58.911,24.4726 C56.767,24.4136 54.624,24.4446 52.482,24.4946 C48.196,24.6216 43.91,24.5356 39.624,24.3996 C35.338,24.2566 31.052,24.1166 26.766,23.9116 C26.438,23.8966 26.185,23.6186 26.201,23.2896 C26.215,22.9816 26.465,22.7396 26.766,22.7236" id="Fill-17" fill="#8BAAC2"></path>
                        <path d="M26.766,34.7236 C29.537,34.5196 32.307,34.3796 35.077,34.2366 C37.847,34.0856 40.617,34.0146 43.387,34.1416 C44.772,34.1936 46.157,34.2306 47.542,34.1626 C48.927,34.1026 50.312,33.8946 51.698,33.8336 C54.467,33.7776 57.238,33.9616 60.007,34.5596 C60.426,34.6496 60.693,35.0626 60.603,35.4816 C60.537,35.7886 60.296,36.0136 60.007,36.0776 C57.238,36.6736 54.467,36.8586 51.698,36.8016 C50.312,36.7426 48.927,36.5336 47.542,36.4726 C46.157,36.4056 44.772,36.4436 43.387,36.4946 C40.617,36.6206 37.847,36.5496 35.077,36.3996 C32.307,36.2566 29.537,36.1166 26.766,35.9116 C26.438,35.8876 26.192,35.6026 26.216,35.2746 C26.239,34.9756 26.477,34.7446 26.766,34.7236" id="Fill-19" fill="#A2BBCE"></path>
                        <path d="M26.766,43.7236 C33.157,43.5196 39.547,43.3796 45.938,43.2366 C52.328,43.0996 58.719,43.0136 65.11,43.1416 C68.305,43.1866 71.5,43.2346 74.696,43.1516 C77.891,43.1046 81.086,42.9056 84.282,42.8336 C90.672,42.7776 97.063,42.9616 103.454,43.5596 C103.872,43.5986 104.18,43.9696 104.141,44.3886 C104.107,44.7596 103.811,45.0436 103.454,45.0776 C97.063,45.6736 90.672,45.8586 84.282,45.8016 C81.086,45.7316 77.891,45.5316 74.696,45.4856 C71.5,45.4016 68.305,45.4496 65.11,45.4946 C58.719,45.6216 52.328,45.5356 45.938,45.3996 C39.547,45.2566 33.157,45.1166 26.766,44.9116 C26.438,44.9016 26.181,44.6266 26.192,44.2986 C26.202,43.9846 26.456,43.7346 26.766,43.7236" id="Fill-21" fill="#A2BBCE"></path>
                        <path d="M26.766,82.7236 C33.157,82.5196 39.547,82.3796 45.938,82.2366 C52.328,82.0996 58.719,82.0136 65.11,82.1416 C68.305,82.1866 71.5,82.2346 74.696,82.1516 C77.891,82.1046 81.086,81.9056 84.282,81.8336 C90.672,81.7776 97.063,81.9616 103.454,82.5596 C103.872,82.5986 104.18,82.9696 104.141,83.3886 C104.107,83.7596 103.811,84.0436 103.454,84.0776 C97.063,84.6736 90.672,84.8586 84.282,84.8016 C81.086,84.7316 77.891,84.5316 74.696,84.4856 C71.5,84.4016 68.305,84.4496 65.11,84.4946 C58.719,84.6216 52.328,84.5356 45.938,84.3996 C39.547,84.2566 33.157,84.1166 26.766,83.9116 C26.438,83.9016 26.181,83.6266 26.192,83.2986 C26.202,82.9846 26.456,82.7346 26.766,82.7236" id="Fill-23" fill="#A2BBCE"></path>
                        <path d="M26.766,53.7236 C33.157,53.5196 39.547,53.3796 45.938,53.2366 C52.328,53.0996 58.719,53.0136 65.11,53.1416 C68.305,53.1866 71.5,53.2346 74.696,53.1516 C77.891,53.1046 81.086,52.9056 84.282,52.8336 C90.672,52.7776 97.063,52.9616 103.454,53.5596 C103.872,53.5986 104.18,53.9696 104.141,54.3886 C104.107,54.7596 103.811,55.0436 103.454,55.0776 C97.063,55.6736 90.672,55.8586 84.282,55.8016 C81.086,55.7316 77.891,55.5316 74.696,55.4856 C71.5,55.4016 68.305,55.4496 65.11,55.4946 C58.719,55.6216 52.328,55.5356 45.938,55.3996 C39.547,55.2566 33.157,55.1166 26.766,54.9116 C26.438,54.9016 26.181,54.6266 26.192,54.2986 C26.202,53.9846 26.456,53.7346 26.766,53.7236" id="Fill-25" fill="#A2BBCE"></path>
                        <path d="M26.766,92.7236 C31.548,92.5196 36.329,92.3796 41.111,92.2366 C45.893,92.0996 50.674,92.0136 55.455,92.1416 C57.846,92.1916 60.237,92.2226 62.627,92.1626 C65.018,92.0926 67.41,91.9106 69.8,91.8336 C74.581,91.7776 79.363,91.9616 84.145,92.5596 C84.564,92.6116 84.861,92.9946 84.809,93.4126 C84.764,93.7676 84.484,94.0346 84.145,94.0776 C79.363,94.6736 74.581,94.8586 69.8,94.8016 C67.41,94.7256 65.018,94.5426 62.627,94.4726 C60.237,94.4136 57.846,94.4446 55.455,94.4946 C50.674,94.6216 45.893,94.5356 41.111,94.3996 C36.329,94.2566 31.548,94.1166 26.766,93.9116 C26.438,93.8986 26.184,93.6206 26.198,93.2926 C26.211,92.9826 26.462,92.7386 26.766,92.7236" id="Fill-27" fill="#A2BBCE"></path>
                        <path d="M26.766,64.7236 C33.157,64.5196 39.547,64.3796 45.938,64.2366 C52.328,64.0996 58.719,64.0136 65.11,64.1416 C68.305,64.1866 71.5,64.2346 74.696,64.1516 C77.891,64.1046 81.086,63.9056 84.282,63.8336 C90.672,63.7776 97.063,63.9616 103.454,64.5596 C103.872,64.5986 104.18,64.9696 104.141,65.3886 C104.107,65.7596 103.811,66.0436 103.454,66.0776 C97.063,66.6736 90.672,66.8586 84.282,66.8016 C81.086,66.7316 77.891,66.5316 74.696,66.4856 C71.5,66.4016 68.305,66.4496 65.11,66.4946 C58.719,66.6216 52.328,66.5356 45.938,66.3996 C39.547,66.2566 33.157,66.1166 26.766,65.9116 C26.438,65.9016 26.181,65.6266 26.192,65.2986 C26.202,64.9846 26.456,64.7346 26.766,64.7236" id="Fill-29" fill="#A2BBCE"></path>
                        <path d="M44.4535,103.7236 C49.3705,103.5196 54.2865,103.3796 59.2035,103.2366 C64.1205,103.0996 69.0365,103.0136 73.9535,103.1416 C76.4115,103.1916 78.8705,103.2226 81.3285,103.1626 C83.7865,103.0926 86.2455,102.9106 88.7035,102.8336 C93.6205,102.7776 98.5365,102.9616 103.4535,103.5596 C103.8725,103.6106 104.1715,103.9916 104.1205,104.4106 C104.0765,104.7666 103.7945,105.0356 103.4535,105.0776 C98.5365,105.6736 93.6205,105.8586 88.7035,105.8016 C86.2455,105.7256 83.7865,105.5426 81.3285,105.4726 C78.8705,105.4136 76.4115,105.4446 73.9535,105.4946 C69.0365,105.6216 64.1205,105.5356 59.2035,105.3996 C54.2865,105.2566 49.3705,105.1166 44.4535,104.9116 C44.1255,104.8986 43.8705,104.6206 43.8845,104.2926 C43.8965,103.9826 44.1485,103.7376 44.4535,103.7236" id="Fill-31" fill="#A2BBCE"></path>
                        <path d="M128.766,21.7236 C131.491,21.5196 134.214,21.3796 136.938,21.2366 C139.662,21.0856 142.386,21.0146 145.11,21.1416 C146.472,21.1936 147.834,21.2306 149.196,21.1626 C150.558,21.1026 151.92,20.8946 153.282,20.8336 C156.005,20.7776 158.73,20.9616 161.454,21.5596 C161.872,21.6516 162.138,22.0656 162.046,22.4846 C161.979,22.7896 161.74,23.0136 161.454,23.0776 C158.73,23.6736 156.005,23.8586 153.282,23.8016 C151.92,23.7426 150.558,23.5336 149.196,23.4726 C147.834,23.4056 146.472,23.4436 145.11,23.4946 C142.386,23.6206 139.662,23.5496 136.938,23.3996 C134.214,23.2566 131.491,23.1166 128.766,22.9116 C128.438,22.8876 128.193,22.6016 128.217,22.2736 C128.24,21.9756 128.477,21.7446 128.766,21.7236" id="Fill-33" fill="#FFFFFF"></path>
                        <path d="M128.766,53.7236 C129.657,53.5116 130.547,53.3716 131.438,53.2366 C132.329,53.0936 133.219,53.0036 134.11,53.1416 C134.555,53.1936 135,53.2296 135.446,53.1636 C135.891,53.1006 136.336,52.8956 136.782,52.8326 C137.672,52.7696 138.563,52.9636 139.454,53.5596 C139.872,53.8396 139.985,54.4066 139.705,54.8256 C139.637,54.9266 139.549,55.0126 139.454,55.0776 C138.563,55.6716 137.672,55.8666 136.782,55.8026 C136.336,55.7406 135.891,55.5356 135.446,55.4716 C135,55.4066 134.555,55.4426 134.11,55.4946 C133.219,55.6326 132.329,55.5426 131.438,55.3996 C130.547,55.2636 129.657,55.1246 128.766,54.9116 C128.438,54.8336 128.236,54.5036 128.314,54.1756 C128.37,53.9456 128.55,53.7766 128.766,53.7236" id="Fill-35" fill="#FFFFFF"></path>
                        <path d="M128.766,44.7236 C130.157,44.5196 131.547,44.3796 132.938,44.2366 C134.328,44.0936 135.719,44.0036 137.11,44.1416 C137.805,44.1936 138.5,44.2306 139.196,44.1626 C139.891,44.1026 140.586,43.8946 141.282,43.8336 C142.672,43.7776 144.063,43.9616 145.453,44.5596 C145.872,44.7396 146.067,45.2246 145.886,45.6436 C145.8,45.8456 145.64,45.9956 145.453,46.0776 C144.063,46.6736 142.672,46.8586 141.282,46.8016 C140.586,46.7426 139.891,46.5336 139.196,46.4726 C138.5,46.4056 137.805,46.4436 137.11,46.4946 C135.719,46.6326 134.328,46.5426 132.938,46.3996 C131.547,46.2566 130.157,46.1166 128.766,45.9116 C128.438,45.8646 128.211,45.5586 128.26,45.2306 C128.299,44.9616 128.511,44.7616 128.766,44.7236" id="Fill-37" fill="#FFFFFF"></path>
                        <path d="M128.766,30.7236 C131.127,30.5196 133.488,30.3796 135.848,30.2366 C138.209,30.0856 140.57,30.0146 142.93,30.1416 C144.111,30.1936 145.291,30.2306 146.471,30.1626 C147.652,30.1026 148.831,29.8946 150.012,29.8336 C152.372,29.7776 154.733,29.9616 157.094,30.5596 C157.513,30.6646 157.767,31.0906 157.661,31.5096 C157.588,31.7976 157.363,32.0076 157.094,32.0776 C154.733,32.6736 152.372,32.8586 150.012,32.8016 C148.831,32.7426 147.652,32.5336 146.471,32.4726 C145.291,32.4056 144.111,32.4436 142.93,32.4946 C140.57,32.6206 138.209,32.5496 135.848,32.3996 C133.488,32.2566 131.127,32.1166 128.766,31.9116 C128.438,31.8836 128.196,31.5946 128.224,31.2666 C128.249,30.9736 128.483,30.7476 128.766,30.7236" id="Fill-39" fill="#FFFFFF"></path>
                        <path d="M128.766,62.7236 C130.21,62.5196 131.655,62.3796 133.098,62.2366 C134.542,62.0936 135.987,62.0036 137.43,62.1416 C138.153,62.1936 138.874,62.2306 139.596,62.1626 C140.318,62.1026 141.04,61.8946 141.762,61.8336 C143.206,61.7776 144.65,61.9616 146.094,62.5596 C146.513,62.7326 146.712,63.2126 146.539,63.6316 C146.453,63.8406 146.287,63.9956 146.094,64.0776 C144.65,64.6736 143.206,64.8586 141.762,64.8016 C141.04,64.7426 140.318,64.5336 139.596,64.4726 C138.874,64.4056 138.153,64.4436 137.43,64.4946 C135.987,64.6326 134.542,64.5426 133.098,64.3996 C131.655,64.2566 130.21,64.1166 128.766,63.9116 C128.438,63.8656 128.21,63.5626 128.256,63.2346 C128.294,62.9626 128.509,62.7606 128.766,62.7236" id="Fill-41" fill="#FFFFFF"></path>
                        <path d="M17.1791,130.8496 C19.4531,132.9996 23.0981,136.9556 23.0981,136.9556 C23.0981,136.9556 27.4531,121.9996 27.3761,114.2226 C20.4531,114.9996 5.3421,118.6366 5.3421,118.6366 C5.3421,118.6366 9.4531,122.9996 11.2611,124.7436 C7.4531,127.9996 2.4531,131.9996 0.4531,135.8936 C1.4531,137.9996 4.4531,140.9996 6.3721,141.9996 C9.4531,139.9996 14.4531,133.9996 17.1791,130.8496" id="Fill-43" fill="#445A6C"></path>
                    </g>
                    <g id="Group-52" transform="translate(25.000000, 161.239000)" fill="#FFED72">
                        <path d="M5.9525,0.6377 C5.9015,0.6177 5.8505,0.6017 5.7965,0.5967 C5.6585,0.5817 5.5185,0.6257 5.4165,0.7187 C5.3845,0.7437 5.3595,0.7767 5.3355,0.8087 C3.6225,3.3557 2.2715,6.0137 0.9075,8.6037 C0.8495,8.7127 0.8275,8.8337 0.8555,8.9587 C0.9135,9.2057 1.1585,9.3737 1.4115,9.3387 C1.4655,9.3297 1.5165,9.3137 1.5655,9.2877 C1.6405,9.2497 1.6985,9.1937 1.7485,9.1257 C3.7555,6.7957 5.2055,4.1737 6.1765,1.3327 C6.2005,1.2837 6.2235,1.2357 6.2315,1.1817 C6.2575,1.0447 6.2235,0.9027 6.1415,0.7917 C6.1085,0.7477 6.0675,0.7127 6.0235,0.6807 C5.9885,0.6577 5.9885,0.6577 5.9525,0.6377" id="Fill-46"></path>
                        <path d="M11.7797,5.0527 C11.7367,5.0177 11.6927,4.9877 11.6407,4.9677 C11.5137,4.9137 11.3677,4.9167 11.2437,4.9747 C11.2057,4.9927 11.1727,5.0157 11.1387,5.0397 C8.7717,6.9937 6.7217,9.1587 4.6777,11.2517 C4.5917,11.3437 4.5347,11.4517 4.5267,11.5797 C4.5117,11.8337 4.6987,12.0637 4.9517,12.0997 C5.0057,12.1087 5.0607,12.1077 5.1147,12.0957 C5.1967,12.0807 5.2687,12.0437 5.3357,11.9947 C7.9217,10.3297 10.0577,8.2297 11.7957,5.7827 C11.8337,5.7407 11.8677,5.6997 11.8927,5.6507 C11.9567,5.5287 11.9647,5.3817 11.9177,5.2537 C11.8987,5.2007 11.8687,5.1557 11.8367,5.1117 C11.8077,5.0807 11.8077,5.0807 11.7797,5.0527" id="Fill-48"></path>
                        <path d="M16.1098,10.9414 C16.0798,10.8954 16.0448,10.8544 16.0028,10.8184 C15.8948,10.7334 15.7548,10.6944 15.6178,10.7144 C15.5768,10.7204 15.5388,10.7334 15.5008,10.7474 C12.6738,11.9474 10.0928,13.4404 7.5388,14.8644 C7.4298,14.9274 7.3448,15.0174 7.3008,15.1364 C7.2138,15.3764 7.3288,15.6504 7.5588,15.7564 C7.6078,15.7784 7.6628,15.7934 7.7158,15.7974 C7.7998,15.8074 7.8798,15.7924 7.9578,15.7634 C10.9128,14.9034 13.5568,13.4964 15.9188,11.6454 C15.9658,11.6184 16.0098,11.5874 16.0488,11.5474 C16.1438,11.4484 16.1938,11.3104 16.1848,11.1724 C16.1808,11.1174 16.1678,11.0664 16.1478,11.0144 C16.1308,10.9764 16.1308,10.9774 16.1098,10.9414" id="Fill-50"></path>
                    </g>
                    <g id="Group-67" transform="translate(231.000000, 17.239000)">
                        <path d="M173.6537,10.2471 L1.6537,10.2471 L1.6537,5.7981 C1.6537,3.3411 3.6297,1.4321 6.0637,1.3501 C50.1667,-0.1339 169.2437,1.3501 169.2437,1.3501 C171.6787,1.3501 173.6537,3.3411 173.6537,5.7981 L173.6537,10.2471 Z" id="Fill-53" fill="#4BDF75"></path>
                        <path d="M169.3002,121.8975 C169.3002,121.8975 48.7472,124.8375 6.1132,121.8975 C3.6832,121.7305 1.7012,119.9225 1.7012,117.4865 C1.7012,117.4865 -0.0948,40.5005 1.6542,9.7555 C1.9052,9.5005 172.9532,9.5005 173.7112,9.7555 C173.9532,41.5005 173.7112,117.4865 173.7112,117.4865 C173.7112,119.9225 171.7372,121.8975 169.3002,121.8975" id="Fill-55" fill="#3F72AC"></path>
                        <path d="M10.5229,5.7539 C10.5229,6.5659 9.8649,7.2249 9.0519,7.2249 C8.2409,7.2249 7.5829,6.5659 7.5829,5.7539 C7.5829,4.9419 8.2409,4.2839 9.0519,4.2839 C9.8649,4.2839 10.5229,4.9419 10.5229,5.7539" id="Fill-57" fill="#FFFFFF"></path>
                        <path d="M15.4232,5.7539 C15.4232,6.5659 14.7652,7.2249 13.9532,7.2249 C13.1412,7.2249 12.4832,6.5659 12.4832,5.7539 C12.4832,4.9419 13.1412,4.2839 13.9532,4.2839 C14.7652,4.2839 15.4232,4.9419 15.4232,5.7539" id="Fill-59" fill="#FFED72"></path>
                        <path d="M20.3236,5.7539 C20.3236,6.5659 19.6656,7.2249 18.8536,7.2249 C18.0416,7.2249 17.3836,6.5659 17.3836,5.7539 C17.3836,4.9419 18.0416,4.2839 18.8536,4.2839 C19.6656,4.2839 20.3236,4.9419 20.3236,5.7539" id="Fill-61" fill="#C8D4E5"></path>
                        <path d="M136.5092,128.8018 L139.5732,128.6348 C140.5942,128.5828 141.6112,128.5388 142.6292,128.5468 C143.6492,128.5718 144.6622,128.4348 145.6702,128.2848 C146.6832,128.1928 147.7012,128.1718 148.7372,128.2668 L148.7862,128.7708 C147.7852,129.0628 146.7672,129.2208 145.7402,129.2718 C144.7092,129.2668 143.6802,129.2388 142.6552,129.3308 C141.6302,129.4078 140.6022,129.3958 139.5782,129.3558 C138.5532,129.3148 137.5302,129.2658 136.5092,129.1978 L136.5092,128.8018 Z" id="Fill-63" fill="#C8D4E5"></path>
                        <path d="M139.4496,125.8613 L142.5136,125.6943 C143.5346,125.6423 144.5516,125.5983 145.5696,125.6063 C146.5896,125.6313 147.6016,125.4943 148.6106,125.3443 C149.6236,125.2523 150.6416,125.2313 151.6776,125.3263 L151.7266,125.8303 C150.7256,126.1233 149.7076,126.2813 148.6796,126.3313 C147.6486,126.3263 146.6206,126.2983 145.5956,126.3903 C144.5706,126.4673 143.5436,126.4553 142.5176,126.4163 C141.4936,126.3743 140.4706,126.3263 139.4496,126.2573 L139.4496,125.8613 Z" id="Fill-65" fill="#C8D4E5"></path>
                    </g>
                    <g id="Group-74" transform="translate(202.000000, 0.239000)" fill="#56A7FF">
                        <path d="M16.0058,0.1676 C16.0808,0.1376 16.1558,0.1116 16.2368,0.1036 C16.4408,0.0806 16.6488,0.1446 16.8018,0.2806 C16.8498,0.3186 16.8868,0.3666 16.9238,0.4146 C19.4918,4.1716 21.5218,8.1006 23.5728,11.9256 C23.6598,12.0886 23.6948,12.2676 23.6538,12.4526 C23.5708,12.8196 23.2098,13.0706 22.8348,13.0216 C22.7548,13.0096 22.6768,12.9856 22.6048,12.9476 C22.4928,12.8926 22.4068,12.8096 22.3328,12.7096 C19.3308,9.2756 17.1518,5.4036 15.6828,1.2006 C15.6448,1.1276 15.6118,1.0566 15.5978,0.9756 C15.5588,0.7736 15.6058,0.5626 15.7268,0.3976 C15.7758,0.3326 15.8358,0.2796 15.9008,0.2306 C15.9518,0.1956 15.9518,0.1956 16.0058,0.1676" id="Fill-68"></path>
                        <path d="M7.4115,6.7765 C7.4755,6.7245 7.5405,6.6785 7.6165,6.6485 C7.8045,6.5695 8.0215,6.5715 8.2065,6.6555 C8.2635,6.6815 8.3125,6.7155 8.3625,6.7505 C11.8935,9.6235 14.9565,12.8125 18.0105,15.8945 C18.1395,16.0295 18.2255,16.1905 18.2375,16.3785 C18.2625,16.7545 17.9885,17.0975 17.6145,17.1545 C17.5345,17.1675 17.4515,17.1665 17.3725,17.1505 C17.2495,17.1295 17.1435,17.0755 17.0435,17.0035 C13.1905,14.5615 9.9995,11.4685 7.3965,7.8595 C7.3395,7.7995 7.2885,7.7385 7.2505,7.6645 C7.1555,7.4845 7.1415,7.2675 7.2105,7.0765 C7.2375,6.9985 7.2805,6.9305 7.3285,6.8645 C7.3705,6.8195 7.3705,6.8195 7.4115,6.7765" id="Fill-70"></path>
                        <path d="M1.0533,15.5562 C1.0983,15.4882 1.1493,15.4272 1.2123,15.3732 C1.3703,15.2452 1.5783,15.1862 1.7813,15.2152 C1.8423,15.2232 1.8993,15.2412 1.9553,15.2612 C6.1593,17.0112 10.0033,19.1972 13.8073,21.2822 C13.9693,21.3752 14.0963,21.5062 14.1623,21.6832 C14.2943,22.0372 14.1273,22.4452 13.7853,22.6052 C13.7133,22.6372 13.6343,22.6612 13.5533,22.6692 C13.4283,22.6832 13.3113,22.6622 13.1953,22.6192 C8.8043,21.3762 4.8663,19.3182 1.3453,16.5982 C1.2743,16.5582 1.2083,16.5142 1.1503,16.4552 C1.0083,16.3082 0.9333,16.1052 0.9453,15.9002 C0.9493,15.8172 0.9703,15.7422 0.9973,15.6652 C1.0233,15.6092 1.0233,15.6102 1.0533,15.5562" id="Fill-72"></path>
                    </g>
                    <g id="Group-121" transform="translate(144.000000, 39.239000)">
                        <path d="M110.6469,1.5986 C109.1099,3.0796 107.5399,4.5216 105.9699,5.9636 C105.1909,6.6916 104.3849,7.3856 103.5809,8.0816 C102.7809,8.7856 101.9369,9.4346 101.0859,10.0766 L101.0859,8.5606 C101.8819,9.2676 102.6889,9.9626 103.5429,10.5996 C104.4019,11.2296 105.3209,11.7866 106.1829,12.4136 C107.0339,13.0546 107.8229,13.7706 108.5849,14.5176 C109.3439,15.2706 110.0839,16.0456 110.7339,16.9316 C110.9479,17.2216 110.8839,17.6296 110.5939,17.8436 C110.3949,17.9896 110.1399,18.0056 109.9309,17.9086 C108.9369,17.4436 108.0319,16.8686 107.1459,16.2716 C106.2639,15.6676 105.4079,15.0346 104.6139,14.3246 C103.8329,13.6006 103.1059,12.8076 102.3209,12.0866 C101.5299,11.3736 100.6919,10.7186 99.8419,10.0766 C99.4249,9.7596 99.3429,9.1646 99.6589,8.7476 C99.6959,8.6996 99.7359,8.6556 99.7799,8.6166 L99.8419,8.5606 C100.6369,7.8516 101.4379,7.1496 102.2839,6.5026 C103.1229,5.8486 103.9609,5.1936 104.8269,4.5706 C106.5469,3.3126 108.2659,2.0516 110.0179,0.8326 C110.2439,0.6766 110.5529,0.7326 110.7089,0.9576 C110.8509,1.1606 110.8199,1.4326 110.6469,1.5986" id="Fill-75" fill="#FFFFFF"></path>
                        <path d="M127.766,8.7236 C132.885,8.5196 138.004,8.3796 143.124,8.2366 C148.244,8.0996 153.363,8.0136 158.482,8.1416 C161.041,8.1916 163.601,8.2226 166.161,8.1626 C168.72,8.0926 171.28,7.9106 173.839,7.8336 C178.958,7.7776 184.078,7.9616 189.197,8.5596 C189.616,8.6086 189.915,8.9876 189.867,9.4066 C189.825,9.7656 189.54,10.0366 189.197,10.0776 C184.078,10.6736 178.958,10.8586 173.839,10.8016 C171.28,10.7256 168.72,10.5426 166.161,10.4726 C163.601,10.4136 161.041,10.4446 158.482,10.4946 C153.363,10.6216 148.244,10.5356 143.124,10.3996 C138.004,10.2566 132.885,10.1166 127.766,9.9116 C127.438,9.8996 127.183,9.6216 127.196,9.2936 C127.208,8.9826 127.46,8.7376 127.766,8.7236" id="Fill-77" fill="#FFFFFF"></path>
                        <path d="M100.4643,29.123 C104.4453,28.919 108.4283,28.778 112.4093,28.636 C116.3913,28.498 120.3723,28.413 124.3543,28.541 C126.3453,28.591 128.3353,28.621 130.3263,28.562 C132.3173,28.491 134.3083,28.31 136.2993,28.233 C140.2803,28.177 144.2623,28.361 148.2433,28.958 C148.6623,29.021 148.9513,29.412 148.8893,29.831 C148.8373,30.172 148.5683,30.427 148.2433,30.476 C144.2623,31.073 140.2803,31.258 136.2993,31.2 C134.3083,31.125 132.3173,30.942 130.3263,30.872 C128.3353,30.812 126.3453,30.843 124.3543,30.894 C120.3723,31.02 116.3913,30.935 112.4093,30.799 C108.4283,30.655 104.4453,30.516 100.4643,30.311 C100.1363,30.294 99.8843,30.015 99.9013,29.686 C99.9163,29.38 100.1643,29.14 100.4643,29.123" id="Fill-79" fill="#FFED72"></path>
                        <path d="M100.4643,49.5361 C106.1523,49.3321 111.8403,49.1911 117.5273,49.0491 C123.2163,48.9111 128.9033,48.8261 134.5923,48.9531 C137.4363,49.0041 140.2793,49.0341 143.1233,48.9751 C145.9683,48.9041 148.8123,48.7231 151.6553,48.6461 C157.3443,48.5901 163.0313,48.7741 168.7193,49.3711 C169.1393,49.4151 169.4433,49.7911 169.3993,50.2101 C169.3603,50.5741 169.0703,50.8521 168.7193,50.8891 C163.0313,51.4861 157.3443,51.6711 151.6553,51.6131 C148.8123,51.5371 145.9683,51.3551 143.1233,51.2851 C140.2793,51.2251 137.4363,51.2561 134.5923,51.3071 C128.9033,51.4331 123.2163,51.3481 117.5273,51.2121 C111.8403,51.0681 106.1523,50.9291 100.4643,50.7241 C100.1363,50.7121 99.8803,50.4361 99.8923,50.1081 C99.9023,49.7961 100.1563,49.5481 100.4643,49.5361" id="Fill-81" fill="#79E798"></path>
                        <path d="M100.4643,69.9482 C105.7373,69.7432 111.0103,69.6032 116.2833,69.4612 C121.5563,69.3232 126.8293,69.2382 132.1023,69.3652 C134.7383,69.4162 137.3753,69.4462 140.0113,69.3872 C142.6483,69.3162 145.2843,69.1352 147.9203,69.0582 C153.1933,69.0022 158.4663,69.1852 163.7393,69.7832 C164.1583,69.8312 164.4593,70.2092 164.4123,70.6282 C164.3713,70.9882 164.0853,71.2612 163.7393,71.3012 C158.4663,71.8982 153.1933,72.0822 147.9203,72.0252 C145.2843,71.9492 142.6483,71.7672 140.0113,71.6972 C137.3753,71.6372 134.7383,71.6682 132.1023,71.7192 C126.8293,71.8452 121.5563,71.7602 116.2833,71.6232 C111.0103,71.4802 105.7373,71.3412 100.4643,71.1352 C100.1363,71.1232 99.8813,70.8472 99.8933,70.5192 C99.9053,70.2072 100.1573,69.9612 100.4643,69.9482" id="Fill-83" fill="#67B1FF"></path>
                        <path d="M162.2982,29.123 C164.5732,28.919 166.8492,28.778 169.1242,28.636 C171.3992,28.485 173.6742,28.414 175.9492,28.541 C177.0872,28.592 178.2252,28.63 179.3612,28.562 C180.5002,28.502 181.6372,28.293 182.7752,28.233 C185.0502,28.177 187.3252,28.361 189.6002,28.958 C190.0202,29.068 190.2702,29.497 190.1602,29.916 C190.0862,30.199 189.8642,30.406 189.6002,30.476 C187.3252,31.073 185.0502,31.258 182.7752,31.2 C181.6372,31.141 180.5002,30.933 179.3612,30.872 C178.2252,30.805 177.0872,30.842 175.9492,30.894 C173.6742,31.02 171.3992,30.948 169.1242,30.799 C166.8492,30.655 164.5732,30.516 162.2982,30.311 C161.9702,30.281 161.7282,29.992 161.7582,29.664 C161.7832,29.372 162.0162,29.148 162.2982,29.123" id="Fill-85" fill="#79E798"></path>
                        <path d="M181.7768,69.9482 C184.7998,69.7432 187.8238,69.6032 190.8468,69.4612 C193.8708,69.3102 196.8938,69.2392 199.9178,69.3652 C201.4288,69.4162 202.9408,69.4462 204.4528,69.3872 C205.9638,69.3262 207.4758,69.1182 208.9878,69.0582 C212.0098,69.0022 215.0338,69.1852 218.0568,69.7832 C218.4768,69.8662 218.7498,70.2722 218.6668,70.6912 C218.6038,71.0092 218.3558,71.2412 218.0568,71.3012 C215.0338,71.8982 212.0098,72.0822 208.9878,72.0252 C207.4758,71.9662 205.9638,71.7582 204.4528,71.6972 C202.9408,71.6372 201.4288,71.6682 199.9178,71.7192 C196.8938,71.8452 193.8708,71.7732 190.8468,71.6232 C187.8238,71.4802 184.7998,71.3412 181.7768,71.1352 C181.4488,71.1142 181.2008,70.8302 181.2228,70.5022 C181.2428,70.2012 181.4838,69.9682 181.7768,69.9482" id="Fill-87" fill="#79E798"></path>
                        <path d="M204.4066,8.7236 C207.8196,8.5196 211.2316,8.3796 214.6446,8.2366 C218.0576,8.0856 221.4706,8.0146 224.8836,8.1416 C226.5906,8.1916 228.2966,8.2226 230.0026,8.1626 C231.7096,8.1026 233.4156,7.8946 235.1216,7.8336 C238.5346,7.7776 241.9476,7.9616 245.3606,8.5596 C245.7796,8.6326 246.0596,9.0316 245.9866,9.4516 C245.9286,9.7796 245.6706,10.0216 245.3606,10.0776 C241.9476,10.6736 238.5346,10.8586 235.1216,10.8016 C233.4156,10.7426 231.7096,10.5336 230.0026,10.4726 C228.2966,10.4136 226.5906,10.4446 224.8836,10.4946 C221.4706,10.6206 218.0576,10.5496 214.6446,10.3996 C211.2316,10.2566 207.8196,10.1166 204.4066,9.9116 C204.0786,9.8926 203.8286,9.6106 203.8476,9.2826 C203.8656,8.9786 204.1096,8.7416 204.4066,8.7236" id="Fill-89" fill="#79E798"></path>
                        <path d="M204.4066,29.123 C207.8196,28.919 211.2316,28.778 214.6446,28.636 C218.0576,28.485 221.4706,28.414 224.8836,28.541 C226.5906,28.591 228.2966,28.621 230.0026,28.562 C231.7096,28.502 233.4156,28.293 235.1216,28.233 C238.5346,28.177 241.9476,28.361 245.3606,28.958 C245.7796,29.031 246.0596,29.431 245.9866,29.85 C245.9286,30.178 245.6706,30.421 245.3606,30.476 C241.9476,31.073 238.5346,31.258 235.1216,31.2 C233.4156,31.141 231.7096,30.933 230.0026,30.872 C228.2966,30.812 226.5906,30.843 224.8836,30.894 C221.4706,31.02 218.0576,30.948 214.6446,30.799 C211.2316,30.655 207.8196,30.516 204.4066,30.311 C204.0786,30.291 203.8286,30.01 203.8476,29.682 C203.8656,29.377 204.1096,29.141 204.4066,29.123" id="Fill-91" fill="#67B1FF"></path>
                        <path d="M218.057,49.5361 C220.332,49.3321 222.608,49.1911 224.883,49.0491 C227.159,48.8981 229.434,48.8271 231.709,48.9531 C232.847,49.0051 233.985,49.0431 235.121,48.9751 C236.259,48.9141 237.397,48.7061 238.535,48.6461 C240.81,48.5901 243.085,48.7741 245.361,49.3711 C245.78,49.4811 246.03,49.9101 245.92,50.3291 C245.846,50.6121 245.624,50.8181 245.361,50.8891 C243.085,51.4861 240.81,51.6711 238.535,51.6131 C237.397,51.5541 236.259,51.3461 235.121,51.2851 C233.985,51.2181 232.847,51.2551 231.709,51.3071 C229.434,51.4331 227.159,51.3611 224.883,51.2121 C222.608,51.0681 220.332,50.9291 218.057,50.7241 C217.729,50.6941 217.488,50.4041 217.517,50.0761 C217.543,49.7851 217.776,49.5601 218.057,49.5361" id="Fill-93" fill="#FFFFFF"></path>
                        <path d="M184.7328,49.5361 C186.3718,49.3321 188.0108,49.1911 189.6508,49.0491 C191.2908,48.9051 192.9298,48.8151 194.5698,48.9531 C195.3888,49.0051 196.2098,49.0431 197.0288,48.9751 C197.8478,48.9141 198.6688,48.7061 199.4878,48.6461 C201.1278,48.5901 202.7668,48.7741 204.4068,49.3711 C204.8258,49.5231 205.0418,49.9871 204.8888,50.4061 C204.8038,50.6391 204.6218,50.8091 204.4068,50.8891 C202.7668,51.4861 201.1278,51.6711 199.4878,51.6131 C198.6688,51.5541 197.8478,51.3461 197.0288,51.2851 C196.2098,51.2181 195.3888,51.2551 194.5698,51.3071 C192.9298,51.4441 191.2908,51.3541 189.6508,51.2121 C188.0108,51.0681 186.3718,50.9291 184.7328,50.7241 C184.4048,50.6831 184.1708,50.3841 184.2118,50.0561 C184.2468,49.7781 184.4668,49.5691 184.7328,49.5361" id="Fill-95" fill="#FFED72"></path>
                        <path d="M236.8139,64.3789 C238.5879,65.5709 240.3219,66.8139 242.0569,68.0529 C243.7969,69.2869 245.4879,70.5819 247.0519,72.0299 L247.1449,72.1169 C247.6019,72.5399 247.6289,73.2539 247.2069,73.7099 C247.1609,73.7609 247.1049,73.8099 247.0519,73.8499 C246.1969,74.4839 245.3509,75.1309 244.5709,75.8579 C243.7879,76.5799 243.0969,77.4159 242.3119,78.1379 C241.5239,78.8549 240.6609,79.4799 239.7679,80.0679 C238.8689,80.6499 237.9479,81.2049 236.9179,81.6289 C236.5119,81.7949 236.0489,81.6019 235.8819,81.1959 C235.7789,80.9449 235.8169,80.6669 235.9559,80.4549 C236.5709,79.5279 237.2939,78.7329 238.0399,77.9639 C238.7919,77.2029 239.5739,76.4789 240.4299,75.8449 C241.2899,75.2149 242.2449,74.7009 243.1059,74.0729 C243.9709,73.4499 244.7689,72.7459 245.5589,72.0309 L245.5589,73.8499 C243.8339,72.5969 242.2349,71.1909 240.6849,69.7249 C239.1299,68.2639 237.5749,66.8059 236.0599,65.2969 C235.8259,65.0649 235.8249,64.6869 236.0579,64.4529 C236.2629,64.2469 236.5809,64.2229 236.8139,64.3789" id="Fill-97" fill="#FFFFFF"></path>
                        <polygon id="Fill-99" fill="#FFED72" points="69.4848 162.4385 1.4538 76.9455 27.4388 39.7045 111.5298 39.7045 137.5148 76.9455"></polygon>
                        <path d="M69.4848,162.4385 C69.4848,162.4385 16.4538,101.0005 1.4538,76.9455 C6.4538,66.0005 27.4388,39.7045 27.4388,39.7045 C27.4388,39.7045 69.4538,38.0005 111.5298,39.7045 C119.4538,47.0005 137.5148,76.9455 137.5148,76.9455 L69.4848,162.4385 Z" id="Fill-101" fill="#FFED72"></path>
                        <path d="M54.8539,78 C54.8539,78 34.4539,52 27.4389,39.704 C39.4539,38 58.4539,39 69.4539,39 C67.4539,49 54.8539,78 54.8539,78" id="Fill-103" fill="#FFDB76"></path>
                        <path d="M69.4848,162.4385 C37.4538,130.0005 1.4538,77.0005 1.4538,77.0005 L54.4538,78.0005 C54.4538,78.0005 67.4538,135.0005 69.4848,162.4385" id="Fill-105" fill="#FFDB76"></path>
                        <path d="M85.2533,78 C85.2533,78 104.4533,53 111.4533,39.704 C101.4533,40 78.4683,38 69.4533,39 C72.4533,48 85.2533,78 85.2533,78" id="Fill-107" fill="#FFDB76"></path>
                        <path d="M69.9535,161.4385 C89.4535,144.0005 137.4845,76.0005 137.4845,76.0005 L84.4535,78.0005 C84.4535,78.0005 72.4535,142.0005 69.9535,161.4385" id="Fill-109" fill="#FFDB76"></path>
                        <path d="M69.4135,161.7666 L69.4875,161.6796 C70.1845,160.8636 70.8425,160.0816 71.5205,159.3436 C71.8605,158.9736 72.2055,158.6126 72.5595,158.2526 C72.9215,157.8786 73.3135,157.4226 73.6885,157.0126 C75.1925,155.3126 76.7555,153.6766 78.2025,151.9206 C79.6645,150.1816 81.1585,148.4726 82.5945,146.7086 L86.9015,141.4216 C92.5985,134.3296 98.1625,127.1256 103.6805,119.8846 C109.2065,112.6506 114.6455,105.3486 120.0945,98.0526 L136.3665,76.1156 L136.3055,77.6826 C132.3975,71.2186 128.3555,64.8106 124.1995,58.4996 C122.1085,55.3536 119.9865,52.2286 117.7925,49.1676 C115.5785,46.1496 113.3135,43.0676 110.7595,40.5456 L111.4665,40.8436 C104.4735,40.4246 97.4755,40.1366 90.4775,39.9126 C83.4805,39.6956 76.4805,39.5796 69.4805,39.5786 C62.4815,39.5796 55.4825,39.6976 48.4885,39.9276 C41.4925,40.1526 34.5035,40.5156 27.5175,40.9406 L28.2765,40.6166 C25.6685,43.1076 23.3265,46.1036 21.0835,49.1066 C18.8445,52.1316 16.6795,55.2246 14.5705,58.3606 C10.3625,64.6366 6.3035,71.0376 2.3955,77.5046 L2.3535,76.3196 C7.5465,83.7896 12.8555,91.2006 18.2185,98.5606 C23.5755,105.9276 29.0085,113.2396 34.5415,120.4726 C40.0645,127.7136 45.7085,134.8626 51.5355,141.8546 C54.4265,145.3706 57.4285,148.7876 60.4415,152.1936 L65.0705,157.1976 C66.5625,158.6786 67.9605,160.1756 69.4135,161.7666 M69.5745,163.1156 L69.4815,163.0326 C67.7185,161.4516 65.8855,159.7766 64.1675,158.0736 L59.4585,153.0876 C56.3965,149.6996 53.3465,146.2976 50.4105,142.8006 C44.4935,135.8476 38.7635,128.7426 33.1555,121.5436 C27.5415,114.3516 22.0105,107.0946 16.5895,99.7566 C11.1705,92.4156 5.8125,85.0376 0.5545,77.5706 C0.2995,77.2096 0.2965,76.7466 0.5085,76.3906 L0.5115,76.3846 C4.4055,69.8466 8.4315,63.4116 12.6295,57.0636 C14.7325,53.8936 16.8965,50.7586 19.1495,47.6736 C21.4255,44.5996 23.7395,41.5636 26.6005,38.7916 C26.8055,38.5936 27.0645,38.4866 27.3285,38.4696 L27.3595,38.4676 C41.3835,37.5856 55.4355,37.1826 69.4845,37.2256 C76.5095,37.2456 83.5335,37.3796 90.5525,37.6156 C97.5715,37.8406 104.5835,38.2056 111.5935,38.5646 L111.6165,38.5666 C111.8835,38.5786 112.1225,38.6916 112.3005,38.8626 C115.1785,41.6406 117.4375,44.6886 119.7445,47.7426 C122.0045,50.8156 124.1785,53.9376 126.3195,57.0796 C130.5785,63.3816 134.6995,69.7506 138.7255,76.2066 C139.0325,76.7006 138.9955,77.3096 138.6795,77.7546 L138.6645,77.7756 C133.3685,85.2086 127.9435,92.5336 122.4915,99.8446 C117.0205,107.1416 111.4385,114.3556 105.8345,121.5506 C100.1835,128.7126 94.4515,135.8136 88.5995,142.8186 L84.1415,148.0206 C82.6565,149.7536 81.1075,151.4396 79.5955,153.1506 C78.1005,154.8746 76.4735,156.4976 74.9155,158.1716 C74.5115,158.5916 74.1525,158.9946 73.7115,159.4286 L72.3155,160.7356 C71.4025,161.5676 70.4735,162.3556 69.5745,163.1156" id="Fill-111" fill="#FFFFFF"></path>
                        <path d="M2.4672,76.1045 L36.2342,76.9795 L53.1132,77.4835 C58.7382,77.5645 64.3622,77.5145 69.9882,77.5375 L78.4252,77.5375 L82.6452,77.5385 C83.3482,77.5335 84.0512,77.5475 84.7542,77.5275 L86.8632,77.4235 C92.4872,77.1685 98.1082,76.8125 103.7312,76.5275 C114.9782,76.0245 126.2292,75.7035 137.4942,75.6405 L137.5352,76.6515 C126.2972,77.4995 115.0442,78.0885 103.7862,78.4965 C98.1562,78.6665 92.5262,78.7635 86.8972,78.9635 C84.0842,79.0915 81.2632,79.0315 78.4462,79.0675 L69.9912,79.1095 L61.5372,79.1585 C58.7202,79.1485 55.8982,79.2575 53.0842,79.1185 L36.1992,78.4215 L2.4402,76.8955 L2.4672,76.1045 Z" id="Fill-113" fill="#FFFFFF"></path>
                        <path d="M27.7719,39.4893 C32.1509,46.0883 36.7229,52.5603 41.3839,58.9663 C46.0429,65.3723 50.7969,71.7173 55.5899,78.0143 L55.6919,78.1473 L55.7319,78.3133 C57.4229,85.2033 58.9209,92.1293 60.4089,99.0603 L64.7669,119.8773 C66.2309,126.8153 67.5939,133.7833 68.5639,140.8203 C69.0719,144.3353 69.5359,147.8593 69.8389,151.4053 C70.1629,154.9483 70.3799,158.5113 70.2679,162.0903 L69.2559,162.0903 C68.8899,155.0733 67.7789,148.0833 66.6789,141.1093 L63.0999,120.2003 C61.8769,113.2293 60.4039,106.3043 58.8819,99.3913 C57.3629,92.4783 55.7519,85.5813 54.1749,78.6863 L54.3169,78.9853 C49.5399,72.6393 44.9169,66.1943 40.3599,59.6973 C35.8169,53.1903 31.3649,46.6193 27.1069,39.9193 L27.7719,39.4893 Z" id="Fill-115" fill="#FFFFFF"></path>
                        <path d="M112.2338,39.9043 C110.2498,43.3263 108.0988,46.6333 105.9268,49.9223 C103.7508,53.2093 101.5378,56.4703 99.2958,59.7113 C94.8088,66.1893 90.2588,72.6203 85.5968,78.9763 L85.7418,78.6443 C84.5138,85.6213 83.1738,92.5763 81.8758,99.5393 L79.9248,109.9823 C79.2958,113.4673 78.6778,116.9553 78.0968,120.4493 C76.9308,127.4353 75.7438,134.4193 74.3528,141.3653 C73.0178,148.3213 71.6078,155.2633 70.0668,162.1813 L69.0728,161.9983 C70.0948,154.9853 71.2498,147.9963 72.4778,141.0193 C73.6518,134.0343 75.0288,127.0863 76.4258,120.1413 C77.1278,116.6703 77.7918,113.1903 78.4438,109.7103 L80.3388,99.2563 C81.6048,92.2873 82.8288,85.3103 84.1658,78.3553 L84.2018,78.1703 L84.3098,78.0233 C88.9948,71.7053 93.6758,65.3753 98.2668,58.9853 C100.5688,55.7953 102.8408,52.5833 105.0768,49.3473 C107.3078,46.1113 109.5178,42.8543 111.5508,39.5033 L112.2338,39.9043 Z" id="Fill-117" fill="#FFFFFF"></path>
                        <path d="M84.5854,78.6475 L76.5944,59.4025 C75.2714,56.1915 73.9844,52.9645 72.7044,49.7355 C71.4234,46.5045 70.2194,43.2485 69.0254,39.9715 L70.5244,39.8805 C69.6304,43.3335 68.3534,46.5375 67.2294,49.8305 C66.0584,53.0975 64.9244,56.3765 63.6944,59.6185 C62.4584,62.8575 61.1024,66.0475 59.7464,69.2375 C58.3644,72.4165 56.9474,75.5785 55.4204,78.6955 L54.4864,78.3045 C55.6284,75.0325 56.8484,71.7925 58.0744,68.5565 C59.3244,65.3305 60.5564,62.0975 61.8564,58.8945 C63.1564,55.6905 64.5364,52.5165 65.7644,49.2885 C66.3894,47.6795 66.9834,46.0565 67.5214,44.4225 C68.0804,42.7935 68.5874,41.1515 68.9984,39.5275 L69.6094,37.1165 L70.4984,39.4365 L77.9394,58.8725 L85.3214,78.3525 L84.5854,78.6475 Z" id="Fill-119" fill="#FFFFFF"></path>
                    </g>
                    <g id="Group-127" transform="translate(253.000000, 124.239000)">
                        <g id="Group-124" transform="translate(5.000000, 0.000000)">
                            <mask id="mask-2" fill="white">
                                <use xlink:href="#path-1"></use>
                            </mask>
                            <g id="Clip-123"></g>
                            <path d="M2.0609,1.0615 C2.2579,2.0475 2.3889,3.0365 2.5549,4.0215 C2.7099,5.0075 2.9259,5.9965 2.9259,6.9825 C2.9589,7.9685 2.7759,8.9575 2.6309,9.9425 C2.4699,10.9285 2.3199,11.9165 2.0609,12.9035 C2.0419,12.9725 1.9709,13.0145 1.9039,12.9945 C1.8569,12.9845 1.8249,12.9475 1.8129,12.9035 C1.5529,11.9165 1.4009,10.9285 1.2409,9.9425 C1.0959,8.9575 0.9119,7.9685 0.9479,6.9825 C0.9479,5.9965 1.1639,5.0075 1.3179,4.0215 C1.4839,3.0365 1.6149,2.0475 1.8129,1.0615 C1.8269,0.9945 1.8919,0.9485 1.9609,0.9615 C2.0129,0.9725 2.0499,1.0135 2.0609,1.0615" id="Fill-122" fill="#FFFFFF" mask="url(#mask-2)"></path>
                        </g>
                        <path d="M1.015,6.8594 C2.001,6.6614 2.988,6.5304 3.976,6.3644 C4.961,6.2104 5.948,5.9934 6.936,5.9934 C7.922,5.9584 8.911,6.1444 9.897,6.2894 C10.883,6.4494 11.87,6.5994 12.857,6.8594 C12.926,6.8774 12.966,6.9484 12.949,7.0154 C12.938,7.0624 12.901,7.0944 12.857,7.1064 C11.87,7.3664 10.883,7.5184 9.897,7.6784 C8.911,7.8214 7.922,8.0074 6.936,7.9714 C5.948,7.9714 4.961,7.7554 3.976,7.6014 C2.988,7.4354 2.001,7.3044 1.015,7.1064 C0.946,7.0924 0.903,7.0274 0.916,6.9584 C0.926,6.9064 0.967,6.8694 1.015,6.8594" id="Fill-125" fill="#FFFFFF"></path>
                    </g>
                    <g id="Group-133" transform="translate(174.000000, 141.239000)">
                        <g id="Group-130" transform="translate(5.000000, 0.000000)">
                            <mask id="mask-4" fill="white">
                                <use xlink:href="#path-3"></use>
                            </mask>
                            <g id="Clip-129"></g>
                            <path d="M2.0609,1.0615 C2.2579,2.0475 2.3889,3.0365 2.5549,4.0215 C2.7099,5.0075 2.9259,5.9965 2.9259,6.9825 C2.9589,7.9685 2.7759,8.9575 2.6309,9.9425 C2.4699,10.9285 2.3199,11.9165 2.0609,12.9035 C2.0419,12.9725 1.9709,13.0145 1.9039,12.9945 C1.8569,12.9845 1.8249,12.9475 1.8129,12.9035 C1.5529,11.9165 1.4009,10.9285 1.2409,9.9425 C1.0959,8.9575 0.9119,7.9685 0.9479,6.9825 C0.9479,5.9965 1.1639,5.0075 1.3179,4.0215 C1.4839,3.0365 1.6149,2.0475 1.8129,1.0615 C1.8269,0.9945 1.8919,0.9485 1.9609,0.9615 C2.0129,0.9725 2.0499,1.0135 2.0609,1.0615" id="Fill-128" fill="#FFFFFF" mask="url(#mask-4)"></path>
                        </g>
                        <path d="M1.015,6.8594 C2.001,6.6614 2.988,6.5304 3.976,6.3644 C4.961,6.2104 5.948,5.9934 6.936,5.9934 C7.922,5.9584 8.911,6.1444 9.897,6.2894 C10.883,6.4494 11.87,6.5994 12.857,6.8594 C12.926,6.8774 12.966,6.9484 12.949,7.0154 C12.938,7.0624 12.901,7.0944 12.857,7.1064 C11.87,7.3664 10.883,7.5184 9.897,7.6784 C8.911,7.8214 7.922,8.0074 6.936,7.9714 C5.948,7.9714 4.961,7.7554 3.976,7.6014 C2.988,7.4354 2.001,7.3044 1.015,7.1064 C0.946,7.0924 0.903,7.0274 0.916,6.9584 C0.926,6.9064 0.967,6.8694 1.015,6.8594" id="Fill-131" fill="#FFFFFF"></path>
                    </g>
                    <g id="Group-140" transform="translate(238.000000, 173.239000)" fill="#FFFFFF">
                        <path d="M14.8803,4.5381 C14.8913,4.4841 14.8993,4.4321 14.8943,4.3771 C14.8843,4.2381 14.8163,4.1081 14.7063,4.0241 C14.6753,3.9971 14.6393,3.9781 14.6033,3.9601 C11.7943,2.7251 8.9393,1.8651 6.1493,0.9801 C6.0303,0.9431 5.9063,0.9421 5.7893,0.9921 C5.5563,1.0931 5.4353,1.3631 5.5143,1.6061 C5.5313,1.6581 5.5573,1.7061 5.5913,1.7491 C5.6423,1.8161 5.7073,1.8631 5.7823,1.9001 C8.4313,3.4641 11.2683,4.4281 14.2353,4.8801 C14.2883,4.8961 14.3403,4.9091 14.3953,4.9081 C14.5343,4.9091 14.6683,4.8511 14.7623,4.7511 C14.8003,4.7111 14.8273,4.6641 14.8523,4.6151 C14.8683,4.5771 14.8683,4.5771 14.8803,4.5381" id="Fill-134"></path>
                        <path d="M11.5658,11.0537 C11.5918,11.0047 11.6148,10.9557 11.6258,10.9027 C11.6548,10.7677 11.6268,10.6237 11.5468,10.5117 C11.5228,10.4777 11.4948,10.4497 11.4648,10.4207 C9.1228,8.4367 6.6288,6.8017 4.2078,5.1587 C4.1028,5.0907 3.9858,5.0537 3.8588,5.0697 C3.6068,5.0997 3.4138,5.3237 3.4218,5.5777 C3.4228,5.6337 3.4338,5.6877 3.4548,5.7387 C3.4838,5.8177 3.5328,5.8807 3.5928,5.9387 C5.6898,8.1887 8.1348,9.9207 10.8498,11.1987 C10.8968,11.2287 10.9438,11.2547 10.9978,11.2707 C11.1288,11.3117 11.2738,11.2937 11.3918,11.2247 C11.4408,11.1967 11.4798,11.1587 11.5178,11.1197 C11.5428,11.0857 11.5428,11.0857 11.5658,11.0537" id="Fill-136"></path>
                        <path d="M6.5356,16.3564 C6.5746,16.3184 6.6096,16.2774 6.6376,16.2284 C6.7016,16.1074 6.7156,15.9624 6.6716,15.8324 C6.6586,15.7924 6.6396,15.7564 6.6186,15.7224 C4.9376,13.1534 3.0126,10.8774 1.1586,8.6134 C1.0766,8.5174 0.9736,8.4504 0.8486,8.4284 C0.5986,8.3844 0.3486,8.5454 0.2846,8.7924 C0.2716,8.8434 0.2656,8.8994 0.2706,8.9544 C0.2766,9.0384 0.3056,9.1134 0.3486,9.1854 C1.7166,11.9414 3.5686,14.2954 5.8086,16.2924 C5.8446,16.3354 5.8816,16.3734 5.9286,16.4034 C6.0426,16.4794 6.1866,16.5034 6.3206,16.4704 C6.3756,16.4584 6.4226,16.4344 6.4706,16.4074 C6.5046,16.3824 6.5036,16.3834 6.5356,16.3564" id="Fill-138"></path>
                    </g>
                </g>
            </g>
        </g>
    </g>
</svg>