<svg id="Calque_1" data-name="Calque 1" xmlns="http://www.w3.org/2000/svg" xmlns:xlink="http://www.w3.org/1999/xlink" viewBox="0 0 649.25 230"><defs><style>.cls-1{fill:none;}.cls-2{fill:#eaf2fb;}.cls-3{fill:#a27079;}.cls-3,.cls-4{fill-rule:evenodd;}.cls-4{fill:#cc9694;}.cls-5{clip-path:url(#clip-path);}.cls-6{fill:#57a7ff;}.cls-7{clip-path:url(#clip-path-3);}.cls-8{clip-path:url(#clip-path-5);}.cls-9{clip-path:url(#clip-path-6);}.cls-10{fill:#4cdf76;}.cls-11{fill:#b0bed2;}</style><clipPath id="clip-path"><rect class="cls-1" x="57.54" y="27.46" width="9.74" height="9.74"/></clipPath><clipPath id="clip-path-3"><rect class="cls-1" x="567.01" y="84.2" width="9.74" height="9.74"/></clipPath><clipPath id="clip-path-5"><rect class="cls-1" x="525.02" y="32.04" width="23.57" height="24.77" transform="translate(277.66 516.63) rotate(-65.97)"/></clipPath><clipPath id="clip-path-6"><rect class="cls-1" x="525.02" y="32.04" width="23.56" height="24.77" transform="translate(277.66 516.63) rotate(-65.97)"/></clipPath></defs><title>soon</title><path class="cls-2" d="M192.77,205.69c-60-2.83-58.19,1.74-111.7-20.86-26.51-11.2-40.32-47.59-30.85-81.27s38.64-51.92,65.14-40.72c41.26,17.42,25.69,10.31,72.33,13.71,6.91-19.75,20.64-35.4,38.17-42.07a50.72,50.72,0,0,1,32.47-1.29c16,4.65,29.05,16.85,36.45,33.87a172.11,172.11,0,0,0,43.46-1c21.2-3.09,43.53-9.83,68.23-20.61l5.8-2.57c11.51-5.12,24.56-10.92,39.85-14.61,53.95-13,80-1,105.27,12.24,25.8,13.46,37.6,51,26.35,83.85C575,150,554.71,165.16,534,164.18a41.44,41.44,0,0,1-17.33-4.77c-24.95-13-27.42-9.79-47.51-4.94-7.66,1.85-15.64,5.4-24.88,9.5q-3.18,1.42-6.38,2.82c-31.92,13.93-61.41,22.73-90.16,26.92-31.75,4.63-63,3.48-91.06-3.29a79.43,79.43,0,0,1-23.77,11.91c-13.31,4-25.66,3.94-36.18,3.53ZM211.55,77.26h0Z"/><path class="cls-3" d="M493.29,141.29c-6.77-2.5-12.19-1.95-12.08,1.53.08,2.51,38.88,15,38.05,15.27-1.16.45-38.34-12.8-43.91-12.89-3.76-.06-4.4,2-3.51,3,4.64,5.06,44.44,15.73,44.07,16.71-.26.67-42.3-13.81-47.67-14.14-1.93-.11-4.75,1.51-2.94,4.23,2.57,3.86,43.94,15.12,43.87,16.71,0,.63-30.24-6.92-35.35-6.74-7.55,2.77,2.51,5.92,21.84,12.23,5.8,1.89,40,10.19,59.1,14.81,7.81,3.95,12.85,7.21,12.85,7.21s12.74-32.7,8.6-34.68c-8.47-4-17.53-8.2-21.41-8.92C534.82,151.87,506.38,146.12,493.29,141.29Z"/><path class="cls-4" d="M166.59,156.3c2.09-4.42-4.53-8.46-12.59,2.33-.8,1.07-3.38,5.69-6.09,10.67a28.51,28.51,0,0,1-10.39,10.4l1.07,13.36s14-10.53,18.51-17.29C161.23,167.33,165.86,157.86,166.59,156.3Z"/><g id="Zigouigoui_2" data-name="Zigouigoui 2"><g class="cls-5"><g class="cls-5"><path class="cls-6" d="M62.51,27.54c.16.8.27,1.6.4,2.4a16.44,16.44,0,0,1,.3,2.39,13,13,0,0,1-.24,2.4c-.13.8-.25,1.6-.46,2.4a.1.1,0,0,1-.13.07.1.1,0,0,1-.07-.07c-.21-.8-.33-1.6-.46-2.4a13,13,0,0,1-.24-2.4,15.16,15.16,0,0,1,.3-2.39c.13-.8.24-1.6.4-2.4a.1.1,0,0,1,.12-.08.13.13,0,0,1,.08.08"/><path class="cls-6" d="M57.62,32.24c.8-.17,1.59-.27,2.39-.41a16.4,16.4,0,0,1,2.4-.3,14.78,14.78,0,0,1,2.39.24c.8.13,1.6.26,2.4.47a.09.09,0,0,1,.07.12.1.1,0,0,1-.07.08c-.8.21-1.6.33-2.4.46a14.78,14.78,0,0,1-2.39.24,16.4,16.4,0,0,1-2.4-.3c-.8-.14-1.59-.24-2.39-.4a.11.11,0,0,1-.08-.12s0-.08.08-.08"/></g></g></g><g id="Zigouigoui_2-2" data-name="Zigouigoui 2"><g class="cls-7"><g class="cls-7"><path class="cls-6" d="M572,84.28c.16.8.27,1.6.4,2.4a16.1,16.1,0,0,1,.3,2.39,13,13,0,0,1-.24,2.4c-.13.79-.25,1.59-.46,2.39a.11.11,0,0,1-.13.08.1.1,0,0,1-.07-.08c-.21-.8-.33-1.6-.46-2.39a13,13,0,0,1-.24-2.4,14.87,14.87,0,0,1,.3-2.39c.13-.8.24-1.6.4-2.4a.1.1,0,0,1,.12-.08.11.11,0,0,1,.08.08"/><path class="cls-6" d="M567.09,89c.8-.16,1.59-.26,2.39-.4a16.4,16.4,0,0,1,2.4-.3,12.83,12.83,0,0,1,2.39.24c.8.13,1.6.25,2.4.46a.1.1,0,0,1,.07.13s0,.06-.07.07a22.54,22.54,0,0,1-2.4.46,12.83,12.83,0,0,1-2.39.24,15.14,15.14,0,0,1-2.4-.3c-.8-.13-1.59-.24-2.39-.4a.1.1,0,0,1-.08-.12.11.11,0,0,1,.08-.08"/></g></g></g><g id="Zigougoui_1" data-name="Zigougoui 1"><g class="cls-8"><g class="cls-9"><path class="cls-6" d="M547.55,50.33a.62.62,0,0,1,0,.27.77.77,0,0,1-.32.55,1,1,0,0,1-.17.1,132.85,132.85,0,0,1-13.85,4.26.78.78,0,0,1-.58,0,.81.81,0,0,1-.4-1,.61.61,0,0,1,.13-.22.93.93,0,0,1,.32-.24,37.94,37.94,0,0,1,13.84-4.26.77.77,0,0,1,.26,0,.78.78,0,0,1,.59.27,1,1,0,0,1,.13.23.28.28,0,0,1,0,.12"/><path class="cls-6" d="M542.62,39.6a.75.75,0,0,1,.09.25.82.82,0,0,1-.15.62.93.93,0,0,1-.14.14,134.25,134.25,0,0,1-12.06,8,.89.89,0,0,1-.57.12.79.79,0,0,1-.67-.85.54.54,0,0,1,.06-.25.82.82,0,0,1,.23-.32,37.9,37.9,0,0,1,12.07-8,.66.66,0,0,1,.24-.11.78.78,0,0,1,.63.1.86.86,0,0,1,.2.18.41.41,0,0,1,.07.11"/><path class="cls-6" d="M534.84,30.71a.83.83,0,0,1,.16.21.79.79,0,0,1,0,.64c0,.07-.06.12-.09.18a134.88,134.88,0,0,1-9.28,11.12.82.82,0,0,1-.52.28.79.79,0,0,1-.88-.62.58.58,0,0,1,0-.26.78.78,0,0,1,.13-.37,37.92,37.92,0,0,1,9.28-11.13l.2-.17a.84.84,0,0,1,.64-.08.66.66,0,0,1,.24.11l.1.09"/></g></g></g><path class="cls-6" d="M147.71,140.41c8,16.85,15.84,20,28.43,17.49,10.31-2.09,19.19-10.45,16.5-23.76-2.53-12.45-10.15-15.53-27.47-22.3-17.8-7-29.44-11.47-32.63-27.21C130.45,74.32,134.3,58,159.35,53c8.73-1.77,16.15-1.93,23-.63C184.2,57.92,187,66,190,73.14l-6.06,2.42c-6-14.73-10.07-18.82-23.81-16-9.45,1.91-17.28,8.86-15.16,19.31,2.08,10.3,8.82,13.41,25,19.81,12.82,5.16,20.81,7.86,26.12,12.74a29.11,29.11,0,0,1,9.5,16.7c3.54,17.47-7.51,32.07-29,36.42a79.93,79.93,0,0,1-26,.64,168.28,168.28,0,0,0-8.76-21.92Z"/><path class="cls-10" d="M221.38,90.3c.21-37.82,18.13-56.12,46.17-56,33.3.19,45.86,25.23,45.69,56.49-.19,32.85-13.47,56.44-46.33,56.25C234.34,146.9,221.19,123.6,221.38,90.3Zm15,.09c-.1,17.09,2.89,31.12,9,40.07a27.56,27.56,0,0,0,43.08.24c6.19-8.87,9.33-22.88,9.43-40,.12-20.45-3.32-32.73-9.12-40.22-5.51-6.89-12.94-10-21.26-10.05C239.92,40.32,236.54,69.36,236.42,90.39Z"/><path class="cls-11" d="M328,107.25C328,69.43,345.77,51,373.81,51c33.3,0,46,25,46,56.22,0,32.86-13.14,56.52-46,56.52C341.24,163.77,328,140.55,328,107.25Zm15,0c0,17.09,3.07,31.11,9.2,40a27.57,27.57,0,0,0,43.09,0c6.13-8.91,9.2-22.93,9.2-40,0-20.44-3.51-32.71-9.35-40.16-5.55-6.86-13-9.93-21.32-9.93C346.21,57.16,343,86.22,343,107.25Z"/><path class="cls-6" d="M456.61,53.22l50.53,90.11h.29V70c0-10.66-1.17-11.68-11.68-11.68V53.22h29.79v5.11c-9.64,0-10.95,1-10.95,11.68v92.88H504.22L450,67.09h-.29v77.69c0,10.67.87,11.69,11.1,11.69v5.11H431.2v-5.11c10.37,0,11.24-1,11.24-11.69V69.87c0-10.81-.87-11.54-11.39-11.54V53.22Z"/><path class="cls-4" d="M174.89,136.34c4.57-5.6,5.81-10.9,2.48-11.93-2.41-.73-26.75,31.93-26.79,31.05-.05-1.24,24.55-32.12,26.43-37.36,1.28-3.53-.45-4.81-1.65-4.28-6.3,2.75-29.3,36.93-30.11,36.26-.55-.45,26.79-35.53,28.84-40.5.73-1.79.12-5-3-4.15-4.49,1.18-28.56,36.66-30,36.08-.59-.23,16.35-26.36,17.84-31.25-.17-8.05-6.42.45-18.65,16.69-3.68,4.87-22.6,34.48-33.18,51.1-6.28,6.1-11,9.81-11,9.81s12.5,27.29,21.24,28.34c7.41-7.69,21.28-21.19,24.16-26.31C151.42,172.2,166.08,147.15,174.89,136.34Z"/><path class="cls-3" d="M503.69,140c-4.86-.54-6.53,7,6.29,11.16,1.27.41,6.47,1.35,12.07,2.3a28.45,28.45,0,0,1,13.2,6.45l12.3-5.35s-14.49-9.78-22.36-11.89C515.87,141.53,505.4,140.22,503.69,140Z"/></svg>