<?xml version="1.0" encoding="UTF-8"?>
<svg width="406px" height="252px" viewBox="0 0 406 252" version="1.1" xmlns="http://www.w3.org/2000/svg" xmlns:xlink="http://www.w3.org/1999/xlink">
    <!-- Generator: Sketch 47.1 (45422) - http://www.bohemiancoding.com/sketch -->
    <title>illu 1</title>
    <desc>Created with Sketch.</desc>
    <defs>
        <polygon id="path-1" points="5.45060153e-20 0.514447712 5.45060153e-20 21.9762708 43.3596225 21.9762708 43.3596225 0.514447712 0 0.514447712"></polygon>
        <polygon id="path-3" points="294.265533 1.35786575 294.265533 0.01629655 0.393737555 0.01629655 0.393737555 1.35786575 294.265533 1.35786575"></polygon>
        <polygon id="path-5" points="14.4066444 0.205 0.278787302 0.205 0.278787302 1.88571316 14.4066444 1.88571316 14.4066444 0.205"></polygon>
        <polygon id="path-7" points="0.871116982 0.682714286 2.16107353 0.682714286 2.16107353 8.49856614 0.871116982 8.49856614 0.871116982 0.682714286"></polygon>
        <polygon id="path-9" points="0.177428571 1.38014323 0.177428571 0.0899432676 7.99328571 0.0899432676 7.99328571 1.38014323 0.177428571 1.38014323"></polygon>
        <polygon id="path-11" points="0.871116982 0.682714286 2.16107353 0.682714286 2.16107353 8.49856614 0.871116982 8.49856614 0.871116982 0.682714286"></polygon>
        <polygon id="path-13" points="0.177428571 1.38014323 0.177428571 0.0899432676 7.99328571 0.0899432676 7.99328571 1.38014323 0.177428571 1.38014323"></polygon>
    </defs>
    <g id="Kilt---landing-page" stroke="none" stroke-width="1" fill="none" fill-rule="evenodd">
        <g id="Kilt---Landing---Green" transform="translate(-450.000000, -522.000000)">
            <g id="illu-1" transform="translate(450.000000, 522.000000)">
                <path d="M404.981571,172.156586 C403.819571,169.021586 402.055571,163.782586 397.912571,158.617586 C386.834571,144.807586 363.388571,148.588586 376.983571,138.160586 C390.577571,127.732586 391.483571,80.3755856 363.030571,66.5605856 C334.578571,52.7465856 288.577571,72.0875856 286.290571,56.3325856 C284.002571,40.5775856 243.067571,2.95158556 167.691571,0.0755855554 C92.3155706,-2.80041444 150.809571,77.3115856 70.0215706,84.1785856 C-10.7654294,91.0475856 6.67757063,149.815586 13.1965706,173.914586 C20.2295706,199.914586 61.1965706,260.914586 113.523571,236.914586 C127.427571,230.537586 133.136571,213.607586 157.318571,230.914586 C241.155571,290.914586 417.494571,205.914586 404.981571,172.156586" id="Fill-1" fill="#FFFFFF" opacity="0.300000012"></path>
                <g id="Page-1" transform="translate(0.000000, 8.000000)">
                    <g id="Group-51">
                        <path d="M274.552781,147.455702 C277.427052,154.021341 280.660607,160.45819 283.508065,167.07481 C284.942519,170.380436 286.327371,173.711553 287.515152,177.13792 C288.115746,178.859154 288.625179,180.575021 288.991166,182.430411 C289.158742,183.368168 289.11048,184.583629 288.40934,185.499921 C287.709541,186.389382 286.903834,186.825392 286.155772,187.331163 C283.067004,189.335467 279.757034,190.821926 276.422934,192.202401 C273.08079,193.572143 269.694406,194.799679 266.298637,195.986968 L256.118034,199.530052 C254.414117,200.132416 252.782593,200.748197 251.06527,201.424348 C249.102615,202.150136 246.712305,201.070173 245.9562,199.112824 C243.197222,192.490838 240.184869,185.953372 237.441978,179.299188 C236.063829,175.97478 234.715174,172.635614 233.484493,169.241444 C232.877196,167.521552 232.273921,165.884838 231.822135,164.024081 C231.647855,163.067543 231.761807,161.945991 232.390554,161.079337 C233.007235,160.227441 233.875952,159.736426 234.644122,159.297733 C240.940973,155.706352 247.609174,152.957477 254.320275,150.361541 C257.683869,149.083025 261.075615,147.875613 264.510262,146.790284 C266.224903,146.237557 267.952952,145.746543 269.709152,145.289068 C270.596637,145.075758 271.628908,144.996605 272.53248,145.429932 C273.413262,145.835086 274.126467,146.586365 274.483069,147.483875 L274.552781,147.455702 Z M273.992406,147.68511 C273.676021,146.915049 273.056659,146.277804 272.299214,145.939729 C271.555174,145.589579 270.682436,145.651291 269.844554,145.861918 C268.129912,146.326101 266.404545,146.837238 264.705991,147.404722 C261.300838,148.520908 257.933222,149.759176 254.593759,151.068548 C247.938965,153.723513 241.30562,156.550199 235.126742,160.11609 C234.347847,160.558808 233.618554,161.010917 233.180174,161.63743 C232.743135,162.247844 232.64393,163.058152 232.792738,163.856385 C233.198943,165.483709 233.838414,167.231773 234.44169,168.892636 C235.683096,172.250584 237.049179,175.570968 238.444755,178.879277 C241.237248,185.495896 244.163803,192.05617 246.928144,198.711695 C247.487179,200.168639 249.263489,200.978947 250.730117,200.440977 C252.35762,199.80239 254.09103,199.154412 255.776179,198.566805 C259.170607,197.370125 262.574419,196.227108 265.943375,194.990182 C269.316353,193.765329 272.673244,192.501571 275.965786,191.104997 C279.244921,189.699033 282.514672,188.207208 285.443908,186.269982 C286.178563,185.782992 286.962821,185.283929 287.363663,184.732544 C287.771209,184.189208 287.832877,183.451345 287.690772,182.642379 C287.344895,180.972125 286.820716,179.237476 286.275087,177.553807 C285.16372,174.166345 283.839196,170.832545 282.462388,167.521552 C279.707432,160.8942 276.638772,154.398322 273.924034,147.711942 L273.992406,147.68511 Z" id="Fill-3" fill="#FFFFFF"></path>
                        <path d="M67.0748079,156.896458 C64.704607,161.632198 62.5824192,166.530267 60.1411659,171.275397 C58.9305939,173.653999 57.6757817,176.017844 56.2480306,178.30522 C55.8659563,178.865996 55.5321441,179.45092 55.1058297,179.990231 C54.6902402,180.525517 54.3376594,181.102391 53.6686943,181.625603 C53.3375633,181.876477 52.9219738,182.079054 52.4688472,182.146132 C52.0157205,182.217235 51.5867249,182.148815 51.2220786,182.054906 C50.4994891,181.856353 49.9257074,181.610846 49.264786,181.361314 C44.2468777,179.233586 39.8402882,176.201639 35.3988428,173.262261 L28.7762227,168.813618 C27.6581528,168.06368 26.5856638,167.396921 25.4005633,166.656374 C24.1001703,165.773622 23.5330917,163.896767 24.31869,162.445189 C26.8001616,157.757746 29.1006507,152.94822 31.6263624,148.255411 C32.8825153,145.904982 34.1641397,143.563944 35.5449694,141.271202 C35.9055939,140.70506 36.2420873,140.126843 36.622821,139.568751 C36.9888079,139.036148 37.3360262,138.378779 38.00231,137.905205 C38.6364192,137.411507 39.5855721,137.292108 40.3014585,137.504076 C41.0387948,137.694579 41.613917,138.005823 42.2359607,138.264745 C47.115786,140.4998 51.6912926,143.248675 56.1997686,146.092802 C58.4452926,147.528281 60.6640044,149.00669 62.8317729,150.558886 C63.9203493,151.334313 64.9807729,152.131205 66.0371747,152.975052 C66.5613537,153.412403 67.0761485,153.991961 67.257131,154.727141 C67.443476,155.432806 67.3684017,156.2136 67.0104585,156.862919 L67.0748079,156.896458 Z M66.5439258,156.609363 C66.8241135,156.084809 66.8790786,155.447564 66.7168646,154.870689 C66.5680568,154.297839 66.1538079,153.826948 65.6604629,153.425819 C64.6268515,152.626244 63.549,151.837401 62.4617642,151.086122 C60.2832707,149.572832 58.0538341,148.131987 55.7962445,146.736755 C51.2730218,143.971781 46.6599782,141.298033 41.8525459,139.134082 C40.6285677,138.598796 39.4314017,137.987041 38.5787729,138.702097 C38.1390524,139.005292 37.8307118,139.553993 37.4607031,140.117452 C37.0960568,140.660788 36.767607,141.237663 36.419048,141.795756 C35.0744148,144.072398 33.818262,146.412095 32.5848996,148.763866 C30.1221965,153.470091 27.750655,158.225954 25.246393,162.941569 C24.7235546,163.872618 25.0908821,165.192722 25.998476,165.809844 C27.0682838,166.480629 28.2507031,167.223858 29.3406201,167.959038 C31.5593319,169.437447 33.7498908,170.941346 35.9833493,172.379509 C38.2087642,173.827062 40.4475852,175.250467 42.7279651,176.590694 C45.0123668,177.910798 47.3208996,179.229561 49.734,180.172684 C50.3185066,180.388677 50.9767467,180.651624 51.5398035,180.795172 C52.1068821,180.93872 52.4675066,180.882374 52.8710306,180.573813 C53.2651703,180.281351 53.6445633,179.717892 54.0293188,179.197363 C54.4207773,178.684884 54.7760393,178.129474 55.1500699,177.596871 C56.5885459,175.400722 57.8822358,173.085174 59.1343668,170.749502 C61.6399694,166.07145 63.9123057,161.267291 66.4795764,156.574482 L66.5439258,156.609363 Z" id="Fill-5" fill="#FFFFFF"></path>
                        <g id="Group-9" transform="translate(0.000000, 180.069786)">
                            <mask id="mask-2" fill="white">
                                <use xlink:href="#path-1"></use>
                            </mask>
                            <g id="Clip-8"></g>
                            <path d="M43.1965087,16.94147 C42.6696485,19.1134705 40.9590284,20.9822764 38.7765131,21.6584273 C37.6959803,22.0193094 36.5162424,22.0676059 35.3981725,21.8301481 L32.3040415,21.0949682 C28.1977489,20.1518451 24.057941,19.2999486 19.9529891,18.2709651 C15.8533996,17.2245411 11.7551507,16.1338453 7.73867904,14.7171483 C6.73322052,14.3643156 5.74518996,13.9605032 4.75179694,13.5526662 C3.75840393,13.1260472 2.75830786,12.5961274 1.91640393,11.8072847 C0.215168122,10.1839859 -0.365316594,7.66720212 0.221871179,5.45227138 L0.343866812,5.23091246 C0.264770742,5.31140661 0.207124454,5.45092981 0.207124454,5.56362162 L0.22321179,5.44958824 C0.821124454,3.23465749 2.53308515,1.31218883 4.84563974,0.721898385 C5.98113755,0.449559838 7.10456987,0.503222606 8.16633406,0.562251651 C9.22943886,0.649453649 10.3059498,0.729947801 11.3610109,0.89898552 C15.6067271,1.48659283 19.7224039,2.64705018 23.7656878,3.93361505 C27.8143341,5.21481363 31.7785218,6.71737113 35.789631,8.0254011 L38.8220939,8.95913326 C39.8878799,9.2972087 40.8611638,9.91433053 41.6119061,10.738054 C43.1536092,12.3613527 43.7260502,14.7909346 43.1254563,16.922688 L43.1965087,16.94147 Z M42.6120022,16.7845064 C43.1267969,14.8164244 42.5597183,12.618934 41.1440328,11.1794303 C40.4536179,10.4482751 39.570155,9.91433053 38.6129585,9.62857629 L35.5617271,8.75119004 C31.4996747,7.50621382 27.5153777,6.08012576 23.4814782,4.83917425 C19.4516004,3.60493059 15.3694389,2.50618542 11.2162249,1.97760715 C10.1799323,1.81796042 9.14095852,1.76966393 8.09662227,1.67172938 C7.05362664,1.60330935 6.03074017,1.5617207 5.09901528,1.78307962 C3.27176201,2.21640647 1.72871834,3.86385345 1.2393952,5.72192679 L1.25682314,5.6078934 C1.25548253,5.72192679 1.19649563,5.86144998 1.11605895,5.9432857 L1.23805459,5.72460993 C0.721919214,7.57463385 1.2393952,9.75334223 2.62022489,11.0640553 C4.0385917,12.3881841 6.1286048,13.0267711 8.08455677,13.7163376 C12.0621507,15.0337586 16.1617402,16.0238367 20.2653515,16.9830586 C24.3703035,17.9449638 28.4765961,18.9256508 32.574845,19.9908568 L35.6247358,20.8038477 C36.565845,21.0372808 37.5632598,21.0077662 38.5016878,20.7461602 C40.3999934,20.2484381 41.9819148,18.6935594 42.5422904,16.7657244 L42.6120022,16.7845064 Z" id="Fill-7" fill="#FFFFFF" mask="url(#mask-2)"></path>
                        </g>
                        <path d="M7.83654367,187.22585 C12.385238,188.308496 16.9567227,189.303941 21.4424083,190.614654 C22.5712031,190.917848 23.6879323,191.265315 24.827452,191.529604 C25.9602686,191.814017 27.1118537,192.028668 28.2486921,192.305031 C30.5103035,192.888614 32.7451026,193.576839 34.9329803,194.436784 L34.7573603,195.092812 C32.4340808,194.739979 30.1537009,194.212742 27.904155,193.583546 C26.7834039,193.252179 25.6800808,192.860441 24.5566485,192.538464 C23.4385786,192.196364 22.2977183,191.936099 21.1702642,191.631563 C16.6322948,190.515378 12.1761026,189.083923 7.6984607,187.738329 L7.83654367,187.22585 Z" id="Fill-10" fill="#FFFFFF"></path>
                        <path d="M284.93595,122.581667 C284.611522,124.791232 283.076522,126.808952 280.9664,127.683655 C279.923404,128.142472 278.753051,128.298094 277.617553,128.162595 L274.468457,127.715853 C270.293793,127.152394 266.093658,126.685528 261.912291,126.036208 C257.733605,125.369448 253.553579,124.6611 249.423155,123.617359 C248.388203,123.357094 247.370679,123.047192 246.342431,122.730582 C245.314182,122.396531 244.269845,121.961862 243.35957,121.253514 C241.51623,119.792545 240.709182,117.340156 241.091256,115.079612 L241.190461,114.848862 C241.119409,114.937406 241.075169,115.079612 241.084553,115.192304 L241.091256,115.075588 C241.484055,112.817727 243.012352,110.746344 245.260557,109.945427 C246.366562,109.571129 247.489994,109.521491 248.553099,109.482586 C249.618885,109.473195 250.699417,109.453071 251.766544,109.525516 C256.047116,109.721385 260.252614,110.498154 264.396444,111.409079 C268.544295,112.314638 272.629138,113.445581 276.743474,114.383338 L279.849671,115.032657 C280.942269,115.272798 281.966496,115.79601 282.789631,116.548631 C284.472099,118.024357 285.265741,120.390885 284.862217,122.568252 L284.93595,122.581667 Z M284.340719,122.478367 C284.67319,120.471379 283.90502,118.335601 282.363317,117.031596 C281.609893,116.367519 280.68219,115.91541 279.702203,115.719541 L276.583941,115.123884 C272.425365,114.25723 268.325776,113.202757 264.195352,112.337445 C260.070291,111.477499 255.905011,110.758418 251.720963,110.612187 C250.672605,110.547792 249.634972,110.594747 248.585273,110.593405 C247.540937,110.621578 246.519391,110.673899 245.610457,110.981118 C243.830125,111.579458 242.445273,113.359721 242.127548,115.255358 L242.134252,115.139983 C242.143636,115.254016 242.098055,115.398906 242.025662,115.487449 L242.126208,115.258041 C241.783011,117.148312 242.497557,119.269333 243.992339,120.449914 C245.527339,121.638544 247.664273,122.082604 249.676531,122.588375 C253.757352,123.535523 257.930675,124.145937 262.105339,124.726836 C266.280003,125.306394 270.458688,125.907417 274.637374,126.591618 L277.748933,127.121537 C278.70747,127.266427 279.698182,127.147027 280.608457,126.800902 C282.453138,126.131459 283.887592,124.437058 284.266985,122.466292 L284.340719,122.478367 Z" id="Fill-12" fill="#FFFFFF"></path>
                        <path d="M248.829801,116.078142 C253.457591,116.738194 258.100128,117.312386 262.689041,118.207213 C263.839286,118.403082 264.984168,118.647247 266.141115,118.806894 C267.295382,118.985323 268.464395,119.095331 269.620002,119.264369 C271.925853,119.638667 274.214277,120.12029 276.471866,120.774976 L276.356574,121.444419 C274.009163,121.304896 271.692587,120.990969 269.394779,120.571058 C268.247216,120.342991 267.113059,120.054553 265.964155,119.835878 C264.820613,119.59842 263.660984,119.444139 262.509399,119.242904 C257.888312,118.547971 253.320849,117.531062 248.73998,116.602696 L248.829801,116.078142 Z" id="Fill-14" fill="#FFFFFF"></path>
                        <path d="M241.534998,80.7755538 C242.686583,76.4825324 240.144784,72.0660866 235.854828,70.9109955 C225.545527,68.1393135 210.660719,61.3818295 197.095072,60.4870028 C194.944732,60.3447965 192.795732,60.2173474 190.92826,61.2946275 C189.059448,62.3719076 187.697387,64.145462 187.138352,66.228919 C187.138352,66.2302606 187.137011,66.2316021 187.137011,66.2316021 C186.590042,68.2721289 186.874252,70.445471 187.927972,72.2753714 C188.981693,74.1052718 190.812968,75.166453 192.755514,75.9901765 C202.617051,80.1637983 221.315898,83.6720017 231.677483,86.4597825 C235.970121,87.613532 240.382072,85.0685753 241.534998,80.7755538" id="Fill-16" fill="#4BDF75"></path>
                        <path d="M196.222603,68.5873977 L231.176362,77.9891146" id="Stroke-18" stroke="#FFFFFF" stroke-width="1.5" stroke-linecap="round" stroke-linejoin="round"></path>
                        <path d="M124.761717,19.261118 C124.272393,18.0604136 123.327262,17.1052163 122.132778,16.6034694 C120.936952,16.100381 119.647284,16.2546614 118.393813,16.5820043 C106.092363,19.7923794 81.9613585,29.1833638 70.3382581,36.1944044 C69.2295725,36.8638475 68.182555,37.631225 67.6811664,38.8252216 C67.1784371,40.0219014 67.2937297,41.324565 67.6597166,42.5668581 C71.2364677,54.6731786 82.4788345,78.9260665 86.7527035,89.4144545 C87.2433672,90.6151589 88.1884983,91.5716978 89.3816424,92.0747862 C90.5774677,92.5765331 91.9221009,92.5845825 93.1206074,92.0949098 C103.802599,87.7348099 130.223367,80.1629933 141.176162,72.4825097 C142.236586,71.7379388 143.333206,71.0456891 143.834594,69.8516925 C144.337324,68.6550127 144.141594,67.3724726 143.854703,66.110056 C140.948258,53.3316094 129.035586,29.7508476 124.761717,19.261118" id="Fill-20" fill="#FFED72"></path>
                        <path d="M323.615438,119.110448 C329.560164,126.06432 344.617266,141.043508 350.169391,150.166177 C350.71772,151.067499 351.204458,152.01031 351.155109,153.084161 C351.106026,154.155544 350.485488,155.00502 349.905532,155.884966 C343.91268,164.965906 326.527088,178.34426 319.845333,184.764076 C319.095776,185.484741 318.105777,185.859404 317.093089,185.807642 C316.082012,185.754077 315.131891,185.277309 314.450359,184.481749 C308.505993,177.528921 293.761614,161.836692 287.896765,153.427064 C287.295708,152.563812 286.862683,151.582552 286.912033,150.5087 C286.961115,149.437318 287.525123,148.543418 288.160624,147.708275 C294.824927,138.958499 310.04189,124.812882 318.220823,118.829165 C319.054168,118.219277 319.96038,117.733837 320.973426,117.786643 C321.985129,117.838785 322.934892,118.314508 323.615438,119.110448 Z" id="Fill-20" fill="#FFED72" opacity="0.5" transform="translate(319.033383, 151.797540) rotate(20.000000) translate(-319.033383, -151.797540) "></path>
                        <path d="M354.832448,140.902579 C359.185279,145.994324 370.210349,156.962345 374.275711,163.642121 C374.677207,164.302084 375.033605,164.992426 374.99747,165.778719 C374.961531,166.563204 374.507163,167.185205 374.082509,167.829516 C369.694439,174.478738 356.964408,184.2746 352.071912,188.9753 C351.523072,189.502984 350.798178,189.777318 350.056671,189.739417 C349.316343,189.700196 348.620647,189.351099 348.121618,188.768575 C343.76905,183.677595 332.972961,172.187473 328.678618,166.029798 C328.238513,165.397711 327.921445,164.679214 327.95758,163.892922 C327.993518,163.108437 328.406495,162.453908 328.87182,161.842402 C333.751538,155.435665 344.893661,145.077999 350.882417,140.696618 C351.492606,140.250048 352.156151,139.894601 352.897921,139.933266 C353.638707,139.971445 354.33414,140.319778 354.832448,140.902579 Z" id="Fill-20" fill="#FFED72" opacity="0.599999964" transform="translate(351.477388, 164.836633) rotate(20.000000) translate(-351.477388, -164.836633) "></path>
                        <path d="M222.665775,0.00490452739 C230.064609,0.00490452739 235.83326,6.01915924 236.071889,13.4205965 C236.407041,23.8177578 230.064609,26.8362885 222.665775,26.8362885 C215.266941,26.8362885 209.259662,20.8247169 209.259662,13.4205965 C209.259662,6.0164761 215.266941,0.00490452739 222.665775,0.00490452739" id="Fill-22" fill="#79E798" opacity="0.2"></path>
                        <path d="M294.664052,52.3682604 C294.975074,50.1318646 293.419965,48.065848 291.185166,47.7532624 C286.105589,47.0395476 280.263205,44.5012987 272.360301,45.1130542 C270.112096,45.2874582 268.467166,46.4546234 267.748598,48.5930847 C265.51648,55.2338522 265.51648,59.2585598 265.192052,66.8464752 C265.095528,69.101653 266.434799,71.1488876 268.669598,71.4601317 C273.749174,72.1738465 282.414886,73.3893082 287.494462,74.1016814 C289.727921,74.4156086 291.793803,72.8553637 292.107506,70.6203094 C292.800602,65.6658943 295.00993,59.2585598 294.664052,52.3682604" id="Fill-24" fill="#67B1FF"></path>
                        <path d="M166.084989,21.4700117 C178.485644,21.1346194 186.529312,30.5256038 185.523854,40.9227651 C184.490242,51.6097053 176.764299,59.3411686 166.084989,60.3755184 C155.695251,61.3816953 146.646124,51.6593434 146.646124,40.9227651 C146.646124,30.1861868 155.356076,21.4700117 166.084989,21.4700117" id="Fill-26" fill="#B3D4F8"></path>
                        <path d="M351.438865,56.0087192 C363.83952,55.6733269 371.883188,65.0643112 370.877729,75.4614725 C369.844118,86.1484128 362.118175,93.8798761 351.438865,94.9142259 C341.049127,95.9204028 332,86.1980508 332,75.4614725 C332,64.7248942 340.709952,56.0087192 351.438865,56.0087192" id="Fill-26" fill="#56A7FF" opacity="0.4"></path>
                        <path d="M222.665775,4.47635466 C227.597884,4.47635466 231.603631,8.48496343 231.603631,13.4205965 C231.603631,18.3562296 227.597884,22.3648384 222.665775,22.3648384 C217.733666,22.3648384 213.824443,18.3562296 213.727919,13.4205965 C213.616648,7.71892742 217.733666,4.47635466 222.665775,4.47635466" id="Fill-28" fill="#79E798" opacity="0.400000006"></path>
                        <path d="M222.665775,8.94914637 C225.1325,8.94914637 227.022762,9.06049661 227.134033,13.4205965 C227.197041,15.8890838 225.1325,17.8920466 222.665775,17.8920466 C220.19905,17.8920466 218.197517,15.8890838 218.197517,13.4205965 C218.197517,10.9521092 220.19905,8.94914637 222.665775,8.94914637" id="Fill-30" fill="#79E798" opacity="0.600000024"></path>
                        <path d="M106.453926,137.644136 C104.77414,143.695954 102.903987,149.699476 100.779118,155.614455 C98.6663144,161.533458 96.3658253,167.381358 93.8856943,173.150106 C91.4015415,178.914829 89.0018472,184.710408 86.6785677,190.53416 L79.4245197,207.880649 L78.7890699,207.644533 C80.7450218,201.671867 83.0146769,195.806527 85.4572707,190.023022 C87.9668952,184.26769 90.5475721,178.547239 92.9164323,172.742269 C95.290655,166.939982 97.6876681,161.151111 99.888952,155.28577 C102.080852,149.42043 104.136009,143.500085 105.943153,137.497904 L106.453926,137.644136 Z" id="Fill-32" fill="#EAF2FB"></path>
                        <path d="M64.1331044,201.680453 C64.827541,204.124792 65.5300214,206.240447 66.1882616,208.044857 L75.8058074,208.044857 C76.1744755,207.694708 76.5847026,207.336509 77.052576,206.964894 C83.7985323,201.602642 82.3292223,198.777297 79.7163707,191.680396 C77.1021786,184.583495 84.2288686,185.831155 87.9731961,176.519323 C91.7175236,167.208833 86.7773707,168.680534 87.2988686,161.696325 C87.8203664,154.710774 94.3759559,145.408333 86.828314,142.106731 C79.2806721,138.803788 76.6155367,145.303691 75.3097812,155.966483 C74.0040258,166.627933 60.8191131,168.672485 68.5584624,179.853122 C71.460886,184.050892 61.5349996,192.52961 64.1331044,201.680453" id="Fill-34" fill="#D6E3F2"></path>
                        <path d="M83.2236782,148.499845 C81.1095341,153.130942 79.3841672,157.927052 78.0140624,162.81573 C76.6506607,167.708433 75.6961454,172.703095 74.9427218,177.728613 C74.179914,182.758156 73.8514642,187.846728 73.6021105,192.936642 C73.2803638,198.022531 72.9224205,203.116469 72.3178048,208.194308 L71.6407961,208.148695 C71.723914,203.042682 71.9115996,197.943378 72.2816083,192.846757 C72.7293725,187.75416 73.2535515,182.664246 73.9024074,177.583724 C74.5499227,172.500518 75.6264336,167.464267 77.1024467,162.552782 C78.5637131,157.63459 80.4968747,152.867994 82.7437393,148.271778 L83.2236782,148.499845 Z" id="Fill-36" fill="#EAF2FB"></path>
                        <path d="M222.431286,201.773558 C221.515649,198.737587 221.990225,195.464158 223.018474,192.56771 C224.011867,189.632357 225.584404,186.951901 226.619356,184.18022 C227.11002,182.818527 227.434448,181.305237 226.749396,180.280278 L225.525417,178.300122 C225.170155,177.594456 224.848409,176.855252 224.56688,176.105315 C224.089623,174.553119 223.991758,172.833227 224.454269,171.224686 C224.952976,169.630902 225.898107,168.313481 226.836535,167.080579 C228.779081,164.67112 230.883841,162.501803 232.134631,159.844154 C232.510003,159.20825 232.656129,158.487828 232.930955,157.81436 C233.098531,157.10467 233.240636,156.408396 233.370675,155.670533 C233.581151,154.151876 233.799671,152.631878 234.122758,151.122613 C234.424396,149.612006 234.811832,148.109449 235.357461,146.641772 C235.904431,145.186169 236.588142,143.719834 237.734365,142.532545 C238.859138,141.329158 240.591208,140.639591 242.232116,140.768382 C242.643684,140.783139 243.05123,140.816678 243.437326,140.928029 C243.827444,141.024622 244.233649,141.083651 244.595614,141.241956 C244.966963,141.381479 245.340994,141.508928 245.708321,141.663209 L246.778129,142.246791 C248.177728,143.101371 249.224745,144.634784 249.45399,146.270157 C249.716749,147.896139 249.464714,149.484557 249.141627,150.997847 C248.464618,154.025769 247.323758,156.872579 246.756679,159.797199 C246.47381,161.244753 246.327684,162.728528 246.550225,164.145225 C246.642728,164.854915 246.873313,165.5257 247.141435,166.197826 C247.422963,166.865927 247.792972,167.54342 248.078522,168.305431 C248.722016,169.840186 248.597339,171.593617 248.250121,173.102883 C247.882793,174.640321 247.37202,176.091899 246.71378,177.509937 C245.483099,180.391628 243.323374,182.83865 240.984007,184.781243 C239.879343,185.786078 238.659387,186.758716 238.377859,188.085527 C238.03064,189.409656 238.518623,190.837086 239.034758,192.248417 C239.553575,193.679871 240.100544,195.108642 240.505409,196.612541 C240.90223,198.099 241.163649,199.757179 240.682369,201.337548 C239.730535,204.553289 236.84688,206.3577 234.676431,208.304317 L234.5665,208.402251 L234.429758,208.40091 L224.812212,208.347247 L224.591011,208.345905 L224.528003,208.148695 L222.502339,201.753434 L222.431286,201.773558 Z M223.013112,201.608545 L225.096422,207.940752 L224.812212,207.742199 L234.429758,207.688537 L234.185767,207.78513 C235.346736,206.729315 236.53854,205.826439 237.588238,204.763916 C238.628553,203.706759 239.530784,202.495322 239.896771,201.117531 C240.302976,199.745105 240.067029,198.265355 239.668867,196.839266 C239.266684,195.407812 238.711671,193.991115 238.18347,192.563685 C237.671356,191.161746 237.049313,189.549179 237.466243,187.854778 C237.529252,187.426817 237.758496,187.060569 237.927413,186.672855 C238.163361,186.340146 238.376518,185.964507 238.658046,185.68546 C239.183566,185.064314 239.776116,184.570616 240.340514,184.054112 C242.654409,182.096763 244.607679,179.83756 245.774011,177.08466 C246.390693,175.740408 246.884038,174.296879 247.211147,172.874816 C247.520828,171.443362 247.61333,169.998492 247.055636,168.694486 C246.803601,168.029068 246.437614,167.367674 246.119889,166.635178 C245.81423,165.899998 245.558173,165.116521 245.454946,164.312921 C245.212295,162.709746 245.383893,161.113279 245.685531,159.586573 C246.29819,156.525112 247.452457,153.683669 248.112038,150.765756 C248.431103,149.318202 248.650963,147.834427 248.427081,146.444561 C248.221968,145.049329 247.41626,143.864724 246.223116,143.113445 C245.043378,142.363508 243.55664,141.888592 242.182514,141.78395 C240.782915,141.688698 239.427557,142.199836 238.46902,143.239552 C237.495736,144.264511 236.865649,145.627545 236.368282,147.014728 C235.870915,148.408618 235.511631,149.868246 235.236806,151.345313 C234.941872,152.819698 234.746142,154.319572 234.557116,155.818105 C234.432439,156.578775 234.287653,157.382375 234.10533,158.149752 C233.817099,158.888957 233.648182,159.685849 233.254042,160.375416 C231.908068,163.273205 229.710806,165.553873 227.870147,167.886862 C226.973278,169.067443 226.152824,170.289612 225.726509,171.617766 C225.328348,172.951285 225.37661,174.358591 225.764046,175.732358 C226.008038,176.401801 226.285544,177.075269 226.597907,177.728613 L227.74547,179.652423 C228.233452,180.4359 228.36081,181.389756 228.261605,182.216162 C228.167762,183.053301 227.927793,183.822021 227.654308,184.559884 C226.491998,187.471089 224.936889,190.065684 223.889872,192.881637 C222.820064,195.658686 222.303928,198.710756 223.082824,201.58708 L223.013112,201.608545 Z" id="Fill-38" fill="#FFFFFF"></path>
                        <path d="M241.847897,148.499845 C239.733753,153.130942 238.008386,157.927052 236.638281,162.81573 C235.274879,167.708433 234.320364,172.703095 233.566941,177.728613 C232.804133,182.758156 232.475683,187.846728 232.226329,192.936642 C231.904583,198.022531 231.546639,203.116469 230.942024,208.194308 L230.265015,208.148695 C230.348133,203.042682 230.535818,197.943378 230.905827,192.846757 C231.353591,187.75416 231.87777,182.664246 232.526626,177.583724 C233.174141,172.500518 234.250652,167.464267 235.726666,162.552782 C237.187932,157.63459 239.121093,152.867994 241.367958,148.271778 L241.847897,148.499845 Z" id="Fill-40" fill="#FFFFFF"></path>
                        <g id="Group-44" transform="translate(12.065502, 206.601657)">
                            <mask id="mask-4" fill="white">
                                <use xlink:href="#path-3"></use>
                            </mask>
                            <g id="Clip-43"></g>
                        </g>
                        <path d="M247.846597,220.550295 C247.846597,220.550295 105.511208,223.952514 55.1739328,220.550295 C52.3036838,220.355767 49.9656576,219.935856 49.9656576,217.115877 C49.9656576,217.115877 48.2295659,118.510541 49.9656576,84.4896881 C50.1091031,81.6723928 52.2969808,79.3836758 55.1739328,79.3836758 L247.846597,79.3836758 C250.723548,79.3836758 252.912767,81.6723928 253.056212,84.4896881 C254.792304,118.510541 253.056212,217.115877 253.056212,217.115877 C253.056212,219.935856 250.723548,220.550295 247.846597,220.550295" id="Fill-45" fill="#67B1FF"></path>
                        <path d="M240.706232,210.796416 C240.706232,210.796416 110.973931,212.124569 63.0551188,210.796416 C60.4060707,210.722629 58.2530489,208.788087 58.2530489,206.310208 C58.2530489,206.310208 56.652359,122.59629 58.2530489,92.6994209 C58.3857694,90.2242257 60.408752,88.2400448 63.0551188,88.2118719 C105.964066,87.7476889 193.680267,86.3350166 240.706232,88.2118719 C243.356621,88.3178559 245.376922,90.2242257 245.509643,92.6994209 C247.110333,122.59629 245.509643,206.310208 245.509643,206.310208 C245.509643,208.788087 243.359302,210.796416 240.706232,210.796416" id="Fill-47" fill="#FFFFFF"></path>
                        <path d="M154.38601,83.5607856 C154.38601,84.4837852 153.637949,85.2323809 152.716949,85.2323809 C151.793268,85.2323809 151.046547,84.4837852 151.046547,83.5607856 C151.046547,82.6391276 151.793268,81.890532 152.716949,81.890532 C153.637949,81.890532 154.38601,82.6391276 154.38601,83.5607856" id="Fill-49" fill="#225E9F"></path>
                    </g>
                    <g id="Group-58" transform="translate(28.000000, 58.000000)" fill="#79E798">
                        <path d="M17.496945,0.745065 C17.581995,0.709965 17.669745,0.680265 17.761545,0.670815 C17.995095,0.645165 18.232695,0.716715 18.408195,0.874665 C18.462195,0.917865 18.504045,0.971865 18.545895,1.025865 C21.785895,7.466715 23.135895,7.466715 26.151795,14.192415 C26.250345,14.378715 26.290845,14.582565 26.243595,14.794515 C26.149095,15.215715 25.737345,15.501915 25.306695,15.445215 C25.216245,15.431715 25.125795,15.403365 25.044795,15.360165 C24.916545,15.298065 24.817995,15.203565 24.732945,15.088815 C21.299895,11.161665 18.807795,6.733665 17.128395,1.926315 C17.083845,1.841265 17.047395,1.761615 17.029845,1.669815 C16.985295,1.437615 17.039295,1.195965 17.178345,1.006965 C17.235045,0.932715 17.301195,0.873315 17.376795,0.816615 C17.436195,0.776115 17.436195,0.776115 17.496945,0.745065" id="Fill-52"></path>
                        <path d="M7.668675,8.303175 C7.741575,8.243775 7.814475,8.191125 7.902225,8.157375 C8.116875,8.065575 8.365275,8.068275 8.578575,8.164125 C8.642025,8.195175 8.698725,8.232975 8.755425,8.273475 C12.794625,11.559375 16.297875,15.205725 19.790325,18.731925 C19.938825,18.885825 20.036025,19.069425 20.049525,19.285425 C20.077875,19.714725 19.764675,20.107575 19.338075,20.172375 C19.244925,20.187225 19.151775,20.185875 19.059975,20.168325 C18.919575,20.144025 18.798075,20.081925 18.683325,19.999575 C14.278275,17.206425 10.626525,13.670775 7.649775,9.542475 C7.584975,9.472275 7.528275,9.402075 7.483725,9.318375 C7.374375,9.113175 7.359525,8.864775 7.437825,8.647425 C7.470225,8.555625 7.518825,8.478675 7.572825,8.404425 C7.621425,8.351775 7.621425,8.351775 7.668675,8.303175" id="Fill-54"></path>
                        <path d="M0.396495,18.3438 C0.447795,18.26685 0.505845,18.19665 0.578745,18.1359 C0.759645,17.98875 0.995895,17.92125 1.228095,17.955 C1.298295,17.9631 1.363095,17.98335 1.427895,18.00765 C6.235245,20.00835 10.632195,22.50855 14.983245,24.894 C15.166845,24.9993 15.313995,25.14915 15.388245,25.3503 C15.540795,25.75665 15.349095,26.2224 14.957595,26.406 C14.875245,26.44245 14.784795,26.4708 14.691645,26.4789 C14.548545,26.4951 14.416245,26.4708 14.282595,26.4222 C9.260595,25.002 4.756995,22.6476 0.731295,19.53585 C0.648945,19.4913 0.573345,19.44 0.507195,19.3725 C0.345195,19.2051 0.258795,18.97155 0.272295,18.738 C0.277695,18.6435 0.301995,18.5571 0.331695,18.46935 C0.362745,18.40455 0.362745,18.4059 0.396495,18.3438" id="Fill-56"></path>
                    </g>
                    <g id="Group-64" transform="translate(210.000000, 229.000000)">
                        <path d="M0.667714286,4.083375 C1.843,3.977125 3.01692857,3.904625 4.1895,3.820875 C5.36071429,3.742125 6.52785714,3.679625 7.69635714,3.710875 C8.87028571,3.763375 10.0292857,3.582125 11.1842143,3.384625 C12.3445714,3.275875 13.5144286,3.292125 14.7141429,3.489625 L14.7955714,4.272125 C13.6555714,4.680875 12.4816429,4.880875 11.2982143,4.922125 C10.1066429,4.875875 8.9205,4.803375 7.7425,4.929625 C6.56042857,5.033375 5.37835714,5.007125 4.20035714,4.944625 C3.01828571,4.878375 1.843,4.804625 0.667714286,4.699625 L0.667714286,4.083375 Z" id="Fill-59" fill="#529BEC"></path>
                        <g id="Group-63" transform="translate(3.769841, 0.000000)">
                            <mask id="mask-6" fill="white">
                                <use xlink:href="#path-5"></use>
                            </mask>
                            <g id="Clip-62"></g>
                            <path d="M0.278787302,0.969375 C1.45407302,0.863125 2.62800159,0.790625 3.80057302,0.708125 C4.9717873,0.629375 6.13893016,0.566875 7.30743016,0.596875 C8.48000159,0.649375 9.63900159,0.468125 10.7939302,0.271875 C11.9542873,0.161875 13.1255016,0.178125 14.3238587,0.375625 L14.4066444,1.158125 C13.2666444,1.568125 12.0927159,1.766875 10.9092873,1.808125 C9.71771587,1.761875 8.53157302,1.689375 7.35357302,1.816875 C6.17150159,1.919375 4.98807302,1.893125 3.81007302,1.830625 C2.62935873,1.765625 1.45407302,1.691875 0.278787302,1.585625 L0.278787302,0.969375 Z" id="Fill-61" fill="#529BEC" mask="url(#mask-6)"></path>
                        </g>
                    </g>
                    <g id="Group-81" transform="translate(43.000000, 87.000000)">
                        <path d="M210.427413,137.611096 C210.427413,137.611096 61.2537126,137.861096 7.31536637,137.611096 C2.96138157,137.074999 -0.386080195,133.743444 0.0600688643,127.460015 C0.0788823788,127.20333 2.55823483,127.084346 5.64096357,127.084346 L212.100472,127.084346 C215.183201,127.084346 217.618207,127.210014 217.681367,127.460015 C218.871994,132.079004 215.524532,137.074999 210.427413,137.611096" id="Fill-65" fill="#529BEC"></path>
                        <path d="M129.758691,132.027266 C129.758691,132.027266 99.194793,132.144913 88.1418532,132.027266 C87.2495551,131.775929 86.5642056,130.211756 86.6555855,127.261218 C86.659617,127.13956 87.1689257,127.084747 87.7991784,127.084747 L130.10271,127.084747 C130.734306,127.084747 131.232864,127.14357 131.244959,127.261218 C131.489535,129.429669 130.802841,131.775929 129.758691,132.027266" id="Fill-67" fill="#3F72AC"></path>
                        <path d="M135.403014,62.2956344 C135.403014,62.2956344 97.5891939,62.7688969 83.6241908,62.2956344 C82.8514929,62.2688964 82.2239278,61.5817298 82.2239278,60.7020496 C82.2239278,60.7020496 81.7576214,30.9466676 82.2239278,20.31965 C82.2615548,19.4399698 82.8528367,18.7354235 83.6241908,18.7247283 C96.1298027,18.5602896 121.696025,18.0576153 135.403014,18.7247283 C136.174368,18.7621615 136.764306,19.4399698 136.803277,20.31965 C137.269584,30.9466676 136.803277,60.7020496 136.803277,60.7020496 C136.803277,61.5817298 136.175712,62.2956344 135.403014,62.2956344" id="Fill-69" fill="#D6E3F2"></path>
                        <path d="M15.2201333,9.12645521 C15.2201333,9.12645521 15.3289829,6.61843091 15.3907987,5.47805526 C15.5238371,3.01281177 17.5503214,1.03553676 20.2043708,1.00746186 C63.2160965,0.544894477 151.142401,-0.864198062 198.281005,1.00746186 C200.936398,1.11307695 202.962883,3.01281177 203.095921,5.47805526 C203.157737,6.61442021 203.266586,9.11576001 203.266586,9.11576001 L15.2201333,9.12645521 Z" id="Fill-71" fill="#225E9F"></path>
                        <path d="M24.7200174,4.69797415 C24.7200174,6.07765489 23.595238,7.19664014 22.2097571,7.19664014 C20.9532831,7.19664014 19.6994967,5.94797559 19.6994967,4.69797415 C19.6994967,2.82631423 20.8229323,2.20064505 22.2097571,2.20064505 C23.595238,2.20064505 24.7200174,3.4493096 24.7200174,4.69797415" id="Fill-73" fill="#4BDF75"></path>
                        <path d="M196.119063,62.2956344 C196.119063,62.2956344 158.305243,62.7688969 144.34024,62.2956344 C143.567542,62.2688964 142.939977,61.5817298 142.939977,60.7020496 C142.939977,60.7020496 142.473671,30.9466676 142.939977,20.31965 C142.978948,19.4399698 143.568886,18.7354235 144.34024,18.7247283 C156.845852,18.5602896 182.413418,18.0576153 196.119063,18.7247283 C196.891761,18.7621615 197.481699,19.4399698 197.519327,20.31965 C197.985633,30.9466676 197.519327,60.7020496 197.519327,60.7020496 C197.519327,61.5817298 196.891761,62.2956344 196.119063,62.2956344" id="Fill-75" fill="#D6E3F2"></path>
                        <path d="M192.570566,117.08888 C192.570566,117.08888 71.2623679,117.607597 26.4566392,117.08888 C23.9772868,117.060805 21.9655845,116.304119 21.9655845,115.337541 C21.9655845,115.337541 20.4685663,82.6837595 21.9655845,71.0206444 C22.0892162,70.0554027 23.9799744,69.2813376 26.4566392,69.2706424 C66.5778028,69.0901609 148.596663,68.5393582 192.570566,69.2706424 C195.048575,69.3120863 196.937989,70.0554027 197.061621,71.0206444 C198.558639,82.6837595 197.061621,115.337541 197.061621,115.337541 C197.061621,116.304119 195.051262,117.08888 192.570566,117.08888" id="Fill-77" fill="#D6E3F2"></path>
                        <path d="M74.6868307,62.2956344 C74.6868307,62.2956344 36.8730103,62.7688969 22.9066634,62.2956344 C22.1353093,62.2688964 21.5077442,61.5817298 21.5077442,60.7020496 C21.5077442,60.7020496 21.040094,30.9466676 21.5077442,20.31965 C21.5453712,19.4399698 22.1353093,18.7354235 22.9066634,18.7247283 C35.4122753,18.5602896 60.9798415,18.0576153 74.6868307,18.7247283 C75.4581848,18.7621615 76.0481229,19.4399698 76.0857499,20.31965 C76.5534001,30.9466676 76.0857499,60.7020496 76.0857499,60.7020496 C76.0857499,61.5817298 75.4595286,62.2956344 74.6868307,62.2956344" id="Fill-79" fill="#D6E3F2"></path>
                    </g>
                    <g id="Group-88" transform="translate(274.000000, 85.000000)">
                        <g id="Group-84" transform="translate(2.571429, 0.000000)">
                            <mask id="mask-8" fill="white">
                                <use xlink:href="#path-7"></use>
                            </mask>
                            <g id="Clip-83"></g>
                            <path d="M1.5966,0.747642857 C1.72517143,1.38792857 1.81002857,2.0295 1.91802857,2.66978571 C2.01831429,3.31007143 2.15845714,3.95164286 2.15845714,4.59192857 C2.18031429,5.23221429 2.06074286,5.87378571 1.96688571,6.51407143 C1.86274286,7.15435714 1.76502857,7.79592857 1.5966,8.43621429 C1.58502857,8.48121429 1.53874286,8.50821429 1.49502857,8.49535714 C1.46417143,8.48892857 1.4436,8.4645 1.43588571,8.43621429 C1.26745714,7.79592857 1.16845714,7.15435714 1.06431429,6.51407143 C0.970457143,5.87378571 0.850885714,5.23221429 0.874028571,4.59192857 C0.874028571,3.95164286 1.01417143,3.31007143 1.11445714,2.66978571 C1.22245714,2.0295 1.30731429,1.38792857 1.43588571,0.747642857 C1.44488571,0.703928571 1.48731429,0.674357143 1.53231429,0.683357143 C1.56574286,0.689785714 1.59017143,0.716785714 1.5966,0.747642857" id="Fill-82" fill="#56A7FF" mask="url(#mask-8)"></path>
                        </g>
                        <g id="Group-87" transform="translate(0.000000, 3.857143)">
                            <mask id="mask-10" fill="white">
                                <use xlink:href="#path-9"></use>
                            </mask>
                            <g id="Clip-86"></g>
                            <path d="M0.243,0.654685714 C0.883285714,0.526114286 1.52357143,0.441257143 2.16514286,0.333257143 C2.80542857,0.232971429 3.44571429,0.0928285714 4.08728571,0.0928285714 C4.72757143,0.0696857143 5.36914286,0.190542857 6.00942857,0.2844 C6.64971429,0.388542857 7.29128571,0.486257143 7.93157143,0.654685714 C7.97657143,0.666257143 8.00228571,0.712542857 7.99071429,0.756257143 C7.98428571,0.787114286 7.95985714,0.807685714 7.93157143,0.8154 C7.29128571,0.983828571 6.64971429,1.08282857 6.00942857,1.18697143 C5.36914286,1.27954286 4.72757143,1.4004 4.08728571,1.37725714 C3.44571429,1.37725714 2.80542857,1.23711429 2.16514286,1.13682857 C1.52357143,1.02882857 0.883285714,0.943971429 0.243,0.8154 C0.198,0.8064 0.169714286,0.763971429 0.178714286,0.718971429 C0.185142857,0.685542857 0.212142857,0.661114286 0.243,0.654685714" id="Fill-85" fill="#56A7FF" mask="url(#mask-10)"></path>
                        </g>
                    </g>
                    <g id="Group-95" transform="translate(20.000000, 133.000000)">
                        <g id="Group-91" transform="translate(2.571429, 0.000000)">
                            <mask id="mask-12" fill="white">
                                <use xlink:href="#path-11"></use>
                            </mask>
                            <g id="Clip-90"></g>
                            <path d="M1.5966,0.747642857 C1.72517143,1.38792857 1.81002857,2.0295 1.91802857,2.66978571 C2.01831429,3.31007143 2.15845714,3.95164286 2.15845714,4.59192857 C2.18031429,5.23221429 2.06074286,5.87378571 1.96688571,6.51407143 C1.86274286,7.15435714 1.76502857,7.79592857 1.5966,8.43621429 C1.58502857,8.48121429 1.53874286,8.50821429 1.49502857,8.49535714 C1.46417143,8.48892857 1.4436,8.4645 1.43588571,8.43621429 C1.26745714,7.79592857 1.16845714,7.15435714 1.06431429,6.51407143 C0.970457143,5.87378571 0.850885714,5.23221429 0.874028571,4.59192857 C0.874028571,3.95164286 1.01417143,3.31007143 1.11445714,2.66978571 C1.22245714,2.0295 1.30731429,1.38792857 1.43588571,0.747642857 C1.44488571,0.703928571 1.48731429,0.674357143 1.53231429,0.683357143 C1.56574286,0.689785714 1.59017143,0.716785714 1.5966,0.747642857" id="Fill-89" fill="#56A7FF" mask="url(#mask-12)"></path>
                        </g>
                        <g id="Group-94" transform="translate(0.000000, 3.857143)">
                            <mask id="mask-14" fill="white">
                                <use xlink:href="#path-13"></use>
                            </mask>
                            <g id="Clip-93"></g>
                            <path d="M0.243,0.654685714 C0.883285714,0.526114286 1.52357143,0.441257143 2.16514286,0.333257143 C2.80542857,0.232971429 3.44571429,0.0928285714 4.08728571,0.0928285714 C4.72757143,0.0696857143 5.36914286,0.190542857 6.00942857,0.2844 C6.64971429,0.388542857 7.29128571,0.486257143 7.93157143,0.654685714 C7.97657143,0.666257143 8.00228571,0.712542857 7.99071429,0.756257143 C7.98428571,0.787114286 7.95985714,0.807685714 7.93157143,0.8154 C7.29128571,0.983828571 6.64971429,1.08282857 6.00942857,1.18697143 C5.36914286,1.27954286 4.72757143,1.4004 4.08728571,1.37725714 C3.44571429,1.37725714 2.80542857,1.23711429 2.16514286,1.13682857 C1.52357143,1.02882857 0.883285714,0.943971429 0.243,0.8154 C0.198,0.8064 0.169714286,0.763971429 0.178714286,0.718971429 C0.185142857,0.685542857 0.212142857,0.661114286 0.243,0.654685714" id="Fill-92" fill="#56A7FF" mask="url(#mask-14)"></path>
                        </g>
                    </g>
                </g>
            </g>
        </g>
    </g>
</svg>