<svg id="Calque_1" data-name="Calque 1" xmlns="http://www.w3.org/2000/svg" viewBox="0 0 769 315"><defs><style>.cls-1,.cls-6,.cls-7,.cls-9{fill:#eaf2fb;}.cls-10,.cls-11,.cls-2{fill:none;}.cls-2,.cls-7{stroke:#b0bed2;}.cls-10,.cls-11,.cls-2,.cls-6,.cls-7,.cls-9{stroke-miterlimit:10;stroke-width:2px;}.cls-3{fill:#57a7ff;}.cls-4{fill:#b0bed2;}.cls-5{fill:#1bc74e;}.cls-6{stroke:#57a7ff;}.cls-8{fill:#4cdf76;}.cls-10,.cls-11,.cls-9{stroke:#4cdf76;}.cls-10,.cls-11{stroke-linecap:round;}.cls-11{stroke-dasharray:0 6.14;}</style></defs><title>admin</title><rect class="cls-1" x="223" y="17" width="21.56" height="281"/><rect class="cls-1" x="249.13" y="17" width="21.56" height="281"/><rect class="cls-1" x="275.26" y="17" width="21.56" height="281"/><rect class="cls-1" x="301.39" y="17" width="21.56" height="281"/><rect class="cls-1" x="327.52" y="17" width="21.56" height="281"/><rect class="cls-1" x="353.66" y="17" width="21.56" height="281"/><rect class="cls-1" x="379.79" y="17" width="21.56" height="281"/><rect class="cls-1" x="405.92" y="17" width="21.56" height="281"/><rect class="cls-1" x="432.05" y="17" width="21.56" height="281"/><rect class="cls-1" x="458.18" y="17" width="21.56" height="281"/><rect class="cls-1" x="484.31" y="17" width="21.56" height="281"/><rect class="cls-1" x="510.44" y="17" width="21.56" height="281"/><rect class="cls-2" x="180.42" y="16" width="408.16" height="282" rx="4" ry="4"/><path class="cls-3" d="M74.28,32.5V24.64L71.12,32.5h-.48l-3.18-7.86V32.5H66.3V23.16H68l2.91,7.2,2.9-7.2h1.67V32.5Z"/><path class="cls-3" d="M81.81,32.5v-.77a2.88,2.88,0,0,1-2.24.94,2.25,2.25,0,0,1-2.35-2.24,2.19,2.19,0,0,1,2.35-2.23,2.83,2.83,0,0,1,2.24.91V27.89c0-.89-.73-1.41-1.71-1.41a2.63,2.63,0,0,0-2.07.94l-.49-.73a3.53,3.53,0,0,1,2.7-1.12c1.45,0,2.62.64,2.62,2.28V32.5Zm0-1.43V29.78A2.29,2.29,0,0,0,80,29a1.49,1.49,0,1,0,0,2.95A2.25,2.25,0,0,0,81.81,31.07Z"/><path class="cls-3" d="M84.79,24.07a.72.72,0,0,1,.72-.72.71.71,0,0,1,.7.72.7.7,0,0,1-.7.7A.71.71,0,0,1,84.79,24.07ZM85,32.5V25.73H86V32.5Z"/><path class="cls-3" d="M92.7,32.5V28.07c0-1.2-.61-1.56-1.52-1.56a2.64,2.64,0,0,0-2,1V32.5h-1V25.73h1v1a3.35,3.35,0,0,1,2.43-1.14,1.91,1.91,0,0,1,2.14,2.18V32.5Z"/><path class="cls-3" d="M104.06,32.5V28.07c0-1.2-.62-1.56-1.53-1.56a2.6,2.6,0,0,0-2,1V32.5h-1V25.73h1v1A3.31,3.31,0,0,1,103,25.57a1.91,1.91,0,0,1,2.14,2.18V32.5Z"/><path class="cls-3" d="M111.44,32.5v-.77a2.92,2.92,0,0,1-2.25.94,2.25,2.25,0,0,1-2.35-2.24,2.19,2.19,0,0,1,2.35-2.23,2.87,2.87,0,0,1,2.25.91V27.89c0-.89-.73-1.41-1.71-1.41a2.65,2.65,0,0,0-2.08.94l-.49-.73a3.54,3.54,0,0,1,2.71-1.12c1.44,0,2.62.64,2.62,2.28V32.5Zm0-1.43V29.78a2.32,2.32,0,0,0-1.85-.82,1.49,1.49,0,1,0,0,2.95A2.28,2.28,0,0,0,111.44,31.07Z"/><path class="cls-3" d="M116.4,32.5l-2.81-6.77h1.15L117,31.28l2.25-5.55h1.14l-2.82,6.77Z"/><path class="cls-3" d="M121.27,24.07a.73.73,0,0,1,.72-.72.71.71,0,0,1,.7.72.7.7,0,0,1-.7.7A.71.71,0,0,1,121.27,24.07Zm.19,8.43V25.73h1.05V32.5Z"/><path class="cls-3" d="M124.59,34.22l.53-.75a2.65,2.65,0,0,0,2.2.91,1.94,1.94,0,0,0,2.19-2v-1a2.87,2.87,0,0,1-2.28,1.2c-1.77,0-3-1.31-3-3.5s1.24-3.51,3-3.51a2.83,2.83,0,0,1,2.28,1.19v-1h1.05V32.4c0,2.14-1.58,2.85-3.24,2.85A3.46,3.46,0,0,1,124.59,34.22Zm4.92-3.67v-3a2.57,2.57,0,0,0-2-1.07c-1.37,0-2.18,1.07-2.18,2.57s.81,2.57,2.18,2.57A2.54,2.54,0,0,0,129.51,30.55Z"/><path class="cls-3" d="M136.89,32.5v-.77a2.9,2.9,0,0,1-2.24.94,2.25,2.25,0,0,1-2.36-2.24,2.2,2.2,0,0,1,2.36-2.23,2.86,2.86,0,0,1,2.24.91V27.89c0-.89-.73-1.41-1.71-1.41a2.67,2.67,0,0,0-2.08.94l-.49-.73a3.54,3.54,0,0,1,2.71-1.12c1.44,0,2.62.64,2.62,2.28V32.5Zm0-1.43V29.78A2.31,2.31,0,0,0,135,29a1.49,1.49,0,1,0,0,2.95A2.26,2.26,0,0,0,136.89,31.07Z"/><path class="cls-3" d="M140.26,31.09V26.66h-1.12v-.93h1.12V23.89h1.06v1.84h1.38v.93h-1.38v4.2c0,.51.23.87.68.87a1,1,0,0,0,.71-.29l.31.79a1.69,1.69,0,0,1-1.25.44A1.39,1.39,0,0,1,140.26,31.09Z"/><path class="cls-3" d="M144,24.07a.72.72,0,0,1,.72-.72.71.71,0,0,1,.7.72.7.7,0,0,1-.7.7A.71.71,0,0,1,144,24.07Zm.18,8.43V25.73h1.05V32.5Z"/><path class="cls-3" d="M146.92,29.11a3.36,3.36,0,1,1,6.7,0,3.36,3.36,0,1,1-6.7,0Zm5.59,0a2.26,2.26,0,1,0-4.48,0,2.27,2.27,0,1,0,4.48,0Z"/><path class="cls-3" d="M159.9,32.5V28.07c0-1.2-.61-1.56-1.52-1.56a2.64,2.64,0,0,0-2,1V32.5h-1.05V25.73h1.05v1a3.32,3.32,0,0,1,2.42-1.14,1.92,1.92,0,0,1,2.15,2.18V32.5Z"/><path class="cls-4" d="M609.66,174.61a4.68,4.68,0,0,1,4.81-4.83,4.13,4.13,0,0,1,3.54,1.85l-1,.54a3.15,3.15,0,0,0-2.57-1.36,3.81,3.81,0,0,0,0,7.6,3.18,3.18,0,0,0,2.57-1.36l1,.53a4.18,4.18,0,0,1-3.55,1.86A4.68,4.68,0,0,1,609.66,174.61Z"/><path class="cls-4" d="M619.07,175.89a3.35,3.35,0,1,1,3.35,3.55A3.32,3.32,0,0,1,619.07,175.89Zm5.59,0a2.27,2.27,0,1,0-2.24,2.61A2.35,2.35,0,0,0,624.66,175.89Z"/><path class="cls-4" d="M632.05,179.28v-4.43c0-1.21-.62-1.57-1.53-1.57a2.63,2.63,0,0,0-2,1.05v4.95h-1v-6.77h1v1a3.33,3.33,0,0,1,2.42-1.15,1.93,1.93,0,0,1,2.15,2.19v4.75Z"/><path class="cls-4" d="M635.41,177.86v-4.43h-1.12v-.92h1.12v-1.85h1.06v1.85h1.37v.92h-1.37v4.21c0,.5.23.86.67.86a1,1,0,0,0,.72-.29l.31.8a1.73,1.73,0,0,1-1.25.43A1.38,1.38,0,0,1,635.41,177.86Z"/><path class="cls-4" d="M638.92,175.89a3.38,3.38,0,0,1,3.33-3.55c2,0,3.25,1.6,3.25,3.63v.27H640a2.38,2.38,0,0,0,2.42,2.34,3,3,0,0,0,2.11-.87l.5.68a3.71,3.71,0,0,1-2.69,1.05A3.35,3.35,0,0,1,638.92,175.89Zm3.32-2.68a2.25,2.25,0,0,0-2.21,2.24h4.44A2.2,2.2,0,0,0,642.24,173.21Z"/><path class="cls-4" d="M651.78,179.28v-4.43c0-1.21-.62-1.57-1.53-1.57a2.6,2.6,0,0,0-2,1.05v4.95h-1v-6.77h1v1a3.31,3.31,0,0,1,2.42-1.15,1.92,1.92,0,0,1,2.14,2.19v4.75Z"/><path class="cls-4" d="M655.13,177.86v-4.43H654v-.92h1.12v-1.85h1.07v1.85h1.37v.92H656.2v4.21c0,.5.22.86.67.86a1,1,0,0,0,.71-.29l.31.8a1.69,1.69,0,0,1-1.24.43A1.39,1.39,0,0,1,655.13,177.86Z"/><path class="cls-3" d="M29.65,49.82l.7-.9a3.84,3.84,0,0,0,2.92,1.34c1.67,0,2.2-.89,2.2-1.62,0-2.41-5.53-1.07-5.53-4.4,0-1.54,1.37-2.61,3.22-2.61A4.39,4.39,0,0,1,36.47,43l-.7.86a3.51,3.51,0,0,0-2.71-1.12c-1.1,0-1.91.6-1.91,1.48,0,2.1,5.53.9,5.53,4.38,0,1.35-.93,2.75-3.45,2.75A4.66,4.66,0,0,1,29.65,49.82Z"/><path class="cls-3" d="M38,47.74a3.38,3.38,0,0,1,3.33-3.54c2,0,3.25,1.59,3.25,3.63v.26H39.1a2.36,2.36,0,0,0,2.42,2.34,2.94,2.94,0,0,0,2.1-.87l.51.69a3.75,3.75,0,0,1-2.69,1A3.36,3.36,0,0,1,38,47.74Zm3.32-2.67a2.26,2.26,0,0,0-2.22,2.24h4.44A2.18,2.18,0,0,0,41.3,45.07Z"/><path class="cls-3" d="M45.86,47.74a3.34,3.34,0,0,1,3.37-3.54,2.86,2.86,0,0,1,2.48,1.18L51,46a2,2,0,0,0-1.72-.87A2.36,2.36,0,0,0,47,47.74a2.38,2.38,0,0,0,2.34,2.62A2,2,0,0,0,51,49.48l.7.64a2.86,2.86,0,0,1-2.48,1.18A3.35,3.35,0,0,1,45.86,47.74Z"/><path class="cls-3" d="M52.8,47.74a3.36,3.36,0,1,1,3.35,3.56A3.32,3.32,0,0,1,52.8,47.74Zm5.59,0a2.26,2.26,0,1,0-4.48,0,2.27,2.27,0,1,0,4.48,0Z"/><path class="cls-3" d="M65.78,51.13V46.71c0-1.21-.61-1.57-1.52-1.57a2.64,2.64,0,0,0-2,1v4.94h-1V44.37h1v1a3.3,3.3,0,0,1,2.43-1.15,1.91,1.91,0,0,1,2.14,2.18v4.75Z"/><path class="cls-3" d="M73.83,51.13v-1a2.83,2.83,0,0,1-2.28,1.18c-1.77,0-3-1.34-3-3.54s1.24-3.56,3-3.56a2.82,2.82,0,0,1,2.28,1.19v-3.6h1v9.34Zm0-1.85V46.23a2.5,2.5,0,0,0-2-1.09c-1.38,0-2.19,1.12-2.19,2.62s.81,2.6,2.19,2.6A2.49,2.49,0,0,0,73.83,49.28Z"/><path class="cls-3" d="M81.21,51.13v-.77A2.9,2.9,0,0,1,79,51.3a2.24,2.24,0,0,1-2.35-2.24A2.19,2.19,0,0,1,79,46.83a2.9,2.9,0,0,1,2.24.91V46.52c0-.89-.73-1.41-1.71-1.41a2.63,2.63,0,0,0-2.07.94l-.49-.73a3.52,3.52,0,0,1,2.7-1.12c1.44,0,2.62.64,2.62,2.28v4.65Zm0-1.43V48.42a2.28,2.28,0,0,0-1.85-.83,1.49,1.49,0,1,0,0,2.95A2.26,2.26,0,0,0,81.21,49.7Z"/><path class="cls-3" d="M84.37,51.13V44.37h1v1.08a2.93,2.93,0,0,1,2.26-1.24v1.08c-.13,0-.26,0-.41,0a2.47,2.47,0,0,0-1.85,1.08v4.79Z"/><path class="cls-3" d="M88.78,52.83a1.62,1.62,0,0,0,.58.11,1,1,0,0,0,1-.72l.45-1L88,44.37h1.15l2.24,5.54,2.26-5.54h1.13L91.37,52.5a2,2,0,0,1-2,1.38,3,3,0,0,1-.75-.1Z"/><path class="cls-3" d="M104.06,51.13V46.71c0-1.21-.62-1.57-1.53-1.57a2.6,2.6,0,0,0-2,1v4.94h-1V44.37h1v1A3.28,3.28,0,0,1,103,44.2a1.91,1.91,0,0,1,2.14,2.18v4.75Z"/><path class="cls-3" d="M111.44,51.13v-.77a2.92,2.92,0,0,1-2.25.94,2.25,2.25,0,0,1-2.35-2.24,2.19,2.19,0,0,1,2.35-2.23,2.9,2.9,0,0,1,2.25.91V46.52c0-.89-.73-1.41-1.71-1.41a2.65,2.65,0,0,0-2.08.94l-.49-.73a3.54,3.54,0,0,1,2.71-1.12c1.44,0,2.62.64,2.62,2.28v4.65Zm0-1.43V48.42a2.3,2.3,0,0,0-1.85-.83,1.49,1.49,0,1,0,0,2.95A2.28,2.28,0,0,0,111.44,49.7Z"/><path class="cls-3" d="M116.4,51.13l-2.81-6.76h1.15L117,49.91l2.25-5.54h1.14l-2.82,6.76Z"/><path class="cls-3" d="M121.27,42.7A.72.72,0,0,1,122,42a.7.7,0,0,1,.7.71.7.7,0,0,1-.7.7A.71.71,0,0,1,121.27,42.7Zm.19,8.43V44.37h1.05v6.76Z"/><path class="cls-3" d="M124.59,52.86l.53-.76a2.62,2.62,0,0,0,2.2.91,1.94,1.94,0,0,0,2.19-2V50a2.87,2.87,0,0,1-2.28,1.21c-1.77,0-3-1.32-3-3.51s1.24-3.51,3-3.51a2.83,2.83,0,0,1,2.28,1.19v-1h1.05V51c0,2.15-1.58,2.85-3.24,2.85A3.48,3.48,0,0,1,124.59,52.86Zm4.92-3.67v-3a2.55,2.55,0,0,0-2-1.08c-1.37,0-2.18,1.08-2.18,2.57s.81,2.57,2.18,2.57A2.56,2.56,0,0,0,129.51,49.19Z"/><path class="cls-3" d="M136.89,51.13v-.77a2.9,2.9,0,0,1-2.24.94,2.25,2.25,0,0,1-2.36-2.24,2.2,2.2,0,0,1,2.36-2.23,2.9,2.9,0,0,1,2.24.91V46.52c0-.89-.73-1.41-1.71-1.41a2.67,2.67,0,0,0-2.08.94l-.49-.73a3.54,3.54,0,0,1,2.71-1.12c1.44,0,2.62.64,2.62,2.28v4.65Zm0-1.43V48.42a2.28,2.28,0,0,0-1.85-.83,1.49,1.49,0,1,0,0,2.95A2.26,2.26,0,0,0,136.89,49.7Z"/><path class="cls-3" d="M140.26,49.72V45.29h-1.12v-.92h1.12V42.52h1.06v1.85h1.38v.92h-1.38v4.2c0,.51.23.87.68.87a1,1,0,0,0,.71-.29l.31.8a1.73,1.73,0,0,1-1.25.43A1.38,1.38,0,0,1,140.26,49.72Z"/><path class="cls-3" d="M144,42.7a.71.71,0,0,1,.72-.71.7.7,0,0,1,.7.71.7.7,0,0,1-.7.7A.71.71,0,0,1,144,42.7Zm.18,8.43V44.37h1.05v6.76Z"/><path class="cls-3" d="M146.92,47.74a3.36,3.36,0,1,1,3.35,3.56A3.32,3.32,0,0,1,146.92,47.74Zm5.59,0a2.26,2.26,0,1,0-4.48,0,2.27,2.27,0,1,0,4.48,0Z"/><path class="cls-3" d="M159.9,51.13V46.71c0-1.21-.61-1.57-1.52-1.57a2.64,2.64,0,0,0-2,1v4.94h-1.05V44.37h1.05v1a3.3,3.3,0,0,1,2.42-1.15,1.92,1.92,0,0,1,2.15,2.18v4.75Z"/><path class="cls-3" d="M66.68,78.94V70.63h-3v-1h7.09v1h-3v8.31Z"/><path class="cls-3" d="M76.88,78.94V74.48c0-1.2-.6-1.54-1.52-1.54a2.61,2.61,0,0,0-2,1v5H72.32V69.59h1.05v3.56A3.25,3.25,0,0,1,75.78,72a1.9,1.9,0,0,1,2.15,2.16v4.78Z"/><path class="cls-3" d="M79.85,70.5a.71.71,0,0,1,.71-.71.7.7,0,0,1,.7.71.68.68,0,0,1-.7.7A.7.7,0,0,1,79.85,70.5ZM80,78.94V72.17h1v6.77Z"/><path class="cls-3" d="M83.18,78.94V72.17h1v1.08A2.92,2.92,0,0,1,86.49,72v1.07l-.41,0a2.47,2.47,0,0,0-1.85,1.08v4.79Z"/><path class="cls-3" d="M92.7,78.94v-1a2.85,2.85,0,0,1-2.28,1.17c-1.76,0-3-1.34-3-3.54s1.25-3.56,3-3.56a2.82,2.82,0,0,1,2.28,1.19v-3.6h1v9.35Zm0-1.85V74a2.52,2.52,0,0,0-2-1.09c-1.38,0-2.19,1.12-2.19,2.62s.81,2.61,2.19,2.61A2.49,2.49,0,0,0,92.7,77.09Z"/><path class="cls-3" d="M104.06,78.94V74.51c0-1.21-.62-1.57-1.53-1.57a2.63,2.63,0,0,0-2,1v5h-1V72.17h1v1A3.31,3.31,0,0,1,103,72a1.92,1.92,0,0,1,2.14,2.19v4.75Z"/><path class="cls-3" d="M111.43,78.94v-.77a2.91,2.91,0,0,1-2.24.93,2.25,2.25,0,0,1-2.35-2.24,2.19,2.19,0,0,1,2.35-2.22,2.83,2.83,0,0,1,2.24.91V74.33c0-.9-.72-1.42-1.7-1.42a2.64,2.64,0,0,0-2.08.94l-.49-.73A3.58,3.58,0,0,1,109.87,72c1.44,0,2.61.65,2.61,2.29v4.65Zm0-1.43V76.22a2.27,2.27,0,0,0-1.85-.83,1.49,1.49,0,1,0,0,3A2.25,2.25,0,0,0,111.43,77.51Z"/><path class="cls-3" d="M116.4,78.94l-2.81-6.77h1.15L117,77.72l2.25-5.55h1.14l-2.82,6.77Z"/><path class="cls-3" d="M121.27,70.5a.71.71,0,0,1,.72-.71.7.7,0,0,1,.7.71.69.69,0,0,1-.7.7A.7.7,0,0,1,121.27,70.5Zm.19,8.44V72.17h1.05v6.77Z"/><path class="cls-3" d="M124.59,80.66l.53-.76a2.62,2.62,0,0,0,2.2.91,1.93,1.93,0,0,0,2.19-2v-1a2.9,2.9,0,0,1-2.29,1.2c-1.76,0-3-1.32-3-3.5s1.23-3.52,3-3.52a2.85,2.85,0,0,1,2.29,1.19v-1h1.05v6.67c0,2.14-1.59,2.84-3.24,2.84A3.45,3.45,0,0,1,124.59,80.66ZM129.51,77V74a2.58,2.58,0,0,0-2-1.08c-1.37,0-2.19,1.08-2.19,2.58s.82,2.56,2.19,2.56A2.53,2.53,0,0,0,129.51,77Z"/><path class="cls-3" d="M136.88,78.94v-.77a2.91,2.91,0,0,1-2.24.93,2.25,2.25,0,0,1-2.35-2.24,2.19,2.19,0,0,1,2.35-2.22,2.83,2.83,0,0,1,2.24.91V74.33c0-.9-.72-1.42-1.7-1.42a2.65,2.65,0,0,0-2.08.94l-.49-.73A3.58,3.58,0,0,1,135.32,72c1.44,0,2.61.65,2.61,2.29v4.65Zm0-1.43V76.22a2.26,2.26,0,0,0-1.84-.83,1.49,1.49,0,1,0,0,3A2.24,2.24,0,0,0,136.88,77.51Z"/><path class="cls-3" d="M140.26,77.52V73.09h-1.13v-.92h1.13V70.32h1.06v1.85h1.37v.92h-1.37V77.3c0,.5.22.87.67.87a1,1,0,0,0,.72-.3l.31.8a1.73,1.73,0,0,1-1.25.43A1.38,1.38,0,0,1,140.26,77.52Z"/><path class="cls-3" d="M144,70.5a.71.71,0,0,1,.71-.71.7.7,0,0,1,.7.71.68.68,0,0,1-.7.7A.7.7,0,0,1,144,70.5Zm.18,8.44V72.17h1.05v6.77Z"/><path class="cls-3" d="M146.92,75.55a3.35,3.35,0,1,1,3.35,3.55A3.32,3.32,0,0,1,146.92,75.55Zm5.59,0a2.27,2.27,0,1,0-2.24,2.62A2.35,2.35,0,0,0,152.51,75.55Z"/><path class="cls-3" d="M159.9,78.94V74.51c0-1.21-.62-1.57-1.53-1.57a2.67,2.67,0,0,0-2,1v5h-1.05V72.17h1.05v1A3.33,3.33,0,0,1,158.79,72a1.93,1.93,0,0,1,2.15,2.19v4.75Z"/><path class="cls-5" d="M616.71,34.92l-.83-2.09h-4.65l-.83,2.09h-1.33l3.77-9.35h1.44L618,34.92Zm-3.15-8.16-2,5h4Z"/><path class="cls-5" d="M618.82,31.53A3.34,3.34,0,0,1,622.19,28a2.9,2.9,0,0,1,2.48,1.18l-.7.63a2,2,0,0,0-1.72-.87,2.37,2.37,0,0,0-2.34,2.61,2.38,2.38,0,0,0,2.34,2.62,2,2,0,0,0,1.72-.89l.7.65a2.89,2.89,0,0,1-2.48,1.17A3.35,3.35,0,0,1,618.82,31.53Z"/><path class="cls-5" d="M625.76,31.53A3.35,3.35,0,0,1,629.14,28a2.91,2.91,0,0,1,2.48,1.18l-.7.63a2,2,0,0,0-1.73-.87,2.37,2.37,0,0,0-2.34,2.61,2.38,2.38,0,0,0,2.34,2.62,2,2,0,0,0,1.73-.89l.7.65a2.9,2.9,0,0,1-2.48,1.17A3.35,3.35,0,0,1,625.76,31.53Z"/><path class="cls-5" d="M632.7,31.53A3.4,3.4,0,0,1,636,28c2,0,3.25,1.6,3.25,3.63v.27h-5.46a2.37,2.37,0,0,0,2.42,2.34,3,3,0,0,0,2.1-.87l.5.69a3.71,3.71,0,0,1-2.69,1A3.36,3.36,0,0,1,632.7,31.53ZM636,28.85a2.26,2.26,0,0,0-2.21,2.24h4.44A2.19,2.19,0,0,0,636,28.85Z"/><path class="cls-5" d="M640.4,34l.54-.76a3,3,0,0,0,2.22,1c1,0,1.61-.49,1.61-1.16,0-1.64-4.18-.63-4.18-3.14,0-1.06.89-1.95,2.5-1.95a3.39,3.39,0,0,1,2.51,1l-.49.73a2.61,2.61,0,0,0-2-.85c-.92,0-1.5.46-1.5,1.06,0,1.47,4.19.51,4.19,3.14,0,1.13-.91,2-2.64,2A3.65,3.65,0,0,1,640.4,34Z"/><path class="cls-5" d="M646.91,34l.54-.76a3,3,0,0,0,2.22,1c1,0,1.61-.49,1.61-1.16,0-1.64-4.18-.63-4.18-3.14,0-1.06.89-1.95,2.5-1.95a3.39,3.39,0,0,1,2.51,1l-.49.73a2.61,2.61,0,0,0-2-.85c-.92,0-1.5.46-1.5,1.06,0,1.47,4.19.51,4.19,3.14,0,1.13-.91,2-2.64,2A3.65,3.65,0,0,1,646.91,34Z"/><path class="cls-5" d="M657.83,33.5V29.08h-1.12v-.93h1.12V26.3h1.07v1.85h1.37v.93H658.9v4.2c0,.5.22.87.67.87a1,1,0,0,0,.72-.3l.3.8a1.69,1.69,0,0,1-1.24.43A1.39,1.39,0,0,1,657.83,33.5Z"/><path class="cls-5" d="M661.35,31.53a3.35,3.35,0,1,1,6.69,0,3.35,3.35,0,1,1-6.69,0Zm5.59,0a2.27,2.27,0,1,0-4.49,0,2.27,2.27,0,1,0,4.49,0Z"/><path class="cls-5" d="M673,30.25a4.67,4.67,0,0,1,4.8-4.83,4.15,4.15,0,0,1,3.55,1.85l-1,.54a3.15,3.15,0,0,0-2.58-1.35,3.58,3.58,0,0,0-3.6,3.79,3.6,3.6,0,0,0,3.6,3.8,3.18,3.18,0,0,0,2.58-1.36l1,.53a4.19,4.19,0,0,1-3.56,1.86A4.67,4.67,0,0,1,673,30.25Z"/><path class="cls-5" d="M682.45,31.53a3.35,3.35,0,1,1,6.69,0,3.35,3.35,0,1,1-6.69,0Zm5.58,0a2.27,2.27,0,1,0-4.48,0,2.27,2.27,0,1,0,4.48,0Z"/><path class="cls-5" d="M695.43,34.92V30.49c0-1.2-.62-1.57-1.53-1.57a2.63,2.63,0,0,0-2,1v5h-1V28.15h1v1A3.31,3.31,0,0,1,694.32,28a1.92,1.92,0,0,1,2.14,2.19v4.75Z"/><path class="cls-5" d="M698,34l.53-.76a3.06,3.06,0,0,0,2.23,1c1,0,1.61-.49,1.61-1.16,0-1.64-4.19-.63-4.19-3.14,0-1.06.9-1.95,2.51-1.95a3.42,3.42,0,0,1,2.51,1l-.49.73a2.63,2.63,0,0,0-2-.85c-.93,0-1.5.46-1.5,1.06,0,1.47,4.19.51,4.19,3.14,0,1.13-.91,2-2.65,2A3.65,3.65,0,0,1,698,34Z"/><path class="cls-5" d="M704.69,31.53a3.36,3.36,0,1,1,6.7,0,3.36,3.36,0,1,1-6.7,0Zm5.59,0a2.27,2.27,0,1,0-4.48,0,2.27,2.27,0,1,0,4.48,0Z"/><path class="cls-5" d="M713.09,34.92V25.57h1v9.35Z"/><path class="cls-5" d="M715.85,31.53A3.39,3.39,0,0,1,719.18,28c2.05,0,3.25,1.6,3.25,3.63v.27H717a2.37,2.37,0,0,0,2.42,2.34,2.92,2.92,0,0,0,2.1-.87L722,34a3.74,3.74,0,0,1-2.69,1A3.35,3.35,0,0,1,715.85,31.53Zm3.32-2.68A2.26,2.26,0,0,0,717,31.09h4.44A2.18,2.18,0,0,0,719.17,28.85Z"/><rect class="cls-6" x="185.48" y="22.07" width="398.04" height="16.19" rx="4" ry="4"/><rect class="cls-6" x="185.82" y="38.26" width="398.04" height="16.19" rx="4" ry="4"/><rect class="cls-6" x="223.6" y="68.62" width="65.44" height="12.82" rx="4" ry="4"/><rect class="cls-7" x="223.83" y="89.93" width="307.55" height="170.34" rx="4" ry="4"/><circle class="cls-4" cx="525.16" cy="30.17" r="4.72"/><path class="cls-4" d="M239.26,26.39a4.79,4.79,0,0,0-4.22-.75,4.61,4.61,0,0,0-3.16,3.2,4.76,4.76,0,0,0,.75,4.16L232,34.09a.53.53,0,0,0,.45.8h4.41l.32-.05a4.73,4.73,0,0,0,2.08-8.44Z"/><rect class="cls-4" x="252.61" y="28.14" width="35.08" height="3.37" rx="1.69" ry="1.69"/><rect class="cls-4" x="296.46" y="28.14" width="35.08" height="3.37" rx="1.69" ry="1.69"/><rect class="cls-4" x="340.31" y="28.14" width="35.08" height="3.37" rx="1.69" ry="1.69"/><rect class="cls-4" x="384.16" y="28.14" width="35.08" height="3.37" rx="1.69" ry="1.69"/><rect class="cls-4" x="229.67" y="45.01" width="35.08" height="3.37" rx="1.69" ry="1.69"/><rect class="cls-4" x="273.52" y="45.01" width="35.08" height="3.37" rx="1.69" ry="1.69"/><rect class="cls-4" x="317.37" y="45.01" width="35.08" height="3.37" rx="1.69" ry="1.69"/><rect class="cls-4" x="361.22" y="45.01" width="35.08" height="3.37" rx="1.69" ry="1.69"/><path class="cls-8" d="M509.65,27.44a2.73,2.73,0,0,1,0,5.45H489.41a2.73,2.73,0,1,1,0-5.45h20.24m0-2H489.41a4.73,4.73,0,0,0-4.73,4.73h0a4.72,4.72,0,0,0,4.73,4.72h20.24a4.72,4.72,0,0,0,4.72-4.72h0a4.73,4.73,0,0,0-4.72-4.73Z"/><circle class="cls-9" cx="525.16" cy="74.69" r="6.07"/><line class="cls-10" x1="602" y1="30.51" x2="602" y2="30.51"/><line class="cls-11" x1="595.86" y1="30.51" x2="543.65" y2="30.51"/><line class="cls-10" x1="540.57" y1="30.51" x2="540.57" y2="30.51"/><path class="cls-5" d="M616.71,77.92l-.83-2.09h-4.65l-.83,2.09h-1.33l3.77-9.35h1.44L618,77.92Zm-3.15-8.16-2,5h4Z"/><path class="cls-5" d="M624.11,77.92v-1a2.85,2.85,0,0,1-2.28,1.17c-1.77,0-3-1.34-3-3.54s1.24-3.56,3-3.56a2.82,2.82,0,0,1,2.28,1.19v-3.6h1v9.35Zm0-1.85V73a2.52,2.52,0,0,0-2-1.09c-1.38,0-2.19,1.12-2.19,2.62s.81,2.61,2.19,2.61A2.49,2.49,0,0,0,624.11,76.07Z"/><path class="cls-5" d="M632.16,77.92v-1a2.85,2.85,0,0,1-2.28,1.17c-1.77,0-3-1.34-3-3.54s1.24-3.56,3-3.56a2.82,2.82,0,0,1,2.28,1.19v-3.6h1.05v9.35Zm0-1.85V73a2.52,2.52,0,0,0-2-1.09c-1.38,0-2.19,1.12-2.19,2.62s.81,2.61,2.19,2.61A2.49,2.49,0,0,0,632.16,76.07Z"/><path class="cls-5" d="M638.54,74.53A3.35,3.35,0,0,1,641.92,71a2.91,2.91,0,0,1,2.48,1.18l-.7.63a2,2,0,0,0-1.73-.87,2.63,2.63,0,0,0,0,5.23,2,2,0,0,0,1.73-.89l.7.65a2.9,2.9,0,0,1-2.48,1.17A3.35,3.35,0,0,1,638.54,74.53Z"/><path class="cls-5" d="M645.49,74.53a3.35,3.35,0,1,1,3.34,3.55A3.32,3.32,0,0,1,645.49,74.53Zm5.59,0a2.27,2.27,0,1,0-2.25,2.62A2.35,2.35,0,0,0,651.08,74.53Z"/><path class="cls-5" d="M658.47,77.92V73.49c0-1.2-.62-1.57-1.53-1.57a2.63,2.63,0,0,0-2,1v5h-1.05V71.15h1.05v1A3.31,3.31,0,0,1,657.36,71a1.92,1.92,0,0,1,2.14,2.19v4.75Z"/><path class="cls-5" d="M661.82,76.5V72.08H660.7v-.93h1.12V69.3h1.07v1.85h1.37v.93h-1.37v4.2c0,.5.22.87.67.87a1,1,0,0,0,.72-.3l.3.8a1.69,1.69,0,0,1-1.24.43A1.39,1.39,0,0,1,661.82,76.5Z"/><path class="cls-5" d="M665.34,74.53A3.39,3.39,0,0,1,668.67,71c2.05,0,3.25,1.6,3.25,3.63v.27h-5.46a2.37,2.37,0,0,0,2.42,2.34,2.92,2.92,0,0,0,2.1-.87l.51.69a3.74,3.74,0,0,1-2.69,1A3.35,3.35,0,0,1,665.34,74.53Zm3.32-2.68a2.26,2.26,0,0,0-2.22,2.24h4.44A2.18,2.18,0,0,0,668.66,71.85Z"/><path class="cls-5" d="M678.19,77.92V73.49c0-1.2-.61-1.57-1.52-1.57a2.67,2.67,0,0,0-2,1v5h-1V71.15h1v1A3.34,3.34,0,0,1,677.09,71a1.92,1.92,0,0,1,2.14,2.19v4.75Z"/><path class="cls-5" d="M681.55,76.5V72.08h-1.12v-.93h1.12V69.3h1.06v1.85H684v.93h-1.38v4.2c0,.5.23.87.68.87a1,1,0,0,0,.71-.3l.31.8a1.71,1.71,0,0,1-1.25.43A1.38,1.38,0,0,1,681.55,76.5Z"/><line class="cls-10" x1="602" y1="73.51" x2="602" y2="73.51"/><line class="cls-11" x1="595.86" y1="73.51" x2="543.65" y2="73.51"/><line class="cls-10" x1="540.57" y1="73.51" x2="540.57" y2="73.51"/></svg>