<svg id="Calque_1" data-name="Calque 1" xmlns="http://www.w3.org/2000/svg" viewBox="0 0 769 315"><defs><style>.cls-1{fill:#57a7ff;}.cls-2{fill:#1bc74e;}.cls-3,.cls-8{fill:#fff;}.cls-10,.cls-11,.cls-12,.cls-3{stroke:#b0bed2;}.cls-10,.cls-11,.cls-12,.cls-3,.cls-4,.cls-7,.cls-8{stroke-miterlimit:10;stroke-width:2px;}.cls-4,.cls-6,.cls-7{fill:#eaf2fb;}.cls-4{stroke:#57a7ff;}.cls-5{fill:#b0bed2;}.cls-7,.cls-8{stroke:#4cdf76;}.cls-9{opacity:0.5;}.cls-10,.cls-11,.cls-12{fill:none;stroke-linecap:round;}.cls-11{stroke-dasharray:0 5.9;}.cls-12{stroke-dasharray:0 5.92;}</style></defs><title>console_2</title><path class="cls-1" d="M119.33,33.5V25.19h-3v-1h7.08v1h-3V33.5Z"/><path class="cls-1" d="M123,30.11a3.35,3.35,0,1,1,6.69,0,3.35,3.35,0,1,1-6.69,0Zm5.58,0a2.26,2.26,0,1,0-4.48,0,2.27,2.27,0,1,0,4.48,0Z"/><path class="cls-1" d="M132.41,32.48v3.6h-1V26.73h1v1a2.84,2.84,0,0,1,2.28-1.17c1.78,0,3,1.34,3,3.54s-1.23,3.56-3,3.56A2.82,2.82,0,0,1,132.41,32.48Zm4.18-2.37c0-1.5-.81-2.6-2.17-2.6a2.51,2.51,0,0,0-2,1.07v3.06a2.5,2.5,0,0,0,2,1.09C135.78,32.73,136.59,31.61,136.59,30.11Z"/><path class="cls-1" d="M143,33.5V24.16h1v3.6a2.82,2.82,0,0,1,2.28-1.19c1.78,0,3,1.38,3,3.55s-1.24,3.55-3,3.55A2.83,2.83,0,0,1,144,32.49v1Zm3.08-.77c1.36,0,2.17-1.11,2.17-2.61s-.81-2.61-2.17-2.61a2.5,2.5,0,0,0-2,1.09v3.07A2.51,2.51,0,0,0,146.07,32.73Z"/><path class="cls-1" d="M155.27,33.5v-.77a2.9,2.9,0,0,1-2.24.94,2.25,2.25,0,0,1-2.36-2.24A2.2,2.2,0,0,1,153,29.2a2.86,2.86,0,0,1,2.24.91V28.89c0-.89-.73-1.41-1.71-1.41a2.63,2.63,0,0,0-2.07.94l-.49-.73a3.52,3.52,0,0,1,2.7-1.12c1.44,0,2.62.64,2.62,2.28V33.5Zm0-1.43V30.78a2.31,2.31,0,0,0-1.85-.82,1.49,1.49,0,1,0,0,2.95A2.26,2.26,0,0,0,155.27,32.07Z"/><path class="cls-1" d="M158.43,33.5V26.73h1v1.08a2.92,2.92,0,0,1,2.26-1.23v1.08c-.13,0-.26,0-.41,0a2.47,2.47,0,0,0-1.85,1.08V33.5Z"/><path class="cls-2" d="M77,286.5v-9.34h1.16v9.34Z"/><path class="cls-2" d="M84.91,286.5v-4.43c0-1.2-.62-1.56-1.53-1.56a2.6,2.6,0,0,0-2,1.05v4.94h-1v-6.77h1v1a3.31,3.31,0,0,1,2.42-1.14,1.91,1.91,0,0,1,2.14,2.18v4.75Z"/><path class="cls-2" d="M87.66,283.11A3.34,3.34,0,0,1,91,279.57a2.9,2.9,0,0,1,2.48,1.17l-.7.63a2,2,0,0,0-1.73-.86,2.63,2.63,0,0,0,0,5.22,2.06,2.06,0,0,0,1.73-.88l.7.64A2.91,2.91,0,0,1,91,286.67,3.36,3.36,0,0,1,87.66,283.11Z"/><path class="cls-2" d="M94.6,283.11A3.36,3.36,0,1,1,98,286.67,3.32,3.32,0,0,1,94.6,283.11Zm5.59,0A2.27,2.27,0,1,0,98,285.73,2.34,2.34,0,0,0,100.19,283.11Z"/><path class="cls-2" d="M111.17,286.5v-4.59c0-.86-.36-1.4-1.25-1.4a2.33,2.33,0,0,0-1.79,1v5h-1v-4.59c0-.86-.35-1.4-1.25-1.4a2.34,2.34,0,0,0-1.77,1.05v4.94H103v-6.77h1.06v1a3,3,0,0,1,2.19-1.14,1.72,1.72,0,0,1,1.81,1.26,2.84,2.84,0,0,1,2.27-1.26c1.23,0,1.89.68,1.89,2v4.89Z"/><path class="cls-2" d="M114.13,278.07a.73.73,0,0,1,.72-.72.71.71,0,0,1,.7.72.7.7,0,0,1-.7.7A.71.71,0,0,1,114.13,278.07Zm.19,8.43v-6.77h1.05v6.77Z"/><path class="cls-2" d="M122.05,286.5v-4.43c0-1.2-.62-1.56-1.53-1.56a2.6,2.6,0,0,0-2,1.05v4.94h-1v-6.77h1v1a3.31,3.31,0,0,1,2.42-1.14,1.91,1.91,0,0,1,2.14,2.18v4.75Z"/><path class="cls-2" d="M125.18,288.22l.53-.75a2.63,2.63,0,0,0,2.2.91,1.94,1.94,0,0,0,2.19-2v-1a2.88,2.88,0,0,1-2.29,1.2c-1.76,0-3-1.31-3-3.5s1.23-3.51,3-3.51a2.85,2.85,0,0,1,2.29,1.19v-1h1.05v6.67c0,2.14-1.59,2.85-3.24,2.85A3.46,3.46,0,0,1,125.18,288.22Zm4.92-3.67v-3a2.57,2.57,0,0,0-2-1.07c-1.37,0-2.19,1.07-2.19,2.57s.82,2.57,2.19,2.57A2.54,2.54,0,0,0,130.1,284.55Z"/><path class="cls-2" d="M136.48,283.11a3.34,3.34,0,0,1,3.37-3.54,2.9,2.9,0,0,1,2.48,1.17l-.7.63a2,2,0,0,0-1.72-.86,2.63,2.63,0,0,0,0,5.22,2,2,0,0,0,1.72-.88l.7.64a2.91,2.91,0,0,1-2.48,1.18A3.36,3.36,0,0,1,136.48,283.11Z"/><path class="cls-2" d="M148.39,286.5v-4.45c0-1.21-.6-1.54-1.52-1.54a2.58,2.58,0,0,0-2,1.05v4.94h-1v-9.34h1v3.55a3.25,3.25,0,0,1,2.41-1.14,1.89,1.89,0,0,1,2.15,2.15v4.78Z"/><path class="cls-2" d="M155.77,286.5v-.77a2.9,2.9,0,0,1-2.24.94,2.24,2.24,0,0,1-2.35-2.24,2.19,2.19,0,0,1,2.35-2.23,2.86,2.86,0,0,1,2.24.91v-1.22c0-.89-.73-1.41-1.71-1.41a2.63,2.63,0,0,0-2.07.94l-.49-.73a3.52,3.52,0,0,1,2.7-1.12c1.44,0,2.62.64,2.62,2.28v4.65Zm0-1.43v-1.29a2.31,2.31,0,0,0-1.85-.82,1.49,1.49,0,1,0,0,3A2.26,2.26,0,0,0,155.77,285.07Z"/><path class="cls-2" d="M159.14,285.09v-4.43H158v-.93h1.12v-1.84h1.07v1.84h1.37v.93h-1.37v4.2c0,.51.22.87.67.87a1,1,0,0,0,.71-.29l.31.79a1.68,1.68,0,0,1-1.25.44A1.39,1.39,0,0,1,159.14,285.09Z"/><rect class="cls-3" x="180.42" y="16" width="408.16" height="282" rx="4" ry="4"/><rect class="cls-4" x="185.48" y="22.07" width="398.04" height="16.19" rx="4" ry="4"/><circle class="cls-5" cx="572.16" cy="30.17" r="4.72"/><path class="cls-5" d="M199.26,26.51a4.77,4.77,0,0,0-4.22-.76,4.61,4.61,0,0,0-3.16,3.2,4.76,4.76,0,0,0,.75,4.16L192,34.2a.53.53,0,0,0,.45.8h4.41l.32-.05a4.72,4.72,0,0,0,2.08-8.43Z"/><rect class="cls-5" x="546" y="28.14" width="16.24" height="3.37" rx="1.69" ry="1.69"/><rect class="cls-5" x="525" y="28.14" width="16.24" height="3.37" rx="1.69" ry="1.69"/><rect class="cls-5" x="505" y="28.14" width="16.24" height="3.37" rx="1.69" ry="1.69"/><rect class="cls-6" x="190" y="47" width="391" height="32" rx="4" ry="4"/><rect class="cls-6" x="190" y="190" width="391" height="96" rx="4" ry="4"/><rect class="cls-6" x="190" y="88" width="122" height="93" rx="4" ry="4"/><rect class="cls-6" x="320" y="88" width="261" height="93" rx="4" ry="4"/><path class="cls-5" d="M82.19,135.8l-.82-2.09H76.71l-.82,2.09H74.56l3.77-9.34h1.44l3.75,9.34ZM79,127.65l-2,5h4Z"/><path class="cls-5" d="M84.12,134.91l.53-.76a3.08,3.08,0,0,0,2.23,1c1,0,1.61-.5,1.61-1.17,0-1.64-4.19-.63-4.19-3.14,0-1.06.9-1.94,2.51-1.94a3.39,3.39,0,0,1,2.51,1l-.49.73a2.63,2.63,0,0,0-2-.86c-.93,0-1.5.46-1.5,1.07,0,1.47,4.19.5,4.19,3.13,0,1.14-.91,2.05-2.65,2.05A3.65,3.65,0,0,1,84.12,134.91Z"/><path class="cls-5" d="M91,137.5a1.66,1.66,0,0,0,.58.11,1,1,0,0,0,1-.72l.44-1L90.2,129h1.14l2.24,5.54L95.84,129H97l-3.39,8.13a2,2,0,0,1-2,1.38,3.5,3.5,0,0,1-.76-.1Z"/><path class="cls-5" d="M102.64,135.8v-4.42c0-1.21-.61-1.57-1.52-1.57a2.6,2.6,0,0,0-2,1.05v4.94H98.06V129h1.06v1a3.28,3.28,0,0,1,2.42-1.15,1.91,1.91,0,0,1,2.14,2.18v4.75Z"/><path class="cls-5" d="M105.4,132.41a3.34,3.34,0,0,1,3.38-3.54,2.87,2.87,0,0,1,2.47,1.17l-.7.63a2,2,0,0,0-1.72-.86,2.63,2.63,0,0,0,0,5.22,2,2,0,0,0,1.72-.88l.7.64a2.85,2.85,0,0,1-2.47,1.18A3.35,3.35,0,0,1,105.4,132.41Z"/><path class="cls-5" d="M117.32,135.8v-4.45c0-1.21-.61-1.54-1.53-1.54a2.6,2.6,0,0,0-2,1.05v4.94h-1v-9.34h1V130a3.24,3.24,0,0,1,2.41-1.15,1.91,1.91,0,0,1,2.16,2.16v4.77Z"/><path class="cls-5" d="M120.46,135.8V129h1.05v1.07a2.92,2.92,0,0,1,2.26-1.23V130c-.13,0-.25,0-.41,0a2.47,2.47,0,0,0-1.85,1.08v4.79Z"/><path class="cls-5" d="M124.69,132.41A3.36,3.36,0,1,1,128,136,3.32,3.32,0,0,1,124.69,132.41Zm5.59,0A2.27,2.27,0,1,0,128,135,2.35,2.35,0,0,0,130.28,132.41Z"/><path class="cls-5" d="M137.67,135.8v-4.42c0-1.21-.62-1.57-1.53-1.57a2.63,2.63,0,0,0-2,1.05v4.94h-1V129h1v1a3.3,3.3,0,0,1,2.42-1.15,1.92,1.92,0,0,1,2.15,2.18v4.75Z"/><path class="cls-5" d="M140.43,132.41a3.35,3.35,0,1,1,3.34,3.56A3.31,3.31,0,0,1,140.43,132.41Zm5.58,0a2.27,2.27,0,1,0-2.24,2.62A2.34,2.34,0,0,0,146,132.41Z"/><path class="cls-5" d="M153.39,135.8v-1A3.3,3.3,0,0,1,151,136a1.91,1.91,0,0,1-2.15-2.16V129h1v4.45c0,1.19.6,1.54,1.52,1.54a2.59,2.59,0,0,0,2-1v-5h1.05v6.76Z"/><path class="cls-5" d="M156,134.91l.53-.76a3.06,3.06,0,0,0,2.22,1c1,0,1.62-.5,1.62-1.17,0-1.64-4.19-.63-4.19-3.14,0-1.06.89-1.94,2.51-1.94a3.34,3.34,0,0,1,2.5,1l-.49.73a2.6,2.6,0,0,0-2-.86c-.93,0-1.5.46-1.5,1.07,0,1.47,4.18.5,4.18,3.13,0,1.14-.91,2.05-2.64,2.05A3.63,3.63,0,0,1,156,134.91Z"/><path class="cls-5" d="M109.17,152.6V148c0-.86-.37-1.4-1.25-1.4a2.33,2.33,0,0,0-1.79,1v5h-1V148c0-.86-.35-1.4-1.25-1.4a2.37,2.37,0,0,0-1.78,1v4.94h-1v-6.76h1v1a3,3,0,0,1,2.2-1.15,1.73,1.73,0,0,1,1.81,1.26,2.84,2.84,0,0,1,2.27-1.26c1.23,0,1.89.68,1.89,2v4.89Z"/><path class="cls-5" d="M111.92,149.21a3.38,3.38,0,0,1,3.34-3.54c2,0,3.25,1.59,3.25,3.63v.26H113a2.38,2.38,0,0,0,2.43,2.34,3,3,0,0,0,2.1-.87l.5.69a3.75,3.75,0,0,1-2.69,1.05A3.36,3.36,0,0,1,111.92,149.21Zm3.32-2.67a2.24,2.24,0,0,0-2.21,2.24h4.44A2.19,2.19,0,0,0,115.24,146.54Z"/><path class="cls-5" d="M119.62,151.71l.53-.76a3.08,3.08,0,0,0,2.23,1c1,0,1.61-.5,1.61-1.17,0-1.64-4.19-.63-4.19-3.14,0-1.06.9-1.94,2.51-1.94a3.37,3.37,0,0,1,2.51,1l-.49.73a2.63,2.63,0,0,0-2-.86c-.92,0-1.5.46-1.5,1.07,0,1.47,4.19.5,4.19,3.13,0,1.14-.91,2.05-2.65,2.05A3.65,3.65,0,0,1,119.62,151.71Z"/><path class="cls-5" d="M126.13,151.71l.53-.76a3.08,3.08,0,0,0,2.23,1c1,0,1.61-.5,1.61-1.17,0-1.64-4.19-.63-4.19-3.14,0-1.06.9-1.94,2.51-1.94a3.37,3.37,0,0,1,2.51,1l-.49.73a2.63,2.63,0,0,0-2-.86c-.92,0-1.5.46-1.5,1.07,0,1.47,4.19.5,4.19,3.13,0,1.14-.91,2.05-2.65,2.05A3.65,3.65,0,0,1,126.13,151.71Z"/><path class="cls-5" d="M137.45,152.6v-.77a2.9,2.9,0,0,1-2.24.94,2.25,2.25,0,0,1-2.36-2.24,2.2,2.2,0,0,1,2.36-2.23,2.86,2.86,0,0,1,2.24.91V148c0-.89-.73-1.41-1.71-1.41a2.65,2.65,0,0,0-2.08.94l-.49-.73a3.54,3.54,0,0,1,2.71-1.12c1.44,0,2.62.64,2.62,2.28v4.65Zm0-1.43v-1.29a2.31,2.31,0,0,0-1.85-.82,1.49,1.49,0,1,0,0,2.95A2.26,2.26,0,0,0,137.45,151.17Z"/><path class="cls-5" d="M140.59,154.32l.53-.75a2.63,2.63,0,0,0,2.2.91,1.94,1.94,0,0,0,2.19-2v-1a2.86,2.86,0,0,1-2.28,1.21c-1.77,0-3-1.32-3-3.51s1.24-3.51,3-3.51a2.83,2.83,0,0,1,2.28,1.19v-1h1.05v6.66c0,2.15-1.58,2.85-3.24,2.85A3.47,3.47,0,0,1,140.59,154.32Zm4.92-3.67v-3a2.57,2.57,0,0,0-2-1.07c-1.37,0-2.18,1.07-2.18,2.57s.81,2.57,2.18,2.57A2.54,2.54,0,0,0,145.51,150.65Z"/><path class="cls-5" d="M148.26,149.21a3.39,3.39,0,0,1,3.34-3.54c2,0,3.25,1.59,3.25,3.63v.26h-5.46a2.36,2.36,0,0,0,2.42,2.34,3,3,0,0,0,2.1-.87l.5.69a3.72,3.72,0,0,1-2.69,1.05A3.36,3.36,0,0,1,148.26,149.21Zm3.32-2.67a2.25,2.25,0,0,0-2.21,2.24h4.44A2.19,2.19,0,0,0,151.58,146.54Z"/><path class="cls-5" d="M156,151.71l.54-.76a3.06,3.06,0,0,0,2.22,1c1,0,1.61-.5,1.61-1.17,0-1.64-4.18-.63-4.18-3.14,0-1.06.89-1.94,2.5-1.94a3.35,3.35,0,0,1,2.51,1l-.49.73a2.62,2.62,0,0,0-2-.86c-.92,0-1.49.46-1.49,1.07,0,1.47,4.18.5,4.18,3.13,0,1.14-.91,2.05-2.64,2.05A3.67,3.67,0,0,1,156,151.71Z"/><rect class="cls-3" x="180.42" y="42" width="94" height="223"/><rect class="cls-3" x="494.58" y="42" width="94" height="223"/><rect class="cls-7" x="180.42" y="265" width="408.16" height="33" rx="4" ry="4"/><rect class="cls-8" x="188" y="271" width="76" height="21" rx="2" ry="2"/><circle class="cls-5" cx="198.72" cy="281.72" r="6.28"/><rect class="cls-5" x="208" y="279.14" width="49" height="3.37" rx="1.69" ry="1.69"/><g class="cls-9"><rect class="cls-8" x="270" y="271" width="76" height="21" rx="2" ry="2"/><circle class="cls-5" cx="280.72" cy="281.72" r="6.28"/><rect class="cls-5" x="290" y="279.14" width="49" height="3.37" rx="1.69" ry="1.69"/></g><line class="cls-10" x1="226" y1="140" x2="226" y2="140"/><line class="cls-11" x1="220.1" y1="140" x2="169.95" y2="140"/><line class="cls-10" x1="167" y1="140" x2="167" y2="140"/><path class="cls-5" d="M615.45,135.8l-2.37-3.71H611.2v3.71H610v-9.34h3.75a2.74,2.74,0,0,1,3,2.81A2.59,2.59,0,0,1,614.3,132l2.52,3.81Zm.08-6.53a1.74,1.74,0,0,0-1.88-1.77H611.2v3.57h2.45A1.76,1.76,0,0,0,615.53,129.27Z"/><path class="cls-5" d="M618.34,127.37a.71.71,0,0,1,.72-.71.7.7,0,0,1,.7.71.7.7,0,0,1-.7.7A.71.71,0,0,1,618.34,127.37Zm.18,8.43V129h1.06v6.76Z"/><path class="cls-5" d="M621.66,137.52l.53-.75a2.6,2.6,0,0,0,2.2.91,1.94,1.94,0,0,0,2.19-2v-1a2.88,2.88,0,0,1-2.29,1.21c-1.76,0-3-1.32-3-3.51s1.23-3.51,3-3.51a2.85,2.85,0,0,1,2.29,1.19v-1h1v6.66c0,2.15-1.59,2.85-3.24,2.85A3.46,3.46,0,0,1,621.66,137.52Zm4.92-3.67v-3a2.57,2.57,0,0,0-2-1.07c-1.37,0-2.19,1.07-2.19,2.57s.82,2.57,2.19,2.57A2.54,2.54,0,0,0,626.58,133.85Z"/><path class="cls-5" d="M634.3,135.8v-4.45c0-1.21-.6-1.54-1.52-1.54a2.58,2.58,0,0,0-2,1.05v4.94h-1v-9.34h1V130a3.22,3.22,0,0,1,2.41-1.15,1.9,1.9,0,0,1,2.15,2.16v4.77Z"/><path class="cls-5" d="M637.66,134.39V130h-1.12V129h1.12v-1.85h1.07V129h1.37V130h-1.37v4.2c0,.51.22.87.67.87a1,1,0,0,0,.71-.29l.31.8a1.71,1.71,0,0,1-1.25.43A1.39,1.39,0,0,1,637.66,134.39Z"/><path class="cls-5" d="M644.62,134.91l.53-.76a3.06,3.06,0,0,0,2.23,1c1,0,1.61-.5,1.61-1.17,0-1.64-4.19-.63-4.19-3.13,0-1.07.9-1.95,2.51-1.95a3.39,3.39,0,0,1,2.51,1l-.49.73a2.63,2.63,0,0,0-2-.86c-.93,0-1.5.46-1.5,1.07,0,1.47,4.19.5,4.19,3.13,0,1.14-.91,2.05-2.65,2.05A3.65,3.65,0,0,1,644.62,134.91Z"/><path class="cls-5" d="M651.52,127.37a.71.71,0,0,1,.72-.71.7.7,0,0,1,.7.71.7.7,0,0,1-.7.7A.71.71,0,0,1,651.52,127.37Zm.18,8.43V129h1v6.76Z"/><path class="cls-5" d="M659.75,135.8v-1a2.83,2.83,0,0,1-2.28,1.18c-1.76,0-3-1.35-3-3.54s1.25-3.56,3-3.56a2.82,2.82,0,0,1,2.28,1.19v-3.6h1.06v9.34Zm0-1.85v-3a2.5,2.5,0,0,0-2-1.09c-1.37,0-2.19,1.12-2.19,2.62s.82,2.6,2.19,2.6A2.49,2.49,0,0,0,659.75,134Z"/><path class="cls-5" d="M662.51,132.41a3.38,3.38,0,0,1,3.33-3.54c2,0,3.25,1.59,3.25,3.63v.26h-5.46a2.37,2.37,0,0,0,2.42,2.34,3,3,0,0,0,2.11-.87l.5.69A3.75,3.75,0,0,1,666,136,3.36,3.36,0,0,1,662.51,132.41Zm3.32-2.67a2.25,2.25,0,0,0-2.21,2.24h4.44A2.19,2.19,0,0,0,665.83,129.74Z"/><path class="cls-5" d="M675.46,134.78v3.6h-1.05V129h1.05v1a2.84,2.84,0,0,1,2.28-1.17c1.78,0,3,1.34,3,3.54s-1.24,3.56-3,3.56A2.83,2.83,0,0,1,675.46,134.78Zm4.19-2.37c0-1.5-.81-2.6-2.17-2.6a2.51,2.51,0,0,0-2,1.07v3.06a2.5,2.5,0,0,0,2,1.09C678.84,135,679.65,133.91,679.65,132.41Z"/><path class="cls-5" d="M686.65,135.8V135a2.9,2.9,0,0,1-2.24.94,2.25,2.25,0,0,1-2.36-2.24,2.2,2.2,0,0,1,2.36-2.23,2.9,2.9,0,0,1,2.24.91v-1.22c0-.89-.73-1.41-1.71-1.41a2.63,2.63,0,0,0-2.07.94l-.49-.73a3.5,3.5,0,0,1,2.7-1.12c1.44,0,2.62.64,2.62,2.28v4.65Zm0-1.43v-1.29a2.31,2.31,0,0,0-1.85-.82,1.49,1.49,0,1,0,0,3A2.26,2.26,0,0,0,686.65,134.37Z"/><path class="cls-5" d="M694.39,135.8v-4.42c0-1.21-.62-1.57-1.53-1.57a2.63,2.63,0,0,0-2,1.05v4.94h-1.05V129h1.05v1a3.3,3.3,0,0,1,2.42-1.15,1.92,1.92,0,0,1,2.15,2.18v4.75Z"/><path class="cls-5" d="M697.14,132.41a3.39,3.39,0,0,1,3.34-3.54c2,0,3.25,1.59,3.25,3.63v.26h-5.46a2.36,2.36,0,0,0,2.42,2.34,3,3,0,0,0,2.1-.87l.5.69A3.72,3.72,0,0,1,700.6,136,3.36,3.36,0,0,1,697.14,132.41Zm3.32-2.67a2.26,2.26,0,0,0-2.21,2.24h4.44A2.19,2.19,0,0,0,700.46,129.74Z"/><path class="cls-5" d="M705.42,135.8v-9.34h1.05v9.34Z"/><path class="cls-5" d="M615.85,152.6l-1.76-5.43-1.77,5.43h-1.05l-2.15-6.76h1.09l1.65,5.39,1.78-5.39h.91l1.77,5.39,1.65-5.39h1.11l-2.16,6.76Z"/><path class="cls-5" d="M620.09,144.17a.71.71,0,0,1,.72-.71.7.7,0,0,1,.7.71.7.7,0,0,1-.7.7A.71.71,0,0,1,620.09,144.17Zm.18,8.43v-6.76h1.06v6.76Z"/><path class="cls-5" d="M623.63,151.19v-4.43h-1.12v-.92h1.12V144h1.07v1.85h1.37v.92H624.7V151c0,.51.22.87.67.87a1,1,0,0,0,.71-.29l.31.79a1.65,1.65,0,0,1-1.24.44A1.39,1.39,0,0,1,623.63,151.19Z"/><path class="cls-5" d="M632.12,152.6v-4.45c0-1.21-.6-1.54-1.53-1.54a2.61,2.61,0,0,0-2,1v4.94h-1.05v-9.34h1.05v3.56a3.26,3.26,0,0,1,2.41-1.15,1.9,1.9,0,0,1,2.16,2.16v4.77Z"/><path class="cls-5" d="M639.94,151.58v3.6h-1.05v-9.34h1.05v1a2.84,2.84,0,0,1,2.29-1.17c1.78,0,3,1.34,3,3.54s-1.23,3.56-3,3.56A2.84,2.84,0,0,1,639.94,151.58Zm4.19-2.37c0-1.5-.81-2.6-2.17-2.6a2.53,2.53,0,0,0-2,1.07v3.06a2.52,2.52,0,0,0,2,1.09C643.32,151.83,644.13,150.71,644.13,149.21Z"/><path class="cls-5" d="M646.9,152.6v-6.76H648v1.07a2.92,2.92,0,0,1,2.26-1.23v1.08c-.13,0-.25,0-.41,0a2.47,2.47,0,0,0-1.85,1.08v4.79Z"/><path class="cls-5" d="M651.13,149.21a3.35,3.35,0,1,1,3.35,3.56A3.32,3.32,0,0,1,651.13,149.21Zm5.59,0a2.27,2.27,0,1,0-2.24,2.62A2.35,2.35,0,0,0,656.72,149.21Z"/><path class="cls-5" d="M659.82,152.6v-5.84H658.7v-.92h1.12v-.52a1.94,1.94,0,0,1,2-2.2,2.19,2.19,0,0,1,1,.22l-.27.8a1.09,1.09,0,0,0-.6-.15c-.7,0-1.08.46-1.08,1.33v.52h1.38v.92h-1.38v5.84Zm3.51-8.43a.71.71,0,0,1,.71-.71.7.7,0,0,1,.7.71.7.7,0,0,1-.7.7A.7.7,0,0,1,663.33,144.17Zm.18,8.43v-6.76h1v6.76Z"/><path class="cls-5" d="M666.66,152.6v-9.34h1.05v9.34Z"/><path class="cls-5" d="M669.41,149.21a3.38,3.38,0,0,1,3.34-3.54c2,0,3.25,1.59,3.25,3.63v.26h-5.47A2.38,2.38,0,0,0,673,151.9a3,3,0,0,0,2.1-.87l.5.69a3.74,3.74,0,0,1-2.69,1.05A3.36,3.36,0,0,1,669.41,149.21Zm3.32-2.67a2.25,2.25,0,0,0-2.21,2.24H675A2.19,2.19,0,0,0,672.73,146.54Z"/><path class="cls-5" d="M677.87,154.38l-.53-.43a2.11,2.11,0,0,0,.91-1.31.53.53,0,0,1-.2,0,.68.68,0,0,1-.67-.71.75.75,0,0,1,.74-.76c.48,0,.88.39.88,1.07A2.69,2.69,0,0,1,677.87,154.38Z"/><path class="cls-5" d="M684.43,152.6v-9.34h1.06v9.34Z"/><path class="cls-5" d="M687.4,144.17a.71.71,0,0,1,.72-.71.7.7,0,0,1,.7.71.7.7,0,0,1-.7.7A.71.71,0,0,1,687.4,144.17Zm.18,8.43v-6.76h1v6.76Z"/><path class="cls-5" d="M692.54,152.6l-2.82-6.76h1.15l2.24,5.54,2.26-5.54h1.13l-2.81,6.76Z"/><path class="cls-5" d="M697.2,149.21a3.38,3.38,0,0,1,3.34-3.54c2,0,3.25,1.59,3.25,3.63v.26h-5.47a2.38,2.38,0,0,0,2.43,2.34,3,3,0,0,0,2.1-.87l.5.69a3.75,3.75,0,0,1-2.69,1.05A3.36,3.36,0,0,1,697.2,149.21Zm3.32-2.67a2.24,2.24,0,0,0-2.21,2.24h4.44A2.19,2.19,0,0,0,700.52,146.54Z"/><path class="cls-5" d="M705.77,152.6v-5.84h-1.12v-.92h1.12v-.52a2,2,0,0,1,3.39-1.68l-.43.67a1.23,1.23,0,0,0-.83-.32c-.7,0-1.08.46-1.08,1.33v.52h1.37v.92h-1.37v5.84Z"/><path class="cls-5" d="M709.06,149.21a3.38,3.38,0,0,1,3.33-3.54c2.05,0,3.25,1.59,3.25,3.63v.26h-5.46a2.37,2.37,0,0,0,2.42,2.34,2.92,2.92,0,0,0,2.1-.87l.51.69a3.75,3.75,0,0,1-2.69,1.05A3.36,3.36,0,0,1,709.06,149.21Zm3.32-2.67a2.24,2.24,0,0,0-2.21,2.24h4.44A2.19,2.19,0,0,0,712.38,146.54Z"/><path class="cls-5" d="M716.94,149.21a3.38,3.38,0,0,1,3.33-3.54c2.05,0,3.25,1.59,3.25,3.63v.26h-5.46a2.37,2.37,0,0,0,2.42,2.34,3,3,0,0,0,2.11-.87l.5.69a3.75,3.75,0,0,1-2.69,1.05A3.36,3.36,0,0,1,716.94,149.21Zm3.32-2.67a2.24,2.24,0,0,0-2.21,2.24h4.44A2.19,2.19,0,0,0,720.26,146.54Z"/><path class="cls-5" d="M730.12,152.6v-1a2.85,2.85,0,0,1-2.29,1.18c-1.76,0-3-1.35-3-3.54s1.25-3.56,3-3.56a2.85,2.85,0,0,1,2.29,1.19v-3.6h1v9.34Zm0-1.85V147.7a2.52,2.52,0,0,0-2-1.09c-1.37,0-2.18,1.12-2.18,2.62s.81,2.6,2.18,2.6A2.51,2.51,0,0,0,730.12,150.75Z"/><path class="cls-5" d="M733.83,152.74a.77.77,0,1,1,0-1.54.77.77,0,0,1,0,1.54Zm3.22,0a.77.77,0,1,1,.77-.77A.78.78,0,0,1,737.05,152.74Zm3.23,0a.77.77,0,1,1,0-1.54.77.77,0,0,1,0,1.54Z"/><line class="cls-10" x1="602" y1="141" x2="602" y2="141"/><line class="cls-12" x1="596.08" y1="141" x2="456.96" y2="141"/><line class="cls-10" x1="454" y1="141" x2="454" y2="141"/></svg>