<svg id="Calque_1" data-name="Calque 1" xmlns="http://www.w3.org/2000/svg" viewBox="0 0 769 315"><defs><style>.cls-1{fill:#57a7ff;}.cls-2{fill:#1bc74e;}.cls-3{fill:#b0bed2;}.cls-4,.cls-7{fill:#fff;}.cls-11,.cls-12,.cls-13,.cls-4{stroke:#b0bed2;}.cls-11,.cls-12,.cls-13,.cls-14,.cls-15,.cls-4,.cls-5,.cls-7,.cls-8{stroke-miterlimit:10;stroke-width:2px;}.cls-5,.cls-6,.cls-8{fill:#eaf2fb;}.cls-5{stroke:#57a7ff;}.cls-14,.cls-15,.cls-7,.cls-8{stroke:#4cdf76;}.cls-9{opacity:0.5;}.cls-10{font-size:14px;fill:#8394a8;font-family:ProximaNova-Regular, Proxima Nova;}.cls-11,.cls-12,.cls-13,.cls-14,.cls-15{fill:none;stroke-linecap:round;}.cls-12{stroke-dasharray:0 5.92;}.cls-13{stroke-dasharray:0 5.94;}.cls-15{stroke-dasharray:0 6.1;}</style></defs><title>console</title><path class="cls-1" d="M119.33,33.5V25.19h-3v-1h7.08v1h-3V33.5Z"/><path class="cls-1" d="M123,30.11a3.35,3.35,0,1,1,6.69,0,3.35,3.35,0,1,1-6.69,0Zm5.58,0a2.26,2.26,0,1,0-4.48,0,2.27,2.27,0,1,0,4.48,0Z"/><path class="cls-1" d="M132.41,32.48v3.6h-1V26.73h1v1a2.84,2.84,0,0,1,2.28-1.17c1.78,0,3,1.34,3,3.54s-1.23,3.56-3,3.56A2.82,2.82,0,0,1,132.41,32.48Zm4.18-2.37c0-1.5-.81-2.6-2.17-2.6a2.51,2.51,0,0,0-2,1.07v3.06a2.5,2.5,0,0,0,2,1.09C135.78,32.73,136.59,31.61,136.59,30.11Z"/><path class="cls-1" d="M143,33.5V24.16h1v3.6a2.82,2.82,0,0,1,2.28-1.19c1.78,0,3,1.38,3,3.55s-1.24,3.55-3,3.55A2.83,2.83,0,0,1,144,32.49v1Zm3.08-.77c1.36,0,2.17-1.11,2.17-2.61s-.81-2.61-2.17-2.61a2.5,2.5,0,0,0-2,1.09v3.07A2.51,2.51,0,0,0,146.07,32.73Z"/><path class="cls-1" d="M155.27,33.5v-.77a2.9,2.9,0,0,1-2.24.94,2.25,2.25,0,0,1-2.36-2.24A2.2,2.2,0,0,1,153,29.2a2.86,2.86,0,0,1,2.24.91V28.89c0-.89-.73-1.41-1.71-1.41a2.63,2.63,0,0,0-2.07.94l-.49-.73a3.52,3.52,0,0,1,2.7-1.12c1.44,0,2.62.64,2.62,2.28V33.5Zm0-1.43V30.78a2.31,2.31,0,0,0-1.85-.82,1.49,1.49,0,1,0,0,2.95A2.26,2.26,0,0,0,155.27,32.07Z"/><path class="cls-1" d="M158.43,33.5V26.73h1v1.08a2.92,2.92,0,0,1,2.26-1.23v1.08c-.13,0-.26,0-.41,0a2.47,2.47,0,0,0-1.85,1.08V33.5Z"/><path class="cls-2" d="M77,286.5v-9.34h1.16v9.34Z"/><path class="cls-2" d="M84.91,286.5v-4.43c0-1.2-.62-1.56-1.53-1.56a2.6,2.6,0,0,0-2,1.05v4.94h-1v-6.77h1v1a3.31,3.31,0,0,1,2.42-1.14,1.91,1.91,0,0,1,2.14,2.18v4.75Z"/><path class="cls-2" d="M87.66,283.11A3.34,3.34,0,0,1,91,279.57a2.9,2.9,0,0,1,2.48,1.17l-.7.63a2,2,0,0,0-1.73-.86,2.63,2.63,0,0,0,0,5.22,2.06,2.06,0,0,0,1.73-.88l.7.64A2.91,2.91,0,0,1,91,286.67,3.36,3.36,0,0,1,87.66,283.11Z"/><path class="cls-2" d="M94.6,283.11A3.36,3.36,0,1,1,98,286.67,3.32,3.32,0,0,1,94.6,283.11Zm5.59,0A2.27,2.27,0,1,0,98,285.73,2.34,2.34,0,0,0,100.19,283.11Z"/><path class="cls-2" d="M111.17,286.5v-4.59c0-.86-.36-1.4-1.25-1.4a2.33,2.33,0,0,0-1.79,1v5h-1v-4.59c0-.86-.35-1.4-1.25-1.4a2.34,2.34,0,0,0-1.77,1.05v4.94H103v-6.77h1.06v1a3,3,0,0,1,2.19-1.14,1.72,1.72,0,0,1,1.81,1.26,2.84,2.84,0,0,1,2.27-1.26c1.23,0,1.89.68,1.89,2v4.89Z"/><path class="cls-2" d="M114.13,278.07a.73.73,0,0,1,.72-.72.71.71,0,0,1,.7.72.7.7,0,0,1-.7.7A.71.71,0,0,1,114.13,278.07Zm.19,8.43v-6.77h1.05v6.77Z"/><path class="cls-2" d="M122.05,286.5v-4.43c0-1.2-.62-1.56-1.53-1.56a2.6,2.6,0,0,0-2,1.05v4.94h-1v-6.77h1v1a3.31,3.31,0,0,1,2.42-1.14,1.91,1.91,0,0,1,2.14,2.18v4.75Z"/><path class="cls-2" d="M125.18,288.22l.53-.75a2.63,2.63,0,0,0,2.2.91,1.94,1.94,0,0,0,2.19-2v-1a2.88,2.88,0,0,1-2.29,1.2c-1.76,0-3-1.31-3-3.5s1.23-3.51,3-3.51a2.85,2.85,0,0,1,2.29,1.19v-1h1.05v6.67c0,2.14-1.59,2.85-3.24,2.85A3.46,3.46,0,0,1,125.18,288.22Zm4.92-3.67v-3a2.57,2.57,0,0,0-2-1.07c-1.37,0-2.19,1.07-2.19,2.57s.82,2.57,2.19,2.57A2.54,2.54,0,0,0,130.1,284.55Z"/><path class="cls-2" d="M136.48,283.11a3.34,3.34,0,0,1,3.37-3.54,2.9,2.9,0,0,1,2.48,1.17l-.7.63a2,2,0,0,0-1.72-.86,2.63,2.63,0,0,0,0,5.22,2,2,0,0,0,1.72-.88l.7.64a2.91,2.91,0,0,1-2.48,1.18A3.36,3.36,0,0,1,136.48,283.11Z"/><path class="cls-2" d="M148.39,286.5v-4.45c0-1.21-.6-1.54-1.52-1.54a2.58,2.58,0,0,0-2,1.05v4.94h-1v-9.34h1v3.55a3.25,3.25,0,0,1,2.41-1.14,1.89,1.89,0,0,1,2.15,2.15v4.78Z"/><path class="cls-2" d="M155.77,286.5v-.77a2.9,2.9,0,0,1-2.24.94,2.24,2.24,0,0,1-2.35-2.24,2.19,2.19,0,0,1,2.35-2.23,2.86,2.86,0,0,1,2.24.91v-1.22c0-.89-.73-1.41-1.71-1.41a2.63,2.63,0,0,0-2.07.94l-.49-.73a3.52,3.52,0,0,1,2.7-1.12c1.44,0,2.62.64,2.62,2.28v4.65Zm0-1.43v-1.29a2.31,2.31,0,0,0-1.85-.82,1.49,1.49,0,1,0,0,3A2.26,2.26,0,0,0,155.77,285.07Z"/><path class="cls-2" d="M159.14,285.09v-4.43H158v-.93h1.12v-1.84h1.07v1.84h1.37v.93h-1.37v4.2c0,.51.22.87.67.87a1,1,0,0,0,.71-.29l.31.79a1.68,1.68,0,0,1-1.25.44A1.39,1.39,0,0,1,159.14,285.09Z"/><path class="cls-3" d="M83.87,155.84a4.67,4.67,0,0,1,4.8-4.84,4.17,4.17,0,0,1,3.55,1.85l-1,.55A3.13,3.13,0,0,0,88.67,152a3.8,3.8,0,0,0,0,7.59,3.16,3.16,0,0,0,2.58-1.36l1,.54a4.21,4.21,0,0,1-3.56,1.86A4.67,4.67,0,0,1,83.87,155.84Z"/><path class="cls-3" d="M98.25,160.5v-4.45c0-1.21-.6-1.54-1.53-1.54a2.6,2.6,0,0,0-2,1.05v4.94h-1v-9.34h1v3.55a3.27,3.27,0,0,1,2.41-1.14,1.9,1.9,0,0,1,2.16,2.15v4.78Z"/><path class="cls-3" d="M105.63,160.5v-.77a2.92,2.92,0,0,1-2.25.94,2.25,2.25,0,0,1-2.35-2.24,2.2,2.2,0,0,1,2.35-2.23,2.87,2.87,0,0,1,2.25.91v-1.22c0-.89-.73-1.41-1.71-1.41a2.65,2.65,0,0,0-2.08.94l-.49-.73a3.54,3.54,0,0,1,2.71-1.12c1.44,0,2.62.64,2.62,2.28v4.65Zm0-1.43v-1.29a2.32,2.32,0,0,0-1.85-.82,1.49,1.49,0,1,0,0,2.95A2.28,2.28,0,0,0,105.63,159.07Z"/><path class="cls-3" d="M109,159.09v-4.43h-1.12v-.93H109v-1.84h1.06v1.84h1.37v.93h-1.37v4.2c0,.51.23.87.67.87a1,1,0,0,0,.72-.29l.31.79a1.69,1.69,0,0,1-1.25.44A1.39,1.39,0,0,1,109,159.09Z"/><path class="cls-3" d="M116.14,157.11a3.34,3.34,0,0,1,3.37-3.54,2.89,2.89,0,0,1,2.48,1.17l-.7.63a2,2,0,0,0-1.72-.86,2.63,2.63,0,0,0,0,5.22,2,2,0,0,0,1.72-.88l.7.64a2.9,2.9,0,0,1-2.48,1.18A3.36,3.36,0,0,1,116.14,157.11Z"/><path class="cls-3" d="M123.08,157.11a3.36,3.36,0,1,1,3.35,3.56A3.32,3.32,0,0,1,123.08,157.11Zm5.59,0a2.27,2.27,0,1,0-2.24,2.62A2.35,2.35,0,0,0,128.67,157.11Z"/><path class="cls-3" d="M136.06,160.5v-4.43c0-1.2-.62-1.56-1.53-1.56a2.63,2.63,0,0,0-2,1.05v4.94h-1.05v-6.77h1.05v1a3.32,3.32,0,0,1,2.42-1.14,1.92,1.92,0,0,1,2.15,2.18v4.75Z"/><path class="cls-3" d="M139.42,159.09v-4.43H138.3v-.93h1.12v-1.84h1.06v1.84h1.38v.93h-1.38v4.2c0,.51.23.87.68.87a1,1,0,0,0,.71-.29l.31.79a1.69,1.69,0,0,1-1.25.44A1.39,1.39,0,0,1,139.42,159.09Z"/><path class="cls-3" d="M142.93,157.11a3.38,3.38,0,0,1,3.34-3.54c2,0,3.25,1.59,3.25,3.63v.26h-5.47a2.38,2.38,0,0,0,2.43,2.34,3,3,0,0,0,2.1-.87l.5.69a3.75,3.75,0,0,1-2.69,1A3.36,3.36,0,0,1,142.93,157.11Zm3.32-2.67a2.24,2.24,0,0,0-2.21,2.24h4.44A2.19,2.19,0,0,0,146.25,154.44Z"/><path class="cls-3" d="M155.79,160.5v-4.43c0-1.2-.62-1.56-1.53-1.56a2.6,2.6,0,0,0-2,1.05v4.94h-1v-6.77h1v1a3.31,3.31,0,0,1,2.42-1.14,1.91,1.91,0,0,1,2.14,2.18v4.75Z"/><path class="cls-3" d="M159.14,159.09v-4.43H158v-.93h1.12v-1.84h1.07v1.84h1.37v.93h-1.37v4.2c0,.51.22.87.67.87a1,1,0,0,0,.71-.29l.31.79a1.65,1.65,0,0,1-1.24.44A1.39,1.39,0,0,1,159.14,159.09Z"/><path class="cls-3" d="M612.84,206.28l-3.77-9.35h1.33l3.16,8.07,3.15-8.07H618l-3.76,9.35Z"/><path class="cls-3" d="M619,197.84a.71.71,0,0,1,.71-.71.7.7,0,0,1,.7.71.69.69,0,0,1-.7.7A.7.7,0,0,1,619,197.84Zm.18,8.44v-6.77h1v6.77Z"/><path class="cls-3" d="M621.79,205.38l.53-.76a3.06,3.06,0,0,0,2.22,1c1,0,1.62-.49,1.62-1.16,0-1.64-4.19-.63-4.19-3.14,0-1.07.89-1.95,2.5-1.95a3.39,3.39,0,0,1,2.51,1l-.49.73a2.61,2.61,0,0,0-2-.85c-.92,0-1.49.46-1.49,1.06,0,1.47,4.18.5,4.18,3.14,0,1.13-.91,2-2.64,2A3.63,3.63,0,0,1,621.79,205.38Z"/><path class="cls-3" d="M628.69,197.84a.71.71,0,0,1,.71-.71.7.7,0,0,1,.7.71.69.69,0,0,1-.7.7A.7.7,0,0,1,628.69,197.84Zm.18,8.44v-6.77h1v6.77Z"/><path class="cls-3" d="M632.23,204.86v-4.43h-1.12v-.92h1.12v-1.85h1.06v1.85h1.38v.92h-1.38v4.21c0,.5.23.86.68.86a1,1,0,0,0,.71-.29l.31.8a1.73,1.73,0,0,1-1.25.43A1.38,1.38,0,0,1,632.23,204.86Z"/><path class="cls-3" d="M635.74,202.89a3.36,3.36,0,1,1,3.35,3.55A3.32,3.32,0,0,1,635.74,202.89Zm5.59,0a2.27,2.27,0,1,0-2.24,2.61A2.35,2.35,0,0,0,641.33,202.89Z"/><path class="cls-3" d="M644.14,206.28v-6.77h1.05v1.08a2.92,2.92,0,0,1,2.26-1.23v1.07l-.41,0a2.49,2.49,0,0,0-1.85,1.07v4.8Z"/><path class="cls-3" d="M652.21,197.84a.71.71,0,0,1,.71-.71.7.7,0,0,1,.7.71.69.69,0,0,1-.7.7A.7.7,0,0,1,652.21,197.84Zm.18,8.44v-6.77h1.05v6.77Z"/><path class="cls-3" d="M660.12,206.28v-4.43c0-1.21-.62-1.57-1.53-1.57a2.62,2.62,0,0,0-2,1.05v4.95h-1.05v-6.77h1.05v1a3.31,3.31,0,0,1,2.42-1.15,1.93,1.93,0,0,1,2.15,2.19v4.75Z"/><path class="cls-3" d="M663.56,206.28v-5.85h-1.12v-.92h1.12V199a1.93,1.93,0,0,1,2-2.2,2,2,0,0,1,1.43.52l-.43.67a1.26,1.26,0,0,0-.83-.32c-.7,0-1.08.46-1.08,1.33v.52H666v.92h-1.37v5.85Z"/><path class="cls-3" d="M666.85,202.89a3.35,3.35,0,1,1,3.35,3.55A3.32,3.32,0,0,1,666.85,202.89Zm5.59,0a2.27,2.27,0,1,0-2.24,2.61A2.35,2.35,0,0,0,672.44,202.89Z"/><path class="cls-3" d="M675.25,206.28v-6.77h1v1.08a2.92,2.92,0,0,1,2.25-1.23v1.07l-.4,0a2.49,2.49,0,0,0-1.85,1.07v4.8Z"/><path class="cls-3" d="M688,206.28v-4.6c0-.85-.37-1.4-1.25-1.4a2.32,2.32,0,0,0-1.79,1v5h-1v-4.6c0-.85-.36-1.4-1.25-1.4a2.34,2.34,0,0,0-1.78,1.05v4.95h-1v-6.77h1v1a3,3,0,0,1,2.2-1.15,1.74,1.74,0,0,1,1.81,1.26,2.84,2.84,0,0,1,2.27-1.26c1.23,0,1.89.69,1.89,2v4.89Z"/><path class="cls-3" d="M695.41,206.28v-.78a2.9,2.9,0,0,1-2.24.94,2.25,2.25,0,0,1-2.35-2.24,2.2,2.2,0,0,1,2.35-2.23,2.87,2.87,0,0,1,2.24.92v-1.22c0-.9-.73-1.42-1.71-1.42a2.63,2.63,0,0,0-2.07.94l-.49-.73a3.57,3.57,0,0,1,2.7-1.12c1.45,0,2.62.65,2.62,2.28v4.66Zm0-1.43v-1.29a2.28,2.28,0,0,0-1.85-.83,1.49,1.49,0,1,0,0,3A2.26,2.26,0,0,0,695.41,204.85Z"/><path class="cls-3" d="M698.78,204.86v-4.43h-1.12v-.92h1.12v-1.85h1.07v1.85h1.37v.92h-1.37v4.21c0,.5.22.86.67.86a1,1,0,0,0,.71-.29l.31.8a1.7,1.7,0,0,1-1.25.43A1.39,1.39,0,0,1,698.78,204.86Z"/><path class="cls-3" d="M702.51,197.84a.71.71,0,0,1,.71-.71.7.7,0,0,1,.7.71.69.69,0,0,1-.7.7A.7.7,0,0,1,702.51,197.84Zm.18,8.44v-6.77h1v6.77Z"/><path class="cls-3" d="M705.45,202.89a3.35,3.35,0,1,1,3.34,3.55A3.31,3.31,0,0,1,705.45,202.89Zm5.58,0a2.27,2.27,0,1,0-2.24,2.61A2.35,2.35,0,0,0,711,202.89Z"/><path class="cls-3" d="M718.43,206.28v-4.43c0-1.21-.62-1.57-1.53-1.57a2.6,2.6,0,0,0-2,1.05v4.95h-1v-6.77h1v1a3.31,3.31,0,0,1,2.42-1.15,1.92,1.92,0,0,1,2.14,2.19v4.75Z"/><rect class="cls-4" x="180.42" y="16" width="408.16" height="282" rx="4" ry="4"/><rect class="cls-5" x="185.48" y="22.07" width="398.04" height="16.19" rx="4" ry="4"/><circle class="cls-3" cx="572.16" cy="30.17" r="4.72"/><path class="cls-3" d="M199.26,26.51a4.77,4.77,0,0,0-4.22-.76,4.61,4.61,0,0,0-3.16,3.2,4.76,4.76,0,0,0,.75,4.16L192,34.2a.53.53,0,0,0,.45.8h4.41l.32-.05a4.72,4.72,0,0,0,2.08-8.43Z"/><rect class="cls-3" x="546" y="28.14" width="16.24" height="3.37" rx="1.69" ry="1.69"/><rect class="cls-3" x="525" y="28.14" width="16.24" height="3.37" rx="1.69" ry="1.69"/><rect class="cls-3" x="505" y="28.14" width="16.24" height="3.37" rx="1.69" ry="1.69"/><rect class="cls-6" x="190" y="47" width="391" height="32" rx="4" ry="4"/><rect class="cls-6" x="190" y="190" width="391" height="96" rx="4" ry="4"/><rect class="cls-6" x="190" y="88" width="122" height="93" rx="4" ry="4"/><rect class="cls-6" x="320" y="88" width="261" height="93" rx="4" ry="4"/><path class="cls-4" d="M273.06,134H493.94a4.06,4.06,0,0,1,4.06,4.06V265a0,0,0,0,1,0,0H269a0,0,0,0,1,0,0V138.06A4.06,4.06,0,0,1,273.06,134Z"/><path class="cls-7" d="M273.06,134H324a0,0,0,0,1,0,0V265a0,0,0,0,1,0,0H269a0,0,0,0,1,0,0V138.06A4.06,4.06,0,0,1,273.06,134Z"/><line class="cls-4" x1="447" y1="134.5" x2="447" y2="265"/><rect class="cls-8" x="180.42" y="265" width="408.16" height="33" rx="4" ry="4"/><rect class="cls-7" x="188" y="271" width="76" height="21" rx="2" ry="2"/><circle class="cls-3" cx="198.72" cy="281.72" r="6.28"/><rect class="cls-3" x="208" y="279.14" width="49" height="3.37" rx="1.69" ry="1.69"/><g class="cls-9"><rect class="cls-7" x="270" y="271" width="76" height="21" rx="2" ry="2"/><circle class="cls-3" cx="280.72" cy="281.72" r="6.28"/><rect class="cls-3" x="290" y="279.14" width="49" height="3.37" rx="1.69" ry="1.69"/></g><text class="cls-10" transform="translate(355.34 110.28)">Mirroring</text><line class="cls-11" x1="602" y1="202.51" x2="602" y2="202.51"/><line class="cls-12" x1="596.08" y1="202.51" x2="456.96" y2="202.51"/><line class="cls-11" x1="454" y1="202.51" x2="454" y2="202.51"/><line class="cls-11" x1="369" y1="156" x2="369" y2="156"/><line class="cls-13" x1="363.06" y1="156" x2="169.97" y2="156"/><line class="cls-11" x1="167" y1="156" x2="167" y2="156"/><path class="cls-2" d="M86.54,183.84A4.68,4.68,0,0,1,91.35,179a4.15,4.15,0,0,1,3.54,1.85l-1,.55A3.13,3.13,0,0,0,91.35,180a3.8,3.8,0,0,0,0,7.59,3.15,3.15,0,0,0,2.57-1.36l1,.54a4.21,4.21,0,0,1-3.55,1.86A4.68,4.68,0,0,1,86.54,183.84Z"/><path class="cls-2" d="M100.92,188.5v-4.45c0-1.21-.6-1.54-1.52-1.54a2.58,2.58,0,0,0-2,1.05v4.94h-1v-9.34h1v3.55a3.25,3.25,0,0,1,2.41-1.14,1.89,1.89,0,0,1,2.15,2.15v4.78Z"/><path class="cls-2" d="M108.3,188.5v-.77a2.9,2.9,0,0,1-2.24.94,2.24,2.24,0,0,1-2.35-2.24,2.19,2.19,0,0,1,2.35-2.23,2.86,2.86,0,0,1,2.24.91v-1.22c0-.89-.73-1.41-1.71-1.41a2.63,2.63,0,0,0-2.07.94l-.49-.73a3.52,3.52,0,0,1,2.7-1.12c1.44,0,2.62.64,2.62,2.28v4.65Zm0-1.43v-1.29a2.31,2.31,0,0,0-1.85-.82,1.49,1.49,0,1,0,0,2.95A2.26,2.26,0,0,0,108.3,187.07Z"/><path class="cls-2" d="M111.67,187.09v-4.43h-1.12v-.93h1.12v-1.84h1.07v1.84h1.37v.93h-1.37v4.2c0,.51.22.87.67.87a1,1,0,0,0,.71-.29l.31.79a1.68,1.68,0,0,1-1.25.44A1.39,1.39,0,0,1,111.67,187.09Z"/><path class="cls-2" d="M123.43,188.5v-.77a2.88,2.88,0,0,1-2.24.94,2.25,2.25,0,0,1-2.35-2.24,2.19,2.19,0,0,1,2.35-2.23,2.83,2.83,0,0,1,2.24.91v-1.22c0-.89-.72-1.41-1.71-1.41a2.63,2.63,0,0,0-2.07.94l-.49-.73a3.53,3.53,0,0,1,2.7-1.12c1.45,0,2.62.64,2.62,2.28v4.65Zm0-1.43v-1.29a2.29,2.29,0,0,0-1.85-.82,1.49,1.49,0,1,0,0,2.95A2.25,2.25,0,0,0,123.43,187.07Z"/><path class="cls-2" d="M126.2,185.11a3.34,3.34,0,0,1,3.38-3.54,2.9,2.9,0,0,1,2.48,1.17l-.7.63a2,2,0,0,0-1.73-.86,2.63,2.63,0,0,0,0,5.22,2.06,2.06,0,0,0,1.73-.88l.7.64a2.91,2.91,0,0,1-2.48,1.18A3.36,3.36,0,0,1,126.2,185.11Z"/><path class="cls-2" d="M133.75,187.09v-4.43h-1.12v-.93h1.12v-1.84h1.06v1.84h1.38v.93h-1.38v4.2c0,.51.23.87.68.87a1,1,0,0,0,.71-.29l.31.79a1.69,1.69,0,0,1-1.25.44A1.39,1.39,0,0,1,133.75,187.09Z"/><path class="cls-2" d="M137.47,180.07a.72.72,0,0,1,.72-.72.71.71,0,0,1,.7.72.7.7,0,0,1-.7.7A.71.71,0,0,1,137.47,180.07Zm.18,8.43v-6.77h1.06v6.77Z"/><path class="cls-2" d="M140.41,185.11a3.36,3.36,0,1,1,3.35,3.56A3.32,3.32,0,0,1,140.41,185.11Zm5.59,0a2.27,2.27,0,1,0-2.24,2.62A2.35,2.35,0,0,0,146,185.11Z"/><path class="cls-2" d="M153.39,188.5v-4.43c0-1.2-.61-1.56-1.52-1.56a2.64,2.64,0,0,0-2,1.05v4.94h-1.05v-6.77h1.05v1a3.33,3.33,0,0,1,2.43-1.14,1.91,1.91,0,0,1,2.14,2.18v4.75Z"/><path class="cls-2" d="M156,187.6l.54-.75a3,3,0,0,0,2.22,1c1,0,1.61-.49,1.61-1.16,0-1.64-4.18-.63-4.18-3.14,0-1.06.89-1.94,2.5-1.94a3.35,3.35,0,0,1,2.51,1l-.49.73a2.62,2.62,0,0,0-2-.86c-.92,0-1.49.46-1.49,1.07,0,1.47,4.18.5,4.18,3.13,0,1.14-.91,2-2.64,2A3.64,3.64,0,0,1,156,187.6Z"/><line class="cls-14" x1="295" y1="184" x2="295" y2="184"/><line class="cls-15" x1="288.9" y1="184" x2="170.05" y2="184"/><line class="cls-14" x1="167" y1="184" x2="167" y2="184"/></svg>