<svg width="24" height="24" viewBox="0 0 24 24" version="1.1" xmlns="http://www.w3.org/2000/svg" xmlns:xlink="http://www.w3.org/1999/xlink">
<title>bot</title>
<desc>Created using Figma</desc>
<g id="Canvas" transform="translate(157 -99)">
<g id="bot">
<g id="bot">
<use xlink:href="#path0_fill" transform="translate(-154.166 100.834)" fill="#707689"/>
<use xlink:href="#path1_fill" transform="translate(-154.166 100.834)" fill="#707689"/>
</g>
</g>
</g>
<defs>
<path id="path0_fill" d="M 9.52368 11.4285C 10.5757 11.4285 11.4285 10.5757 11.4285 9.52369C 11.4285 8.47171 10.5757 7.6189 9.52368 7.6189C 8.4717 7.6189 7.6189 8.47171 7.6189 9.52369C 7.6189 10.5757 8.4717 11.4285 9.52368 11.4285Z"/>
<path id="path1_fill" d="M 18.4895 3.25123C 19.2333 2.50741 19.2333 1.30168 18.4895 0.557864C 17.7457 -0.185955 16.54 -0.185955 15.7961 0.557864C 15.299 1.05596 15.1419 1.75788 15.3095 2.39122L 14.3256 3.37599C 12.9561 2.44741 11.3028 1.90455 9.52369 1.90455C 7.74462 1.90455 6.09126 2.44741 4.72172 3.37599L 3.7379 2.39122C 3.90552 1.75788 3.74933 1.05596 3.25123 0.557864C 2.50741 -0.185955 1.30168 -0.185955 0.557864 0.557864C -0.185955 1.30168 -0.185955 2.50741 0.557864 3.25123C 1.05597 3.74838 1.75693 3.90648 2.39122 3.73885L 3.27504 4.62267C 1.83883 6.15507 0.952154 8.20938 0.952154 10.4761L 0.952154 17.1428C 0.952154 18.72 2.23122 20 3.80933 20C 5.38745 20 6.66651 18.72 6.66651 17.1428C 6.66651 18.72 7.94557 20 9.52369 20C 11.1018 20 12.3809 18.72 12.3809 17.1428C 12.3809 18.72 13.6599 20 15.238 20C 16.8162 20 18.0952 18.72 18.0952 17.1428L 18.0952 10.4761C 18.0952 8.20938 17.2085 6.15507 15.7723 4.62172L 16.6562 3.7379C 17.2904 3.90648 17.9924 3.74933 18.4895 3.25123ZM 9.52369 13.3333C 7.41985 13.3333 5.71412 11.6275 5.71412 9.52369C 5.71412 7.4189 7.41985 5.71412 9.52369 5.71412C 11.6275 5.71412 13.3333 7.4189 13.3333 9.52369C 13.3333 11.6275 11.6275 13.3333 9.52369 13.3333Z"/>
</defs>
</svg>
