<svg width="24" height="24" viewBox="0 0 24 24" version="1.1" xmlns="http://www.w3.org/2000/svg" xmlns:xlink="http://www.w3.org/1999/xlink">
<title>bulb</title>
<desc>Created using Figma</desc>
<g id="Canvas" transform="translate(30 -35)">
<g id="bulb">
<g id="bulb">
<use xlink:href="#path0_fill" transform="translate(-26 35.999)" fill="#707689"/>
</g>
</g>
</g>
<defs>
<path id="path0_fill" fill-rule="evenodd" d="M 0 8.38095C 0 3.7599 3.7599 0 8.38095 0C 13.002 0 16.7619 3.7599 16.7619 8.38095C 16.7619 13.002 13.002 16.7619 8.38095 16.7619C 3.7599 16.7619 0 13.002 0 8.38095ZM 9.42857 12.0843L 9.42857 14.5724C 12.3965 14.0706 14.6667 11.4892 14.6667 8.38095C 14.6667 4.91438 11.8475 2.09524 8.38095 2.09524C 4.91438 2.09524 2.09525 4.91438 2.09525 8.38095C 2.09525 11.4892 4.36543 14.0706 7.33333 14.5724L 7.33333 12.0843L 5.48952 10.8548C 5.03009 10.5485 4.90593 9.92775 5.21217 9.46825L 5.26486 9.3892C 5.57118 8.92958 6.19212 8.80534 6.65169 9.11173L 8.38095 10.2646L 10.1112 9.11081C 10.5708 8.80437 11.1918 8.92858 11.4981 9.38823L 11.5508 9.46729C 11.8571 9.92675 11.7329 10.5474 11.2736 10.8538L 9.42857 12.0843ZM 5.19048 19.9048C 4.6382 19.9048 4.19048 19.457 4.19048 18.9048L 4.19048 18.8095C 4.19048 18.2572 4.6382 17.8095 5.19048 17.8095L 11.5714 17.8095C 12.1237 17.8095 12.5714 18.2572 12.5714 18.8095L 12.5714 18.9048C 12.5714 19.457 12.1237 19.9048 11.5714 19.9048L 9.42857 19.9048L 9.42857 21C 9.42857 21.5523 8.98085 22 8.42857 22L 8.33333 22C 7.78105 22 7.33333 21.5523 7.33333 21L 7.33333 19.9048L 5.19048 19.9048Z"/>
</defs>
</svg>
