<svg width="24" height="24" viewBox="0 0 24 24" version="1.1" xmlns="http://www.w3.org/2000/svg" xmlns:xlink="http://www.w3.org/1999/xlink">
<title>bulhorn</title>
<desc>Created using Figma</desc>
<g id="Canvas" transform="translate(221 -35)">
<g id="bulhorn">
<g id="bulhorn">
<use xlink:href="#path0_fill" transform="translate(-220 38.9981)" fill="#707689"/>
</g>
</g>
</g>
<defs>
<path id="path0_fill" fill-rule="evenodd" d="M 16.758 0.0299113C 17.054 -0.0450895 17.372 0.0229113 17.615 0.21191C 17.857 0.40091 18 0.69191 18 1.00091L 18 13.0009C 18 13.3089 17.857 13.5989 17.615 13.7879C 17.438 13.9269 17.221 14.0009 17 14.0009C 16.919 14.0009 16.838 13.9909 16.758 13.9709L 6 11.2819L 6 12.6669L 8.79999 16.4009L 7.20001 17.6009L 4.20001 13.6009C 4.07001 13.4269 4 13.2179 4 13.0009L 4 11.0009L 2 11.0009C 0.895996 11.0009 0 10.1029 0 9.00091L 0 5.00091C 0 3.89691 0.895996 3.00091 2 3.00091L 4.87701 3.00091L 16.758 0.0299113ZM 4 5.00091L 2 5.00091L 2 9.00091L 4 9.00091L 4 5.00091ZM 6 9.21991L 16 11.7199L 16 2.28191L 6 4.78191L 6 9.21991ZM 19 9.81591L 19 4.18491C 20.162 4.59891 21 5.69791 21 7.00191C 21 8.30191 20.162 9.40191 19 9.81591Z"/>
</defs>
</svg>
