<svg width="24" height="24" viewBox="0 0 24 24" version="1.1" xmlns="http://www.w3.org/2000/svg" xmlns:xlink="http://www.w3.org/1999/xlink">
<title>call</title>
<desc>Created using Figma</desc>
<g id="Canvas" transform="translate(61 125)">
<g id="call">
<g id="call">
<use xlink:href="#path0_fill" transform="translate(-60.6382 -125)" fill="#707689"/>
</g>
</g>
</g>
<defs>
<path id="path0_fill" d="M 17.2802 14.5199C 16.8926 14.2799 16.3094 14.3471 15.9806 14.6699L 13.4065 17.2439C 13.0765 17.5667 12.5533 17.5667 12.2305 17.2439L 6.44526 11.4563C 6.12246 11.1335 6.12246 10.6031 6.44526 10.2791L 8.87048 7.85625C 9.19329 7.53344 9.24249 6.96104 8.97968 6.58904L 4.56844 0.334577C 4.30804 -0.0374261 3.79804 -0.110627 3.43923 0.172576C 3.43923 0.172576 -8.29704e-09 2.9038 -8.29704e-09 5.41183C -8.29704e-09 15.6779 8.32208 24 18.587 24C 21.0986 24 23.5382 19.3944 23.5382 19.3944C 23.753 18.9912 23.6102 18.4607 23.2214 18.2195L 17.2802 14.5199Z"/>
</defs>
</svg>
