<svg width="24" height="24" viewBox="0 0 24 24" version="1.1" xmlns="http://www.w3.org/2000/svg" xmlns:xlink="http://www.w3.org/1999/xlink">
<title>call-meeting</title>
<desc>Created using Figma</desc>
<g id="Canvas" transform="translate(29 125)">
<g id="call-meeting">
<g id="call-meeting">
<use xlink:href="#path0_fill" transform="translate(-29 -124)" fill="#707689"/>
</g>
</g>
</g>
<defs>
<path id="path0_fill" fill-rule="evenodd" d="M 11 6C 11 2.692 13.692 0 17 0C 20.308 0 23 2.692 23 6C 23 9.308 20.308 12 17 12C 13.692 12 11 9.308 11 6ZM 16.5287 6.47066L 18.5287 8.47066L 19.4713 7.52866L 17.6667 5.724L 17.6667 2.66666L 16.3333 2.66666L 16.3333 6C 16.3333 6.17667 16.404 6.346 16.5287 6.47066ZM 14.197 14.8362C 14.4891 14.5537 15.0072 14.4949 15.3515 14.7049L 20.6297 17.9421C 20.9751 18.1532 21.102 18.6173 20.9111 18.9701C 20.9111 18.9701 18.7438 23 16.5125 23C 7.39326 23 0 15.7182 0 6.73534C 0 4.54082 3.05538 2.151 3.05538 2.151C 3.37414 1.9032 3.82722 1.96725 4.05856 2.29276L 7.97747 7.7654C 8.21094 8.09091 8.16723 8.59177 7.88046 8.87421L 5.72591 10.9942C 5.43913 11.2777 5.43913 11.7418 5.72591 12.0242L 10.8655 17.0884C 11.1523 17.3709 11.6171 17.3709 11.9102 17.0884L 14.197 14.8362Z"/>
</defs>
</svg>
