<svg width="24" height="24" viewBox="0 0 24 24" version="1.1" xmlns="http://www.w3.org/2000/svg" xmlns:xlink="http://www.w3.org/1999/xlink">
<title>camera-off</title>
<desc>Created using Figma</desc>
<g id="Canvas" transform="translate(317 -67)">
<g id="camera-off">
<g id="camera-off">
<use xlink:href="#path0_fill" transform="translate(-315 70.4142)" fill="#707689"/>
</g>
</g>
</g>
<defs>
<path id="path0_fill" fill-rule="evenodd" d="M 0.707092 15.8787C 0.316589 16.2692 0.316589 16.9024 0.707092 17.2929C 1.09763 17.6834 1.7308 17.6834 2.12131 17.2929L 3.84641 15.5678L 13.193 15.5678C 13.669 15.5678 14.126 15.3788 14.462 15.0418C 14.799 14.7048 14.988 14.2488 14.988 13.7728L 14.988 10.4578L 18.777 13.7368C 18.995 13.9268 19.305 13.9708 19.568 13.8508C 19.831 13.7298 20 13.4668 20 13.1778L 20 3.74879C 20 3.45879 19.831 3.19679 19.568 3.07578C 19.305 2.95579 18.995 2.99979 18.777 3.18978L 14.988 6.46879L 14.988 4.4262L 17.7071 1.70711C 18.0976 1.31658 18.0976 0.68342 17.7071 0.292894C 17.3166 -0.0976315 16.6834 -0.0976315 16.2929 0.292894L 0.707092 15.8787ZM 1.79498 1.58579L 12.5858 1.58579L 0.0368652 14.1347C 0.0125122 14.0165 0 13.8953 0 13.7728L 0 3.38078C 0 2.90479 0.188995 2.44879 0.526001 2.11179C 0.862 1.77479 1.319 1.58579 1.79498 1.58579Z"/>
</defs>
</svg>
