<svg width="24" height="24" viewBox="0 0 24 24" version="1.1" xmlns="http://www.w3.org/2000/svg" xmlns:xlink="http://www.w3.org/1999/xlink">
<title>close</title>
<desc>Created using Figma</desc>
<g id="Canvas" transform="translate(-227 125)">
<g id="close">
<g id="close">
<use xlink:href="#path0_fill" transform="translate(228 -124)" fill="#707689"/>
</g>
</g>
</g>
<defs>
<path id="path0_fill" d="M 21.1068 2.67957C 21.6001 2.18627 21.6001 1.38648 21.1068 0.893189C 20.6135 0.399894 19.8137 0.399894 19.3204 0.893189L 11 9.21362L 2.67957 0.893189C 2.18627 0.399894 1.38648 0.399895 0.893189 0.893189C 0.399894 1.38648 0.399894 2.18627 0.893189 2.67957L 9.21362 11L 0.893189 19.3204C 0.399894 19.8137 0.399895 20.6135 0.893189 21.1068C 1.38648 21.6001 2.18627 21.6001 2.67957 21.1068L 11 12.7864L 19.3204 21.1068C 19.8137 21.6001 20.6135 21.6001 21.1068 21.1068C 21.6001 20.6135 21.6001 19.8137 21.1068 19.3204L 12.7864 11L 21.1068 2.67957Z"/>
</defs>
</svg>
