<svg width="25" height="24" viewBox="0 0 25 24" version="1.1" xmlns="http://www.w3.org/2000/svg" xmlns:xlink="http://www.w3.org/1999/xlink">
<title>community</title>
<desc>Created using Figma</desc>
<g id="Canvas" transform="translate(285 93)">
<g id="community">
<g id="community">
<use xlink:href="#path0_fill" transform="translate(-284.999 -93)" fill="#707689"/>
</g>
</g>
</g>
<defs>
<path id="path0_fill" fill-rule="evenodd" d="M 15.3103 8.49588C 14.4961 7.59332 13.999 6.39157 13.999 5.07322C 13.999 2.27316 16.2395 0 18.9993 0C 21.7585 0 23.999 2.27316 23.999 5.07322C 23.999 7.87273 21.7585 10.1459 18.9993 10.1459C 18.3206 10.1459 17.6733 10.0084 17.083 9.75978L 15.5553 10.9131C 15.4106 11.0226 15.2144 11.0292 15.0626 10.9296C 14.9113 10.8301 14.8371 10.6453 14.8761 10.4665L 15.3103 8.49588ZM 7.59198 16.509C 7.59198 16.5075 7.59222 16.506 7.5925 16.5045C 7.59274 16.503 7.59299 16.5015 7.59299 16.5C 7.59299 15.119 6.47299 14 5.09198 14C 3.71201 14 2.59299 15.119 2.59299 16.5C 2.59299 17.791 3.57401 18.84 4.828 18.974C 5.466 17.888 6.43201 17.02 7.59198 16.509ZM 4 22C 4 21.298 4.12698 20.627 4.35001 20L 3.33398 20C 1.49298 20 0 21.159 0 23L 0 24L 4 24L 4 22ZM 16.593 16.5C 16.593 15.119 17.712 14 19.092 14C 20.473 14 21.593 15.119 21.593 16.501C 21.593 17.85 20.521 18.943 19.183 18.992C 18.581 17.959 17.683 17.125 16.603 16.603C 16.6025 16.5865 16.6003 16.5705 16.598 16.5544C 16.5955 16.5365 16.593 16.5185 16.593 16.5ZM 20.666 20L 19.65 20C 19.873 20.627 20 21.298 20 22L 20 24L 24 24L 24 23C 24 21.159 22.507 20 20.666 20ZM 14.853 18.096C 16.651 18.487 18 20.084 18 22L 18 24L 6 24L 6 22C 6 20.084 7.349 18.487 9.147 18.096C 9.957 18.662 10.939 19 12 19C 13.061 19 14.042 18.662 14.853 18.096ZM 15 14C 15 15.6569 13.6569 17 12 17C 10.3431 17 9 15.6569 9 14C 9 12.3431 10.3431 11 12 11C 13.6569 11 15 12.3431 15 14Z"/>
</defs>
</svg>
