<svg width="24" height="24" viewBox="0 0 24 24" version="1.1" xmlns="http://www.w3.org/2000/svg" xmlns:xlink="http://www.w3.org/1999/xlink">
<title>comments</title>
<desc>Created using Figma</desc>
<g id="Canvas" transform="translate(317 93)">
<g id="comments">
<g id="comments">
<use xlink:href="#path0_fill" transform="translate(-317 -92)" fill="#707689"/>
</g>
</g>
</g>
<defs>
<path id="path0_fill" fill-rule="evenodd" d="M 21.2953 10.8129C 22.3538 9.66423 23 8.13473 23 6.45682C 23 2.89311 20.0874 0 16.4996 0C 14.2611 0 12.2852 1.12673 11.116 2.84003C 15.3505 3.965 18.5 7.75466 18.5 12.3016C 18.5 12.4023 18.4985 12.5027 18.4954 12.6027C 18.6636 12.5488 18.8289 12.4883 18.9908 12.4215L 20.9767 13.8894C 21.1649 14.0287 21.42 14.0371 21.6173 13.9104C 21.814 13.7837 21.9105 13.5485 21.8598 13.321L 21.2953 10.8129ZM 17 12.3016C 17 8.35924 14.1802 5.05518 10.4051 4.20963C 9.79272 4.07247 9.15518 4 8.50046 4C 3.80881 4 0 7.71971 0 12.3016C 0 14.4589 0.845062 16.4254 2.22925 17.9023L 1.49109 21.1271C 1.42474 21.4196 1.55099 21.722 1.80811 21.8849C 2.06613 22.0478 2.39975 22.037 2.64578 21.8579L 5.24274 19.9706C 6.24634 20.3774 7.34668 20.6024 8.50046 20.6024C 12.9867 20.6024 16.6662 17.1999 16.9785 12.8957C 16.9928 12.6994 17 12.5014 17 12.3016Z"/>
</defs>
</svg>
