<svg width="25" height="24" viewBox="0 0 25 24" version="1.1" xmlns="http://www.w3.org/2000/svg" xmlns:xlink="http://www.w3.org/1999/xlink">
<title>dotted-list</title>
<desc>Created using Figma</desc>
<g id="Canvas" transform="translate(94 -66)">
<g id="dotted-list">
<g id="dotted-list">
<use xlink:href="#path0_fill" transform="translate(-93.0025 70.55)" fill="#707689"/>
</g>
</g>
</g>
<defs>
<path id="path0_fill" d="M 5.678 1.49C 5.678 0.667 6.357 -5.72205e-08 7.172 -5.72205e-08L 22.067 -5.72205e-08C 22.892 -5.72205e-08 23.561 0.661 23.561 1.49C 23.561 2.313 22.882 2.98 22.067 2.98L 7.172 2.98C 6.347 2.98 5.678 2.319 5.678 1.49ZM 5.961 7.452C 5.961 6.629 6.624 5.962 7.453 5.962L 22.509 5.962C 23.333 5.962 24.001 6.623 24.001 7.452C 24.001 8.275 23.338 8.942 22.509 8.942L 7.453 8.942C 6.629 8.942 5.961 8.281 5.961 7.452ZM 1.49 2.981C 2.313 2.981 2.98 2.314 2.98 1.491C 2.98 0.668 2.313 0.00099987 1.49 0.00099987C 0.667 0.00099987 0 0.668 0 1.491C 0 2.314 0.667 2.981 1.49 2.981ZM 1.49 8.942C 2.313 8.942 2.98 8.275 2.98 7.452C 2.98 6.629 2.313 5.962 1.49 5.962C 0.667 5.962 0 6.629 0 7.452C 0 8.275 0.667 8.942 1.49 8.942ZM 5.961 13.413C 5.961 12.59 6.624 11.923 7.453 11.923L 22.509 11.923C 23.333 11.923 24.001 12.584 24.001 13.413C 24.001 14.236 23.338 14.903 22.509 14.903L 7.453 14.903C 6.629 14.903 5.961 14.242 5.961 13.413ZM 1.49 14.903C 2.313 14.903 2.98 14.236 2.98 13.413C 2.98 12.59 2.313 11.923 1.49 11.923C 0.667 11.923 0 12.59 0 13.413C 0 14.236 0.667 14.903 1.49 14.903Z"/>
</defs>
</svg>
