<svg width="24" height="24" viewBox="0 0 24 24" version="1.1" xmlns="http://www.w3.org/2000/svg" xmlns:xlink="http://www.w3.org/1999/xlink">
<title>ellipsis</title>
<desc>Created using Figma</desc>
<g id="Canvas" transform="translate(125 93)">
<g id="ellipsis">
<g id="ellipsis">
<use xlink:href="#path0_fill" transform="translate(-123 -83)" fill="#707689"/>
</g>
</g>
</g>
<defs>
<path id="path0_fill" fill-rule="evenodd" d="M 2.22222 4.44444C 3.44952 4.44444 4.44444 3.44952 4.44444 2.22222C 4.44444 0.994926 3.44952 0 2.22222 0C 0.994926 0 0 0.994926 0 2.22222C 0 3.44952 0.994926 4.44444 2.22222 4.44444ZM 10 4.44444C 11.2273 4.44444 12.2222 3.44952 12.2222 2.22222C 12.2222 0.994926 11.2273 0 10 0C 8.7727 0 7.77778 0.994926 7.77778 2.22222C 7.77778 3.44952 8.7727 4.44444 10 4.44444ZM 20 2.22222C 20 3.44952 19.0051 4.44444 17.7778 4.44444C 16.5505 4.44444 15.5556 3.44952 15.5556 2.22222C 15.5556 0.994926 16.5505 0 17.7778 0C 19.0051 0 20 0.994926 20 2.22222Z"/>
</defs>
</svg>
