<svg width="24" height="24" viewBox="0 0 24 24" version="1.1" xmlns="http://www.w3.org/2000/svg" xmlns:xlink="http://www.w3.org/1999/xlink">
<title>emojis-animals-plants</title>
<desc>Created using Figma</desc>
<g id="Canvas" transform="translate(-34 -66)">
<g id="emojis-animals-plants">
<g id="emojis-animals-plants">
<use xlink:href="#path0_fill" transform="translate(34.999 68.8356)" fill="#707689"/>
</g>
</g>
</g>
<defs>
<path id="path0_fill" fill-rule="evenodd" d="M 22 7.22141C 22 5.76341 21.414 3.31841 17.489 3.31841C 15.951 3.31841 14.264 3.68841 12.976 3.98241C 12.923 3.54141 12.733 3.14342 12.441 2.84041L 14 1.27993C 14.2927 0.986929 14.2925 0.512114 13.9995 0.219397C 13.7065 -0.0733128 13.2317 -0.0731068 12.939 0.219862L 11 2.16041L 9.06013 0.220541C 8.76735 -0.0722446 8.29265 -0.0722446 7.99987 0.220541C 7.70719 0.51322 7.70708 0.987715 7.99962 1.28054L 9.559 2.84141C 9.267 3.14441 9.078 3.54141 9.024 3.98341C 7.735 3.68841 6.049 3.31841 4.511 3.31841C 0.585999 3.31841 0 5.76441 0 7.22141C 0 8.40941 0.391998 10.2554 2.667 10.8944C 1.518 12.1994 0.965 13.4124 0.991001 14.5744C 1.015 15.6244 1.531 16.5794 2.483 17.3374C 3.173 17.8854 3.924 18.1644 4.692 18.1644C 4.972 18.1644 5.255 18.1274 5.537 18.0524C 7.163 17.6214 8.513 15.9864 9.453 14.4744C 9.82 14.9264 10.373 15.2224 11 15.2224C 11.627 15.2224 12.181 14.9274 12.547 14.4744C 13.487 15.9864 14.836 17.6214 16.462 18.0524C 16.745 18.1274 17.027 18.1644 17.308 18.1644C 18.076 18.1644 18.828 17.8854 19.517 17.3384C 20.469 16.5804 20.984 15.6254 21.008 14.5754C 21.034 13.4124 20.48 12.1974 19.328 10.8904C 19.781 10.7624 20.184 10.5864 20.531 10.3464C 21.201 9.88241 22 8.96342 22 7.22141ZM 2 7.22141C 2 6.30141 2.194 5.31841 4.511 5.31841C 5.87331 5.31841 7.48927 5.68406 8.62096 5.94015L 8.62103 5.94016C 8.75449 5.97037 8.88122 5.99904 9 6.02541L 9 8.41541L 8.78246 8.46512L 8.78239 8.46514C 7.56703 8.74328 5.90596 9.12341 4.514 9.12341C 2.194 9.12341 2 8.14241 2 7.22141ZM 5.025 16.1194C 4.748 16.1914 4.312 16.2374 3.728 15.7724C 3.243 15.3854 3.001 14.9784 2.991 14.5284C 2.971 13.6484 3.799 12.4254 5.317 11.0774C 6.614 10.9834 7.936 10.7074 9 10.4644L 9 10.9994C 8.494 12.2374 6.755 15.6604 5.025 16.1194ZM 18.273 15.7714C 17.688 16.2364 17.254 16.1924 16.975 16.1194C 15.431 15.7114 13.729 12.7854 13 10.9994L 13 10.4654C 14.063 10.7084 15.385 10.9854 16.682 11.0784C 18.201 12.4264 19.029 13.6484 19.009 14.5294C 18.999 14.9784 18.757 15.3864 18.273 15.7714ZM 19.394 8.70141C 18.989 8.98041 18.348 9.12341 17.487 9.12341C 16.0981 9.12341 14.4503 8.74669 13.2133 8.4639L 13.001 8.41541L 13.001 6.02541C 13.1153 5.99999 13.2382 5.97211 13.3684 5.94256L 13.3702 5.94214L 13.3723 5.94166L 13.3724 5.94164C 14.4816 5.68995 16.1188 5.31841 17.49 5.31841C 19.807 5.31841 20.001 6.30041 20.001 7.22141C 20 8.17142 19.654 8.52041 19.394 8.70141ZM 18 8.22141C 18.5523 8.22141 19 7.77369 19 7.22141C 19 6.66913 18.5523 6.22141 18 6.22141C 17.4477 6.22141 17 6.66913 17 7.22141C 17 7.77369 17.4477 8.22141 18 8.22141ZM 18 14.2214C 18 14.7737 17.5523 15.2214 17 15.2214C 16.4477 15.2214 16 14.7737 16 14.2214C 16 13.6691 16.4477 13.2214 17 13.2214C 17.5523 13.2214 18 13.6691 18 14.2214ZM 4 8.22141C 4.55228 8.22141 5 7.77369 5 7.22141C 5 6.66913 4.55228 6.22141 4 6.22141C 3.44772 6.22141 3 6.66913 3 7.22141C 3 7.77369 3.44772 8.22141 4 8.22141ZM 6 14.2214C 6 14.7737 5.55228 15.2214 5 15.2214C 4.44772 15.2214 4 14.7737 4 14.2214C 4 13.6691 4.44772 13.2214 5 13.2214C 5.55228 13.2214 6 13.6691 6 14.2214Z"/>
</defs>
</svg>
