<svg width="24" height="24" viewBox="0 0 24 24" version="1.1" xmlns="http://www.w3.org/2000/svg" xmlns:xlink="http://www.w3.org/1999/xlink">
<title>emojis-symbols</title>
<desc>Created using Figma</desc>
<g id="Canvas" transform="translate(-195 -66)">
<g id="emojis-symbols">
<g id="emojis-symbols">
<use xlink:href="#path0_fill" transform="translate(196 67)" fill="#707689"/>
<use xlink:href="#path1_fill" transform="translate(196 67)" fill="#707689"/>
</g>
</g>
</g>
<defs>
<path id="path0_fill" fill-rule="evenodd" d="M 16.1452 3.66666L 18.0776 3.66666L 16.8557 7.33334L 19.25 7.33334L 19.25 9.16666L 16.2442 9.16666L 15.0223 12.8333L 17.4167 12.8333L 17.4167 14.6667L 14.41 14.6667L 13.1881 18.3333L 11.2558 18.3333L 12.4777 14.6667L 7.99333 14.6667L 6.77142 18.3333L 4.83908 18.3333L 6.061 14.6667L 3.66667 14.6667L 3.66667 12.8333L 6.67241 12.8333L 7.89433 9.16666L 5.5 9.16666L 5.5 7.33334L 8.50575 7.33334L 9.72858 3.66666L 11.6609 3.66666L 10.439 7.33334L 14.9233 7.33334L 16.1452 3.66666ZM 8.60567 12.8333L 13.0891 12.8333L 14.3119 9.16666L 9.82758 9.16666L 8.60567 12.8333Z"/>
<path id="path1_fill" fill-rule="evenodd" d="M 0 4.58334C 0 2.05202 2.05203 0 4.58333 0L 17.4167 0C 19.948 0 22 2.05202 22 4.58334L 22 17.4167C 22 19.948 19.948 22 17.4167 22L 4.58333 22C 2.05203 22 0 19.948 0 17.4167L 0 4.58334ZM 4.58333 1.83334L 17.4167 1.83334C 18.9355 1.83334 20.1667 3.06455 20.1667 4.58334L 20.1667 17.4167C 20.1667 18.9354 18.9355 20.1667 17.4167 20.1667L 4.58333 20.1667C 3.06454 20.1667 1.83333 18.9354 1.83333 17.4167L 1.83333 4.58334C 1.83333 3.06455 3.06454 1.83334 4.58333 1.83334Z"/>
</defs>
</svg>
