<svg width="24" height="24" viewBox="0 0 24 24" version="1.1" xmlns="http://www.w3.org/2000/svg" xmlns:xlink="http://www.w3.org/1999/xlink">
<title>emojis-recent</title>
<desc>Created using Figma</desc>
<g id="Canvas" transform="translate(30 -66)">
<g id="emojis-recent">
<g id="emojis-recent">
<use xlink:href="#path0_fill" transform="translate(-29 67)" fill="#707689"/>
</g>
</g>
</g>
<defs>
<path id="path0_fill" fill-rule="evenodd" d="M 0 11C 0 17.0659 4.93533 22 11 22C 17.0647 22 22 17.0659 22 11C 22 4.93411 17.0647 0 11 0C 4.93533 0 0 4.93411 0 11ZM 2.44446 11C 2.44446 6.28222 6.28223 2.44444 11 2.44444C 15.7178 2.44444 19.5555 6.28222 19.5555 11C 19.5555 15.7178 15.7178 19.5556 11 19.5556C 6.28223 19.5556 2.44446 15.7178 2.44446 11ZM 12.9384 14.6667C 13.4157 15.1439 14.1894 15.1439 14.6667 14.6667C 15.1439 14.1894 15.1439 13.4157 14.6667 12.9384L 12.2222 10.494L 12.2222 6.11111C 12.2222 5.4361 11.675 4.88889 11 4.88889C 10.325 4.88889 9.77777 5.4361 9.77777 6.11111L 9.77777 11C 9.77777 11.3239 9.9061 11.6343 10.1359 11.8641L 12.9384 14.6667Z"/>
</defs>
</svg>
