<svg width="24" height="24" viewBox="0 0 24 24" version="1.1" xmlns="http://www.w3.org/2000/svg" xmlns:xlink="http://www.w3.org/1999/xlink">
<title>emojis-food</title>
<desc>Created using Figma</desc>
<g id="Canvas" transform="translate(-67 -66)">
<g id="emojis-food">
<g id="emojis-food">
<use xlink:href="#path0_fill" transform="translate(68 66.7969)" fill="#707689"/>
</g>
</g>
</g>
<defs>
<path id="path0_fill" d="M 21.9779 13.4089C 21.9779 10.9946 19.4482 7.73417 15.3175 6.38033C 15.3504 6.16275 15.3845 5.94407 15.3845 5.7166C 15.3845 4.79243 15.0944 3.93529 14.6043 3.22651C 15.0247 2.7047 15.862 2.07769 17.4296 2.21698C 17.9801 2.26589 18.5237 1.95307 18.6574 1.41683L 18.7052 1.22529C 18.8388 0.689452 18.5122 0.138745 17.9648 0.0659693C 15.4608 -0.266909 13.8437 0.713873 12.9384 1.79795C 12.3483 1.50234 11.6933 1.32103 10.9889 1.32103C 8.56587 1.32103 6.59336 3.29244 6.59336 5.7166C 6.59336 5.94407 6.62743 6.16165 6.66039 6.38033C 2.12526 7.85285 0 11.3671 0 13.4089C 0 15.2616 0.889005 16.6671 2.32416 17.3473L 3.32855 21.3681C 3.45162 21.8571 3.89118 22.2 4.39557 22.2L 17.5823 22.2C 18.0867 22.2 18.5262 21.856 18.6493 21.3681L 19.6537 17.3473C 21.0889 16.6671 21.9779 15.2616 21.9779 13.4089ZM 10.9889 3.51881C 12.2021 3.51881 13.1867 4.50342 13.1867 5.7166C 13.1867 6.92868 12.2021 7.91439 10.9889 7.91439C 9.77576 7.91439 8.79115 6.92868 8.79115 5.7166C 8.79115 4.50342 9.77576 3.51881 10.9889 3.51881ZM 4.69777 17.7814C 5.56919 17.7374 6.36919 17.5275 7.02083 17.1682L 7.49445 20.0022L 5.25381 20.0022L 4.69777 17.7814ZM 12.2549 20.0022L 9.72191 20.0022L 9.31312 17.5528C 9.8296 17.7088 10.39 17.8044 10.9889 17.8044C 11.5878 17.8044 12.1483 17.7088 12.6636 17.5528L 12.2549 20.0022ZM 14.4845 20.0022L 14.957 17.1682C 15.6087 17.5275 16.4087 17.7374 17.2801 17.7814L 16.7241 20.0022L 14.4845 20.0022ZM 17.5823 15.6066C 16.2405 15.6066 15.3845 14.9561 15.3845 14.5077C 15.3845 13.9012 14.8933 13.4089 14.2856 13.4089C 13.7417 13.4089 13.3098 13.8121 13.223 14.3308L 13.201 14.3275L 13.1395 14.6946C 12.9494 15.1176 12.1527 15.6066 10.9889 15.6066C 9.82521 15.6066 9.02851 15.1176 8.8373 14.6946L 8.77576 14.3275L 8.75379 14.3308C 8.66807 13.8121 8.23621 13.4089 7.69225 13.4089C 7.08457 13.4089 6.59336 13.9012 6.59336 14.5077C 6.59336 14.9561 5.73732 15.6066 4.39557 15.6066C 3.73404 15.6066 2.19779 15.3924 2.19779 13.4089C 2.19779 12.1539 3.99887 9.50888 7.5505 8.42207C 8.35599 9.44405 9.59004 10.1122 10.9889 10.1122C 12.3878 10.1122 13.6219 9.44295 14.4285 8.41988C 17.979 9.50558 19.7801 12.1616 19.7801 13.4089C 19.7801 15.3924 18.2438 15.6066 17.5823 15.6066Z"/>
</defs>
</svg>
