<svg width="24" height="24" viewBox="0 0 24 24" version="1.1" xmlns="http://www.w3.org/2000/svg" xmlns:xlink="http://www.w3.org/1999/xlink">
<title>emojis-activity</title>
<desc>Created using Figma</desc>
<g id="Canvas" transform="translate(-98 -66)">
<g id="emojis-activity">
<g id="emojis-activity">
<use xlink:href="#path0_fill" transform="matrix(0.707107 0.707107 -0.707107 0.707107 110 62.8559)" fill="#707689"/>
</g>
</g>
</g>
<defs>
<path id="path0_fill" d="M 11 0C 4.9346 0 0 4.9346 0 11C 0 17.0654 4.9346 22 11 22C 17.0654 22 22 17.0654 22 11C 22 4.9346 17.0654 0 11 0ZM 18.2908 15.9225C 17.3789 14.8302 16.7904 13.5124 16.588 12.1L 19.7241 12.1C 19.5481 13.5014 19.0476 14.8049 18.2908 15.9225ZM 2.2759 12.1L 5.4109 12.1C 5.2063 13.5069 4.6178 14.828 3.7081 15.9225C 2.9513 14.8038 2.4519 13.5014 2.2759 12.1ZM 3.7092 6.0786C 4.6211 7.1698 5.2096 8.4876 5.412 9.9L 2.2759 9.9C 2.4519 8.4986 2.9524 7.1962 3.7092 6.0786ZM 12.1 9.9L 12.1 2.2759C 13.8996 2.5025 15.5276 3.2725 16.8212 4.4187C 15.4539 5.9488 14.5893 7.8573 14.3616 9.9L 12.1 9.9ZM 9.9 9.9L 7.6395 9.9C 7.4129 7.8529 6.545 5.9488 5.1788 4.4198C 6.4713 3.2736 8.1004 2.5025 9.9 2.2759L 9.9 9.9ZM 7.6362 12.1L 9.9 12.1L 9.9 19.7241C 8.1037 19.4975 6.4779 18.7297 5.1843 17.5868C 6.5494 16.0567 7.4074 14.1383 7.6362 12.1ZM 12.1 12.1L 14.3605 12.1C 14.5871 14.146 15.4539 16.0512 16.8212 17.5802C 15.5276 18.7264 13.8996 19.4975 12.1 19.7241L 12.1 12.1ZM 16.5891 9.9C 16.7926 8.4909 17.3811 7.172 18.2919 6.0786C 19.0487 7.1962 19.5481 8.4986 19.7241 9.9L 16.5891 9.9Z"/>
</defs>
</svg>
