<svg width="24" height="24" viewBox="0 0 24 24" version="1.1" xmlns="http://www.w3.org/2000/svg" xmlns:xlink="http://www.w3.org/1999/xlink">
<title>filter</title>
<desc>Created using Figma</desc>
<g id="Canvas" transform="translate(221 125)">
<g id="filter">
<g id="filter">
<use xlink:href="#path0_fill" transform="translate(-217 -124)" fill="#707689"/>
<use xlink:href="#path1_fill" transform="translate(-217 -124)" fill="#707689"/>
</g>
</g>
</g>
<defs>
<path id="path0_fill" d="M 2.2 0L 15.4 0C 16.6144 0 17.6 0.987801 17.6 2.2L 0 2.2C 0 0.987801 0.986694 0 2.2 0Z"/>
<path id="path1_fill" d="M 0 5.5011L 0 3.3011L 17.6 3.3011L 17.6 5.5011C 17.6 5.7827 17.4922 6.0632 17.2777 6.2777L 11 12.5554L 11 18.7C 11 18.9926 10.8834 19.272 10.6777 19.4777L 8.47769 21.6777C 8.26759 21.8878 7.98599 22 7.7 22C 7.55811 22 7.4151 21.9736 7.2787 21.9164C 6.86839 21.7459 6.60001 21.3444 6.60001 20.9L 6.60001 12.5565L 0.322296 6.2788C 0.107803 6.0643 0 5.7827 0 5.5011Z"/>
</defs>
</svg>
