<svg width="24" height="24" viewBox="0 0 24 24" version="1.1" xmlns="http://www.w3.org/2000/svg" xmlns:xlink="http://www.w3.org/1999/xlink">
<title>forward</title>
<desc>Created using Figma</desc>
<g id="Canvas" transform="translate(-163 93)">
<g id="forward">
<g id="forward">
<use xlink:href="#path0_fill" transform="translate(167 -91.1041)" fill="#707689"/>
</g>
</g>
</g>
<defs>
<path id="path0_fill" fill-rule="evenodd" d="M 6.7928 19.9141C 7.1833 20.3049 7.81669 20.305 8.2073 19.9143L 18.0174 10.103L 8.2073 0.292894C 7.81668 -0.0977306 7.18331 -0.0976162 6.79284 0.293146L 6.43911 0.647127C 6.04879 1.03771 6.04893 1.67072 6.4394 2.06114L 14.4824 10.103L 6.43931 18.1461C 6.04888 18.5366 6.04876 19.1695 6.43905 19.5601L 6.7928 19.9141ZM 0.36587 19.737C 0.854074 20.2256 1.64594 20.2257 2.1343 19.7373L 11.7674 10.103L 2.1343 0.469881C 1.64594 -0.0184841 0.854105 -0.0183392 0.365931 0.470186C -0.122046 0.958498 -0.121878 1.7499 0.366297 2.238L 8.23245 10.103L 0.366175 17.9693C -0.121939 18.4574 -0.122076 19.2487 0.36587 19.737Z"/>
</defs>
</svg>
