<svg width="24" height="24" viewBox="0 0 24 24" version="1.1" xmlns="http://www.w3.org/2000/svg" xmlns:xlink="http://www.w3.org/1999/xlink">
<title>gift</title>
<desc>Created using Figma</desc>
<g id="Canvas" transform="translate(-195 93)">
<g id="gift">
<g id="gift">
<use xlink:href="#path0_fill" transform="translate(197 -90.9715)" fill="#707689"/>
</g>
</g>
</g>
<defs>
<path id="path0_fill" fill-rule="evenodd" d="M 14.886 5.9705L 18 5.9705C 19.104 5.9705 20 6.86749 20 7.9705L 20 10.9705L 11 10.9705L 11 6.9705L 9 6.9705L 9 10.9705L 0 10.9705L 0 7.9705C 0 6.86749 0.897003 5.9705 2 5.9705L 5.114 5.9705C 4.66299 5.7355 4.23601 5.4485 3.879 5.0925C 2.709 3.92249 2.709 2.0195 3.879 0.850496C 5.01199 -0.282499 6.98601 -0.282499 8.121 0.848497C 9.758 2.4855 9.979 5.5665 9.998 5.9125C 9.9991 5.92399 9.9966 5.93428 9.99411 5.94453C 9.99205 5.953 9.99001 5.96144 9.99001 5.9705L 10.01 5.9705C 10.01 5.96135 10.0079 5.95283 10.0058 5.94436C 10.0034 5.93431 10.0009 5.92435 10.002 5.9135C 10.022 5.5675 10.242 2.4865 11.879 0.849497C 13.014 -0.283499 14.986 -0.282499 16.121 0.848497C 17.29 2.0205 17.29 3.9235 16.121 5.0925C 15.764 5.4485 15.337 5.7355 14.886 5.9705ZM 5.293 2.2635C 4.903 2.6535 4.903 3.2875 5.293 3.6785C 5.879 4.2645 6.94501 4.6105 7.825 4.7935C 7.64101 3.9115 7.297 2.85349 6.707 2.2635C 6.519 2.0745 6.26801 1.9715 6 1.9715C 5.73199 1.9715 5.481 2.0745 5.293 2.2635ZM 13.293 2.2645C 12.702 2.8545 12.359 3.9125 12.174 4.7955C 13.057 4.6135 14.116 4.2695 14.707 3.6785C 15.097 3.2875 15.096 2.6535 14.706 2.2625C 14.519 2.0745 14.268 1.9715 14 1.9715C 13.732 1.9715 13.481 2.0745 13.293 2.2645ZM 1 11.9705L 1 17.9705C 1 19.0735 1.897 19.9705 3 19.9705L 9 19.9705L 9 11.9705L 1 11.9705ZM 11 11.9705L 11 19.9705L 17 19.9705C 18.104 19.9705 19 19.0735 19 17.9705L 19 11.9705L 11 11.9705Z"/>
</defs>
</svg>
