<svg width="24" height="24" viewBox="0 0 24 24" version="1.1" xmlns="http://www.w3.org/2000/svg" xmlns:xlink="http://www.w3.org/1999/xlink">
<title>help-center</title>
<desc>Created using Figma</desc>
<g id="Canvas" transform="translate(93 -35)">
<g id="help-center">
<g id="help-center">
<use xlink:href="#path0_fill" transform="translate(-92.002 36)" fill="#707689"/>
</g>
</g>
</g>
<defs>
<path id="path0_fill" d="M 20.9 8.8L 20.6459 8.8C 19.8022 5.1073 16.8938 2.1978 13.2 1.3541L 13.2 1.1C 13.2 0.4928 12.7083 -7.97272e-08 12.1 -7.97272e-08L 9.9 -7.97272e-08C 9.2917 -7.97272e-08 8.8 0.4928 8.8 1.1L 8.8 1.3541C 5.1073 2.1967 2.1978 5.1062 1.3552 8.8L 1.1 8.8C 0.4917 8.8 0 9.2928 0 9.9L 0 12.1C 0 12.7072 0.4917 13.2 1.1 13.2L 1.3552 13.2C 2.1978 16.8927 5.1062 19.8022 8.8 20.6459L 8.8 20.9C 8.8 21.5072 9.2917 22 9.9 22L 12.1 22C 12.7083 22 13.2 21.5072 13.2 20.9L 13.2 20.6459C 16.8927 19.8033 19.8022 16.8938 20.6459 13.2L 20.9 13.2C 21.5083 13.2 22 12.7072 22 12.1L 22 9.9C 22 9.2928 21.5083 8.8 20.9 8.8ZM 18.3766 8.8L 14.7884 8.8C 14.4034 8.1411 13.86 7.5966 13.2 7.2127L 13.2 3.6245C 15.6794 4.3659 17.6352 6.3217 18.3766 8.8ZM 11 13.2C 9.7856 13.2 8.8 12.2133 8.8 11C 8.8 9.7867 9.7856 8.8 11 8.8C 12.2144 8.8 13.2 9.7867 13.2 11C 13.2 12.2133 12.2144 13.2 11 13.2ZM 8.8 3.6245L 8.8 7.2127C 8.1411 7.5966 7.5966 8.1422 7.2127 8.8L 3.6245 8.8C 4.3659 6.3217 6.3217 4.3659 8.8 3.6245ZM 3.6245 13.2L 7.2127 13.2C 7.5977 13.8611 8.1422 14.4045 8.8 14.7873L 8.8 18.3755C 6.3217 17.6352 4.3659 15.6794 3.6245 13.2ZM 13.2 18.3755L 13.2 14.7873C 13.86 14.4034 14.4034 13.86 14.7873 13.2L 18.3755 13.2C 17.6352 15.6794 15.6794 17.6352 13.2 18.3755Z"/>
</defs>
</svg>
