<svg width="24" height="24" viewBox="0 0 24 24" version="1.1" xmlns="http://www.w3.org/2000/svg" xmlns:xlink="http://www.w3.org/1999/xlink">
<title>icon_chatlink</title>
<desc>Created using Figma</desc>
<g id="Canvas" transform="translate(-67 125)">
<g id="icon_chatlink">
<g id="icon_chatlink">
<use xlink:href="#path0_fill" transform="translate(68 -125)" fill="#707689"/>
</g>
</g>
</g>
<defs>
<path id="path0_fill" fill-rule="evenodd" d="M 0 11.0688C 0 13.9452 1.1004 16.5673 2.9028 18.5365L 1.94162 22.8361C 1.85519 23.2261 2.01959 23.6293 2.3544 23.8465C 2.6904 24.0637 3.12482 24.0493 3.44522 23.8105L 6.82681 21.2941C 8.13364 21.8365 9.56644 22.1365 11.0688 22.1365C 17.1768 22.1365 22.1365 17.1769 22.1365 11.0688C 22.1365 4.95962 17.1768 0 11.0688 0C 4.95963 0 0 4.95962 0 11.0688ZM 5.39191 10.4051L 7.04214 12.0554C 7.26639 12.2796 7.59473 12.2949 7.79865 12.091C 8.00256 11.8871 7.98727 11.5588 7.76303 11.3345L 6.11279 9.68425C 5.20166 8.77314 5.12219 7.34832 5.9632 6.50729L 6.44379 6.0267C 7.27298 5.19753 8.69662 5.25214 9.62076 6.17627L 11.535 8.09055C 12.4462 9.00166 12.5256 10.4265 11.6846 11.2675L 10.9637 11.9884C 10.7598 12.1923 10.7753 12.5208 10.9994 12.7449C 11.2236 12.9692 11.5519 12.9844 11.7559 12.7805L 12.4767 12.0596C 13.7021 10.8343 13.6154 8.72912 12.2559 7.36967L 10.3416 5.45539C 8.99539 4.10914 6.88889 3.99738 5.65167 5.23458L 5.17108 5.71517C 3.94592 6.94035 4.03262 9.04586 5.39191 10.4051ZM 14.1094 10.6649L 16.0237 12.5792C 16.9348 13.4903 17.0143 14.9151 16.1733 15.7562L 15.6927 16.2368C 14.8635 17.0659 13.4398 17.0113 12.5157 16.0872L 10.3374 13.9089C 9.4263 12.9978 9.3468 11.5729 10.1878 10.7319L 10.9087 10.011C 11.1128 9.80693 11.0972 9.47861 10.8731 9.25452C 10.649 9.03044 10.3207 9.01482 10.1166 9.21891L 9.39572 9.93979C 8.17053 11.165 8.25723 13.2705 9.61652 14.6298L 11.7948 16.8081C 13.1413 18.1545 15.2478 18.2659 16.4848 17.0289L 16.9654 16.5483C 18.1907 15.323 18.104 13.2178 16.7446 11.8583L 14.8303 9.94405C 14.6062 9.71996 14.2779 9.70434 14.0738 9.90843C 13.8699 10.1124 13.8984 10.4539 14.1094 10.6649Z"/>
</defs>
</svg>
