<svg width="24" height="24" viewBox="0 0 24 24" version="1.1" xmlns="http://www.w3.org/2000/svg" xmlns:xlink="http://www.w3.org/1999/xlink">
<title>instagram</title>
<desc>Created using Figma</desc>
<g id="Canvas" transform="translate(-67 -35)">
<g id="instagram">
<g id="instagram">
<use xlink:href="#path0_fill" transform="translate(67 35)" fill="#707689"/>
</g>
</g>
</g>
<defs>
<path id="path0_fill" fill-rule="evenodd" d="M 12 0C 8.741 0 8.332 0.0139999 7.052 0.0719986C 5.775 0.129997 4.902 0.333 4.139 0.629997C 3.35 0.936996 2.681 1.347 2.014 2.014C 1.347 2.681 0.937 3.35 0.630001 4.139C 0.333 4.902 0.130001 5.775 0.0719986 7.052C 0.0139999 8.332 0 8.741 0 11.999C 0 15.257 0.0139999 15.667 0.0719986 16.947C 0.130001 18.224 0.333 19.097 0.630001 19.86C 0.937 20.649 1.347 21.318 2.014 21.985C 2.681 22.652 3.35 23.062 4.139 23.369C 4.902 23.666 5.775 23.868 7.052 23.927C 8.332 23.985 8.741 23.999 12 23.999C 15.259 23.999 15.668 23.985 16.948 23.927C 18.225 23.869 19.098 23.666 19.861 23.369C 20.65 23.062 21.319 22.652 21.986 21.985C 22.653 21.318 23.063 20.649 23.37 19.86C 23.667 19.097 23.87 18.224 23.928 16.947C 23.986 15.667 24 15.258 24 11.999C 24 8.74 23.986 8.331 23.928 7.052C 23.87 5.775 23.667 4.902 23.37 4.139C 23.063 3.35 22.653 2.681 21.986 2.014C 21.319 1.347 20.65 0.936996 19.861 0.629997C 19.098 0.333 18.225 0.130997 16.948 0.0719986C 15.668 0.0139999 15.259 0 12 0ZM 12 2.162C 15.204 2.162 15.584 2.174 16.849 2.232C 18.019 2.285 18.654 2.481 19.077 2.645C 19.637 2.863 20.037 3.123 20.457 3.543C 20.877 3.963 21.137 4.363 21.355 4.923C 21.519 5.346 21.715 5.981 21.768 7.151C 21.826 8.416 21.838 8.796 21.838 12C 21.838 15.204 21.826 15.584 21.768 16.849C 21.715 18.019 21.519 18.654 21.355 19.077C 21.137 19.637 20.877 20.037 20.457 20.457C 20.037 20.877 19.637 21.137 19.077 21.355C 18.654 21.519 18.019 21.715 16.849 21.768C 15.584 21.826 15.204 21.838 12 21.838C 8.796 21.838 8.416 21.826 7.151 21.768C 5.981 21.715 5.346 21.519 4.923 21.355C 4.363 21.137 3.963 20.877 3.543 20.457C 3.123 20.037 2.863 19.637 2.645 19.077C 2.481 18.654 2.285 18.019 2.232 16.849C 2.174 15.584 2.162 15.204 2.162 12C 2.162 8.796 2.174 8.416 2.232 7.151C 2.285 5.981 2.481 5.346 2.645 4.923C 2.863 4.363 3.123 3.963 3.543 3.543C 3.963 3.123 4.363 2.863 4.923 2.645C 5.346 2.481 5.981 2.285 7.151 2.232C 8.416 2.174 8.796 2.162 12 2.162ZM 12 16C 9.791 16 8 14.209 8 12C 8 9.791 9.791 8 12 8C 14.209 8 16 9.791 16 12C 16 14.209 14.209 16 12 16ZM 12 5.838C 8.597 5.838 5.838 8.597 5.838 12C 5.838 15.403 8.597 18.162 12 18.162C 15.403 18.162 18.162 15.403 18.162 12C 18.162 8.597 15.403 5.838 12 5.838ZM 18.406 7.034C 19.201 7.034 19.846 6.389 19.846 5.594C 19.846 4.799 19.201 4.154 18.406 4.154C 17.611 4.154 16.966 4.799 16.966 5.594C 16.966 6.389 17.611 7.034 18.406 7.034Z"/>
</defs>
</svg>
