<svg width="24" height="24" viewBox="0 0 24 24" version="1.1" xmlns="http://www.w3.org/2000/svg" xmlns:xlink="http://www.w3.org/1999/xlink">
<title>invitation</title>
<desc>Created using Figma</desc>
<g id="Canvas" transform="translate(317 61)">
<g id="invitation">
<g id="invitation">
<use xlink:href="#path0_fill" transform="translate(-317 -58)" fill="#707689"/>
</g>
</g>
</g>
<defs>
<path id="path0_fill" d="M 24 3.01C 24 6.555 24 12.406 24 15.945C 24 16.741 23.684 17.504 23.121 18.067C 22.559 18.629 21.796 18.945 21 18.945C 16.389 18.945 7.611 18.945 3 18.945C 2.204 18.945 1.441 18.629 0.879 18.067C 0.316 17.504 0 16.741 0 15.945C 0 12.406 0 6.555 0 3.01C 0 1.348 1.348 0 3.01 0C 7.621 0 16.379 0 20.99 0C 22.652 0 24 1.348 24 3.01ZM 18.056 14C 18.056 13.448 17.608 13 17.056 13C 14.792 13 9.295 13 7.031 13C 6.479 13 6.031 13.448 6.031 14C 6.031 14.32 6.031 14.674 6.031 14.994C 6.031 15.547 6.479 15.994 7.031 15.994C 9.295 15.994 14.792 15.994 17.056 15.994C 17.608 15.994 18.056 15.547 18.056 14.994C 18.056 14.674 18.056 14.32 18.056 14ZM 17.031 8L 7 8L 7 10.004L 17.031 10.004L 17.031 8ZM 20.99 4.02742L 2.99 4.02742L 3 6.04304L 21 6.04304L 20.99 4.02742Z"/>
</defs>
</svg>
