<svg width="24" height="24" viewBox="0 0 24 24" version="1.1" xmlns="http://www.w3.org/2000/svg" xmlns:xlink="http://www.w3.org/1999/xlink">
<title>key</title>
<desc>Created using Figma</desc>
<g id="Canvas" transform="translate(285 61)">
<g id="key">
<g id="key">
<use xlink:href="#path0_fill" transform="translate(-283.999 -60.06)" fill="#707689"/>
</g>
</g>
</g>
<defs>
<path id="path0_fill" d="M 19.7142 7.57995C 20.1047 7.97061 20.738 7.97067 21.1286 7.58009L 21.293 7.41566C 21.6835 7.02519 21.6836 6.39214 21.2932 6.00159L 19.2379 3.9455L 20.8155 2.36797L 18.4475 -1.70355e-08L 7.85358 10.5961C 7.18706 10.2981 6.46361 10.1339 5.71224 10.1161L 5.58385 10.1138C 2.57616 10.1138 0.0719814 12.5588 0.00164559 15.5632C -0.0340805 17.0548 0.512975 18.4693 1.54233 19.5489C 2.57169 20.6285 3.95943 21.2425 5.44988 21.2771L 5.58497 21.2783C 8.58819 21.2783 11.0901 18.8344 11.1616 15.8289C 11.1873 14.7549 10.9003 13.7244 10.3589 12.8257L 14.5009 8.68256L 16.5561 10.7394C 16.9465 11.1301 17.5797 11.1304 17.9703 10.74L 18.1354 10.575C 18.526 10.1847 18.5263 9.55153 18.1359 9.16087L 16.0806 7.10391L 17.6593 5.52415L 19.7142 7.57995ZM 5.58162 17.9289C 4.34907 17.9289 3.34762 16.9286 3.34874 15.696C 3.34874 14.4635 4.34907 13.4632 5.5805 13.4632C 6.81417 13.4632 7.81338 14.4635 7.8145 15.696C 7.81338 16.9297 6.81417 17.9289 5.58162 17.9289Z"/>
</defs>
</svg>
