<svg width="24" height="24" viewBox="0 0 24 24" version="1.1" xmlns="http://www.w3.org/2000/svg" xmlns:xlink="http://www.w3.org/1999/xlink">
<title>lock</title>
<desc>Created using Figma</desc>
<g id="Canvas" transform="translate(189 -35)">
<g id="lock">
<g id="lock">
<use xlink:href="#path0_fill" transform="translate(-185 36.001)" fill="#707689"/>
</g>
</g>
</g>
<defs>
<path id="path0_fill" d="M 4.63158 9.26316L 4.63158 5.78947C 4.63158 3.87432 6.1901 2.31579 8.10526 2.31579C 10.0204 2.31579 11.5789 3.87432 11.5789 5.78947L 11.5789 5.94737C 11.5789 6.49965 12.0267 6.94737 12.5789 6.94737L 12.8947 6.94737C 13.447 6.94737 13.8947 6.49965 13.8947 5.94737L 13.8947 5.78947C 13.8947 2.59716 11.2976 0 8.10526 0C 4.91295 0 2.31579 2.59716 2.31579 5.78947L 2.31579 9.26316L 1 9.26316C 0.447715 9.26316 0 9.71087 0 10.2632L 0 21C 0 21.5523 0.447715 22 1 22L 15.2105 22C 15.7628 22 16.2105 21.5523 16.2105 21L 16.2105 10.2632C 16.2105 9.71087 15.7628 9.26316 15.2105 9.26316L 4.63158 9.26316ZM 8.10526 17.9474C 6.82695 17.9474 5.78947 16.9111 5.78947 15.6316C 5.78947 14.3533 6.82695 13.3158 8.10526 13.3158C 9.38358 13.3158 10.4211 14.3533 10.4211 15.6316C 10.4211 16.9099 9.38358 17.9474 8.10526 17.9474Z"/>
</defs>
</svg>
