<svg width="24" height="24" viewBox="0 0 24 24" version="1.1" xmlns="http://www.w3.org/2000/svg" xmlns:xlink="http://www.w3.org/1999/xlink">
<title>messenger</title>
<desc>Created using Figma</desc>
<g id="Canvas" transform="translate(-67 61)">
<g id="messenger">
<g id="messenger">
<use xlink:href="#path0_fill" transform="translate(67 -61)" fill="#707689"/>
</g>
</g>
</g>
<defs>
<path id="path0_fill" d="M 3.135 18.341L 2.551 23.999L 8.49 21.438C 9.6 21.748 10.779 21.914 12 21.914C 18.627 21.914 24 17.008 24 10.957C 24 4.906 18.627 4.74998e-11 12 4.74998e-11C 5.373 4.74998e-11 -4.74998e-11 4.906 -4.74998e-11 10.957C -4.74998e-11 13.802 1.187 16.394 3.134 18.341L 3.135 18.341ZM 3.121 14.606L 10.507 7.405C 10.581 7.333 10.703 7.329 10.782 7.398L 14.1 10.304C 14.178 10.372 14.318 10.392 14.412 10.349L 20.881 7.354L 13.814 14.473C 13.741 14.547 13.619 14.551 13.542 14.481L 10.142 11.422C 10.065 11.353 9.927 11.332 9.834 11.377L 3.122 14.607L 3.121 14.606Z"/>
</defs>
</svg>
