<svg width="24" height="25" viewBox="0 0 24 25" version="1.1" xmlns="http://www.w3.org/2000/svg" xmlns:xlink="http://www.w3.org/1999/xlink">
<title>micro</title>
<desc>Created using Figma</desc>
<g id="Canvas" transform="translate(189 -66)">
<g id="micro">
<g id="micro">
<use xlink:href="#path0_fill" transform="translate(-185 67.2929)" fill="#707689"/>
</g>
</g>
</g>
<defs>
<path id="path0_fill" d="M 6.19113 17.7509C 5.79243 17.6775 5.39923 17.5721 5.01703 17.4347C 4.14539 17.1221 3.33241 16.6492 2.62941 16.0461C 1.87692 15.3972 1.2555 14.6007 0.808224 13.7125C 0.448019 12.9976 0.2033 12.225 0.0850647 11.4322C 0.0392371 11.1224 0.0163232 10.8135 0.00532453 10.5028C -0.00475754 9.75303 0.00257486 9.00237 0.00257486 8.25172C 0.00990727 8.03175 0.0539017 7.82094 0.153806 7.6248C 0.241795 7.45524 0.36278 7.304 0.511261 7.18485C 0.617581 7.09961 0.735816 7.02904 0.860467 6.97863C 0.986952 6.9273 1.12077 6.8943 1.2555 6.88239C 1.72203 6.84114 2.18763 7.04645 2.47085 7.41857C 2.63858 7.63855 2.72565 7.89701 2.7504 8.17106C 2.77423 8.9263 2.7449 9.68062 2.75498 10.4349C 2.76323 10.6348 2.77698 10.8309 2.80631 11.0261C 2.88146 11.5311 3.03911 12.0233 3.26733 12.4779C 3.4983 12.9362 3.8026 13.3569 4.16372 13.718C 4.49918 14.0535 4.88321 14.3385 5.30116 14.5613C 6.52659 15.2157 8.00591 15.3055 9.30191 14.806C 9.85184 14.5924 10.3624 14.279 10.7996 13.8848C 11.267 13.4596 11.6492 12.9445 11.9205 12.3735C 12.1212 11.9482 12.2587 11.4936 12.3293 11.0289C 12.3586 10.8318 12.3724 10.6357 12.3806 10.4377C 12.3907 9.69804 12.3824 8.95838 12.3824 8.21781C 12.3879 8.05283 12.4118 7.89426 12.4695 7.73937C 12.6125 7.35441 12.9287 7.04645 13.3182 6.91539C 13.4493 6.87139 13.5813 6.85031 13.7169 6.84206C 13.7994 6.84206 13.7985 6.84206 13.881 6.84756C 14.0176 6.86406 14.1477 6.89155 14.276 6.94288C 14.6051 7.0767 14.8745 7.33883 15.0175 7.66329C 15.0854 7.81452 15.1184 7.97309 15.1321 8.13623C 15.1541 8.86672 15.1349 9.5963 15.1349 10.3268C 15.1303 10.6366 15.1156 10.9427 15.0771 11.2498C 14.9781 12.0462 14.7526 12.8244 14.4099 13.5494C 14.0661 14.2771 13.6051 14.948 13.0515 15.531C 12.5383 16.0699 11.9443 16.5337 11.2972 16.8994C 10.5686 17.3118 9.77119 17.6024 8.94721 17.7536L 8.94721 19.2568L 10.2689 19.2568C 10.6291 19.2568 10.9728 19.3997 11.2276 19.6545C 11.4824 19.9093 11.6254 20.254 11.6254 20.6133C 11.6254 20.6233 11.6254 20.6325 11.6254 20.6435C 11.6254 21.0028 11.4824 21.3474 11.2276 21.6022C 10.9728 21.857 10.6291 22 10.2689 22C 8.71532 22 6.18472 22 4.63025 22C 4.27096 22 3.92633 21.857 3.67153 21.6022C 3.41673 21.3474 3.27375 21.0028 3.27375 20.6435C 3.27375 20.6325 3.27375 20.6224 3.27375 20.6133C 3.27375 20.254 3.41673 19.9093 3.67153 19.6545C 3.92633 19.3997 4.27096 19.2568 4.63025 19.2568L 6.19663 19.2568L 6.19663 17.7527L 6.19113 17.7509ZM 11.0049 3.41141C 11.0049 1.52698 9.47697 0 7.59438 0C 7.57696 0 7.5568 0 7.53938 0C 5.65678 0 4.12889 1.52789 4.12889 3.41141C 4.12889 5.52406 4.12889 8.2288 4.12889 10.3405C 4.12889 12.225 5.65678 13.751 7.53938 13.751C 7.55771 13.751 7.57696 13.751 7.59438 13.751C 9.47697 13.751 11.0049 12.225 11.0049 10.3405C 11.0049 8.22789 11.0049 5.52314 11.0049 3.41141Z"/>
</defs>
</svg>
