<svg width="24" height="24" viewBox="0 0 24 24" version="1.1" xmlns="http://www.w3.org/2000/svg" xmlns:xlink="http://www.w3.org/1999/xlink">
<title>navigation</title>
<desc>Created using Figma</desc>
<g id="Canvas" transform="translate(-195 61)">
<g id="navigation">
<g id="navigation">
<use xlink:href="#path0_fill" transform="translate(198 -55.999)" fill="#707689"/>
</g>
</g>
</g>
<defs>
<path id="path0_fill" fill-rule="evenodd" d="M 1 0L 17 0C 17.5523 0 18 0.447716 18 1C 18 1.55228 17.5523 2 17 2L 1 2C 0.447708 2 0 1.55228 0 1C 0 0.447716 0.447708 0 1 0ZM 1 3.998L 17 3.998C 17.5523 3.998 18 4.44572 18 4.998C 18 5.55029 17.5523 5.998 17 5.998L 1 5.998C 0.447708 5.998 0 5.55029 0 4.998C 0 4.44571 0.447708 3.998 1 3.998ZM 17 7.999L 1 7.999C 0.447708 7.999 0 8.44672 0 8.999C 0 9.55128 0.447708 9.999 1 9.999L 17 9.999C 17.5523 9.999 18 9.55128 18 8.999C 18 8.44672 17.5523 7.999 17 7.999ZM 1 11.999L 17 11.999C 17.5523 11.999 18 12.4467 18 12.999C 18 13.5513 17.5523 13.999 17 13.999L 1 13.999C 0.447708 13.999 0 13.5513 0 12.999C 0 12.4467 0.447708 11.999 1 11.999Z"/>
</defs>
</svg>
