<svg width="24" height="24" viewBox="0 0 24 24" version="1.1" xmlns="http://www.w3.org/2000/svg" xmlns:xlink="http://www.w3.org/1999/xlink">
<title>offer</title>
<desc>Created using Figma</desc>
<g id="Canvas" transform="translate(317 29)">
<g id="offer">
<g id="offer">
<use xlink:href="#path0_fill" transform="translate(-315 -27)" fill="#707689"/>
</g>
</g>
</g>
<defs>
<path id="path0_fill" fill-rule="evenodd" d="M 4.44446 8.88778C 6.89444 8.88778 8.88889 6.89556 8.88889 4.44444C 8.88889 1.99333 6.89444 0 4.44446 0C 1.99445 0 0 1.99333 0 4.44444C 0 6.89445 1.99445 8.88778 4.44446 8.88778ZM 4.44446 2.22222C 5.67111 2.22222 6.66666 3.22 6.66666 4.44444C 6.66666 5.67 5.67111 6.66556 4.44446 6.66556C 3.21777 6.66556 2.22223 5.67 2.22223 4.44444C 2.22223 3.22 3.21777 2.22222 4.44446 2.22222ZM 15.5555 11.1111C 13.1056 11.1111 11.1111 13.1044 11.1111 15.5556C 11.1111 18.0067 13.1056 20 15.5555 20C 18.0056 20 20 18.0067 20 15.5556C 20 13.1044 18.0056 11.1111 15.5555 11.1111ZM 15.5555 17.7778C 14.3289 17.7778 13.3333 16.7811 13.3333 15.5556C 13.3333 14.3311 14.3289 13.3333 15.5555 13.3333C 16.7822 13.3333 17.7778 14.3311 17.7778 15.5556C 17.7778 16.7811 16.7822 17.7778 15.5555 17.7778ZM 1.03217 17.3963L 17.3953 1.03319C 17.7858 0.64267 18.4189 0.642668 18.8094 1.03319L 18.9658 1.18954C 19.3563 1.58006 19.3563 2.21322 18.9658 2.60374L 2.60272 18.9668C 2.21222 19.3573 1.57904 19.3573 1.18854 18.9668L 1.03217 18.8105C 0.641663 18.4199 0.641663 17.7868 1.03217 17.3963Z"/>
</defs>
</svg>
