<svg width="24" height="24" viewBox="0 0 24 24" version="1.1" xmlns="http://www.w3.org/2000/svg" xmlns:xlink="http://www.w3.org/1999/xlink">
<title>order</title>
<desc>Created using Figma</desc>
<g id="Canvas" transform="translate(285 29)">
<g id="order">
<g id="order">
<use xlink:href="#path0_fill" transform="translate(-277.418 -28.4142)" fill="#707689"/>
</g>
</g>
</g>
<defs>
<path id="path0_fill" fill-rule="evenodd" d="M 8.29285 5.414C 7.90238 5.80447 7.26933 5.80447 6.87885 5.414L 5.29285 3.828L 5.29285 6L 5.29285 16.414L 5.29285 18.586L 6.87885 17C 7.26933 16.6095 7.90238 16.6095 8.29285 17C 8.68333 17.3905 8.68333 18.0235 8.29285 18.414L 4.29285 22.414L 0.292854 18.414C -0.0976181 18.0235 -0.0976181 17.3905 0.292854 17C 0.683327 16.6095 1.31638 16.6095 1.70686 17L 3.29285 18.586L 3.29285 16.414L 3.29285 6L 3.29285 3.828L 1.70686 5.414C 1.31638 5.80447 0.683327 5.80447 0.292854 5.414C -0.0976181 5.02353 -0.0976181 4.39047 0.292854 4L 4.29285 0L 8.29285 4C 8.68333 4.39046 8.68333 5.02353 8.29285 5.414Z"/>
</defs>
</svg>
