<svg width="24" height="24" viewBox="0 0 24 24" version="1.1" xmlns="http://www.w3.org/2000/svg" xmlns:xlink="http://www.w3.org/1999/xlink">
<title>pin-stroke</title>
<desc>Created using Figma</desc>
<g id="Canvas" transform="translate(253 -99)">
<g id="pin-stroke">
<g id="pin-stroke">
<use xlink:href="#path0_fill" transform="translate(-249.048 100.853)" fill="#707689"/>
</g>
</g>
</g>
<defs>
<path id="path0_fill" fill-rule="evenodd" d="M 12.8669 0.824034C 11.7351 -0.307795 9.89006 -0.253183 8.77513 0.861743C 8.1888 1.44807 7.91759 2.21446 7.92906 2.96508L 4.6854 4.90152C 3.2784 4.58302 1.67217 4.66488 0.506697 5.83035C -0.144255 6.4813 -0.188195 7.56791 0.492552 8.24865L 4.24022 11.9963L 0.704687 15.5319C 0.314163 15.9224 0.314157 16.5555 0.704687 16.9461C 1.09521 17.3366 1.72838 17.3366 2.1189 16.9461L 5.65443 13.4105L 9.4021 17.1582C 10.0828 17.839 11.1695 17.795 11.8204 17.1441C 12.9859 15.9786 13.0677 14.3724 12.7492 12.9654L 14.6857 9.72169C 15.4363 9.73317 16.2027 9.46196 16.789 8.87563C 17.9039 7.7607 17.9586 5.91566 16.8267 4.78384L 12.8669 0.824034ZM 6.36154 11.2892L 10.586 15.5137C 10.9564 14.9755 11.0263 14.1561 10.7166 13.0898C 10.6391 12.8233 10.6759 12.5365 10.8182 12.2982L 13.3082 8.12728C 13.543 7.73409 14.0148 7.55058 14.4535 7.68184C 14.7803 7.77963 15.136 7.70019 15.3748 7.46141C 15.7465 7.08972 15.726 6.51154 15.4125 6.19805L 11.4527 2.23825C 11.1392 1.92476 10.561 1.90426 10.1893 2.27596C 9.95057 2.51473 9.87113 2.87045 9.96892 3.19725C 10.1002 3.63596 9.91667 4.10779 9.52347 4.34253L 5.35252 6.83253C 5.11421 6.97481 4.82749 7.01163 4.56095 6.9342C 3.49466 6.62442 2.67521 6.6944 2.1371 7.06478L 6.36154 11.2892Z"/>
</defs>
</svg>
