<svg width="24" height="24" viewBox="0 0 24 24" version="1.1" xmlns="http://www.w3.org/2000/svg" xmlns:xlink="http://www.w3.org/1999/xlink">
<title>question-circle</title>
<desc>Created using Figma</desc>
<g id="Canvas" transform="translate(-3 -35)">
<g id="question-circle">
<g id="question-circle">
<use xlink:href="#path0_fill" transform="translate(4 36)" fill="#707689"/>
</g>
</g>
</g>
<defs>
<path id="path0_fill" fill-rule="evenodd" d="M 0 11C 0 17.0659 4.93533 22 11 22C 17.0647 22 22 17.0659 22 11C 22 4.93411 17.0647 0 11 0C 4.93533 0 0 4.93411 0 11ZM 2.44444 11C 2.44444 6.28222 6.28222 2.44444 11 2.44444C 15.7178 2.44444 19.5556 6.28222 19.5556 11C 19.5556 15.7178 15.7178 19.5556 11 19.5556C 6.28222 19.5556 2.44444 15.7178 2.44444 11ZM 9.9807 14.5966C 9.9807 14.0372 10.4489 13.6113 11.0224 13.6113C 11.5843 13.6113 12.0525 14.048 12.0525 14.5966C 12.0525 15.146 11.572 15.5833 11.0224 15.5833C 10.4489 15.5833 9.9807 15.146 9.9807 14.5966ZM 8.25 8.15495C 8.25 6.69857 9.50155 5.5 11.0224 5.5C 12.5433 5.5 13.7723 6.69857 13.7497 8.14417C 13.7497 9.33348 13.1385 9.97202 12.6368 10.4963L 12.626 10.5076C 12.1824 10.9557 11.8543 11.2918 11.8543 12.0422C 11.8543 12.5126 11.4804 12.8709 11.0122 12.8709C 10.5323 12.8709 10.1461 12.5126 10.1461 12.0422C 10.1461 10.6526 10.8597 9.92443 11.3977 9.39804C 11.8303 8.92838 12.0648 8.67057 12.0648 8.15495C 12.0648 7.5948 11.5966 7.13591 11.0231 7.13591C 10.438 7.13591 9.95883 7.5948 9.95883 8.15495C 9.95883 8.59157 9.58357 8.96141 9.10441 8.96141C 8.6362 8.96141 8.25 8.59229 8.25 8.15495Z"/>
</defs>
</svg>
