<svg width="24" height="24" viewBox="0 0 24 24" version="1.1" xmlns="http://www.w3.org/2000/svg" xmlns:xlink="http://www.w3.org/1999/xlink">
<title>question</title>
<desc>Created using Figma</desc>
<g id="Canvas" transform="translate(220 29)">
<g id="question">
<g id="question">
<use xlink:href="#path0_fill" transform="translate(-219 -28)" fill="#707689"/>
</g>
</g>
</g>
<defs>
<path id="path0_fill" fill-rule="evenodd" d="M 22 11C 22 17.0751 17.0751 22 11 22C 4.92487 22 0 17.0751 0 11C 0 4.92487 4.92487 0 11 0C 17.0751 0 22 4.92487 22 11ZM 9.9807 14.5966C 9.9807 14.0372 10.4489 13.6113 11.0224 13.6113C 11.5843 13.6113 12.0525 14.048 12.0525 14.5966C 12.0525 15.146 11.572 15.5833 11.0224 15.5833C 10.4489 15.5833 9.9807 15.146 9.9807 14.5966ZM 8.25 8.15495C 8.25 6.69857 9.50154 5.5 11.0224 5.5C 12.5433 5.5 13.7722 6.69857 13.7497 8.14417C 13.7497 9.33349 13.1385 9.97203 12.6367 10.4963L 12.626 10.5076C 12.1824 10.9557 11.8543 11.2918 11.8543 12.0422C 11.8543 12.5126 11.4804 12.8709 11.0121 12.8709C 10.5323 12.8709 10.1461 12.5126 10.1461 12.0422C 10.1461 10.6526 10.8597 9.92443 11.3977 9.39804C 11.8303 8.92838 12.0648 8.67057 12.0648 8.15495C 12.0648 7.5948 11.5966 7.13591 11.0231 7.13591C 10.438 7.13591 9.95883 7.5948 9.95883 8.15495C 9.95883 8.59157 9.58357 8.96141 9.10442 8.96141C 8.6362 8.96141 8.25 8.59229 8.25 8.15495Z"/>
</defs>
</svg>
