<svg width="24" height="24" viewBox="0 0 24 24" version="1.1" xmlns="http://www.w3.org/2000/svg" xmlns:xlink="http://www.w3.org/1999/xlink">
<title>search</title>
<desc>Created using Figma</desc>
<g id="Canvas" transform="translate(157 29)">
<g id="search">
<g id="search">
<use xlink:href="#path0_fill" transform="matrix(-1 0 0 1 -134 -28)" fill="#707689"/>
</g>
</g>
</g>
<defs>
<path id="path0_fill" d="M 21.2104 21.2105C 21.6464 20.7748 21.6466 20.068 21.2107 19.6322L 15.9795 14.401C 17.1952 12.8425 17.8617 10.9392 17.8617 8.93084C 17.8617 6.54519 16.9318 4.30243 15.2449 2.61674C 13.5592 0.928807 11.3165 0 8.93084 0C 6.54519 0 4.30243 0.928807 2.61673 2.61674C 0.929923 4.30243 0 6.54519 0 8.93084C 0 11.3165 0.929923 13.5592 2.61673 15.2449C 4.30243 16.9329 6.54519 17.8617 8.93084 17.8617C 10.9392 17.8617 12.8425 17.1963 14.401 15.9795L 19.6327 21.2103C 20.0684 21.6459 20.7746 21.646 21.2104 21.2105ZM 8.93084 15.629C 7.14132 15.629 5.46009 14.9324 4.19526 13.6675C 2.92931 12.4027 2.23271 10.7204 2.23271 8.93084C 2.23271 7.14244 2.92931 5.46009 4.19526 4.19526C 5.46009 2.92931 7.14132 2.23271 8.93084 2.23271C 10.7204 2.23271 12.4016 2.92931 13.6664 4.19526C 14.9324 5.46009 15.629 7.14244 15.629 8.93084C 15.629 10.7204 14.9324 12.4027 13.6664 13.6675C 12.4016 14.9324 10.7204 15.629 8.93084 15.629Z"/>
</defs>
</svg>
