<svg width="24" height="24" viewBox="0 0 24 24" version="1.1" xmlns="http://www.w3.org/2000/svg" xmlns:xlink="http://www.w3.org/1999/xlink">
<title>social-comment</title>
<desc>Created using Figma</desc>
<g id="Canvas" transform="translate(-98 -35)">
<g id="social-comment">
<g id="social-comment">
<use xlink:href="#path0_fill" transform="translate(98 35)" fill="#707689"/>
</g>
</g>
</g>
<defs>
<path id="path0_fill" fill-rule="evenodd" d="M 15.3937 0C 11.7681 0 8.72417 2.49477 7.9486 5.84251C 3.51221 6.17123 0 9.79715 0 14.232C 0.0072207 16.3276 0.823714 18.2992 2.12847 19.7672L 1.45507 22.7089C 1.3561 23.1452 1.54533 23.5932 1.92233 23.8321C 2.29813 24.0693 2.78387 24.0543 3.14328 23.7927L 5.50065 22.0795C 6.45745 22.4392 7.52328 22.6431 8.60657 22.6449C 13.1438 22.6449 16.8775 19.2004 17.1909 14.8277C 17.5101 14.7514 17.8259 14.6544 18.1274 14.541L 20.188 16.0496C 20.5197 16.2928 20.968 16.3071 21.3149 16.0865C 21.6627 15.8645 21.8366 15.4498 21.7458 15.0466L 21.1558 12.4501C 22.3034 11.141 23.0234 9.38218 23.0305 7.5193C 23.0305 3.36349 19.6032 0 15.3937 0ZM 17.0824 12.7696C 16.4542 9.27033 13.6146 6.51999 10.0355 5.93396C 10.728 3.67387 12.8644 2.02022 15.3937 2.02022C 18.4869 2.02022 20.989 4.49034 20.989 7.5193L 20.9891 7.52516C 21.0133 9.02825 20.5119 10.1907 19.5269 11.2229L 19.5238 11.2262C 19.1526 11.6252 19.0018 12.1791 19.1223 12.7095L 19.1354 12.7671C 18.6677 12.4477 18.0667 12.3836 17.5398 12.5988L 17.5374 12.5998C 17.3808 12.6651 17.2314 12.7212 17.0824 12.7696ZM 2.21667 14.232C 2.21667 10.8011 5.0723 8.00006 8.60657 8.00006C 12.1398 8.00006 14.9956 10.801 14.9956 14.232C 14.9956 17.662 12.1399 20.463 8.60657 20.463L 8.60365 20.463C 7.67663 20.4725 6.96743 20.3258 6.15748 19.9891L 6.15512 19.9881C 5.55489 19.7448 4.8677 19.8274 4.34462 20.2075L 4.291 20.2465L 4.33334 20.0615C 4.46681 19.4784 4.29961 18.87 3.88936 18.4322L 3.88616 18.4289C 2.76192 17.2595 2.18899 15.9406 2.21667 14.2379L 2.21667 14.232Z"/>
</defs>
</svg>
