<svg width="24" height="24" viewBox="0 0 24 24" version="1.1" xmlns="http://www.w3.org/2000/svg" xmlns:xlink="http://www.w3.org/1999/xlink">
<title>sound-off</title>
<desc>Created using Figma</desc>
<g id="Canvas" transform="translate(157 -66)">
<g id="sound-off">
<g id="sound-off">
<use xlink:href="#path0_fill" transform="translate(-153.732 68.9766)" fill="#707689"/>
<use xlink:href="#path1_fill" transform="translate(-153.732 68.9766)" fill="#707689"/>
</g>
</g>
</g>
<defs>
<path id="path0_fill" d="M 11.707 1.0004L 11.707 2.75841L 1.903 12.5614C 1.789 12.3994 1.707 12.2124 1.707 12.0004L 1.707 6.0004C 1.707 5.45041 2.157 5.0004 2.707 5.0004L 5.707 5.0004L 10 0.293404C 10.286 0.00640926 10.716 -0.0785898 11.09 0.076409C 11.464 0.230408 11.707 0.596406 11.707 1.0004Z"/>
<path id="path1_fill" d="M 0.707 18.0004C 0.316535 17.6099 0.316535 16.9769 0.707 16.5864L 16.293 1.0004C 16.6835 0.609939 17.3165 0.609939 17.707 1.00041C 18.0975 1.39087 18.0975 2.02394 17.707 2.41441L 11.707 8.41441L 11.707 17.0004C 11.707 17.4044 11.464 17.7694 11.09 17.9234C 10.716 18.0794 10.286 17.9944 10 17.7074L 6.381 13.7404L 2.121 18.0004C 1.73054 18.3909 1.09747 18.3909 0.707 18.0004Z"/>
</defs>
</svg>
