<svg width="24" height="24" viewBox="0 0 24 24" version="1.1" xmlns="http://www.w3.org/2000/svg" xmlns:xlink="http://www.w3.org/1999/xlink">
<title>sound</title>
<desc>Created using Figma</desc>
<g id="Canvas" transform="translate(125 -66)">
<g id="sound">
<g id="sound">
<use xlink:href="#path0_fill" transform="translate(-120 69.0053)" fill="#707689"/>
</g>
</g>
</g>
<defs>
<path id="path0_fill" fill-rule="evenodd" d="M 8.293 0.29274C 8.57899 0.00674452 9.009 -0.0782546 9.383 0.0757448C 9.757 0.229744 10 0.594742 10 0.999741L 10 16.9997C 10 17.4037 9.757 17.7687 9.383 17.9227C 9.009 18.0767 8.57899 17.9917 8.293 17.7057L 4 12.9997L 1 12.9997C 0.449997 12.9997 0 12.5497 0 11.9997L 0 5.99974C 0 5.44975 0.449997 4.99974 1 4.99974L 4 4.99974L 8.293 0.29274ZM 12 7.99974L 12 5.99974C 13.654 5.99974 15 7.34474 15 8.99974C 15 10.6537 13.654 11.9997 12 11.9997L 12 9.99974C 12.551 9.99974 13 9.55074 13 8.99974C 13 8.44875 12.551 7.99974 12 7.99974Z"/>
</defs>
</svg>
