<svg width="24" height="24" viewBox="0 0 24 24" version="1.1" xmlns="http://www.w3.org/2000/svg" xmlns:xlink="http://www.w3.org/1999/xlink">
<title>star</title>
<desc>Created using Figma</desc>
<g id="Canvas" transform="translate(-3 29)">
<g id="star">
<g id="star">
<use xlink:href="#path0_fill" transform="translate(5.00026 -26.9548)" fill="#707689"/>
</g>
</g>
</g>
<defs>
<path id="path0_fill" d="M 19.9237 6.57175C 19.7697 6.19875 19.4037 5.95475 18.9997 5.95475L 13.6177 5.95475L 10.8937 0.50775C 10.5547 -0.16925 9.44374 -0.16925 9.10474 0.50775L 6.38174 5.95475L 0.999745 5.95475C 0.595745 5.95475 0.229745 6.19875 0.0757448 6.57175C -0.0782552 6.94475 0.0067448 7.37675 0.292745 7.66175L 4.87674 12.2457L 3.03874 18.6807C 2.92374 19.0837 3.07174 19.5158 3.40974 19.7628C 3.74974 20.0107 4.20674 20.0198 4.55374 19.7868L 9.99974 16.1567L 15.4447 19.7868C 15.6127 19.8988 15.8057 19.9548 15.9997 19.9548C 16.2067 19.9548 16.4137 19.8908 16.5897 19.7628C 16.9277 19.5158 17.0757 19.0837 16.9607 18.6807L 15.1227 12.2457L 19.7067 7.66175C 19.9927 7.37675 20.0777 6.94475 19.9237 6.57175Z"/>
</defs>
</svg>
