<svg width="24" height="25" viewBox="0 0 24 25" version="1.1" xmlns="http://www.w3.org/2000/svg" xmlns:xlink="http://www.w3.org/1999/xlink">
<title>tag-edit</title>
<desc>Created using Figma</desc>
<g id="Canvas" transform="translate(-99 29)">
<g id="tag-edit">
<g id="tag-edit">
<use xlink:href="#path0_fill" transform="translate(99 -29)" fill="#707689"/>
</g>
</g>
</g>
<defs>
<path id="path0_fill" fill-rule="evenodd" d="M 12.0003 0L 5.00025 0C 4.44725 0 4.00025 0.447001 4.00025 1L 4.00025 8C 4.00025 8.266 4.10525 8.519 4.29325 8.707L 15.2933 19.707C 15.4883 19.902 15.7442 20 16.0003 20C 16.2562 20 16.5123 19.902 16.7073 19.707L 23.7073 12.707C 24.0983 12.316 24.0983 11.684 23.7073 11.293L 12.7073 0.292999C 12.5192 0.105 12.2663 0 12.0003 0ZM 11.0003 5C 11.0003 6.103 10.1062 7 9.00025 7C 7.89625 7 7.00025 6.103 7.00025 5C 7.00025 3.895 7.89625 3 9.00025 3C 10.1062 3 11.0003 3.895 11.0003 5ZM 11.7073 18.293L 4.70725 11.293C 4.31625 10.902 3.68425 10.902 3.29325 11.293L 0.293251 14.293C -0.0977478 14.685 -0.0977478 15.316 0.293251 15.707L 7.29325 22.707C 7.42125 22.835 7.58125 22.927 7.75825 22.971L 11.7582 23.971C 12.0983 24.057 12.4593 23.955 12.7073 23.707C 12.9552 23.459 13.0553 23.1 12.9713 22.758L 11.9703 18.758C 11.9262 18.582 11.8343 18.422 11.7073 18.293ZM 10.6273 21.626L 8.51225 21.097L 5.41425 18L 7.00025 16.414L 10.0973 19.512L 10.6273 21.626ZM 5.58625 15L 4.00025 16.587L 2.41425 15L 4.00025 13.414L 5.58625 15Z"/>
</defs>
</svg>
