<svg width="24" height="25" viewBox="0 0 24 25" version="1.1" xmlns="http://www.w3.org/2000/svg" xmlns:xlink="http://www.w3.org/1999/xlink">
<title>topic</title>
<desc>Created using Figma</desc>
<g id="Canvas" transform="translate(-3 -1)">
<g id="topic">
<g id="topic">
<use xlink:href="#path0_fill" transform="translate(4 1.98599)" fill="#707689"/>
</g>
</g>
</g>
<defs>
<path id="path0_fill" fill-rule="evenodd" d="M 0 11.0688C 0 13.9453 1.1004 16.5673 2.90281 18.5365L 1.9416 22.8361C 1.85521 23.2261 2.01961 23.6293 2.35441 23.8465C 2.69041 24.0637 3.12481 24.0493 3.44521 23.8105L 6.82682 21.2941C 8.13363 21.8365 9.56643 22.1365 11.0688 22.1365C 17.1769 22.1365 22.1365 17.1768 22.1365 11.0688C 22.1365 4.95961 17.1769 0 11.0688 0C 4.95962 0 0 4.95961 0 11.0688ZM 6.5 13.014C 7.32843 13.014 8 12.3424 8 11.514C 8 10.6856 7.32843 10.014 6.5 10.014C 5.67157 10.014 5 10.6856 5 11.514C 5 12.3424 5.67157 13.014 6.5 13.014ZM 13 11.514C 13 12.3424 12.3284 13.014 11.5 13.014C 10.6716 13.014 10 12.3424 10 11.514C 10 10.6856 10.6716 10.014 11.5 10.014C 12.3284 10.014 13 10.6856 13 11.514ZM 16.5 13.014C 17.3284 13.014 18 12.3424 18 11.514C 18 10.6856 17.3284 10.014 16.5 10.014C 15.6716 10.014 15 10.6856 15 11.514C 15 12.3424 15.6716 13.014 16.5 13.014Z"/>
</defs>
</svg>
