<svg width="24" height="24" viewBox="0 0 24 24" version="1.1" xmlns="http://www.w3.org/2000/svg" xmlns:xlink="http://www.w3.org/1999/xlink">
<title>users</title>
<desc>Created using Figma</desc>
<g id="Canvas" transform="translate(189 -3)">
<g id="users">
<g id="users">
<use xlink:href="#path0_fill" transform="translate(-189 5)" fill="#707689"/>
</g>
</g>
</g>
<defs>
<path id="path0_fill" fill-rule="evenodd" d="M 12.3101 7.54233C 11.4877 8.43425 10.309 8.99311 9 8.99311C 6.51523 8.99311 4.5 6.97942 4.5 4.49656C 4.5 2.01369 6.51523 0 9 0C 10.9878 0 12.6751 1.28874 13.2705 3.07546C 13.2798 3.10339 13.2889 3.13144 13.2976 3.15961C 13.4291 3.58198 13.5 4.03102 13.5 4.49656C 13.5 5.67131 13.0489 6.74103 12.3103 7.54212C 12.3102 7.54219 12.3102 7.54227 12.3101 7.54233ZM 9 11.2555C 2.13702 11.2555 0 15.7521 0 15.7521L 0 18L 8 18L 16 18L 18 18L 18 16L 18 15.7521L 19.8064 14.8936L 20 15.301L 20 15.7521L 20 18L 24 18L 24 16.0019C 24 16.0019 22.4171 12.6712 17.5006 12.0907C 18.2526 12.7346 18.8442 13.4204 19.1745 13.8707C 19.3684 14.1384 19.5335 14.3996 19.6216 14.5499C 19.6725 14.6375 19.7202 14.7247 19.7443 14.7704C 19.7594 14.7992 19.7753 14.8303 19.7826 14.845L 19.7963 14.8726L 19.8018 14.884L 19.8042 14.889L 19.8053 14.8914C 19.8058 14.8925 19.8064 14.8936 18 15.7521C 18 15.7521 16.9292 13.4992 13.8697 12.1828C 12.6068 11.6394 11.0052 11.2555 9 11.2555ZM 16 9.99388C 15.0717 9.99388 14.2171 9.67766 13.5382 9.14717C 14.7483 7.96746 15.5 6.31992 15.5 4.49656C 15.5 3.6553 15.34 2.85148 15.0488 2.11377C 15.3537 2.03942 15.6722 2 16 2C 18.2087 2 20 3.78995 20 5.99694C 20 8.20393 18.2087 9.99388 16 9.99388Z"/>
</defs>
</svg>
