<?xml version="1.0" encoding="UTF-8"?>
<svg width="1319px" height="694px" viewBox="0 0 1319 694" version="1.1" xmlns="http://www.w3.org/2000/svg" xmlns:xlink="http://www.w3.org/1999/xlink" style="background: #FFFFFF;">
    <!-- Generator: Sketch 47.1 (45422) - http://www.bohemiancoding.com/sketch -->
    <title>colors-grey-tones</title>
    <desc>Created with Sketch.</desc>
    <defs>
        <polygon id="path-1" points="787.587152 0.802419619 0.468202421 0.802419619 0.468202421 561.270472 787.587152 561.270472"></polygon>
        <polygon id="path-3" points="0 562 793.706125 562 793.706125 0.802419619 0 0.802419619"></polygon>
        <polygon id="path-5" points="56.8405882 47.7447277 56.8405882 0.803916849 -1.88028891e-05 0.803916849 -1.88028891e-05 47.7447277 56.8405882 47.7447277"></polygon>
        <polygon id="path-7" points="0 42.5285588 54.9844324 42.5285588 54.9844324 0.311759505 0 0.311759505"></polygon>
        <polygon id="path-9" points="54.9859459 42.9142621 54.9859459 0.795034483 0 0.795034483 0 42.9142621 54.9859459 42.9142621"></polygon>
        <polygon id="path-11" points="0.00152941347 47.7456279 56.8421176 47.7456279 56.8421176 0.80427907 0.00152941347 0.80427907 0.00152941347 47.7452194 56.8419097 47.7452194 56.8419097 0.804408557 -1.30707311e-05 0.804408557 -1.30707311e-05 47.7452194"></polygon>
    </defs>
    <g id="Elelments--illustrations" stroke="none" stroke-width="1" fill="none" fill-rule="evenodd">
        <g id="colors-grey-tones">
            <path d="" id="Path-452" stroke="#DCDDE0" stroke-linecap="square"></path>
            <g id="Page-1" transform="translate(262.000000, 111.000000)">
                <g id="Group-67">
                    <g id="Group-3" transform="translate(6.118622, 0.000000)">
                        <mask id="mask-2" fill="white">
                            <use xlink:href="#path-1"></use>
                        </mask>
                        <g id="Clip-2"></g>
                        <path d="M661.637197,561.270472 C757.179481,520.834036 712.337629,472.433126 766.357414,386.65845 C852.018123,250.643731 653.104779,164.287148 617.980829,156.904581 C493.807983,130.807567 456.9234,30.0947172 385.364585,7.67903324 C308.669187,-16.3445526 193.348457,26.9217907 146.409448,70.2861395 C111.227371,102.787197 53.1004616,179.398363 65.3377058,269.940085 C72.0636011,319.706946 -9.70260495,313.411627 1.52965552,412.389475 C10.7075886,493.263878 32.1227659,517.1573 114.043467,561.270472 L661.637197,561.270472 Z" id="Fill-1" fill="#EAF2FB" mask="url(#mask-2)"></path>
                    </g>
                    <polygon id="Fill-4" fill="#D6E3F2" points="562.91323 292.456837 562.91323 299.476477 113.194508 300.177829 112.986475 291.755486"></polygon>
                    <path d="M128.495499,561.270472 L129.872189,94.289818 C123.880529,101.470249 117.78944,109.476069 111.895678,118.224586 L113.179059,560.538494 C115.458245,561.788063 117.781792,559.988744 120.161936,561.270472 L128.495499,561.270472 Z" id="Fill-6" fill="#D6E3F2"></path>
                    <path d="M188.890735,44.3266398 L448.762381,43.920836 C445.92793,41.3834136 443.095008,38.9149014 440.255967,36.5321439 L204.086333,36.1646234 C198.825848,38.8061766 193.744332,41.5319531 188.890735,44.3266398" id="Fill-8" fill="#D6E3F2"></path>
                    <path d="M546.082584,561.270472 L562.917972,561.270472 L564.17076,136.115175 C557.412742,132.735518 550.969833,129.130755 544.80991,125.343763 L546.082584,561.270472 Z" id="Fill-10" fill="#D6E3F2"></path>
                    <polygon id="Fill-12" fill="#D6E3F2" points="562.91323 436.402341 562.91323 443.421981 113.194508 444.123333 112.986475 435.70099"></polygon>
                    <polygon id="Fill-14" fill="#D6E3F2" points="562.91323 160.762014 562.91323 167.781654 113.194508 168.483006 112.986475 160.060663"></polygon>
                    <polyline id="Fill-16" fill="#D6E3F2" points="562.91323 549.084107 113.194508 549.785458 112.986475 541.363115 561.383575 539.83178"></polyline>
                    <path d="M123.857278,257.799813 C123.869515,259.490407 122.511181,260.87014 120.822441,260.882391 C119.294316,260.89311 117.755482,259.372494 117.744775,257.84269 C117.729478,255.54875 119.090871,254.773895 120.779611,254.763175 C122.466821,254.750925 123.84657,256.270009 123.857278,257.799813 Z" id="Stroke-18" stroke="#B0BED2"></path>
                    <path d="M123.857278,196.546407 C123.869515,198.237001 122.511181,199.616734 120.822441,199.628985 C119.294316,199.639704 117.755482,198.119088 117.744775,196.589284 C117.729478,194.295344 119.090871,193.520489 120.779611,193.509769 C122.466821,193.497519 123.84657,195.016603 123.857278,196.546407 Z" id="Stroke-20" stroke="#B0BED2"></path>
                    <path d="M123.857278,394.088641 C123.869515,395.779235 122.511181,397.158968 120.822441,397.171219 C119.294316,397.181938 117.755482,395.661323 117.744775,394.131519 C117.729478,391.837579 119.090871,391.062723 120.779611,391.052004 C122.466821,391.039753 123.84657,392.558838 123.857278,394.088641 Z" id="Stroke-22" stroke="#B0BED2"></path>
                    <path d="M123.857278,332.835235 C123.869515,334.525829 122.511181,335.905562 120.822441,335.917813 C119.294316,335.928532 117.755482,334.407917 117.744775,332.878113 C117.729478,330.584173 119.090871,329.809317 120.779611,329.798598 C122.466821,329.786347 123.84657,331.305432 123.857278,332.835235 Z" id="Stroke-24" stroke="#B0BED2"></path>
                    <path d="M123.857278,525.783464 C123.869515,527.474058 122.511181,528.853791 120.822441,528.866042 C119.294316,528.876761 117.755482,527.356146 117.744775,525.826342 C117.729478,523.532402 119.090871,522.757546 120.779611,522.746827 C122.466821,522.734576 123.84657,524.25366 123.857278,525.783464 Z" id="Stroke-26" stroke="#B0BED2"></path>
                    <path d="M123.857278,464.530058 C123.869515,466.220652 122.511181,467.600385 120.822441,467.612636 C119.294316,467.623355 117.755482,466.10274 117.744775,464.572936 C117.729478,462.278996 119.090871,461.50414 120.779611,461.493421 C122.466821,461.48117 123.84657,463.000254 123.857278,464.530058 Z" id="Stroke-28" stroke="#B0BED2"></path>
                    <path d="M123.857278,135.293001 C123.869515,136.983595 122.511181,138.363328 120.822441,138.375579 C119.294316,138.386298 117.755482,136.865682 117.744775,135.335878 C117.729478,133.041938 119.090871,132.267083 120.779611,132.256363 C122.466821,132.244113 123.84657,133.763197 123.857278,135.293001 Z" id="Stroke-30" stroke="#B0BED2"></path>
                    <path d="M558.279445,257.799813 C558.291682,259.490407 556.931818,260.87014 555.244608,260.882391 C553.716482,260.89311 552.177649,259.372494 552.166941,257.84269 C552.150115,255.54875 553.514568,254.773895 555.201778,254.763175 C556.888988,254.750925 558.268737,256.270009 558.279445,257.799813 Z" id="Stroke-32" stroke="#B0BED2"></path>
                    <path d="M558.279445,196.546407 C558.291682,198.237001 556.931818,199.616734 555.244608,199.628985 C553.716482,199.639704 552.177649,198.119088 552.166941,196.589284 C552.150115,194.295344 553.514568,193.520489 555.201778,193.509769 C556.888988,193.497519 558.268737,195.016603 558.279445,196.546407 Z" id="Stroke-34" stroke="#B0BED2"></path>
                    <path d="M558.279445,394.088641 C558.291682,395.779235 556.931818,397.158968 555.244608,397.171219 C553.716482,397.181938 552.177649,395.661323 552.166941,394.131519 C552.150115,391.837579 553.514568,391.062723 555.201778,391.052004 C556.888988,391.039753 558.268737,392.558838 558.279445,394.088641 Z" id="Stroke-36" stroke="#B0BED2"></path>
                    <path d="M558.279445,332.835235 C558.291682,334.525829 556.931818,335.905562 555.244608,335.917813 C553.716482,335.928532 552.177649,334.407917 552.166941,332.878113 C552.150115,330.584173 553.514568,329.809317 555.201778,329.798598 C556.888988,329.786347 558.268737,331.305432 558.279445,332.835235 Z" id="Stroke-38" stroke="#B0BED2"></path>
                    <path d="M558.279445,525.783464 C558.291682,527.474058 556.931818,528.853791 555.244608,528.866042 C553.716482,528.876761 552.177649,527.356146 552.166941,525.826342 C552.150115,523.532402 553.514568,522.757546 555.201778,522.746827 C556.888988,522.734576 558.268737,524.25366 558.279445,525.783464 Z" id="Stroke-40" stroke="#B0BED2"></path>
                    <path d="M558.279445,464.530058 C558.291682,466.220652 556.931818,467.600385 555.244608,467.612636 C553.716482,467.623355 552.177649,466.10274 552.166941,464.572936 C552.150115,462.278996 553.514568,461.50414 555.201778,461.493421 C556.888988,461.48117 558.268737,463.000254 558.279445,464.530058 Z" id="Stroke-42" stroke="#B0BED2"></path>
                    <path d="M558.279445,135.293001 C558.291682,136.983595 556.931818,138.363328 555.244608,138.375579 C553.716482,138.386298 552.177649,136.865682 552.166941,135.335878 C552.150115,133.041938 553.514568,132.267083 555.201778,132.256363 C556.888988,132.244113 558.268737,133.763197 558.279445,135.293001 Z" id="Stroke-44" stroke="#B0BED2"></path>
                    <polygon id="Fill-46" fill="#D6E3F2" points="223.329706 291.755486 145.317274 291.755486 146.661841 204.232025 221.985138 204.232025"></polygon>
                    <mask id="mask-4" fill="white">
                        <use xlink:href="#path-3"></use>
                    </mask>
                    <g id="Clip-49"></g>
                    <polygon id="Fill-48" fill="#C8D4E5" mask="url(#mask-4)" points="145.317274 213.658005 223.329706 213.658005 223.329706 204.232638 145.317274 204.232638"></polygon>
                    <polygon id="Fill-50" fill="#C8D4E5" mask="url(#mask-4)" points="173.563893 228.939199 196.429184 228.939199 196.429184 222.302392 173.563893 222.302392"></polygon>
                    <polygon id="Fill-51" fill="#C8D4E5" mask="url(#mask-4)" points="217.211083 541.363115 139.198652 541.363115 140.543219 453.839654 215.866516 453.839654"></polygon>
                    <polygon id="Fill-52" fill="#B0BED2" mask="url(#mask-4)" points="139.198652 463.265635 217.211083 463.265635 217.211083 453.840267 139.198652 453.840267"></polygon>
                    <polygon id="Fill-53" fill="#B0BED2" mask="url(#mask-4)" points="167.445271 478.546828 190.310562 478.546828 190.310562 471.910022 167.445271 471.910022"></polygon>
                    <polygon id="Fill-54" fill="#D6E3F2" mask="url(#mask-4)" points="506.315976 435.70099 428.303545 435.70099 429.648112 348.177529 504.971409 348.177529"></polygon>
                    <polygon id="Fill-55" fill="#C8D4E5" mask="url(#mask-4)" points="428.303545 357.60351 506.315976 357.60351 506.315976 348.178142 428.303545 348.178142"></polygon>
                    <polygon id="Fill-56" fill="#C8D4E5" mask="url(#mask-4)" points="456.550164 372.884703 479.415454 372.884703 479.415454 366.247896 456.550164 366.247896"></polygon>
                    <polygon id="Fill-57" fill="#C8D4E5" mask="url(#mask-4)" points="414.536645 435.70099 336.524214 435.70099 337.868781 368.084886 413.192078 368.084886"></polygon>
                    <polygon id="Fill-58" fill="#B0BED2" mask="url(#mask-4)" points="336.524214 377.510866 414.536645 377.510866 414.536645 368.085499 336.524214 368.085499"></polygon>
                    <polygon id="Fill-59" fill="#B0BED2" mask="url(#mask-4)" points="364.770833 392.79206 387.636123 392.79206 387.636123 386.155253 364.770833 386.155253"></polygon>
                    <polygon id="Fill-60" fill="#C8D4E5" mask="url(#mask-4)" points="535.379431 539.83178 423.714578 539.83178 425.640415 502.842379 533.453595 502.842379"></polygon>
                    <polygon id="Fill-61" fill="#B0BED2" mask="url(#mask-4)" points="423.714578 512.26836 535.379431 512.26836 535.379431 502.842992 423.714578 502.842992"></polygon>
                    <polygon id="Fill-62" fill="#B0BED2" mask="url(#mask-4)" points="451.961197 527.549553 474.826488 527.549553 474.826488 520.912747 451.961197 520.912747"></polygon>
                    <polygon id="Fill-63" fill="#D6E3F2" mask="url(#mask-4)" points="472.663555 503.079736 409.947679 503.079736 411.029145 449.483006 471.582088 449.483006"></polygon>
                    <polygon id="Fill-64" fill="#C8D4E5" mask="url(#mask-4)" points="408.418023 455.255221 474.19321 455.255221 474.19321 449.482087 408.418023 449.482087"></polygon>
                    <polygon id="Fill-65" fill="#C8D4E5" mask="url(#mask-4)" points="428.303545 466.328305 454.307689 466.328305 454.307689 460.846125 428.303545 460.846125"></polygon>
                    <polygon id="Fill-66" fill="#D6E3F2" mask="url(#mask-4)" points="22.1757322 560.966808 389.293056 560.665135 572.851718 560.541097 664.631049 560.61307 756.41038 560.882585 756.41038 561.65744 664.631049 561.928487 572.851718 562.000459 389.293056 561.876421 22.1757322 561.573217"></polygon>
                </g>
                <g id="Group-70" transform="translate(657.000000, 174.000000)">
                    <mask id="mask-6" fill="white">
                        <use xlink:href="#path-5"></use>
                    </mask>
                    <g id="Clip-69"></g>
                    <polygon id="Fill-68" fill="#FFFFFF" mask="url(#mask-6)" points="27.9339594 0.838960865 18.4789203 0.927219869 18.1270434 1.31400198 18.1282444 1.31789576 17.4148831 2.10184338 17.5157625 14.7514353 17.5289729 16.2713073 9.02748397 16.3569705 0.374676004 16.4335481 -1.88028891e-05 16.4374419 -1.88028891e-05 17.67177 0.356661831 17.6756638 8.60595231 17.7509436 28.4996045 17.9612077 37.4406392 18.0507646 37.4298307 18.0637438 37.4190222 20.4713976 37.401008 20.4830789 37.3001287 30.5562867 37.2893202 30.5433074 36.8701904 30.5394137 27.2362105 30.5303282 27.1773642 30.4433671 20.0725742 30.4070252 18.2099086 30.4148127 16.3892762 30.4394733 12.9029331 30.5251365 9.67119043 30.6406519 6.76610473 30.7665508 2.24334626 30.9807087 0.110468127 31.0819469 -1.88028891e-05 31.0871387 -1.88028891e-05 32.3214668 0.115271907 32.3279564 2.35503413 32.4291947 7.13839765 32.6420546 10.2356345 32.7679535 13.6943558 32.8847669 17.4220888 32.9691321 17.5157625 44.7452195 17.5337767 46.7479202 17.5433842 46.7479202 18.4789203 47.7447277 26.7906599 47.6564687 47.8144012 47.4449067 56.4672092 47.369627 56.841904 47.3657332 56.841904 46.1314051 56.4840224 46.1275113 48.2371338 46.0509336 28.3422807 45.8380737 19.401246 45.7524105 19.4132554 45.7368354 19.4240639 43.3304796 19.4408771 43.3187983 19.5417565 33.2468884 19.552565 33.2585697 19.9704938 33.2624635 29.6044738 33.271549 29.665722 33.359808 36.769311 33.394852 38.6319766 33.3870645 40.452609 33.3637018 43.938952 33.2767407 47.1694938 33.1612252 50.0769814 33.0366243 54.5985389 32.8224664 56.7314171 32.7212282 56.841904 32.7147385 56.841904 31.4804104 56.7242114 31.4739208 54.486851 31.3713846 49.7034875 31.1585246 46.6050497 31.0352216 43.1463284 30.9171103 39.4185955 30.8314471 39.3249218 19.0553597 39.3117114 17.5354878 47.8144012 17.4485267 56.4672092 17.3732469 56.841904 17.3706511 56.841904 16.135025 56.4840224 16.1311312 48.2371338 16.0532557 28.3422807 15.8442895 19.401246 15.7547326 19.4132554 15.7417533 19.4240639 13.3340996 19.4408771 13.3224182 19.5417565 3.25050836 19.552565 3.2621897 19.9704938 3.26608348 29.6044738 3.27387104 29.665722 3.36342797 36.769311 3.39976991 38.6319766 3.3893865 40.452609 3.36732175 43.938952 3.28036067 47.1694938 3.16354728 50.0769814 3.04024426 54.5985389 2.82608638 56.7314171 2.72484811 56.841904 2.71835848 56.841904 1.48273242 56.7242114 1.47754072 54.486851 1.37500452 49.7034875 1.16214457 46.6050497 1.03884155 43.1463284 0.922028163 39.406586 0.835067086 37.4586534 0.810406482 35.4722905 0.803916849"></polygon>
                </g>
                <g id="Group-73" transform="translate(434.000000, 206.000000)">
                    <mask id="mask-8" fill="white">
                        <use xlink:href="#path-7"></use>
                    </mask>
                    <g id="Clip-72"></g>
                    <polygon id="Fill-71" fill="#FFFFFF" mask="url(#mask-8)" points="27.0219676 0.342479222 17.8758054 0.421559682 17.5352649 0.76981786 17.5367784 0.772859416 16.8466162 1.47850044 16.9434811 12.8554412 16.9571027 14.2226207 8.73267027 14.2986596 0.361427027 14.3686154 -0.000302702703 14.3716569 -0.000302702703 15.4818249 0.344778378 15.4848665 8.32402162 15.5533015 27.5698595 15.741878 36.2180757 15.8224792 36.2074811 15.8346454 36.1968865 18.0002334 36.1802378 18.0093581 36.0818595 27.0701538 36.0712649 27.0579876 35.6671568 27.0549461 26.3469405 27.0458214 26.289427 26.9682617 19.4165622 26.9348046 17.6154811 26.9424085 15.8537514 26.9652202 12.4816432 27.0412591 9.35472432 27.1461927 6.54412973 27.2587303 2.17007568 27.4518691 0.107156757 27.5431158 -0.000302702703 27.5476782 -0.000302702703 28.6578462 0.111697297 28.6624085 2.27753514 28.7536552 6.90434595 28.9452732 9.9011027 29.0593316 13.2474811 29.1642653 16.8526703 29.2403042 16.9434811 39.8310027 16.9616432 41.6316039 16.9707243 41.6316039 17.8758054 42.528863 25.9155892 42.4497825 46.2541838 42.2596852 54.6239135 42.1912502 54.9871568 42.1882087 54.9871568 41.0780407 54.6405622 41.0734783 46.6628324 41.0050433 27.4169946 40.8134253 18.7672649 40.7373864 18.779373 40.7221786 18.7899676 38.5581114 18.8066162 38.547466 18.9034811 29.4897118 18.9140757 29.5003572 19.3181838 29.5033988 28.6384 29.5110027 28.697427 29.5916039 35.5687784 29.6220195 37.371373 29.6159363 39.1315892 29.5946454 42.5052108 29.5170858 45.6291027 29.4121521 48.4427243 29.3011353 52.8167784 29.1079965 54.8796973 29.0167498 54.9871568 29.0106667 54.9871568 27.9004987 54.8721297 27.8944156 52.7078054 27.8031689 48.0809946 27.6115508 45.0842378 27.500534 41.7378595 27.3940796 38.1311568 27.3165199 38.0418595 16.7258214 38.0282378 15.3586419 46.2541838 15.2810822 54.6239135 15.2126472 54.9871568 15.2111264 54.9871568 14.0994377 54.6405622 14.0963961 46.6628324 14.0264403 27.4169946 13.8378638 18.7672649 13.7572626 18.779373 13.7450964 18.7899676 11.5810292 18.8066162 11.5703837 18.9034811 2.51110875 18.9140757 2.5217542 19.3181838 2.52479576 28.6384 2.53239965 28.697427 2.61300088 35.5687784 2.64493722 37.371373 2.63581256 39.1315892 2.61604244 42.5052108 2.53848276 45.6291027 2.43354907 48.4427243 2.32253227 52.8167784 2.12939346 54.8796973 2.03814677 54.9871568 2.03206366 54.9871568 0.921895668 54.8721297 0.917333333 52.7078054 0.824565871 48.0809946 0.632947834 45.0842378 0.521931034 41.7378595 0.416997347 38.1205622 0.339437666 36.2362378 0.316625995 34.3140757 0.310542882"></polygon>
                </g>
                <g id="Group-76" transform="translate(31.000000, 455.000000)">
                    <mask id="mask-10" fill="white">
                        <use xlink:href="#path-9"></use>
                    </mask>
                    <g id="Clip-75"></g>
                    <polygon id="Fill-74" fill="#FFFFFF" mask="url(#mask-10)" points="27.0219676 0.825986207 17.8758054 0.904882759 17.5352649 1.25233103 17.5367784 1.25536552 16.8466162 1.95936552 16.9434811 13.3098483 16.9571027 14.6738483 8.73267027 14.7497103 0.361427027 14.8195034 -0.000302702703 14.8225379 -0.000302702703 15.9301241 0.344778378 15.9331586 8.32402162 16.0014345 27.5698595 16.1895724 36.2180757 16.2699862 36.2074811 16.2821241 36.1968865 18.4426759 36.1802378 18.4517793 36.0818595 27.4915034 36.0727784 27.4793655 35.6671568 27.476331 26.3469405 27.4672276 26.289427 27.3898483 19.4165622 27.356469 17.6154811 27.3640552 15.8537514 27.3868138 12.4816432 27.4626759 9.35472432 27.5673655 6.54412973 27.6796414 2.17007568 27.872331 0.107156757 27.9633655 -0.000302702703 27.9679172 -0.000302702703 29.0755034 0.111697297 29.0800552 2.27753514 29.1710897 6.90434595 29.3622621 9.9011027 29.4760552 13.2474811 29.5807448 16.8526703 29.6566069 16.9434811 40.2226759 16.9616432 42.0190897 16.9707243 42.0190897 17.8758054 42.9142621 25.9155892 42.8353655 46.2541838 42.6457103 54.6239135 42.5774345 54.9871568 42.5744 54.9871568 41.4668138 54.6405622 41.4622621 46.6628324 41.3939862 27.4169946 41.2028138 18.7672649 41.1269517 18.779373 41.1117793 18.7899676 38.9527448 18.8066162 38.9421241 18.9034811 29.9054345 18.9140757 29.9160552 19.3181838 29.9190897 28.6384 29.9266759 28.697427 30.0070897 35.5687784 30.0374345 37.371373 30.0313655 39.1315892 30.0101241 42.5052108 29.9327448 45.6291027 29.8280552 48.4427243 29.7172966 52.8167784 29.5246069 54.8796973 29.4335724 54.9871568 29.4275034 54.9871568 28.3199172 54.8721297 28.3138483 52.7078054 28.2228138 48.0809946 28.0316414 45.0842378 27.9208828 41.7378595 27.8146759 38.1311568 27.7372966 38.0418595 17.1712276 38.0282378 15.8072276 46.2541838 15.7298483 54.6239135 15.6615724 54.9871568 15.6600552 54.9871568 14.5509517 54.6405622 14.5479172 46.6628324 14.4781241 27.4169946 14.2899862 18.7672649 14.2095724 18.779373 14.1974345 18.7899676 12.0384 18.8066162 12.0277793 18.9034811 2.98957241 18.9140757 3.0001931 19.3181838 3.00322759 28.6384 3.01081379 28.697427 3.09122759 35.5687784 3.12308966 37.371373 3.11398621 39.1315892 3.09426207 42.5052108 3.01688276 45.6291027 2.9121931 48.4427243 2.80143448 52.8167784 2.60874483 54.8796973 2.51771034 54.9871568 2.51164138 54.9871568 1.40405517 54.8721297 1.39950345 52.7078054 1.30695172 48.0809946 1.11577931 45.0842378 1.00502069 41.7378595 0.900331034 38.1205622 0.822951724 36.2362378 0.800193103 34.3140757 0.794124138"></polygon>
                </g>
                <g id="Group-79" transform="translate(46.000000, 199.000000)">
                    <mask id="mask-12" fill="white">
                        <use xlink:href="#path-11"></use>
                    </mask>
                    <g id="Clip-78"></g>
                    <polygon id="Fill-77" fill="#FFFFFF" mask="url(#mask-12)" points="27.9339652 0.839452573 18.478926 0.927711577 18.1270492 1.31449368 18.1282501 1.31838746 17.4148888 2.10233509 17.5157682 14.7519271 17.5289786 16.271799 9.0274897 16.3574622 0.374681736 16.4340398 -1.30707311e-05 16.4379336 -1.30707311e-05 17.6722617 0.356667563 17.6761555 8.60595804 17.7514353 28.4996102 17.9616994 37.4406449 18.0512563 37.4298364 18.0642356 37.4190279 20.4718893 37.4010138 20.4835706 37.3001344 30.5567784 37.2893259 30.5437991 36.8701961 30.5399054 27.2362162 30.5308199 27.1773699 30.4438588 20.0725799 30.4075169 18.2099144 30.4153044 16.3892819 30.439965 12.9029389 30.5256282 9.67119616 30.6411436 6.76611046 30.7670425 2.24335199 30.9812004 0.11047386 31.0824387 -1.30707311e-05 31.0876304 -1.30707311e-05 32.3219585 0.115277639 32.3284481 2.35503987 32.4296864 7.13840338 32.6425463 10.2356403 32.7684452 13.6943616 32.8852586 17.4220945 32.9696238 17.5157682 44.7457112 17.5337824 46.7484119 17.5433899 46.7484119 18.478926 47.7452194 26.7906656 47.6569604 47.8144069 47.4453984 56.4672149 47.3701187 56.8419097 47.3662249 56.8419097 46.1318968 56.4840281 46.128003 48.2371395 46.0514253 28.3422864 45.8385654 19.4012517 45.7529022 19.4132611 45.7373271 19.4240696 43.3309713 19.4408829 43.31929 19.5417622 33.2473801 19.5525708 33.2590614 19.9704996 33.2629552 29.6044795 33.2720407 29.6657277 33.3602997 36.7693168 33.3953437 38.6319823 33.3875562 40.4526147 33.3641935 43.9389578 33.2772324 47.1694995 33.161717 50.0769871 33.037116 54.5985447 32.8229581 56.7314228 32.7217199 56.8419097 32.7152302 56.8419097 31.4809021 56.7242171 31.4744125 54.4868568 31.3718763 49.7034933 31.1590163 46.6050554 31.0357133 43.1463341 30.917602 39.4186012 30.8319388 39.3249275 19.0558514 39.3117171 17.5359795 47.8144069 17.4490184 56.4672149 17.3737386 56.8419097 17.3711428 56.8419097 16.1355167 56.4840281 16.131623 48.2371395 16.0537474 28.3422864 15.8447812 19.4012517 15.7552243 19.4132611 15.742245 19.4240696 13.3345913 19.4408829 13.3229099 19.5417622 3.25100007 19.5525708 3.26268141 19.9704996 3.26657518 29.6044795 3.27436274 29.6657277 3.36391967 36.7693168 3.40026162 38.6319823 3.38987821 40.4526147 3.36781345 43.9389578 3.28085238 47.1694995 3.16403899 50.0769871 3.04073597 54.5985447 2.82657809 56.7314228 2.72533982 56.8419097 2.71885019 56.8419097 1.48322413 56.7242171 1.47803243 54.4868568 1.37549623 49.7034933 1.16263628 46.6050554 1.03933326 43.1463341 0.922519871 39.4065917 0.835558794 37.4586591 0.81089819 35.4722963 0.804408557"></polygon>
                </g>
                <g id="Group-82" transform="translate(146.000000, 335.000000)" fill="#FFFFFF">
                    <polygon id="Fill-80" points="23.533251 0.846804947 15.5676529 0.921661913 15.2712068 1.24971156 15.2722186 1.25301407 14.6712323 1.91792007 14.7562202 12.6466847 14.7673496 13.9357657 7.60509013 14.0084209 0.315348712 14.0733704 -0.000320867615 14.0766729 -0.000320867615 15.1235696 0.30017229 15.1268721 7.24996185 15.1907207 24.0097907 15.3690564 31.5423548 15.4450142 31.533249 15.4560226 31.5241431 17.4980766 31.5089667 17.5079841 31.4239787 26.0515858 31.4148729 26.0405774 31.0617681 26.0372749 22.9454176 26.029569 22.8958413 25.9558129 16.9102604 25.9249895 15.3410183 25.9315945 13.807188 25.9525104 10.8700444 26.0251657 8.14739428 26.1231402 5.69994327 26.2299215 1.88964956 26.4115597 0.0927611879 26.4974251 -0.000320867615 26.5018284 -0.000320867615 27.5487251 0.0968082338 27.5542293 1.98374338 27.6400947 6.01358933 27.820632 8.62292217 27.9274133 11.5367952 28.0264887 14.6773028 28.0980432 14.7562202 38.0859439 14.7713966 39.7845366 14.7794907 39.7845366 15.5676529 40.62998 22.5700541 40.555123 40.2819504 40.3756864 47.5716918 40.3118379 47.8873614 40.3085353 47.8873614 39.2616387 47.5858565 39.2583361 40.6380905 39.1933867 23.8772499 39.0128493 16.3446857 38.940194 16.3548033 38.926984 16.3639092 36.8860308 16.3780739 36.8761233 16.4630618 28.3336224 16.4721677 28.34353 16.8242607 28.3468325 24.9406112 28.3545383 24.992211 28.4293953 30.9767802 28.4591179 32.5460222 28.4525129 34.0798526 28.4326978 37.0169961 28.3589417 39.7386345 28.2609671 42.188109 28.1552867 45.997391 27.9736485 47.7942794 27.8877831 47.8873614 27.882279 47.8873614 26.8353823 47.7882088 26.8298781 45.9032972 26.7429119 41.8734512 26.5623745 39.2631066 26.4577949 36.3492336 26.3576187 33.208726 26.2849634 33.1298086 16.2970626 33.1186792 15.0079816 40.2819504 14.9342255 47.5716918 14.8703769 47.8873614 14.8681752 47.8873614 13.8201777 47.5858565 13.8168752 40.6380905 13.7508249 23.8772499 13.57359 16.3446857 13.4976322 16.3548033 13.4866239 16.3639092 11.4445699 16.3780739 11.4346623 16.4630618 2.89216146 16.4721677 2.902069 16.8242607 2.90537152 24.9406112 2.91197654 24.992211 2.98793435 30.9767802 3.0187578 32.5460222 3.0099511 34.0798526 2.99123686 37.0169961 2.91748073 39.7386345 2.81840534 42.188109 2.71382575 45.997391 2.53218752 47.7942794 2.44632218 47.8873614 2.44081799 47.8873614 1.39282047 47.7882088 1.38841711 45.9032972 1.30145093 41.8734512 1.12091354 39.2631066 1.01633396 36.3492336 0.917258562 33.1986083 0.843502434 31.5575312 0.822586517 29.8840778 0.817082328"></polygon>
                </g>
            </g>
        </g>
    </g>
</svg>