<?xml version="1.0" encoding="UTF-8"?>
<svg width="1350px" height="665px" viewBox="0 0 1350 665" version="1.1" xmlns="http://www.w3.org/2000/svg" xmlns:xlink="http://www.w3.org/1999/xlink" style="background: #FFFFFF;">
    <!-- Generator: Sketch 47.1 (45422) - http://www.bohemiancoding.com/sketch -->
    <title>composition-human-2</title>
    <desc>Created with Sketch.</desc>
    <defs>
        <polygon id="path-1" points="4.11702853e-15 111.507573 4.11702853e-15 0.726333716 52.9339788 0.726333716 52.9339788 111.507573 0 111.507573"></polygon>
        <polygon id="path-3" points="58.2173564 21.0150376 0.133674746 21.0150376 0.133674746 0.559420301 58.2173564 0.559420301"></polygon>
        <polygon id="path-5" points="0.524924959 0.215193985 48.8337045 0.215193985 48.8337045 44.6153404 0.524924959 44.6153404 0.524924959 0.215193985"></polygon>
        <polygon id="path-7" points="58.8123241 21.2030075 0.101247702 21.2030075 0.101247702 0.56442406 58.8123241 0.56442406 58.8123241 21.2030075"></polygon>
        <polygon id="path-9" points="0.284992987 0.217118797 49.1156141 0.217118797 49.1156141 45.0144042 0.284992987 45.0144042 0.284992987 0.217118797"></polygon>
        <polygon id="path-11" points="50.3421168 0.343912782 50.3421168 36.2863053 0.717385311 36.2863053 0.717385311 0.343912782 50.3421168 0.343912782"></polygon>
        <polygon id="path-13" points="48.3111367 0.56934234 48.3111367 28.3576814 0.736200446 28.3576814 0.736200446 0.56934234 48.3111367 0.56934234"></polygon>
    </defs>
    <g id="Elelments--illustrations" stroke="none" stroke-width="1" fill="none" fill-rule="evenodd">
        <g id="composition-human-2">
            <path d="" id="Path-452" stroke="#DCDDE0" stroke-linecap="square"></path>
            <g id="illus7" transform="translate(56.000000, 62.000000)">
                <g id="Group">
                    <g id="Page-1">
                        <path d="M183.159176,79.6701931 C180.578455,75.1855841 169.547859,67.0460397 161.530474,66.009578 C158.309801,69.0332217 154.746984,90.4996623 156.681061,94.4555329 C168.380888,118.388298 190.93982,157.070258 191.810657,157.9117 L219.000666,144.250244 C213.644311,137.402704 192.797772,91.3688442 183.159176,79.6701931" id="Fill-1" fill="#A27079"></path>
                        <path d="M298.853114,162.113951 C281.285807,167.998161 229.489855,182.438014 214.057393,177.782763 C209.890595,176.526064 198.856653,173.430128 191.811326,157.910943 C196.093566,151.022214 213.868336,144.737037 219.000499,144.250328 C223.356355,149.059409 296.027288,147.721172 296.027288,147.721172 L298.853114,162.113951 Z" id="Fill-3" fill="#A27079"></path>
                        <g id="Group-7" transform="translate(0.000000, 132.599844)">
                            <mask id="mask-2" fill="white">
                                <use xlink:href="#path-1"></use>
                            </mask>
                            <g id="Clip-6"></g>
                            <path d="M33.61245,27.7955815 C31.5612577,22.7881183 17.4881712,-4.96097789 12.7567096,1.77392135 C2.71824808,16.0641469 -0.0908480769,28.2402597 0.00200769231,32.7862326 C0.333276923,48.8896356 25.3156615,94.461165 39.3067673,111.167279 C40.6059115,112.71903 49.3627962,108.562255 52.9339788,106.773455 C52.0740173,102.646102 29.9768538,34.2984747 33.61245,27.7955815" id="Fill-5" fill="#A27079" mask="url(#mask-2)"></path>
                        </g>
                        <path d="M9.03260769,140.372886 C17.1612519,128.680119 48.7280308,74.6916466 71.7328385,68.984803 C79.3127135,67.1043774 82.5375692,67.0262015 87.9934731,67.2514827 C90.4629346,70.9534917 86.980425,96.0353594 84.0466846,99.7936887 C66.2986846,122.522713 34.9920692,158.250798 33.6126173,160.395173 L9.03260769,140.372886 Z" id="Fill-8" fill="#A27079"></path>
                        <path d="M69.0247962,356.61964 C70.0278058,351.747514 109.8027,359.307043 109.003806,369.038687 C103.34044,438.031896 89.5567962,539.728706 89.5191519,540.057381 C88.6909788,547.318497 70.0955654,544.077978 69.0247962,539.640443 C68.0560846,535.626571 55.1943058,423.801353 69.0247962,356.61964" id="Fill-10" fill="#A27079"></path>
                        <path d="M131.384138,366.594386 C132.531032,360.129319 174.240839,367.851085 173.103984,377.549104 C165.039753,446.30022 148.981561,541.826175 148.933041,542.152328 C147.851397,549.37982 131.162455,545.251626 129.701859,540.928413 C128.568349,537.573572 119.235089,435.11938 131.384138,366.594386" id="Fill-12" fill="#A27079"></path>
                        <path d="M180.986602,205.694768 L67.0467173,205.694768 C67.0467173,205.694768 64.6224288,210.86867 64.6224288,227.6807 C64.6224288,236.779371 67.0467173,263.989641 67.0467173,263.989641 C105.025563,270.98933 143.006083,271.360876 180.986602,263.989641 C180.986602,263.989641 183.41089,236.779371 183.41089,227.6807 C183.41089,210.86867 180.986602,205.694768 180.986602,205.694768" id="Fill-14" fill="#F3D2BF"></path>
                        <path d="M122.111109,226.757383 L62.2467433,222.517389 C60.7861471,222.718293 68.0657048,322.119421 67.8958875,375.708607 C75.781099,385.155287 93.3082529,389.343164 106.532253,381.457481 C111.675291,360.63326 124.554637,231.865719 122.111109,226.757383" id="Fill-16" fill="#A27079"></path>
                        <path d="M185.631231,226.137608 L175.3485,226.156101 L123.574298,226.137608 C122.129596,226.430137 129.375692,325.259656 132.526096,378.755536 C140.98099,387.690289 159.967067,390.697121 172.677433,381.999417 C176.519654,360.893594 188.385952,231.082026 185.631231,226.137608" id="Fill-18" fill="#A27079"></path>
                        <path d="M129.083991,536.647986 C132.621713,537.057359 148.669866,538.444351 149.112395,538.703256 C159.150857,544.587467 172.535472,547.949873 177.50953,550.044652 C193.197972,556.649258 184.798289,557.104023 184.798289,557.104023 C166.705636,556.824944 148.367876,555.536302 129.612684,552.537876 C128.825501,549.309966 128.894934,542.898698 129.083991,536.647986" id="Fill-20" fill="#A27079"></path>
                        <g id="Group-24" transform="translate(68.596154, 537.769768)">
                            <mask id="mask-4" fill="white">
                                <use xlink:href="#path-3"></use>
                            </mask>
                            <g id="Clip-23"></g>
                            <path d="M0.257068269,0.559420301 C3.79478942,0.968793233 19.8429433,2.35578571 20.2854721,2.61469098 C30.3239337,8.4989015 43.708549,11.8613075 48.6826067,13.9560865 C64.371049,20.5606925 55.9713663,21.0154579 55.9713663,21.0154579 C37.8787125,20.7363782 19.5409529,19.4477361 0.785760577,16.4493105 C-0.00142211538,13.2214008 0.0680105769,6.81013308 0.257068269,0.559420301" id="Fill-22" fill="#A27079" mask="url(#mask-4)"></path>
                        </g>
                        <polygon id="Fill-25" fill="#A27079" points="130.708884 46.1110274 107.661413 38.659095 99.3930663 68.9173868 130.452066 73.1187131"></polygon>
                        <path d="M182.574268,100.750125 C172.417855,101.481448 184.247345,145.302005 184.247345,145.302005 L188.876749,153.209543 C188.876749,153.209543 186.756961,109.15614 182.574268,100.750125" id="Fill-27" fill="#7F3D4A"></path>
                        <path d="M184.395245,130.589377 C183.950207,111.386676 181.540976,74.8390041 171.819563,69.9273695 C144.803553,56.2810447 95.7288606,60.6563755 69.430601,69.9273695 C61.2492548,72.8123138 58.5271587,113.581487 59.7050048,134.146803 C60.2872356,144.323124 62.4304471,213.712257 62.0389471,232.941857 C61.0744183,280.295461 186.766832,279.056415 185.631649,231.700288 C184.845303,198.949613 184.998389,156.603472 184.395245,130.589377" id="Fill-29" fill="#A27079"></path>
                        <path d="M130.708884,52.3568647 C127.929066,52.8360075 125.155105,52.4577368 122.256499,52.6594812 C120.746547,52.765397 130.708884,56.0681203 130.708884,56.0681203 L130.708884,52.3568647 Z" id="Fill-31" fill="#7F3D4A"></path>
                        <path d="M139.630232,12.6872826 C126.412924,13.8111668 108.516857,15.1401577 102.518039,21.8641292 C102.518039,21.8641292 107.453616,50.6891953 108.42902,50.9338104 C119.445395,53.7002299 130.402376,54.181054 141.20627,48.5649953 C144.212789,36.4712615 143.744328,24.5103427 139.630232,12.6872826" id="Fill-33" fill="#A27079"></path>
                        <g id="Group-37" transform="translate(92.855769, 0.625408)">
                            <mask id="mask-6" fill="white">
                                <use xlink:href="#path-5"></use>
                            </mask>
                            <g id="Clip-36"></g>
                            <path d="M40.0682683,16.8805391 C41.3322779,16.705694 50.992624,15.9079632 48.3909894,8.53084436 C46.4979029,3.15856015 14.2393067,-8.58296165 2.69005673,11.5410383 C-2.08072212,19.8545872 1.88196058,26.9921346 6.39759519,37.6215406 C8.26558558,42.0187271 12.5319317,46.2318218 13.5290856,43.9966624 C15.2833067,36.5960068 12.7293548,27.579715 17.1646817,21.4769481 C20.8872779,16.3551632 34.0418452,17.3882624 40.0682683,16.8805391" id="Fill-35" fill="#1A3149" mask="url(#mask-6)"></path>
                        </g>
                        <path d="M105.614403,26.2390397 C108.438557,25.7809119 111.117989,27.8076021 111.593143,30.763157 C112.068297,33.7178713 110.160989,36.4893344 107.335999,36.9483029 C104.511009,37.4064307 101.832413,35.3797405 101.357259,32.4250262 C100.882105,29.4694713 102.790249,26.6980081 105.614403,26.2390397" id="Fill-38" fill="#A27079"></path>
                        <path d="M336.979359,145.507616 C340.148166,145.185666 342.400964,146.020383 341.969311,147.504045 C341.658118,148.57413 323.716878,149.60807 324.034763,149.837554 C324.478964,150.158664 341.82208,148.594305 344.209561,149.17516 C345.819897,149.56604 345.86758,150.517601 345.383224,150.833667 C342.840984,152.493014 324.666349,152.659454 324.718214,153.121784 C324.754186,153.435329 344.308272,151.881057 346.635522,152.337503 C347.472897,152.502261 348.500166,153.510142 347.426051,154.475993 C345.902714,155.847855 326.991089,156.094151 326.845532,156.785126 C326.787811,157.057481 340.522936,157.169281 342.684551,157.809819 C345.60658,159.83819 340.959609,160.07524 332.009484,160.637602 C329.322522,160.807404 313.821464,160.582963 305.135686,160.440902 C301.362897,161.273097 298.853282,162.113699 298.853282,162.113699 C298.853282,162.113699 293.767964,151.31281 295.507128,147.823473 C300.135695,146.959335 306.546926,144.640115 309.130993,144.820845 C318.074426,145.442049 330.85757,146.130502 336.979359,145.507616" id="Fill-40" fill="#A27079"></path>
                        <path d="M321.801205,139.086093 C323.818936,138.309377 325.373224,141.371688 320.361522,144.571858 C319.863782,144.891287 317.747339,145.876472 315.466099,146.908731 C312.333263,148.326825 308.889234,149.835705 308.889234,149.835705 L306.660695,145.148511 C306.660695,145.148511 320.486166,139.591294 321.801205,139.086093" id="Fill-42" fill="#A27079"></path>
                        <path d="M61.9836519,275.860364 C62.9515269,278.909225 62.6035269,281.296534 61.0701519,281.178849 C59.9634115,281.093949 55.2528635,263.667439 55.0947577,264.027216 C54.8739115,264.529896 59.9776327,281.258706 59.9056904,283.725872 C59.8580077,285.390263 58.9411615,285.634037 58.5329308,285.222983 C56.3922288,283.066 52.4772288,265.230958 52.0380462,265.377222 C51.7402385,265.477254 57.2915077,284.381541 57.3266423,286.764646 C57.3400269,287.62206 56.5704115,288.840091 55.4084596,287.983518 C53.7579692,286.76969 49.6129212,268.226021 48.9102288,268.22518 C48.6333346,268.22434 51.36045,281.75214 51.1831038,284.009995 C49.8111808,287.301791 48.6207865,282.781876 46.2257769,274.097622 C45.5055173,271.491758 42.5232577,256.204579 40.8677481,247.634646 C39.2774885,244.097395 37.9407,241.803394 37.9407,241.803394 C37.9407,241.803394 47.4814212,232.576111 51.2374788,233.565499 C53.0360365,237.937467 56.5444788,245.759264 56.9025173,248.33823 C58.1439404,257.259534 60.1131519,269.970269 61.9836519,275.860364" id="Fill-44" fill="#A27079"></path>
                        <path d="M65.102351,259.610612 C66.2751779,261.433877 63.614149,263.595063 59.4640817,259.32901 C59.0499952,258.904507 57.6538125,257.027443 56.1773221,254.998231 C54.1495529,252.209956 51.9695337,249.135877 51.9695337,249.135877 L56.0735913,245.976896 C56.0735913,245.976896 64.3394279,258.422001 65.102351,259.610612" id="Fill-46" fill="#A27079"></path>
                    </g>
                </g>
            </g>
            <g id="illu6" transform="translate(313.000000, 64.000000)">
                <g id="Group">
                    <g id="Page-1">
                        <path d="M182.017582,70.7736036 C186.028141,67.4362502 199.323953,63.6086833 207.287572,65.4440156 C209.287356,69.4378141 205.182092,91.0055134 201.968909,94.069772 C182.531691,112.609682 147.658512,141.29311 146.538972,141.783324 L125.520529,119.300503 C132.986951,114.701146 168.800408,78.4592698 182.017582,70.7736036" id="Fill-1" fill="#CC9694"></path>
                        <path d="M43.5808194,108.150096 C58.1855802,119.891473 102.262836,151.756201 118.519004,152.772249 C122.906689,153.04704 134.447934,153.995238 146.538802,141.783154 C144.879785,133.75824 130.217526,121.563966 125.52036,119.300333 C119.714646,122.321338 51.2780831,95.5215844 51.2780831,95.5215844 L43.5808194,108.150096 Z" id="Fill-3" fill="#CC9694"></path>
                        <path d="M286.819255,359.80944 C285.805411,354.893735 245.600886,362.520881 246.40841,372.339569 C252.132948,441.949891 266.065477,544.556333 266.103528,544.887948 C266.940647,552.214011 285.73692,548.944508 286.819255,544.467281 C287.79843,540.417506 300.799137,427.592063 286.819255,359.80944" id="Fill-5" fill="#CC9694"></path>
                        <path d="M223.78642,369.873405 C222.627137,363.350512 180.466798,371.141345 181.615934,380.926109 C189.767271,450.292172 205.998917,546.672563 206.04796,547.001634 C207.141288,554.293772 224.010497,550.128653 225.48687,545.766771 C226.632623,542.381922 236.066697,439.011324 223.78642,369.873405" id="Fill-7" fill="#CC9694"></path>
                        <path d="M173.648171,207.534614 L288.818785,207.534614 C288.818785,207.534614 291.26926,212.754794 291.26926,229.7172 C291.26926,238.897254 288.818785,266.350908 288.818785,266.350908 C250.429708,273.413206 212.038939,273.788075 173.648171,266.350908 C173.648171,266.350908 171.197696,238.897254 171.197696,229.7172 C171.197696,212.754794 173.648171,207.534614 173.648171,207.534614" id="Fill-9" fill="#F3D2BF"></path>
                        <path d="M233.159612,228.785625 L293.670606,224.507706 C295.146979,224.710407 287.788791,325.000632 287.960442,379.069149 C279.990058,388.600325 262.273584,392.825661 248.906744,384.869444 C243.708152,363.85896 230.689689,233.939652 233.159612,228.785625" id="Fill-11" fill="#CC9694"></path>
                        <path d="M168.953288,228.160306 L179.347089,228.178964 L231.680533,228.160306 C233.14084,228.455451 225.816475,328.168955 222.632042,382.143331 C214.085821,391.158002 194.894665,394.191728 182.047008,385.416227 C178.163285,364.121623 166.168812,233.148949 168.953288,228.160306" id="Fill-13" fill="#CC9694"></path>
                        <path d="M226.111327,541.448057 C222.535392,541.861092 206.313893,543.26049 205.866585,543.521711 C195.719692,549.458553 182.190502,552.851035 177.162716,554.96455 C161.304814,561.628232 169.795227,562.087065 169.795227,562.087065 C188.08331,561.805489 206.619146,560.50532 225.576924,557.480075 C226.372609,554.223293 226.302426,547.75468 226.111327,541.448057" id="Fill-15" fill="#CC9694"></path>
                        <g id="Group-19" transform="translate(228.305085, 542.579874)">
                            <mask id="mask-8" fill="white">
                                <use xlink:href="#path-7"></use>
                            </mask>
                            <g id="Clip-18"></g>
                            <path d="M58.6875977,0.56442406 C55.1116637,0.977458647 38.8901646,2.37685714 38.4428557,2.6380782 C28.2959631,8.5749203 14.7667729,11.9674015 9.73898757,14.0809173 C-6.1189145,20.7445985 2.37149793,21.2034316 2.37149793,21.2034316 C20.6595808,20.9218556 39.1954169,19.6216872 58.1531947,16.5964421 C58.9488802,13.3396602 58.8786976,6.87104662 58.6875977,0.56442406" id="Fill-17" fill="#CC9694" mask="url(#mask-8)"></path>
                        </g>
                        <polygon id="Fill-20" fill="#CC9694" points="224.468883 46.5234695 247.765303 39.004883 256.12296 69.5338214 224.728474 73.7727266"></polygon>
                        <path d="M224.468883,52.8251729 C227.278727,53.3086015 230.082651,52.9269474 233.012566,53.1304962 C234.537983,53.2373594 224.468883,56.5696241 224.468883,56.5696241 L224.468883,52.8251729 Z" id="Fill-22" fill="#F2BDA5"></path>
                        <path d="M215.451255,12.8007645 C228.81133,13.9347014 246.900703,15.2755795 252.964317,22.0596938 C252.964317,22.0596938 247.975428,51.1425871 246.989488,51.3893901 C235.854119,54.180554 224.77794,54.6656788 213.858193,48.9993871 C210.818353,36.7974803 211.29272,24.7295765 215.451255,12.8007645" id="Fill-24" fill="#CC9694"></path>
                        <g id="Group-28" transform="translate(213.084746, 0.631002)">
                            <mask id="mask-10" fill="white">
                                <use xlink:href="#path-9"></use>
                            </mask>
                            <g id="Clip-27"></g>
                            <path d="M9.14514068,17.0315278 C7.8666322,16.8551188 -1.89721525,16.0502526 0.732521092,8.60714887 C2.64605593,3.18681203 35.2530955,-8.65973233 46.9270955,11.6442677 C51.7494062,20.0321774 47.7439203,27.2335669 43.1795098,37.9580481 C41.2913422,42.3945654 36.9789128,46.6453444 35.9701426,44.3901925 C34.1978186,36.9233414 36.7793573,27.826403 32.2961218,21.6690496 C28.5333158,16.5014526 15.2366586,17.5437925 9.14514068,17.0315278" id="Fill-26" fill="#804E4F" mask="url(#mask-10)"></path>
                        </g>
                        <path d="M249.834508,26.4737359 C246.979849,26.0115104 244.271474,28.0563284 243.791188,31.0383194 C243.310902,34.0194623 245.238811,36.8157149 248.094316,37.2787886 C250.948975,37.7410141 253.65735,35.6961961 254.137636,32.7150532 C254.617922,29.7330623 252.689167,26.9368096 249.834508,26.4737359" id="Fill-29" fill="#CC9694"></path>
                        <path d="M13.2202173,79.0377726 C10.3275073,77.6197155 7.90070885,77.6180192 7.79247533,79.17432 C7.71468249,80.295535 24.3657333,87.5783441 23.9835337,87.683511 C23.4516674,87.8310839 7.5523322,80.2573696 5.08579171,79.9681606 C3.42339247,79.7722448 3.04626629,80.6559862 3.39464294,81.1258448 C5.22700264,83.5896343 22.401464,90.1320343 22.190916,90.5518538 C22.0480139,90.8359741 4.04996309,82.494711 1.68320038,82.1096644 C0.831706968,81.9705726 -0.493308098,82.5634087 0.188224859,83.8550959 C1.15387081,85.6878839 18.9997183,92.5661395 18.8974038,93.2717756 C18.8576618,93.549111 5.79522863,88.8293215 3.5214791,88.6758117 C0.0436316384,89.5688824 4.36789906,91.4262659 12.6579104,95.1028674 C15.1464358,96.2079681 29.9220026,101.441718 38.2077861,104.359252 C41.4945337,106.472768 43.5805657,108.15035 43.5805657,108.15035 C43.5805657,108.15035 52.1682192,99.7140974 51.7352851,95.8017185 C47.6477785,93.3565877 42.3773134,88.9090448 39.8642663,88.1720283 C31.1675337,85.618338 18.8069273,81.7780493 13.2202173,79.0377726" id="Fill-31" fill="#CC9694"></path>
                        <path d="M29.8501288,78.2932078 C28.2080234,76.8488589 25.6662267,79.2015447 29.3021966,83.99088 C29.6632569,84.4683717 31.3265017,86.1434093 33.1292663,87.9227657 C35.6059537,90.3653522 38.3456147,93.0030063 38.3456147,93.0030063 L42.0923548,89.3501522 C42.0923548,89.3501522 30.9214716,79.2329251 29.8501288,78.2932078" id="Fill-33" fill="#CC9694"></path>
                        <path d="M335.407228,175.959943 C331.790706,171.224039 324.290461,158.154505 326.494028,149.347624 C344.494616,143.723738 355.325578,149.684328 358.828793,153.489844 C370.525623,166.193838 403.630706,224.184911 414.394023,241.169368 L399.180448,246.039275 C399.180448,246.039275 342.073736,183.286854 335.407228,175.959943" id="Fill-35" fill="#CC9694"></path>
                        <g id="Group-39" transform="translate(398.265537, 238.952806)">
                            <mask id="mask-12" fill="white">
                                <use xlink:href="#path-11"></use>
                            </mask>
                            <g id="Clip-38"></g>
                            <path d="M36.4801085,34.2738135 C38.9432667,36.3534045 41.2973458,36.9453925 41.7784776,35.4620301 C42.1251631,34.3933985 27.733487,23.2762376 28.1292158,23.2669083 C28.6813759,23.2533383 42.2739842,34.4688812 44.596777,35.3509263 C46.1619352,35.9454586 46.7419992,35.179606 46.5170765,34.6393534 C45.335809,31.8032391 30.256681,21.277218 30.5619333,20.9210075 C30.7699446,20.6809895 46.2126697,33.1525985 48.415391,34.1016451 C49.2076942,34.4434376 50.6375605,34.1898496 50.2883382,32.7717925 C49.7945228,30.7575068 34.1454776,19.7429684 34.4152158,19.0839789 C34.5217582,18.823606 46.0520105,26.5822105 48.2200633,27.283606 C51.8095266,27.262403 48.0644776,24.4093263 40.9117638,18.8253023 C38.7648505,17.1485684 25.6964983,8.47569023 18.3636772,3.62868271 C15.4083947,1.67630977 13.3857808,0.343912782 13.3857808,0.343912782 L0.717385311,6.92956692 C0.717385311,6.92956692 10.5818561,17.6023128 12.8412309,18.9296211 C20.6611028,23.5230406 31.722907,30.2562677 36.4801085,34.2738135" id="Fill-37" fill="#CC9694" mask="url(#mask-12)"></path>
                        </g>
                        <path d="M418.432401,269.902921 C419.676241,271.702632 422.711008,270.039468 420.341708,264.508876 C420.107484,263.957598 418.899158,261.927198 417.580062,259.763643 C415.768842,256.790981 413.748765,253.564731 413.748765,253.564731 L409.230861,256.197297 C409.230861,256.197297 417.621495,268.729971 418.432401,269.902921" id="Fill-40" fill="#CC9694"></path>
                        <path d="M357.46522,152.121826 C348.495366,139.242271 307.335342,75.3593053 287.309604,70.5852361 C278.92827,68.5870647 275.386159,68.427618 269.364824,68.6752692 C266.639538,72.7530316 270.483519,100.381398 273.719532,104.520226 C293.306417,129.557585 331.393624,170.279233 332.915658,172.641248 L357.46522,152.121826 Z" id="Fill-42" fill="#CC9694"></path>
                        <path d="M172.043271,101.651289 C176.089344,101.942194 176.682092,108.985833 175.917693,117.414453 C173.194943,119.757809 167.847531,124.071349 165.278676,126.246778 C166.301821,116.389075 170.336056,105.075151 172.043271,101.651289" id="Fill-44" fill="#BC7575"></path>
                        <path d="M170.202709,131.757439 C170.652555,112.382979 173.086963,75.5084048 182.914229,70.5528379 C210.222054,56.7844529 259.82683,61.1989191 286.409152,70.5528379 C294.678869,73.4635868 297.430368,114.597421 296.239799,135.346685 C295.650434,145.614029 293.484073,218.168176 293.880647,237.569776 C294.855594,285.346937 167.805506,284.096808 168.95295,236.317103 C169.74779,203.273488 169.59305,158.004218 170.202709,131.757439" id="Fill-46" fill="#CC9694"></path>
                        <path d="M223.468484,34.400862 C212.095508,33.0854274 207.143825,38.1928078 210.076277,49.7509913 C212.160618,57.9633402 216.076473,65.103665 223.468484,65.103665 C230.857958,65.103665 239.022825,58.8962725 241.602672,50.8298003 C242.831292,46.9878153 249.347288,28.9347266 247.978303,26.5218244 C247.710256,26.0502695 248.035802,21.5425101 246.704868,22.6849281 C242.871034,25.9722424 234.713778,38.8102394 232.676789,38.0376018 C230.635572,37.2624198 226.536228,34.7545281 223.468484,34.400862" id="Fill-48" fill="#804E4F"></path>
                    </g>
                </g>
            </g>
            <g id="illu5" transform="translate(1050.000000, 14.000000)">
                <g id="Page-1">
                    <path d="M89.4545746,141.544108 C93.9492044,143.225968 103.091035,152.123499 105.279968,159.345421 C103.017863,162.778665 83.9682306,169.381899 80.0566417,168.212487 C56.3909449,161.142894 17.5747496,146.35768 16.6717758,145.685874 L24.9324289,118.535512 C32.0153239,122.407774 77.2784405,134.479202 89.4545746,141.544108" id="Fill-1" fill="#CC9694"></path>
                    <path d="M90.9096079,157.944157 C92.5310685,161.319595 87.1941822,165.023124 80.1338615,168.272012 C78.3707274,167.643951 72.5263076,165.362152 68.229398,163.793562 C79.4496254,158.805788 97.9948382,157.537948 90.9096079,157.944157" id="Fill-3" fill="#BC7575"></path>
                    <path d="M22.457191,45.5513008 C15.4373484,61.3434433 -2.57697813,108.169146 0.31098105,122.934049 C1.09018513,126.920362 2.93972449,137.455227 16.6018732,145.41223 C23.3399257,142.057883 30.7482026,126.109507 31.6636312,121.383425 C27.6267157,116.898726 35.2716341,49.6313542 35.2716341,49.6313542 L22.457191,45.5513008 Z" id="Fill-5" fill="#CC9694"></path>
                    <g id="Group-9" transform="translate(20.239067, 0.622593)" fill="#CC9694">
                        <path d="M14.2200464,9.73682137 C14.2893262,6.76290534 13.3575507,4.72561272 12.0186586,5.23337354 C11.0526324,5.60052366 11.3873554,22.3785033 11.1522708,22.0988443 C10.8245536,21.708259 11.0222738,5.44897659 10.3146848,3.2679486 C9.83828834,1.79622341 8.95633207,1.82043969 8.69867318,2.29461018 C7.34966152,4.78029466 8.50173149,21.7129461 8.0712621,21.6981038 C7.77935248,21.6871674 7.80971108,3.3710631 7.22044286,1.23612417 C7.00871108,0.468233588 6.00376356,-0.416051399 5.18953032,0.653370992 C4.0327898,2.1696229 5.16384227,19.7951725 4.5364312,19.9803099 C4.28889184,20.0537399 3.19909592,7.27379084 2.45180729,5.30680356 C0.369518659,2.73206565 0.48394723,7.07615471 0.608495335,15.4487399 C0.644302915,17.9625466 1.96529125,32.3782667 2.72036414,40.4555695 C2.22217172,44.0270809 1.62667609,46.4244931 1.62667609,46.4244931 C1.62667609,46.4244931 11.80537,51.6481802 14.9011688,49.7788392 C15.3674458,45.4074092 17.2068656,38.0073812 16.8550172,35.6138748 C15.6383379,27.3326865 14.0846003,15.4807679 14.2200464,9.73682137" id="Fill-7"></path>
                    </g>
                    <path d="M41.4784111,24.0298977 C42.0505539,22.0957196 39.1112187,20.8685008 36.5167259,25.763315 C36.2575102,26.2499842 35.5008805,28.2911827 34.7107784,30.4886153 C33.6264315,33.507058 32.4813673,36.8223455 32.4813673,36.8223455 L36.9689913,38.5604499 C36.9689913,38.5604499 41.1063236,25.2899257 41.4784111,24.0298977" id="Fill-10" fill="#CC9694"></path>
                    <path d="M160.097248,141.004397 C155.384659,141.905087 144.883697,149.134038 141.516227,155.884132 C143.171939,159.650936 160.844536,169.371041 164.896242,168.878122 C189.410423,165.898738 230.149329,157.867524 231.15272,157.358201 L227.554058,129.200911 C219.92393,131.824081 173.283,136.092397 160.097248,141.004397" id="Fill-12" fill="#CC9694"></path>
                    <path d="M175.539189,153.999402 C173.394626,157.067059 178.063623,161.588474 184.507431,165.941155 C187.757358,165.353715 193.935722,164.030412 196.97781,163.45469 C184.955026,155.5594 184.690361,156.049194 175.539189,153.999402" id="Fill-14" fill="#BC7575"></path>
                    <path d="M258.99288,61.1236219 C260.39716,78.3578051 261.920539,128.529261 254.317656,141.498253 C252.264947,144.998678 247.038597,154.322729 231.520682,157.283365 C226.271758,151.876103 224.552994,134.364604 225.251242,129.601808 C230.540644,126.71382 245.421807,60.505716 245.421807,60.505716 L258.99288,61.1236219 Z" id="Fill-16" fill="#CC9694"></path>
                    <path d="M252.49505,22.8722031 C252.907615,19.9264092 254.15621,18.0680046 255.395464,18.7874626 C256.289097,19.3061598 253.247787,35.8076051 253.524907,35.5693481 C253.911006,35.2381318 256.343586,19.1616433 257.394461,17.1251318 C258.10205,15.7502718 258.968438,15.9174422 259.145919,16.4267654 C260.076137,19.0991496 256.202691,35.6201242 256.630047,35.6755873 C256.919621,35.7123023 259.849615,17.6336738 260.775942,15.6237221 C261.109108,14.8995771 262.243274,14.1910555 262.873799,15.3792158 C263.770545,17.0634193 259.806024,34.2710427 260.395292,34.5569511 C260.628041,34.6694397 263.76821,22.2355491 264.822977,20.4162031 C267.294478,18.2148646 266.479467,22.4816178 265.003572,30.7245288 C264.561426,33.1984957 260.928513,47.2087883 258.87814,55.0556458 C258.792513,58.6615288 258.992569,61.1237781 258.992569,61.1237781 C258.992569,61.1237781 248.152213,63.3485517 245.398922,60.999572 C245.645683,56.6101751 244.978572,50.2826941 245.713406,47.9782412 C248.251852,40.0040529 251.700277,28.5622489 252.49505,22.8722031" id="Fill-18" fill="#CC9694"></path>
                    <path d="M243.359602,35.2195399 C243.107392,33.2174 246.206305,32.4846621 247.974888,37.7372524 C248.152369,38.2598555 248.569605,40.3971379 248.993847,42.6937791 C249.576109,45.8489267 250.170048,49.3063873 250.170048,49.3063873 L245.461351,50.2914433 C245.461351,50.2914433 243.522293,36.5233135 243.359602,35.2195399" id="Fill-20" fill="#CC9694"></path>
                    <path d="M188.487366,197.57481 C188.073243,179.729752 185.832156,145.766022 176.785293,141.201642 C151.646036,128.520121 105.981252,132.586113 81.5091061,141.201642 C73.8961032,143.88262 79.1473627,181.769388 80.243386,200.880724 C80.7851703,210.337574 77.5064414,249.116439 73.9210128,274.521665 C69.3197388,307.129284 70.0872665,311.967854 74.6994385,316.704872 C95.3082577,337.872248 176.537753,338.570615 189.906436,308.111996 C191.321613,304.888887 189.72117,288.790525 189.637879,285.287757 C188.906159,254.852574 189.04861,221.749693 188.487366,197.57481" id="Fill-22" fill="#CC9694"></path>
                    <path d="M139.593127,438.125324 C140.643223,432.114218 177.49078,438.772134 176.457809,447.787622 C169.136716,511.699866 154.447824,600.513482 154.403453,600.817358 C153.41641,607.536205 137.87592,603.745184 136.505112,599.730749 C135.441783,596.617004 128.470203,501.837589 139.593127,438.125324" id="Fill-24" fill="#CC9694"></path>
                    <path d="M190.685095,300.300604 L135.295439,297.043904 C133.94487,297.283723 130.979069,389.914919 139.36894,445.082741 C141.092375,456.408932 164.340057,456.984655 176.349608,449.177637 C180.374069,429.651499 192.241946,307.331138 190.685095,300.300604" id="Fill-26" fill="#CC9694"></path>
                    <path d="M136.077834,595.287061 C139.372132,595.638588 154.316348,596.796282 154.731248,597.033758 C164.119062,602.419929 176.601117,605.435247 181.245983,607.341303 C195.896732,613.350847 188.085231,613.841422 188.085231,613.841422 C171.247106,613.728934 154.173896,612.682165 136.69824,610.04884 C135.940053,607.055394 135.952508,601.096626 136.077834,595.287061" id="Fill-28" fill="#CC9694"></path>
                    <path d="M105.090733,440.397906 C104.782476,434.303213 67.4001411,436.381127 67.3238554,445.456766 C66.7898554,509.786936 70.5278554,599.737936 70.5348612,600.044155 C70.6944385,606.83487 86.5797708,604.981152 88.4308671,601.165916 C89.866284,598.206061 108.353893,504.99758 105.090733,440.397906" id="Fill-30" fill="#CC9694"></path>
                    <path d="M71.2057085,297.330828 L126.575904,300.907026 C127.886773,301.311673 119.524146,393.61009 104.463945,447.330403 C101.372038,458.359749 78.2278863,456.074044 67.2622041,446.849202 C65.650863,426.975444 68.8027085,304.117637 71.2057085,297.330828" id="Fill-32" fill="#CC9694"></path>
                    <path d="M89.2603574,595.287061 C85.9660601,595.638588 71.0218443,596.796282 70.6069434,597.033758 C61.21913,602.419929 48.7370746,605.435247 44.0922087,607.341303 C29.440681,613.350847 37.2529609,613.841422 37.2529609,613.841422 C54.0903079,613.728934 71.1635178,612.682165 88.6399522,610.04884 C89.3981388,607.055394 89.385684,601.096626 89.2603574,595.287061" id="Fill-34" fill="#CC9694"></path>
                    <path d="M124.122073,86.6085277 C123.26814,86.6054031 122.488936,86.1171715 122.111399,85.3477186 C121.734641,84.5782656 121.823382,83.6619527 122.341813,82.9799908 C126.382621,77.6945913 135.180387,69.5657313 148.66739,74.5191333 C162.723422,79.6826702 164.997204,101.883535 176.673589,111.257581 C205.162411,134.129472 159.606606,164.527159 133.874968,125.419421 C125.070973,112.03797 145.989606,86.3030901 124.122073,86.6085277" id="Fill-36" fill="#1A3149"></path>
                    <polygon id="Fill-38" fill="#CC9694" points="140.865853 115.944448 120.197095 109.019372 112.503914 137.138384 140.626876 141.042674"></polygon>
                    <path d="M140.865853,121.748623 C138.279144,122.19389 135.697885,121.842363 133.00064,122.029844 C131.59636,122.128272 140.865853,125.19749 140.865853,125.19749 L140.865853,121.748623 Z" id="Fill-40" fill="#BC7575"></path>
                    <path d="M150.724224,84.8837033 C138.425099,85.9281282 121.772239,87.1631588 116.190149,93.4117415 C116.190149,93.4117415 120.78286,120.198859 121.690504,120.426179 C131.941592,122.997011 142.137411,123.443841 152.190778,118.224841 C154.98844,106.986141 154.552522,95.8708662 150.724224,84.8837033" id="Fill-42" fill="#CC9694"></path>
                    <path d="M115.179285,100.602103 C117.808029,100.176365 120.300548,102.059767 120.742693,104.806363 C121.184839,107.552177 119.410029,110.127696 116.781285,110.554215 C114.152542,110.979953 111.660023,109.096551 111.217877,106.350737 C110.775731,103.604141 112.55132,101.028622 115.179285,100.602103" id="Fill-44" fill="#CC9694"></path>
                    <path d="M143.887001,87.7147433 C154.099167,85.4790333 150.993248,82.4332496 150.242846,81.5497458 C145.854861,76.3338705 138.055036,72.1913234 125.197001,74.5192115 C103.501499,78.448499 102.167278,99.0456211 92.3466595,104.170881 C44.3411493,129.22458 109.547531,171.899143 118.514995,125.906949 C122.441374,105.769155 121.405289,92.5095677 143.887001,87.7147433" id="Fill-46" fill="#1A3149"></path>
                </g>
            </g>
            <g id="illu-4" transform="translate(665.000000, 56.000000)">
                <g id="Page-1">
                    <path d="M88.970257,188.322326 C101.452843,177.755173 109.898683,167.058304 101.132577,161.493807 C84.3061945,150.81413 80.3580656,156.345807 77.3101008,159.409758 C65.6499445,171.131069 38.4429133,214.109211 27.4396125,235.44278 C26.5759836,237.115802 34.3463117,242.218479 37.4821164,244.207977 C40.3303039,241.53161 81.8878781,193.762578 88.970257,188.322326" id="Fill-1" fill="#F3D2BF"></path>
                    <path d="M77.3101008,159.409836 C85.885757,149.336541 121.603148,99.3138907 143.394425,96.1397596 C150.573972,95.0934372 153.563636,95.3161421 158.588386,96.0233279 C160.536409,99.6741257 155.044476,122.559596 151.99107,125.768109 C133.51905,145.171568 101.332355,175.360197 99.8623977,177.218415 L77.3101008,159.409836 Z" id="Fill-3" fill="#F3D2BF"></path>
                    <path d="M12.9959437,269.027697 C11.051807,271.270375 8.99651016,272.144003 8.3505375,270.863255 C7.88490859,269.938052 19.3911508,257.773675 19.0304633,257.820561 C18.5267445,257.886981 7.76053359,270.028697 5.77519766,271.160976 C4.43661172,271.925205 3.80229922,271.310227 3.93056094,270.785894 C4.60374062,268.036074 16.818143,256.311637 16.4901039,256.030326 C16.2677836,255.841222 3.9974125,269.389495 2.13023281,270.567096 C1.45860781,270.990626 0.124685937,270.963277 0.242064844,269.622358 C0.406084375,267.718817 13.0697914,255.466921 12.7308695,254.905861 C12.5979437,254.683938 3.21773672,263.384277 1.34667031,264.331358 C-1.91739609,264.822872 1.08315078,261.692501 6.79351797,255.593511 C8.50756094,253.76108 19.1571703,244.008167 25.1341664,238.554632 C27.1645883,235.578981 28.3337133,233.40585 28.3337133,233.40585 C28.3337133,233.40585 40.22785,236.576074 41.2562758,240.052615 C38.6661664,243.596358 34.1723422,250.170451 32.3067172,251.699692 C25.8508773,256.993036 16.7512914,264.693938 12.9959437,269.027697" id="Fill-5" fill="#F3D2BF"></path>
                    <path d="M27.3460203,263.683639 C26.4699539,265.498879 23.4787352,264.41583 24.8515242,259.044344 C24.986782,258.50907 25.7983289,256.489098 26.6914969,254.331595 C27.9181453,251.367666 29.2979305,248.144305 29.2979305,248.144305 L33.7738758,249.898595 C33.7738758,249.898595 27.9181453,262.500568 27.3460203,263.683639" id="Fill-7" fill="#F3D2BF"></path>
                    <path d="M128.918419,132.060109 C132.638009,132.328137 133.182927,138.817836 132.480208,146.583596 C129.977161,148.742661 125.061239,152.716967 122.699669,154.721311 C124.18595,140.375989 124.730868,140.478355 128.918419,132.060109" id="Fill-9" fill="#F2BDA5"></path>
                    <path d="M230.008475,98.1407437 C226.321534,95.065853 214.098581,91.5393011 206.777557,93.2302956 C204.939139,96.910006 208.713143,116.781536 211.66705,119.604809 C229.53585,136.686667 261.595061,163.114317 262.624264,163.565979 L281.945921,142.851296 C275.082753,138.613651 242.159136,105.221979 230.008475,98.1407437" id="Fill-11" fill="#F3D2BF"></path>
                    <path d="M357.274572,132.577879 C343.848291,143.395868 303.327693,172.754627 288.38326,173.690769 C284.349623,173.94395 273.739658,174.817578 262.62442,163.565901 C264.148791,156.172097 277.628709,144.93683 281.946076,142.851217 C287.284096,145.634638 350.198412,120.942523 350.198412,120.942523 L357.274572,132.577879 Z" id="Fill-13" fill="#F3D2BF"></path>
                    <g id="Group-17" transform="translate(349.027344, 104.220432)">
                        <mask id="mask-14" fill="white">
                            <use xlink:href="#path-13"></use>
                        </mask>
                        <g id="Clip-16"></g>
                        <path d="M36.1579891,1.53463224 C38.8165047,0.228096721 41.0482586,0.22653388 41.1477586,1.66044098 C41.2184969,2.69347923 25.9118211,9.40353934 26.2631805,9.50043552 C26.7521297,9.63640273 41.3685242,2.6583153 43.6360359,2.39185082 C45.1642938,2.21134262 45.5109891,3.02558306 45.1899461,3.45849016 C43.5062195,5.72851749 27.7175906,11.7563973 27.9111492,12.1432005 C28.0425203,12.4049765 44.588282,4.71970328 46.7640672,4.36493825 C47.5468523,4.23678525 48.76495,4.78299836 48.1384109,5.97310219 C47.2506844,7.66175246 30.8448445,13.9990749 30.9389031,14.6492169 C30.9754383,14.9047415 42.9838445,10.556135 45.0741219,10.4146978 C48.2713367,11.2375339 44.2960008,12.9488454 36.6749227,16.3363044 C34.3872,17.3544956 20.8038953,22.1766432 13.1867039,24.8647306 C10.1651688,26.8120311 8.24746172,28.3576814 8.24746172,28.3576814 C8.24746172,28.3576814 0.352758594,20.5848891 0.750758594,16.9801951 C4.50843828,14.727359 9.35362188,10.6295885 11.6638875,9.95053388 C19.658868,7.59767596 31.0220789,4.05940273 36.1579891,1.53463224" id="Fill-15" fill="#F3D2BF" mask="url(#mask-14)"></path>
                    </g>
                    <path d="M369.897313,105.068977 C371.406915,103.738217 373.74361,105.905878 370.400255,110.318561 C370.069106,110.758501 368.540071,112.301807 366.882774,113.941228 C364.605934,116.19172 362.087341,118.621938 362.087341,118.621938 L358.64293,115.256359 C368.953618,105.898064 368.012255,106.727151 369.897313,105.068977" id="Fill-18" fill="#F3D2BF"></path>
                    <path d="M236.06857,123.464481 C232.34898,123.732508 231.804062,130.222208 232.50678,137.987967 C235.009827,140.147033 239.924972,144.121339 242.28732,146.125683 C240.801038,131.780361 240.25612,131.882727 236.06857,123.464481" id="Fill-20" fill="#F2BDA5"></path>
                    <polygon id="Fill-22" fill="#F3D2BF" points="199.35307 72.6721311 181.225413 65.7448361 174.47807 96.998541 199.143187 97.7783989"></polygon>
                    <path d="M199.35307,78.4781656 C197.451687,78.9181055 192.266804,78.5492749 190.024945,78.759477 C191.669804,78.6055372 190.401179,79.2783404 199.35307,81.9281383 L199.35307,78.4781656 Z" id="Fill-24" fill="#F2BDA5"></path>
                    <path d="M209.197817,41.601435 C196.915786,42.6461945 180.286071,43.8816208 174.711739,50.1322055 C174.711739,50.1322055 179.298067,76.9279049 180.20445,77.1552984 C190.44129,79.7269541 200.622938,80.1739268 210.662333,74.9532546 C213.456106,63.7109541 213.020794,52.592118 209.197817,41.601435" id="Fill-26" fill="#F3D2BF"></path>
                    <path d="M238.357691,154.328648 C237.944145,136.477872 235.705395,102.50326 226.671883,97.937418 C201.567566,85.2518333 161.406879,89.3191284 136.969523,97.937418 C129.367102,100.619254 129.169656,138.518161 130.264156,157.63562 C130.805188,167.0955 127.059945,203.950429 123.882164,232.283964 C120.589336,261.641161 123.231527,269.539762 127.837289,274.278298 C148.417465,295.452456 229.302414,296.484713 239.774789,264.901249 C241.329477,260.212724 239.589781,245.573587 239.506605,242.069697 C238.775902,211.624762 238.918156,178.511276 238.357691,154.328648" id="Fill-28" fill="#F3D2BF"></path>
                    <path d="M127.78202,395.748358 C128.827547,389.734544 165.627,396.375058 164.600907,405.393435 C157.323414,469.329282 142.703133,558.179949 142.659602,558.483921 C141.677039,565.205703 126.156594,561.422063 124.78536,557.407123 C123.721954,554.29238 116.708758,459.486506 127.78202,395.748358" id="Fill-30" fill="#F3D2BF"></path>
                    <path d="M178.444932,254.743091 L123.414436,254.624315 C122.065745,254.864211 119.153815,347.526649 127.562343,402.708239 C129.288823,414.036496 152.504971,414.5999 164.493167,406.78413 C168.501929,387.249392 178.444932,264.12014 178.444932,254.743091" id="Fill-32" fill="#F3D2BF"></path>
                    <path d="M124.182296,552.45526 C127.475902,552.771736 142.41023,553.771173 142.826886,554.004036 C152.258398,559.292692 164.753421,562.176134 169.412043,564.03279 C184.104617,569.888757 176.309414,570.46232 176.309414,570.46232 C159.494691,570.529522 142.435105,569.662927 124.957308,567.214736 C124.168304,564.228145 124.117777,558.267468 124.182296,552.45526" id="Fill-34" fill="#F3D2BF"></path>
                    <path d="M189.531564,395.737653 C190.580201,389.72462 227.375768,396.384669 226.34501,405.403046 C219.034092,469.335768 204.365615,558.177839 204.321307,558.481811 C203.335635,565.202811 187.816744,561.410577 186.447842,557.394855 C185.38599,554.280112 178.423322,459.470331 189.531564,395.737653" id="Fill-36" fill="#F3D2BF"></path>
                    <path d="M240.552288,257.868774 L185.239616,254.611031 C183.890925,254.850927 180.929245,347.511802 189.308234,402.697299 C191.028495,414.027119 214.243866,414.603026 226.236726,406.793507 C230.255593,387.261113 242.106976,264.901561 240.552288,257.868774" id="Fill-38" fill="#F3D2BF"></path>
                    <path d="M186.020925,552.949743 C189.310643,553.301383 204.234089,554.459448 204.648413,554.697 C214.023179,560.084896 226.487886,563.10118 231.126296,565.007847 C245.75746,571.019317 237.956038,571.510049 237.956038,571.510049 C221.142093,571.397525 204.092612,570.350421 186.640468,567.716251 C185.883335,564.721847 185.895772,558.761169 186.020925,552.949743" id="Fill-40" fill="#F3D2BF"></path>
                    <path d="M202.706142,43.2306973 C203.820075,43.3221235 210.495126,41.3826372 210.924997,40.3456918 C211.354091,39.3087464 209.571642,38.119424 208.84638,37.2637683 C204.607525,32.2157902 196.502939,26.0988284 184.649224,30.4599377 C178.3232,32.7870087 173.316329,34.0966699 167.445052,38.8578667 C164.637286,41.1333639 159.717478,53.800976 168.38797,65.3964787 C179.604263,80.393506 179.532747,72.4683366 180.1554,68.7815934 C182.669329,53.9017792 185.761603,41.8342984 202.706142,43.2306973" id="Fill-42" fill="#FFE78C"></path>
                    <path d="M168.922471,0.505501093 C177.43594,-1.90908907 186.582167,4.57514044 189.254675,14.6867251 C191.927182,24.7983098 187.155846,34.860665 178.60662,37.1439765 C170.057393,39.4265066 164.498608,31.3458344 158.274417,22.9627525 C151.695757,14.101441 156.527725,4.01798743 168.922471,0.505501093" id="Fill-44" fill="#FFE78C"></path>
                    <path d="M180.698374,54.199188 C183.322687,53.7733137 185.812519,55.6573191 186.25405,58.4047945 C186.695581,61.1514885 184.923238,63.7278328 182.298148,64.1544885 C179.673058,64.5803628 177.184003,62.6963574 176.742472,59.9496634 C176.300941,57.202188 178.074062,54.6258437 180.698374,54.199188" id="Fill-46" fill="#F3D2BF"></path>
                </g>
            </g>
        </g>
    </g>
</svg>