<?xml version="1.0" encoding="UTF-8"?>
<svg width="1350px" height="665px" viewBox="0 0 1350 665" version="1.1" xmlns="http://www.w3.org/2000/svg" xmlns:xlink="http://www.w3.org/1999/xlink" style="background: #FFFFFF;">
    <!-- Generator: Sketch 47.1 (45422) - http://www.bohemiancoding.com/sketch -->
    <title>composition-proportions</title>
    <desc>Created with Sketch.</desc>
    <defs>
        <polygon id="path-1" points="0 534 1306.09475 534 1306.09475 0.941288136 0 0.941288136"></polygon>
        <polygon id="path-3" points="82.2372973 62.9218594 82.2372973 0.432118878 0.563054054 0.432118878 0.563054054 62.9218594 82.2372973 62.9218594"></polygon>
        <polygon id="path-5" points="0.425641026 0.829241379 81.9896626 0.829241379 81.9896626 63.2550989 0.425641026 63.2550989 0.425641026 0.831709425 0.423176788 63.2553232 81.9894386 63.2553232 81.9894386 0.831709425 0.425641026 0.831709425"></polygon>
    </defs>
    <g id="Elelments--illustrations" stroke="none" stroke-width="1" fill="none" fill-rule="evenodd">
        <g id="composition-proportions">
            <path d="" id="Path-452" stroke="#DCDDE0" stroke-linecap="square"></path>
            <g id="Page-1" transform="translate(21.000000, 36.000000)">
                <g id="Group-127">
                    <path d="M219.991695,516.371212 C189.66519,491.823051 169.299345,446.211305 167.385382,398.560856 C165.471418,350.908144 182.064692,302.592458 210.245747,273.765508 C218.012311,265.821127 226.62263,259.225322 233.406213,249.787551 C240.894321,239.3655 245.733747,226.076593 252.019128,214.294653 C279.812694,162.197975 331.917451,145.802364 379.479691,144.666483 C390.909793,144.392695 402.438863,144.76378 413.664317,141.829042 C429.603387,137.661127 444.150179,127.053534 458.465484,116.715203 C508.32079,80.7109322 561.784277,45.358322 618.260453,49.1076356 C661.177851,51.9541271 703.939247,71.9135085 745.858566,59.1699153 C783.096139,47.8495678 813.597099,7.67511864 851.49894,1.54090678 C875.784971,-2.39168644 900.062614,13.8183814 922.433004,27.1774322 C951.841947,44.7360763 979.655642,67.1505 1005.06053,93.7622542 C1019.04202,108.411051 1032.75345,125.177746 1039.34915,147.343271 C1044.13322,163.422102 1044.89982,181.537373 1051.07449,196.72922 C1060.3021,219.42422 1079.37296,230.801136 1093.67988,248.047525 C1120.07446,279.870305 1129.19472,332.150263 1123.70612,379.334593 C1118.2192,426.521186 1100.5423,478.479839 1079.45348,516.839593 L219.991695,516.371212 Z" id="Fill-1" fill="#EAF2FB"></path>
                    <path d="M940.706321,60.9031525 L368.461716,63.1658644 C355.249752,63.1658644 344.53851,73.8730169 344.53851,87.0827288 L340.012315,515.708237 L969.153458,515.708237 L964.627263,84.8200169 C964.627263,71.6103051 953.918285,60.9031525 940.706321,60.9031525" id="Fill-3" fill="#FFFFFF"></path>
                    <path d="M964.839994,105.026034 L964.627263,84.8200169 C964.627263,71.6103051 953.918285,60.9031525 940.706321,60.9031525 L368.461716,63.1658644 C355.249752,63.1658644 344.53851,73.8730169 344.53851,87.0827288 L344.350673,105.026034 L964.839994,105.026034 Z" id="Fill-5" fill="#C8D4E5"></path>
                    <mask id="mask-2" fill="white">
                        <use xlink:href="#path-1"></use>
                    </mask>
                    <g id="Clip-8"></g>
                    <polygon id="Fill-7" fill="#3F72AC" mask="url(#mask-2)" points="344.350673 165.264526 965.629815 165.264526 965.629815 138.844525 344.350673 138.844525"></polygon>
                    <polygon id="Fill-9" fill="#D6E3F2" mask="url(#mask-2)" points="203.865999 516.125934 426.365999 515.886086 648.865999 515.953968 871.365999 515.720908 1093.866 516.125934 1093.866 517.553705 871.365999 517.958731 648.865999 517.725671 426.365999 517.793553 203.865999 517.553705"></polygon>
                    <path d="M834.537395,197.081298 L434.254264,200.296612 C427.455918,200.355442 421.931697,205.806315 421.784596,212.605764 L419.926593,297.94168 C419.772702,305.039807 425.518707,310.859502 432.618044,310.798408 L834.537395,307.583095 L834.537395,220.792256 C834.537395,220.792256 853.210214,221.932663 853.210214,209.256951 C853.210214,196.581239 834.537395,197.081298 834.537395,197.081298" id="Fill-10" fill="#EAF2FB" mask="url(#mask-2)"></path>
                    <path d="M908.25599,193.889517 C913.463378,193.771856 918.706975,193.651932 923.952835,193.654195 C929.196433,193.633831 934.471713,193.615729 939.681364,193.749229 L955.194898,194.21761 L970.368968,194.844381 C970.742379,198.652525 971.113527,202.849856 971.167841,206.997407 L971.190472,208.764585 L969.359626,208.805314 C959.175687,209.029322 948.991748,209.133407 938.807808,208.832466 C933.715839,208.678602 928.623869,208.556415 923.531899,208.529263 C918.43993,208.511161 913.34796,208.581305 908.25599,208.703492 L906.592613,208.74422 L906.549615,206.997407 L906.293885,195.853551 L906.248623,193.934771 L908.25599,193.889517 Z" id="Fill-11" fill="#45CE70" mask="url(#mask-2)"></path>
                    <path d="M930.740997,250.222897 C935.984594,250.200269 941.259875,250.182168 946.469525,250.317931 L961.985323,250.786312 L977.159392,251.41082 C977.532803,255.221227 977.903952,259.418558 977.956003,263.566108 L977.978634,265.333286 L976.147788,265.374015 C965.963848,265.595761 955.779909,265.702108 945.59597,265.398905 C940.504,265.247303 935.41203,265.122854 930.320061,265.095702 C925.228091,265.079863 920.136121,265.147744 915.044152,265.272193 L913.380775,265.312922 L913.340039,263.566108 L913.082046,252.422253 L913.039047,250.503473 L915.044152,250.458219 C920.251539,250.340558 925.4974,250.218371 930.740997,250.222897" id="Fill-12" fill="#45CE70" mask="url(#mask-2)"></path>
                    <path d="M937.53029,306.791825 C942.773887,306.766935 948.049167,306.748833 953.258818,306.884596 L968.774616,307.352977 L983.948685,307.979748 C984.322096,311.787892 984.693244,315.985223 984.745296,320.132774 L984.767927,321.902214 L982.937081,321.940681 C972.753141,322.164689 962.569202,322.271036 952.385263,321.967833 C947.293293,321.816231 942.201323,321.691782 937.109354,321.662367 C932.017384,321.646528 926.925414,321.716672 921.833444,321.838858 L920.170068,321.879587 L920.129332,320.132774 L919.871339,308.988918 L919.82834,307.070138 L921.833444,307.027147 C927.040832,306.909486 932.286692,306.785036 937.53029,306.791825" id="Fill-13" fill="#45CE70" mask="url(#mask-2)"></path>
                    <path d="M944.319583,363.359621 C949.56318,363.334731 954.83846,363.31663 960.048111,363.452392 L975.563909,363.920774 L990.737978,364.547545 C991.111389,368.355689 991.482537,372.553019 991.534589,376.70057 L991.55722,378.470011 L989.726374,378.508477 C979.542434,378.732486 969.358495,378.838833 959.174555,378.53563 C954.082586,378.384028 948.990616,378.259579 943.898646,378.230164 C938.806677,378.214325 933.714707,378.284469 928.622737,378.406655 L926.959361,378.447384 L926.918625,376.70057 L926.660632,365.556714 L926.617633,363.637935 L928.622737,363.594943 C933.830125,363.477282 939.075985,363.352833 944.319583,363.359621" id="Fill-14" fill="#45CE70" mask="url(#mask-2)"></path>
                    <path d="M951.108875,419.927418 C956.352473,419.902528 961.627753,419.884426 966.837404,420.020189 L982.353201,420.48857 L997.527271,421.115342 C997.900682,424.923486 998.27183,429.120816 998.323881,433.268367 L998.346512,435.037808 L996.515666,435.076274 C986.331727,435.300282 976.147788,435.40663 965.963848,435.103426 C960.871879,434.951825 955.779909,434.827375 950.687939,434.79796 C945.59597,434.782121 940.504,434.852265 935.41203,434.974452 L933.748654,435.015181 L933.707918,433.268367 L933.449925,422.124511 L933.406926,420.205731 L935.41203,420.16274 C940.619418,420.045079 945.865278,419.92063 951.108875,419.927418" id="Fill-15" fill="#45CE70" mask="url(#mask-2)"></path>
                    <path d="M957.898168,476.495214 C963.141766,476.470325 968.417046,476.452223 973.626697,476.587986 L989.142494,477.056367 L1004.31656,477.683138 C1004.68998,481.491282 1005.06112,485.688613 1005.11317,489.836164 L1005.13581,491.605604 L1003.30496,491.64407 C993.12102,491.868079 982.937081,491.974426 972.753141,491.671223 C967.661172,491.519621 962.569202,491.395172 957.477232,491.365757 C952.385263,491.349918 947.293293,491.420062 942.201323,491.542248 L940.537946,491.582977 L940.497211,489.836164 L940.239218,478.692308 L940.196219,476.773528 L942.201323,476.730536 C947.408711,476.612875 952.654571,476.488426 957.898168,476.495214" id="Fill-16" fill="#45CE70" mask="url(#mask-2)"></path>
                    <path d="M967.938627,131.233894 L969.669897,131.039301 L969.871313,132.779326 L981.625842,232.687106 L992.991118,332.694445 C996.818016,366.058131 1000.33713,399.313208 1003.94451,432.545657 L1014.65801,532.048411 C1010.03224,532.743064 1005.153,533.415089 1000.34166,533.863106 L998.868383,533.998869 L998.694124,532.510004 C994.799333,499.363538 991.239481,466.178606 987.521211,433.011775 L981.999253,383.252479 L976.746603,333.46603 L966.272988,233.890869 C962.774239,200.699148 959.006181,167.536843 955.346752,134.363225 L955.161178,132.670716 L956.860764,132.480648 L967.938627,131.233894 Z" id="Fill-17" fill="#79E798" mask="url(#mask-2)"></path>
                    <path d="M893.494936,132.480196 L904.572799,131.233442 L906.310858,131.038848 L906.507747,132.790187 L917.689713,232.697967 L928.491478,332.703043 C932.126013,366.064467 935.459555,399.319543 938.879096,432.54973 L949.024563,532.050221 C944.398791,532.744874 939.521816,533.414636 934.712733,533.860391 L933.232667,534.000679 L933.062935,532.505026 C929.358244,499.351772 925.983966,466.169103 922.458059,433.000009 L917.216725,383.242975 L912.2447,333.456526 L902.336858,233.881365 C899.02821,200.691908 895.450252,167.52734 891.97866,134.353721 L891.802139,132.670264 L893.494936,132.480196 Z" id="Fill-18" fill="#79E798" mask="url(#mask-2)"></path>
                    <polygon id="Fill-19" fill="#FFFFFF" mask="url(#mask-2)" points="687.769629 260.846103 689.675158 264.663297 787.488501 226.971043 785.582972 223.153848"></polygon>
                    <path d="M788.020102,241.799725 L777.093867,211.110564 C775.898951,207.754963 777.650589,204.06448 781.006763,202.869768 L783.226861,202.080081 L798.482403,244.922268 L796.264567,245.711954 C792.90613,246.908929 789.215018,245.155327 788.020102,241.799725" id="Fill-20" fill="#56A7FF" mask="url(#mask-2)"></path>
                    <polygon id="Fill-21" fill="#3F72AC" mask="url(#mask-2)" points="797.755496 242.904608 783.941548 204.103625 787.051044 202.994896 800.864992 241.798142"></polygon>
                    <path d="M322.607736,502.114317 C322.607736,502.114317 307.895339,488.357029 313.453507,468.877342 C319.009411,449.397656 323.696286,445.727537 308.746263,435.561173 C293.79624,425.394808 298.795423,415.346105 293.042629,392.30491 C287.289835,369.261453 285.051631,386.114131 276.316074,371.924664 C267.582781,357.730673 271.332733,345.136419 252.38608,336.307317 C234.249615,327.847037 229.209697,363.351249 241.557158,385.702317 C253.906882,408.055647 236.711866,419.561537 261.832249,440.957741 C286.945844,462.356207 265.937509,474.927834 283.725456,489.081097 C301.51114,503.236622 313.340352,508.594724 313.340352,508.594724 L322.607736,502.114317 Z" id="Fill-22" fill="#79E798" mask="url(#mask-2)"></path>
                    <path d="M250.830653,349.710491 C257.085855,361.818262 261.86778,374.573169 266.378134,387.375592 C270.852278,400.200643 274.962063,413.145618 278.709753,426.192414 C282.446127,439.241474 286.220974,452.279219 289.823825,465.369008 C293.295417,478.490474 296.441123,491.709236 298.957687,505.056974 L297.837454,505.305872 L287.662567,465.934686 C284.387865,452.783804 280.934378,439.666864 277.00564,426.692474 C273.085955,413.718084 269.161744,400.745957 264.861858,387.896016 C260.49408,375.086804 256.040304,362.243652 250.038569,350.129092 L250.830653,349.710491 Z" id="Fill-23" fill="#45CE70" mask="url(#mask-2)"></path>
                    <path d="M390.097155,310.022525 C365.879747,321.313457 370.675251,337.412652 359.509128,355.555075 C348.34753,373.692974 345.482448,352.149694 338.131907,381.603414 C330.779103,411.054872 337.165565,423.900287 318.055968,436.895042 C298.948635,449.889796 304.941317,454.58266 312.042918,479.481542 C316.517062,495.16666 310.709953,507.946457 305.799031,515.257279 L336.780838,515.257279 C340.824994,512.403999 345.251612,509.118542 350.040327,505.310397 C372.777669,487.217753 345.923752,471.145711 378.028056,443.79405 C410.132359,416.442389 388.153154,401.734762 403.93826,373.165762 C419.72563,344.592236 413.284854,299.215813 390.097155,310.022525" id="Fill-24" fill="#79E798" mask="url(#mask-2)"></path>
                    <path d="M389.613305,335.029337 C389.613305,335.029337 352.238248,460.729769 326.511354,510.878253" id="Stroke-25" stroke="#45CE70" mask="url(#mask-2)"></path>
                    <path d="M315.013912,515.257505 L321.676472,515.257505 C320.89344,501.955022 301.469273,455.363522 296.578719,435.442607 C290.905133,412.329005 278.410571,399.70081 269.383075,403.508954 C263.213871,406.115598 266.828037,429.242776 275.975478,450.892403 C283.391649,468.441997 304.137465,503.864751 315.013912,515.257505" id="Fill-26" fill="#4CDF76" mask="url(#mask-2)"></path>
                    <path d="M319.02299,515.257505 C310.131279,502.131514 284.354597,476.273242 273.401205,461.187742 C259.415261,441.932064 237.813994,428.256234 230.893442,435.191446 C226.163568,439.936353 228.707289,462.701497 247.649417,476.637539 C263.262527,488.123064 287.638352,505.326463 304.204226,515.257505 L319.02299,515.257505 Z" id="Fill-27" fill="#4CDF76" mask="url(#mask-2)"></path>
                    <path d="M417.425643,417.096992 C407.974948,409.505593 370.416579,438.239771 359.327401,459.475322 C351.361297,474.730525 331.55693,500.009542 323.049946,515.257958 L343.164358,515.257958 C358.845361,504.053008 378.803619,487.673237 392.008794,476.339314 C409.955158,460.932508 423.884524,422.289915 417.425643,417.096992" id="Fill-28" fill="#4CDF76" mask="url(#mask-2)"></path>
                    <path d="M319.477194,515.257505 L325.58982,515.257505 C330.048123,496.637649 334.320851,441.841556 336.273904,409.403319 C338.113803,378.825031 322.530112,356.245429 315.840396,356.609725 C306.057025,357.145988 302.279915,390.061658 307.715875,420.567539 C312.196808,445.701742 314.975892,497.189751 319.477194,515.257505" id="Fill-29" fill="#4CDF76" mask="url(#mask-2)"></path>
                    <path d="M406.111287,431.614551 C399.980555,438.495458 393.747984,445.285856 387.461099,452.015161 L368.657021,472.232492 C362.381451,478.961797 356.424978,485.976203 350.762708,493.203305 C345.005387,500.353475 339.38159,507.589627 334.067837,515.085992 L333.101494,514.470534 C337.706898,506.442432 343.174541,498.934754 349.029175,491.795898 C354.990174,484.733975 361.209167,477.918686 367.346687,471.03778 C373.493261,464.163661 379.897827,457.536178 386.30013,450.91322 C392.684328,444.276686 399.156788,437.728398 405.448199,431.008144 L406.111287,431.614551 Z" id="Fill-30" fill="#45CE70" mask="url(#mask-2)"></path>
                    <path d="M317.58977,379.786457 C317.542245,390.973304 317.908867,402.16694 318.225701,413.353787 L319.395722,446.918855 C319.741976,458.107965 320.423168,469.285762 321.251462,480.445457 C322.025441,491.596101 322.407905,502.823677 323.614136,513.865711 L322.487113,514.076143 C321.33067,508.518923 320.805632,502.939075 320.239857,497.35244 C319.746502,491.763542 319.311987,486.174643 319.020048,480.576694 L317.621453,446.988999 C317.085099,435.797626 316.795423,424.597203 316.623427,413.392253 C316.444643,402.187304 316.417485,390.980092 316.693583,379.770618 L317.58977,379.786457 Z" id="Fill-31" fill="#45CE70" mask="url(#mask-2)"></path>
                    <path d="M242.073144,448.242315 C245.832149,455.163951 251.625679,460.651027 257.634203,465.705925 C263.798881,470.645425 269.637673,476.137027 275.447045,481.495129 C281.247364,486.90301 287.283045,492.05068 293.087891,497.438197 C298.894999,502.816663 304.641004,508.276586 310.527321,513.521553 L309.823498,514.422112 C303.332934,509.749612 297.471511,504.386985 291.5603,499.10129 C285.696614,493.759027 280.136183,488.095459 274.286076,482.755459 C271.357627,480.087722 268.440495,477.408671 265.475837,474.790714 C262.538336,472.141078 259.465049,469.708663 256.47776,467.049976 C250.512235,461.827637 244.79565,455.915171 241.27427,448.649603 L242.073144,448.242315 Z" id="Fill-32" fill="#45CE70" mask="url(#mask-2)"></path>
                    <path d="M277.950257,418.049367 C278.986756,426.634096 281.838259,434.922409 284.757655,443.081748 C287.758522,451.236562 291.171273,459.239774 294.611182,467.229409 C298.071458,475.216782 301.993406,482.993723 306.105455,490.657528 C310.124716,498.36885 314.128136,506.082435 318.380496,513.662519 L317.41868,514.28024 C312.374235,507.105181 308.083402,499.459477 304.118455,491.678011 C300.282505,483.821875 296.650233,475.884282 292.990804,467.953477 C289.363058,460.00457 286.106461,451.883697 283.248169,443.618011 C280.437401,435.350062 277.88689,426.903358 277.056334,418.119511 L277.950257,418.049367 Z" id="Fill-33" fill="#45CE70" mask="url(#mask-2)"></path>
                    <polygon id="Fill-34" fill="#C8D4E5" mask="url(#mask-2)" points="684.786188 531.317555 617.282511 531.317555 618.445744 490.588742 683.622956 490.588742"></polygon>
                    <polygon id="Fill-35" fill="#B0BED2" mask="url(#mask-2)" points="617.282511 498.733373 684.786188 498.733373 684.786188 490.58761 617.282511 490.58761"></polygon>
                    <polygon id="Fill-36" fill="#B0BED2" mask="url(#mask-2)" points="640.558471 510.3705 660.344733 510.3705 660.344733 505.041814 640.558471 505.041814"></polygon>
                    <polygon id="Fill-37" fill="#C8D4E5" mask="url(#mask-2)" points="768.438876 532.711838 684.785735 532.711838 686.229591 454.467262 766.99502 454.467262"></polygon>
                    <polygon id="Fill-38" fill="#B0BED2" mask="url(#mask-2)" points="684.786188 464.561898 768.439329 464.561898 768.439329 454.467941 684.786188 454.467941"></polygon>
                    <polygon id="Fill-39" fill="#B0BED2" mask="url(#mask-2)" points="713.63163 478.982161 738.15003 478.982161 738.15003 472.377305 713.63163 472.377305"></polygon>
                    <path d="M763.826683,244.731974 L853.148884,208.039838 L854.389061,288.531287 C854.389061,299.926304 849.364985,310.739804 840.652059,318.089092 L814.861798,342.752652 C808.712962,345.897821 801.176847,343.503872 797.974563,337.385499 L758.408827,261.765669 C755.168072,255.570364 757.600902,247.920135 763.826683,244.731974" id="Fill-40" fill="#DCE7F2" mask="url(#mask-2)"></path>
                    <path d="M821.553325,132.513458 C819.306069,137.326246 820.731821,143.231924 818.520774,148.062814 C817.425435,150.463551 815.490486,152.438898 814.603352,154.923356 C813.591748,157.756271 814.134891,161.091508 815.990631,163.458305 C817.846371,165.825102 820.955867,167.146525 823.952209,166.841059 C829.89284,166.23239 833.525112,160.233941 838.336457,156.695059 C841.986834,154.00922 846.442873,152.712686 850.745021,151.287178 C855.049433,149.863932 859.442106,148.169161 862.610442,144.926695 C865.778779,141.686492 867.374263,136.489042 865.219794,132.502144 C864.162927,130.544898 862.363765,129.112602 860.575918,127.788915 C854.325242,123.157144 847.637788,120.534661 839.882153,122.44439 C833.41422,124.037339 824.660558,125.861085 821.553325,132.513458" id="Fill-41" fill="#FFED72" mask="url(#mask-2)"></path>
                    <path d="M1016.57961,188.732118 C1009.04576,182.389736 1003.94926,175.96816 1009.24039,172.628397 C1019.3949,166.218135 1021.77795,169.537533 1023.61558,171.377118 C1030.65382,178.411889 1047.07485,204.21133 1053.71252,217.016016 C1054.23529,218.02066 1049.54389,221.084372 1047.65194,222.279084 C1045.93425,220.672558 1020.8546,191.997211 1016.57961,188.732118" id="Fill-42" fill="#F3D2BF" mask="url(#mask-2)"></path>
                    <path d="M1023.61649,171.377118 C1018.44078,165.331152 996.884778,135.304965 983.733917,133.397499 C979.402348,132.770728 977.596397,132.904228 974.563846,133.329618 C973.389298,135.519923 976.704736,149.256847 978.544634,151.182414 C989.694916,162.830855 1009.11908,180.950652 1010.00622,182.066169 L1023.61649,171.377118 Z" id="Fill-43" fill="#F3D2BF" mask="url(#mask-2)"></path>
                    <path d="M1062.43178,237.175874 C1063.60633,238.522187 1064.84424,239.047136 1065.23349,238.277814 C1065.51412,237.72345 1058.57094,230.421679 1058.79046,230.448831 C1059.09145,230.48956 1065.59106,237.777755 1066.78824,238.456569 C1067.59617,238.915899 1067.97863,238.544814 1067.90169,238.23256 C1067.49433,236.580781 1060.12342,229.541484 1060.32031,229.374043 C1060.4561,229.260908 1067.86095,237.393094 1068.98797,238.09906 C1069.39307,238.354747 1070.20099,238.338908 1070.12631,237.533382 C1070.029,236.390713 1062.38652,229.036899 1062.5902,228.699755 C1062.66941,228.566255 1068.33168,233.788594 1069.46096,234.356535 C1071.43212,234.65295 1069.62164,232.774899 1066.17268,229.111569 C1065.13844,228.011891 1058.71125,222.158255 1055.10613,218.884111 C1053.8818,217.098831 1053.17345,215.793247 1053.17345,215.793247 C1053.17345,215.793247 1045.9949,217.696187 1045.37481,219.782408 C1046.93861,221.911619 1049.65207,225.857789 1050.77683,226.774187 C1054.67162,229.953297 1060.16416,234.576018 1062.43178,237.175874" id="Fill-44" fill="#F3D2BF" mask="url(#mask-2)"></path>
                    <path d="M1053.77045,233.968706 C1054.29775,235.059333 1056.10371,234.407672 1055.27541,231.183308 C1055.19394,230.862003 1054.70511,229.649189 1054.16649,228.354918 C1053.42646,226.576426 1052.59138,224.641808 1052.59138,224.641808 L1049.8915,225.693969 C1049.8915,225.693969 1053.42646,233.260477 1053.77045,233.968706" id="Fill-45" fill="#F3D2BF" mask="url(#mask-2)"></path>
                    <path d="M1008.80904,153.248949 C1000.64378,143.903949 990.930568,134.441288 983.733917,133.398178 C979.402348,132.771407 977.596397,132.904907 974.563846,133.328034 C973.389298,135.520602 976.702473,149.257525 978.544634,151.183093 C983.213405,156.0615 989.484448,161.921924 994.936251,167.497246 C997.814911,170.438771 1014.34684,159.584542 1008.80904,153.248949" id="Fill-46" fill="#F2BDA5" mask="url(#mask-2)"></path>
                    <path d="M931.461567,134.600357 C933.686192,132.753984 941.06389,130.638348 945.481457,131.652043 C946.592638,133.86045 944.313699,145.789467 942.532641,147.484238 C931.746717,157.736586 912.397233,173.600458 911.777144,173.871984 L900.115402,161.438382 C904.25687,158.892831 924.129131,138.84973 931.461567,134.600357" id="Fill-47" fill="#F3D2BF" mask="url(#mask-2)"></path>
                    <path d="M931.461567,134.600357 C933.686192,132.753984 941.06389,130.638348 945.481457,131.652043 C946.592638,133.86045 944.313699,145.789467 942.532641,147.484238 C936.318175,153.392179 927.08021,160.956425 920.578331,166.739916 C918.530227,168.563662 904.924484,157.30667 908.106399,154.611781 C916.052135,147.884738 926.498594,137.476264 931.461567,134.600357" id="Fill-48" fill="#F2BDA5" mask="url(#mask-2)"></path>
                    <path d="M854.655428,155.270908 C862.757317,161.764892 887.21235,179.386892 896.230795,179.950307 C898.665888,180.101908 905.068191,180.626858 911.776012,173.872663 C910.857195,169.433222 902.721359,162.690341 900.116533,161.439061 C896.893882,163.108942 858.925893,148.28818 858.925893,148.28818 L854.655428,155.270908 Z" id="Fill-49" fill="#F3D2BF" mask="url(#mask-2)"></path>
                    <path d="M982.217642,133.348625 C985.148353,133.853209 992.652785,135.260616 997.767386,140.034938 C1001.50829,143.528565 1004.80562,146.599065 1008.46279,151.081497 C1003.48171,156.738277 997.760596,161.487709 991.555183,165.637523 C992.007802,166.223565 982.819626,152.22643 981.359928,148.298362 C979.875336,145.721133 980.418479,137.652303 982.217642,133.348625" id="Fill-50" fill="#56A7FF" mask="url(#mask-2)"></path>
                    <path d="M1008.46437,151.08014 C1003.48329,156.736919 997.762181,161.486352 991.554504,165.638428 C992.495952,166.855767 993.484926,168.055004 994.512372,169.21125 C995.005728,169.763352 1012.2098,156.327369 1011.89523,155.623665 C1010.76594,153.999038 1009.61855,152.494335 1008.46437,151.08014" id="Fill-51" fill="#FFFFFF" mask="url(#mask-2)"></path>
                    <path d="M995.46921,162.887649 C994.19056,163.833463 992.88249,164.749861 991.556314,165.636844 C992.497763,166.854183 993.484473,168.055683 994.51192,169.209666 C994.561708,169.266234 994.783492,169.177988 995.145587,168.972081 C994.530025,166.686742 995.46921,166.218361 995.46921,162.887649" id="Fill-52" fill="#DFEDFF" mask="url(#mask-2)"></path>
                    <path d="M992.001692,153.552831 C989.756699,153.713484 989.894748,159.017281 990.322473,163.678467 C990.790935,164.078967 991.055717,165.203535 991.714279,165.748848 C991.714279,165.748848 994.529572,163.87306 995.468757,162.886518 C994.758145,158.93356 993.834801,157.220687 992.001692,153.552831" id="Fill-53" fill="#529AEB" mask="url(#mask-2)"></path>
                    <path d="M909.809607,149.686988 C914.573427,155.527047 920.111227,160.486912 926.158224,164.869785 C925.171513,166.05092 924.137278,167.213954 923.066833,168.329471 C922.555373,168.863471 905.867291,154.787141 906.209018,154.097014 C907.399408,152.515378 908.603376,151.055929 909.809607,149.686988" id="Fill-54" fill="#FFFFFF" mask="url(#mask-2)"></path>
                    <path d="M936.70607,132.957628 C934.30266,132.12495 924.100616,134.699916 920.950384,138.112086 C917.481055,141.877238 913.633789,145.348238 909.811417,149.688119 C914.577501,155.528179 920.113038,160.488043 926.157771,164.870916 C925.682521,165.438857 935.393473,151.79923 937.000272,147.929992 C938.579914,145.409331 938.342289,137.324662 936.70607,132.957628" id="Fill-55" fill="#56A7FF" mask="url(#mask-2)"></path>
                    <path d="M927.912125,148.862908 C930.139013,148.541603 930.186538,154.155392 930.765891,158.800739 C929.564186,160.389163 927.176618,163.351053 926.040543,164.830866 C925.099094,163.871476 924.159909,163.403095 923.222986,162.466332 C922.951415,157.755366 926.056385,154.064883 927.912125,148.862908" id="Fill-56" fill="#529AEB" mask="url(#mask-2)"></path>
                    <path d="M926.422554,168.326756 C926.671495,157.612815 928.022564,137.218993 933.474366,134.478849 C948.625805,126.862561 972.86358,129.304027 987.612188,134.478849 C992.199487,136.087637 992.319431,158.836942 991.658606,170.311154 C991.33272,175.990561 993.593555,198.113095 995.508135,215.1219 C997.497398,232.741637 995.901914,237.484281 993.12283,240.32851 C980.700688,253.038163 931.887935,253.658146 925.567103,234.698883 C924.627917,231.884069 925.677995,223.097959 925.727783,220.993637 C926.17135,202.719976 926.085352,182.844315 926.422554,168.326756" id="Fill-57" fill="#F3D2BF" mask="url(#mask-2)"></path>
                    <path d="M993.155193,313.241911 C992.526052,309.630623 970.316011,313.617521 970.9361,319.032191 C975.32651,357.410047 984.150327,410.744428 984.177484,410.925445 C984.770416,414.95986 994.137377,412.688097 994.965671,410.278309 C995.606128,408.409309 999.83812,351.499843 993.155193,313.241911" id="Fill-58" fill="#F3D2BF" mask="url(#mask-2)"></path>
                    <path d="M962.581423,228.602458 L995.79238,228.530052 C996.604833,228.674865 994.515993,283.918975 993.757856,317.418425 C993.59265,324.758662 978.235269,324.557281 971.000146,319.866679 C968.580894,308.139043 962.581423,234.229823 962.581423,228.602458" id="Fill-59" fill="#F3D2BF" mask="url(#mask-2)"></path>
                    <path d="M927.985223,271.445776 C926.713362,268.01098 905.591872,275.953098 907.182829,281.166386 C918.455319,318.114208 936.799988,359.915547 936.858829,360.089776 C938.171425,363.949963 946.972612,360.019632 947.350549,357.498971 C947.642489,355.543988 940.226318,308.574615 927.985223,271.445776" id="Fill-60" fill="#F3D2BF" mask="url(#mask-2)"></path>
                    <path d="M938.30178,199.250108 L969.378636,211.590938 C970.055303,212.066108 945.249489,257.490048 929.56396,286.579472 C926.29831,292.636752 912.903035,286.69487 908.327051,279.388574 C911.088031,267.73787 935.665271,202.680379 938.30178,199.250108" id="Fill-61" fill="#F3D2BF" mask="url(#mask-2)"></path>
                    <path d="M962.581423,225.318811 L995.79238,225.246404 C996.387575,225.352752 994.771723,255.093836 994.568045,284.176472 C994.529572,289.577565 968.727996,293.331404 967.623604,287.719879 C962.649316,262.456701 962.581423,229.011557 962.581423,225.318811" id="Fill-62" fill="#F2BDA5" mask="url(#mask-2)"></path>
                    <path d="M938.30178,199.250108 L969.378636,211.590938 C969.894623,211.950709 957.219013,237.603074 943.459379,264.287235 C941.848054,268.192675 916.198105,258.815997 919.049608,250.072879 C926.968187,225.793981 936.57051,201.501506 938.30178,199.250108" id="Fill-63" fill="#F2BDA5" mask="url(#mask-2)"></path>
                    <path d="M925.954093,168.326756 C926.203033,157.612815 926.657916,134.70512 932.535181,133.06918 C949.961032,128.224714 972.951841,128.693095 987.612188,134.478849 C992.133857,136.261866 993.256353,158.836942 992.595529,170.311154 C992.269643,175.990561 993.593555,198.113095 995.508135,215.1219 C996.245905,221.629459 996.49032,226.381154 996.365849,229.931349 C996.157644,235.986366 924.661864,231.268612 924.747862,228.910866 C924.867806,225.6684 925.700626,222.210976 925.727783,220.993637 C926.17135,202.719976 925.616891,182.844315 925.954093,168.326756" id="Fill-64" fill="#56A7FF" mask="url(#mask-2)"></path>
                    <path d="M996.266952,408.713418 C994.279952,408.903486 984.329112,409.505367 984.075645,409.643392 C978.386218,412.817977 970.843313,414.548952 968.030283,415.662206 C965.49335,416.669113 960.620901,418.520011 960.752161,419.508816 C960.994312,421.330299 961.053153,421.398181 961.053153,421.398181 C968.317696,421.427596 978.039964,420.941113 986.318375,420.389011 C986.748363,420.359596 989.307927,420.241935 989.685864,420.210257 C992.116431,420.011138 994.485894,419.764503 996.737676,419.449986 C997.212927,417.657918 996.307688,412.202519 996.266952,408.713418" id="Fill-65" fill="#1A3149" mask="url(#mask-2)"></path>
                    <path d="M941.384798,368.366776 C943.799523,368.029632 946.148618,367.640446 948.380032,367.194692 C948.75118,365.377734 947.524581,359.985692 947.277904,356.505641 C945.304483,356.813369 934.733554,357.102997 934.489139,357.256861 C928.992075,360.761802 922.243518,363.823251 919.500643,365.101683 C917.027078,366.253403 912.27231,368.389403 912.460147,369.364632 C912.808664,371.170276 912.87203,371.238158 912.87203,371.238158 C920.125258,370.83992 929.804527,369.780971 938.03315,368.744649 L941.384798,368.366776 Z" id="Fill-66" fill="#1A3149" mask="url(#mask-2)"></path>
                    <path d="M839.083506,138.775513 C837.517442,137.920208 836.170899,137.856852 836.071323,138.712157 C836.001167,139.33214 845.044505,143.776106 844.829511,143.825886 C844.530782,143.893767 835.910643,139.304987 834.550521,139.083242 C833.633967,138.93164 833.403131,139.411335 833.584178,139.678335 C834.536943,141.085742 843.890325,145.138258 843.761328,145.36453 C843.675331,145.518394 833.912328,140.452182 832.611046,140.180657 C832.142585,140.081097 831.3935,140.37525 831.737491,141.106106 C832.228583,142.142428 841.944061,146.396326 841.867116,146.78325 C841.839959,146.934852 834.71799,143.995589 833.464234,143.855301 C831.513444,144.258064 833.862539,145.393945 838.366104,147.636292 C839.71491,148.310581 847.771537,151.577936 852.290943,153.399419 C854.058423,154.650699 855.171867,155.630453 855.171867,155.630453 C855.171867,155.630453 861.248284,151.360716 861.105709,149.188513 C858.903715,147.733589 854.993082,144.970818 853.619382,144.497911 C848.862351,142.866496 842.109267,140.431818 839.083506,138.775513" id="Fill-67" fill="#F3D2BF" mask="url(#mask-2)"></path>
                    <path d="M848.319207,138.7866 C847.443388,137.947134 845.976901,139.182575 847.871114,141.920456 C848.058951,142.194244 848.937033,143.162685 849.89206,144.189956 C851.202394,145.601888 852.653039,147.129219 852.653039,147.129219 L854.82335,145.205914 C854.82335,145.205914 848.887245,139.334176 848.319207,138.7866" id="Fill-68" fill="#F3D2BF" mask="url(#mask-2)"></path>
                    <path d="M949.961938,118.732637 L960.901752,115.153027 C960.901752,115.153027 964.975327,127.211019 964.975327,131.299739 C962.682809,133.824925 952.464924,134.168858 950.088671,131.702502 C949.961938,128.018807 949.961938,118.732637 949.961938,118.732637" id="Fill-69" fill="#F3D2BF" mask="url(#mask-2)"></path>
                    <path d="M944.021306,100.661942 C951.432951,101.288713 961.469789,102.028619 964.832752,105.782458 C964.832752,105.782458 962.067247,121.865814 961.517314,122.00384 C955.341321,123.547009 949.194748,123.814009 943.136435,120.682416 C941.450427,113.932747 941.712947,107.260009 944.021306,100.661942" id="Fill-70" fill="#F3D2BF" mask="url(#mask-2)"></path>
                    <path d="M947.937597,101.639659 C947.265457,101.693964 943.239406,100.530931 942.97915,99.906422 C942.718894,99.2841763 943.796128,98.571422 944.232906,98.0577864 C946.790206,95.0280153 951.68076,91.3556339 958.834412,93.9735915 C962.654521,95.3696847 965.675756,96.1571085 969.217504,99.0149136 C970.912564,100.379329 973.884011,107.984303 968.649466,114.944405 C961.880541,123.945473 961.92354,119.189253 961.550129,116.97632 C960.031591,108.045397 958.166798,100.800193 947.937597,101.639659" id="Fill-71" fill="#7F3D4A" mask="url(#mask-2)"></path>
                    <path d="M991.130852,100.379103 C988.87907,95.5391619 982.327402,93.8919076 976.674184,96.6275263 C971.018703,99.3631449 968.316565,105.483781 970.640766,110.287518 C972.96723,115.093518 978.830916,114.473535 985.097434,114.041357 C991.719257,113.582026 994.407817,107.425187 991.130852,100.379103" id="Fill-72" fill="#7F3D4A" mask="url(#mask-2)"></path>
                    <path d="M994.551977,198.960707 L925.457343,200.033232 C918.724627,229.876139 903.822129,251.616275 905.99244,279.2553 C918.269745,280.818834 924.156062,283.90291 933.629388,283.728681 C934.964616,283.706054 948.991295,249.840046 960.992502,250.677249 C962.219101,250.763232 964.971027,288.023308 966.204416,287.948639 C975.761477,287.367122 985.601425,286.052486 997.960202,284.201588 C1000.95202,256.797885 999.888361,226.081571 994.551977,198.960707" id="Fill-73" fill="#1A3149" mask="url(#mask-2)"></path>
                    <path d="M994.551977,196.61518 L925.457343,197.687705 C925.249138,198.601841 925.047722,199.515976 924.850833,200.425586 C964.063525,201.398553 977.540272,200.936959 995.079278,199.294231 C994.902757,198.398197 994.728498,197.504425 994.551977,196.61518" id="Fill-74" fill="#FFFFFF" mask="url(#mask-2)"></path>
                    <path d="M949.961938,122.797373 C951.109328,123.06211 954.239192,122.840364 955.590261,122.967076 C954.599025,122.874305 955.366215,123.277068 949.961938,124.867754 L949.961938,122.797373 Z" id="Fill-75" fill="#F2BDA5" mask="url(#mask-2)"></path>
                    <path d="M961.219943,108.223472 C959.638038,107.967786 958.135341,109.099142 957.868296,110.748658 C957.60125,112.395913 958.671695,113.943608 960.2536,114.199294 C961.837769,114.454981 963.340466,113.323625 963.609774,111.674108 C963.874557,110.024591 962.804111,108.479158 961.219943,108.223472" id="Fill-76" fill="#F3D2BF" mask="url(#mask-2)"></path>
                    <path d="M755.218539,247.953623 C755.218539,247.953623 852.81915,218.282682 853.1473,208.039386 L830.090861,209.01914 L755.218539,247.953623 Z" id="Fill-77" fill="#EAF2FB" mask="url(#mask-2)"></path>
                    <path d="M452.612059,114.796197 C450.152072,112.940774 446.985998,112.372833 443.93308,113.24624 C440.7919,114.140011 438.304756,116.658409 437.437989,119.817155 C436.609696,122.842401 437.177733,125.931003 438.997264,128.358892 L437.684667,130.605765 C437.485515,130.947435 437.483251,131.356986 437.680141,131.700918 C437.87703,132.04485 438.232337,132.248494 438.628379,132.248494 L445.727716,132.248494 L447.685296,132.225867 L448.341594,132.119519 C453.053363,131.35246 456.475167,127.324833 456.475167,122.545986 C456.475167,119.473223 455.06752,116.649358 452.612059,114.796197" id="Fill-78" fill="#4BDF75" mask="url(#mask-2)"></path>
                    <path d="M474.972143,122.266088 C479.851381,121.736614 484.73062,121.5918 489.612121,121.720775 C492.051741,121.842961 494.49136,122.085071 496.930979,122.15069 C499.370598,122.20952 501.810218,122.123537 504.2521,121.987775 L511.570958,121.56691 C514.010577,121.467351 516.450196,121.403995 518.889815,121.381368 C523.769054,121.444724 528.650556,121.7253 533.529794,122.266088 L533.529794,125.121631 C528.650556,125.662419 523.769054,125.942995 518.889815,126.004088 C516.450196,125.983724 514.010577,125.920368 511.570958,125.820808 L504.2521,125.399944 C501.810218,125.264181 499.370598,125.178198 496.930979,125.237029 C494.49136,125.302647 492.051741,125.544758 489.612121,125.666944 C484.73062,125.795919 479.851381,125.651105 474.972143,125.121631 L474.972143,122.266088 Z" id="Fill-79" fill="#B0BED2" mask="url(#mask-2)"></path>
                    <path d="M554.432669,122.266088 C559.311908,121.736614 564.191146,121.5918 569.072648,121.720775 C571.512267,121.842961 573.951886,122.085071 576.391505,122.15069 C578.831125,122.20952 581.270744,122.123537 583.712626,121.987775 L591.031484,121.56691 C593.471103,121.467351 595.910723,121.403995 598.350342,121.381368 C603.22958,121.444724 608.111082,121.7253 612.99032,122.266088 L612.99032,125.121631 C608.111082,125.662419 603.22958,125.942995 598.350342,126.004088 C595.910723,125.983724 593.471103,125.920368 591.031484,125.820808 L583.712626,125.399944 C581.270744,125.264181 578.831125,125.178198 576.391505,125.237029 C573.951886,125.302647 571.512267,125.544758 569.072648,125.666944 C564.191146,125.795919 559.311908,125.651105 554.432669,125.121631 L554.432669,122.266088 Z" id="Fill-80" fill="#B0BED2" mask="url(#mask-2)"></path>
                    <path d="M633.894101,122.266088 C638.773339,121.736614 643.652578,121.5918 648.534079,121.720775 C650.973699,121.842961 653.413318,122.085071 655.852937,122.15069 C658.292556,122.20952 660.732176,122.123537 663.171795,121.987775 L670.490653,121.56691 C672.932535,121.467351 675.372154,121.403995 677.811773,121.381368 C682.691012,121.444724 687.57025,121.7253 692.451752,122.266088 L692.451752,125.121631 C687.57025,125.662419 682.691012,125.942995 677.811773,126.004088 C675.372154,125.983724 672.932535,125.920368 670.490653,125.820808 L663.171795,125.399944 C660.732176,125.264181 658.292556,125.178198 655.852937,125.237029 C653.413318,125.302647 650.973699,125.544758 648.534079,125.666944 C643.652578,125.795919 638.773339,125.651105 633.894101,125.121631 L633.894101,122.266088 Z" id="Fill-81" fill="#B0BED2" mask="url(#mask-2)"></path>
                    <path d="M713.355532,122.266088 C718.234771,121.736614 723.114009,121.5918 727.995511,121.720775 C730.43513,121.842961 732.874749,122.085071 735.314369,122.15069 C737.753988,122.20952 740.193607,122.123537 742.63549,121.987775 L749.954347,121.56691 C752.393967,121.467351 754.833586,121.403995 757.273205,121.381368 C762.152444,121.444724 767.033945,121.7253 771.913184,122.266088 L771.913184,125.121631 C767.033945,125.662419 762.152444,125.942995 757.273205,126.004088 C754.833586,125.983724 752.393967,125.920368 749.954347,125.820808 L742.63549,125.399944 C740.193607,125.264181 737.753988,125.178198 735.314369,125.237029 C732.874749,125.302647 730.43513,125.544758 727.995511,125.666944 C723.114009,125.795919 718.234771,125.651105 713.355532,125.121631 L713.355532,122.266088 Z" id="Fill-82" fill="#B0BED2" mask="url(#mask-2)"></path>
                    <path d="M435.242106,151.203587 C440.121344,150.674113 445.000583,150.529299 449.882084,150.658274 C452.321704,150.78046 454.761323,151.02257 457.200942,151.088189 C459.640561,151.147019 462.080181,151.061036 464.522063,150.925274 L471.840921,150.504409 C474.28054,150.40485 476.720159,150.341494 479.159779,150.318867 C484.039017,150.382223 488.920519,150.662799 493.799757,151.203587 L493.799757,154.05913 C488.920519,154.599918 484.039017,154.880494 479.159779,154.941587 C476.720159,154.921223 474.28054,154.855604 471.840921,154.758308 L464.522063,154.337443 C462.080181,154.199418 459.640561,154.115697 457.200942,154.174528 C454.761323,154.240147 452.321704,154.482257 449.882084,154.604443 C445.000583,154.733418 440.121344,154.588604 435.242106,154.05913 L435.242106,151.203587 Z" id="Fill-83" fill="#FFFFFF" mask="url(#mask-2)"></path>
                    <path d="M514.702406,154.203587 C519.581644,153.674113 524.460883,153.529299 529.342385,153.658274 C531.782004,153.78046 534.221623,154.02257 536.661242,154.088189 C539.100862,154.147019 541.540481,154.061036 543.982363,153.925274 L551.301221,153.504409 C553.74084,153.40485 556.180459,153.341494 558.620079,153.318867 C563.499317,153.382223 568.380819,153.662799 573.260057,154.203587 L573.260057,157.05913 C568.380819,157.599918 563.499317,157.880494 558.620079,157.941587 C556.180459,157.921223 553.74084,157.855604 551.301221,157.758308 L543.982363,157.337443 C541.540481,157.199418 539.100862,157.115697 536.661242,157.174528 C534.221623,157.240147 531.782004,157.482257 529.342385,157.604443 C524.460883,157.733418 519.581644,157.588604 514.702406,157.05913 L514.702406,154.203587 Z" id="Fill-84" fill="#FFFFFF" mask="url(#mask-2)"></path>
                    <path d="M594.163838,151.203587 C599.043076,150.674113 603.922315,150.529299 608.803816,150.658274 C611.243435,150.78046 613.683055,151.02257 616.122674,151.088189 C618.562293,151.147019 621.001912,151.061036 623.443795,150.925274 L630.762652,150.504409 C633.202272,150.40485 635.641891,150.341494 638.08151,150.318867 C642.960749,150.382223 647.84225,150.662799 652.721489,151.203587 L652.721489,154.05913 C647.84225,154.599918 642.960749,154.880494 638.08151,154.941587 C635.641891,154.921223 633.202272,154.855604 630.762652,154.758308 L623.443795,154.337443 C621.001912,154.199418 618.562293,154.115697 616.122674,154.174528 C613.683055,154.240147 611.243435,154.482257 608.803816,154.604443 C603.922315,154.733418 599.043076,154.588604 594.163838,154.05913 L594.163838,151.203587 Z" id="Fill-85" fill="#FFFFFF" mask="url(#mask-2)"></path>
                    <path d="M673.625269,151.203587 C678.504508,150.674113 683.383746,150.529299 688.265248,150.658274 C690.704867,150.78046 693.144486,151.02257 695.584105,151.088189 C698.023725,151.147019 700.463344,151.061036 702.905226,150.925274 L710.224084,150.504409 C712.663703,150.40485 715.103323,150.341494 717.542942,150.318867 C722.42218,150.382223 727.303682,150.662799 732.18292,151.203587 L732.18292,154.05913 C727.303682,154.599918 722.42218,154.880494 717.542942,154.941587 C715.103323,154.921223 712.663703,154.855604 710.224084,154.758308 L702.905226,154.337443 C700.463344,154.199418 698.023725,154.115697 695.584105,154.174528 C693.144486,154.240147 690.704867,154.482257 688.265248,154.604443 C683.383746,154.733418 678.504508,154.588604 673.625269,154.05913 L673.625269,151.203587 Z" id="Fill-86" fill="#FFFFFF" mask="url(#mask-2)"></path>
                    <path d="M534.408329,311.324036 C539.744713,303.345714 542.777264,295.951172 536.918104,294.258664 C525.675035,291.007147 524.344333,294.758723 523.119998,296.978443 C518.435385,305.472664 510.050609,334.073342 507.300945,347.860045 C507.085951,348.941621 512.304654,350.539096 514.400282,351.147765 C515.57483,349.176943 531.292043,315.537206 534.408329,311.324036" id="Fill-87" fill="#F3D2BF" mask="url(#mask-2)"></path>
                    <path d="M523.119319,296.978669 C526.326128,289.916746 538.377123,255.967017 550.174651,250.620229 C554.06039,248.859839 555.787133,248.495542 558.740475,248.072415 C560.435536,249.805653 561.053361,263.565203 559.849393,265.866381 C552.566745,279.79111 539.286888,302.019992 538.757323,303.302949 L523.119319,296.978669 Z" id="Fill-88" fill="#F3D2BF" mask="url(#mask-2)"></path>
                    <path d="M504.600164,369.096048 C503.864658,370.675421 502.846264,371.501311 502.2737,370.888116 C501.859553,370.444625 506.383485,361.726396 506.188859,361.812379 C505.915024,361.932303 501.805239,370.514769 500.866053,371.476421 C500.234649,372.123557 499.77524,371.881447 499.763925,371.56693 C499.696032,369.910625 504.692951,361.323633 504.459852,361.221811 C504.305962,361.149404 499.573825,370.770455 498.709321,371.736633 C498.399277,372.085091 497.641139,372.286472 497.489512,371.514887 C497.272254,370.417472 502.436643,361.463921 502.153756,361.203709 C502.042864,361.099625 498.157125,367.523464 497.254149,368.360667 C495.488933,369.170718 496.67706,366.921582 498.910737,362.559074 C499.580614,361.248964 504.014022,354.02865 506.503429,349.987447 C507.16878,347.982684 507.476561,346.570752 507.476561,346.570752 C507.476561,346.570752 514.711685,346.407836 515.859075,348.195379 C514.971941,350.609692 513.500927,355.037819 512.695265,356.203116 C509.907128,360.230743 506.016863,366.045913 504.600164,369.096048" id="Fill-89" fill="#CC9694" mask="url(#mask-2)"></path>
                    <path d="M511.839361,363.748581 C511.640208,364.911615 509.773153,364.791692 509.67584,361.546963 C509.666787,361.225658 509.795784,359.956276 509.949675,358.600912 C510.160143,356.731912 510.415873,354.695471 510.415873,354.695471 L513.231166,354.948895 C513.231166,354.948895 511.970621,362.990573 511.839361,363.748581" id="Fill-90" fill="#CC9694" mask="url(#mask-2)"></path>
                    <path d="M543.901797,294.775693 C532.658728,291.524176 524.344107,294.757592 523.119771,296.979575 C518.437422,305.473795 509.484608,333.759956 506.734944,347.548922 C506.517687,348.630498 513.311506,350.725769 515.407135,351.329914 C516.581682,349.361354 541.901219,297.73532 543.901797,294.775693" id="Fill-91" fill="#67B1FF" mask="url(#mask-2)"></path>
                    <path d="M523.119319,296.978669 C526.326128,289.916746 537.555618,254.774568 549.353146,249.430042 C553.241148,247.669653 555.787133,248.495542 558.740475,248.072415 C560.435536,249.805653 561.451666,264.891153 560.229594,267.185542 C553.010312,280.734661 539.386464,301.424898 538.757323,303.302949 L523.119319,296.978669 Z" id="Fill-92" fill="#67B1FF" mask="url(#mask-2)"></path>
                    <path d="M545.165737,276.42872 C547.324732,276.039534 547.422045,284.24639 548.14171,288.749186 C547.026003,290.33761 544.796852,293.304025 543.742248,294.783839 C542.741959,287.966288 544.070398,281.458729 545.165737,276.42872" id="Fill-93" fill="#529AEB" mask="url(#mask-2)"></path>
                    <path d="M605.135787,251.032947 C602.96774,249.234092 595.777879,247.170498 591.471204,248.159303 C590.389443,250.313405 592.609542,261.939219 594.347601,263.590998 C604.857426,273.585397 623.715819,289.046507 624.322329,289.311244 L635.687606,277.192159 C631.650239,274.712227 612.28265,255.175973 605.135787,251.032947" id="Fill-94" fill="#F3D2BF" mask="url(#mask-2)"></path>
                    <path d="M679.997021,271.180813 C672.101073,277.509618 648.266129,294.688126 639.473994,295.235703 C637.100005,295.382779 630.860645,295.894152 624.320292,289.311923 C625.218742,284.985618 633.146373,278.41244 635.687832,277.190575 C638.826748,278.819728 675.835184,264.374575 675.835184,264.374575 L679.997021,271.180813 Z" id="Fill-95" fill="#F3D2BF" mask="url(#mask-2)"></path>
                    <path d="M699.319574,258.757846 C701.007845,258.327931 702.291022,258.594931 702.18013,259.427608 C702.096395,260.02949 692.482756,262.034253 692.670594,262.133812 C692.937639,262.269575 702.186919,260.027227 703.522147,260.144888 C704.425123,260.224083 704.529225,260.733193 704.2916,260.943625 C703.049159,262.041041 693.238631,263.600049 693.304261,263.844422 C693.349523,264.0096 703.795982,261.593024 705.090473,261.649592 C705.556672,261.672219 706.192602,262.131549 705.687931,262.735693 C704.977319,263.597786 694.773011,265.258617 694.748117,265.641015 C694.741328,265.792617 702.175604,264.744981 703.395413,264.912422 C705.135735,265.767727 702.644065,266.272312 697.850824,267.29732 C696.411494,267.605049 688.015402,268.738668 683.308159,269.363176 C681.334738,270.116659 680.044772,270.772846 680.044772,270.772846 C680.044772,270.772846 676.428342,265.371753 677.086903,263.355676 C679.519733,262.51621 682.798962,260.751295 684.208872,260.640422 C689.094899,260.251236 696.062977,259.588261 699.319574,258.757846" id="Fill-96" fill="#CC9694" mask="url(#mask-2)"></path>
                    <path d="M608.700619,265.848732 C606.512203,266.004859 606.193107,269.803953 606.60499,274.347478 C608.078267,275.607808 610.968243,277.933876 612.360048,279.105961 C611.484229,270.713563 611.162869,270.774656 608.700619,265.848732" id="Fill-97" fill="#F2BDA5" mask="url(#mask-2)"></path>
                    <path d="M610.047615,283.906304 C609.805463,273.463889 608.48834,253.585965 603.172324,250.913703 C588.405612,243.492008 564.783399,245.872381 550.408203,250.913703 C545.936322,252.484025 545.820904,274.656338 546.463623,285.840923 C546.78272,291.377779 544.578463,312.93916 542.709144,329.515787 C540.771933,346.68977 542.326681,351.312491 545.035609,354.084313 C557.143181,366.47266 604.720283,367.076804 610.880435,348.599499 C611.794726,345.85483 610.771806,337.290465 610.722018,335.240448 C610.292029,317.426118 610.378027,298.055042 610.047615,283.906304" id="Fill-98" fill="#F3D2BF" mask="url(#mask-2)"></path>
                    <path d="M545.003473,425.151114 C545.619035,421.632597 567.265564,425.517674 566.661317,430.794318 C562.3818,468.199208 553.779765,520.18275 553.754871,520.361504 C553.177781,524.294097 544.048446,522.081165 543.24052,519.73247 C542.615905,517.908725 538.490278,462.440606 545.003473,425.151114" id="Fill-99" fill="#CC9694" mask="url(#mask-2)"></path>
                    <path d="M574.804848,342.654903 L542.433499,342.584758 C541.641415,342.725047 539.92825,396.939623 544.873118,429.223996 C545.889249,435.851479 559.547043,436.181835 566.598856,431.608894 C568.957003,420.179936 574.804848,348.141979 574.804848,342.654903" id="Fill-100" fill="#F3D2BF" mask="url(#mask-2)"></path>
                    <path d="M542.886119,516.835294 C544.82333,517.020836 553.608675,517.604616 553.85309,517.740379 C559.399942,520.835769 566.750483,522.521489 569.491094,523.607591 C578.133864,527.035599 573.548829,527.368218 573.548829,527.368218 C563.659092,527.408947 553.622254,526.902099 543.341001,525.46754 C542.877066,523.722989 542.847646,520.23615 542.886119,516.835294" id="Fill-101" fill="#F3D2BF" mask="url(#mask-2)"></path>
                    <path d="M636.591487,387.157919 C637.207049,383.63714 658.853578,387.535792 658.247068,392.812436 C653.944919,430.215064 645.315728,482.194081 645.290834,482.370572 C644.711481,486.303165 635.582145,484.085708 634.778746,481.737013 C634.151868,479.913267 630.057924,424.445148 636.591487,387.157919" id="Fill-102" fill="#CC9694" mask="url(#mask-2)"></path>
                    <path d="M605.135787,250.576558 C602.96774,248.777703 595.777879,247.171177 591.471204,248.159982 C590.389443,250.314084 592.609542,261.939897 594.347601,263.591677 C604.857426,273.583813 623.715819,289.504253 624.322329,289.768991 L635.687606,274.905236 C631.650239,272.427567 612.28265,254.719584 605.135787,250.576558" id="Fill-103" fill="#67B1FF" mask="url(#mask-2)"></path>
                    <path d="M679.997021,272.095627 C672.101073,278.424432 648.266129,295.145873 639.473994,295.693449 C637.100005,295.840525 630.860645,296.351898 624.320292,289.769669 C625.218742,285.441102 633.146373,276.125517 635.687832,274.905915 C642.431863,277.2795 675.835184,263.458856 675.835184,263.458856 L679.997021,272.095627 Z" id="Fill-104" fill="#67B1FF" mask="url(#mask-2)"></path>
                    <path d="M608.279456,267.221067 C606.091041,267.377194 609.42911,273.004558 609.843257,277.545821 C611.31427,278.808414 614.206509,281.134482 615.596051,282.30883 C614.880912,275.455075 610.58329,271.825686 608.279456,267.221067" id="Fill-105" fill="#529AEB" mask="url(#mask-2)"></path>
                    <path d="M545.003473,425.151114 C545.619035,421.632597 567.265564,425.517674 566.661317,430.794318 C563.757763,456.170631 558.864946,488.258148 556.01118,506.32364 C555.938761,506.787496 542.185916,506.878004 542.172338,506.626843 C541.124523,487.595174 540.357333,451.749292 545.003473,425.151114" id="Fill-106" fill="#1A3149" mask="url(#mask-2)"></path>
                    <path d="M574.804848,342.654903 L542.433499,342.584758 C541.641415,342.725047 539.92825,396.939623 544.873118,429.223996 C545.889249,435.851479 559.547043,436.181835 566.598856,431.608894 C568.957003,420.179936 574.804848,348.141979 574.804848,342.654903" id="Fill-107" fill="#1A3149" mask="url(#mask-2)"></path>
                    <path d="M636.591487,387.157919 C637.207049,383.63714 659.269988,390.585928 658.661215,395.862572 C655.762187,421.080496 650.480117,449.880292 647.608246,468.002352 C647.556195,468.328182 633.717353,468.658538 633.701511,468.328182 C632.671802,449.221843 631.956663,413.611284 636.591487,387.157919" id="Fill-108" fill="#1A3149" mask="url(#mask-2)"></path>
                    <path d="M591.675335,338.746068 L571.483978,359.723669 C571.146777,360.454525 614.602778,392.917653 643.903103,407.362805 C649.916153,410.32922 660.964596,402.767237 658.303193,390.928729 C652.905705,377.442966 595.572389,340.352593 591.675335,338.746068" id="Fill-109" fill="#1A3149" mask="url(#mask-2)"></path>
                    <path d="M542.709371,329.51624 C540.772159,346.690223 542.326907,351.312943 545.035835,354.082503 C557.141144,366.473113 604.720509,367.077257 610.880661,348.599952 C611.794952,345.855282 610.772032,337.290918 610.722244,335.238638 C584.35942,326.653909 574.757096,327.568045 542.709371,329.51624" id="Fill-110" fill="#1A3149" mask="url(#mask-2)"></path>
                    <path d="M610.504987,282.969315 C610.260572,272.402451 608.486304,252.293731 603.17255,249.58979 C588.405838,242.082112 564.781362,244.489637 550.408429,249.58979 C545.936548,251.178214 545.361721,273.610739 546.006704,284.926561 C546.325801,290.529036 535.621349,356.34001 539.090678,358.098137 C554.638158,365.972375 598.535463,367.798383 614.082944,353.493519 C616.226097,351.520434 610.835399,297.285493 610.504987,282.969315" id="Fill-111" fill="#67B1FF" mask="url(#mask-2)"></path>
                    <path d="M587.103878,235.747424 L576.440162,232.079568 C576.440162,232.079568 573.844389,243.194008 572.470689,248.62678 C574.704366,251.215322 584.661996,251.566042 586.979408,249.040856 C587.103878,244.022161 587.103878,235.747424 587.103878,235.747424" id="Fill-112" fill="#CC9694" mask="url(#mask-2)"></path>
                    <path d="M551.274516,528.796215 C559.49635,529.346054 569.157514,529.830275 576.376795,529.800859 C576.376795,529.800859 576.437899,529.730715 576.677787,527.920546 C576.806784,526.940792 571.966018,525.101207 569.442664,524.101088 C566.650002,522.994622 559.156885,521.274961 553.501404,518.118478 C553.252464,517.980453 543.362727,517.385359 541.387043,517.195292 C541.34857,520.661766 540.445594,526.083224 540.918582,527.863978 C543.156785,528.176232 545.510407,528.422868 547.927395,528.619724 L549.681296,526.544817 L551.274516,528.796215 Z" id="Fill-113" fill="#1A3149" mask="url(#mask-2)"></path>
                    <path d="M569.443343,523.634291 C567.32961,522.878545 562.787573,520.862469 558.293061,518.853181 C556.618369,517.049799 556.4509,516.420765 556.023174,510.182469 C555.93265,508.854257 541.222516,508.499011 541.319829,510.060282 C541.625347,514.891172 541.301724,516.880096 541.258725,518.187943 C541.016574,521.104579 540.550376,524.143401 540.91926,525.532706 C551.401929,526.992155 566.594103,527.960596 576.678466,527.92213 C576.678466,527.92213 576.212268,526.055392 569.443343,523.634291" id="Fill-114" fill="#1A3149" mask="url(#mask-2)"></path>
                    <path d="M542.292734,510.895675 C542.089056,511.035964 541.487072,510.877574 541.448599,510.830057 C540.767407,509.940811 540.373628,509.682862 540.158633,509.47243 C539.638121,509.037989 539.042926,508.635226 538.918456,508.311658 C539.036137,508.180421 539.158344,508.044658 539.280551,507.911158 C541.362601,506.039896 541.776748,509.47243 542.292734,510.895675" id="Fill-115" fill="#1A3149" mask="url(#mask-2)"></path>
                    <path d="M643.577443,490.352288 C651.799277,490.899864 661.46044,491.384085 668.679722,491.354669 C668.679722,491.354669 668.740825,491.286788 668.980714,489.474356 C669.10971,488.496864 664.268945,486.655017 661.745591,485.657161 C658.952928,484.548432 651.459812,482.828771 645.804331,479.674551 C645.55539,479.536525 635.665654,478.939169 633.689969,478.749102 C633.651497,482.215576 632.748521,487.637034 633.221508,489.417788 C635.459712,489.730042 637.813333,489.976678 640.230321,490.173534 L641.918592,488.091839 L643.577443,490.352288 Z" id="Fill-116" fill="#1A3149" mask="url(#mask-2)"></path>
                    <path d="M661.74627,485.190364 C659.632536,484.432355 655.090499,482.416279 650.595988,480.406991 C648.921295,478.605872 648.753826,477.976838 648.326101,471.736279 C648.235577,470.408067 633.525442,470.052821 633.622755,471.614092 C633.928273,476.447245 633.60465,478.433906 633.561652,479.741753 C633.3195,482.658389 632.853302,485.697211 633.222187,487.088779 C643.704855,488.545965 658.89703,489.514406 668.97913,489.47594 C668.97913,489.47594 668.512932,487.611465 661.74627,485.190364" id="Fill-117" fill="#1A3149" mask="url(#mask-2)"></path>
                    <path d="M634.595661,472.451522 C634.391982,472.59181 633.789998,472.431158 633.751526,472.383641 C633.070333,471.494395 632.676554,471.236446 632.46156,471.026014 C631.941047,470.591573 631.345853,470.18881 631.221382,469.865242 C631.339063,469.736268 631.461271,469.600505 631.583478,469.464742 C633.665528,467.595742 634.079675,471.028276 634.595661,472.451522" id="Fill-118" fill="#1A3149" mask="url(#mask-2)"></path>
                    <path d="M587.103878,239.52932 C585.985908,239.787269 582.935252,239.572312 581.615866,239.694498 C582.584472,239.60399 581.83765,239.997702 587.103878,241.547659 L587.103878,239.52932 Z" id="Fill-119" fill="#BC7575" mask="url(#mask-2)"></path>
                    <path d="M592.89424,217.95391 C585.670432,218.567105 575.887061,219.28891 572.610096,222.945453 C572.610096,222.945453 575.307708,238.62152 575.839536,238.75502 C581.861639,240.259724 587.849795,240.522198 593.75648,237.467537 C595.399489,230.889834 595.143759,224.384537 592.89424,217.95391" id="Fill-120" fill="#CC9694" mask="url(#mask-2)"></path>
                    <path d="M591.676467,245.732997 C586.188455,252.591277 574.300403,253.962481 568.812391,245.27593 C569.728946,244.818862 570.643237,244.818862 572.014675,244.818862 C576.128986,247.104201 580.245561,250.305938 588.474184,244.816599 C589.847884,244.818862 590.762175,245.27593 591.676467,245.732997" id="Fill-121" fill="#FFFFFF" mask="url(#mask-2)"></path>
                    <path d="M517.744462,348.517363 C513.734253,347.729939 510.53197,346.709456 506.967591,344.944541 C506.596443,345.716125 506.336187,346.951566 506.014827,347.743515 C505.863199,348.123651 515.709937,352.232736 515.979246,351.891066 C516.50881,350.922625 517.325789,349.440549 517.744462,348.517363" id="Fill-122" fill="#56A7FF" mask="url(#mask-2)"></path>
                    <path d="M672.540114,264.396976 C675.276199,267.431273 677.222463,270.169154 679.012573,273.721612 C679.772974,273.3279 680.723475,272.495222 681.456718,272.053993 C681.807499,271.841298 676.396432,262.6479 675.977759,262.75651 C674.972944,263.213578 673.429511,263.910493 672.540114,264.396976" id="Fill-123" fill="#56A7FF" mask="url(#mask-2)"></path>
                    <path d="M615.133927,350.411026 C573.167044,366.107458 549.542568,356.205831 537.969086,353.653492 C537.794828,354.490696 537.382944,357.651704 538.177291,357.973009 C578.415167,374.201179 611.338712,359.113416 614.692622,354.569891 C615.346658,353.680645 614.950616,351.406619 615.133927,350.411026" id="Fill-124" fill="#56A7FF" mask="url(#mask-2)"></path>
                    <path d="M589.672041,219.647776 C590.346444,219.561793 595.497255,219.165819 594.109976,215.4957 C593.100634,212.821175 575.901092,206.981115 569.743204,216.991353 C567.199482,221.12759 567.161009,224.677785 569.568945,229.965742 C570.564708,232.153785 575.106745,236.67242 575.638573,235.561429 C576.573232,231.879997 575.095429,224.971937 577.460366,221.935378 C579.445103,219.387564 586.460706,219.9012 589.672041,219.647776" id="Fill-125" fill="#1A3149" mask="url(#mask-2)"></path>
                    <path d="M573.79709,225.39167 C575.369943,225.138247 576.861325,226.260552 577.126107,227.898755 C577.390889,229.536958 576.329497,231.07334 574.754381,231.326764 C573.183791,231.580187 571.690146,230.457882 571.425364,228.819679 C571.160582,227.181475 572.224237,225.647357 573.79709,225.39167" id="Fill-126" fill="#CC9694" mask="url(#mask-2)"></path>
                </g>
                <g id="Group-130" transform="translate(197.000000, 248.000000)">
                    <mask id="mask-4" fill="white">
                        <use xlink:href="#path-3"></use>
                    </mask>
                    <g id="Clip-129"></g>
                    <polygon id="Fill-128" fill="#FFFFFF" mask="url(#mask-4)" points="40.6998351 0.479286032 27.1147541 0.596080888 26.6077811 1.11267352 26.6100243 1.11716563 25.5848622 2.16158118 25.730673 19.0002551 25.7486189 21.0239506 13.5319162 21.1362533 1.09986216 21.2395718 0.561483784 21.2440639 0.561483784 22.8881762 1.07294324 22.8926683 12.9262405 22.9937407 41.5118892 23.2722515 54.3611865 23.3912925 54.3454838 23.4092609 54.3297811 26.6143813 54.3028622 26.6301037 54.1592946 40.0390517 54.1435919 40.0210832 53.5401595 40.0165911 39.6971054 40.0053608 39.6118622 39.888566 29.4028622 39.8413988 26.726673 39.8503831 24.1110514 39.8840739 19.1018892 39.9986227 14.4583757 40.1513544 10.2837 40.3198085 3.78502432 40.6050575 0.720754054 40.7398208 0.561483784 40.746559 0.561483784 42.3884251 0.727483784 42.3974094 3.94429459 42.5321726 10.8175919 42.8151756 15.2681865 42.9836297 20.2392135 43.1386075 25.5960784 43.2509102 25.730673 58.9283737 25.7553486 61.5944409 25.7688081 61.5944409 27.1147541 62.9218594 39.0577811 62.8028185 69.2652946 62.5220616 81.6995919 62.4209891 82.2379703 62.416497 82.2379703 60.7723848 81.7242676 60.7678927 69.8732135 60.6668202 41.2875649 60.3815712 28.4382676 60.2692685 28.4562135 60.2468079 28.4719162 57.0439336 28.4965919 57.0282112 28.6401595 43.6215093 28.6558622 43.6372317 29.2570514 43.6417238 43.1001054 43.6529541 43.1875919 43.771995 53.3965919 43.8191621 56.0727811 43.8079319 58.6884027 43.7764871 63.6975649 43.6619383 68.3388351 43.5069605 72.5179973 43.3407524 79.0144297 43.0555034 82.0787 42.9207402 82.2379703 42.9117559 82.2379703 41.2698898 82.069727 41.2609056 78.8529162 41.1238962 71.9796189 40.8408933 67.5290243 40.6769313 62.5579973 40.5197074 57.2011324 40.4051586 57.0665378 24.7299412 57.0485919 22.7062457 69.2652946 22.5894508 81.6995919 22.4906244 82.2379703 22.4861323 82.2379703 20.8420201 81.7242676 20.837528 69.8732135 20.7319634 41.2875649 20.4534526 28.4382676 20.3344117 28.4562135 20.3186893 28.4719162 17.1135689 28.4965919 17.0978465 28.6401595 3.68889854 28.6558622 3.70462092 29.2570514 3.71135909 43.1001054 3.72034331 43.1875919 3.83938422 53.3965919 3.88879743 56.0727811 3.8753211 58.6884027 3.84612238 63.6975649 3.72932753 68.3388351 3.57434974 72.5179973 3.41038773 79.0144297 3.12513875 82.0787 2.99037545 82.2379703 2.98139123 82.2379703 1.33727902 82.069727 1.3282948 78.8529162 1.1935315 71.9796189 0.91052858 67.5290243 0.744320514 62.5579973 0.589342724 57.1854297 0.474793922 54.3858622 0.441103098 51.5324568 0.432118878"></polygon>
                </g>
                <g id="Group-133" transform="translate(1083.000000, 322.000000)">
                    <mask id="mask-6" fill="white">
                        <use xlink:href="#path-5"></use>
                    </mask>
                    <g id="Clip-132"></g>
                    <polygon id="Fill-131" fill="#FFFFFF" mask="url(#mask-6)" points="41.9052551 0.878826667 55.4720027 0.995497931 55.9782915 1.51154391 55.9760513 1.51603126 56.99983 2.55934161 56.8542159 19.3801968 56.8362942 21.4017508 69.0365101 21.5139347 81.4517868 21.6171439 81.9894386 21.6216313 81.9894386 23.2640037 81.4786694 23.268491 69.6413684 23.3694566 41.0942969 23.6476726 28.2623401 23.7665876 28.2780216 23.784537 28.2937031 26.9862657 28.3205857 27.0019715 28.4639595 40.3967301 28.479641 40.3787807 29.0822591 40.3742933 42.9066316 40.3630749 42.9917598 40.2464037 53.1869825 40.1992864 55.8595601 40.2082611 58.4716518 40.2419163 63.474054 40.3563439 68.1113009 40.508914 72.2803428 40.6771899 78.7702483 40.962137 81.8303833 41.0967577 81.9894386 41.1034887 81.9894386 42.7436175 81.8236626 42.7525922 78.611193 42.8872129 71.7471714 43.1699163 67.302583 43.3381922 62.3382645 43.493006 56.9886289 43.6051899 56.8542159 59.2660634 56.8295735 61.9293094 56.8161323 61.9293094 55.4720027 63.2553232 43.5450931 63.1364083 13.3783455 62.8559485 0.96082861 62.754983 0.423176788 62.7504956 0.423176788 61.1081232 0.936186235 61.1036359 12.771247 61.0026703 41.3183185 60.7177232 54.1502753 60.6055393 54.1323536 60.5831025 54.1166721 57.3836175 54.0920297 57.3679117 53.9486559 43.9753968 53.9329744 43.9911025 53.3325965 43.9955899 39.508224 44.0068083 39.4208556 44.1257232 29.2278731 44.1728405 26.5530553 44.1616221 23.9409636 44.1302106 18.9385614 44.015783 14.3035547 43.8609692 10.1300324 43.694937 3.64236707 43.4099899 0.582232119 43.2753692 0.423176788 43.2663945 0.423176788 41.6262657 0.591192982 41.617291 3.80366262 41.4804267 10.6676842 41.1977232 15.1122726 41.0339347 20.0765911 40.8768772 25.4239865 40.7624497 25.5606397 25.1038198 25.5785614 23.0822657 13.3783455 22.9655945 0.96082861 22.8668726 0.423176788 22.8623853 0.423176788 21.2200129 0.936186235 21.2132818 12.771247 21.1100726 41.3183185 20.8318566 54.1502753 20.7129416 54.1323536 20.6972359 54.1166721 17.4955071 54.0920297 17.4798014 53.9486559 4.08504276 53.9329744 4.10074851 53.3325965 4.10747954 39.508224 4.11645425 39.4208556 4.2353692 29.2278731 4.28473011 26.5530553 4.27126805 23.9409636 4.24210023 18.9385614 4.12542897 14.3035547 3.97061517 10.1300324 3.80682667 3.64236707 3.52187954 0.582232119 3.38725885 0.423176788 3.37828414 0.423176788 1.73591172 0.591192982 1.72693701 3.80366262 1.59231632 10.6676842 1.30961287 15.1122726 1.14358069 20.0765911 0.988766897 25.4419082 0.87433931 28.2376977 0.840684138 31.0872524 0.831709425"></polygon>
                </g>
                <g id="Group-168" transform="translate(133.000000, 61.000000)">
                    <path d="M904.625889,0.648506211 L983.982356,5.77827844 C996.817134,5.77827844 1005.50648,14.4498749 1005.50648,27.2528467 L1005.50648,56.9065894 C1005.50648,69.7118201 995.101001,78.3811577 982.268486,78.3811577 L950.300402,78.3811577 L934.898216,88.803337 L934.898216,76.6712336 L906.342023,76.6712336 C893.507244,76.6712336 883.101769,66.2919719 883.101769,53.4867413 L883.101769,23.8329986 C883.101769,11.0300268 891.791111,0.648506211 904.625889,0.648506211" id="Fill-134" fill="#4CDF76"></path>
                    <path d="M925.95734,42.211633 C925.15361,40.4316856 924.999656,38.2925864 925.773954,36.5962152 C926.473539,35.0828081 928.096847,33.8472355 929.60469,34.0347173 C929.815245,35.7627119 929.151885,37.6013885 928.339098,39.3632654 C927.745923,40.6372379 927.116523,41.8886222 926.455426,43.1174184 C926.278832,42.8237722 926.09771,42.5323849 925.95734,42.211633 M908.651105,25.9458955 C909.056367,24.9587927 909.495588,23.9852428 909.971034,23.0297634 C910.432896,22.0539547 910.910606,21.1775339 911.546798,20.4908537 C912.176198,19.7996559 912.905215,19.4517981 913.613856,19.6166917 C914.288537,19.7544795 914.890768,20.4321245 915.209996,21.2927335 C915.873357,23.0026576 915.406967,25.1440156 914.471923,26.8539397 C913.507447,28.5796755 911.875082,29.8920479 910.007259,30.7142571 C908.929581,31.1999026 907.799831,31.5071017 906.640648,31.7103951 C907.208919,29.7542601 907.881336,27.8274896 908.651105,25.9458955 M989.744082,38.5297621 C987.658912,37.8950347 985.673359,36.9485906 983.871192,35.7401237 C982.981429,35.146055 982.08261,34.4480807 981.3468,33.7546241 C981.147566,33.5626247 981.00946,33.3638488 980.909843,33.176367 C981.106813,32.7223449 981.32416,32.2773581 981.496226,31.8120419 L981.512074,31.7713832 C981.573203,31.6042308 981.579995,31.4144902 981.516602,31.2315261 C981.369441,30.8204215 980.914371,30.6058339 980.504582,30.752657 C979.429168,31.1343969 979.114468,32.1644173 979.191445,32.9572618 C979.191445,32.9708147 979.198237,32.9821088 979.200501,32.9956617 C977.905477,35.7514178 976.209719,38.3151745 974.149453,40.549144 C972.901974,41.8728105 971.518652,43.2032534 970.076466,44.1519563 C968.641072,45.1300239 967.067572,45.2565176 965.190692,45.0893652 C961.450517,44.8250836 957.669589,44.4568965 955.290095,41.9383162 C952.885697,39.5146061 951.837451,35.7265708 952.557412,32.3699696 L952.555148,32.3699696 C952.557412,32.3654519 952.557412,32.3609343 952.559676,32.3541578 C952.670614,31.8120419 952.321953,31.2767024 951.776323,31.1615027 C951.228428,31.0463031 950.694117,31.3964197 950.576387,31.9407944 L950.576387,31.9566061 L950.574123,31.9566061 C949.745489,36.0676521 948.142557,40.0476868 945.86268,43.5578876 C944.726137,45.2836234 943.363192,46.7947716 941.599514,47.5763221 C939.835836,48.3827196 937.759721,48.5656837 935.73568,48.3398021 C932.6,48.0032384 929.400928,46.6953837 927.37915,44.3959085 C928.198729,42.9457483 928.961706,41.4707412 929.670347,39.9776635 C930.573695,38.0192696 931.556283,35.7378649 931.051405,33.2486492 C931.001596,33.0001794 930.820474,32.783333 930.562374,32.6952391 L930.54879,32.6907215 C929.265086,32.2570287 927.847804,32.5574513 926.792767,33.2057317 C925.715089,33.8494944 924.893247,34.8072325 924.336296,35.9027585 C923.274466,38.1683515 923.489549,40.7275905 924.408745,42.8825015 C924.696276,43.5691817 925.085689,44.1993915 925.515855,44.8002366 C925.463782,44.8883305 925.423029,44.9786831 925.368693,45.0645182 C923.195225,48.6741069 920.175011,51.9764966 916.194849,53.2211045 C914.243256,53.8739024 912.126389,54.0523489 910.158949,53.6299503 C908.216412,53.2256221 906.364437,52.0984727 905.338832,50.5060071 C904.326811,49.0197058 904.621135,46.7292659 904.59623,44.6104961 C904.657359,42.4759145 904.852065,40.3458505 905.178086,38.236116 C905.436185,36.5691094 905.800693,34.924691 906.219539,33.2960843 C907.716062,33.1221554 909.201264,32.7855918 910.643451,32.1598996 C914.902088,30.4906342 918.338884,25.6409553 916.801608,20.6986648 C916.387291,19.5557037 915.495264,18.2952841 913.996477,17.9338734 C912.518066,17.5634275 911.055504,18.3856367 910.263094,19.2914221 C909.409555,20.1949487 908.843548,21.2633689 908.368102,22.2369188 C907.870016,23.2217628 907.40589,24.2269361 906.975724,25.2434036 C906.04068,27.416385 905.289023,29.6593898 904.684527,31.9430532 C902.345786,32.1079468 899.918747,31.9227239 897.523405,31.6991011 C897.17248,31.6674776 896.85778,31.9204651 896.819292,32.2728404 C896.778539,32.6297335 897.036639,32.9482266 897.394355,32.9888853 C899.626687,33.2373551 901.974485,33.5016366 904.324547,33.4361309 C903.973622,34.9382439 903.66345,36.4516509 903.441576,37.9763521 C903.126876,40.1606276 902.948017,42.3652325 902.907265,44.5698374 C902.884625,45.6789163 902.900473,46.765407 902.950281,47.8902976 C902.995562,49.0084117 903.264981,50.3388547 903.969094,51.3756514 C905.345624,53.435692 907.548524,54.6690058 909.837456,55.1388397 C912.13771,55.6041559 914.505883,55.3579449 916.665767,54.6125354 C918.839234,53.8942318 920.815731,52.6021888 922.420927,51.0368289 C924.005748,49.5279395 925.32794,47.7931685 926.464483,45.9703036 C927.229724,46.7767011 928.096847,47.4769342 929.031891,48.0303442 C931.0265,49.2229993 933.254304,49.9006443 935.518333,50.1897728 C937.780098,50.4653484 940.189024,50.3207841 942.40098,49.3517519 C944.658217,48.389496 946.308693,46.519196 947.529005,44.6556724 C948.862518,42.6114435 949.951515,40.4316856 950.827695,38.1683515 C951.389174,40.1018984 952.39893,41.9066927 953.834325,43.3771823 C955.285567,44.881554 957.273384,45.8980215 959.238561,46.3407495 C961.219586,46.8128421 963.162122,46.9099712 965.061642,47.0387238 C966.030647,47.0951942 967.063044,47.1223 968.127137,46.937077 C969.207079,46.7586305 970.237212,46.2865379 971.095279,45.719575 C972.802356,44.5472492 974.142661,43.1919593 975.47391,41.7463168 C977.35079,39.6523939 978.931082,37.3009659 980.185354,34.789162 C980.210258,34.814009 980.235162,34.8433736 980.257803,34.8682206 C981.176998,35.6859121 982.078082,36.3364513 983.067462,36.9689199 C985.023583,38.2090102 987.156298,39.1577131 989.381838,39.77437 C989.719178,39.8669815 990.074631,39.6749821 990.176512,39.3384184 C990.280657,38.9950783 990.085951,38.6336677 989.744082,38.5297621" id="Fill-136" fill="#FFFFFF"></path>
                    <path d="M1041.78527,27.8017391 L1081.80877,30.3903428 C1088.27936,30.3903428 1092.66252,34.7634115 1092.66252,41.219109 L1092.66252,56.1769917 C1092.66252,62.6326892 1087.4145,67.0057579 1080.94391,67.0057579 L1064.82176,67.0057579 L1057.05162,72.2620239 L1057.05162,66.14289 L1042.65013,66.14289 C1036.17727,66.14289 1030.92925,60.9069534 1030.92925,54.4489971 L1030.92925,39.495632 C1030.92925,33.0376757 1035.31468,27.8017391 1041.78527,27.8017391" id="Fill-138" fill="#C8D4E5"></path>
                    <path d="M970.872951,101.27494 L998.288074,103.048111 C1002.72331,103.048111 1005.72767,106.043302 1005.72767,110.468323 L1005.72767,120.712056 C1005.72767,125.137078 1002.13239,128.132268 997.697162,128.132268 L986.653231,128.132268 L981.330499,131.732822 L981.330499,127.540458 L971.463863,127.540458 C967.030895,127.540458 963.435617,123.955717 963.435617,119.530695 L963.435617,109.284704 C963.435617,104.861941 966.437719,101.27494 970.872951,101.27494" id="Fill-140" fill="#DCE7F2"></path>
                    <path d="M986.714586,153.226816 L1007.68628,158.790281 C1011.11855,159.470185 1012.98637,162.248529 1012.30717,165.677412 L1010.73367,173.614893 C1010.05446,177.041518 1006.8101,178.81243 1003.37331,178.134785 L994.81528,176.447449 L990.142325,178.423914 L990.785309,175.175736 L983.139685,173.666846 C979.702889,172.99146 977.470557,169.661965 978.149765,166.233081 L979.721001,158.2956 C980.402474,154.868975 983.27779,152.549171 986.714586,153.226816" id="Fill-142" fill="#DCE7F2"></path>
                    <path d="M427.655283,82.2184352 L364.445868,79.0131746 C354.298492,77.83859 346.630227,83.8989946 345.452932,94.0207513 L342.727041,117.465007 C341.549746,127.589023 348.980288,135.395493 359.125401,136.570077 L384.398752,139.495245 L395.617014,149.14265 L396.73318,139.551715 L419.310073,142.165166 C429.457449,143.33975 438.638086,136.084432 439.81538,125.962675 L442.541271,102.518419 C443.716302,92.3944034 437.800395,83.3930197 427.655283,82.2184352" id="Fill-144" fill="#4CDF76"></path>
                    <path d="M399.907801,105.714418 C399.488956,105.477243 399.319153,105.267173 399.291985,105.02322 C399.174256,104.514987 399.932705,103.61146 400.745491,103.292967 C402.506906,102.633393 404.804895,103.207132 406.453108,104.45174 C408.153393,105.712159 409.231071,107.629895 409.756325,109.710265 C409.858207,110.096522 409.921599,110.491815 409.98952,110.887108 C407.127788,109.398548 404.254736,107.939353 401.386211,106.473381 L399.907801,105.714418 Z M425.733575,118.23052 L425.708671,118.149203 C425.237753,116.954289 423.917824,116.448314 422.788074,116.979136 C422.588839,117.092077 422.446206,117.247935 422.299044,117.403794 L419.518817,115.924269 L413.498765,112.725785 C412.876157,112.386962 412.242229,112.068469 411.612829,111.736423 C411.520004,110.932284 411.390954,110.130405 411.178135,109.335301 C410.575904,107.044861 409.280879,104.790562 407.279478,103.353955 C405.355054,101.89476 402.755949,101.009304 400.161372,101.887983 C399.522916,102.152265 398.959173,102.538522 398.490519,103.062568 C398.039977,103.579837 397.612076,104.302658 397.704901,105.210702 C397.779614,106.134558 398.524479,106.814462 399.079166,107.117143 L400.614178,107.946129 C403.810986,109.6425 406.996474,111.352424 410.211395,113.010396 C410.249884,114.072039 410.200075,115.142718 410.089137,116.204362 C409.9782,117.286335 409.740477,118.228262 409.138245,118.901389 C408.53375,119.597104 407.630402,120.132444 406.643286,120.534513 C404.689429,121.374793 402.534074,121.733945 400.401359,121.618745 C396.124609,121.43804 391.963324,119.443505 389.341579,116.089162 C388.62841,115.239847 387.84732,114.110439 386.35759,113.547994 C385.628572,113.281453 384.802202,113.258865 384.079977,113.464418 C383.360016,113.660935 382.769104,114.008792 382.25517,114.358909 C381.234093,115.070436 380.421307,115.838434 379.565504,116.34215 C378.741397,116.850384 377.851634,117.019795 376.873574,116.900077 C374.901605,116.644831 373.060949,115.411517 371.424057,113.931993 C369.748676,112.475056 367.982733,110.776426 365.632672,109.94744 L365.184394,111.155907 C367.142779,111.939717 368.67779,113.561547 370.350907,115.12013 C372.014968,116.687749 374.045802,118.257626 376.631323,118.673248 C377.901443,118.892354 379.373061,118.65066 380.502812,117.979792 C381.623506,117.347323 382.492893,116.561255 383.357752,116.007845 C384.233931,115.434106 384.985588,115.219518 385.667061,115.479282 C386.35759,115.709681 387.03227,116.493491 387.727327,117.381205 C390.695468,121.248299 395.535962,123.455163 400.331174,123.568104 C402.740101,123.638127 405.171667,123.177328 407.372303,122.16312 C408.463565,121.677474 409.579731,121.026935 410.446854,119.981103 C411.347937,118.905907 411.606037,117.507699 411.689806,116.353444 C411.750934,115.510905 411.764519,114.659332 411.750934,113.807758 C412.06337,113.965875 412.369014,114.133027 412.68145,114.288886 L418.753575,117.385723 L421.739829,118.910424 C421.757941,119.269576 421.837182,119.626469 422.050001,119.951739 L422.790338,119.445764 L422.942028,119.522563 C423.138998,119.619693 423.324649,119.673904 423.512563,119.721339 C423.890656,119.800398 424.259693,119.836539 424.714762,119.730375 C424.938901,119.669386 425.215113,119.579034 425.480004,119.287647 C425.75848,118.987224 425.808288,118.506096 425.733575,118.23052 L425.733575,118.23052 Z" id="Fill-146" fill="#FFFFFF"></path>
                    <path d="M355.553669,157.44109 L325.127388,159.408519 C320.207654,159.408519 316.875004,162.733497 316.875004,167.641905 L316.875004,179.010528 C316.875004,183.921195 320.864223,187.246173 325.786221,187.246173 L338.041408,187.246173 L343.948258,191.239761 L343.948258,186.588858 L354.897101,186.588858 C359.816835,186.588858 363.806053,182.611082 363.806053,177.700415 L363.806053,166.331791 C363.806053,161.421124 360.475667,157.44109 355.553669,157.44109" id="Fill-148" fill="#C8D4E5"></path>
                    <path d="M1065.06899,100.769869 L1039.65301,102.414287 C1035.5438,102.414287 1032.75904,105.190373 1032.75904,109.290125 L1032.75904,118.788448 C1032.75904,122.8882 1036.09169,125.664285 1040.20317,125.664285 L1050.4411,125.664285 L1055.37442,129.002816 L1055.37442,125.117652 L1064.5211,125.117652 C1068.63031,125.117652 1071.96296,121.792674 1071.96296,117.692922 L1071.96296,108.194599 C1071.96296,104.094847 1069.17821,100.769869 1065.06899,100.769869" id="Fill-150" fill="#C8D4E5"></path>
                    <path d="M7.8487182,346.318129 C8.07512106,347.443019 8.22454695,348.570169 8.41472535,349.695059 C8.59131958,350.81995 8.8380987,351.947099 8.8380987,353.07199 C8.87885122,354.19688 8.66829656,355.32403 8.50302247,356.44892 C8.31963615,357.573811 8.14530595,358.70096 7.8487182,359.825851 C7.82834194,359.90491 7.74910094,359.952345 7.66985994,359.929757 C7.61778728,359.918463 7.57929879,359.875545 7.56571462,359.825851 C7.26912687,358.70096 7.09479667,357.573811 6.91141035,356.44892 C6.74613626,355.32403 6.5355816,354.19688 6.57633412,353.07199 C6.57633412,351.947099 6.82311323,350.81995 6.99970747,349.695059 C7.18988587,348.570169 7.33931176,347.443019 7.56571462,346.318129 C7.58156282,346.241329 7.65853979,346.189376 7.73551677,346.205188 C7.79438151,346.216482 7.83739805,346.263917 7.8487182,346.318129" id="Fill-152" fill="#56A7FF"></path>
                    <path d="M0.937318042,352.931266 C2.06706832,352.705384 3.19455457,352.556302 4.32204082,352.366561 C5.4517911,352.190374 6.57927735,351.944163 7.7067636,351.944163 C8.83651388,351.905763 9.96400013,352.115833 11.0914864,352.280726 C12.2212367,352.463691 13.3487229,352.635361 14.4762092,352.931266 C14.5554502,352.951595 14.6029948,353.032912 14.5826185,353.109712 C14.5690343,353.163924 14.5260178,353.200065 14.4762092,353.213618 C13.3487229,353.509523 12.2212367,353.683451 11.0914864,353.866416 C9.96400013,354.031309 8.83651388,354.241379 7.7067636,354.20072 C6.57927735,354.20072 5.4517911,353.954509 4.32204082,353.778322 C3.19455457,353.588581 2.06706832,353.439499 0.937318042,353.213618 C0.85807704,353.197806 0.80826841,353.123265 0.824116611,353.044206 C0.835436754,352.985477 0.882981355,352.94256 0.937318042,352.931266" id="Fill-154" fill="#56A7FF"></path>
                    <path d="M171.783598,154.823799 C172.010001,155.950949 172.159427,157.075839 172.349605,158.20073 C172.5262,159.327879 172.772979,160.45277 172.772979,161.57766 C172.813731,162.70481 172.603177,163.8297 172.437903,164.954591 C172.254516,166.08174 172.080186,167.206631 171.783598,168.331522 C171.763222,168.41058 171.683981,168.458015 171.60474,168.437686 C171.552667,168.424133 171.514179,168.381216 171.500595,168.331522 C171.204007,167.206631 171.029677,166.08174 170.84629,164.954591 C170.681016,163.8297 170.470462,162.70481 170.511214,161.57766 C170.511214,160.45277 170.757993,159.327879 170.934588,158.20073 C171.124766,157.075839 171.274192,155.950949 171.500595,154.823799 C171.516443,154.744741 171.59342,154.695047 171.670397,154.710858 C171.729262,154.722152 171.772278,154.769588 171.783598,154.823799" id="Fill-156" fill="#56A7FF"></path>
                    <path d="M164.872198,161.436936 C166.001948,161.211054 167.129435,161.061973 168.256921,160.872232 C169.386671,160.696044 170.514157,160.449833 171.641644,160.449833 C172.771394,160.409175 173.89888,160.621503 175.026366,160.784138 C176.156117,160.969361 177.283603,161.14329 178.411089,161.436936 C178.49033,161.457265 178.537875,161.536324 178.517499,161.615383 C178.503914,161.669594 178.460898,161.707994 178.411089,161.719288 C177.283603,162.015193 176.156117,162.189122 175.026366,162.372086 C173.89888,162.53698 172.771394,162.74705 171.641644,162.706391 C170.514157,162.706391 169.386671,162.462439 168.256921,162.283992 C167.129435,162.094252 166.001948,161.94517 164.872198,161.719288 C164.792957,161.703476 164.743148,161.626677 164.758997,161.549877 C164.770317,161.491148 164.817861,161.44823 164.872198,161.436936" id="Fill-158" fill="#56A7FF"></path>
                    <path d="M972.883252,238.505947 C973.109655,239.630838 973.259081,240.755729 973.44926,241.882878 C973.625854,243.007769 973.872633,244.132659 973.872633,245.259809 C973.911121,246.384699 973.700567,247.50959 973.535293,248.636739 C973.351906,249.76163 973.17984,250.88652 972.883252,252.01367 C972.860612,252.092728 972.781371,252.137905 972.704394,252.117575 C972.650058,252.106281 972.613833,252.063364 972.600249,252.01367 C972.303661,250.88652 972.129331,249.76163 971.945945,248.636739 C971.780671,247.50959 971.570116,246.384699 971.610868,245.259809 C971.610868,244.132659 971.855383,243.007769 972.034242,241.882878 C972.22442,240.755729 972.371582,239.630838 972.600249,238.505947 C972.616097,238.426889 972.69081,238.374936 972.770051,238.390748 C972.828916,238.404301 972.871932,238.451736 972.883252,238.505947" id="Fill-160" fill="#56A7FF"></path>
                    <path d="M965.971626,245.119084 C967.099112,244.890944 968.226598,244.744121 969.356349,244.55438 C970.483835,244.375934 971.611321,244.131982 972.741071,244.131982 C973.868558,244.091323 974.996044,244.301393 976.125794,244.466286 C977.25328,244.649251 978.380767,244.823179 979.510517,245.119084 C979.589758,245.139414 979.635039,245.218472 979.614662,245.295272 C979.603342,245.349484 979.560326,245.387884 979.510517,245.401436 C978.380767,245.697341 977.25328,245.869011 976.125794,246.051976 C974.996044,246.216869 973.868558,246.426939 972.741071,246.388539 C971.611321,246.388539 970.483835,246.142328 969.356349,245.966141 C968.226598,245.774141 967.099112,245.627318 965.971626,245.401436 C965.892385,245.385625 965.840312,245.308825 965.858424,245.232025 C965.869745,245.171037 965.917289,245.130378 965.971626,245.119084" id="Fill-162" fill="#56A7FF"></path>
                    <path d="M937.903034,387.33417 C938.131701,388.461319 938.278863,389.58621 938.469042,390.711101 C938.6479,391.83825 938.892415,392.963141 938.892415,394.088031 C938.933167,395.215181 938.722613,396.340071 938.557339,397.464962 C938.373952,398.592111 938.199622,399.717002 937.903034,400.841892 C937.882658,400.92321 937.803417,400.968386 937.72644,400.945798 C937.672103,400.934504 937.633615,400.893845 937.620031,400.841892 C937.325707,399.717002 937.151377,398.592111 936.967991,397.464962 C936.802716,396.340071 936.592162,395.215181 936.63065,394.088031 C936.63065,392.963141 936.877429,391.83825 937.054024,390.711101 C937.246466,389.58621 937.393628,388.461319 937.620031,387.33417 C937.638143,387.25737 937.712856,387.205417 937.789833,387.221229 C937.850962,387.232523 937.891714,387.279958 937.903034,387.33417" id="Fill-164" fill="#56A7FF"></path>
                    <path d="M930.991634,393.947307 C932.121385,393.721425 933.248871,393.572343 934.376357,393.382603 C935.506107,393.206415 936.633594,392.960204 937.76108,392.960204 C938.89083,392.921804 940.018316,393.131874 941.145803,393.296768 C942.275553,393.479732 943.403039,393.651402 944.530525,393.947307 C944.61203,393.969895 944.657311,394.048954 944.636935,394.125753 C944.623351,394.179965 944.582598,394.216106 944.530525,394.229659 C943.403039,394.525564 942.275553,394.699493 941.145803,394.882457 C940.018316,395.047351 938.89083,395.25742 937.76108,395.216762 C936.633594,395.216762 935.506107,394.970551 934.376357,394.794363 C933.248871,394.604623 932.121385,394.457799 930.991634,394.229659 C930.914657,394.213847 930.862585,394.139306 930.878433,394.060248 C930.892017,394.001519 930.937298,393.958601 930.991634,393.947307" id="Fill-166" fill="#56A7FF"></path>
                </g>
            </g>
        </g>
    </g>
</svg>