<svg xmlns="http://www.w3.org/2000/svg" xmlns:xlink="http://www.w3.org/1999/xlink" viewBox="0 0 250 200"><defs><style>.cls-1{fill:none;}.cls-2{fill:#eaf2fb;}.cls-11,.cls-2,.cls-4,.cls-6,.cls-8,.cls-9{fill-rule:evenodd;}.cls-3{fill:#d6e3f2;}.cls-4,.cls-7{fill:#fff;}.cls-5{fill:#c8d4e5;}.cls-6{fill:#79e798;}.cls-8{fill:#f3d2bf;}.cls-9{fill:#cc9694;}.cls-10{fill:#225e9f;}.cls-11{fill:#ffed72;}.cls-12{clip-path:url(#clip-path);}.cls-13{clip-path:url(#clip-path-2);}.cls-14{fill:#ffdb76;}.cls-15{clip-path:url(#clip-path-3);}.cls-16{clip-path:url(#clip-path-5);}.cls-17{fill:#57a7ff;}.cls-18{clip-path:url(#clip-path-7);}.cls-19{fill:#4cdf76;}.cls-20{clip-path:url(#clip-path-9);}.cls-21{clip-path:url(#clip-path-10);}.cls-22{clip-path:url(#clip-path-11);}.cls-23{clip-path:url(#clip-path-13);}.cls-24{clip-path:url(#clip-path-15);}.cls-25{clip-path:url(#clip-path-17);}</style><clipPath id="clip-path"><rect class="cls-1" x="202.94" y="59.88" width="8.46" height="8.89" transform="matrix(0.86, -0.51, 0.51, 0.86, -3.81, 114.76)"/></clipPath><clipPath id="clip-path-2"><rect class="cls-1" x="202.94" y="59.88" width="8.46" height="8.89" transform="translate(-3.81 114.76) rotate(-30.69)"/></clipPath><clipPath id="clip-path-3"><rect class="cls-1" x="36" y="127" width="6.08" height="6.08"/></clipPath><clipPath id="clip-path-5"><rect class="cls-1" x="62" y="45" width="6.08" height="6.08"/></clipPath><clipPath id="clip-path-7"><rect class="cls-1" x="87" y="36" width="10" height="10"/></clipPath><clipPath id="clip-path-9"><rect class="cls-1" x="52.72" y="64.09" width="8.89" height="8.46" transform="translate(-5.88 5.39) rotate(-5.13)"/></clipPath><clipPath id="clip-path-10"><rect class="cls-1" x="52.72" y="64.09" width="8.89" height="8.46" transform="translate(-5.88 5.39) rotate(-5.13)"/></clipPath><clipPath id="clip-path-11"><rect class="cls-1" x="116" y="55" width="6.08" height="6.08"/></clipPath><clipPath id="clip-path-13"><rect class="cls-1" x="46" y="109" width="6.08" height="6.08"/></clipPath><clipPath id="clip-path-15"><rect class="cls-1" x="149" y="109" width="6.08" height="6.08"/></clipPath><clipPath id="clip-path-17"><rect class="cls-1" x="199" y="139" width="6.08" height="6.08"/></clipPath></defs><title>Magical_quality</title><g id="Calque_6" data-name="Calque 6"><path id="blob" class="cls-2" d="M222,154.15a27,27,0,0,0-3.64-8.51c-5.71-8.68-17.79-6.3-10.79-12.86s7.47-36.32-7.19-45-38.37,3.47-39.55-6.43S138.59,47.8,99.75,46,91,94.54,49.41,98.85,27.83,154,27.83,154Z"/><path class="cls-3" d="M22.73,154l50.57-.16,50.57,0h25.28l25.28-.08c8.43,0,16.86,0,25.28,0s16.86.07,25.28.18v.51c-8.43.11-16.86.14-25.28.18s-16.86.09-25.28,0l-25.28-.08H123.87l-50.57,0-50.57-.16Z"/><path class="cls-4" d="M128.88,145.22s-43.83.34-60,0c-.9,0-1.62-.51-1.62-1.14,0,0-.54-66.45,0-74.06,0-.63.73-1.13,1.62-1.14,14.5-.12,44.13-.48,60,0,.9,0,1.58.51,1.62,1.14.54,7.61,0,74.06,0,74.06C130.51,144.71,129.78,145.22,128.88,145.22Z"/><path class="cls-5" d="M114,108.91c-2.51-.2-5-.34-7.54-.48a72.89,72.89,0,0,0-7.54-.09,47.39,47.39,0,0,1-7.54-.3,30.21,30.21,0,0,0-7.54.71v1.49a30.19,30.19,0,0,0,7.54.71,47.39,47.39,0,0,1,7.54-.3,72.89,72.89,0,0,0,7.54-.09c2.51-.14,5-.28,7.54-.48Z"/><path class="cls-5" d="M112.21,83.7a13.71,13.71,0,0,0-2.59-4.59,12.69,12.69,0,0,0-4.53-3.32,14.76,14.76,0,0,0-5.72-1.19,15,15,0,0,0-5.75,1.12,15.32,15.32,0,0,0-4.78,3.12,13.81,13.81,0,0,0-3.12,4.54,12.65,12.65,0,0,0-1,5.27,13.8,13.8,0,0,0,4.37,9.57l1,.91,1.13.82c.4.24.79.5,1.2.73s.85.43,1.28.62a14.89,14.89,0,0,0,5.62,1.2A14.17,14.17,0,0,0,105,101.4a12.56,12.56,0,0,0,4.52-3.26,13.62,13.62,0,0,0,2.62-4.55,15.25,15.25,0,0,0,0-9.9"/><path class="cls-6" d="M85.49,138.88h25.84a4.37,4.37,0,0,0,4-4v-1a4.37,4.37,0,0,0-4-4H85.49a4.8,4.8,0,0,0-4,4v1A4,4,0,0,0,85.49,138.88Z"/><path class="cls-5" d="M77.6,115.53c1.63-.1,3.26-.17,4.9-.24s3.26-.11,4.9,0a39.9,39.9,0,0,0,4.9-.15,25.3,25.3,0,0,1,4.9.36v.75a25.28,25.28,0,0,1-4.9.36,39.9,39.9,0,0,0-4.9-.15c-1.63.06-3.26,0-4.9,0s-3.26-.14-4.9-.24Z"/><path class="cls-5" d="M100.56,115.53c1.63-.1,3.26-.17,4.9-.24s3.26-.11,4.9,0a39.9,39.9,0,0,0,4.9-.15,25.3,25.3,0,0,1,4.9.36v.75a25.28,25.28,0,0,1-4.9.36,39.9,39.9,0,0,0-4.9-.15c-1.63.06-3.26,0-4.9,0s-3.26-.14-4.9-.24Z"/><path class="cls-5" d="M120.14,119.95c-3.54-.1-7.09-.17-10.63-.24s-7.09-.11-10.63,0-7.09,0-10.63-.15-7.09.07-10.63.36v.75c3.54.29,7.09.39,10.63.36s7.09-.24,10.63-.15,7.09,0,10.63,0,7.09-.14,10.63-.24Z"/><path class="cls-7" d="M84.83,133.9c2.17-.15,4.34-.26,6.51-.37s4.34-.17,6.51-.07a45.84,45.84,0,0,0,6.51-.23,29.14,29.14,0,0,1,6.51.55v1.15a29.12,29.12,0,0,1-6.51.55,45.84,45.84,0,0,0-6.51-.23c-2.17.1-4.34,0-6.51-.07S87,135,84.83,134.8Z"/><path class="cls-4" d="M191.5,97.59s-35.77.28-49,0c-.73,0-1.32-.42-1.32-.93,0,0-.44-54.22,0-60.43,0-.51.59-.93,1.32-.93,11.83-.1,36-.39,49,0,.73,0,1.29.42,1.32.93.44,6.21,0,60.43,0,60.43C192.82,97.17,192.23,97.59,191.5,97.59Z"/><path class="cls-5" d="M179.31,68c-2.05-.16-4.1-.28-6.15-.39A59.48,59.48,0,0,0,167,67.5a38.67,38.67,0,0,1-6.15-.25,24.65,24.65,0,0,0-6.15.58V69a24.64,24.64,0,0,0,6.15.58,38.67,38.67,0,0,1,6.15-.25,59.48,59.48,0,0,0,6.15-.08c2.05-.11,4.1-.23,6.15-.39Z"/><path class="cls-5" d="M177.9,47.39a11.18,11.18,0,0,0-2.12-3.75,10.36,10.36,0,0,0-3.69-2.71,12,12,0,0,0-4.67-1,12.23,12.23,0,0,0-4.69.92,12.5,12.5,0,0,0-3.9,2.54,11.27,11.27,0,0,0-2.55,3.71,10.32,10.32,0,0,0-.8,4.3A11.26,11.26,0,0,0,159,59.24l.85.74.92.67c.33.2.65.41,1,.6s.69.35,1,.5a12.15,12.15,0,0,0,4.59,1,11.56,11.56,0,0,0,4.62-.9,10.25,10.25,0,0,0,3.69-2.66,11.12,11.12,0,0,0,2.13-3.71,12.45,12.45,0,0,0,0-8.07"/><path class="cls-6" d="M156.09,92.42h21.09a3.57,3.57,0,0,0,3.3-3.3v-.78a3.57,3.57,0,0,0-3.3-3.3H156.09a3.92,3.92,0,0,0-3.3,3.3v.78A3.3,3.3,0,0,0,156.09,92.42Z"/><path class="cls-5" d="M149.65,73.37c1.33-.08,2.66-.14,4-.2s2.66-.09,4,0a32.56,32.56,0,0,0,4-.12,20.64,20.64,0,0,1,4,.29v.61a20.63,20.63,0,0,1-4,.29,32.56,32.56,0,0,0-4-.12c-1.33.05-2.66,0-4,0s-2.66-.11-4-.2Z"/><path class="cls-5" d="M168.39,73.37c1.33-.08,2.66-.14,4-.2s2.66-.09,4,0a32.56,32.56,0,0,0,4-.12,20.64,20.64,0,0,1,4,.29v.61a20.63,20.63,0,0,1-4,.29,32.56,32.56,0,0,0-4-.12c-1.33.05-2.66,0-4,0s-2.66-.11-4-.2Z"/><path class="cls-5" d="M184.37,77c-2.89-.08-5.79-.14-8.68-.2s-5.79-.09-8.68,0-5.79,0-8.68-.12-5.79.06-8.68.29v.61c2.89.23,5.79.32,8.68.29s5.79-.19,8.68-.12,5.79,0,8.68,0,5.79-.11,8.68-.2Z"/><path class="cls-7" d="M155.55,88.36c1.77-.13,3.54-.21,5.31-.3s3.54-.14,5.31-.06a37.41,37.41,0,0,0,5.31-.19,23.78,23.78,0,0,1,5.31.45v.94a23.77,23.77,0,0,1-5.31.45,37.41,37.41,0,0,0-5.31-.19c-1.77.08-3.54,0-5.31-.06s-3.54-.18-5.31-.3Z"/><path class="cls-8" d="M58.7,77.6c-2.12-3.77-4.8-5.63-6.1-4C51.66,74.78,64.51,95.53,64,95.35c-.7-.24-12.5-20.74-15-22.95-1.69-1.49-2.78-.8-2.75,0,.15,4.11,14.14,24.45,13.59,24.75-.37.2-13.91-22.74-16.23-25-.84-.8-2.75-1.16-3,.78-.33,2.76,14.15,24,13.5,24.68-.26.28-11.1-14.91-13.49-16.82-4.52-1.67-1.16,3.68,5.2,14.07C47.74,98,60.09,115.05,67,124.6c.72,1.73,4.8,19.41,8.73,36.67C87,166,93,164,98.41,157.43,91,135.14,83,109.25,82,108,74.33,98.54,62.79,84.89,58.7,77.6Z"/><path class="cls-8" d="M77.65,89.49c-.71-2.85-4.32-2.2-3.95,5.86,0,.8.6,3.92,1.23,7.26.88,4.58,1.89,9.59,1.89,9.59L83,110A196.86,196.86,0,0,1,77.65,89.49Z"/><path class="cls-9" d="M185.95,110.88c3.74-2.48,7.1-2.93,7.53-.8.31,1.53-21.4,14.61-20.85,14.68.76.11,21.38-13.23,24.74-14.08,2.26-.57,2.95.58,2.55,1.29-2.09,3.73-24.65,15.88-24.29,16.42.25.37,23.63-14.42,26.83-15.38,1.15-.35,3.09.23,2.38,2.13-1,2.7-24.44,15.44-24.17,16.39.11.38,17.32-8.51,20.43-9.14,5,.6-.67,3.95-11.47,10.53C186.4,134.91,164,149,161,152c-1.28,1.53-3.41,7.39-5.87,15.25-.9,2.87-1.84,6-2.8,9.29-1.1,3.77-26.45-2.54-25.14-6.19,1.23-3.41,2.43-6.71,3.55-9.78,3.37-9.18,6.11-16.34,7.25-18.58,2.47-4.83,10.68-12.76,12.75-13.67C162.32,123.22,178.72,115.67,185.95,110.88Z"/><path class="cls-10" d="M159.72,146.57S155,146,155.13,144C161,131,180.64,98.24,188,85c.56-1,5,1.46,4.48,2.48C181.17,107.85,159.72,146.57,159.72,146.57Z"/><path class="cls-11" d="M200.28,59.78s.2,10.35,2.07,13.08c1.58,2.3,9.67,5.6,9.67,5.6s-8.52,3.17-10.41,5.41-3.72,11.54-3.72,11.54S192,88.13,189.16,87s-11.75.17-11.75.17,5.27-8.15,5.42-11.27c.14-2.86-3.94-10.75-3.94-10.75s8.26,2.88,11,2.27C193,66.76,200.28,59.78,200.28,59.78Z"/><path class="cls-9" d="M173.08,114.8c2.87-1,5,3.32-2.21,7.65-.71.43-3.73,1.74-7,3.12a17.74,17.74,0,0,0-7.07,5.8l-8.21-1.48s7.37-8,11.84-10.4C165.93,117.45,172.08,115.16,173.08,114.8Z"/><g id="Zigougoui_1" data-name="Zigougoui 1"><g class="cls-12"><g class="cls-13"><path class="cls-14" d="M209.09,68.28l-.05.08a.29.29,0,0,1-.21.1h-.07a47.9,47.9,0,0,1-4.94-1.62.3.3,0,0,1-.16-.13.29.29,0,0,1,.09-.38l.09,0a.3.3,0,0,1,.14,0,13.58,13.58,0,0,1,4.94,1.62l.08,0a.29.29,0,0,1,.11.2.33.33,0,0,1,0,.09v0"/><path class="cls-14" d="M209.87,64.11a.31.31,0,0,1,0,.09.29.29,0,0,1-.17.15h-.07a48.05,48.05,0,0,1-5.2-.15.3.3,0,0,1-.19-.08.29.29,0,0,1,0-.39l.07-.06a.31.31,0,0,1,.13,0,13.62,13.62,0,0,1,5.2.15l.09,0a.29.29,0,0,1,.17.16.33.33,0,0,1,0,.09v0"/><path class="cls-14" d="M209.43,59.9a.33.33,0,0,1,0,.09.29.29,0,0,1-.12.19l-.06,0a48.06,48.06,0,0,1-5,1.34.3.3,0,0,1-.21,0,.29.29,0,0,1-.13-.37l.05-.08a.3.3,0,0,1,.12-.08,13.59,13.59,0,0,1,5-1.34h.09a.29.29,0,0,1,.2.11.32.32,0,0,1,0,.08v0"/></g></g></g><g id="Zigouigoui_2" data-name="Zigouigoui 2"><g class="cls-15"><g class="cls-15"><path class="cls-7" d="M39.1,127.05c.1.5.17,1,.25,1.5a9.79,9.79,0,0,1,.19,1.49,8.42,8.42,0,0,1-.15,1.5c-.08.5-.16,1-.29,1.49a.06.06,0,0,1-.08,0,.06.06,0,0,1,0,0c-.13-.5-.21-1-.29-1.49a8.32,8.32,0,0,1-.15-1.5,9.79,9.79,0,0,1,.19-1.49c.08-.5.15-1,.25-1.5a.06.06,0,0,1,.13,0"/><path class="cls-7" d="M36.05,130c.5-.1,1-.17,1.49-.25a9.78,9.78,0,0,1,1.49-.19,8.33,8.33,0,0,1,1.49.15c.5.08,1,.16,1.49.29a.06.06,0,0,1,0,.08.06.06,0,0,1,0,0c-.5.13-1,.21-1.49.29a8.42,8.42,0,0,1-1.49.15,9.78,9.78,0,0,1-1.49-.19c-.5-.08-1-.15-1.49-.25a.06.06,0,0,1,0-.07.06.06,0,0,1,0-.05"/></g></g></g><g id="Zigouigoui_2-2" data-name="Zigouigoui 2"><g class="cls-16"><g class="cls-16"><path class="cls-17" d="M65.1,45.05c.1.5.17,1,.25,1.5A9.79,9.79,0,0,1,65.54,48a8.42,8.42,0,0,1-.15,1.5c-.08.5-.16,1-.29,1.49a.06.06,0,0,1-.08,0,.06.06,0,0,1,0,0c-.13-.5-.21-1-.29-1.49a8.32,8.32,0,0,1-.15-1.5,9.79,9.79,0,0,1,.19-1.49c.08-.5.15-1,.25-1.5a.06.06,0,0,1,.13,0"/><path class="cls-17" d="M62.05,48c.5-.1,1-.17,1.49-.25A9.78,9.78,0,0,1,65,47.54a8.33,8.33,0,0,1,1.49.15c.5.08,1,.16,1.49.29a.06.06,0,0,1,0,.08.06.06,0,0,1,0,0c-.5.13-1,.21-1.49.29a8.42,8.42,0,0,1-1.49.15,9.78,9.78,0,0,1-1.49-.19c-.5-.08-1-.15-1.49-.25A.06.06,0,0,1,62,48a.06.06,0,0,1,0-.05"/></g></g></g><g id="Zigouigoui_2-3" data-name="Zigouigoui 2"><g class="cls-18"><g class="cls-18"><path class="cls-14" d="M92.11,36.08c.16.82.27,1.64.41,2.46A16.1,16.1,0,0,1,92.82,41a13.85,13.85,0,0,1-.25,2.46c-.13.82-.26,1.64-.47,2.46A.1.1,0,0,1,92,46a.1.1,0,0,1-.08-.08c-.22-.82-.34-1.64-.48-2.46A13.69,13.69,0,0,1,91.18,41a16.1,16.1,0,0,1,.31-2.46c.14-.82.25-1.64.41-2.46a.1.1,0,0,1,.21,0"/><path class="cls-14" d="M87.08,40.9c.82-.16,1.64-.27,2.46-.41A16.08,16.08,0,0,1,92,40.18a13.69,13.69,0,0,1,2.46.25c.82.13,1.64.26,2.46.47A.11.11,0,0,1,97,41a.1.1,0,0,1-.08.08c-.82.22-1.64.34-2.46.48a13.84,13.84,0,0,1-2.46.24,16.08,16.08,0,0,1-2.46-.31c-.82-.14-1.64-.25-2.46-.41A.1.1,0,0,1,87,41a.11.11,0,0,1,.08-.08"/></g></g></g><path class="cls-19" d="M88.75,55.31a.77.77,0,0,0-1.19-.23.69.69,0,0,0-.26.5.6.6,0,0,0,.24.55l0,0,.08.06,0,0a.68.68,0,0,0,.74-.09.58.58,0,0,0,.23-.26,1.61,1.61,0,0,0,.16-.46l.48-.16a2.58,2.58,0,0,1,.17.4,1.8,1.8,0,0,1,0,.45,1.2,1.2,0,0,1-.45.84,1.24,1.24,0,0,1-.92.26,1.77,1.77,0,0,1-.82-.32l0,0-.08-.06h0l0,0a1.49,1.49,0,0,1-.57-1.13,1.34,1.34,0,0,1,.66-1.11,1.44,1.44,0,0,1,1.22-.12,1.19,1.19,0,0,1,.78.87Z"/><path class="cls-19" d="M42.1,61a1.17,1.17,0,0,0-.86-.7,1.29,1.29,0,0,0-1,.25,1.13,1.13,0,0,0-.47.85,1.06,1.06,0,0,0,.42.91l0,0,.12.09,0,0a1,1,0,0,0,.7.14,1.4,1.4,0,0,0,.58-.24,1,1,0,0,0,.38-.5,2,2,0,0,0,.11-.35c0-.12,0-.25,0-.4l.48-.16a4.73,4.73,0,0,1,.2.54,2.49,2.49,0,0,1,0,.59,1.6,1.6,0,0,1-.59,1.08,1.67,1.67,0,0,1-1.19.35,2.26,2.26,0,0,1-1.1-.41l0,0-.12-.09h0l0,0a2,2,0,0,1-.75-1.5A1.78,1.78,0,0,1,39.78,60a1.93,1.93,0,0,1,1.62-.19,1.62,1.62,0,0,1,1.07,1.15Z"/><path class="cls-19" d="M70.67,28.72a3.33,3.33,0,0,0-.23-.27.7.7,0,0,0-.89.07.55.55,0,0,0-.26.45.56.56,0,0,0,.22.51l0,0,.08.06,0,0a.64.64,0,0,0,.69-.09.23.23,0,0,0,.1-.11s.1-.07.12-.14a1.54,1.54,0,0,0,.16-.44l.48-.16a2.41,2.41,0,0,1,.17.38,1.74,1.74,0,0,1,0,.43,1,1,0,0,1-.14.43,1,1,0,0,1-.29.38,1.2,1.2,0,0,1-.9.25,1.72,1.72,0,0,1-.8-.32l0,0L69,30.07h0l0,0a1.45,1.45,0,0,1-.55-1.1,1.22,1.22,0,0,1,.65-1.06,1.29,1.29,0,0,1,1.17-.13,1.21,1.21,0,0,1,.49.33,2,2,0,0,1,.26.51Z"/><g id="Zigougoui_1-2" data-name="Zigougoui 1"><g class="cls-20"><g class="cls-21"><path class="cls-14" d="M61.57,68.29a.33.33,0,0,1,0,.08.29.29,0,0,1,0,.23l0,.06A47.9,47.9,0,0,1,58,72.42a.3.3,0,0,1-.19.09.29.29,0,0,1-.3-.25.27.27,0,0,1,0-.09.3.3,0,0,1,.06-.13,13.58,13.58,0,0,1,3.59-3.76l.08-.06a.29.29,0,0,1,.23,0l.08,0,0,0"/><path class="cls-14" d="M58.15,65.79l.07.06a.29.29,0,0,1,.06.22.39.39,0,0,1,0,.07,48.05,48.05,0,0,1-2.38,4.62.3.3,0,0,1-.16.14.29.29,0,0,1-.36-.15.27.27,0,0,1,0-.09.31.31,0,0,1,0-.14,13.62,13.62,0,0,1,2.38-4.62l.06-.08a.29.29,0,0,1,.22-.08l.09,0,0,0"/><path class="cls-14" d="M54.15,64.36l.09,0a.29.29,0,0,1,.12.2.32.32,0,0,1,0,.07,48.06,48.06,0,0,1-1,5.11.3.3,0,0,1-.11.18.29.29,0,0,1-.39,0,.29.29,0,0,1-.07-.22,13.59,13.59,0,0,1,1-5.11.32.32,0,0,1,0-.09.29.29,0,0,1,.19-.14h.14"/></g></g></g><path class="cls-17" d="M106.74,43.47A1.61,1.61,0,0,1,107,43a.84.84,0,0,1,.43-.28.94.94,0,0,1,.51-.07l.27,0,.24.12a1.12,1.12,0,0,1,.56.93,1.23,1.23,0,0,1-.48,1h0l-.07,0,0,0a1.94,1.94,0,0,1-.69.28,1,1,0,0,1-1.17-.94,1.45,1.45,0,0,1,0-.38,1.77,1.77,0,0,1,.16-.33l.48.16a1.22,1.22,0,0,0,.16.33s.07.06.09.09,0,.06.07.06.11,0,.18.1.18.05.3,0l0,0,.07,0,0,0a.35.35,0,0,0,.15-.37c0-.1,0-.24-.17-.32l-.08-.08-.11,0a.38.38,0,0,0-.23,0c-.19,0-.29.12-.43.27Z"/><path class="cls-7" d="M118.75,88.31a.77.77,0,0,0-1.19-.23.69.69,0,0,0-.26.5.6.6,0,0,0,.24.55l0,0,.08.06,0,0a.68.68,0,0,0,.74-.09.58.58,0,0,0,.23-.26,1.61,1.61,0,0,0,.16-.46l.48-.16a2.58,2.58,0,0,1,.17.4,1.8,1.8,0,0,1,0,.45,1.2,1.2,0,0,1-.45.84,1.24,1.24,0,0,1-.92.26,1.77,1.77,0,0,1-.82-.32l0,0-.08-.06h0l0,0a1.49,1.49,0,0,1-.57-1.13,1.34,1.34,0,0,1,.66-1.11,1.44,1.44,0,0,1,1.22-.12,1.19,1.19,0,0,1,.78.87Z"/><path class="cls-7" d="M138.75,44.31a.77.77,0,0,0-1.19-.23.69.69,0,0,0-.26.5.6.6,0,0,0,.24.55l0,0,.08.06,0,0a.68.68,0,0,0,.74-.09.58.58,0,0,0,.23-.26,1.61,1.61,0,0,0,.16-.46l.48-.16a2.58,2.58,0,0,1,.17.4,1.8,1.8,0,0,1,0,.45,1.2,1.2,0,0,1-.45.84,1.24,1.24,0,0,1-.92.26,1.77,1.77,0,0,1-.82-.32l0,0-.08-.06h0l0,0a1.49,1.49,0,0,1-.57-1.13,1.34,1.34,0,0,1,.66-1.11,1.44,1.44,0,0,1,1.22-.12,1.19,1.19,0,0,1,.78.87Z"/><g id="Zigouigoui_2-4" data-name="Zigouigoui 2"><g class="cls-22"><g class="cls-22"><path class="cls-7" d="M119.1,55.05c.1.5.17,1,.25,1.5a9.79,9.79,0,0,1,.19,1.49,8.42,8.42,0,0,1-.15,1.5c-.08.5-.16,1-.29,1.49a.06.06,0,0,1-.08,0,.06.06,0,0,1,0,0c-.13-.5-.21-1-.29-1.49a8.32,8.32,0,0,1-.15-1.5,9.79,9.79,0,0,1,.19-1.49c.08-.5.15-1,.25-1.5a.06.06,0,0,1,.13,0"/><path class="cls-7" d="M116.05,58c.5-.1,1-.17,1.49-.25a9.78,9.78,0,0,1,1.49-.19,8.33,8.33,0,0,1,1.49.15c.5.08,1,.16,1.49.29a.06.06,0,0,1,0,.08.06.06,0,0,1,0,0c-.5.13-1,.21-1.49.29a8.42,8.42,0,0,1-1.49.15,9.78,9.78,0,0,1-1.49-.19c-.5-.08-1-.15-1.49-.25a.06.06,0,0,1,0-.07.06.06,0,0,1,0-.05"/></g></g></g><g id="Zigouigoui_2-5" data-name="Zigouigoui 2"><g class="cls-23"><g class="cls-23"><path class="cls-7" d="M49.1,109.05c.1.5.17,1,.25,1.5a9.79,9.79,0,0,1,.19,1.49,8.42,8.42,0,0,1-.15,1.5c-.08.5-.16,1-.29,1.49a.06.06,0,0,1-.08,0,.06.06,0,0,1,0,0c-.13-.5-.21-1-.29-1.49a8.32,8.32,0,0,1-.15-1.5,9.79,9.79,0,0,1,.19-1.49c.08-.5.15-1,.25-1.5a.06.06,0,0,1,.13,0"/><path class="cls-7" d="M46.05,112c.5-.1,1-.17,1.49-.25a9.78,9.78,0,0,1,1.49-.19,8.33,8.33,0,0,1,1.49.15c.5.08,1,.16,1.49.29a.06.06,0,0,1,0,.08.06.06,0,0,1,0,0c-.5.13-1,.21-1.49.29a8.42,8.42,0,0,1-1.49.15,9.78,9.78,0,0,1-1.49-.19c-.5-.08-1-.15-1.49-.25a.06.06,0,0,1,0-.07.06.06,0,0,1,0-.05"/></g></g></g><g id="Zigouigoui_2-6" data-name="Zigouigoui 2"><g class="cls-24"><g class="cls-24"><path class="cls-7" d="M152.1,109.05c.1.5.17,1,.25,1.5a9.79,9.79,0,0,1,.19,1.49,8.42,8.42,0,0,1-.15,1.5c-.08.5-.16,1-.29,1.49a.06.06,0,0,1-.08,0,.06.06,0,0,1,0,0c-.13-.5-.21-1-.29-1.49a8.32,8.32,0,0,1-.15-1.5,9.79,9.79,0,0,1,.19-1.49c.08-.5.15-1,.25-1.5a.06.06,0,0,1,.13,0"/><path class="cls-7" d="M149.05,112c.5-.1,1-.17,1.49-.25a9.78,9.78,0,0,1,1.49-.19,8.33,8.33,0,0,1,1.49.15c.5.08,1,.16,1.49.29a.06.06,0,0,1,0,.08.06.06,0,0,1,0,0c-.5.13-1,.21-1.49.29a8.42,8.42,0,0,1-1.49.15,9.78,9.78,0,0,1-1.49-.19c-.5-.08-1-.15-1.49-.25A.06.06,0,0,1,149,112a.06.06,0,0,1,.05-.05"/></g></g></g><g id="Zigouigoui_2-7" data-name="Zigouigoui 2"><g class="cls-25"><g class="cls-25"><path class="cls-7" d="M202.1,139.05c.1.5.17,1,.25,1.5a9.79,9.79,0,0,1,.19,1.49,8.42,8.42,0,0,1-.15,1.5c-.08.5-.16,1-.29,1.49a.06.06,0,0,1-.08,0,.06.06,0,0,1,0,0c-.13-.5-.21-1-.29-1.49a8.32,8.32,0,0,1-.15-1.5,9.79,9.79,0,0,1,.19-1.49c.08-.5.15-1,.25-1.5a.06.06,0,0,1,.13,0"/><path class="cls-7" d="M199.05,142c.5-.1,1-.17,1.49-.25a9.78,9.78,0,0,1,1.49-.19,8.33,8.33,0,0,1,1.49.15c.5.08,1,.16,1.49.29a.06.06,0,0,1,0,.08.06.06,0,0,1,0,0c-.5.13-1,.21-1.49.29a8.42,8.42,0,0,1-1.49.15,9.78,9.78,0,0,1-1.49-.19c-.5-.08-1-.15-1.49-.25A.06.06,0,0,1,199,142a.06.06,0,0,1,.05-.05"/></g></g></g></g></svg>