<svg xmlns="http://www.w3.org/2000/svg" xmlns:xlink="http://www.w3.org/1999/xlink" viewBox="0 0 250 200"><defs><style>.cls-1{fill:none;}.cls-18,.cls-2{fill:#eaf2fb;}.cls-14,.cls-15,.cls-16,.cls-17,.cls-2{fill-rule:evenodd;}.cls-3{fill:#d6e3f2;}.cls-4{clip-path:url(#clip-path);}.cls-5{clip-path:url(#clip-path-2);}.cls-6{fill:#ffed72;}.cls-7{clip-path:url(#clip-path-3);}.cls-8{clip-path:url(#clip-path-5);}.cls-17,.cls-9{fill:#57a7ff;}.cls-10{clip-path:url(#clip-path-7);}.cls-11{clip-path:url(#clip-path-9);}.cls-12,.cls-14{fill:#fff;}.cls-13{clip-path:url(#clip-path-11);}.cls-15{fill:#cc9694;}.cls-16{fill:#3f73ac;}.cls-19{clip-path:url(#clip-path-13);}.cls-20{fill:#c8d4e5;}</style><clipPath id="clip-path"><rect class="cls-1" x="185.94" y="89.17" width="15.29" height="16.07" transform="translate(-1.05 192.29) rotate(-52.7)"/></clipPath><clipPath id="clip-path-2"><rect class="cls-1" x="185.94" y="89.17" width="15.29" height="16.07" transform="translate(-1.05 192.29) rotate(-52.7)"/></clipPath><clipPath id="clip-path-3"><rect class="cls-1" x="40.2" y="137.56" width="14.87" height="15.63" transform="translate(-105.28 149.69) rotate(-73.48)"/></clipPath><clipPath id="clip-path-5"><rect class="cls-1" x="172.49" y="43.36" width="6.32" height="6.32"/></clipPath><clipPath id="clip-path-7"><rect class="cls-1" x="162.09" y="34" width="10.48" height="10.48"/></clipPath><clipPath id="clip-path-9"><rect class="cls-1" x="47.36" y="116.14" width="6.32" height="6.32"/></clipPath><clipPath id="clip-path-11"><rect class="cls-1" x="53.6" y="106.79" width="10.48" height="10.48"/></clipPath><clipPath id="clip-path-13"><rect class="cls-1" x="102.33" y="140" width="3.16" height="7.95" transform="translate(-66.64 193.35) rotate(-70.33)"/></clipPath></defs><title>Positive_energy</title><g id="Calque_5" data-name="Calque 5"><path id="blob" class="cls-2" d="M183.57,159.81c19.76-27-5.2-71.75-13.94-96.05-4.2-11.67-21.52-29.79-61.08-29.33-40.5.47-11.73,34.46-48.32,53.74C13,113,65,145.26,88.95,159.81,110.78,159.81,157.2,161.28,183.57,159.81Z"/><path class="cls-3" d="M84.79,159.86l27.55-.16c9.18,0,18.37-.08,27.55,0,4.59,0,9.18,0,13.78,0l13.78-.08c4.59,0,9.18,0,13.78,0s9.18.07,13.78.18v.51c-4.59.11-9.18.14-13.78.18s-9.18.09-13.78,0l-13.78-.08c-4.59,0-9.18,0-13.78,0-9.18,0-18.37,0-27.55,0l-27.55-.16Z"/><g id="Zigougoui_1" data-name="Zigougoui 1"><g class="cls-4"><g class="cls-5"><path class="cls-6" d="M199.5,102.54a.59.59,0,0,1,0,.17.52.52,0,0,1-.29.3l-.12,0c-10.74,1.54-19.56,1-9.38.63a.53.53,0,0,1-.36-.11.53.53,0,0,1-.11-.7.49.49,0,0,1,.12-.12.53.53,0,0,1,.24-.1,24.56,24.56,0,0,1,9.38-.63.55.55,0,0,1,.17,0,.52.52,0,0,1,.33.26.59.59,0,0,1,.05.16.56.56,0,0,1,0,.09"/><path class="cls-6" d="M198,95a.55.55,0,0,1,0,.17.52.52,0,0,1-.19.37l-.11.07a86.89,86.89,0,0,1-8.81,3.27.54.54,0,0,1-.38,0,.53.53,0,0,1-.3-.64.49.49,0,0,1,.08-.15.55.55,0,0,1,.2-.16,24.63,24.63,0,0,1,8.81-3.27l.17,0a.52.52,0,0,1,.39.16.59.59,0,0,1,.1.14l0,.08"/><path class="cls-6" d="M194.39,88.25a.61.61,0,0,1,.07.16.53.53,0,0,1-.08.41l-.08.1a86.91,86.91,0,0,1-7.52,5.65.55.55,0,0,1-.36.1.52.52,0,0,1-.47-.53.53.53,0,0,1,.18-.38,24.57,24.57,0,0,1,7.52-5.64.57.57,0,0,1,.15-.08.52.52,0,0,1,.42,0,.59.59,0,0,1,.13.11l.05.07"/></g></g></g><g id="Zigougoui_1-2" data-name="Zigougoui 1"><g class="cls-7"><g class="cls-7"><path class="cls-6" d="M40.42,142.56a.58.58,0,0,1,0-.16.5.5,0,0,1,.16-.38l.1-.07c9.23-5.11,17.44-7.64,8.31-3.81a.52.52,0,0,1,.37,0,.51.51,0,0,1,.34.6.48.48,0,0,1-.07.15.52.52,0,0,1-.18.17,23.88,23.88,0,0,1-8.31,3.81.53.53,0,0,1-.16,0,.51.51,0,0,1-.39-.13.57.57,0,0,1-.1-.13l0-.08"/><path class="cls-6" d="M44.39,148.87a.54.54,0,0,1-.07-.15.51.51,0,0,1,0-.4l.08-.1a84.48,84.48,0,0,1,6.88-6,.53.53,0,0,1,.35-.12.51.51,0,0,1,.49.48.48.48,0,0,1,0,.17.54.54,0,0,1-.12.22,24,24,0,0,1-6.88,6A.6.6,0,0,1,45,149a.51.51,0,0,1-.41,0,.57.57,0,0,1-.14-.09l-.06-.06"/><path class="cls-6" d="M50,153.79a.59.59,0,0,1-.12-.12.51.51,0,0,1-.07-.4.55.55,0,0,1,0-.12,84.5,84.5,0,0,1,4.89-7.73.53.53,0,0,1,.3-.22.51.51,0,0,1,.61.32.52.52,0,0,1,0,.4,23.89,23.89,0,0,1-4.89,7.72.55.55,0,0,1-.11.12.51.51,0,0,1-.39.1l-.16-.05-.07,0"/></g></g></g><g id="Zigouigoui_2" data-name="Zigouigoui 2"><g class="cls-8"><g class="cls-8"><path class="cls-9" d="M175.72,43.41c.1.52.17,1,.26,1.55a10.18,10.18,0,0,1,.19,1.55,8.75,8.75,0,0,1-.15,1.55c-.08.52-.16,1-.3,1.55a.07.07,0,0,1-.08,0,.06.06,0,0,1,0,0c-.14-.52-.22-1-.3-1.55a8.66,8.66,0,0,1-.15-1.55,10.18,10.18,0,0,1,.19-1.55c.09-.52.16-1,.26-1.55a.07.07,0,0,1,.13,0"/><path class="cls-9" d="M172.54,46.46c.52-.1,1-.17,1.55-.26a10.16,10.16,0,0,1,1.55-.19,8.66,8.66,0,0,1,1.55.15c.52.08,1,.16,1.55.3a.07.07,0,0,1,0,.08.06.06,0,0,1,0,0c-.52.14-1,.22-1.55.3a8.75,8.75,0,0,1-1.55.15,10.16,10.16,0,0,1-1.55-.19c-.52-.09-1-.16-1.55-.26a.07.07,0,0,1-.05-.08.07.07,0,0,1,.05-.05"/></g></g></g><g id="Zigouigoui_2-2" data-name="Zigouigoui 2"><g class="cls-10"><g class="cls-10"><path class="cls-9" d="M167.44,34.09c.17.86.29,1.72.43,2.58a16.88,16.88,0,0,1,.32,2.58,14.51,14.51,0,0,1-.26,2.58c-.14.86-.27,1.72-.5,2.58a.11.11,0,0,1-.14.08.11.11,0,0,1-.08-.08c-.23-.86-.36-1.72-.5-2.58a14.35,14.35,0,0,1-.26-2.58,16.88,16.88,0,0,1,.32-2.58c.14-.86.26-1.72.43-2.58a.11.11,0,0,1,.22,0"/><path class="cls-9" d="M162.18,39.14c.86-.17,1.72-.29,2.58-.43a16.85,16.85,0,0,1,2.58-.32,14.35,14.35,0,0,1,2.58.26c.86.14,1.72.27,2.58.5a.11.11,0,0,1,.08.14.11.11,0,0,1-.08.08c-.86.23-1.72.36-2.58.5a14.51,14.51,0,0,1-2.58.26,16.85,16.85,0,0,1-2.58-.32c-.86-.14-1.72-.26-2.58-.43a.11.11,0,0,1-.09-.13.11.11,0,0,1,.09-.09"/></g></g></g><g id="Zigouigoui_2-3" data-name="Zigouigoui 2"><g class="cls-11"><g class="cls-11"><path class="cls-12" d="M50.45,116.2c-.1.52-.17,1-.26,1.55a10.18,10.18,0,0,0-.19,1.55,8.75,8.75,0,0,0,.15,1.55c.08.52.16,1,.3,1.55a.07.07,0,0,0,.08,0,.06.06,0,0,0,0,0c.14-.52.22-1,.3-1.55a8.66,8.66,0,0,0,.15-1.55,10.18,10.18,0,0,0-.19-1.55c-.09-.52-.16-1-.26-1.55a.07.07,0,0,0-.13,0"/><path class="cls-12" d="M53.63,119.24c-.52-.1-1-.17-1.55-.26a10.16,10.16,0,0,0-1.55-.19,8.66,8.66,0,0,0-1.55.15c-.52.08-1,.16-1.55.3a.07.07,0,0,0,0,.08.06.06,0,0,0,0,0c.52.14,1,.22,1.55.3a8.75,8.75,0,0,0,1.55.15,10.16,10.16,0,0,0,1.55-.19c.52-.09,1-.16,1.55-.26a.07.07,0,0,0,.05-.08.07.07,0,0,0-.05-.05"/></g></g></g><g id="Zigouigoui_2-4" data-name="Zigouigoui 2"><g class="cls-13"><g class="cls-13"><path class="cls-12" d="M58.73,106.87c-.17.86-.29,1.72-.43,2.58A16.88,16.88,0,0,0,58,112a14.51,14.51,0,0,0,.26,2.58c.14.86.27,1.72.5,2.58a.11.11,0,0,0,.14.08.11.11,0,0,0,.08-.08c.23-.86.36-1.72.5-2.58a14.35,14.35,0,0,0,.26-2.58,16.88,16.88,0,0,0-.32-2.58c-.14-.86-.26-1.72-.43-2.58a.11.11,0,0,0-.22,0"/><path class="cls-12" d="M64,111.92c-.86-.17-1.72-.29-2.58-.43a16.85,16.85,0,0,0-2.58-.32,14.35,14.35,0,0,0-2.58.26c-.86.14-1.72.27-2.58.5a.11.11,0,0,0-.08.14.11.11,0,0,0,.08.08c.86.23,1.72.36,2.58.5a14.51,14.51,0,0,0,2.58.26,16.85,16.85,0,0,0,2.58-.32c.86-.14,1.72-.26,2.58-.43a.11.11,0,0,0,.09-.13.11.11,0,0,0-.09-.09"/></g></g></g><path class="cls-14" d="M155.49,114.4c3-3.33,8.31-8.23,10.59-12-1.85.31-5.87,1.15-5.87,1.15s1.31-5.59,1.13-9c-2.37,3.26-8.07,8.62-9.79,12,2.92-.55,5.56-1.11,5.56-1.11A42.44,42.44,0,0,0,155.49,114.4Z"/><path class="cls-14" d="M165.6,124.1c1.8-2,5-5,6.4-7.24-1.12.19-3.55.69-3.55.69a25.1,25.1,0,0,0,.68-5.41c-1.43,2-4.87,5.21-5.92,7.25,1.77-.33,3.36-.67,3.36-.67A25.64,25.64,0,0,0,165.6,124.1Z"/><path class="cls-15" d="M100.17,113.92c-4.61-2.05-8.41-1.92-8.49.51-.06,1.76,26.41,12.2,25.82,12.39-.83.26-26.14-10.68-30-11-2.61-.21-3.16,1.19-2.58,1.9,3,3.74,30.26,13,29.95,13.67-.21.45-28.85-11.57-32.58-12-1.34-.17-3.38.83-2.24,2.81,1.61,2.81,29.94,12.56,29.81,13.66,0,.44-20.76-6.21-24.33-6.32-5.4,1.59,1.48,4.25,14.66,9.53,4,1.59,27.38,8.94,40.51,13,3.37,2.55,18,19,33.71,32.36,13.8-3.41,18-9.46,18.5-19.37C172.13,146.3,144.83,126,143,125.5,129.26,122,109.07,117.89,100.17,113.92Z"/><path class="cls-16" d="M118.51,124h0c-5.15.09-7.7-3.29-7.77-7.52l0-2.8a2.73,2.73,0,0,1,2.68-2.78l9.83-.17a2.73,2.73,0,0,1,2.78,2.68l0,2.8C126.1,120.44,123.56,123.91,118.51,124Z"/><path class="cls-12" d="M143.57,80.38c-.38,7.35-5.13,13.26-10,19.93-2.7,3.73-6.45,8.34-6.78,11.54-4.53,1.83-9.47,1.91-16.59.22-1.22-4.75-2.9-6.37-6.27-11.25C98,92.13,93.9,89.45,92.53,81.24c-3-18,10.94-29,25-29.25S144.5,62.24,143.57,80.38Z"/><path class="cls-6" d="M114.53,113.12c-2.8-9.55-5.24-19.24-6.11-29.27a41.59,41.59,0,0,1,.05-7.61,20,20,0,0,1,.79-3.86,6.9,6.9,0,0,1,2.46-3.58,3.5,3.5,0,0,1,2.55-.47,5.13,5.13,0,0,1,2.1,1A11.08,11.08,0,0,1,119,72.45a12.21,12.21,0,0,1,1.51,3.78,4.6,4.6,0,0,1-.06,2.38,2.37,2.37,0,0,1-1,1.27,3,3,0,0,1-1.44.35,2.38,2.38,0,0,1-1.5-.57,2.59,2.59,0,0,1-.78-1.23,6,6,0,0,1-.19-2.24,14.22,14.22,0,0,1,1-3.88,12.71,12.71,0,0,1,2-3.5,5.33,5.33,0,0,1,1.8-1.45,2.7,2.7,0,0,1,2.75.34,7.51,7.51,0,0,1,2.18,3.72c.29,1.25.73,2.49.9,3.76a43.9,43.9,0,0,1,.7,7.6,91.67,91.67,0,0,1-5.47,29.49l-1.26-.39c2.24-9.58,4-19.37,4.15-29.09a42.85,42.85,0,0,0-.4-7.22c-.12-1.2-.49-2.33-.71-3.51a5.92,5.92,0,0,0-1.34-2.71.63.63,0,0,0-.73-.13,2.93,2.93,0,0,0-1.07.87,10.84,10.84,0,0,0-1.64,3,12.28,12.28,0,0,0-.81,3.32,4.17,4.17,0,0,0,.11,1.45c.17.38.16.36.38.4.46-.07.32,0,.45-.25a2.72,2.72,0,0,0,0-1.3,10.18,10.18,0,0,0-1.29-3.08c-1.09-1.88-3.21-3.79-4.39-3a5.06,5.06,0,0,0-1.65,2.48,18.17,18.17,0,0,0-.75,3.41,39.76,39.76,0,0,0-.17,7.25,157.68,157.68,0,0,0,5.26,29.1Z"/><path class="cls-17" d="M127.06,116.86s-12.45.28-17.05.29c-.25,0-.46-.1-.47-.23s-.23-4.44-.1-6c0-.13.2-.24.46-.25,4.12-.09,12.54-.31,17.05-.29.25,0,.45.1.47.23.18,1.58.1,6,.1,6S127.32,116.85,127.06,116.86Z"/><path class="cls-12" d="M109.59,112c3-.18,6-.44,9-.4a39.9,39.9,0,0,0,4.48-.21,24.34,24.34,0,0,1,4.49.24v.66a24.32,24.32,0,0,1-4.48.39,40.05,40.05,0,0,0-4.48-.06c-3,.13-6,0-9-.1Z"/><path class="cls-12" d="M109.64,115.28c3-.18,6-.44,9-.4a39.72,39.72,0,0,0,4.48-.21,24.39,24.39,0,0,1,4.49.24v.66a24.39,24.39,0,0,1-4.48.39,39.71,39.71,0,0,0-4.48-.06c-3,.13-6,0-9-.1Z"/><path class="cls-18" d="M125.08,54.55a17,17,0,0,1,4.56,1.67,13.36,13.36,0,0,1,3.87,2.93c1,1.25,2.26,2.33,3.31,3.61a9.15,9.15,0,0,1,1.68,4.58l-1.23.48a26.17,26.17,0,0,1-2.61-3.65,9.52,9.52,0,0,0-2.59-3.56c-1.12-1-2.24-1.91-3.44-2.8a20.69,20.69,0,0,0-3.84-2.27Z"/><g id="Zigougoui_1-3" data-name="Zigougoui 1"><path class="cls-12" d="M148.39,56a.49.49,0,0,1,0,.14.42.42,0,0,1-.12.32l-.08.07a71.22,71.22,0,0,1-6.84,3.61.44.44,0,0,1-.31,0,.43.43,0,0,1-.31-.49.4.4,0,0,1,0-.13.44.44,0,0,1,.14-.15,20.2,20.2,0,0,1,6.84-3.61l.13,0a.43.43,0,0,1,.33.09.49.49,0,0,1,.09.1l0,.06"/><path class="cls-12" d="M144.74,50.81a.45.45,0,0,1,.07.12.43.43,0,0,1,0,.34l-.06.09a71.45,71.45,0,0,1-5.53,5.4.44.44,0,0,1-.29.12.43.43,0,0,1-.44-.38.4.4,0,0,1,0-.14.46.46,0,0,1,.09-.19,20.25,20.25,0,0,1,5.53-5.4l.12-.08a.43.43,0,0,1,.34,0l.12.07,0,.05"/><path class="cls-12" d="M139.78,46.92l.1.1a.43.43,0,0,1,.08.33.47.47,0,0,1,0,.1,71.47,71.47,0,0,1-3.76,6.75.45.45,0,0,1-.24.2.43.43,0,0,1-.53-.24.44.44,0,0,1,0-.34,20.2,20.2,0,0,1,3.77-6.75.47.47,0,0,1,.09-.11.43.43,0,0,1,.33-.11l.14,0,.06,0"/></g><path class="cls-15" d="M126.17,111.84c-2.65-2.16-5.57,1,.39,8.23.59.73,3.29,3.25,6.21,5.93,4,3.68,8.45,7.64,8.45,7.64l4.24-6.35A229.52,229.52,0,0,1,126.17,111.84Z"/><g id="Zigouigoui_2-5" data-name="Zigouigoui 2"><g class="cls-19"><path class="cls-20" d="M107.32,146.23c-.48-.25-1-.47-1.45-.7a11.65,11.65,0,0,0-1.47-.6,5.22,5.22,0,0,1-1.42-.74,4.29,4.29,0,0,0-1.53-.47l-.21.47a3.83,3.83,0,0,0,1.35.94,7.64,7.64,0,0,1,1.52.55,7.94,7.94,0,0,0,1.51.55c.52.14,1,.27,1.56.39Z"/><path class="cls-20" d="M106.57,143.78c-.48-.25-1-.47-1.45-.7a11.65,11.65,0,0,0-1.47-.6,5.22,5.22,0,0,1-1.42-.74,4.29,4.29,0,0,0-1.53-.47l-.21.47a3.83,3.83,0,0,0,1.35.94,7.64,7.64,0,0,1,1.52.55,7.94,7.94,0,0,0,1.51.55c.52.14,1,.27,1.56.39Z"/></g></g></g></svg>