<svg xmlns="http://www.w3.org/2000/svg" xmlns:xlink="http://www.w3.org/1999/xlink" viewBox="0 0 250 200"><defs><style>.cls-1,.cls-2{fill:none;}.cls-2{clip-rule:evenodd;}.cls-3{fill:#eaf2fb;}.cls-10,.cls-11,.cls-12,.cls-13,.cls-14,.cls-17,.cls-3,.cls-4,.cls-9{fill-rule:evenodd;}.cls-4{fill:#fff;}.cls-5{clip-path:url(#clip-path);}.cls-6{fill:#c8d4e5;}.cls-7{clip-path:url(#clip-path-2);}.cls-14,.cls-8{fill:#d6e3f2;}.cls-9{fill:#225e9f;}.cls-10,.cls-15{fill:#4cdf76;}.cls-11{fill:#bc7575;}.cls-12,.cls-18{fill:#a27079;}.cls-13{fill:#7f3d4a;}.cls-16{clip-path:url(#clip-path-3);}.cls-17{fill:#1a3149;}.cls-19{clip-path:url(#clip-path-4);}.cls-20{clip-path:url(#clip-path-5);}.cls-21{fill:#57a7ff;}</style><clipPath id="clip-path"><rect class="cls-1" x="36.11" y="140.99" width="2.44" height="8.95" transform="translate(-2.56 0.68) rotate(-1.01)"/></clipPath><clipPath id="clip-path-2"><rect class="cls-1" x="202.94" y="104.39" width="7.95" height="3.16" transform="translate(97.31 310.98) rotate(-88.99)"/></clipPath><clipPath id="clip-path-3"><path class="cls-2" d="M169,111.65a1.46,1.46,0,0,0-.28-.37l.13-.07c-3.16-8.69-16.13-31.64-26.34-34.55-3.36-1-5.37,0-7.83,0-1.21,1.55-.51,13.53.73,15.2,7.3,9.87,18.87,25.93,19.58,27.34l.11-.06c4.77,9.66,11.2,23,14.63,31.06,3.57.8,7.91-1.3,8.76-2.67C176.44,135.58,171.9,117.67,169,111.65Z"/></clipPath><clipPath id="clip-path-4"><rect class="cls-1" x="101.79" y="37.4" width="10.2" height="9.7" transform="translate(50.19 142.23) rotate(-82.01)"/></clipPath><clipPath id="clip-path-5"><rect class="cls-1" x="101.79" y="37.4" width="10.2" height="9.7" transform="translate(50.19 142.23) rotate(-82.01)"/></clipPath></defs><title>Serious_but_human</title><g id="Calque_4" data-name="Calque 4"><path id="blob" class="cls-3" d="M231,157.39a30.38,30.38,0,0,0-3.87-9.39c-6.06-9.58-18.89-7-11.45-14.19s7.93-40.07-7.64-49.65S167.3,88,166,77.07s-23.65-37-64.9-39S91.91,91.62,47.7,96.38s-22.91,60.84-22.91,60.84Z"/><g id="ordi"><path class="cls-4" d="M41,157c0-1,0-.33,0-.89,0,0-1.38-72.15,0-97.92a4.11,4.11,0,0,1,4.14-3.87c37-.4,112.67-1.62,153.23,0a4.16,4.16,0,0,1,4.14,3.87c1.38,25.77,0,97.92,0,97.92a1,1,0,0,1-.54.89Z"/><g id="Zigouigoui_2" data-name="Zigouigoui 2"><g class="cls-5"><path class="cls-6" d="M38.17,149.93c-.06-.6-.11-1.2-.16-1.8s-.09-1.19-.09-1.79a8.42,8.42,0,0,0-.2-1.78,7,7,0,0,1,0-1.8l.4,0a5.91,5.91,0,0,1,.36,1.78,12.52,12.52,0,0,0,0,1.82,13,13,0,0,1,0,1.81c0,.6-.05,1.2-.09,1.81Z"/><path class="cls-6" d="M36.55,148.23c-.06-.6-.11-1.2-.16-1.8s-.09-1.19-.09-1.79a8.42,8.42,0,0,0-.2-1.78,7,7,0,0,1,0-1.8l.4,0a5.91,5.91,0,0,1,.36,1.78,12.52,12.52,0,0,0,0,1.82,13,13,0,0,1,0,1.81c0,.6-.05,1.2-.09,1.81Z"/></g></g><path class="cls-3" d="M82.06,87.46s-20.24.21-27.72,0a.73.73,0,0,1-.75-.7s-.25-13.05,0-17.71a.74.74,0,0,1,.75-.7c6.69-.07,20.38-.29,27.72,0a.75.75,0,0,1,.75.7c.25,4.66,0,17.71,0,17.71A.73.73,0,0,1,82.06,87.46Z"/><path class="cls-3" d="M117,87.46s-20.24.21-27.72,0a.73.73,0,0,1-.75-.7s-.25-13.05,0-17.71a.74.74,0,0,1,.75-.7c6.69-.07,20.38-.29,27.72,0a.75.75,0,0,1,.75.7c.25,4.66,0,17.71,0,17.71A.73.73,0,0,1,117,87.46Z"/><path class="cls-3" d="M152,87.46s-20.24.21-27.72,0a.73.73,0,0,1-.75-.7s-.25-13.05,0-17.71a.74.74,0,0,1,.75-.7c6.69-.07,20.38-.29,27.72,0a.75.75,0,0,1,.75.7c.25,4.66,0,17.71,0,17.71A.73.73,0,0,1,152,87.46Z"/><path class="cls-3" d="M186.9,87.46s-20.24.21-27.72,0a.73.73,0,0,1-.75-.7s-.25-13.05,0-17.71a.74.74,0,0,1,.75-.7c6.69-.07,20.38-.29,27.72,0a.75.75,0,0,1,.75.7c.25,4.66,0,17.71,0,17.71A.73.73,0,0,1,186.9,87.46Z"/><path class="cls-3" d="M183.52,152.14s-92.11.62-126.13,0c-1.88,0-3.41-.94-3.41-2.11,0,0-1.14-39.28,0-53.31.09-1.16,1.53-2.09,3.41-2.11,30.46-.22,92.74-.88,126.13,0,1.88,0,3.32.94,3.41,2.11,1.14,14,0,53.31,0,53.31C186.93,151.2,185.41,152.14,183.52,152.14Z"/><g id="Zigouigoui_2-2" data-name="Zigouigoui 2"><g class="cls-7"><path class="cls-6" d="M205.86,109.93c.08-.53.14-1.06.2-1.59a11.65,11.65,0,0,0,.1-1.59,5.22,5.22,0,0,1,.24-1.58,4.29,4.29,0,0,0,0-1.6l-.52,0a3.83,3.83,0,0,0-.46,1.58,7.64,7.64,0,0,1,0,1.61,7.94,7.94,0,0,0,0,1.61c0,.54.07,1.07.13,1.61Z"/><path class="cls-6" d="M207.94,108.43c.08-.53.14-1.06.2-1.59a11.65,11.65,0,0,0,.1-1.59,5.22,5.22,0,0,1,.24-1.58,4.29,4.29,0,0,0,0-1.6l-.52,0a3.83,3.83,0,0,0-.46,1.58,7.64,7.64,0,0,1,0,1.61,7.94,7.94,0,0,0,0,1.61c0,.54.07,1.07.13,1.61Z"/></g></g><path class="cls-8" d="M22.73,157,76,156.88l53.32,0H156l26.66-.08c8.89,0,17.77,0,26.66,0s17.77.07,26.66.18v.51c-8.89.11-17.77.14-26.66.18s-17.77.09-26.66,0L156,157.63H129.37l-53.32,0-53.32-.16Z"/></g><path class="cls-9" d="M40.88,61.12s.09-2.39.15-3.48a4.3,4.3,0,0,1,4.14-4.26c37-.44,112.67-1.78,153.23,0a4.35,4.35,0,0,1,4.14,4.26c.05,1.08.15,3.47.15,3.47Z"/><path class="cls-10" d="M49.06,57.51a2.16,2.16,0,0,1-2.16,2.16,2.32,2.32,0,0,1-2.16-2.16,1.93,1.93,0,0,1,2.16-2.16A2.24,2.24,0,0,1,49.06,57.51Z"/><path class="cls-8" d="M22.73,157,76,156.88l53.32,0H156l26.66-.08c8.89,0,17.77,0,26.66,0s17.77.07,26.66.18v.51c-8.89.11-17.77.14-26.66.18s-17.77.09-26.66,0L156,157.63H129.37l-53.32,0-53.32-.16Z"/><path class="cls-11" d="M97.41,90.22c1.77.13,2,3.19,1.69,6.86-1.19,1-3.52,2.9-4.65,3.85C95.16,94.15,95.42,94.2,97.41,90.22Z"/><path class="cls-12" d="M32.19,111.77c-1.4-.08-2.38.32-2.16,1,.16.46,8.09.59,8,.69s-7.87-.22-8.91.08c-.7.2-.71.62-.49.75,1.15.68,9.17.42,9.16.62s-8.66-.18-9.68.06c-.37.09-.8.55-.31,1,.7.57,9,.33,9.12.64,0,.12-6,.42-7,.74-1.25.94.8,1,4.76,1,1.19,0,8-.36,11.85-.58,1.68.3,2.8.62,2.8.62s2-4.83,1.21-6.33c-2.06-.29-4.93-1.19-6.06-1.07A97.2,97.2,0,0,1,32.19,111.77Z"/><path class="cls-13" d="M46.5,117.74c1.68.3,2.8.62,2.8.62s2-4.83,1.21-6.33c-.34,0-.7-.11-1.08-.19-1-.21-2.18-.49-3.15-.68C46.11,113.43,45.8,115.56,46.5,117.74Z"/><path class="cls-4" d="M101.91,76.64c-8.42,4.84-14,25.22-18.31,29.54-1.08,1.08-4.75,4.24-14.29,4.46s-21.49-.58-21.49-.58l-1.39,10S76,130,87.73,125.25s19.62-25.37,19.62-25.37S107,73.74,101.91,76.64Z"/><path class="cls-14" d="M96.17,92.4c.3-1.65,5.72,8.59,4.67,10-3.15,4.17-.11,13.71-8.31,19.17C92,116.34,94.34,102.42,96.17,92.4Z"/><path class="cls-15" d="M52,121.73c-.09-3.8-.16-7.67-.22-11.45l3.68.17c.14,4.09.26,8.21.36,12.33C54.43,122.42,53.14,122.06,52,121.73Z"/><path class="cls-15" d="M61.25,124.1c-.3-4.44-.58-9-.82-13.49l3.66.06c.36,4.72.69,9.48,1,14.23C63.77,124.65,62.49,124.38,61.25,124.1Z"/><path class="cls-15" d="M72.16,126c-.9-5-1.81-10.27-2.66-15.41,1.32,0,2.53-.13,3.63-.27,1,5.32,1.94,10.69,2.85,16C74.72,126.33,73.45,126.2,72.16,126Z"/><path class="cls-15" d="M83.77,126.25c-1.95-5.29-4-11.16-6-16.76a18.06,18.06,0,0,0,1.8-.74,15.83,15.83,0,0,0,1.47-.71c2.14,5.73,4.24,11.56,6.27,17.36A17.47,17.47,0,0,1,83.77,126.25Z"/><path class="cls-15" d="M86.5,101.62c3.26,5.63,6.51,11.39,9.68,17.15a33.24,33.24,0,0,1-2.68,2.71c-2.94-5.19-6.12-10.94-9-16.35A28.36,28.36,0,0,0,86.5,101.62Z"/><path class="cls-15" d="M90,94.23c4.3,4.85,8.63,9.86,12.9,14.9-.61,1.09-1.29,2.22-2,3.35-4.15-4.84-8.53-10.07-12.46-14.84Z"/><path class="cls-15" d="M107.07,100s-.34,1-1,2.52c-4.55-4.19-9.44-8.81-13.82-13,.53-1.06,1.08-2.11,1.64-3.13,4.35,3.89,8.74,7.91,13.08,12C107,99.35,107.07,100,107.07,100Z"/><path class="cls-12" d="M38.76,108.67c-.9-.3-1.53,1.07.74,2.38.23.13,1.18.52,2.2.94,1.41.56,3,1.16,3,1.16l.9-2.1C39.33,108.86,39.89,109.05,38.76,108.67Z"/><path class="cls-12" d="M178.86,166.51c.53,1.36,1.34,2.1,1.86,1.62s-3-7.87-2.81-7.79,3.23,7.5,4,8.36c.5.57.89.4.92.13.14-1.38-3.6-8.82-3.41-8.89s3.6,8.24,4.28,9.09c.24.31.87.52,1-.12.24-.91-3.63-8.66-3.38-8.87.1-.08,3,5.49,3.74,6.24,1.43.77.56-1.18-1.09-4.94-.49-1.13-3.84-7.4-5.71-10.91-.45-1.71-.64-2.91-.64-2.91s-5.41.64-6.46,2.07c.62,2.07,1,4.71,1.6,5.72A100.88,100.88,0,0,1,178.86,166.51Z"/><path class="cls-12" d="M172.16,160.87c0,1,1.61,1.08,2-1.6,0-.27.07-1.34.08-2.48,0-1.57,0-3.3,0-3.3l-2.07-3.13S172.14,160.22,172.16,160.87Z"/><path class="cls-13" d="M171.47,151.15c-.22-1.3-.6-3.06-.6-3.06s5.07-2,6.6-1.08c0,.35.1.73.17,1.12.12.68,0,.56.18,1.24C177.9,149.79,171.52,151.4,171.47,151.15Z"/><path class="cls-4" d="M150.22,109.29c9.45-2.07,17.94.55,18.81,2.36,2.86,6,7.41,23.92,9.48,35.82-.85,1.38-5.19,3.47-8.76,2.68C164.83,138.55,153.72,116.16,150.22,109.29Z"/><path class="cls-4" d="M168.88,111.21c-3.16-8.69-16.13-31.64-26.34-34.55-3.36-1-5.37,0-7.83,0-1.21,1.55-.51,13.53.73,15.2,7.3,9.87,18.87,25.93,19.58,27.34Z"/><path class="cls-14" d="M138.58,92.92c1.66-.08,6.47-3.75,7.89-1.35,5.54,9.41,4.54,17.3,5.65,23.27-3.3-3.09-2.49-10.37-8.18-14C143.95,100.81,132.82,93.19,138.58,92.92Z"/><g class="cls-16"><path class="cls-15" d="M171.7,102.16c-13.31,7-27.3,13.8-40.07,19.52l-.78-2c6.63-4.24,38.88-20.9,48.83-25l1.46,2.48q-3.13,1.69-6.34,3.38Z"/><path class="cls-15" d="M175.58,110.46c-13.52,7.06-27.74,14-40.66,19.78l-.74-1.93c5.24-3.63,41.16-22.2,50.24-25.68l1.42,2.38q-3.52,1.9-7.15,3.82Z"/><path class="cls-15" d="M180.23,118.52c-14,7.13-28.65,14.17-42,20.06l-.81-2c7.33-4.52,42-22,51.83-25.87l1.44,2.43q-3.53,1.86-7.15,3.73Z"/><path class="cls-15" d="M184.1,126.82c-14.11,7.2-28.93,14.3-42.42,20.23l-.83-2c6.54-4.19,44.33-23.26,53-26.42l1.35,2.36q-3.87,2-7.86,4.1Z"/><path class="cls-15" d="M188,135.13c-14.14,7.22-29,14.34-42.51,20.27q-.45-.92-.9-1.89c6.21-4.07,46.53-24.41,53.84-26.75q.64,1.17,1.23,2.3-4.12,2.18-8.39,4.38Z"/><path class="cls-15" d="M167.82,93.85c-13.13,6.85-26.92,13.61-39.54,19.28-.3-.74-.59-1.44-.87-2.07,7.44-4.6,38.07-20.41,48.11-24.58.44.95.83,1.85,1.16,2.68q-2.85,1.53-5.77,3.07Z"/><path class="cls-15" d="M163.94,85.55c-13,6.77-26.57,13.44-39.07,19.06-.25-.72-.5-1.47-.75-2.22,8.23-4.94,36.9-19.73,47.1-24,.5.85,1,1.71,1.47,2.56l-5.65,3Z"/><path class="cls-15" d="M160.07,77.25c-12.53,6.55-25.67,13-37.83,18.5-.2-.85-.38-1.69-.54-2.51,9.32-5.37,33.81-18,44.35-22.63.6.77,1.22,1.61,1.84,2.5l-4.72,2.51Z"/></g><path class="cls-4" d="M95.22,103.7c.2-8.44,2.37-24.49,6.66-26.65,11.93-6,31-4.07,42.61,0,3.61,1.27,5.55,19.18,5,28.21-.24,4.15,3.51,32.2,4,48.9,0,1.28-60.61,3.32-60.68,1.76C92.16,139.79,95,114.12,95.22,103.7Z"/><path class="cls-15" d="M139.42,115c-15.11.67-30.8,1-44.9.73.05-.74.1-1.47.15-2.19,7.86-1,44.4-2.51,55.22-2,.08.9.17,1.86.28,2.89q-3.58.21-7.23.38Z"/><path class="cls-15" d="M139.42,124.2c-15.35.68-31.29,1-45.55.72l.14-2.08c6.33-1.08,47-2.72,56.81-2l.28,2.78q-4,.24-8.16.44Z"/><path class="cls-15" d="M140.23,133.54c-15.8.55-32.19.72-46.93.39q.06-1.1.13-2.2c8.62-1,47.77-2.19,58.34-1.52q.14,1.41.27,2.83-4,.19-8.12.35Z"/><path class="cls-15" d="M140.23,142.77c-15.95.56-32.5.72-47.35.38q0-1.06.08-2.13c7.76-1,50.39-2.34,59.67-1.51q.12,1.37.22,2.73-4.4.22-8.92.39Z"/><path class="cls-15" d="M140.23,152c-16,.56-32.58.73-47.45.38q0-1,0-2.1c7.4-1.07,52.88-2.44,60.55-1.47q.08,1.34.14,2.63-4.7.23-9.53.42Z"/><path class="cls-15" d="M139.42,105.74c-14.91.66-30.37.95-44.31.74,0-.81.07-1.56.09-2.26,8.75-1,43.45-2.41,54.4-1.93,0,1.05,0,2-.08,2.94l-6.57.35Z"/><path class="cls-15" d="M139.42,96.51c-14.72.65-30,.94-43.79.75.08-.77.16-1.55.26-2.34,9.62-1,42.1-2.28,53.24-1.87.1,1,.18,2,.24,3l-6.44.34Z"/><path class="cls-15" d="M139.42,87.28c-14.23.63-29,.92-42.42.77q.27-1.3.58-2.52c10.79-.93,38.53-2,50.13-1.75.22,1,.42,2,.61,3.07l-5.38.28Z"/><path class="cls-11" d="M113.94,69c.9.21,3.37,0,4.43.13-.78-.07-.18.25-4.43,1.5Z"/><path class="cls-12" d="M110.18,50.63c5.83.49,13.73,2,16.38,4.94,0,0-1.27,12.66-1.7,12.77-4.86,1.22-10.61,1.43-15.38-1A30.09,30.09,0,0,1,110.18,50.63Z"/><path class="cls-17" d="M113.44,52.49c-.57-.08-4.94-.44-3.76-3.75.86-2.42,15.43-7.69,20.65,1.35,2.16,3.74,2.19,6.95.15,11.73-.84,2-4.69,6.06-5.14,5.06-.79-3.33.46-9.57-1.54-12.32C122.11,52.26,116.16,52.72,113.44,52.49Z"/><ellipse class="cls-18" cx="126.12" cy="60.37" rx="2.72" ry="2.61" transform="matrix(0.16, -0.99, 0.99, 0.16, 46.42, 175.25)"/><path class="cls-12" d="M113.94,66.22,125.29,62c1,9.4,1.07,8.56,1.38,13.86-1.8,2.31-10.76,2.62-12.63.37C113.94,73.26,113.94,66.22,113.94,66.22Z"/><path class="cls-17" d="M114.4,60.83c-5.34-.62-7.66,1.77-6.28,7.18,1,3.84,2.82,7.18,6.28,7.18a9.05,9.05,0,0,0,8.51-5.77c.6-1.64,2.42-5.29,2.08-15,0-.25,0-.51-.6,0-1.8,1.54-4.72,8.46-5.67,8.09S115.84,61,114.4,60.83Z"/><g id="Zigougoui_1" data-name="Zigougoui 1"><g class="cls-19"><g class="cls-20"><path class="cls-21" d="M108,37.32l.1,0a.33.33,0,0,1,.26.07l.06.06c4.19,5.46,6.62,10.51,3.26,5a.34.34,0,0,1,0,.23.33.33,0,0,1-.35.27l-.1,0a.34.34,0,0,1-.13-.1,15.58,15.58,0,0,1-3.26-5,.35.35,0,0,1,0-.1.33.33,0,0,1,0-.26l.07-.08,0,0"/><path class="cls-21" d="M104.32,40.5l.09-.06a.33.33,0,0,1,.26,0l.07,0a55.13,55.13,0,0,1,4.55,3.86.34.34,0,0,1,.11.21.33.33,0,0,1-.26.36H109a.35.35,0,0,1-.15-.06A15.62,15.62,0,0,1,104.33,41l-.07-.08a.33.33,0,0,1,0-.26.37.37,0,0,1,0-.1l0,0"/><path class="cls-21" d="M101.68,44.59l.07-.09a.33.33,0,0,1,.25-.08l.08,0a55.14,55.14,0,0,1,5.46,2.41.35.35,0,0,1,.17.17.33.33,0,0,1-.15.42l-.1,0a.34.34,0,0,1-.16,0A15.59,15.59,0,0,1,101.84,45l-.09-.06a.33.33,0,0,1-.11-.24.37.37,0,0,1,0-.11l0-.05"/></g></g></g></g></svg>