<svg xmlns="http://www.w3.org/2000/svg" xmlns:xlink="http://www.w3.org/1999/xlink" viewBox="0 0 250 200"><defs><style>.cls-1,.cls-12{fill:none;}.cls-2{fill:#d6e3f2;}.cls-18,.cls-3{fill:#eaf2fb;}.cls-11,.cls-12,.cls-17,.cls-3,.cls-4,.cls-5,.cls-6,.cls-7{fill-rule:evenodd;}.cls-4{fill:#57a7ff;}.cls-5{fill:#529bec;}.cls-10,.cls-6{fill:#67b1ff;}.cls-7{fill:#79e798;}.cls-11,.cls-8{fill:#45ce70;}.cls-17,.cls-9{fill:#fff;}.cls-12{stroke:#45ce70;stroke-miterlimit:10;}.cls-13{clip-path:url(#clip-path);}.cls-14{clip-path:url(#clip-path-3);}.cls-15{clip-path:url(#clip-path-5);}.cls-16{clip-path:url(#clip-path-7);}.cls-19{clip-path:url(#clip-path-9);}.cls-20{clip-path:url(#clip-path-10);}.cls-21{fill:#ffed72;}.cls-22{clip-path:url(#clip-path-11);}.cls-23{clip-path:url(#clip-path-13);}.cls-24{clip-path:url(#clip-path-15);}.cls-25{clip-path:url(#clip-path-17);}.cls-26{clip-path:url(#clip-path-19);}.cls-27{clip-path:url(#clip-path-20);}</style><clipPath id="clip-path"><rect class="cls-1" x="189.93" y="96.98" width="4.43" height="4.43"/></clipPath><clipPath id="clip-path-3"><rect class="cls-1" x="175.99" y="49.18" width="4.43" height="4.43"/></clipPath><clipPath id="clip-path-5"><rect class="cls-1" x="130.93" y="98.98" width="4.43" height="4.43"/></clipPath><clipPath id="clip-path-7"><rect class="cls-1" x="120.93" y="64.98" width="4.43" height="4.43"/></clipPath><clipPath id="clip-path-9"><rect class="cls-1" x="224.04" y="39.15" width="9.7" height="10.2" transform="translate(29.19 164.54) rotate(-42.01)"/></clipPath><clipPath id="clip-path-10"><rect class="cls-1" x="224.04" y="39.15" width="9.7" height="10.2" transform="translate(29.19 164.54) rotate(-42.01)"/></clipPath><clipPath id="clip-path-11"><rect class="cls-1" x="135.7" y="104.26" width="2.49" height="2.49"/></clipPath><clipPath id="clip-path-13"><rect class="cls-1" x="156.51" y="114.42" width="2.49" height="2.49"/></clipPath><clipPath id="clip-path-15"><rect class="cls-1" x="208.02" y="65.61" width="2.49" height="2.49"/></clipPath><clipPath id="clip-path-17"><rect class="cls-1" x="140.75" y="110.8" width="3.08" height="10.36" transform="translate(14.56 247.82) rotate(-85.09)"/></clipPath><clipPath id="clip-path-19"><rect class="cls-1" x="138.11" y="34.44" width="10.36" height="3.08" transform="translate(1.6 77.83) rotate(-30.55)"/></clipPath><clipPath id="clip-path-20"><rect class="cls-1" x="138.11" y="34.44" width="10.36" height="3.08" transform="translate(1.6 77.83) rotate(-30.55)"/></clipPath></defs><title>Tone_storytelling</title><g id="Calque_7" data-name="Calque 7"><path class="cls-2" d="M27.73,141l17.82-.16c5.94,0,11.88-.08,17.82,0s11.88,0,17.82-.1,11.88,0,17.82.24v.51c-5.94.2-11.88.26-17.82.24s-11.88-.15-17.82-.1-11.88,0-17.82,0l-17.82-.16Z"/><path id="blob" class="cls-3" d="M122.64,111.53c1.9-.69,72.65,7.9,79.36-1.53s-7.5-19.15,2-22,19.78-15.66,16.92-35.83S183.15,57.2,174,37s-60.91,28.44-60.91,28.44Z"/><g id="v1"><path class="cls-4" d="M35.07,93.77c.08.25,12.38-1.83,12.34-2.07-.54-3.19-.82-4.88-1.45-8.64,0-.24-12.35,1.75-12.34,2.07A34,34,0,0,0,35.07,93.77Z"/><path class="cls-4" d="M50.26,149.89c.46,1,23.45-3,23-3.86-8-14.52-12.52-19.32-20.52-33.87-.5-.91-16.11,1.64-15.75,2.65,5.66,15.71,6.54,19.85,12.14,32.48Z"/><path class="cls-5" d="M53.89,114.3l-1.19-2.13c-.5-.91-16.11,1.64-15.75,2.65C37.68,116.82,53,115,53.89,114.3Z"/><path class="cls-4" d="M41.34,99.7c1.36,8.11,1.82,10.81-7.19,12.33-7.21,1.21-9.82-3.33-10.83-9.3s0-11.12,7.19-12.33C39.52,88.88,40,91.59,41.34,99.7Z"/><path class="cls-6" d="M127.95,85.76c.91,5.41-2,7.75-6,8.42a7.31,7.31,0,1,1-2.42-14.42C123.51,79.1,127,80.36,127.95,85.76Z"/><path class="cls-4" d="M120.27,114.85c-33.15-9.25-73.11-2.54-73.11-2.54L42.93,87.08s50.41-10.32,68.26-26.3C116.08,71.08,121.23,101.72,120.27,114.85Z"/><path class="cls-5" d="M120.27,114.85c-3.74-1-7.56-1.88-11.4-2.55,11.39-32.15-15.54-35.54,2.31-51.51C116.08,71.08,121.23,101.72,120.27,114.85Z"/><path class="cls-7" d="M125.39,114.66c0,1.56-7,2.75-7.21,1.21-3.88-23.07-5.94-24.31-9.3-55.37-.17-1.55,7.09-2.77,7.21-1.21C117.72,80.07,125,101.09,125.39,114.66Z"/><path class="cls-7" d="M35.19,115.56c.2.82,19.51-2.49,19.39-3.26-1.72-10.22-2.63-15.62-4.64-27.64-.13-.78-19.47,2.45-19.39,3.26A220.55,220.55,0,0,0,35.19,115.56Z"/><path class="cls-8" d="M112.39,58.54c.52,4.85,1.3,9.68,2.06,14.51l2.39,14.47c.78,4.83,1.71,9.63,2.67,14.42s1.76,9.62,2.62,14.43l-.49.11c-1.24-4.75-2.21-9.54-3.09-14.36s-1.6-9.66-2.47-14.47-1.62-9.65-2.32-14.5-1.33-9.7-1.75-14.58Z"/><path class="cls-9" d="M60.69,83a51.55,51.55,0,0,0,1,8.31,11.8,11.8,0,0,0,1.4,3.82,3.18,3.18,0,0,0,.29.39l.33.31a7,7,0,0,0,.86.51,11.5,11.5,0,0,0,1.9.75,28.29,28.29,0,0,0,8.22,1,47.83,47.83,0,0,0,8.3-.8,29.92,29.92,0,0,0,7.89-2.54,12.82,12.82,0,0,0,3.3-2.35,5.76,5.76,0,0,0,1.12-1.57,5.26,5.26,0,0,0,.34-1.88,19.37,19.37,0,0,0-.41-4.07c-.25-1.36-.59-2.71-1-4.05-.75-2.68-1.62-5.35-2.58-8l.47-.19a69.3,69.3,0,0,1,3,7.92A28,28,0,0,1,96.61,89a6,6,0,0,1-.47,2.23A6.69,6.69,0,0,1,94.8,93a13.62,13.62,0,0,1-3.58,2.43,33.8,33.8,0,0,1-8.09,2.6,44.15,44.15,0,0,1-8.44.84,29,29,0,0,1-8.43-1.11,12.19,12.19,0,0,1-2-.82,7.6,7.6,0,0,1-.94-.57L62.87,96a3.76,3.76,0,0,1-.33-.46,12.3,12.3,0,0,1-1.41-4.07A52,52,0,0,1,60.29,83Z"/><path class="cls-10" d="M48.74,146.52c3.65-.5,7.27-1.15,10.9-1.67A42.36,42.36,0,0,0,65,143.7a35.62,35.62,0,0,0,5.18-1.51l.28.42a9.46,9.46,0,0,1-2.55,1.28,22.28,22.28,0,0,1-2.69.76c-.91.18-1.83.31-2.74.47l-2.73.49a106.75,106.75,0,0,1-11,1.29Z"/><path class="cls-9" d="M22.51,98.3l1.32-.14a7.52,7.52,0,0,1,1.32,0A4,4,0,0,0,26.46,98a3,3,0,0,1,1.33.17l0,.5A2.76,2.76,0,0,1,26.5,99a4.91,4.91,0,0,0-1.34-.06,6,6,0,0,1-1.34,0c-.45-.05-.89-.11-1.33-.19Z"/><path class="cls-9" d="M22.51,102l1.32-.14a7.52,7.52,0,0,1,1.32,0,3.94,3.94,0,0,0,1.31-.14,3,3,0,0,1,1.33.17l0,.5a2.76,2.76,0,0,1-1.32.32,4.9,4.9,0,0,0-1.34-.06,6,6,0,0,1-1.34,0c-.45-.05-.89-.11-1.33-.19Z"/><path class="cls-9" d="M23.74,105.7l1.32-.14a7.5,7.5,0,0,1,1.32,0,4,4,0,0,0,1.31-.14,3,3,0,0,1,1.33.17l0,.5a2.76,2.76,0,0,1-1.32.32,4.89,4.89,0,0,0-1.34-.06,6,6,0,0,1-1.34,0c-.45-.05-.89-.11-1.33-.19Z"/><path class="cls-11" d="M33.46,94.75c.06.1,15.06-2.43,15-2.53-.22-1.29-.33-2-.59-3.49,0-.1-15,2.42-15,2.53A4.7,4.7,0,0,0,33.46,94.75Z"/><path class="cls-11" d="M35.72,110.81c0,.1,6.08-.92,6.07-1l-.59-3.49c0-.1-6.07.92-6.07,1A11.3,11.3,0,0,0,35.72,110.81Z"/><path class="cls-12" d="M33.46,98.45c.06.1,15.06-2.43,15-2.53"/><path class="cls-12" d="M34.69,102.15c.06.1,15.06-2.43,15-2.53"/><path class="cls-11" d="M44.35,109.58c.15.42,6.11-.79,6.07-1l-.59-3.49c0-.1-6.07.92-6.07,1A11.3,11.3,0,0,0,44.35,109.58Z"/></g><path class="cls-9" d="M195.19,39.9l19.51,1.26A5,5,0,0,1,220,46.46v7.31c0,3.16-2.56,5.29-5.71,5.29h-7.86l-3.79,2.57v-3h-7a5.71,5.71,0,0,1-5.71-5.71V45.61C189.9,42.46,192,39.9,195.19,39.9Z"/><path class="cls-9" d="M193.81,64.28l-19.51,1.26A5,5,0,0,0,169,70.84v7.31c0,3.16,2.56,5.29,5.71,5.29h7.86L186.36,86V83h7a5.71,5.71,0,0,0,5.71-5.71V70C199.1,66.84,197,64.28,193.81,64.28Z"/><g id="Zigouigoui_2" data-name="Zigouigoui 2"><g class="cls-13"><g class="cls-13"><path class="cls-9" d="M192.2,97c.07.36.12.73.18,1.09a7.14,7.14,0,0,1,.14,1.09,6.14,6.14,0,0,1-.11,1.09c-.06.36-.11.73-.21,1.09a0,0,0,0,1-.06,0,0,0,0,0,1,0,0c-.1-.36-.15-.73-.21-1.09a6.07,6.07,0,0,1-.11-1.09,7.14,7.14,0,0,1,.14-1.09c.06-.36.11-.73.18-1.09a0,0,0,0,1,.09,0"/><path class="cls-9" d="M190,99.15c.36-.07.73-.12,1.09-.18a7.13,7.13,0,0,1,1.09-.14,6.07,6.07,0,0,1,1.09.11c.36.06.73.11,1.09.21a0,0,0,0,1,0,.06,0,0,0,0,1,0,0c-.36.1-.73.15-1.09.21a6.14,6.14,0,0,1-1.09.11,7.13,7.13,0,0,1-1.09-.14c-.36-.06-.73-.11-1.09-.18a0,0,0,0,1,0-.05,0,0,0,0,1,0,0"/></g></g></g><g id="Zigouigoui_2-2" data-name="Zigouigoui 2"><g class="cls-14"><g class="cls-14"><path class="cls-9" d="M178.25,49.22c.07.36.12.73.18,1.09a7.14,7.14,0,0,1,.14,1.09,6.14,6.14,0,0,1-.11,1.09c-.06.36-.11.73-.21,1.09a0,0,0,0,1-.06,0,0,0,0,0,1,0,0c-.1-.36-.15-.73-.21-1.09a6.07,6.07,0,0,1-.11-1.09,7.14,7.14,0,0,1,.14-1.09c.06-.36.11-.73.18-1.09a0,0,0,0,1,.09,0"/><path class="cls-9" d="M176,51.35c.36-.07.73-.12,1.09-.18A7.13,7.13,0,0,1,178.2,51a6.07,6.07,0,0,1,1.09.11c.36.06.73.11,1.09.21a0,0,0,0,1,0,.06,0,0,0,0,1,0,0c-.36.1-.73.15-1.09.21a6.14,6.14,0,0,1-1.09.11,7.13,7.13,0,0,1-1.09-.14c-.36-.06-.73-.11-1.09-.18a0,0,0,0,1,0-.05,0,0,0,0,1,0,0"/></g></g></g><path class="cls-9" d="M214.34,72.55a1.17,1.17,0,0,0-.85-.7,1.29,1.29,0,0,0-1,.25A1.13,1.13,0,0,0,212,73a1.05,1.05,0,0,0,.42.91l0,0,.12.09,0,0a1,1,0,0,0,.7.14,1.4,1.4,0,0,0,.58-.24,1,1,0,0,0,.38-.5,2,2,0,0,0,.11-.35c0-.12,0-.25,0-.4l.48-.16a4.7,4.7,0,0,1,.2.54,2.48,2.48,0,0,1,0,.59,1.59,1.59,0,0,1-.59,1.08,1.67,1.67,0,0,1-1.19.35,2.25,2.25,0,0,1-1.09-.41l0,0-.12-.09h0l0,0a1.94,1.94,0,0,1-.75-1.5,1.78,1.78,0,0,1,.86-1.46,1.93,1.93,0,0,1,1.62-.19,1.61,1.61,0,0,1,1.07,1.14Z"/><g id="Zigouigoui_2-3" data-name="Zigouigoui 2"><g class="cls-15"><g class="cls-15"><path class="cls-9" d="M133.2,99c.07.36.12.73.18,1.09a7.14,7.14,0,0,1,.14,1.09,6.14,6.14,0,0,1-.11,1.09c-.06.36-.11.73-.21,1.09a0,0,0,0,1-.06,0,0,0,0,0,1,0,0c-.1-.36-.15-.73-.21-1.09a6.07,6.07,0,0,1-.11-1.09,7.14,7.14,0,0,1,.14-1.09c.06-.36.11-.73.18-1.09a0,0,0,0,1,.09,0"/><path class="cls-9" d="M131,101.15c.36-.07.73-.12,1.09-.18a7.13,7.13,0,0,1,1.09-.14,6.07,6.07,0,0,1,1.09.11c.36.06.73.11,1.09.21a0,0,0,0,1,0,.06,0,0,0,0,1,0,0c-.36.1-.73.15-1.09.21a6.14,6.14,0,0,1-1.09.11,7.13,7.13,0,0,1-1.09-.14c-.36-.06-.73-.11-1.09-.18a0,0,0,0,1,0-.05,0,0,0,0,1,0,0"/></g></g></g><g id="Zigouigoui_2-4" data-name="Zigouigoui 2"><g class="cls-16"><g class="cls-16"><path class="cls-9" d="M123.2,65c.07.36.12.73.18,1.09a7.14,7.14,0,0,1,.14,1.09,6.14,6.14,0,0,1-.11,1.09c-.06.36-.11.73-.21,1.09a0,0,0,0,1-.06,0,0,0,0,0,1,0,0c-.1-.36-.15-.73-.21-1.09a6.07,6.07,0,0,1-.11-1.09,7.14,7.14,0,0,1,.14-1.09c.06-.36.11-.73.18-1.09a0,0,0,0,1,.09,0"/><path class="cls-9" d="M121,67.15c.36-.07.73-.12,1.09-.18a7.13,7.13,0,0,1,1.09-.14,6.07,6.07,0,0,1,1.09.11c.36.06.73.11,1.09.21a0,0,0,0,1,0,.06,0,0,0,0,1,0,0c-.36.1-.73.15-1.09.21a6.14,6.14,0,0,1-1.09.11,7.13,7.13,0,0,1-1.09-.14c-.36-.06-.73-.11-1.09-.18a0,0,0,0,1,0-.05,0,0,0,0,1,0,0"/></g></g></g><g id="ordi"><path class="cls-17" d="M157,82.35s-14.39,3.58-19.06,4.76c-.6.15-1.49-.71-1.79-1.44-.81-2-6.66-25.89-8.78-35.18-.18-.77.71-1.61,1-1.72,4.55-1.78,19-5,19.06-4.76a1.85,1.85,0,0,1,1.7,1c2.49,9.19,8.89,35.6,8.89,35.6C158.21,81.42,157.31,82.27,157,82.35Z"/><path class="cls-3" d="M155.8,78s-13.52,3.74-18.64,4.65c-.28.05-.63-.39-.79-1,0,0-5.58-21.63-7.34-29.41-.15-.64-.06-1.21.21-1.29,4.47-1.24,13.58-3.91,18.64-4.65.28,0,.62.4.79,1C150.77,55,156,76.71,156,76.71,156.17,77.35,156.08,77.93,155.8,78Z"/><circle class="cls-18" cx="138.47" cy="47.37" r="0.43" transform="translate(-7.35 34.96) rotate(-14.02)"/><path class="cls-3" d="M155.47,81.38c-8.32,2.52-16.43,4.1-16.43,4.1a.87.87,0,0,1-1.05-.63h0a.89.89,0,0,1,.63-1.05C144,82,155,79.69,155,79.69a.87.87,0,0,1,1.05.63h0A.88.88,0,0,1,155.47,81.38Z"/></g><g id="Zigougoui_1" data-name="Zigougoui 1"><g class="cls-19"><g class="cls-20"><path class="cls-21" d="M231.95,48.27a.38.38,0,0,1,0,.1.33.33,0,0,1-.22.16h-.08c-6.88-.3-12.31-1.69-5.92-.71a.34.34,0,0,1-.21-.11.33.33,0,0,1,0-.45l.09-.06a.34.34,0,0,1,.16,0,15.58,15.58,0,0,1,5.92.71l.1,0a.33.33,0,0,1,.17.2.37.37,0,0,1,0,.11.36.36,0,0,1,0,.05"/><path class="cls-21" d="M231.89,43.41a.35.35,0,0,1,0,.11.33.33,0,0,1-.16.21l-.08,0a55.13,55.13,0,0,1-5.88,1,.34.34,0,0,1-.23,0,.33.33,0,0,1-.11-.43.31.31,0,0,1,.07-.09.35.35,0,0,1,.14-.08,15.62,15.62,0,0,1,5.88-1h.11a.33.33,0,0,1,.22.14.37.37,0,0,1,0,.1v.05"/><path class="cls-21" d="M230.45,38.76a.38.38,0,0,1,0,.11.33.33,0,0,1-.1.25l-.06,0A55.14,55.14,0,0,1,225,41.8a.35.35,0,0,1-.24,0,.33.33,0,0,1-.23-.38.34.34,0,0,1,.15-.22A15.59,15.59,0,0,1,230,38.59l.1,0a.33.33,0,0,1,.25.08l.07.08,0,0"/></g></g></g><path class="cls-17" d="M155.44,114.94h0a2.73,2.73,0,0,1-2.21-3.51l.24-1a1,1,0,0,1,1.25-.79l3.68.84a1,1,0,0,1,.79,1.25l-.24,1A2.75,2.75,0,0,1,155.44,114.94Z"/><path class="cls-9" d="M168.77,101c-.81,2.7-3.12,4.48-5.53,6.52-1.35,1.14-3.17,2.52-3.58,3.68-1.86.27-3.71-.15-6.2-1.44,0-1.88-.5-2.64-1.31-4.77-1.44-3.78-2.72-5.16-2.48-8.34.52-7,6.73-9.81,12-8.61S170.78,94.3,168.77,101Z"/><path class="cls-18" d="M155,110.53a57.72,57.72,0,0,1,.4-11.47,16,16,0,0,1,.72-2.83,7.67,7.67,0,0,1,.65-1.37A2.65,2.65,0,0,1,158,93.75a1.34,1.34,0,0,1,1,.06,2,2,0,0,1,.69.56,4.25,4.25,0,0,1,.71,1.41,4.69,4.69,0,0,1,.22,1.55,1.77,1.77,0,0,1-.24.88.91.91,0,0,1-.49.38,1.14,1.14,0,0,1-.57,0,.92.92,0,0,1-.51-.35,1,1,0,0,1-.18-.53,2.32,2.32,0,0,1,.13-.85,5.46,5.46,0,0,1,.72-1.36,4.88,4.88,0,0,1,1.06-1.12,2,2,0,0,1,.8-.38,1,1,0,0,1,1,.38,2.88,2.88,0,0,1,.47,1.59c0,.49,0,1,0,1.48a16.85,16.85,0,0,1-.43,2.9,35.19,35.19,0,0,1-4.73,10.49l-.43-.26a52.28,52.28,0,0,0,4.21-10.47,16.45,16.45,0,0,0,.51-2.73c.07-.46,0-.91.06-1.37a2.27,2.27,0,0,0-.25-1.13.24.24,0,0,0-.26-.12,1.12,1.12,0,0,0-.48.23,4.16,4.16,0,0,0-.88,1,4.71,4.71,0,0,0-.6,1.16,1.6,1.6,0,0,0-.09.55c0,.16,0,.15.11.18s.12,0,.19-.05a1,1,0,0,0,.11-.49,3.91,3.91,0,0,0-.2-1.27c-.23-.8-.85-1.71-1.37-1.5a1.94,1.94,0,0,0-.84.77,7,7,0,0,0-.59,1.2,15.26,15.26,0,0,0-.73,2.69,60.53,60.53,0,0,0-.7,11.33Z"/><path class="cls-3" d="M159.28,113.07s-4.67-1-6.38-1.45c-.09,0-.16-.08-.15-.13s.32-1.68.51-2.26c0,0,.1-.07.19,0,1.54.34,4.7,1,6.38,1.45.09,0,.16.08.15.13-.08.61-.51,2.26-.51,2.26S159.38,113.09,159.28,113.07Z"/><path class="cls-9" d="M153.22,109.65c1.13.2,2.27.38,3.38.67a15.32,15.32,0,0,0,1.69.33,9.34,9.34,0,0,1,1.65.5l-.06.25a9.34,9.34,0,0,1-1.7-.26,15.37,15.37,0,0,0-1.67-.43c-1.13-.22-2.23-.55-3.33-.86Z"/><path class="cls-9" d="M152.94,110.88c1.13.2,2.27.38,3.38.67a15.25,15.25,0,0,0,1.69.33,9.36,9.36,0,0,1,1.65.5l-.06.25a9.36,9.36,0,0,1-1.7-.26,15.24,15.24,0,0,0-1.67-.43c-1.13-.22-2.23-.55-3.33-.86Z"/><path class="cls-18" d="M164.24,89.66a6.51,6.51,0,0,1,1.55,1A5.13,5.13,0,0,1,167,92.14c.27.56.63,1.07.91,1.65a3.51,3.51,0,0,1,.21,1.86l-.5.07a10,10,0,0,1-.64-1.6,3.66,3.66,0,0,0-.64-1.56c-.33-.46-.66-.92-1-1.36A7.94,7.94,0,0,0,164,90Z"/><g id="Zigougoui_1-2" data-name="Zigougoui 1"><path class="cls-9" d="M172.8,92.31a.19.19,0,0,1,0,.05.16.16,0,0,1-.07.11l0,0a27.34,27.34,0,0,1-2.88.72.17.17,0,0,1-.12,0,.17.17,0,0,1-.07-.21l0,0,.07,0a7.75,7.75,0,0,1,2.88-.72h.05a.17.17,0,0,1,.12.06l0,0v0"/><path class="cls-9" d="M171.91,90.06a.17.17,0,0,1,0,.05.16.16,0,0,1,0,.13l0,0a27.42,27.42,0,0,1-2.56,1.51.17.17,0,0,1-.12,0,.17.17,0,0,1-.13-.18.16.16,0,0,1,0-.05.18.18,0,0,1,.05-.06A7.77,7.77,0,0,1,171.68,90l.05,0a.16.16,0,0,1,.13,0l0,0v0"/><path class="cls-9" d="M170.42,88.16l0,0a.17.17,0,0,1,0,.13l0,0a27.43,27.43,0,0,1-2,2.17.17.17,0,0,1-.11.05.17.17,0,0,1-.17-.14.17.17,0,0,1,0-.13,7.75,7.75,0,0,1,2-2.17l0,0a.17.17,0,0,1,.13,0l0,0,0,0"/></g><g id="Zigouigoui_2-5" data-name="Zigouigoui 2"><g class="cls-22"><g class="cls-22"><path class="cls-9" d="M137,104.28c0,.2.07.41.1.61a4,4,0,0,1,.08.61,3.45,3.45,0,0,1-.06.61c0,.2-.06.41-.12.61a0,0,0,0,1,0,0l0,0c-.05-.2-.09-.41-.12-.61a3.41,3.41,0,0,1-.06-.61,4,4,0,0,1,.08-.61c0-.2.06-.41.1-.61a0,0,0,0,1,0,0l0,0"/><path class="cls-9" d="M135.72,105.48l.61-.1a4,4,0,0,1,.61-.08,3.41,3.41,0,0,1,.61.06c.2,0,.41.06.61.12a0,0,0,0,1,0,0l0,0c-.2.05-.41.09-.61.12a3.45,3.45,0,0,1-.61.06,4,4,0,0,1-.61-.08l-.61-.1a0,0,0,0,1,0,0l0,0"/></g></g></g><g id="Zigouigoui_2-6" data-name="Zigouigoui 2"><g class="cls-23"><g class="cls-23"><path class="cls-9" d="M157.78,114.44c0,.2.07.41.1.61a4,4,0,0,1,.08.61,3.45,3.45,0,0,1-.06.61c0,.2-.06.41-.12.61a0,0,0,0,1,0,0l0,0c-.05-.2-.09-.41-.12-.61a3.41,3.41,0,0,1-.06-.61,4,4,0,0,1,.08-.61c0-.2.06-.41.1-.61a0,0,0,0,1,0,0l0,0"/><path class="cls-9" d="M156.53,115.64l.61-.1a4,4,0,0,1,.61-.08,3.41,3.41,0,0,1,.61.06c.2,0,.41.06.61.12a0,0,0,0,1,0,0l0,0c-.2.05-.41.09-.61.12a3.45,3.45,0,0,1-.61.06,4,4,0,0,1-.61-.08l-.61-.1a0,0,0,0,1,0,0l0,0"/></g></g></g><g id="Zigouigoui_2-7" data-name="Zigouigoui 2"><g class="cls-24"><g class="cls-24"><path class="cls-9" d="M209.29,65.63c0,.2.07.41.1.61a4,4,0,0,1,.08.61,3.45,3.45,0,0,1-.06.61c0,.2-.06.41-.12.61a0,0,0,0,1,0,0l0,0c-.05-.2-.09-.41-.12-.61a3.41,3.41,0,0,1-.06-.61,4,4,0,0,1,.08-.61c0-.2.06-.41.1-.61a0,0,0,0,1,0,0l0,0"/><path class="cls-9" d="M208,66.83l.61-.1a4,4,0,0,1,.61-.08,3.41,3.41,0,0,1,.61.06c.2,0,.41.06.61.12a0,0,0,0,1,0,0l0,0c-.2.05-.41.09-.61.12a3.45,3.45,0,0,1-.61.06,4,4,0,0,1-.61-.08l-.61-.1a0,0,0,0,1,0,0l0,0"/></g></g></g><path class="cls-9" d="M142.92,128.24c-.1-.08-.17-.13-.26-.11s-.08,0-.12,0a.12.12,0,0,0-.08.07c-.06,0,0,.1-.05.12a.11.11,0,0,0,0,.16l0,0,0,0,0,0c.07,0,.11,0,.14,0s0-.06,0-.06,0,0,.08,0a.51.51,0,0,0,.17-.16l.48-.16a.71.71,0,0,1,.18.54.79.79,0,0,1-.29.57.8.8,0,0,1-.63.18,1.54,1.54,0,0,1-.53-.23l0,0,0,0h0a1,1,0,0,1-.38-.74.86.86,0,0,1,.45-.73.75.75,0,0,1,.39-.12.73.73,0,0,1,.39.06.76.76,0,0,1,.47.56Z"/><path class="cls-9" d="M37.89,120.84a29.34,29.34,0,0,1,4.55-2.51,14.56,14.56,0,0,1,2.49-.85,5.5,5.5,0,0,1,2.72,0,2.77,2.77,0,0,1,1.24.77,3.08,3.08,0,0,1,.43.6l.3.57,1.23,2.26c.84,1.5,1.63,3,2.42,4.56s1.53,3.09,2.23,4.68a18.54,18.54,0,0,1,.9,2.49,3.73,3.73,0,0,1,.13,1.47,1.64,1.64,0,0,1-.41.79,3.86,3.86,0,0,1-.58.5,17.23,17.23,0,0,1-5,1.81,45,45,0,0,1-5.12.87l-.08-.5c1.67-.38,3.33-.79,5-1.25A20.35,20.35,0,0,0,55,135.3c.3-.22.58-.43.61-.65a3.08,3.08,0,0,0-.07-1.09,14.07,14.07,0,0,0-.76-2.39c-.63-1.58-1.43-3.1-2.21-4.62L50.14,122l-1.19-2.29-.29-.58a2.33,2.33,0,0,0-.31-.45,2,2,0,0,0-.91-.58,5,5,0,0,0-2.38,0,14,14,0,0,0-2.41.73,28.86,28.86,0,0,0-4.54,2.32Z"/><g id="Zigouigoui_2-8" data-name="Zigouigoui 2"><g class="cls-25"><g class="cls-25"><path class="cls-18" d="M137.05,116.48c.7,0,1.39,0,2.09,0a20.28,20.28,0,0,1,2.07.11,9,9,0,0,0,2.07,0,7.45,7.45,0,0,1,2.07.25v.51a6.35,6.35,0,0,1-2.1.24,13.31,13.31,0,0,0-2.1-.18,13.84,13.84,0,0,1-2.09-.17c-.69-.1-1.38-.21-2.07-.34Z"/><path class="cls-18" d="M139.21,114.66c.7,0,1.39,0,2.09,0a20.28,20.28,0,0,1,2.07.11,9,9,0,0,0,2.07,0,7.45,7.45,0,0,1,2.07.25v.51a6.35,6.35,0,0,1-2.1.24,13.31,13.31,0,0,0-2.1-.18,13.84,13.84,0,0,1-2.09-.17c-.69-.1-1.38-.21-2.07-.34Z"/></g></g></g><g id="Zigouigoui_2-9" data-name="Zigouigoui 2"><g class="cls-26"><g class="cls-27"><path class="cls-18" d="M139.32,39.43c.56-.41,1.14-.8,1.71-1.2a20.28,20.28,0,0,1,1.75-1.12,9,9,0,0,0,1.67-1.23,7.45,7.45,0,0,1,1.83-1l.3.41A6.35,6.35,0,0,1,145,36.7a13.31,13.31,0,0,0-1.81,1.07,13.84,13.84,0,0,1-1.8,1.07c-.62.32-1.25.63-1.88.93Z"/><path class="cls-18" d="M140,36.69c.56-.41,1.14-.8,1.71-1.2a20.28,20.28,0,0,1,1.75-1.12,9,9,0,0,0,1.67-1.23,7.45,7.45,0,0,1,1.83-1l.3.41A6.35,6.35,0,0,1,145.71,34,13.31,13.31,0,0,0,143.9,35a13.84,13.84,0,0,1-1.8,1.07c-.62.32-1.25.63-1.88.93Z"/></g></g></g></g></svg>