<svg width="24" height="24" viewBox="0 0 24 24" version="1.1" xmlns="http://www.w3.org/2000/svg" xmlns:xlink="http://www.w3.org/1999/xlink">
<title>attachment</title>
<desc>Created using Figma</desc>
<g id="Canvas" transform="translate(189 125)">
<g id="attachment">
<g id="attachment">
<use xlink:href="#path0_fill" transform="matrix(0.707107 0.707107 -0.707107 0.707107 -173.672 -126.521)" fill="#707689"/>
</g>
</g>
</g>
<defs>
<path id="path0_fill" d="M 5.71429 24C 2.40343 24 0 21.3566 0 17.7143L 0 8C 0 3.43886 3.19314 0 7.42857 0C 11.664 0 14.8571 3.43886 14.8571 8L 14.8571 15C 14.8571 15.5523 14.4094 16 13.8571 16L 13.5714 16C 13.0191 16 12.5714 15.5523 12.5714 15L 12.5714 8C 12.5714 4.68914 10.408 2.28571 7.42857 2.28571C 4.44914 2.28571 2.28571 4.68914 2.28571 8L 2.28571 17.7143C 2.28571 19.7063 3.34629 21.7143 5.71429 21.7143C 8.08229 21.7143 9.14286 19.7063 9.14286 17.7143L 9.14286 9.14286C 9.14286 8.45486 8.976 6.85714 7.42857 6.85714C 5.88114 6.85714 5.71429 8.45486 5.71429 9.14286L 5.71429 16.1429C 5.71429 16.6951 5.26657 17.1429 4.71429 17.1429L 4.42857 17.1429C 3.87629 17.1429 3.42857 16.6951 3.42857 16.1429L 3.42857 9.14286C 3.42857 6.408 5.03657 4.57143 7.42857 4.57143C 9.82057 4.57143 11.4286 6.408 11.4286 9.14286L 11.4286 17.7143C 11.4286 21.3566 9.02514 24 5.71429 24Z"/>
</defs>
</svg>
