<svg width="24" height="24" viewBox="0 0 24 24" version="1.1" xmlns="http://www.w3.org/2000/svg" xmlns:xlink="http://www.w3.org/1999/xlink">
<title>blocked</title>
<desc>Created using Figma</desc>
<g id="Canvas" transform="translate(125 125)">
<g id="blocked">
<g id="blocked">
<use xlink:href="#path0_fill" transform="translate(-124 -124)" fill="#707689"/>
</g>
</g>
</g>
<defs>
<path id="path0_fill" fill-rule="evenodd" d="M 0 11C 0 17.0659 4.93533 22 11 22C 17.0647 22 22 17.0659 22 11C 22 4.93411 17.0647 0 11 0C 4.93533 0 0 4.93411 0 11ZM 2.44444 11C 2.44444 6.28222 6.28222 2.44444 11 2.44444C 13.0188 2.44444 14.8765 3.14719 16.3413 4.32093L 4.32093 16.3413C 3.14719 14.8765 2.44444 13.0188 2.44444 11ZM 5.65871 17.6791C 7.12348 18.8528 8.98117 19.5556 11 19.5556C 15.7178 19.5556 19.5556 15.7178 19.5556 11C 19.5556 8.98117 18.8528 7.12348 17.6791 5.65871L 5.65871 17.6791Z"/>
</defs>
</svg>
