<svg width="24" height="24" viewBox="0 0 24 24" version="1.1" xmlns="http://www.w3.org/2000/svg" xmlns:xlink="http://www.w3.org/1999/xlink">
<title>camera</title>
<desc>Created using Figma</desc>
<g id="Canvas" transform="translate(285 -67)">
<g id="camera">
<g id="camera">
<use xlink:href="#path0_fill" transform="translate(-283 72)" fill="#707689"/>
</g>
</g>
</g>
<defs>
<path id="path0_fill" fill-rule="evenodd" d="M 0 1.795C 0 1.319 0.189 0.863 0.526 0.526C 0.862 0.189 1.319 6.29425e-08 1.795 6.29425e-08C 4.679 6.29425e-08 10.31 6.29425e-08 13.193 6.29425e-08C 13.669 6.29425e-08 14.126 0.189 14.462 0.526C 14.799 0.863 14.988 1.319 14.988 1.795C 14.988 3.188 14.988 4.883 14.988 4.883L 18.777 1.604C 18.995 1.414 19.305 1.37 19.568 1.49C 19.831 1.611 20 1.873 20 2.163C 20 4.594 20 9.161 20 11.592C 20 11.881 19.831 12.144 19.568 12.265C 19.305 12.385 18.995 12.341 18.777 12.151L 14.988 8.872C 14.988 8.872 14.988 10.715 14.988 12.187C 14.988 12.663 14.799 13.119 14.462 13.456C 14.126 13.793 13.669 13.982 13.193 13.982C 10.31 13.982 4.679 13.982 1.795 13.982C 1.319 13.982 0.862 13.793 0.526 13.456C 0.189 13.119 1.77636e-15 12.663 1.77636e-15 12.187C 1.77636e-15 9.504 1.77636e-15 4.478 1.77636e-15 1.795L 0 1.795Z"/>
</defs>
</svg>
