<svg width="24" height="24" viewBox="0 0 24 24" version="1.1" xmlns="http://www.w3.org/2000/svg" xmlns:xlink="http://www.w3.org/1999/xlink">
<title>card</title>
<desc>Created using Figma</desc>
<g id="Canvas" transform="translate(-34 -35)">
<g id="card">
<g id="card">
<use xlink:href="#path0_fill" transform="translate(35 36)" fill="#707689"/>
</g>
</g>
</g>
<defs>
<path id="path0_fill" fill-rule="evenodd" d="M 20.255 0C 21.497 0 22.506 1.003 22.506 2.24L 22.506 20.173C 22.506 21.41 21.497 22.413 20.255 22.413L 2.251 22.413C 1.009 22.413 0 21.41 0 20.173L 0 2.24C 0 1.003 1.009 0 2.251 0L 20.255 0ZM 3.36 19.368C 3.483 19.436 3.614 19.464 3.754 19.47L 18.768 19.47C 18.908 19.464 19.038 19.436 19.162 19.368C 19.242 19.323 19.314 19.265 19.374 19.196C 19.434 19.129 19.483 19.049 19.517 18.964C 19.639 18.662 19.562 18.307 19.327 18.081C 19.21 17.97 19.063 17.896 18.905 17.869C 18.8524 17.8595 18.8333 17.859 18.7905 17.8577C 18.7837 17.8575 18.7763 17.8573 18.768 17.857L 3.754 17.857C 3.74572 17.8573 3.73829 17.8575 3.73146 17.8577C 3.68719 17.8589 3.66899 17.8595 3.617 17.869C 3.458 17.896 3.31 17.97 3.195 18.081C 3.13 18.144 3.074 18.218 3.033 18.3C 2.887 18.592 2.933 18.952 3.148 19.196C 3.208 19.265 3.28 19.323 3.36 19.368ZM 3.36 15.032C 3.483 15.101 3.614 15.129 3.754 15.134L 3.755 15.134L 18.769 15.134C 18.7781 15.1337 18.7862 15.1335 18.7936 15.1333C 18.8358 15.1321 18.855 15.1315 18.906 15.123C 19.065 15.096 19.212 15.021 19.328 14.91C 19.393 14.847 19.448 14.773 19.49 14.691C 19.531 14.61 19.558 14.521 19.57 14.431C 19.61 14.107 19.447 13.782 19.163 13.624C 19.039 13.555 18.909 13.527 18.769 13.521L 3.755 13.521C 3.7438 13.5215 3.73413 13.522 3.72546 13.5223C 3.68611 13.524 3.66716 13.5248 3.618 13.533C 3.459 13.56 3.311 13.635 3.196 13.746C 3.131 13.809 3.075 13.884 3.034 13.965C 2.993 14.046 2.966 14.135 2.954 14.225C 2.912 14.549 3.076 14.873 3.36 15.032ZM 13.419 10.724C 13.527 10.775 13.644 10.798 13.763 10.801L 13.762 10.803C 15.625 10.803 16.195 10.803 18.807 10.802C 18.926 10.793 19.042 10.764 19.148 10.708C 19.24 10.657 19.323 10.59 19.391 10.508C 19.449 10.436 19.495 10.355 19.526 10.268C 19.654 9.909 19.508 9.5 19.182 9.304C 19.067 9.235 18.94 9.2 18.807 9.19L 13.723 9.19C 13.591 9.2 13.464 9.235 13.349 9.304C 13.281 9.344 13.219 9.395 13.166 9.453C 12.959 9.682 12.9 10.019 13.018 10.304C 13.053 10.39 13.104 10.468 13.166 10.537C 13.237 10.615 13.323 10.679 13.419 10.724ZM 10.022 10.176L 10.022 5.181C 10.022 4.837 9.741 4.557 9.396 4.557L 4.381 4.557C 4.035 4.557 3.754 4.837 3.754 5.181L 3.754 10.176C 3.754 10.52 4.035 10.8 4.381 10.8L 9.396 10.8C 9.741 10.8 10.022 10.52 10.022 10.176ZM 8.479 5.695C 8.697 5.695 8.874 5.872 8.874 6.09L 8.874 9.281C 8.874 9.499 8.697 9.676 8.479 9.676L 5.288 9.676C 5.07 9.676 4.893 9.499 4.893 9.281L 4.893 6.09C 4.893 5.872 5.07 5.695 5.288 5.695L 8.479 5.695Z"/>
</defs>
</svg>
