<svg width="24" height="24" viewBox="0 0 24 24" version="1.1" xmlns="http://www.w3.org/2000/svg" xmlns:xlink="http://www.w3.org/1999/xlink">
<title>chatbox</title>
<desc>Created using Figma</desc>
<g id="Canvas" transform="translate(-35 125)">
<g id="chatbox">
<g id="chatbox">
<use xlink:href="#path0_fill" transform="translate(35 -122)" fill="#707689"/>
</g>
</g>
</g>
<defs>
<path id="path0_fill" d="M 24 3.01C 24 6.555 24 12.406 24 15.945C 24 16.741 23.684 17.504 23.121 18.067C 22.559 18.629 21.796 18.945 21 18.945C 16.389 18.945 7.611 18.945 3 18.945C 2.204 18.945 1.441 18.629 0.879 18.067C 0.316 17.504 0 16.741 0 15.945C 0 12.406 0 6.555 0 3.01C 0 1.348 1.348 1.16348e-07 3.01 1.16348e-07C 7.621 1.16348e-07 16.379 1.16348e-07 20.99 1.16348e-07C 22.652 1.16348e-07 24 1.348 24 3.01ZM 21 14C 21 13.448 20.552 13 20 13C 19.389 13 18.611 13 18 13C 17.448 13 17 13.448 17 14C 17 14.32 17 14.674 17 14.994C 17 15.547 17.448 15.994 18 15.994C 18.611 15.994 19.389 15.994 20 15.994C 20.552 15.994 21 15.547 21 14.994C 21 14.674 21 14.32 21 14ZM 15.05 14C 15.05 13.735 14.945 13.48 14.757 13.293C 14.569 13.105 14.315 13 14.05 13C 11.782 13 6.268 13 4 13C 3.735 13 3.48 13.105 3.293 13.293C 3.105 13.48 3 13.735 3 14C 3 14.32 3 14.674 3 14.994C 3 15.26 3.105 15.514 3.293 15.701C 3.48 15.889 3.735 15.994 4 15.994C 6.268 15.994 11.782 15.994 14.05 15.994C 14.315 15.994 14.569 15.889 14.757 15.701C 14.945 15.513 15.05 15.26 15.05 14.994C 15.05 14.674 15.05 14.32 15.05 14ZM 13.925 8L 2.967 8L 2.967 10.004L 13.925 10.004L 13.925 8ZM 20.967 3.951L 2.967 3.951L 2.967 5.955L 20.967 5.955L 20.967 3.951Z"/>
</defs>
</svg>
