<svg width="24" height="24" viewBox="0 0 24 24" version="1.1" xmlns="http://www.w3.org/2000/svg" xmlns:xlink="http://www.w3.org/1999/xlink">
<title>close-call</title>
<desc>Created using Figma</desc>
<g id="Canvas" transform="translate(253 -67)">
<g id="close-call">
<g id="close-call">
<use xlink:href="#path0_fill" transform="matrix(-0.707107 0.707107 -0.707107 -0.707107 -228 80.435)" fill="#707689"/>
</g>
</g>
</g>
<defs>
<path id="path0_fill" d="M 13.8895 11.4949C 13.5779 11.3049 13.1092 11.3581 12.8449 11.6137L 10.7759 13.6515C 10.5107 13.907 10.0901 13.907 9.83067 13.6515L 5.18058 9.06956C 4.92112 8.814 4.92112 8.3941 5.18058 8.1376L 7.12994 6.21953C 7.3894 5.96398 7.42895 5.51082 7.21771 5.21632L 3.67203 0.264874C 3.46273 -0.029629 3.05279 -0.0875796 2.76439 0.136623C 2.76439 0.136623 -6.66902e-09 2.29884 -6.66902e-09 4.28436C -6.66902e-09 12.4117 6.68914 19 14.9399 19C 16.9587 19 18.9196 15.3539 18.9196 15.3539C 19.0923 15.0347 18.9775 14.6148 18.665 14.4238L 13.8895 11.4949Z"/>
</defs>
</svg>
