<svg width="24" height="24" viewBox="0 0 24 24" version="1.1" xmlns="http://www.w3.org/2000/svg" xmlns:xlink="http://www.w3.org/1999/xlink">
<title>comment</title>
<desc>Created using Figma</desc>
<g id="Canvas" transform="translate(253 -35)">
<g id="comment">
<g id="comment">
<use xlink:href="#path0_fill" transform="translate(-252 35)" fill="#707689"/>
</g>
</g>
</g>
<defs>
<path id="path0_fill" fill-rule="evenodd" d="M 4.37812 17.1861C 4.81927 17.6681 4.99718 18.3352 4.85463 18.9728L 4.50712 20.5273L 5.63284 19.6896C 6.19804 19.269 6.94283 19.1768 7.59352 19.4469C 8.72449 19.9257 9.77246 20.1471 11.0688 20.1365C 16.0723 20.1365 20.1365 16.0723 20.1365 11.0688C 20.1365 6.06404 16.0721 2 11.0688 2C 6.06419 2 2 6.06419 2 11.0688C 1.96066 13.5505 2.78498 15.4892 4.37812 17.1861ZM 6.82682 21.2941C 8.13363 21.8365 9.56643 22.1365 11.0688 22.1365C 17.1769 22.1365 22.1365 17.1769 22.1365 11.0688C 22.1365 4.95962 17.1769 0 11.0688 0C 4.95962 0 0 4.95962 0 11.0688C 0 13.9452 1.1004 16.5673 2.90281 18.5365L 1.94161 22.8361C 1.85521 23.2261 2.01961 23.6293 2.35441 23.8465C 2.69041 24.0637 3.12481 24.0493 3.44521 23.8105L 6.82682 21.2941Z"/>
</defs>
</svg>
