<svg width="25" height="24" viewBox="0 0 25 24" version="1.1" xmlns="http://www.w3.org/2000/svg" xmlns:xlink="http://www.w3.org/1999/xlink">
<title>cup</title>
<desc>Created using Figma</desc>
<g id="Canvas" transform="translate(220 93)">
<g id="cup">
<g id="cup">
<use xlink:href="#path0_fill" transform="translate(-217.996 -91)" fill="#707689"/>
</g>
</g>
</g>
<defs>
<path id="path0_fill" fill-rule="evenodd" d="M 15.722 1L 19 1C 19.553 1 20 1.448 20 2L 20 6C 20 6.304 19.861 6.592 19.625 6.781L 14.696 10.723C 13.794 11.859 12.49 12.658 11 12.91L 11 14L 13 14C 13.553 14 14 14.448 14 15L 14 17L 6 17L 6 15C 6 14.448 6.44701 14 7 14L 9 14L 9 12.91C 7.50999 12.658 6.20599 11.859 5.304 10.723L 0.375 6.781C 0.139008 6.592 0 6.304 0 6L 0 2C 0 1.448 0.447006 1 1 1L 4.278 1C 4.625 0.404999 5.263 0 6 0L 14 0C 14.738 0 15.375 0.404999 15.722 1ZM 2 3L 2 5.52L 4.006 7.125C 4.006 7.10337 4.00449 7.0825 4.00298 7.06176C 4.00148 7.04126 4 7.02087 4 7L 4 3L 2 3ZM 15.994 7.126L 18 5.52L 18 3L 16 3L 16 7C 16 7.02076 15.9985 7.04102 15.9971 7.06152C 15.9955 7.08251 15.994 7.10374 15.994 7.126ZM 6 18L 14 18C 14.5523 18 15 18.4477 15 19C 15 19.5523 14.5523 20 14 20L 6 20C 5.44771 20 5 19.5523 5 19C 5 18.4477 5.44771 18 6 18Z"/>
</defs>
</svg>
