<svg width="24" height="24" viewBox="0 0 24 24" version="1.1" xmlns="http://www.w3.org/2000/svg" xmlns:xlink="http://www.w3.org/1999/xlink">
<title>dashboard</title>
<desc>Created using Figma</desc>
<g id="Canvas" transform="translate(0 -177)">
<g id="dashboard">
<g id="Fill 1090">
<use xlink:href="#path0_fill" transform="translate(1 178)" fill="#707689"/>
</g>
<g id="Fill 1091">
<use xlink:href="#path1_fill" transform="translate(11.0003 182)" fill="#707689"/>
</g>
<g id="Fill 1092">
<use xlink:href="#path2_fill" transform="translate(15.2424 183.758)" fill="#707689"/>
</g>
<g id="Fill 1093">
<use xlink:href="#path3_fill" transform="translate(17.0003 188)" fill="#707689"/>
</g>
<g id="Fill 1094">
<use xlink:href="#path4_fill" transform="translate(6.75785 183.758)" fill="#707689"/>
</g>
<g id="Fill 1095">
<use xlink:href="#path5_fill" transform="translate(5.0003 188)" fill="#707689"/>
</g>
</g>
</g>
<defs>
<path id="path0_fill" fill-rule="evenodd" d="M 5.3119 17.7023C 8.9012 16.1656 13.101 16.1667 16.6881 17.7034C 15.1525 19.008 13.1692 19.8 11 19.8C 8.8319 19.8 6.8475 19.008 5.3119 17.7023ZM 11 2.2C 15.8532 2.2 19.8 6.1479 19.8 11C 19.8 12.8491 19.2247 14.564 18.2468 15.9819C 16.4197 15.0953 14.4309 14.5739 12.4102 14.4067L 13.189 8.9562L 11.0121 8.6449L 10.1937 14.3671C 7.9684 14.4716 5.764 15.0084 3.7543 15.983C 2.7764 14.564 2.2 12.8491 2.2 11C 2.2 6.1479 6.1479 2.2 11 2.2ZM 11 5.55767e-12C 4.9346 5.55767e-12 9.37232e-09 4.9346 9.37232e-09 11C 9.37232e-09 17.0654 4.9346 22 11 22C 17.0665 22 22 17.0654 22 11C 22 4.9346 17.0665 5.55767e-12 11 5.55767e-12Z"/>
<path id="path1_fill" fill-rule="evenodd" d="M 1 2C 1.552 2 2 1.553 2 1C 2 0.448 1.552 0 1 0C 0.448 0 1.21907e-07 0.448 1.21907e-07 1C 1.21907e-07 1.553 0.448 2 1 2Z"/>
<path id="path2_fill" fill-rule="evenodd" d="M 1.70725 1.70725C 2.09825 1.31625 2.09825 0.68425 1.70725 0.29325C 1.31625 -0.0977502 0.68425 -0.0977502 0.29325 0.29325C -0.0977496 0.68425 -0.0977496 1.31625 0.29325 1.70725C 0.68425 2.09825 1.31625 2.09825 1.70725 1.70725Z"/>
<path id="path3_fill" fill-rule="evenodd" d="M 0.999999 2C 1.552 2 2 1.553 2 1C 2 0.448 1.552 0 0.999999 0C 0.447999 0 1.41907e-07 0.448 1.41907e-07 1C 1.41907e-07 1.553 0.447999 2 0.999999 2Z"/>
<path id="path4_fill" fill-rule="evenodd" d="M 1.70725 1.70725C 2.09825 1.31625 2.09825 0.68425 1.70725 0.29325C 1.31625 -0.0977502 0.68425 -0.0977502 0.29325 0.29325C -0.09775 0.68425 -0.09775 1.31625 0.29325 1.70725C 0.68425 2.09825 1.31625 2.09825 1.70725 1.70725Z"/>
<path id="path5_fill" fill-rule="evenodd" d="M 1 2C 1.552 2 2 1.553 2 1C 2 0.448 1.552 0 1 0C 0.448 0 -1.16512e-07 0.448 -1.16512e-07 1C -1.16512e-07 1.553 0.448 2 1 2Z"/>
</defs>
</svg>
