<svg width="24" height="24" viewBox="0 0 24 24" version="1.1" xmlns="http://www.w3.org/2000/svg" xmlns:xlink="http://www.w3.org/1999/xlink">
<title>email-sent</title>
<desc>Created using Figma</desc>
<g id="Canvas" transform="translate(93 93)">
<g id="email-sent">
<g id="email-sent">
<use xlink:href="#path0_fill" transform="translate(-90.9999 -90.1543)" fill="#707689"/>
</g>
</g>
</g>
<defs>
<path id="path0_fill" fill-rule="evenodd" d="M 19.9859 7.3203C 19.9049 7.80231 19.4879 8.1543 18.9999 8.1543L 4.69295 8.1543C 4.34195 8.1543 4.01695 7.96931 3.83595 7.6683L 0.142946 1.5133C -0.074049 1.1533 -0.0410519 0.694303 0.223948 0.369299C 0.487947 0.0433023 0.929949 -0.0826972 1.32695 0.0553033L 19.327 6.2113C 19.788 6.37031 20.0669 6.8403 19.9859 7.3203ZM 3.83595 10.6383C 4.01595 10.3403 4.34095 10.1543 4.69295 10.1543L 18.9999 10.1543C 19.4889 10.1543 19.9059 10.5053 19.9869 10.9883C 20.0679 11.4693 19.7889 11.9393 19.3279 12.0993L 1.32795 18.2533C 0.929949 18.3903 0.488947 18.2653 0.223948 17.9393C -0.0410519 17.6133 -0.074049 17.1543 0.141947 16.7953L 3.83595 10.6383Z"/>
</defs>
</svg>
