<svg width="24" height="24" viewBox="0 0 24 24" version="1.1" xmlns="http://www.w3.org/2000/svg" xmlns:xlink="http://www.w3.org/1999/xlink">
<title>emojis-people</title>
<desc>Created using Figma</desc>
<g id="Canvas" transform="translate(-3 -66)">
<g id="emojis-people">
<g id="emojis-people">
<use xlink:href="#path0_fill" transform="translate(4 67)" fill="#707689"/>
</g>
</g>
</g>
<defs>
<path id="path0_fill" fill-rule="evenodd" d="M 0 11C 0 4.9346 4.9346 0 11 0C 17.0654 0 22 4.9346 22 11C 22 17.0665 17.0654 22 11 22C 4.9346 22 0 17.0665 0 11ZM 2.2 11C 2.2 15.8521 6.1479 19.8 11 19.8C 15.8521 19.8 19.8 15.8521 19.8 11C 19.8 6.1479 15.8521 2.2 11 2.2C 6.1479 2.2 2.2 6.1479 2.2 11ZM 4.4 13.2C 4.4 12.5928 4.8928 12.1 5.5 12.1L 16.5 12.1C 17.1072 12.1 17.6 12.5928 17.6 13.2C 17.6 16.0787 14.454 18.7 11 18.7C 7.546 18.7 4.4 16.0787 4.4 13.2ZM 6.9289 14.3C 7.5966 15.4539 9.2004 16.5 11 16.5C 12.8524 16.5 14.4309 15.4572 15.081 14.3L 6.9289 14.3ZM 7.8 6.6L 7.6 6.6C 7.04772 6.6 6.6 7.04771 6.6 7.6L 6.6 7.8C 6.6 8.35229 7.04772 8.8 7.6 8.8L 7.8 8.8C 8.35229 8.8 8.8 8.35229 8.8 7.8L 8.8 7.6C 8.8 7.04771 8.35229 6.6 7.8 6.6ZM 14.2 6.6L 14.4 6.6C 14.9523 6.6 15.4 7.04771 15.4 7.6L 15.4 7.8C 15.4 8.35229 14.9523 8.8 14.4 8.8L 14.2 8.8C 13.6477 8.8 13.2 8.35229 13.2 7.8L 13.2 7.6C 13.2 7.04771 13.6477 6.6 14.2 6.6Z"/>
</defs>
</svg>
