<svg width="24" height="24" viewBox="0 0 24 24" version="1.1" xmlns="http://www.w3.org/2000/svg" xmlns:xlink="http://www.w3.org/1999/xlink">
<title>emojis-flag</title>
<desc>Created using Figma</desc>
<g id="Canvas" transform="translate(-227 -66)">
<g id="emojis-flag">
<g id="emojis-symbols">
<use xlink:href="#path0_fill" transform="translate(228.707 66.9997)" fill="#707689"/>
</g>
</g>
</g>
<defs>
<path id="path0_fill" fill-rule="evenodd" d="M 14.0938 0.317917L 20.5985 6.82259C 21.0224 7.24648 21.0224 7.93164 20.5985 8.35553L 15.178 13.7761C 14.9666 13.9875 14.689 14.0937 14.4115 14.0937C 14.1339 14.0937 13.8564 13.9875 13.645 13.7761L 12.2433 12.3743L 10.8415 13.7761C 10.6301 13.9875 10.3526 14.0937 10.075 14.0937C 9.79751 14.0937 9.51997 13.9875 9.30857 13.7761L 2.80389 7.27142C 2.38 6.84753 2.38 6.16237 2.80389 5.73849L 7.14034 1.40203C 7.56423 0.978142 8.24938 0.978142 8.67327 1.40203L 10.075 2.80379L 12.5609 0.317917C 12.9848 -0.105972 13.67 -0.105972 14.0938 0.317917ZM 5.10329 6.50495L 10.075 11.4767L 12.8785 8.67318L 7.90681 3.70144L 5.10329 6.50495ZM 15.4956 8.67318L 15.4956 10.3926L 18.2991 7.58907L 13.3274 2.61732L 11.608 4.33672L 15.178 7.90671C 15.3894 8.11811 15.4956 8.39565 15.4956 8.67318ZM 11.7939 21.6825L 0.317528 10.2061C -0.105843 9.78269 -0.105843 9.09628 0.317528 8.6729C 0.740898 8.24953 1.42731 8.24953 1.85069 8.6729L 13.3271 20.1493C 13.7505 20.5727 13.7505 21.2591 13.3271 21.6825C 12.9037 22.1058 12.2173 22.1058 11.7939 21.6825Z"/>
</defs>
</svg>
