<svg width="24" height="24" viewBox="0 0 24 24" version="1.1" xmlns="http://www.w3.org/2000/svg" xmlns:xlink="http://www.w3.org/1999/xlink">
<title>emojis-car</title>
<desc>Created using Figma</desc>
<g id="Canvas" transform="translate(-131 -66)">
<g id="emojis-car">
<g id="emojis-car">
<use xlink:href="#path0_fill" transform="translate(132 70.002)" fill="#707689"/>
</g>
</g>
</g>
<defs>
<path id="path0_fill" d="M 12.1 9.76996e-16C 8.2269 9.76996e-16 5.0138 2.8732 4.4781 6.6L 4.4 6.6C 1.9734 6.6 0 8.5745 0 11L 0 13.2C 0 13.8083 0.4928 14.3 1.1 14.3L 3.5035 14.3C 3.9589 15.5782 5.1678 16.5 6.6 16.5C 8.0322 16.5 9.2411 15.5782 9.6976 14.3L 13.4035 14.3C 13.8589 15.5782 15.0689 16.5 16.5 16.5C 17.9311 16.5 19.1411 15.5782 19.5976 14.3L 20.9 14.3C 21.5072 14.3 22 13.8083 22 13.2L 22 9.9C 22 4.4407 17.5582 9.76996e-16 12.1 9.76996e-16ZM 19.0465 6.6L 13.2 6.6L 13.2 2.288C 15.7883 2.6609 17.9586 4.3208 19.0465 6.6ZM 11 2.3122L 11 6.6L 6.7111 6.6C 7.15 4.4484 8.8484 2.75 11 2.3122ZM 6.6 14.3C 5.9939 14.3 5.5 13.8061 5.5 13.2C 5.5 12.5939 5.9939 12.1 6.6 12.1C 7.2061 12.1 7.7 12.5939 7.7 13.2C 7.7 13.8061 7.2061 14.3 6.6 14.3ZM 16.5 14.3C 15.8939 14.3 15.4 13.8061 15.4 13.2C 15.4 12.5939 15.8939 12.1 16.5 12.1C 17.1061 12.1 17.6 12.5939 17.6 13.2C 17.6 13.8061 17.1061 14.3 16.5 14.3ZM 19.8 12.1L 19.5976 12.1C 19.1411 10.8218 17.9322 9.9 16.5 9.9C 15.0678 9.9 13.8589 10.8218 13.4035 12.1L 9.6976 12.1C 9.2411 10.8218 8.0322 9.9 6.6 9.9C 5.1678 9.9 3.9589 10.8218 3.5035 12.1L 2.2 12.1L 2.2 11C 2.2 9.7856 3.1867 8.8 4.4 8.8L 19.712 8.8C 19.7637 9.1608 19.8 9.526 19.8 9.9L 19.8 12.1Z"/>
</defs>
</svg>
