<svg width="24" height="24" viewBox="0 0 24 24" version="1.1" xmlns="http://www.w3.org/2000/svg" xmlns:xlink="http://www.w3.org/1999/xlink">
<title>eye</title>
<desc>Created using Figma</desc>
<g id="Canvas" transform="translate(29 93)">
<g id="eye">
<g id="eye">
<use xlink:href="#path0_fill" transform="translate(-28.004 -87.9287)" fill="#707689"/>
</g>
</g>
</g>
<defs>
<path id="path0_fill" fill-rule="evenodd" d="M 21.9975 6.84656C 21.9983 6.85328 21.9991 6.86001 21.9991 6.86672C 22 6.88231 22 6.89697 22 6.91256C 22 6.92814 22 6.94281 21.9991 6.95839C 21.9978 6.96519 21.9974 6.97157 21.997 6.97809C 21.9968 6.98125 21.9966 6.98443 21.9963 6.98772C 21.9963 6.98991 21.9961 6.99231 21.9959 6.99482C 21.9957 6.99756 21.9954 7.00043 21.9954 7.0033C 21.9954 7.0099 21.9947 7.01575 21.9939 7.02219L 21.9936 7.02439C 21.9918 7.03355 21.9908 7.04088 21.9899 7.05005L 21.9899 7.0528C 21.9624 7.24255 21.8818 7.41947 21.7598 7.55605C 21.5288 7.86038 21.2758 8.14546 21.0228 8.42595C 19.6524 9.93752 18.0795 11.2859 16.3571 12.2649C 15.2562 12.8901 14.0801 13.3942 12.8609 13.6362C 11.5199 13.903 10.177 13.8883 8.84322 13.5739C 6.536 13.0285 4.4451 11.6737 2.61637 10.0549C 1.76663 9.3032 0.931553 8.48096 0.230311 7.55605C -0.0767703 7.1518 -0.0767703 6.67331 0.230311 6.26815C 0.460391 5.96382 0.714306 5.67873 0.967303 5.39824C 2.33771 3.88667 3.91069 2.53735 5.63309 1.55928C 6.73308 0.934118 7.90915 0.429037 9.12922 0.18704C 10.4694 -0.0787908 11.8123 -0.0641195 13.146 0.249372C 15.4551 0.794783 17.546 2.15052 19.3738 3.76934C 20.2226 4.52008 21.0577 5.34324 21.7598 6.26815C 21.8818 6.40381 21.9624 6.58256 21.9899 6.77139L 21.9899 6.77322C 21.9908 6.78239 21.9918 6.79064 21.9936 6.79889C 21.9936 6.80459 21.9943 6.81101 21.9951 6.81815L 21.9954 6.82089C 21.9954 6.82308 21.9956 6.82548 21.9958 6.82799C 21.9961 6.83072 21.9963 6.8336 21.9963 6.83647C 21.9966 6.83983 21.997 6.8432 21.9975 6.84656ZM 15.2057 6.92264C 15.2057 4.6145 13.3321 2.74085 11.0249 2.74085C 8.71672 2.74085 6.84308 4.6145 6.84308 6.92264C 6.84308 9.22986 8.71672 11.1035 11.0249 11.1035C 13.3321 11.1035 15.2057 9.23078 15.2057 6.92264ZM 11.0102 8.93287C 12.0231 8.93287 12.8435 8.11246 12.8435 7.09955C 12.8435 6.08665 12.0231 5.26624 11.0102 5.26624C 9.99729 5.26624 9.17688 6.08665 9.17688 7.09955C 9.17688 8.11246 9.99729 8.93287 11.0102 8.93287Z"/>
</defs>
</svg>
