<svg width="24" height="24" viewBox="0 0 24 24" version="1.1" xmlns="http://www.w3.org/2000/svg" xmlns:xlink="http://www.w3.org/1999/xlink">
<title>fb-dm</title>
<desc>Created using Figma</desc>
<g id="Canvas" transform="translate(-131 -2)">
<g id="fb-dm">
<g id="fb-dm">
<use xlink:href="#path0_fill" transform="translate(131 3.8955)" fill="#707689"/>
</g>
</g>
</g>
<defs>
<path id="path0_fill" d="M 22.737 12.631L 20.211 12.631L 20.211 16.42L 15.88 12.631L 7.579 12.631C 6.881 12.631 6.316 12.065 6.316 11.368L 6.316 1.263C 6.316 0.565 6.882 -7.24792e-08 7.579 -7.24792e-08L 22.737 -7.24792e-08C 23.435 -7.24792e-08 24 0.566 24 1.263L 24 11.368C 24 12.066 23.434 12.631 22.737 12.631ZM 15.158 13.894L 15.158 15.157C 15.158 15.855 14.592 16.42 13.895 16.42L 8.12 16.42L 3.789 20.209L 3.789 16.42L 1.263 16.42C 0.565 16.42 0 15.854 0 15.157L 0 5.052C 0 4.354 0.566 3.789 1.263 3.789L 5.052 3.789L 5.052 12.631C 5.052 13.329 5.618 13.894 6.315 13.894L 15.157 13.894L 15.158 13.894Z"/>
</defs>
</svg>
