<svg width="24" height="24" viewBox="0 0 24 24" version="1.1" xmlns="http://www.w3.org/2000/svg" xmlns:xlink="http://www.w3.org/1999/xlink">
<title>flag</title>
<desc>Created using Figma</desc>
<g id="Canvas" transform="translate(-99 93)">
<g id="flag">
<g id="flag">
<use xlink:href="#path0_fill" transform="translate(101.707 -91.0003)" fill="#707689"/>
</g>
</g>
</g>
<defs>
<path id="path0_fill" fill-rule="evenodd" d="M 13.0003 0.293249L 19.0003 6.29325C 19.1993 6.49225 19.3053 6.76525 19.2923 7.04625C 19.2803 7.32725 19.1493 7.58825 18.9343 7.76825L 12.9343 12.7682C 12.7503 12.9212 12.5223 13.0002 12.2933 13.0002C 12.1493 13.0002 12.0043 12.9693 11.8693 12.9062C 11.5183 12.7412 11.2933 12.3892 11.2933 12.0002L 11.2933 9.41425L 9.00034 11.7073C 8.80534 11.9023 8.54934 12.0002 8.29334 12.0002C 8.03734 12.0002 7.78134 11.9023 7.58634 11.7073L 2.58634 6.70725C 2.19534 6.31625 2.19534 5.68425 2.58634 5.29325L 6.58634 1.29325C 6.97734 0.90225 7.60934 0.90225 8.00034 1.29325L 9.29334 2.58625L 11.5863 0.293249C 11.9773 -0.0977497 12.6093 -0.0977497 13.0003 0.293249ZM 10.8789 20.0002L 0.292889 9.4142C -0.0976295 9.02368 -0.0976295 8.39052 0.292889 8C 0.683407 7.60948 1.31657 7.60948 1.70709 8L 12.2931 18.586C 12.6836 18.9765 12.6836 19.6097 12.2931 20.0002C 11.9026 20.3907 11.2694 20.3907 10.8789 20.0002Z"/>
</defs>
</svg>
