<svg width="24" height="24" viewBox="0 0 24 24" version="1.1" xmlns="http://www.w3.org/2000/svg" xmlns:xlink="http://www.w3.org/1999/xlink">
<title>garden</title>
<desc>Created using Figma</desc>
<g id="Canvas" transform="translate(-227 -2)">
<g id="garden">
<g id="garden">
<use xlink:href="#path0_fill" transform="translate(228 3)" fill="#707689"/>
</g>
</g>
</g>
<defs>
<path id="path0_fill" fill-rule="evenodd" d="M 19.9153 4.76397C 19.4215 3.49968 18.0021 2.86845 16.7323 3.3493L 14.3169 4.27942C 13.8481 4.4595 13.3218 4.22744 13.1389 3.75959L 12.2088 1.35816C 11.6351 0.224746 10.2966 -0.29044 9.11119 0.16534C 7.92579 0.621116 7.27786 1.9012 7.61111 3.12651L 8.54123 5.52794C 9.72941 8.51696 13.0897 10.0059 16.102 8.87712L 18.5034 7.947C 19.7658 7.45224 20.3952 6.03291 19.9144 4.76397L 19.9153 4.76397ZM 20.0387 11.8402L 17.5139 11.3519C 14.3531 10.7559 11.2963 12.8 10.6391 15.9487L 10.1406 18.4773C 9.90764 19.3684 10.188 20.3152 10.8684 20.9344C 11.5488 21.5535 12.5179 21.7448 13.3831 21.4301C 14.2482 21.1145 14.8664 20.3449 14.989 19.4324L 15.4875 16.9039C 15.5905 16.4193 16.0611 16.1055 16.5485 16.1965L 19.0733 16.695C 20.4054 16.9419 21.6874 16.0721 21.9519 14.7438C 22.2165 13.4154 21.3634 12.1214 20.0387 11.8402ZM 5.9755 6.71519C 7.37532 7.3789 8.46418 8.55873 9.01279 10.0078C 9.53448 11.4661 9.47042 13.0692 8.83271 14.4811L 7.75406 16.8184C 7.13769 17.9769 5.72301 18.4531 4.53112 17.9027C 3.33922 17.3522 2.78412 15.9663 3.26682 14.7456L 4.34546 12.412C 4.55618 11.9562 4.35846 11.415 3.90361 11.2024L 1.56623 10.1238C 0.713153 9.78683 0.115352 9.00523 0.0150943 8.09274C -0.0860867 7.18118 0.326999 6.28819 1.08631 5.773C 1.84564 5.25781 2.82775 5.20583 3.63813 5.63654L 5.9755 6.71519Z"/>
</defs>
</svg>
