<svg width="24" height="24" viewBox="0 0 24 24" version="1.1" xmlns="http://www.w3.org/2000/svg" xmlns:xlink="http://www.w3.org/1999/xlink">
<title>help</title>
<desc>Created using Figma</desc>
<g id="Canvas" transform="translate(-227 93)">
<g id="help">
<g id="help">
<use xlink:href="#path0_fill" transform="translate(234.591 -90.5)" fill="#707689"/>
</g>
</g>
</g>
<defs>
<path id="path0_fill" fill-rule="evenodd" d="M 0 4.76601C 0 2.17364 2.23793 0 4.99898 0C 7.75784 0 9.94861 2.16969 9.90848 4.73684L 9.90848 4.74464C 9.90848 6.90265 8.81726 8.04289 7.82434 9.0804L 7.82129 9.0836C 7.38188 9.52749 6.95959 9.96243 6.65329 10.476C 6.35355 10.9929 6.15431 11.659 6.14894 12.4763C 6.14894 13.1218 5.64261 13.62 4.97864 13.62C 4.27753 13.62 3.76089 13.1083 3.76089 12.4763C 3.76089 9.93356 5.04509 8.61443 6.09299 7.58901L 6.10225 7.57995L 6.11102 7.57042L 6.14645 7.53197C 6.97227 6.63581 7.56651 5.99094 7.56651 4.76601C 7.56651 3.36879 6.40381 2.24478 5.00034 2.24478C 3.5843 2.24478 2.3894 3.35862 2.3894 4.76601C 2.3894 5.33522 1.89009 5.86561 1.1947 5.86561C 0.516449 5.86561 0 5.33231 0 4.76601ZM 3.4328 17.5429C 3.4328 16.7407 4.10522 16.0886 4.99898 16.0886C 5.86226 16.0886 6.54211 16.7551 6.54211 17.5429C 6.54211 18.329 5.84108 19 4.99898 19C 4.10965 19 3.4328 18.3292 3.4328 17.5429Z"/>
</defs>
</svg>
