<svg width="24" height="24" viewBox="0 0 24 24" version="1.1" xmlns="http://www.w3.org/2000/svg" xmlns:xlink="http://www.w3.org/1999/xlink">
<title>iadvize</title>
<desc>Created using Figma</desc>
<g id="Canvas" transform="translate(-163 -2)">
<g id="iadvize">
<g id="iadvize">
<use xlink:href="#path0_fill" transform="translate(164.055 3.05434)" fill="#707689"/>
</g>
</g>
</g>
<defs>
<path id="path0_fill" d="M 10.9069 9.99133C 9.71187 9.99133 8.67187 8.98933 8.67187 7.75633C 8.67187 6.52333 9.71287 5.44433 10.9069 5.44433C 12.1789 5.44433 13.2189 6.52333 13.2189 7.75633C 13.2189 8.98933 12.1789 9.99133 10.9069 9.99133ZM 7.73187 0.458326C 4.17687 1.47133 1.39887 4.29233 0.422873 7.85733C -0.615127 11.6463 0.331873 15.2463 2.45387 17.8523L 0.649873 20.9433C 0.404873 21.3633 0.707873 21.8913 1.19387 21.8913L 9.01787 21.8913L 9.01787 13.7683C 9.01787 12.7273 9.82687 11.9183 10.8679 11.9183C 11.9089 11.9183 12.7179 12.7273 12.7179 13.7683L 12.7179 21.7443C 17.9189 20.8963 21.8909 16.3863 21.8909 10.9453C 21.8909 3.85733 15.1529 -1.65767 7.73287 0.457326L 7.73187 0.458326Z"/>
</defs>
</svg>
