<svg width="24" height="24" viewBox="0 0 24 24" version="1.1" xmlns="http://www.w3.org/2000/svg" xmlns:xlink="http://www.w3.org/1999/xlink">
<title>labs</title>
<desc>Created using Figma</desc>
<g id="Canvas" transform="translate(253 61)">
<g id="labs">
<g id="labs">
<use xlink:href="#path0_fill" transform="translate(-251.002 -60)" fill="#707689"/>
</g>
</g>
</g>
<defs>
<path id="path0_fill" fill-rule="evenodd" d="M 6.00157 0C 5.44928 0 5.00157 0.447716 5.00157 1L 5.00157 2C 5.00157 2.55228 5.44928 3 6.00157 3L 14.0016 3C 14.5539 3 15.0016 2.55228 15.0016 2L 15.0016 1C 15.0016 0.447716 14.5539 0 14.0016 0L 6.00157 0ZM 12.0016 11.005L 12.0016 11L 12.0016 10.005L 12.0016 8.005L 12.0016 7.005L 12.0016 5.005L 12.0016 4.005L 14.0016 4.005L 14.0016 10.646L 19.4126 17.223C 20.1036 18.206 20.1806 19.395 19.6626 20.391C 19.1446 21.387 18.1246 22.005 17.0016 22.005L 3.00157 22.005C 1.87857 22.005 0.858564 21.387 0.340574 20.391C -0.177431 19.395 -0.100435 18.206 0.543577 17.286L 6.00157 10.647L 6.00157 4.005L 8.00157 4.005L 8.00157 11.005C 8.00157 11.236 7.92058 11.461 7.77357 11.641L 5.00458 15.005L 15.0006 15.005L 12.2296 11.641C 12.0826 11.461 12.0016 11.236 12.0016 11.005Z"/>
</defs>
</svg>
