<svg width="24" height="24" viewBox="0 0 24 24" version="1.1" xmlns="http://www.w3.org/2000/svg" xmlns:xlink="http://www.w3.org/1999/xlink">
<title>like</title>
<desc>Created using Figma</desc>
<g id="Canvas" transform="translate(157 61)">
<g id="like">
<g id="like">
<use xlink:href="#path0_fill" transform="translate(-157 -59.507)" fill="#707689"/>
</g>
</g>
</g>
<defs>
<path id="path0_fill" fill-rule="evenodd" d="M 22.96 7.49293C 23.2684 7.49293 23.5612 7.63093 23.7592 7.86733C 23.9584 8.10254 24.0388 8.41574 23.9824 8.71815L 22.6552 20.0919C 22.564 20.5875 22.1344 20.9463 21.6316 20.9463L 13.1282 20.9463C 12.9962 20.9463 12.8642 20.9211 12.7418 20.8731L 8.38335 20.3463L 8.37494 8.36414L 12.1814 1.05482C 12.5198 0.405608 13.1906 -0.00119901 13.9214 2.6226e-06C 14.4698 0.00120044 15.0014 0.00120044 15.0014 0.00120044C 15.5763 0.00120044 16.4559 0.956416 16.4559 1.53123C 16.4559 1.53123 16.4523 4.75808 16.4499 6.46211C 16.4487 6.73452 16.5567 6.99612 16.7499 7.18932C 16.9419 7.38132 17.2035 7.49053 17.4759 7.49053C 19.3107 7.49053 22.96 7.49293 22.96 7.49293ZM 0.973511 7.48093L 6.02649 7.48093C 6.56396 7.48093 7 7.93087 7 8.48575L 7 19.4773C 7 20.0322 6.56396 20.4809 6.02649 20.4809L 0.973511 20.4809C 0.436035 20.4809 0 20.0322 0 19.4773L 0 8.48575C 0 7.93087 0.436035 7.48093 0.973511 7.48093Z"/>
</defs>
</svg>
