<svg width="24" height="24" viewBox="0 0 24 24" version="1.1" xmlns="http://www.w3.org/2000/svg" xmlns:xlink="http://www.w3.org/1999/xlink">
<title>link</title>
<desc>Created using Figma</desc>
<g id="Canvas" transform="translate(125 61)">
<g id="link">
<g id="link">
<use xlink:href="#path0_fill" transform="translate(-123.35 -59.3503)" fill="#707689"/>
</g>
</g>
</g>
<defs>
<path id="path0_fill" fill-rule="evenodd" d="M 4.14353 11.9785C 4.59691 12.4319 5.31995 12.5014 5.79023 12.0311C 6.26049 11.5608 6.19106 10.8378 5.73766 10.3844L 3.3024 7.94913C 2.07885 6.72557 2.01125 4.86163 3.08167 3.79122L 3.79088 3.082C 4.84637 2.02652 6.70884 2.06278 7.9488 3.30274L 10.7737 6.12764C 11.9973 7.3512 12.0649 9.21513 10.9944 10.2856L 9.93062 11.3494C 9.46027 11.8197 9.53013 12.543 9.98318 12.9961C 10.4366 13.4495 11.1596 13.5189 11.6299 13.0486L 12.6937 11.9848C 14.6705 10.008 14.4973 6.66297 12.3678 4.53349L 9.54294 1.70859C 7.43487 -0.399474 4.08764 -0.613265 2.09162 1.38275L 1.38242 2.09195C -0.594125 4.0685 -0.420953 7.41406 1.70826 9.54327L 4.14353 11.9785ZM 11.1571 18.9921C 13.2654 21.1005 16.6126 21.3137 18.6084 19.3179L 19.3176 18.6087C 21.2944 16.632 21.1212 13.2869 18.9918 11.1574L 16.1669 8.33251C 15.7139 7.87953 14.9908 7.8093 14.5202 8.27995C 14.0445 8.75563 14.1448 9.49873 14.5727 9.92665L 17.3976 12.7516C 18.6212 13.9751 18.6888 15.8391 17.6184 16.9095L 16.9091 17.6187C 15.8536 18.6742 13.9912 18.6379 12.7512 17.398L 9.53667 14.1834C 8.31312 12.9599 8.24552 11.0959 9.31595 10.0255L 10.3798 8.96169C 10.8504 8.49103 10.7802 7.76796 10.3272 7.31499C 9.87423 6.862 9.15116 6.79176 8.6805 7.26242L 7.61669 8.32623C 5.64016 10.3028 5.81333 13.6483 7.94254 15.7775L 11.1571 18.9921Z"/>
</defs>
</svg>
