<svg width="25" height="24" viewBox="0 0 25 24" version="1.1" xmlns="http://www.w3.org/2000/svg" xmlns:xlink="http://www.w3.org/1999/xlink">
<title>load</title>
<desc>Created using Figma</desc>
<g id="Canvas" transform="translate(93 61)">
<g id="load">
<g id="load">
<use xlink:href="#path0_fill" transform="translate(-92.996 -60)" fill="#707689"/>
</g>
</g>
</g>
<defs>
<path id="path0_fill" fill-rule="evenodd" d="M 11.9998 0C 16.5878 0 20.5258 2.827 22.1728 6.827L 23.9998 5L 23.9998 11L 17.9998 11L 20.6108 8.389C 19.4888 4.696 16.0548 2 11.9998 2C 8.00417 2 4.61422 4.61931 3.4436 8.23118C 3.29974 8.67506 2.90081 9 2.4342 9L 2.39237 9C 1.76735 9 1.29326 8.43084 1.47353 7.83238C 2.83653 3.30756 7.03577 0 11.9998 0ZM 20.5562 13.7687C 20.7 13.3248 21.099 12.9999 21.5656 12.9999L 21.6074 12.9999C 22.2325 12.9999 22.7065 13.5691 22.5263 14.1675C 21.1633 18.6923 16.964 21.9999 12 21.9999C 7.412 21.9999 3.474 19.1739 1.827 15.1729L 0 16.9999L 0 10.9999L 6 10.9999L 3.389 13.6109C 4.511 17.3039 7.945 19.9999 12 19.9999C 15.9956 19.9999 19.3855 17.3798 20.5562 13.7687Z"/>
</defs>
</svg>
