<svg width="24" height="24" viewBox="0 0 24 24" version="1.1" xmlns="http://www.w3.org/2000/svg" xmlns:xlink="http://www.w3.org/1999/xlink">
<title>logout</title>
<desc>Created using Figma</desc>
<g id="Canvas" transform="translate(29 61)">
<g id="logout">
<g id="logout">
<use xlink:href="#path0_fill" transform="translate(-27 -60)" fill="#707689"/>
</g>
</g>
</g>
<defs>
<path id="path0_fill" fill-rule="evenodd" d="M 11 1.22222L 11 8.55556C 11 9.23057 10.4528 9.77778 9.77778 9.77778C 9.10276 9.77778 8.55556 9.23057 8.55556 8.55556L 8.55556 1.22222C 8.55556 0.547207 9.10276 0 9.77778 0C 10.4528 0 11 0.547207 11 1.22222ZM 13.4444 5.88133L 13.4444 3.16433C 17.0231 4.61878 19.5556 8.12778 19.5556 12.2222C 19.5556 17.6134 15.169 22 9.77778 22C 4.38656 22 0 17.6134 0 12.2222C 0 8.12778 2.53244 4.61878 6.11111 3.16433L 6.11111 5.88133C 3.92211 7.15244 2.44444 9.515 2.44444 12.2222C 2.44444 16.2666 5.73344 19.5556 9.77778 19.5556C 13.8221 19.5556 17.1111 16.2666 17.1111 12.2222C 17.1111 9.51622 15.6334 7.15244 13.4444 5.88133Z"/>
</defs>
</svg>
