<svg width="24" height="24" viewBox="0 0 24 24" version="1.1" xmlns="http://www.w3.org/2000/svg" xmlns:xlink="http://www.w3.org/1999/xlink">
<title>mention</title>
<desc>Created using Figma</desc>
<g id="Canvas" transform="translate(157 -35)">
<g id="mention">
<g id="mention">
<use xlink:href="#path0_fill" transform="translate(-155 37)" fill="#707689"/>
</g>
</g>
</g>
<defs>
<path id="path0_fill" d="M 10 0C 4.486 0 0 4.486 0 10C 0 15.515 4.486 20 10 20C 11.6998 20 13.3406 19.5816 14.8006 18.7825C 15.285 18.5174 15.3987 17.8899 15.0863 17.4347C 14.774 16.9796 14.1544 16.87 13.6635 17.1222C 12.5414 17.6985 11.293 18 10 18C 5.589 18 2 14.411 2 10C 2 5.589 5.589 2 10 2C 14.411 2 18 5.589 18 10L 18 10.782C 18 12.17 17.402 13 16.4 13L 16.398 13.018C 16.338 13.005 16.273 13 16.209 13L 16 13C 15.437 13 14.6 12.182 14.6 11.631L 14.6 10C 14.6 7.464 12.537 5.4 10 5.4C 7.463 5.4 5.4 7.463 5.4 10C 5.4 12.537 7.463 14.6 10 14.6C 11.234 14.6 12.35 14.106 13.177 13.313C 13.826 14.269 14.93 15 16 15L 16.002 14.981C 16.064 14.994 16.129 15 16.195 15L 16.4 15C 18.552 15 20 13.306 20 10.782L 20 10C 20 4.486 15.514 0 10 0ZM 10 12.599C 8.566 12.599 7.4 11.433 7.4 9.999C 7.4 8.565 8.566 7.399 10 7.399C 11.434 7.399 12.6 8.565 12.6 9.999C 12.6 11.433 11.434 12.599 10 12.599Z"/>
</defs>
</svg>
