<svg width="24" height="25" viewBox="0 0 24 25" version="1.1" xmlns="http://www.w3.org/2000/svg" xmlns:xlink="http://www.w3.org/1999/xlink">
<title>micro-off</title>
<desc>Created using Figma</desc>
<g id="Canvas" transform="translate(221 -66)">
<g id="micro-off">
<g id="micro-off">
<use xlink:href="#path0_fill" transform="translate(-219 67.2929)" fill="#707689"/>
</g>
</g>
</g>
<defs>
<path id="path0_fill" fill-rule="evenodd" d="M 8.11981 17.7509C 7.72111 17.6775 7.32791 17.5721 6.94571 17.4347C 6.4147 17.2443 5.90547 16.9943 5.42961 16.6917L 1.7071 20.4142C 1.31659 20.8047 0.683407 20.8047 0.292889 20.4142C -0.0976295 20.0237 -0.0976295 19.3905 0.292889 19L 17.2929 2C 17.6834 1.60947 18.3166 1.60947 18.7071 2C 19.0976 2.39053 19.0976 3.02369 18.7071 3.41422L 15.1823 6.93899C 15.2036 6.93058 15.2252 6.92271 15.2469 6.91538C 15.378 6.87139 15.51 6.85031 15.6456 6.84206C 15.6868 6.84206 15.7072 6.84206 15.7276 6.84275C 15.7475 6.84342 15.7674 6.84474 15.8067 6.84736L 15.8097 6.84756C 15.9462 6.86406 16.0764 6.89156 16.2047 6.94288C 16.5338 7.0767 16.8032 7.33883 16.9462 7.66329C 17.014 7.81452 17.047 7.97308 17.0608 8.13623C 17.0758 8.63381 17.0716 9.13097 17.0674 9.62828L 17.0674 9.62957C 17.0655 9.86192 17.0635 10.0943 17.0635 10.3268C 17.0589 10.6366 17.0443 10.9427 17.0058 11.2498C 16.9068 12.0462 16.6813 12.8244 16.3385 13.5494C 15.9948 14.2771 15.5338 14.9481 14.9802 15.531C 14.4669 16.0699 13.873 16.5337 13.2259 16.8994C 12.4973 17.3118 11.6999 17.6024 10.8759 17.7536L 10.8759 19.2568L 12.1976 19.2568C 12.5578 19.2568 12.9015 19.3997 13.1563 19.6545C 13.4111 19.9093 13.554 20.254 13.554 20.6133L 13.554 20.6435C 13.554 21.0028 13.4111 21.3474 13.1563 21.6022C 12.9015 21.857 12.5578 22 12.1976 22L 6.55893 22C 6.19963 22 5.85501 21.857 5.6002 21.6022C 5.34541 21.3474 5.20242 21.0028 5.20242 20.6435L 5.20242 20.6133C 5.20242 20.254 5.34541 19.9093 5.6002 19.6545C 5.85501 19.3997 6.19963 19.2568 6.55893 19.2568L 8.1253 19.2568L 8.1253 17.7527L 8.11981 17.7509ZM 14.4083 7.71303C 14.4048 7.72176 14.4015 7.73055 14.3982 7.73936C 14.3405 7.89426 14.3166 8.05283 14.3111 8.2178C 14.3111 8.4477 14.3119 8.67751 14.3127 8.90725C 14.3145 9.4176 14.3162 9.92765 14.3093 10.4377C 14.301 10.6357 14.2873 10.8318 14.258 11.0289C 14.1874 11.4936 14.0499 11.9482 13.8492 12.3735C 13.5779 12.9445 13.1957 13.4596 12.7282 13.8848C 12.291 14.279 11.7805 14.5924 11.2306 14.806C 10.0112 15.276 8.62962 15.2242 7.44986 14.6715L 8.50747 13.6138C 8.81219 13.7031 9.13456 13.751 9.46806 13.751L 9.52305 13.751C 11.4057 13.751 12.9335 12.225 12.9335 10.3405L 12.9335 9.18777L 14.4083 7.71303ZM 4.93626 11.8566L 2.85513 13.9378C 2.81448 13.8634 2.77505 13.7883 2.7369 13.7125C 2.37669 12.9976 2.13197 12.225 2.01374 11.4322C 1.96791 11.1224 1.945 10.8135 1.934 10.5028C 1.92691 9.97525 1.92843 9.44727 1.92996 8.91917C 1.93061 8.6967 1.93126 8.47421 1.93126 8.25172C 1.93858 8.03175 1.98257 7.82094 2.08249 7.62479C 2.17047 7.45524 2.29145 7.304 2.43994 7.18485C 2.54626 7.09961 2.66449 7.02904 2.78913 6.97863C 2.91563 6.9273 3.04945 6.8943 3.18417 6.88239C 3.65071 6.84115 4.11631 7.04646 4.39952 7.41857C 4.56726 7.63854 4.65432 7.89701 4.67907 8.17106C 4.69276 8.60486 4.68892 9.03836 4.68507 9.47173C 4.68222 9.79285 4.67936 10.1139 4.68365 10.4349C 4.69191 10.6348 4.70565 10.8309 4.73498 11.0261C 4.77699 11.3084 4.84478 11.5867 4.93626 11.8566ZM 6.05757 10.3405C 6.05757 10.4671 6.06446 10.592 6.07789 10.715L 12.9335 3.85934L 12.9335 3.41141C 12.9335 1.52698 11.4057 0 9.52305 0L 9.46806 0C 7.58546 0 6.05757 1.52789 6.05757 3.41141L 6.05757 10.3405Z"/>
</defs>
</svg>
