<svg width="24" height="24" viewBox="0 0 24 24" version="1.1" xmlns="http://www.w3.org/2000/svg" xmlns:xlink="http://www.w3.org/1999/xlink">
<title>mixt</title>
<desc>Created using Figma</desc>
<g id="Canvas" transform="translate(-131 61)">
<g id="mixt">
<g id="mixt">
<use xlink:href="#path0_fill" transform="translate(131 -61)" fill="#707689"/>
</g>
</g>
</g>
<defs>
<path id="path0_fill" fill-rule="evenodd" d="M 12 5.99562C 12 7.55367 12.5965 8.97393 13.5736 10.0406L 13.0525 12.3695C 13.0057 12.5808 13.0948 12.7992 13.2763 12.9168C 13.4585 13.0345 13.6939 13.0267 13.8676 12.8973L 15.7008 11.5343C 16.4092 11.8281 17.1859 11.9906 18.0003 11.9906C 21.3114 11.9906 24 9.30413 24 5.99562C 24 2.68646 21.3114 0 18.0003 0C 14.6886 0 12 2.68646 12 5.99562ZM 14.197 15.8362C 14.4891 15.5537 15.0072 15.4949 15.3515 15.7049L 20.6297 18.9421C 20.9751 19.1532 21.102 19.6173 20.9111 19.9701C 20.9111 19.9701 18.7438 24 16.5125 24C 7.39326 24 0 16.7182 0 7.73535C 0 5.54082 3.05539 3.151 3.05539 3.151C 3.37415 2.9032 3.82722 2.96725 4.05856 3.29276L 7.97746 8.76541C 8.21094 9.09091 8.16724 9.59177 7.88046 9.87422L 5.72591 11.9942C 5.43913 12.2777 5.43913 12.7418 5.72591 13.0242L 10.8655 18.0884C 11.1523 18.3709 11.6171 18.3709 11.9102 18.0884L 14.197 15.8362Z"/>
</defs>
</svg>
