<svg width="24" height="24" viewBox="0 0 24 24" version="1.1" xmlns="http://www.w3.org/2000/svg" xmlns:xlink="http://www.w3.org/1999/xlink">
<title>pause</title>
<desc>Created using Figma</desc>
<g id="Canvas" transform="translate(-195 -2)">
<g id="pause">
<g id="pause">
<use xlink:href="#path0_fill" transform="translate(196 3)" fill="#707689"/>
<use xlink:href="#path1_fill" transform="translate(196 3)" fill="#707689"/>
<use xlink:href="#path2_fill" transform="translate(196 3)" fill="#707689"/>
</g>
</g>
</g>
<defs>
<path id="path0_fill" d="M 10 8C 10 7.44772 9.55228 7 9 7C 8.44771 7 8 7.44772 8 8L 8 14C 8 14.5523 8.44771 15 9 15C 9.55228 15 10 14.5523 10 14L 10 8Z"/>
<path id="path1_fill" d="M 13 7C 13.5523 7 14 7.44772 14 8L 14 14C 14 14.5523 13.5523 15 13 15C 12.4477 15 12 14.5523 12 14L 12 8C 12 7.44772 12.4477 7 13 7Z"/>
<path id="path2_fill" fill-rule="evenodd" d="M 11 0C 4.9346 0 0 4.9346 0 11C 0 17.0665 4.9346 22 11 22C 17.0654 22 22 17.0665 22 11C 22 4.9346 17.0654 0 11 0ZM 11 19.8C 6.1479 19.8 2.2 15.8521 2.2 11C 2.2 6.1479 6.1479 2.2 11 2.2C 15.8521 2.2 19.8 6.1479 19.8 11C 19.8 15.8521 15.8521 19.8 11 19.8Z"/>
</defs>
</svg>
