<svg width="24" height="24" viewBox="0 0 24 24" version="1.1" xmlns="http://www.w3.org/2000/svg" xmlns:xlink="http://www.w3.org/1999/xlink">
<title>pin</title>
<desc>Created using Figma</desc>
<g id="Canvas" transform="translate(285 -99)">
<g id="pin">
<g id="Union">
<use xlink:href="#path0_fill" transform="translate(-281 103)" fill="#707689"/>
</g>
</g>
</g>
<defs>
<path id="path0_fill" d="M 8.83003 0.489615C 9.51142 -0.191769 10.6718 -0.157647 11.3945 0.56504L 15.3543 4.52482C 16.0769 5.24751 16.1111 6.40788 15.4297 7.08926C 14.9536 7.56537 14.2451 7.67459 13.6141 7.46125L 11.4015 11.3546C 11.8371 12.6749 11.8417 13.9771 11.0126 14.8062C 10.8888 14.9299 10.718 14.9965 10.5377 14.9912C 10.3573 14.9859 10.1823 14.9091 10.051 14.7779L 6.3033 11.0302L 1.7071 15.6264C 1.31658 16.0169 0.683409 16.0169 0.292891 15.6264C -0.0976276 15.2359 -0.097633 14.6027 0.292891 14.2122L 4.88908 9.616L 1.14143 5.86834C 1.01015 5.73704 0.933431 5.56198 0.928139 5.38164C 0.922825 5.20129 0.989386 5.03046 1.11313 4.90667C 1.94223 4.07757 3.24438 4.08217 4.5647 4.51775L 8.45805 2.30525C 8.24468 1.67413 8.35393 0.965722 8.83003 0.489615Z"/>
</defs>
</svg>
