<svg width="24" height="24" viewBox="0 0 24 24" version="1.1" xmlns="http://www.w3.org/2000/svg" xmlns:xlink="http://www.w3.org/1999/xlink">
<title>play</title>
<desc>Created using Figma</desc>
<g id="Canvas" transform="translate(221 -99)">
<g id="play">
<g id="play">
<use xlink:href="#path0_fill" transform="translate(-220 100)" fill="#707689"/>
<use xlink:href="#path1_fill" transform="translate(-220 100)" fill="#707689"/>
</g>
</g>
</g>
<defs>
<path id="path0_fill" d="M 15 11L 9 15L 9 7L 15 11Z"/>
<path id="path1_fill" fill-rule="evenodd" d="M 0 11C 0 4.9346 4.9346 0 11 0C 17.0654 0 22 4.9346 22 11C 22 17.0665 17.0654 22 11 22C 4.9346 22 0 17.0665 0 11ZM 2.2 11C 2.2 15.8521 6.1479 19.8 11 19.8C 15.8521 19.8 19.8 15.8521 19.8 11C 19.8 6.1479 15.8521 2.2 11 2.2C 6.1479 2.2 2.2 6.1479 2.2 11Z"/>
</defs>
</svg>
