<svg width="24" height="24" viewBox="0 0 24 24" version="1.1" xmlns="http://www.w3.org/2000/svg" xmlns:xlink="http://www.w3.org/1999/xlink">
<title>plus</title>
<desc>Created using Figma</desc>
<g id="Canvas" transform="translate(253 29)">
<g id="plus">
<g id="plus">
<use xlink:href="#path0_fill" transform="translate(-252 -28)" fill="#707689"/>
</g>
</g>
</g>
<defs>
<path id="path0_fill" d="M 22 11C 22 10.4477 21.5523 10 21 10L 12 10L 12 1C 12 0.447715 11.5523 0 11 0C 10.4477 0 10 0.447715 10 1L 10 10L 1 10C 0.447715 10 0 10.4477 0 11C 0 11.5523 0.447715 12 1 12L 10 12L 10 21C 10 21.5523 10.4477 22 11 22C 11.5523 22 12 21.5523 12 21L 12 12L 21 12C 21.5523 12 22 11.5523 22 11Z"/>
</defs>
</svg>
