<svg width="24" height="24" viewBox="0 0 24 24" version="1.1" xmlns="http://www.w3.org/2000/svg" xmlns:xlink="http://www.w3.org/1999/xlink">
<title>settings</title>
<desc>Created using Figma</desc>
<g id="Canvas" transform="translate(125 29)">
<g id="settings">
<g id="settings">
<use xlink:href="#path0_fill" transform="translate(-124 -28)" fill="#707689"/>
</g>
</g>
</g>
<defs>
<path id="path0_fill" fill-rule="evenodd" d="M 22 12.7C 22 12.9761 21.7761 13.2 21.5 13.2L 19.5129 13.2C 19.2478 14.2241 18.81 15.1778 18.2215 16.0204L 19.4467 17.2464C 19.6418 17.4417 19.6418 17.7582 19.4466 17.9534L 17.9537 19.4463C 17.7584 19.6416 17.4417 19.6416 17.2464 19.4462L 16.0215 18.2204C 15.1767 18.8089 14.2252 19.2478 13.2 19.5118L 13.2 21.5C 13.2 21.7761 12.9761 22 12.7 22L 9.3 22C 9.02386 22 8.8 21.7761 8.8 21.5L 8.8 19.5118C 7.7759 19.2478 6.8233 18.8089 5.9796 18.2204L 4.75356 19.4464C 4.55829 19.6417 4.24171 19.6417 4.04645 19.4464L 2.55355 17.9536C 2.35829 17.7583 2.35829 17.4417 2.55355 17.2464L 3.7796 16.0204C 3.1911 15.1789 2.7522 14.2252 2.4882 13.2L 0.5 13.2C 0.223854 13.2 0 12.9761 0 12.7L 0 9.3C 0 9.02386 0.223854 8.8 0.5 8.8L 2.4882 8.8C 2.7522 7.7748 3.19 6.8222 3.7796 5.9796L 2.55355 4.75355C 2.35829 4.55829 2.35829 4.24171 2.55355 4.04645L 4.04645 2.55355C 4.24171 2.35829 4.55829 2.35829 4.75356 2.55355L 5.9796 3.7796C 6.8222 3.19 7.7748 2.7522 8.8 2.4882L 8.8 0.5C 8.8 0.223858 9.02386 0 9.3 0L 12.7 0C 12.9761 0 13.2 0.223858 13.2 0.5L 13.2 2.4871C 14.2252 2.7522 15.1767 3.19 16.0215 3.7785L 17.2464 2.5527C 17.4417 2.35732 17.7584 2.35727 17.9537 2.55258L 19.4466 4.04547C 19.6418 4.24068 19.6418 4.55717 19.4467 4.75245L 18.2204 5.9796C 18.8089 6.8222 19.2478 7.7759 19.5118 8.8L 21.5 8.8C 21.7761 8.8 22 9.02386 22 9.3L 22 12.7ZM 11 14.6667C 13.025 14.6667 14.6667 13.025 14.6667 11C 14.6667 8.97495 13.025 7.33333 11 7.33333C 8.97495 7.33333 7.33334 8.97495 7.33334 11C 7.33334 13.025 8.97495 14.6667 11 14.6667Z"/>
</defs>
</svg>
