<svg width="24" height="24" viewBox="0 0 24 24" version="1.1" xmlns="http://www.w3.org/2000/svg" xmlns:xlink="http://www.w3.org/1999/xlink">
<title>smiley-sad-stroke</title>
<desc>Created using Figma</desc>
<g id="Canvas" transform="translate(61 29)">
<g id="smiley-sad-stroke">
<g id="smiley-sad-stroke">
<use xlink:href="#path0_fill" transform="translate(-60 -28)" fill="#707689"/>
</g>
</g>
</g>
<defs>
<path id="path0_fill" fill-rule="evenodd" d="M 0 11C 0 4.9346 4.9346 0 11 0C 17.0654 0 22 4.9346 22 11C 22 17.0665 17.0654 22 11 22C 4.9346 22 0 17.0665 0 11ZM 2.2 11C 2.2 15.8521 6.1479 19.8 11 19.8C 15.8521 19.8 19.8 15.8521 19.8 11C 19.8 6.1479 15.8521 2.2 11 2.2C 6.1479 2.2 2.2 6.1479 2.2 11ZM 7.6 6.6L 7.8 6.6C 8.35228 6.6 8.8 7.04772 8.8 7.6L 8.8 7.8C 8.8 8.35229 8.35228 8.8 7.8 8.8L 7.6 8.8C 7.04771 8.8 6.6 8.35229 6.6 7.8L 6.6 7.6C 6.6 7.04772 7.04771 6.6 7.6 6.6ZM 14.4 6.6L 14.2 6.6C 13.6477 6.6 13.2 7.04772 13.2 7.6L 13.2 7.8C 13.2 8.35229 13.6477 8.8 14.2 8.8L 14.4 8.8C 14.9523 8.8 15.4 8.35229 15.4 7.8L 15.4 7.6C 15.4 7.04772 14.9523 6.6 14.4 6.6ZM 5.62511 15.386C 5.20119 14.9508 5.20654 14.2479 5.69049 13.8807C 7.212 12.7262 9.06178 12.1 11 12.1C 12.9817 12.1 14.8626 12.7498 16.3992 13.9487C 16.8783 14.3224 16.8743 15.0255 16.4445 15.455C 16.0147 15.8845 15.3225 15.875 14.8283 15.5215C 13.719 14.7279 12.3931 14.3 11 14.3C 9.63942 14.3 8.33726 14.7116 7.24084 15.4741C 6.74181 15.8211 6.04925 15.8213 5.62511 15.386Z"/>
</defs>
</svg>
