<svg width="24" height="25" viewBox="0 0 24 25" version="1.1" xmlns="http://www.w3.org/2000/svg" xmlns:xlink="http://www.w3.org/1999/xlink">
<title>social-post</title>
<desc>Created using Figma</desc>
<g id="Canvas" transform="translate(-163 -35)">
<g id="social-post">
<g id="Union">
<use xlink:href="#path0_fill" transform="translate(164 35.999)" fill="#707689"/>
</g>
</g>
</g>
<defs>
<path id="path0_fill" fill-rule="evenodd" d="M 1.2 24L 21.6 24C 22.2636 24 22.8 23.4636 22.8 22.8L 22.8 1.2C 22.8 0.537598 22.2636 0 21.6 0L 1.2 0C 0.536407 0 0 0.537598 0 1.2L 0 22.8C 0 23.4624 0.536407 24 1.2 24ZM 20.4 21.6L 2.39999 21.6L 2.39999 2.4L 20.4 2.4L 20.4 21.6ZM 6.60001 4.8L 16.2 4.8C 17.1941 4.8 18 5.60589 18 6.6C 18 7.59411 17.1941 8.4 16.2 8.4L 6.60001 8.4C 5.60588 8.4 4.8 7.59411 4.8 6.6C 4.8 5.60589 5.60588 4.8 6.60001 4.8ZM 9.60001 9.6L 6 9.6C 5.33727 9.6 4.8 10.1373 4.8 10.8C 4.8 11.4627 5.33727 12 6 12L 9.60001 12C 10.2627 12 10.8 11.4627 10.8 10.8C 10.8 10.1373 10.2627 9.6 9.60001 9.6ZM 6 13.2L 9.60001 13.2C 10.2627 13.2 10.8 13.7373 10.8 14.4C 10.8 15.0627 10.2627 15.6 9.60001 15.6L 6 15.6C 5.33727 15.6 4.8 15.0627 4.8 14.4C 4.8 13.7373 5.33727 13.2 6 13.2ZM 9.60001 16.8L 6 16.8C 5.33727 16.8 4.8 17.3373 4.8 18C 4.8 18.6627 5.33727 19.2 6 19.2L 9.60001 19.2C 10.2627 19.2 10.8 18.6627 10.8 18C 10.8 17.3373 10.2627 16.8 9.60001 16.8ZM 13.2 9.6L 16.8 9.6C 17.4627 9.6 18 10.1373 18 10.8C 18 11.4627 17.4627 12 16.8 12L 13.2 12C 12.5373 12 12 11.4627 12 10.8C 12 10.1373 12.5373 9.6 13.2 9.6ZM 16.8 13.2L 13.2 13.2C 12.5373 13.2 12 13.7373 12 14.4C 12 15.0627 12.5373 15.6 13.2 15.6L 16.8 15.6C 17.4627 15.6 18 15.0627 18 14.4C 18 13.7373 17.4627 13.2 16.8 13.2ZM 13.2 16.8L 16.8 16.8C 17.4627 16.8 18 17.3373 18 18C 18 18.6627 17.4627 19.2 16.8 19.2L 13.2 19.2C 12.5373 19.2 12 18.6627 12 18C 12 17.3373 12.5373 16.8 13.2 16.8Z"/>
</defs>
</svg>
