<svg width="24" height="24" viewBox="0 0 24 24" version="1.1" xmlns="http://www.w3.org/2000/svg" xmlns:xlink="http://www.w3.org/1999/xlink">
<title>social-sms</title>
<desc>Created using Figma</desc>
<g id="Canvas" transform="translate(-195 -35)">
<g id="social-sms">
<g id="social-sms">
<use xlink:href="#path0_fill" transform="translate(199 35)" fill="#707689"/>
</g>
</g>
</g>
<defs>
<path id="path0_fill" fill-rule="evenodd" d="M 0 2C 0 0.895432 0.895432 0 2 0L 12 0C 13.1046 0 14 0.895432 14 2C 11.9723 2.00008 10.1196 2.75542 8.70892 4L 8 4L 2 4L 2 18L 0 18L 0 2ZM 8 19L 2 19L 0 19L 0 22C 0 23.1046 0.895432 24 2 24L 12 24C 13.1046 24 14 23.1046 14 22L 14 19L 12 19L 8 19ZM 8 21C 8 21.5523 7.55228 22 7 22C 6.44772 22 6 21.5523 6 21C 6 20.4477 6.44772 20 7 20C 7.55228 20 8 20.4477 8 21ZM 8 9.99562C 8 11.5537 8.59653 12.9739 9.57359 14.0406L 9.05254 16.3695C 9.00569 16.5808 9.09482 16.7992 9.27631 16.9168C 9.45845 17.0345 9.69394 17.0267 9.86761 16.8973L 11.7008 15.5343C 12.4092 15.8281 13.1859 15.9906 14.0003 15.9906C 17.3114 15.9906 20 13.3041 20 9.99562C 20 6.68646 17.3114 4 14.0003 4C 10.6886 4 8 6.68646 8 9.99562Z"/>
</defs>
</svg>
