<svg width="24" height="24" viewBox="0 0 24 24" version="1.1" xmlns="http://www.w3.org/2000/svg" xmlns:xlink="http://www.w3.org/1999/xlink">
<title>tag-decrease</title>
<desc>Created using Figma</desc>
<g id="Canvas" transform="translate(-67 29)">
<g id="tag-decrease">
<g id="tag-decrease">
<use xlink:href="#path0_fill" transform="matrix(-1 0 0 1 90.0003 -29)" fill="#707689"/>
</g>
</g>
</g>
<defs>
<path id="path0_fill" fill-rule="evenodd" d="M 12.0002 0L 19.0002 0C 19.5533 0 20.0002 0.447001 20.0002 1L 20.0002 8C 20.0002 8.266 19.8952 8.519 19.7073 8.707L 8.70725 19.707C 8.51225 19.902 8.25625 20 8.00025 20C 7.74425 20 7.48825 19.902 7.29325 19.707L 0.293249 12.707C -0.0977497 12.316 -0.0977497 11.684 0.293249 11.293L 11.2932 0.292999C 11.4812 0.105 11.7343 0 12.0002 0ZM 13.0002 5C 13.0002 6.103 13.8942 7 15.0002 7C 16.1042 7 17.0002 6.103 17.0002 5C 17.0002 3.895 16.1042 3 15.0002 3C 13.8942 3 13.0002 3.895 13.0002 5ZM 17.0002 20C 17.0002 19.4477 17.448 19 18.0002 19L 22.0002 19C 22.5525 19 23.0002 19.4477 23.0002 20C 23.0002 20.5523 22.5525 21 22.0002 21L 18.0002 21C 17.448 21 17.0002 20.5523 17.0002 20Z"/>
</defs>
</svg>
