<svg width="24" height="24" viewBox="0 0 24 24" version="1.1" xmlns="http://www.w3.org/2000/svg" xmlns:xlink="http://www.w3.org/1999/xlink">
<title>trad</title>
<desc>Created using Figma</desc>
<g id="Canvas" transform="translate(-67 -2)">
<g id="trad">
<g id="trad">
<use xlink:href="#path0_fill" transform="translate(67.586 5.70215)" fill="#707689"/>
</g>
</g>
</g>
<defs>
<path id="path0_fill" fill-rule="evenodd" d="M 17.414 8.29285C 17.0235 7.90238 17.0235 7.26931 17.414 6.87885L 19 5.29285L 8.414 5.29285C 7.86172 5.29285 7.414 4.84513 7.414 4.29285C 7.414 3.74056 7.86172 3.29285 8.414 3.29285L 19 3.29285L 17.414 1.70685C 17.0235 1.31638 17.0235 0.683313 17.414 0.292849C 17.8045 -0.0976162 18.4375 -0.0976162 18.828 0.292849L 22.828 4.29285L 18.828 8.29285C 18.4375 8.68331 17.8045 8.68331 17.414 8.29285ZM 5.414 8.29285C 5.80447 8.68331 5.80447 9.31638 5.414 9.70685L 3.828 11.2928L 14.414 11.2928C 14.9663 11.2928 15.414 11.7406 15.414 12.2928C 15.414 12.8451 14.9663 13.2928 14.414 13.2928L 3.828 13.2928L 5.414 14.8789C 5.80447 15.2693 5.80447 15.9024 5.414 16.2928C 5.02354 16.6833 4.39046 16.6833 4 16.2928L 0 12.2928L 4 8.29285C 4.39046 7.90238 5.02354 7.90238 5.414 8.29285Z"/>
</defs>
</svg>
