<svg width="24" height="24" viewBox="0 0 24 24" version="1.1" xmlns="http://www.w3.org/2000/svg" xmlns:xlink="http://www.w3.org/1999/xlink">
<title>truck</title>
<desc>Created using Figma</desc>
<g id="Canvas" transform="translate(-34 -2)">
<g id="truck">
<g id="truck">
<use xlink:href="#path0_fill" transform="matrix(-1 0 0 1 55.9454 6)" fill="#707689"/>
</g>
</g>
</g>
<defs>
<path id="path0_fill" fill-rule="evenodd" d="M 10 0L 18 0C 19.104 0 20 0.897 20 2L 20 13C 20 13.552 19.553 14 19 14L 18 14C 18 12.344 16.656 11 15 11C 13.344 11 12 12.344 12 14L 9 14C 9 13.115 8.609 12.328 8 11.779L 8 2C 8 0.897 8.896 0 10 0ZM 6.97985 11.1127C 6.97437 11.1326 6.96888 11.1526 6.965 11.173C 6.66 11.069 6.34 11 6 11C 4.344 11 3 12.344 3 14L 1 14C 0.447002 14 0 13.552 0 13L 0 7C 0 4.794 1.795 3 4 3L 6 3C 6.553 3 7 3.448 7 4L 7 11C 7 11.0395 6.98993 11.0761 6.97985 11.1127ZM 2 8L 5 8L 5 6L 2 6L 2 8ZM 17 14C 17 15.1046 16.1046 16 15 16C 13.8954 16 13 15.1046 13 14C 13 12.8954 13.8954 12 15 12C 16.1046 12 17 12.8954 17 14ZM 6 16C 7.10457 16 8 15.1046 8 14C 8 12.8954 7.10457 12 6 12C 4.89543 12 4 12.8954 4 14C 4 15.1046 4.89543 16 6 16Z"/>
</defs>
</svg>
