<svg width="24" height="24" viewBox="0 0 24 24" version="1.1" xmlns="http://www.w3.org/2000/svg" xmlns:xlink="http://www.w3.org/1999/xlink">
<title>tutorial</title>
<desc>Created using Figma</desc>
<g id="Canvas" transform="translate(285 -3)">
<g id="tutorial">
<g id="tutorial">
<use xlink:href="#path0_fill" transform="translate(-284 5.00025)" fill="#707689"/>
</g>
</g>
</g>
<defs>
<path id="path0_fill" fill-rule="evenodd" d="M 11.447 0.10575L 21.447 5.10575C 21.799 5.28275 22.016 5.64775 21.999 6.04075C 21.983 6.43475 21.737 6.78175 21.372 6.92775L 18 8.27675L 18 13.1807C 18 13.5597 17.786 13.9048 17.447 14.0758C 17.2818 14.1583 17.1161 14.2426 16.949 14.3278C 15.3779 15.128 13.6763 15.9948 11 15.9948C 8.3252 15.9948 6.62473 15.1289 5.05382 14.3291C 4.88574 14.2435 4.71915 14.1587 4.55299 14.0758C 4.214 13.9058 4 13.5597 4 13.1818L 4 8.27775L 2 7.47775L 2 11.7648C 2 12.3158 1.552 12.7648 1 12.7648C 0.447998 12.7648 0 12.3158 0 11.7648L 0 5.99975C 0 5.89775 0.0469971 5.68975 0.106995 5.56775C 0.197998 5.37875 0.352005 5.20475 0.552002 5.10575L 10.552 0.10575C 10.834 -0.0352499 11.166 -0.0352499 11.447 0.10575ZM 15.025 13.0498L 16 12.5627L 16 9.07675L 11.372 10.9288C 11.252 10.9777 11.126 10.9998 11 10.9998C 10.874 10.9998 10.748 10.9778 10.628 10.9298L 6 9.07775L 6 12.5627L 6.97501 13.0498C 9.495 14.3108 12.504 14.3108 15.025 13.0498ZM 3.439 5.89775L 11 8.92275L 18.561 5.89775L 11 2.11875L 3.439 5.89775ZM 0 14.9998C 0 14.4478 0.447998 13.9998 1 13.9998C 1.552 13.9998 2 14.4478 2 14.9998L 2 16.9998C 2 17.5527 1.552 17.9998 1 17.9998C 0.447998 17.9998 0 17.5527 0 16.9998L 0 14.9998Z"/>
</defs>
</svg>
