<svg width="24" height="24" viewBox="0 0 24 24" version="1.1" xmlns="http://www.w3.org/2000/svg" xmlns:xlink="http://www.w3.org/1999/xlink">
<title>twitter</title>
<desc>Created using Figma</desc>
<g id="Canvas" transform="translate(253 -3)">
<g id="twitter">
<g id="twitter">
<use xlink:href="#path0_fill" transform="translate(-252 6)" fill="#707689"/>
</g>
</g>
</g>
<defs>
<path id="path0_fill" d="M 19.7632 4.87045C 19.7632 10.6365 15.2228 17.2854 6.92021 17.2854C 4.37177 17.2854 1.99842 16.563 4.35425e-11 15.3255C 0.351098 15.3631 0.71228 15.3869 1.07713 15.3869C 3.19197 15.3869 5.13813 14.6884 6.68369 13.5177C 4.70636 13.4838 3.04071 12.2206 2.46502 10.488C 2.74095 10.5394 3.02421 10.5669 3.31205 10.5669C 3.72457 10.5669 4.12426 10.5128 4.50194 10.4138C 2.4366 10.0104 0.880037 8.24943 0.880037 6.13367L 0.880037 6.07959C 1.48873 6.40593 2.18542 6.60211 2.92521 6.62411C 1.71424 5.84124 0.918538 4.50469 0.918538 2.99121C 0.918538 2.19184 1.1413 1.44289 1.52998 0.79845C 3.75482 3.43856 7.08154 5.1748 10.8336 5.35631C 10.7557 5.03821 10.7181 4.70361 10.7181 4.36168C 10.7181 1.95441 12.7385 2.44787e-08 15.2301 2.44787e-08C 16.5291 2.44787e-08 17.7034 0.529855 18.5266 1.37597C 19.5533 1.18163 20.5204 0.818617 21.3931 0.318096C 21.0558 1.33656 20.3389 2.19184 19.4085 2.73086C 20.3206 2.62636 21.1896 2.3926 22 2.04334C 21.3959 2.92337 20.6323 3.69065 19.7486 4.30668C 19.7587 4.49369 19.7632 4.68161 19.7632 4.87045Z"/>
</defs>
</svg>
